<?xml version="1.0" standalone="no"?>
<!DOCTYPE svg PUBLIC "-//W3C//DTD SVG 20010904//EN"
 "http://www.w3.org/TR/2001/REC-SVG-20010904/DTD/svg10.dtd">
<svg version="1.0" xmlns="http://www.w3.org/2000/svg"
 width="512.000000pt" height="512.000000pt" viewBox="0 0 512.000000 512.000000"
 preserveAspectRatio="xMidYMid meet">

<g transform="translate(0.000000,512.000000) scale(0.100000,-0.100000)"
fill="#000000" stroke="none">
<path d="M1345 4794 c-148 -20 -193 -29 -284 -55 -541 -154 -944 -610 -1042
-1179 -17 -96 -17 -363 0 -460 57 -330 175 -554 444 -841 208 -221 1679 -1685
1791 -1782 120 -104 216 -152 306 -152 90 0 186 48 306 152 112 97 1583 1561
1791 1782 269 287 387 511 444 841 17 97 17 364 0 460 -110 635 -586 1111
-1221 1221 -96 17 -363 17 -460 0 -297 -51 -558 -179 -768 -376 l-92 -87 -92
86 c-206 195 -457 320 -743 372 -80 15 -323 26 -380 18z m345 -664 c97 -28
199 -78 279 -137 38 -28 170 -165 323 -333 143 -157 263 -285 268 -285 5 0
125 128 268 285 153 168 285 305 323 333 248 185 573 217 851 85 176 -84 312
-220 396 -396 132 -279 99 -609 -87 -852 -27 -36 -433 -447 -900 -915 l-851
-850 -851 850 c-467 468 -873 879 -900 915 -101 132 -156 285 -166 460 -21
399 261 765 655 851 113 25 283 20 392 -11z"/>
</g>
</svg>
