<svg id="l_d_1860" xmlns="http://www.w3.org/2000/svg" xmlns:xlink="http://www.w3.org/1999/xlink" viewBox="0 0 45 45" width="45" height="45" preserveAspectRatio="xMidYMid meet" style="width: 100%; height: 100%; transform: translate3d(0px, 0px, 0px); content-visibility: visible;"><defs id="l_d_1861"><clipPath id="__lottie_element_783"><rect id="l_d_1864" width="45" height="45" x="0" y="0"></rect></clipPath></defs><g id="l_d_1862" clip-path="url(#__lottie_element_783)"><g id="l_d_1887" transform="matrix(1,0,0,1,-22.875,-16.75)" opacity="1" style="display: block;"><g id="l_d_1891" opacity="1" transform="matrix(1,0,0,1,0,0)"><g id="l_d_1892" opacity="1" transform="matrix(1,0,0,1,40,42)"><path id="l_d_1893" stroke-linecap="butt" stroke-linejoin="miter" fill-opacity="0" stroke-miterlimit="4" stroke="rgb(34,34,34)" stroke-opacity="1" stroke-width="2" d=" M-8,-4 C-8,-4 -8,11 -8,11 C-8,11 -8,11 -8,11 C-8,11 -12,11 -12,11 C-12,11 -12,-11 -12,-11 C-12,-11 12,-11 12,-11 C12,-11 12,11 12,11 C12,11 8,11 8,11 C8,11 8,-4 8,-4 C8,-4.552000045776367 7.552000045776367,-5 7,-5 C7,-5 -7,-5 -7,-5 C-7.552000045776367,-5 -8,-4.552000045776367 -8,-4z"></path></g><g id="l_d_1894" opacity="1" transform="matrix(1,0,0,1,40,31)"><path id="l_d_1895" stroke-linecap="butt" stroke-linejoin="round" fill-opacity="0" stroke="rgb(34,34,34)" stroke-opacity="1" stroke-width="2" d=" M-15,0 C-15,0 15,0 15,0"></path></g><g id="l_d_1896" opacity="1" transform="matrix(1,0,0,1,40,27)"><path id="l_d_1897" stroke-linecap="butt" stroke-linejoin="round" fill-opacity="0" stroke="rgb(34,34,34)" stroke-opacity="1" stroke-width="2" d=" M-15,0 C-15,0 15,0 15,0"></path></g></g></g><g id="l_d_1880" style="display: none;"><g id="l_d_1884"><g id="l_d_1885"><path id="l_d_1886" stroke-linecap="butt" stroke-linejoin="miter" fill-opacity="0" stroke-miterlimit="4"></path></g></g></g><g id="l_d_1874" style="display: none;"><g id="l_d_1878"><path id="l_d_1879" stroke-linecap="butt" stroke-linejoin="round" fill-opacity="0"></path></g></g><g id="l_d_1865" transform="matrix(1,0,0,1,-22.875,-16.75)" opacity="1" style="display: block;"><g id="l_d_1869" opacity="1" transform="matrix(1,0,0,1,0,0)"><g id="l_d_1870" opacity="1" transform="matrix(1,0,0,1,40,47.63399887084961)"><path id="l_d_1871" stroke-linecap="butt" stroke-linejoin="miter" fill-opacity="0" stroke-miterlimit="4" stroke="rgb(34,34,34)" stroke-opacity="1" stroke-width="2" d=" M0,-5.363999843597412 C2.6670000553131104,-3.061000108718872 4,-0.8180000185966492 4,1.3639999628067017 C4,3.572999954223633 2.2090001106262207,5.363999843597412 0,5.363999843597412 C-2.2090001106262207,5.363999843597412 -4,3.5460000038146973 -4,1.3639999628067017 C-4,-0.8180000185966492 -2.6670000553131104,-3.061000108718872 0,-5.363999843597412z"></path></g></g><g id="l_d_1872" opacity="1" transform="matrix(1,0,0,1,40,51)"><path id="l_d_1873" stroke-linecap="butt" stroke-linejoin="round" fill-opacity="0" stroke="rgb(34,34,34)" stroke-opacity="1" stroke-width="2" d=" M0,-2.25 C1.2430000305175781,-2.25 2.25,-1.2430000305175781 2.25,0 C2.25,1.2430000305175781 1.2430000305175781,2.25 0,2.25 C-1.2430000305175781,2.25 -2.25,1.2430000305175781 -2.25,0 C-2.25,-1.2430000305175781 -1.2430000305175781,-2.25 0,-2.25z"></path></g></g></g></svg>