<svg id="l_d_1696" xmlns="http://www.w3.org/2000/svg" xmlns:xlink="http://www.w3.org/1999/xlink" viewBox="0 0 45 45" width="45" height="45" preserveAspectRatio="xMidYMid meet" style="width: 100%; height: 100%; transform: translate3d(0px, 0px, 0px); content-visibility: visible;"><defs id="l_d_1697"><clipPath id="__lottie_element_717"><rect id="l_d_1700" width="45" height="45" x="0" y="0"></rect></clipPath><g id="__lottie_element_737"><g id="l_d_1737" transform="matrix(1,0,0,1,-23,-19.25)" opacity="1" style="display: block;"><g id="l_d_1742" opacity="1" transform="matrix(1,0,0,1,40,44)"><path id="l_d_1743" fill="rgb(34,34,34)" fill-opacity="1" d=" M11.930999755859375,0 C11.930999755859375,0 -11.930999755859375,0 -11.930999755859375,0 C-11.930999755859375,0 -14.982999801635742,-21.448999404907227 -14.982999801635742,-21.448999404907227 C-14.982999801635742,-21.448999404907227 15.00100040435791,-21.322999954223633 15.00100040435791,-21.322999954223633 C15.00100040435791,-21.322999954223633 11.930999755859375,0 11.930999755859375,0z"></path></g></g></g><mask id="__lottie_element_737_1" mask-type="alpha"><use id="l_d_1752" xlink:href="#__lottie_element_737"></use></mask><g id="__lottie_element_743"><g id="l_d_1753" transform="matrix(1,0,0,1,-23,-19.25)" opacity="1" style="display: block;"><g id="l_d_1758" opacity="1" transform="matrix(1,0,0,1,40,44)"><path id="l_d_1759" fill="rgb(34,34,34)" fill-opacity="1" d=" M11.930999755859375,0 C11.930999755859375,0 -11.930999755859375,0 -11.930999755859375,0 C-11.930999755859375,0 -14.982999801635742,-21.448999404907227 -14.982999801635742,-21.448999404907227 C-14.982999801635742,-21.448999404907227 15.00100040435791,-21.322999954223633 15.00100040435791,-21.322999954223633 C15.00100040435791,-21.322999954223633 11.930999755859375,0 11.930999755859375,0z"></path></g></g></g><mask id="__lottie_element_743_1" mask-type="alpha"><use id="l_d_1768" xlink:href="#__lottie_element_743"></use></mask><g id="__lottie_element_749"><g id="l_d_1769" transform="matrix(1,0,0,1,-23,-19.25)" opacity="1" style="display: block;"><g id="l_d_1774" opacity="1" transform="matrix(1,0,0,1,40,44)"><path id="l_d_1775" fill="rgb(34,34,34)" fill-opacity="1" d=" M-14.991999626159668,10.925999641418457 C-14.991999626159668,10.925999641418457 -11.930999755859375,0 -11.930999755859375,0 C-11.930999755859375,0 11.930999755859375,0 11.930999755859375,0 C11.930999755859375,0 14.991999626159668,11.052000045776367 14.991999626159668,11.052000045776367"></path></g></g></g><filter id="__lottie_element_755" filterUnits="objectBoundingBox" x="0%" y="0%" width="100%" height="100%"><feComponentTransfer id="l_d_1786" in="SourceGraphic"><feFuncA id="l_d_1787" type="table" tableValues="1.0 0.0"></feFuncA></feComponentTransfer></filter><mask id="__lottie_element_749_2" mask-type="alpha"><g id="l_d_1784" filter="url(#__lottie_element_755)"><rect id="l_d_1788" width="45" height="45" x="0" y="0" fill="#ffffff" opacity="0"></rect><use id="l_d_1789" xlink:href="#__lottie_element_749"></use></g></mask><g id="__lottie_element_756"><g id="l_d_1790" transform="matrix(1,0,0,1,-23,-19.25)" opacity="1" style="display: block;"><g id="l_d_1795" opacity="1" transform="matrix(1,0,0,1,40,44)"><path id="l_d_1796" fill="rgb(34,34,34)" fill-opacity="1" d=" M-14.991999626159668,10.925999641418457 C-14.991999626159668,10.925999641418457 -11.930999755859375,0 -11.930999755859375,0 C-11.930999755859375,0 11.930999755859375,0 11.930999755859375,0 C11.930999755859375,0 14.991999626159668,11.052000045776367 14.991999626159668,11.052000045776367"></path></g></g></g><filter id="__lottie_element_762" filterUnits="objectBoundingBox" x="0%" y="0%" width="100%" height="100%"><feComponentTransfer id="l_d_1807" in="SourceGraphic"><feFuncA id="l_d_1808" type="table" tableValues="1.0 0.0"></feFuncA></feComponentTransfer></filter><mask id="__lottie_element_756_2" mask-type="alpha"><g id="l_d_1805" filter="url(#__lottie_element_762)"><rect id="l_d_1809" width="45" height="45" x="0" y="0" fill="#ffffff" opacity="0"></rect><use id="l_d_1810" xlink:href="#__lottie_element_756"></use></g></mask></defs><g id="l_d_1698" clip-path="url(#__lottie_element_717)"><g id="l_d_1811" transform="matrix(1,0,0,1,-23,-19.25)" opacity="1" style="display: block;"><g id="l_d_1815" opacity="1" transform="matrix(1,0,0,1,40,49)"><path id="l_d_1816" stroke-linecap="butt" stroke-linejoin="round" fill-opacity="0" stroke="rgb(34,34,34)" stroke-opacity="1" stroke-width="2" d=" M-12,-5 C-12,-5 12,-5 12,-5 C12,-5 12,5 12,5 C12,5 -12,5 -12,5 C-12,5 -12,-5 -12,-5z"></path></g><g id="l_d_1817" opacity="1" transform="matrix(1,0,0,1,40,44)"><path id="l_d_1818" stroke-linecap="butt" stroke-linejoin="round" fill-opacity="0" stroke="rgb(34,34,34)" stroke-opacity="1" stroke-width="2" d=" M-15,0 C-15,0 15,0 15,0"></path></g></g><g id="l_d_1798" mask="url(#__lottie_element_756_2)" style="display: block;"><g id="l_d_1797" transform="matrix(1,0,0,1,-23,-19.25)" opacity="1"><g id="l_d_1801" opacity="1" transform="matrix(1,0,0,1,0,0)"><g id="l_d_1802" opacity="1" transform="matrix(1,0,0,1,40,41.479000091552734)"><path id="l_d_1803" stroke-linecap="butt" stroke-linejoin="miter" fill-opacity="0" stroke-miterlimit="4" stroke="rgb(34,34,34)" stroke-opacity="1" stroke-width="2" d=" M0,3.244999885559082 C1.2369999885559082,3.244999885559082 2.25,2.1760001182556152 2.25,1.0809999704360962 C2.25,-0.10899999737739563 1.5,-1.5509999990463257 0,-3.244999885559082 C-1.5,-1.5509999990463257 -2.25,-0.10899999737739563 -2.25,1.0809999704360962 C-2.25,2.1760001182556152 -1.2369999885559082,3.244999885559082 0,3.244999885559082 C0,3.244999885559082 0,3.244999885559082 0,3.244999885559082z"></path></g></g></g></g><g id="l_d_1777" mask="url(#__lottie_element_749_2)" style="display: block;"><g id="l_d_1776" transform="matrix(1,0,0,1,-23,-19.25)" opacity="1"><g id="l_d_1780" opacity="1" transform="matrix(1,0,0,1,0,0)"><g id="l_d_1781" opacity="1" transform="matrix(1,0,0,1,40,36.91899871826172)"><path id="l_d_1782" stroke-linecap="round" stroke-linejoin="miter" fill-opacity="0" stroke-miterlimit="4" stroke="rgb(34,34,34)" stroke-opacity="1" stroke-width="2" d=" M0,-8.11400032043457 C3.318000078201294,-6.011000156402588 6,-1.3519999980926514 6,2.0280001163482666 C6,6.085000038146973 3.0380001068115234,8.11400032043457 0,8.11400032043457 C-2.990000009536743,8.11400032043457 -6,6.5920000076293945 -6,2.0280001163482666 C-6,0.33799999952316284 -5.166999816894531,-1.690000057220459 -3.5,-4.057000160217285 C-3.5,-4.057000160217285 -2,-3.0429999828338623 -2,-3.0429999828338623 C-2,-3.0429999828338623 -1.5,-7.544000148773193 0,-8.11400032043457z"></path></g></g></g></g><g id="l_d_1761" mask="url(#__lottie_element_743_1)" style="display: block;"><g id="l_d_1760" transform="matrix(0,0,0,0,17,25.68499755859375)" opacity="1"><g id="l_d_1764" opacity="1" transform="matrix(1,0,0,1,0,0)"><g id="l_d_1765" opacity="1" transform="matrix(1,0,0,1,40,41.479000091552734)"><path id="l_d_1766" stroke-linecap="butt" stroke-linejoin="miter" fill-opacity="0" stroke-miterlimit="4" stroke="rgb(34,34,34)" stroke-opacity="1" stroke-width="2" d=" M0,3.244999885559082 C1.2369999885559082,3.244999885559082 2.25,2.1760001182556152 2.25,1.0809999704360962 C2.25,-0.10899999737739563 1.5,-1.5509999990463257 0,-3.244999885559082 C-1.5,-1.5509999990463257 -2.25,-0.10899999737739563 -2.25,1.0809999704360962 C-2.25,2.1760001182556152 -1.2369999885559082,3.244999885559082 0,3.244999885559082 C0,3.244999885559082 0,3.244999885559082 0,3.244999885559082z"></path></g></g></g></g><g id="l_d_1745" mask="url(#__lottie_element_737_1)" style="display: block;"><g id="l_d_1744" transform="matrix(0,0,0,0,16.625,26.027999877929688)" opacity="1"><g id="l_d_1748" opacity="1" transform="matrix(1,0,0,1,0,0)"><g id="l_d_1749" opacity="1" transform="matrix(1,0,0,1,40,36.91899871826172)"><path id="l_d_1750" stroke-linecap="round" stroke-linejoin="miter" fill-opacity="0" stroke-miterlimit="4" stroke="rgb(34,34,34)" stroke-opacity="1" stroke-width="2" d=" M0,-8.11400032043457 C4,-4.732999801635742 6,-1.3519999980926514 6,2.0280001163482666 C6,6.085000038146973 3.0380001068115234,8.11400032043457 0,8.11400032043457 C-2.990000009536743,8.11400032043457 -6,6.5920000076293945 -6,2.0280001163482666 C-6,0.33799999952316284 -5.166999816894531,-1.690000057220459 -3.5,-4.057000160217285 C-3.5,-4.057000160217285 -2,-3.0429999828338623 -2,-3.0429999828338623 C-2,-3.0429999828338623 0,-8.11400032043457 0,-8.11400032043457z"></path></g></g></g></g><g id="l_d_1731" style="display: none;"><g id="l_d_1735"><path id="l_d_1736"></path></g></g><g id="l_d_1725" style="display: none;"><g id="l_d_1729"><path id="l_d_1730"></path></g></g><g id="l_d_1719" style="display: none;"><g id="l_d_1723"><path id="l_d_1724"></path></g></g><g id="l_d_1713" style="display: none;"><g id="l_d_1717"><path id="l_d_1718"></path></g></g><g id="l_d_1707" style="display: none;"><g id="l_d_1711"><path id="l_d_1712"></path></g></g><g id="l_d_1701" style="display: none;"><g id="l_d_1705"><path id="l_d_1706"></path></g></g></g></svg>