<svg id="l_d_2456" xmlns="http://www.w3.org/2000/svg" xmlns:xlink="http://www.w3.org/1999/xlink" viewBox="0 0 45 45" width="45" height="45" preserveAspectRatio="xMidYMid meet" style="width: 100%; height: 100%; transform: translate3d(0px, 0px, 0px); content-visibility: visible;"><defs id="l_d_2457"><clipPath id="__lottie_element_1055"><rect id="l_d_2460" width="45" height="45" x="0" y="0"></rect></clipPath><g id="__lottie_element_1058"><g id="l_d_2461" style="display: none;"><g id="l_d_2466"><path id="l_d_2467"></path></g></g></g><mask id="__lottie_element_1058_1" mask-type="alpha"><use id="l_d_2480" xlink:href="#__lottie_element_1058"></use></mask><g id="__lottie_element_1073"><g id="l_d_2499" style="display: none;"><g id="l_d_2504"><path id="l_d_2505"></path></g></g></g><mask id="__lottie_element_1073_1" mask-type="alpha"><use id="l_d_2513" xlink:href="#__lottie_element_1073"></use></mask></defs><g id="l_d_2458" clip-path="url(#__lottie_element_1055)"><g id="l_d_2507" mask="url(#__lottie_element_1073_1)" style="display: none;"><g id="l_d_2506"><g id="l_d_2510"><path id="l_d_2511" stroke-linecap="butt" stroke-linejoin="miter" fill-opacity="0" stroke-miterlimit="4"></path></g></g></g><g id="l_d_2493" transform="matrix(1,0,0,1,-22.625,-17.5)" opacity="1" style="display: block;"><g id="l_d_2497" opacity="1" transform="matrix(1,0,0,1,40,40)"><path id="l_d_2498" stroke-linecap="butt" stroke-linejoin="miter" fill-opacity="0" stroke-miterlimit="4" stroke="rgb(34,34,34)" stroke-opacity="1" stroke-width="2" d=" M-10,-12 C-10,-12 10,-12 10,-12 C12.208999633789062,-12 14,-10.208999633789062 14,-8 C14,-8 14,8 14,8 C14,10.208999633789062 12.208999633789062,12 10,12 C10,12 -10,12 -10,12 C-12.208999633789062,12 -14,10.208999633789062 -14,8 C-14,8 -14,-8 -14,-8 C-14,-10.208999633789062 -12.208999633789062,-12 -10,-12z"></path></g></g><g id="l_d_2487" transform="matrix(1,0,0,1,-22.625,-17.5)" opacity="1" style="display: block;"><g id="l_d_2491" opacity="1" transform="matrix(1,0,0,1,40,40)"><path id="l_d_2492" stroke-linecap="butt" stroke-linejoin="miter" fill-opacity="0" stroke-miterlimit="4" stroke="rgb(34,34,34)" stroke-opacity="1" stroke-width="2" d=" M-2,2 C-2.062000036239624,2.875 -2,6 -2,6 C-2,6 2,6 2,6 C2,6 2,2 2,2 C2,2 6,2 6,2 C6,2 6,-2 6,-2 C6,-2 2,-2 2,-2 C2,-2 2,-6 2,-6 C2,-6 -2,-6 -2,-6 C-2,-6 -2,-2 -2,-2 C-2,-2 -6,-2 -6,-2 C-6,-2 -6,2 -6,2 C-6,2 -3,1.937999963760376 -2,2z"></path></g></g><g id="l_d_2481" style="display: none;"><g id="l_d_2485"><path id="l_d_2486" stroke-linecap="butt" stroke-linejoin="miter" fill-opacity="0" stroke-miterlimit="4"></path></g></g><g id="l_d_2469" mask="url(#__lottie_element_1058_1)" style="display: none;"><g id="l_d_2468"><g id="l_d_2472"><g id="l_d_2473"><path id="l_d_2474" stroke-linecap="butt" stroke-linejoin="round" fill-opacity="0"></path></g><g id="l_d_2475"><path id="l_d_2476" stroke-linecap="butt" stroke-linejoin="round" fill-opacity="0"></path></g><g id="l_d_2477"><path id="l_d_2478"></path></g></g></g></g></g></svg>