<svg id="l_d_1290" xmlns="http://www.w3.org/2000/svg" xmlns:xlink="http://www.w3.org/1999/xlink" viewBox="0 0 45 45" width="45" height="45" preserveAspectRatio="xMidYMid meet" style="width: 100%; height: 100%; transform: translate3d(0px, 0px, 0px); content-visibility: visible;"><defs id="l_d_1291"><clipPath id="__lottie_element_566"><rect id="l_d_1294" width="45" height="45" x="0" y="0"></rect></clipPath><clipPath id="__lottie_element_568"><path id="l_d_1297" fill="#ffffff" clip-rule="nonzero"></path><path id="l_d_1298" fill="#ffffff" clip-rule="nonzero"></path></clipPath><clipPath id="__lottie_element_571"><path id="l_d_1305" fill="#ffffff" clip-rule="nonzero"></path><path id="l_d_1306" fill="#ffffff" clip-rule="nonzero"></path></clipPath><clipPath id="__lottie_element_574"><path id="l_d_1313" fill="#ffffff" clip-rule="nonzero"></path><path id="l_d_1314" fill="#ffffff" clip-rule="nonzero"></path></clipPath><clipPath id="__lottie_element_577"><path id="l_d_1321" fill="#ffffff" clip-rule="nonzero"></path><path id="l_d_1322" fill="#ffffff" clip-rule="nonzero"></path></clipPath><clipPath id="__lottie_element_580"><path id="l_d_1329" fill="#ffffff" clip-rule="nonzero"></path><path id="l_d_1330" fill="#ffffff" clip-rule="nonzero"></path></clipPath><clipPath id="__lottie_element_583"><path id="l_d_1337" fill="#ffffff" clip-rule="nonzero"></path><path id="l_d_1338" fill="#ffffff" clip-rule="nonzero"></path></clipPath><clipPath id="__lottie_element_586"><path id="l_d_1345" fill="#ffffff" clip-rule="nonzero"></path><path id="l_d_1346" fill="#ffffff" clip-rule="nonzero"></path></clipPath></defs><g id="l_d_1292" clip-path="url(#__lottie_element_566)"><g id="l_d_1369" transform="matrix(1.0000008344650269,0,0,1.0000008344650269,-24.00003433227539,-18.374406814575195)" opacity="1" style="display: block;"><g id="l_d_1373" opacity="1" transform="matrix(1,0,0,1,51,50)"><path id="l_d_1374" stroke-linecap="butt" stroke-linejoin="miter" fill-opacity="0" stroke-miterlimit="4" stroke="rgb(34,34,34)" stroke-opacity="1" stroke-width="2" d=" M-2,-2 C-2,-2 2,-2 2,-2 C2,-2 2,1 2,1 C2,1.5520000457763672 1.5520000457763672,2 1,2 C1,2 -1,2 -1,2 C-1.5520000457763672,2 -2,1.5520000457763672 -2,1 C-2,1 -2,-2 -2,-2 C-2,-2 -2,-2 -2,-2z"></path></g><g id="l_d_1375" opacity="1" transform="matrix(1,0,0,1,29,50)"><path id="l_d_1376" stroke-linecap="butt" stroke-linejoin="miter" fill-opacity="0" stroke-miterlimit="4" stroke="rgb(34,34,34)" stroke-opacity="1" stroke-width="2" d=" M-2,-2 C-2,-2 2,-2 2,-2 C2,-2 2,1 2,1 C2,1.5520000457763672 1.5520000457763672,2 1,2 C1,2 -1,2 -1,2 C-1.5520000457763672,2 -2,1.5520000457763672 -2,1 C-2,1 -2,-2 -2,-2 C-2,-2 -2,-2 -2,-2z"></path></g></g><g id="l_d_1351" transform="matrix(1.0000008344650269,0,0,1.0000008344650269,-24.00003433227539,-18.374406814575195)" opacity="1" style="display: block;"><g id="l_d_1355" opacity="1" transform="matrix(1,0,0,1,40,43)"><path id="l_d_1356" stroke-linecap="butt" stroke-linejoin="miter" fill-opacity="0" stroke-miterlimit="4" stroke="rgb(34,34,34)" stroke-opacity="1" stroke-width="2" d=" M-9,-5 C-9,-5 9,-5 9,-5 C11.208999633789062,-5 13,-3.2090001106262207 13,-1 C13,-1 13,4 13,4 C13,4.552000045776367 12.552000045776367,5 12,5 C12,5 -12,5 -12,5 C-12.552000045776367,5 -13,4.552000045776367 -13,4 C-13,4 -13,-1 -13,-1 C-13,-3.2090001106262207 -11.208999633789062,-5 -9,-5z"></path></g><g id="l_d_1357" opacity="1" transform="matrix(1,0,0,1,49,43)"><path id="l_d_1358" fill="rgb(34,34,34)" fill-opacity="1" d=" M0,-1 C0.5519999861717224,-1 1,-0.5519999861717224 1,0 C1,0.5519999861717224 0.5519999861717224,1 0,1 C-0.5519999861717224,1 -1,0.5519999861717224 -1,0 C-1,-0.5519999861717224 -0.5519999861717224,-1 0,-1z"></path></g><g id="l_d_1359" opacity="1" transform="matrix(1,0,0,1,31,43)"><path id="l_d_1360" fill="rgb(34,34,34)" fill-opacity="1" d=" M0,-1 C0.5519999861717224,-1 1,-0.5519999861717224 1,0 C1,0.5519999861717224 0.5519999861717224,1 0,1 C-0.5519999861717224,1 -1,0.5519999861717224 -1,0 C-1,-0.5519999861717224 -0.5519999861717224,-1 0,-1z"></path></g><g id="l_d_1361" opacity="1" transform="matrix(1,0,0,1,40,34)"><path id="l_d_1362" stroke-linecap="butt" stroke-linejoin="miter" fill-opacity="0" stroke-miterlimit="4" stroke="rgb(34,34,34)" stroke-opacity="1" stroke-width="2" d=" M-7.307000160217285,-4 C-7.307000160217285,-4 7.307000160217285,-4 7.307000160217285,-4 C7.723999977111816,-4 8.097000122070312,-3.740999937057495 8.243000030517578,-3.3510000705718994 C8.243000030517578,-3.3510000705718994 11,4 11,4 C11,4 11,4 11,4 C11,4 -11,4 -11,4 C-11,4 -8.243000030517578,-3.3510000705718994 -8.243000030517578,-3.3510000705718994 C-8.097000122070312,-3.740999937057495 -7.723999977111816,-4 -7.307000160217285,-4z"></path></g><g id="l_d_1363" opacity="1" transform="matrix(1,0,0,1,27.5,36)"><path id="l_d_1364" fill="rgb(34,34,34)" fill-opacity="1" d=" M-1.5,-1 C-1.5,-1 1.5,-1 1.5,-1 C1.5,-1 1.5,1 1.5,1 C1.5,1 -1.5,1 -1.5,1 C-1.5,1 -1.5,-1 -1.5,-1z"></path></g><g id="l_d_1365" opacity="1" transform="matrix(1,0,0,1,52.5,36)"><path id="l_d_1366" fill="rgb(34,34,34)" fill-opacity="1" d=" M-1.5,-1 C-1.5,-1 1.5,-1 1.5,-1 C1.5,-1 1.5,1 1.5,1 C1.5,1 -1.5,1 -1.5,1 C-1.5,1 -1.5,-1 -1.5,-1z"></path></g><g id="l_d_1367" opacity="1" transform="matrix(1,0,0,1,40,43)"><path id="l_d_1368" stroke-linecap="butt" stroke-linejoin="miter" fill-opacity="0" stroke-miterlimit="4" stroke="rgb(34,34,34)" stroke-opacity="1" stroke-width="2" d=" M-6,0 C-6,0 6,0 6,0"></path></g></g><g id="l_d_1343" clip-path="url(#__lottie_element_586)" style="display: none;"><g id="l_d_1349"><path id="l_d_1350"></path></g></g><g id="l_d_1335" clip-path="url(#__lottie_element_583)" style="display: none;"><g id="l_d_1341"><path id="l_d_1342"></path></g></g><g id="l_d_1327" clip-path="url(#__lottie_element_580)" style="display: none;"><g id="l_d_1333"><path id="l_d_1334"></path></g></g><g id="l_d_1319" clip-path="url(#__lottie_element_577)" style="display: none;"><g id="l_d_1325"><path id="l_d_1326"></path></g></g><g id="l_d_1311" clip-path="url(#__lottie_element_574)" style="display: none;"><g id="l_d_1317"><path id="l_d_1318"></path></g></g><g id="l_d_1303" clip-path="url(#__lottie_element_571)" style="display: none;"><g id="l_d_1309"><path id="l_d_1310"></path></g></g><g id="l_d_1295" clip-path="url(#__lottie_element_568)" style="display: none;"><g id="l_d_1301"><path id="l_d_1302"></path></g></g></g></svg>