<svg id="l_d_1542" xmlns="http://www.w3.org/2000/svg" xmlns:xlink="http://www.w3.org/1999/xlink" viewBox="0 0 45 45" width="45" height="45" preserveAspectRatio="xMidYMid meet" style="width: 100%; height: 100%; transform: translate3d(0px, 0px, 0px); content-visibility: visible;"><defs id="l_d_1543"><clipPath id="__lottie_element_657"><rect id="l_d_1546" width="45" height="45" x="0" y="0"></rect></clipPath><clipPath id="__lottie_element_663"><path id="l_d_1571" d="M0,0 L80,0 L80,80 L0,80z"></path></clipPath><clipPath id="__lottie_element_670"><path id="l_d_1584" d="M0,0 L80,0 L80,80 L0,80z"></path></clipPath></defs><g id="l_d_1544" clip-path="url(#__lottie_element_657)"><g id="l_d_1581" clip-path="url(#__lottie_element_670)" transform="matrix(1,0,0,1,-25,-17.625)" opacity="1" style="display: block;"><g id="l_d_1587" transform="matrix(1,0,0,1,0,0)" opacity="1" style="display: block;"><g id="l_d_1591" opacity="1" transform="matrix(1,0,0,1,0,0)"><g id="l_d_1592" opacity="1" transform="matrix(1,0,0,1,40,35)"><path id="l_d_1593" stroke-linecap="butt" stroke-linejoin="miter" fill-opacity="0" stroke-miterlimit="4" stroke="rgb(34,34,34)" stroke-opacity="1" stroke-width="2" d=" M0,-9 C4.418000221252441,-9 8,-5.418000221252441 8,-1 C8,-1 8,9 8,9 C8,9 0,9 0,9 C0,9 0,-5.875 0,-9z M-0.08299999684095383,1 C-0.08299999684095383,1 8,1 8,1 M0,-9.925999641418457 C0,-9.925999641418457 0,-7.125 0,-7.125 C0,-7.125 0,9 0,9"></path></g></g></g></g><g id="l_d_1568" clip-path="url(#__lottie_element_663)" transform="matrix(-1,0,0,1,55,-17.625)" opacity="1" style="display: block;"><g id="l_d_1574" transform="matrix(1,0,0,1,0,0)" opacity="1" style="display: block;"><g id="l_d_1578" opacity="1" transform="matrix(1,0,0,1,0,0)"><g id="l_d_1579" opacity="1" transform="matrix(1,0,0,1,40,35)"><path id="l_d_1580" stroke-linecap="butt" stroke-linejoin="miter" fill-opacity="0" stroke-miterlimit="4" stroke="rgb(34,34,34)" stroke-opacity="1" stroke-width="2" d=" M0,-9 C4.418000221252441,-9 8,-5.418000221252441 8,-1 C8,-1 8,9 8,9 C8,9 0,9 0,9 C0,9 0,-5.875 0,-9z M-0.08299999684095383,1 C-0.08299999684095383,1 8,1 8,1 M0,-9.925999641418457 C0,-9.925999641418457 0,-7.125 0,-7.125 C0,-7.125 0,9 0,9"></path></g></g></g></g><g id="l_d_1547" transform="matrix(1,0,0,1,-25,-17.625)" opacity="1" style="display: block;"><g id="l_d_1551" opacity="1" transform="matrix(1,0,0,1,0,0)"><g id="l_d_1552" opacity="1" transform="matrix(1,0,0,1,50,49)"><path id="l_d_1553" stroke-linecap="butt" stroke-linejoin="miter" fill-opacity="0" stroke-miterlimit="4" stroke="rgb(34,34,34)" stroke-opacity="1" stroke-width="2" d=" M0,-5 C0,-5 0,5 0,5"></path></g><g id="l_d_1554" opacity="1" transform="matrix(1,0,0,1,46,49)"><path id="l_d_1555" stroke-linecap="butt" stroke-linejoin="miter" fill-opacity="0" stroke-miterlimit="4" stroke="rgb(34,34,34)" stroke-opacity="1" stroke-width="2" d=" M0,-5 C0,-5 0,5 0,5"></path></g><g id="l_d_1556" opacity="1" transform="matrix(1,0,0,1,42,49)"><path id="l_d_1557" stroke-linecap="butt" stroke-linejoin="miter" fill-opacity="0" stroke-miterlimit="4" stroke="rgb(34,34,34)" stroke-opacity="1" stroke-width="2" d=" M0,-5 C0,-5 0,5 0,5"></path></g><g id="l_d_1558" opacity="1" transform="matrix(1,0,0,1,38,49)"><path id="l_d_1559" stroke-linecap="butt" stroke-linejoin="miter" fill-opacity="0" stroke-miterlimit="4" stroke="rgb(34,34,34)" stroke-opacity="1" stroke-width="2" d=" M0,-5 C0,-5 0,5 0,5"></path></g><g id="l_d_1560" opacity="1" transform="matrix(1,0,0,1,34,49)"><path id="l_d_1561" stroke-linecap="butt" stroke-linejoin="miter" fill-opacity="0" stroke-miterlimit="4" stroke="rgb(34,34,34)" stroke-opacity="1" stroke-width="2" d=" M0,-5 C0,-5 0,5 0,5"></path></g><g id="l_d_1562" opacity="1" transform="matrix(1,0,0,1,30,49)"><path id="l_d_1563" stroke-linecap="butt" stroke-linejoin="miter" fill-opacity="0" stroke-miterlimit="4" stroke="rgb(34,34,34)" stroke-opacity="1" stroke-width="2" d=" M0,-5 C0,-5 0,5 0,5"></path></g><g id="l_d_1564" opacity="1" transform="matrix(1,0,0,1,40,54)"><path id="l_d_1565" stroke-linecap="butt" stroke-linejoin="miter" fill-opacity="0" stroke-miterlimit="4" stroke="rgb(34,34,34)" stroke-opacity="1" stroke-width="2" d=" M-13,0 C-13,0 13,0 13,0"></path></g><g id="l_d_1566" opacity="1" transform="matrix(1,0,0,1,40,44)"><path id="l_d_1567" stroke-linecap="butt" stroke-linejoin="miter" fill-opacity="0" stroke-miterlimit="4" stroke="rgb(34,34,34)" stroke-opacity="1" stroke-width="2" d=" M-13,0 C-13,0 13,0 13,0"></path></g></g></g></g></svg>