<svg id="l_d_1170" xmlns="http://www.w3.org/2000/svg" xmlns:xlink="http://www.w3.org/1999/xlink" viewBox="0 0 45 45" width="45" height="45" preserveAspectRatio="xMidYMid meet" style="width: 100%; height: 100%; transform: translate3d(0px, 0px, 0px); content-visibility: visible;"><defs id="l_d_1171"><clipPath id="__lottie_element_530"><rect id="l_d_1174" width="45" height="45" x="0" y="0"></rect></clipPath><g id="__lottie_element_541"><g id="l_d_1208" style="display: none;"><g id="l_d_1213"><path id="l_d_1214"></path></g></g></g><mask id="__lottie_element_541_1" mask-type="alpha"><use id="l_d_1222" xlink:href="#__lottie_element_541"></use></mask><g id="__lottie_element_547"><g id="l_d_1223" style="display: none;"><g id="l_d_1228"><path id="l_d_1229"></path></g></g></g><mask id="__lottie_element_547_1" mask-type="alpha"><use id="l_d_1248" xlink:href="#__lottie_element_547"></use></mask></defs><g id="l_d_1172" clip-path="url(#__lottie_element_530)"><g id="l_d_1249" transform="matrix(1,0,0,1,-23.5,-17.5)" opacity="1" style="display: block;"><g id="l_d_1253" opacity="1" transform="matrix(1,0,0,1,40,40)"></g><g id="l_d_1254" opacity="1" transform="matrix(1,0,0,1,40,40)"><path id="l_d_1255" stroke-linecap="butt" stroke-linejoin="miter" fill-opacity="0" stroke-miterlimit="4" stroke="rgb(34,34,34)" stroke-opacity="1" stroke-width="2" d=" M-12,-13 C-12,-13 12,-13 12,-13 C12.552000045776367,-13 13,-12.552000045776367 13,-12 C13,-12 13,12 13,12 C13,12.552000045776367 12.552000045776367,13 12,13 C12,13 -12,13 -12,13 C-12.552000045776367,13 -13,12.552000045776367 -13,12 C-13,12 -13,-12 -13,-12 C-13,-12.552000045776367 -12.552000045776367,-13 -12,-13z"></path></g><g id="l_d_1256" opacity="1" transform="matrix(1,0,0,1,40,35)"><path id="l_d_1257" stroke-linecap="butt" stroke-linejoin="miter" fill-opacity="0" stroke-miterlimit="4" stroke="rgb(34,34,34)" stroke-opacity="1" stroke-width="2" d=" M13,0 C13,0 -13,0 -13,0"></path></g><g id="l_d_1258" opacity="1" transform="matrix(1,0,0,1,49,31)"><path id="l_d_1259" fill="rgb(0,0,0)" fill-opacity="1" d=" M0,-1 C0.5519999861717224,-1 1,-0.5519999861717224 1,0 C1,0.5519999861717224 0.5519999861717224,1 0,1 C-0.5519999861717224,1 -1,0.5519999861717224 -1,0 C-1,-0.5519999861717224 -0.5519999861717224,-1 0,-1z"></path></g><g id="l_d_1260" opacity="1" transform="matrix(1,0,0,1,43,31)"><path id="l_d_1261" fill="rgb(0,0,0)" fill-opacity="1" d=" M0,-1 C0.5519999861717224,-1 1,-0.5519999861717224 1,0 C1,0.5519999861717224 0.5519999861717224,1 0,1 C-0.5519999861717224,1 -1,0.5519999861717224 -1,0 C-1,-0.5519999861717224 -0.5519999861717224,-1 0,-1z"></path></g><g id="l_d_1262" opacity="1" transform="matrix(1,0,0,1,37,31)"><path id="l_d_1263" fill="rgb(0,0,0)" fill-opacity="1" d=" M0,-1 C0.5519999861717224,-1 1,-0.5519999861717224 1,0 C1,0.5519999861717224 0.5519999861717224,1 0,1 C-0.5519999861717224,1 -1,0.5519999861717224 -1,0 C-1,-0.5519999861717224 -0.5519999861717224,-1 0,-1z"></path></g><g id="l_d_1264" opacity="1" transform="matrix(1,0,0,1,31,31)"><path id="l_d_1265" fill="rgb(0,0,0)" fill-opacity="1" d=" M0,-1 C0.5519999861717224,-1 1,-0.5519999861717224 1,0 C1,0.5519999861717224 0.5519999861717224,1 0,1 C-0.5519999861717224,1 -1,0.5519999861717224 -1,0 C-1,-0.5519999861717224 -0.5519999861717224,-1 0,-1z"></path></g></g><g id="l_d_1231" mask="url(#__lottie_element_547_1)" style="display: none;"><g id="l_d_1230"><g id="l_d_1234"></g><g id="l_d_1235"><path id="l_d_1236" stroke-linecap="butt" stroke-linejoin="miter" fill-opacity="0" stroke-miterlimit="4"></path></g><g id="l_d_1237"><path id="l_d_1238" stroke-linecap="butt" stroke-linejoin="miter" fill-opacity="0" stroke-miterlimit="4"></path></g><g id="l_d_1239"><path id="l_d_1240"></path></g><g id="l_d_1241"><path id="l_d_1242"></path></g><g id="l_d_1243"><path id="l_d_1244"></path></g><g id="l_d_1245"><path id="l_d_1246"></path></g></g></g><g id="l_d_1216" mask="url(#__lottie_element_541_1)" style="display: none;"><g id="l_d_1215"><g id="l_d_1219"><path id="l_d_1220" stroke-linecap="butt" stroke-linejoin="round" fill-opacity="0"></path></g></g></g><g id="l_d_1191" style="display: none;"><g id="l_d_1195"></g><g id="l_d_1196"><path id="l_d_1197" stroke-linecap="butt" stroke-linejoin="miter" fill-opacity="0" stroke-miterlimit="4"></path></g><g id="l_d_1198"><path id="l_d_1199" stroke-linecap="butt" stroke-linejoin="miter" fill-opacity="0" stroke-miterlimit="4"></path></g><g id="l_d_1200"><path id="l_d_1201"></path></g><g id="l_d_1202"><path id="l_d_1203"></path></g><g id="l_d_1204"><path id="l_d_1205"></path></g><g id="l_d_1206"><path id="l_d_1207"></path></g></g><g id="l_d_1183" style="display: none;"><g id="l_d_1187"><path id="l_d_1188" stroke-linecap="butt" stroke-linejoin="miter" fill-opacity="0" stroke-miterlimit="4"></path></g><g id="l_d_1189"><path id="l_d_1190" stroke-linecap="butt" stroke-linejoin="miter" fill-opacity="0" stroke-miterlimit="4"></path></g></g><g id="l_d_1175" transform="matrix(1,0,0,1,-23.5,-17.5)" opacity="1" style="display: block;"><g id="l_d_1179" opacity="1" transform="matrix(1,0,0,1,40,44)"><path id="l_d_1180" stroke-linecap="butt" stroke-linejoin="miter" fill-opacity="0" stroke-miterlimit="4" stroke="rgb(34,34,34)" stroke-opacity="1" stroke-width="2" d=" M-9,-5 C-9,-5 9,-5 9,-5 C9,-5 9,5 9,5 C9,5 -9,5 -9,5 C-9,5 -9,-5 -9,-5z"></path></g><g id="l_d_1181" opacity="1" transform="matrix(1,0,0,1,40,35)"><path id="l_d_1182" stroke-linecap="butt" stroke-linejoin="miter" fill-opacity="0" stroke-miterlimit="4" stroke="rgb(34,34,34)" stroke-opacity="1" stroke-width="2" d=" M13,0 C13,0 -13,0 -13,0"></path></g></g></g></svg>