<?xml version="1.0" standalone="no"?>
<!DOCTYPE svg PUBLIC "-//W3C//DTD SVG 20010904//EN"
 "http://www.w3.org/TR/2001/REC-SVG-20010904/DTD/svg10.dtd">
<svg version="1.0" xmlns="http://www.w3.org/2000/svg"
 width="512.000000pt" height="512.000000pt" viewBox="0 0 512.000000 512.000000"
 preserveAspectRatio="xMidYMid meet">

<g transform="translate(0.000000,512.000000) scale(0.100000,-0.100000)"
fill="#000000" stroke="none">
<path d="M2504 5091 c-21 -16 -236 -226 -476 -468 l-438 -439 0 -46 c0 -39 5
-50 31 -72 32 -28 67 -33 102 -15 12 6 183 173 379 372 l357 362 1 -1557 0
-1558 100 0 100 0 0 1557 0 1558 363 -362 c199 -198 372 -366 384 -372 38 -19
79 -13 112 18 41 38 42 83 2 137 -34 46 -865 874 -901 898 -36 24 -72 20 -116
-13z"/>
<path d="M660 3727 c-24 -8 -41 -23 -53 -47 -16 -33 -17 -135 -15 -1822 l3
-1788 33 -32 32 -33 1900 -3 1900 -2 32 29 33 29 3 1787 c1 1245 -1 1799 -8
1827 -19 70 2 68 -720 68 -714 0 -698 1 -726 -65 -17 -43 -11 -75 23 -107 l25
-23 604 -3 604 -2 0 -1670 0 -1670 -1770 0 -1770 0 0 1670 0 1670 614 2 614 3
26 24 c34 32 41 72 21 111 -32 61 -20 60 -727 59 -471 0 -652 -3 -678 -12z"/>
</g>
</svg>
