<svg xmlns="http://www.w3.org/2000/svg" viewBox="-3 -3 518 518" transform="matrix(-1, 0, 0, -1, 0, 0)"><g id="deeditor_bgCarrier" stroke-width="0">
  <rect id="dee_c_e" x="-3" y="-3" width="518" height="518" rx="38.4" fill="#000000" strokewidth="0"/>
</g><path d="M256 512A256 256 0 1 0 256 0a256 256 0 1 0 0 512zM232 344V280H168c-13.3 0-24-10.7-24-24s10.7-24 24-24h64V168c0-13.3 10.7-24 24-24s24 10.7 24 24v64h64c13.3 0 24 10.7 24 24s-10.7 24-24 24H280v64c0 13.3-10.7 24-24 24s-24-10.7-24-24z" fill="#ffffff"/></svg>