<?xml version="1.0" standalone="no"?>
<!DOCTYPE svg PUBLIC "-//W3C//DTD SVG 20010904//EN"
 "http://www.w3.org/TR/2001/REC-SVG-20010904/DTD/svg10.dtd">
<svg version="1.0" xmlns="http://www.w3.org/2000/svg"
 width="32.000000pt" height="32.000000pt" viewBox="0 0 32.000000 32.000000"
 preserveAspectRatio="xMidYMid meet">

<g transform="translate(0.000000,32.000000) scale(0.100000,-0.100000)"
fill="#000000" stroke="none">
<path d="M177 201 c-82 -84 -103 -130 -49 -110 15 5 52 33 81 62 30 29 49 44
42 34 -17 -22 -6 -36 14 -16 8 8 15 34 17 59 5 68 -17 62 -105 -29z m18 -31
c-32 -33 -61 -57 -64 -54 -6 6 100 114 113 114 6 0 -16 -27 -49 -60z"/>
<path d="M35 110 c-17 -18 -17 -21 -1 -45 16 -24 20 -25 125 -25 92 0 110 3
124 18 22 24 21 35 -1 55 -20 18 -82 23 -82 7 0 -5 15 -10 34 -10 33 0 47 -13
39 -37 -6 -18 -219 -18 -225 0 -7 18 2 37 18 37 8 0 14 5 14 10 0 17 -26 11
-45 -10z"/>
</g>
</svg>
