<?xml version="1.0" encoding="UTF-8" standalone="no"?>
<svg
   width="64pt"
   height="64pt"
   viewBox="0 0 22.577778 22.577778"
   version="1.1"
   id="svg831"
   inkscape:version="1.1.2 (1:1.1+202202050950+0a00cf5339)"
   sodipodi:docname="17 - Shiled Protection.svg"
   inkscape:export-filename="/media/taufikramadhan/Data/Tr Design Studio/Project Design/TR Creative Design/Icon Design/Project Hiring/Icon Icons/019 - Commerce And Shopping/5 - Send/17 - Shiled Protection.png"
   inkscape:export-xdpi="576"
   inkscape:export-ydpi="576"
   xmlns:inkscape="http://www.inkscape.org/namespaces/inkscape"
   xmlns:sodipodi="http://sodipodi.sourceforge.net/DTD/sodipodi-0.dtd"
   xmlns="http://www.w3.org/2000/svg"
   xmlns:svg="http://www.w3.org/2000/svg"
   xmlns:rdf="http://www.w3.org/1999/02/22-rdf-syntax-ns#"
   xmlns:cc="http://creativecommons.org/ns#"
   xmlns:dc="http://purl.org/dc/elements/1.1/">
  <defs
     id="defs825">
    <pattern
       id="EMFhbasepattern"
       patternUnits="userSpaceOnUse"
       width="6"
       height="6"
       x="0"
       y="0" />
    <pattern
       id="EMFhbasepattern-9"
       patternUnits="userSpaceOnUse"
       width="6"
       height="6"
       x="0"
       y="0" />
    <pattern
       id="EMFhbasepattern-0"
       patternUnits="userSpaceOnUse"
       width="6"
       height="6"
       x="0"
       y="0" />
    <pattern
       id="EMFhbasepattern-7"
       patternUnits="userSpaceOnUse"
       width="6"
       height="6"
       x="0"
       y="0" />
    <pattern
       id="EMFhbasepattern-2"
       patternUnits="userSpaceOnUse"
       width="6"
       height="6"
       x="0"
       y="0" />
    <pattern
       id="EMFhbasepattern-98"
       patternUnits="userSpaceOnUse"
       width="6"
       height="6"
       x="0"
       y="0" />
    <pattern
       id="EMFhbasepattern-6"
       patternUnits="userSpaceOnUse"
       width="6"
       height="6"
       x="0"
       y="0" />
    <pattern
       id="EMFhbasepattern-01"
       patternUnits="userSpaceOnUse"
       width="6"
       height="6"
       x="0"
       y="0" />
    <pattern
       id="EMFhbasepattern-07"
       patternUnits="userSpaceOnUse"
       width="6"
       height="6"
       x="0"
       y="0" />
    <pattern
       id="EMFhbasepattern-8"
       patternUnits="userSpaceOnUse"
       width="6"
       height="6"
       x="0"
       y="0" />
    <pattern
       id="EMFhbasepattern-4"
       patternUnits="userSpaceOnUse"
       width="6"
       height="6"
       x="0"
       y="0" />
    <pattern
       id="EMFhbasepattern-40"
       patternUnits="userSpaceOnUse"
       width="6"
       height="6"
       x="0"
       y="0" />
    <pattern
       id="EMFhbasepattern-08"
       patternUnits="userSpaceOnUse"
       width="6"
       height="6"
       x="0"
       y="0" />
    <pattern
       id="EMFhbasepattern-04"
       patternUnits="userSpaceOnUse"
       width="6"
       height="6"
       x="0"
       y="0" />
    <pattern
       id="EMFhbasepattern-014"
       patternUnits="userSpaceOnUse"
       width="6"
       height="6"
       x="0"
       y="0" />
    <pattern
       id="EMFhbasepattern-27"
       patternUnits="userSpaceOnUse"
       width="6"
       height="6"
       x="0"
       y="0" />
    <pattern
       id="EMFhbasepattern-09"
       patternUnits="userSpaceOnUse"
       width="6"
       height="6"
       x="0"
       y="0" />
    <pattern
       id="EMFhbasepattern-5"
       patternUnits="userSpaceOnUse"
       width="6"
       height="6"
       x="0"
       y="0" />
    <pattern
       id="EMFhbasepattern-018"
       patternUnits="userSpaceOnUse"
       width="6"
       height="6"
       x="0"
       y="0" />
  </defs>
  <sodipodi:namedview
     id="base"
     pagecolor="#ffffff"
     bordercolor="#666666"
     borderopacity="1.0"
     inkscape:pageopacity="0.0"
     inkscape:pageshadow="2"
     inkscape:zoom="4.4249417"
     inkscape:cx="41.01749"
     inkscape:cy="44.746352"
     inkscape:document-units="pt"
     inkscape:current-layer="layer1"
     showgrid="false"
     units="pt"
     inkscape:window-width="1366"
     inkscape:window-height="705"
     inkscape:window-x="0"
     inkscape:window-y="31"
     inkscape:window-maximized="1"
     inkscape:pagecheckerboard="true"
     inkscape:showpageshadow="false"
     inkscape:object-paths="true"
     inkscape:snap-intersection-paths="true"
     inkscape:snap-smooth-nodes="true"
     inkscape:snap-midpoints="true"
     showguides="false"
     inkscape:snap-bbox="true"
     inkscape:bbox-nodes="true"
     inkscape:snap-nodes="false"
     inkscape:snap-global="true"
     inkscape:document-rotation="0">
    <inkscape:grid
       type="xygrid"
       id="grid1378" />
    <sodipodi:guide
       position="0.97013831,21.607643"
       orientation="78.000048,0"
       id="guide1380"
       inkscape:locked="false" />
    <sodipodi:guide
       position="0.97013831,0.97013129"
       orientation="0,78.000005"
       id="guide1382"
       inkscape:locked="false" />
    <sodipodi:guide
       position="21.607639,0.97013129"
       orientation="-78.000048,0"
       id="guide1384"
       inkscape:locked="false" />
    <sodipodi:guide
       position="21.607639,21.607643"
       orientation="0,-78.000005"
       id="guide1386"
       inkscape:locked="false" />
  </sodipodi:namedview>
  <metadata
     id="metadata828">
    <rdf:RDF>
      <cc:Work
         rdf:about="">
        <dc:format>image/svg+xml</dc:format>
        <dc:type
           rdf:resource="http://purl.org/dc/dcmitype/StillImage" />
      </cc:Work>
    </rdf:RDF>
  </metadata>
  <g
     inkscape:label="Icon"
     inkscape:groupmode="layer"
     id="layer1"
     transform="translate(0,-274.42223)">
    <path
       id="path52289"
       style="color:#000000;display:inline;fill:#000000;stroke-width:1;stroke-linecap:round;stroke-linejoin:round;stroke-miterlimit:1.5;-inkscape-stroke:none"
       d="m 11.304024,275.39236 c -0.332952,0 -0.666332,0.084 -0.966048,0.25187 l -7.5758129,4.24233 c -0.5945834,0.33298 -0.9209529,1.05505 -0.7358775,1.7223 0.7237024,2.6091 3.2255254,10.1659 9.1199084,13.2682 0.164712,0.0863 0.368141,0.0226 0.454418,-0.14204 0.08678,-0.1647 0.02344,-0.36856 -0.141388,-0.45508 -5.5603611,-2.92649 -8.0790867,-10.31103 -8.7838662,-12.85192 -0.085809,-0.30935 0.1247991,-0.78974 0.4149593,-0.95224 l 7.5758139,-4.24297 c 0.39584,-0.22169 0.876659,-0.22169 1.2725,0 l 7.575814,4.24297 c 0.287775,0.16116 0.476315,0.62545 0.382736,0.93974 -0.612257,2.05615 -1.05731,3.29961 -2.018244,5.33859 -0.08032,0.16884 -0.0078,0.3708 0.161777,0.4498 0.168168,0.0785 0.368191,0.006 0.447181,-0.16177 0.971942,-2.06232 1.439084,-3.36435 2.055729,-5.43525 0.195803,-0.65759 -0.104059,-1.38602 -0.701026,-1.72033 l -7.573184,-4.24233 c -0.299712,-0.16784 -0.632438,-0.25187 -0.96539,-0.25187 z m -0.05853,1.60328 c -0.03759,0.006 -0.07385,0.019 -0.107189,0.0375 l -7.0779984,3.96739 -0.3432785,-0.12956 c -0.1737926,-0.0668 -0.3688377,0.0201 -0.4353466,0.194 -0.066128,0.17435 0.022021,0.36924 0.196631,0.43469 l 0.3307835,0.12624 c 0.5083506,1.807 2.5155303,7.98438 7.306845,11.16775 0.155021,0.10346 0.364602,0.0613 0.467569,-0.094 0.03664,-0.0554 0.05609,-0.12038 0.0559,-0.18676 h 0.0014 v -7.25752 h 4.269948 c 0.186018,6.7e-4 0.337376,-0.14937 0.338016,-0.33539 -6.73e-4,-0.18603 -0.151998,-0.33613 -0.338016,-0.33539 H 11.64081 v -6.68079 l 6.461802,3.61824 c -0.502828,1.60761 -0.924448,2.65838 -1.553304,4.13382 -0.07289,0.17143 0.0073,0.36945 0.178874,0.44193 0.170165,0.0719 0.366474,-0.006 0.439949,-0.17625 0.646866,-1.51768 1.09225,-2.57869 1.622355,-4.29362 l 0.338675,-0.12824 c 0.173561,-0.0666 0.260396,-0.26108 0.193998,-0.43468 -0.06652,-0.17214 -0.25921,-0.25867 -0.432056,-0.19401 l -0.343939,0.12956 -7.080621,-3.96743 c -0.06722,-0.0374 -0.14519,-0.0507 -0.220962,-0.0376 z m -0.278834,0.90687 v 6.6821 H 5.6063826 C 5.025981,283.24373 4.6747967,282.11656 4.5068358,281.51943 Z m -5.0590907,7.35287 H 10.96666 v 6.6078 c -2.4024482,-1.79242 -4.0260191,-4.40185 -5.0590907,-6.6078 z m 9.5605177,1.23304 c -0.7115,0 -1.286228,0.21468 -1.674965,0.59384 -0.388733,0.37915 -0.574105,0.90622 -0.574105,1.454 v 1.25146 c -0.488218,0.0933 -0.8628,0.52676 -0.8628,1.04036 v 3.3256 c 0,0.20478 0.01667,0.74004 0.457706,1.16332 0.441044,0.42333 1.228703,0.71288 2.654164,0.71288 1.425455,0 2.213781,-0.28955 2.654825,-0.71288 0.441043,-0.42328 0.457047,-0.95853 0.457047,-1.16332 v -3.3256 c 0,-0.5136 -0.373922,-0.94711 -0.862144,-1.04036 v -1.25146 c 0,-0.54778 -0.185369,-1.07485 -0.574106,-1.454 -0.388737,-0.37916 -0.964119,-0.59384 -1.675622,-0.59384 z m 0,0.67341 c 0.578729,0 0.959933,0.16303 1.205424,0.40247 0.245489,0.23943 0.370241,0.57178 0.370241,0.97196 v 1.23304 h -3.151329 v -1.23304 c 0,-0.40018 0.12475,-0.73253 0.370242,-0.97196 0.245493,-0.23944 0.626701,-0.40247 1.205422,-0.40247 z m -2.053095,3.28088 h 4.106194 c 0.219247,0 0.385367,0.16611 0.385367,0.38537 v 3.3256 c 0,0.19515 0.0085,0.42929 -0.248581,0.67603 -0.257079,0.24674 -0.857219,0.52676 -2.189885,0.52676 -1.332676,0 -1.932804,-0.28002 -2.18988,-0.52676 -0.257076,-0.24674 -0.248586,-0.48088 -0.248586,-0.67603 v -3.3256 c 0,-0.21926 0.166123,-0.38537 0.385371,-0.38537 z m 2.053095,0.67603 c -0.748988,0 -1.364558,0.61295 -1.364565,1.36194 1.59e-4,0.33381 0.124267,0.65465 0.343279,0.90226 v 0.51426 c 3e-5,0.42805 0.354507,0.78586 0.782571,0.78586 h 0.477434 c 0.428061,0 0.783228,-0.3578 0.783228,-0.78586 v -0.51557 c 0.218419,-0.24747 0.342457,-0.56761 0.342623,-0.90095 -8e-6,-0.74899 -0.615578,-1.36194 -1.36457,-1.36194 z m 0.691164,1.36194 c -9.8e-5,0.19664 -0.0848,0.38329 -0.231483,0.51426 -0.07442,0.0671 -0.115143,0.16366 -0.111134,0.26371 h -6.74e-4 v 0.63855 c 0,0.0668 -0.04243,0.1125 -0.109161,0.1125 h -0.477435 c -0.06598,0 -0.108194,-0.0444 -0.109161,-0.10983 v -0.003 -0.63723 c 0.0042,-0.10066 -0.03678,-0.19785 -0.111796,-0.26503 -0.146667,-0.13096 -0.231389,-0.31765 -0.231483,-0.51426 4e-6,-0.38506 0.306097,-0.69116 0.691167,-0.69114 0.385073,4e-5 0.691166,0.30615 0.69117,0.6912 z"
       sodipodi:nodetypes="sccscccsccccccccsccssccccccccccccccccccccccccccsscccccccccssscssssssscssssssccsssssssssssssscccsssccsccccsssccccccc" />
  </g>
</svg>
