<?xml version="1.0" standalone="no"?>
<!DOCTYPE svg PUBLIC "-//W3C//DTD SVG 20010904//EN"
 "http://www.w3.org/TR/2001/REC-SVG-20010904/DTD/svg10.dtd">
<svg version="1.0" xmlns="http://www.w3.org/2000/svg"
 width="225.000000pt" height="225.000000pt" viewBox="0 0 225.000000 225.000000"
 preserveAspectRatio="xMidYMid meet">

<g transform="translate(0.000000,225.000000) scale(0.100000,-0.100000)"
fill="#61616191" stroke="none">
<path d="M69 2181 c-23 -23 -29 -38 -29 -72 l0 -44 465 -465 c256 -256 465
-470 465 -475 0 -5 -209 -219 -465 -475 l-465 -465 0 -44 c0 -60 41 -101 101
-101 l44 0 465 465 c256 256 470 465 475 465 5 0 219 -209 475 -465 l465 -465
44 0 c60 0 101 41 101 101 l0 44 -465 465 c-256 256 -465 470 -465 475 0 5
209 219 465 475 l465 465 0 44 c0 60 -41 101 -101 101 l-44 0 -465 -465 c-256
-256 -470 -465 -475 -465 -5 0 -219 209 -475 465 l-465 465 -44 0 c-34 0 -49
-6 -72 -29z"/>
</g>
</svg>
