<?xml version="1.0" standalone="no"?>
<!DOCTYPE svg PUBLIC "-//W3C//DTD SVG 20010904//EN"
 "http://www.w3.org/TR/2001/REC-SVG-20010904/DTD/svg10.dtd">
<svg version="1.0" xmlns="http://www.w3.org/2000/svg"
 width="512.000000pt" height="512.000000pt" viewBox="0 0 512.000000 512.000000"
 preserveAspectRatio="xMidYMid meet">

<g transform="translate(0.000000,512.000000) scale(0.100000,-0.100000)"
fill="#000000" stroke="none">
<path d="M2340 4679 c-487 -54 -940 -270 -1285 -613 -168 -167 -294 -343 -404
-567 -405 -818 -240 -1804 410 -2451 651 -646 1643 -802 2462 -386 968 492
1410 1626 1031 2645 -266 716 -911 1240 -1670 1358 -121 19 -428 27 -544 14z
m1412 -1058 l33 -29 0 -569 0 -568 -117 -3 -118 -3 0 481 0 480 -990 0 -990 0
0 -660 0 -661 57 3 57 3 226 352 c124 194 227 352 230 352 3 0 106 -158 230
-352 l225 -352 64 -3 c52 -2 63 0 58 11 -3 8 -51 85 -107 172 l-101 157 68
104 c37 58 69 107 72 108 3 2 86 -122 184 -275 l179 -279 69 0 69 0 2 -247 3
-248 168 -3 167 -2 0 -60 0 -60 -1045 0 -1045 0 -32 29 -33 29 0 1032 0 1032
33 29 32 29 1160 0 1160 0 32 -29z m-491 -464 c66 -35 102 -93 107 -171 3 -49
0 -71 -16 -102 -72 -141 -248 -166 -349 -51 -93 106 -58 262 72 330 46 25 133
21 186 -6z m609 -1017 l0 -170 165 0 165 0 0 -115 0 -115 -165 0 -165 0 0
-165 0 -165 -120 0 -120 0 0 165 0 165 -165 0 -165 0 0 115 0 115 165 0 165 0
0 163 c0 90 3 167 7 170 3 4 57 7 120 7 l113 0 0 -170z"/>
</g>
</svg>
