<?xml version="1.0" encoding="UTF-8"?>
<svg version="1.1" xmlns="http://www.w3.org/2000/svg" width="96" height="96">
<path d="M0 0 C1.98 0 3.96 0 6 0 C6 3.63 6 7.26 6 11 C6.68707031 10.566875 7.37414063 10.13375 8.08203125 9.6875 C8.98308594 9.130625 9.88414063 8.57375 10.8125 8 C11.70582031 7.443125 12.59914062 6.88625 13.51953125 6.3125 C16 5 16 5 19 5 C19.99 6.98 20.98 8.96 22 11 C19.71125827 12.33858524 17.41930344 13.67101014 15.125 15 C14.14853516 15.57234375 14.14853516 15.57234375 13.15234375 16.15625 C8.2265625 19 8.2265625 19 6 19 C6.495 28.405 6.495 28.405 7 38 C16.94452641 34.4101669 16.94452641 34.4101669 23.85595703 26.90527344 C24.79078765 21.9216372 24.5072068 17.02019462 24 12 C25.98 12 27.96 12 30 12 C30.495 17.94 30.495 17.94 31 24 C32.0725 23.319375 33.145 22.63875 34.25 21.9375 C36.52123303 20.65276213 37.67795318 20.00870397 40.3125 19.9375 C42.74939646 21.47184221 43.173955 23.31535375 44 26 C37.25 30 37.25 30 35 30 C37.7819368 33.27286682 41.27954067 34.96427697 45 37 C44.125 41.75 44.125 41.75 43 44 C40.18862772 43.00775096 38.0001764 42.00013137 35.59765625 40.2109375 C32.67276876 38.09276012 30.53836079 36.81321739 27 36 C22.8469496 37.15007549 19.38297805 39.61628485 15.87109375 42.0390625 C13 44 13 44 11 44 C11 44.66 11 45.32 11 46 C11.72316406 46.25523438 12.44632813 46.51046875 13.19140625 46.7734375 C16 48 16 48 18.40234375 49.7890625 C21.32723124 51.90723988 23.46163921 53.18678261 27 54 C31.1530504 52.84992451 34.61702195 50.38371515 38.12890625 47.9609375 C41 46 41 46 43 46 C44.4606285 48.64738916 45 49.89448334 45 53 C44.04287109 53.50660156 44.04287109 53.50660156 43.06640625 54.0234375 C42.24011719 54.46945313 41.41382812 54.91546875 40.5625 55.375 C39.73878906 55.81585938 38.91507812 56.25671875 38.06640625 56.7109375 C35.86533422 57.83418559 35.86533422 57.83418559 35 60 C35.7425 60.28875 36.485 60.5775 37.25 60.875 C39.56739797 61.82302644 41.77917115 62.84845911 44 64 C43.25 66.4375 43.25 66.4375 42 69 C40.1875 69.8125 40.1875 69.8125 38 70 C35.08693234 68.64446669 32.66561072 66.82150066 30 65 C30 69.29 30 73.58 30 78 C28.02 78 26.04 78 24 78 C24.1134375 76.87722656 24.226875 75.75445312 24.34375 74.59765625 C24.585222 69.92415608 24.79710025 65.39792359 23 61 C18.6022897 56.40981521 12.7610206 54.49493018 7 52 C6.67 58.27 6.34 64.54 6 71 C7.65 71.66 9.3 72.32 11 73 C12.78987319 74.00860007 14.56117681 75.05085511 16.3125 76.125 C17.19550781 76.66382812 18.07851563 77.20265625 18.98828125 77.7578125 C19.65214844 78.16773437 20.31601563 78.57765625 21 79 C20.49396008 81.16874252 20.00016187 82.99967627 19 85 C14.11713593 84.02566703 10.28711394 81.45878594 6 79 C6 82.63 6 86.26 6 90 C4.02 90 2.04 90 0 90 C0 86.37 0 82.74 0 79 C-0.68707031 79.433125 -1.37414063 79.86625 -2.08203125 80.3125 C-2.98308594 80.869375 -3.88414063 81.42625 -4.8125 82 C-5.70582031 82.556875 -6.59914062 83.11375 -7.51953125 83.6875 C-10 85 -10 85 -13 85 C-13.99 83.02 -14.98 81.04 -16 79 C-13.71125827 77.66141476 -11.41930344 76.32898986 -9.125 75 C-8.47402344 74.6184375 -7.82304688 74.236875 -7.15234375 73.84375 C-2.2265625 71 -2.2265625 71 0 71 C-0.33 64.73 -0.66 58.46 -1 52 C-10.94452641 55.5898331 -10.94452641 55.5898331 -17.85595703 63.09472656 C-18.79078765 68.0783628 -18.5072068 72.97980538 -18 78 C-19.98 78 -21.96 78 -24 78 C-24.33 74.04 -24.66 70.08 -25 66 C-26.0725 66.680625 -27.145 67.36125 -28.25 68.0625 C-30.52123303 69.34723787 -31.67795318 69.99129603 -34.3125 70.0625 C-36.74939646 68.52815779 -37.173955 66.68464625 -38 64 C-31.25 60 -31.25 60 -29 60 C-31.7819368 56.72713318 -35.27954067 55.03572303 -39 53 C-38.125 48.25 -38.125 48.25 -37 46 C-34.18862772 46.99224904 -32.0001764 47.99986863 -29.59765625 49.7890625 C-26.67276876 51.90723988 -24.53836079 53.18678261 -21 54 C-16.8469496 52.84992451 -13.38297805 50.38371515 -9.87109375 47.9609375 C-7 46 -7 46 -5 46 C-5 45.34 -5 44.68 -5 44 C-5.72316406 43.74476562 -6.44632813 43.48953125 -7.19140625 43.2265625 C-10 42 -10 42 -12.40234375 40.2109375 C-15.32723124 38.09276012 -17.46163921 36.81321739 -21 36 C-25.1530504 37.15007549 -28.61702195 39.61628485 -32.12890625 42.0390625 C-35 44 -35 44 -37 44 C-38.4606285 41.35261084 -39 40.10551666 -39 37 C-38.36191406 36.66226563 -37.72382812 36.32453125 -37.06640625 35.9765625 C-36.24011719 35.53054687 -35.41382813 35.08453125 -34.5625 34.625 C-33.73878906 34.18414062 -32.91507813 33.74328125 -32.06640625 33.2890625 C-29.86533422 32.16581441 -29.86533422 32.16581441 -29 30 C-30.11375 29.566875 -30.11375 29.566875 -31.25 29.125 C-33.56739797 28.17697356 -35.77917115 27.15154089 -38 26 C-37.25 23.5625 -37.25 23.5625 -36 21 C-34.1875 20.1875 -34.1875 20.1875 -32 20 C-29.08693234 21.35553331 -26.66561072 23.17849934 -24 25 C-24 20.71 -24 16.42 -24 12 C-22.02 12 -20.04 12 -18 12 C-18.1134375 13.12277344 -18.226875 14.24554688 -18.34375 15.40234375 C-18.585222 20.07584392 -18.79710025 24.60207641 -17 29 C-12.6022897 33.59018479 -6.7610206 35.50506982 -1 38 C-0.67 31.73 -0.34 25.46 0 19 C-2.475 18.01 -2.475 18.01 -5 17 C-6.78987319 15.99139993 -8.56117681 14.94914489 -10.3125 13.875 C-11.19550781 13.33617187 -12.07851563 12.79734375 -12.98828125 12.2421875 C-13.98408203 11.62730469 -13.98408203 11.62730469 -15 11 C-14.49396008 8.83125748 -14.00016187 7.00032373 -13 5 C-8.11713593 5.97433297 -4.28711394 8.54121406 0 11 C0 7.37 0 3.74 0 0 Z " fill="#000000" transform="translate(45,3)"/>
</svg>
