<?xml version="1.0" encoding="UTF-8"?>
<svg version="1.1" xmlns="http://www.w3.org/2000/svg" width="96" height="96">
<path d="M0 0 C1.03777588 -0.00315216 2.07555176 -0.00630432 3.14477539 -0.009552 C4.83848267 -0.00651566 4.83848267 -0.00651566 6.56640625 -0.00341797 C7.71681396 -0.00437469 8.86722168 -0.00533142 10.05249023 -0.00631714 C12.49039769 -0.00699916 14.92830695 -0.00514337 17.36621094 -0.00097656 C21.11267143 0.00437136 24.85901202 -0.00092086 28.60546875 -0.00732422 C30.96744818 -0.00666344 33.32942754 -0.00538229 35.69140625 -0.00341797 C36.82054443 -0.0054422 37.94968262 -0.00746643 39.11303711 -0.009552 C40.15081299 -0.00639984 41.18858887 -0.00324768 42.2578125 0 C43.1763501 0.00079559 44.0948877 0.00159119 45.04125977 0.00241089 C47.12890625 0.12939453 47.12890625 0.12939453 48.12890625 1.12939453 C48.27005786 3.79998304 48.17137732 6.45371691 48.12890625 9.12939453 C49.12792969 9.11779297 50.12695312 9.10619141 51.15625 9.09423828 C52.44660156 9.08521484 53.73695312 9.07619141 55.06640625 9.06689453 C56.35417969 9.05529297 57.64195313 9.04369141 58.96875 9.03173828 C62.12890625 9.12939453 62.12890625 9.12939453 63.12890625 10.12939453 C63.22911555 12.40887245 63.25971928 14.69146588 63.26171875 16.97314453 C63.26267548 17.6574353 63.2636322 18.34172607 63.26461792 19.04675293 C63.26529955 20.4960133 63.26344648 21.94527671 63.25927734 23.39453125 C63.25392877 25.62002381 63.25922285 27.84531454 63.265625 30.07080078 C63.26496422 31.47574915 63.26368305 32.88069738 63.26171875 34.28564453 C63.26059082 35.57277344 63.25946289 36.85990234 63.25830078 38.18603516 C63.12890625 41.12939453 63.12890625 41.12939453 62.12890625 42.12939453 C59.7757707 42.20211195 57.42056957 42.21310321 55.06640625 42.19189453 C53.77605469 42.18287109 52.48570313 42.17384766 51.15625 42.16455078 C50.15722656 42.15294922 49.15820312 42.14134766 48.12890625 42.12939453 C48.04640625 43.18126953 47.96390625 44.23314453 47.87890625 45.31689453 C47.05028774 49.52903863 46.17600122 51.16465348 43.12890625 54.12939453 C38.45497805 56.96018586 34.93101704 57.51390209 29.5 57.52783203 C28.78787857 57.53070221 28.07575714 57.53357239 27.34205627 57.53652954 C25.84529825 57.53856027 24.34851308 57.5331001 22.85180664 57.52050781 C20.56921832 57.50441436 18.28839385 57.52040077 16.00585938 57.53955078 C14.54556904 57.53756864 13.08527979 57.53372555 11.625 57.52783203 C10.30685303 57.52444824 8.98870605 57.52106445 7.63061523 57.51757812 C2.43599656 56.94172623 0.16627742 55.06627208 -3.65087891 51.61889648 C-7.02253916 47.31997604 -6.51395553 42.53364838 -6.39453125 37.29736328 C-6.38747665 35.74883415 -6.38747665 35.74883415 -6.38027954 34.16902161 C-6.35898897 30.88429105 -6.30236713 27.60119203 -6.24609375 24.31689453 C-6.22958274 22.08839404 -6.21523568 19.8598764 -6.203125 17.63134766 C-6.16917821 13.57474414 -6.13466603 9.518301 -6.06396484 5.4621582 C-6.05110443 4.64752609 -6.03824402 3.83289398 -6.0249939 2.99357605 C-5.71057788 -0.81492282 -3.26524969 0.0028282 0 0 Z M0.12890625 6.12939453 C0.05459493 11.30717855 0.00022817 16.48465022 -0.03588867 21.6628418 C-0.05094928 23.42331349 -0.07140201 25.18374783 -0.09741211 26.9440918 C-0.13391604 29.47860956 -0.15084729 32.01263005 -0.1640625 34.54736328 C-0.17954636 35.33088669 -0.19503021 36.1144101 -0.21098328 36.92167664 C-0.21239378 41.53048198 0.28874581 44.45783068 3.12890625 48.12939453 C7.77008355 52.32201624 13.5448592 51.57152789 19.44140625 51.50439453 C20.44880859 51.51599609 21.45621094 51.52759766 22.49414062 51.53955078 C28.70877033 51.51525907 33.57002375 51.00619474 39.12890625 48.12939453 C42.58788318 43.90092704 42.52525406 39.77861244 42.421875 34.54736328 C42.41550774 33.32609489 42.41550774 33.32609489 42.40901184 32.08015442 C42.39228378 29.49205785 42.35464337 26.90475382 42.31640625 24.31689453 C42.30135178 22.55714019 42.28766471 20.79737359 42.27539062 19.03759766 C42.24495723 14.73431589 42.18622754 10.43273723 42.12890625 6.12939453 C34.20890625 6.12939453 26.28890625 6.12939453 18.12890625 6.12939453 C18.12890625 10.08939453 18.12890625 14.04939453 18.12890625 18.12939453 C20.60390625 18.62439453 20.60390625 18.62439453 23.12890625 19.12939453 C23.12890625 24.40939453 23.12890625 29.68939453 23.12890625 35.12939453 C17.84890625 35.12939453 12.56890625 35.12939453 7.12890625 35.12939453 C7.12890625 29.84939453 7.12890625 24.56939453 7.12890625 19.12939453 C8.77890625 18.79939453 10.42890625 18.46939453 12.12890625 18.12939453 C12.12890625 14.16939453 12.12890625 10.20939453 12.12890625 6.12939453 C8.16890625 6.12939453 4.20890625 6.12939453 0.12890625 6.12939453 Z M48.12890625 15.12939453 C48.12890625 22.05939453 48.12890625 28.98939453 48.12890625 36.12939453 C51.09890625 36.12939453 54.06890625 36.12939453 57.12890625 36.12939453 C57.12890625 29.19939453 57.12890625 22.26939453 57.12890625 15.12939453 C54.15890625 15.12939453 51.18890625 15.12939453 48.12890625 15.12939453 Z M12.12890625 24.12939453 C12.12890625 26.10939453 12.12890625 28.08939453 12.12890625 30.12939453 C14.10890625 30.12939453 16.08890625 30.12939453 18.12890625 30.12939453 C18.12890625 28.14939453 18.12890625 26.16939453 18.12890625 24.12939453 C16.14890625 24.12939453 14.16890625 24.12939453 12.12890625 24.12939453 Z " fill="#000000" transform="translate(23.87109375,35.87060546875)"/>
<path d="M0 0 C1.98 0 3.96 0 6 0 C6.37708207 5.56373919 5.31520452 9.31371004 2.6875 14.125 C2.37876953 14.71925781 2.07003906 15.31351563 1.75195312 15.92578125 C0.35121796 18.59749927 -1.12434174 21.20522143 -2.6875 23.78515625 C-3.93849417 25.89620891 -4.55598573 27.60232293 -5 30 C-7.31 30 -9.62 30 -12 30 C-11.68846302 22.99041796 -8.45823341 17.97495825 -5 12 C-2.92013075 8.06310464 -1.31711041 4.25527978 0 0 Z " fill="#000000" transform="translate(69,3)"/>
<path d="M0 0 C1.98 0 3.96 0 6 0 C6.37708207 5.56373919 5.31520452 9.31371004 2.6875 14.125 C2.37876953 14.71925781 2.07003906 15.31351563 1.75195312 15.92578125 C0.35121796 18.59749927 -1.12434174 21.20522143 -2.6875 23.78515625 C-3.93849417 25.89620891 -4.55598573 27.60232293 -5 30 C-7.31 30 -9.62 30 -12 30 C-11.68846302 22.99041796 -8.45823341 17.97495825 -5 12 C-2.92013075 8.06310464 -1.31711041 4.25527978 0 0 Z " fill="#000000" transform="translate(54,3)"/>
<path d="M0 0 C2.31 0 4.62 0 7 0 C6.5549525 5.99642943 4.67536628 9.9141903 1.5625 15 C-1.43892711 19.95022101 -3.65288563 24.3465364 -5 30 C-6.98 30 -8.96 30 -11 30 C-11.99476731 22.7524096 -9.40198855 18.43756324 -5.82421875 12.2109375 C-3.5777426 8.25675464 -1.74486385 4.19417584 0 0 Z " fill="#000000" transform="translate(38,3)"/>
</svg>
