<?xml version="1.0" encoding="UTF-8"?>
<!-- Generator: visioncortex VTracer 0.6.3 -->
<svg version="1.1" xmlns="http://www.w3.org/2000/svg" width="1280" height="1280">
<path d="M0 0 C5.5 3.87 12.99 4.01 19.46 5.05 C28.05 6.54 37.12 8.43 43.95 14.15 C46.83 16.35 48.74 16.83 52.29 17.38 C53.96 17.67 53.96 17.67 55.66 17.96 C57.97 18.32 60.28 18.69 62.59 19.05 C78.72 21.81 78.72 21.81 83.86 27.66 C86.23 29.74 88.44 29.83 91.54 30.29 C92.74 30.48 93.95 30.67 95.2 30.87 C97.73 31.25 100.25 31.63 102.78 32 C110.17 33.19 117.34 34.52 123.47 39.07 C123.78 39.77 124.09 40.46 124.41 41.17 C125.31 43.31 125.31 43.31 127.74 43.77 C128.67 43.86 129.6 43.96 130.56 44.05 C131.59 44.16 132.62 44.28 133.69 44.39 C134.77 44.5 135.85 44.6 136.97 44.7 C162.26 47.3 162.26 47.3 168.34 54.2 C173.04 58.34 180.83 58.31 186.87 59.06 C205.34 61.42 205.34 61.42 210.85 67.63 C213.15 69.68 215.29 69.99 218.28 70.64 C220.01 71.01 220.01 71.01 221.78 71.39 C225.44 72.07 229.09 72.56 232.78 73.01 C239.26 73.88 244.77 75.11 249.34 80.14 C254.83 85.14 262.95 85.3 270.03 86.01 C277.97 86.82 284.44 88.24 290.53 93.7 C295.62 97.81 300.97 98.03 307.29 98.72 C315.66 99.64 322.72 100.72 329.17 106.49 C333.35 110.05 338.27 111.56 343.37 113.39 C348.8 115.46 351.79 117.72 354.47 123.07 C355.89 123.68 357.33 124.24 358.78 124.76 C363.87 126.91 365.21 129.12 367.47 134.07 C369.82 137.6 371.73 138.24 375.47 140.07 C378.42 142.42 379.02 144.52 379.84 148.14 C380.53 150.79 380.53 150.79 381.47 153.07 C383.85 154.48 383.85 154.48 386.47 155.07 C391.06 159.66 391.98 164.82 393.36 170.92 C394.43 175.1 394.93 176.66 398.5 179.36 C399.48 179.93 400.46 180.49 401.47 181.07 C405.83 186.97 406.45 194.85 407.46 201.91 C407.96 203.48 407.96 203.48 408.47 205.07 C410.84 206.19 410.84 206.19 413.47 207.07 C417.9 212.3 418.97 218.09 420.36 224.62 C421.41 228.91 421.84 230.6 425.5 233.35 C426.48 233.92 427.46 234.49 428.47 235.07 C429.82 237.23 429.82 237.23 430.66 239.57 C430.97 240.44 431.29 241.31 431.61 242.21 C432.53 245.26 433.18 248.33 433.84 251.45 C434.86 256.12 434.86 256.12 438.41 259.26 C439.42 259.86 440.43 260.46 441.47 261.07 C445.7 267.19 446.44 274.73 447.46 281.91 C447.96 283.48 447.96 283.48 448.47 285.07 C450.84 286.19 450.84 286.19 453.47 287.07 C457.9 292.3 458.97 298.09 460.36 304.62 C461.41 308.91 461.84 310.6 465.5 313.35 C466.48 313.92 467.46 314.49 468.47 315.07 C469.82 317.23 469.82 317.23 470.66 319.57 C470.97 320.44 471.29 321.31 471.61 322.21 C472.53 325.26 473.18 328.33 473.84 331.45 C474.86 336.12 474.86 336.12 478.41 339.26 C479.42 339.86 480.43 340.46 481.47 341.07 C485.7 347.19 486.44 354.73 487.46 361.91 C487.96 363.48 487.96 363.48 488.47 365.07 C490.88 366.4 490.88 366.4 493.47 367.07 C500 375.84 499.76 386.97 499.72 397.5 C499.73 398.71 499.73 399.92 499.73 401.16 C499.74 404.5 499.74 407.85 499.73 411.19 C499.73 414.83 499.74 418.47 499.74 422.11 C499.75 428.49 499.75 434.86 499.75 441.24 C499.74 450.72 499.75 460.2 499.76 469.68 C499.77 487.6 499.77 505.52 499.77 523.44 C499.77 537.28 499.77 551.12 499.78 564.95 C499.78 566.94 499.78 568.93 499.78 570.92 C499.78 573.91 499.78 576.91 499.78 579.9 C499.79 607.76 499.79 635.61 499.79 663.46 C499.79 664.51 499.79 665.56 499.79 666.65 C499.79 671.97 499.79 677.29 499.79 682.61 C499.79 683.67 499.79 684.72 499.78 685.81 C499.78 687.95 499.78 690.09 499.78 692.22 C499.78 725.48 499.79 758.74 499.8 792 C499.83 829.37 499.84 866.74 499.83 904.11 C499.83 908.09 499.83 912.08 499.83 916.06 C499.83 917.53 499.83 917.53 499.83 919.04 C499.83 933.85 499.84 948.66 499.85 963.47 C499.86 980.31 499.86 997.15 499.85 1013.99 C499.84 1023.42 499.84 1032.84 499.86 1042.27 C499.87 1048.56 499.86 1054.86 499.85 1061.16 C499.84 1064.75 499.84 1068.33 499.85 1071.92 C499.87 1075.79 499.86 1079.66 499.84 1083.52 C499.85 1084.63 499.86 1085.74 499.87 1086.88 C499.8 1096.41 498.82 1106.56 492.47 1114.07 C491.81 1114.5 491.14 1114.92 490.46 1115.36 C487.82 1117.64 487.43 1119.61 486.53 1122.95 C484.95 1128.05 483.85 1130.98 479.47 1134.07 C476.66 1134.89 476.66 1134.89 474.47 1135.07 C474.24 1136.15 474.01 1137.22 473.78 1138.32 C472.27 1142.65 471.32 1143.7 467.47 1146.07 C465.97 1146.71 464.47 1147.34 462.97 1147.95 C459.77 1149.28 457.83 1150.44 455.72 1153.2 C452.2 1157.7 448.37 1158.26 442.82 1158.95 C442.11 1159.03 441.41 1159.1 440.68 1159.18 C439.93 1159.27 439.18 1159.35 438.41 1159.44 C430.64 1160.25 422.91 1160.35 415.1 1160.33 C413.53 1160.33 411.95 1160.33 410.37 1160.34 C406.07 1160.35 401.76 1160.34 397.46 1160.34 C392.77 1160.33 388.07 1160.34 383.38 1160.35 C375.16 1160.36 366.94 1160.36 358.73 1160.35 C346.51 1160.35 334.29 1160.35 322.07 1160.36 C298.98 1160.38 275.89 1160.38 252.8 1160.38 C234.98 1160.37 217.15 1160.38 199.32 1160.38 C196.76 1160.38 194.2 1160.38 191.64 1160.38 C187.78 1160.38 183.92 1160.38 180.06 1160.39 C144.17 1160.39 108.28 1160.4 72.4 1160.39 C71.72 1160.39 71.05 1160.39 70.35 1160.39 C62.81 1160.39 55.28 1160.39 47.74 1160.39 C46.72 1160.39 46.72 1160.39 45.68 1160.39 C40.03 1160.39 40.03 1160.39 37.42 1160.39 C-6.12 1160.38 -49.66 1160.39 -93.2 1160.41 C-104.18 1160.42 -115.16 1160.42 -126.13 1160.42 C-127.15 1160.42 -127.15 1160.42 -128.18 1160.43 C-164.67 1160.44 -201.17 1160.44 -237.66 1160.44 C-242.79 1160.44 -247.92 1160.44 -253.06 1160.44 C-254.32 1160.44 -255.58 1160.44 -256.89 1160.44 C-275.97 1160.44 -295.06 1160.44 -314.14 1160.45 C-335.84 1160.46 -357.54 1160.47 -379.23 1160.45 C-391.38 1160.45 -403.52 1160.45 -415.66 1160.46 C-423.77 1160.47 -431.88 1160.47 -439.99 1160.46 C-444.62 1160.45 -449.24 1160.45 -453.86 1160.46 C-458.07 1160.47 -462.27 1160.47 -466.48 1160.45 C-467.99 1160.45 -469.5 1160.45 -471.01 1160.46 C-481.92 1160.51 -493.81 1160.45 -502.53 1153.07 C-502.96 1152.41 -503.38 1151.75 -503.82 1151.07 C-506.09 1148.42 -508.07 1148.04 -511.41 1147.14 C-516.5 1145.56 -519.44 1144.45 -522.53 1140.07 C-523.34 1137.26 -523.34 1137.26 -523.53 1135.07 C-524.6 1134.85 -525.68 1134.62 -526.78 1134.39 C-531.11 1132.87 -532.15 1131.93 -534.53 1128.07 C-535.17 1126.58 -535.79 1125.08 -536.41 1123.57 C-537.74 1120.37 -538.9 1118.44 -541.66 1116.32 C-546.49 1112.54 -546.89 1107.97 -547.64 1102.06 C-549.05 1089.87 -548.81 1077.59 -548.79 1065.33 C-548.78 1061.7 -548.79 1058.07 -548.79 1054.44 C-548.8 1048.1 -548.8 1041.76 -548.8 1035.41 C-548.79 1025.98 -548.79 1016.55 -548.8 1007.12 C-548.81 990.27 -548.81 973.42 -548.8 956.57 C-548.8 941.83 -548.8 927.09 -548.8 912.34 C-548.8 911.37 -548.8 910.39 -548.8 909.38 C-548.8 905.41 -548.8 901.43 -548.8 897.46 C-548.81 860.21 -548.8 822.96 -548.79 785.72 C-548.78 752.63 -548.78 719.55 -548.79 686.46 C-548.8 649.27 -548.81 612.08 -548.8 574.89 C-548.8 570.93 -548.8 566.96 -548.8 563 C-548.8 562.02 -548.8 561.05 -548.8 560.04 C-548.8 545.31 -548.8 530.57 -548.8 515.84 C-548.81 499.09 -548.81 482.33 -548.8 465.58 C-548.79 456.21 -548.79 446.84 -548.8 437.46 C-548.8 431.2 -548.8 424.94 -548.79 418.68 C-548.79 415.11 -548.79 411.54 -548.79 407.98 C-548.8 404.13 -548.79 400.28 -548.78 396.44 C-548.79 395.34 -548.79 394.23 -548.8 393.1 C-548.7 373.95 -548.7 373.95 -542.53 367.07 C-541.27 366.72 -541.27 366.72 -539.99 366.36 C-537.18 365.26 -537.18 365.26 -536.53 361.91 C-536.25 359.98 -536.25 359.98 -535.97 358.01 C-533.91 345.64 -533.91 345.64 -530.53 341.07 C-529.55 340.52 -528.57 339.96 -527.56 339.39 C-523.39 336.2 -522.97 333.18 -521.91 328.2 C-520.6 322.41 -519.4 317.78 -515.53 313.07 C-514.86 312.77 -514.18 312.47 -513.48 312.16 C-511.4 311.25 -511.4 311.25 -510.68 309.29 C-510.52 308.58 -510.36 307.88 -510.19 307.15 C-509.99 306.37 -509.8 305.6 -509.6 304.79 C-509.32 303.57 -509.32 303.57 -509.03 302.32 C-507.68 296.54 -506.46 291.72 -502.53 287.07 C-501.66 286.77 -500.78 286.46 -499.88 286.14 C-498.72 285.61 -498.72 285.61 -497.53 285.07 C-496.41 281.83 -496.41 281.83 -495.97 278.01 C-493.91 265.64 -493.91 265.64 -490.53 261.07 C-489.55 260.52 -488.57 259.96 -487.56 259.39 C-483.39 256.2 -482.97 253.18 -481.91 248.2 C-480.6 242.41 -479.4 237.78 -475.53 233.07 C-474.86 232.77 -474.18 232.47 -473.48 232.16 C-471.4 231.25 -471.4 231.25 -470.68 229.29 C-470.52 228.58 -470.36 227.88 -470.19 227.15 C-469.99 226.37 -469.8 225.6 -469.6 224.79 C-469.41 223.98 -469.22 223.16 -469.03 222.32 C-467.68 216.54 -466.46 211.72 -462.53 207.07 C-461.66 206.77 -460.78 206.46 -459.88 206.14 C-459.1 205.79 -458.33 205.44 -457.53 205.07 C-456.41 201.83 -456.41 201.83 -455.97 198.01 C-453.91 185.64 -453.91 185.64 -450.53 181.07 C-449.55 180.52 -448.57 179.96 -447.56 179.39 C-443.39 176.2 -442.97 173.18 -441.91 168.2 C-440.6 162.41 -439.4 157.78 -435.53 153.07 C-434.2 152.4 -432.87 151.73 -431.53 151.07 C-430.3 148.84 -430.3 148.84 -429.34 146.26 C-426.98 141.13 -424.6 139.67 -419.6 137.35 C-416.57 135.48 -415.87 133.14 -414.55 129.94 C-412.39 125.99 -408.26 124.6 -404.09 123.32 C-403.58 123.24 -403.06 123.16 -402.53 123.07 C-402.47 122.33 -402.41 121.59 -402.34 120.82 C-401.25 117.12 -399.71 116.23 -396.53 114.07 C-394.06 113.18 -391.67 112.41 -389.16 111.7 C-383.93 110.11 -380.04 108.44 -376.18 104.51 C-370.29 99.38 -361.26 99.16 -353.87 98.26 C-347.54 97.42 -342.16 96.29 -337.16 92.07 C-329.98 86.6 -320.02 85.98 -311.35 84.61 C-305.24 83.59 -301.01 82.41 -296.41 78.07 C-289.16 73.03 -279.39 72.43 -270.81 71.25 C-266.32 70.58 -263.37 69.62 -259.53 67.07 C-252.32 62.89 -245.46 60.9 -237.28 59.45 C-229.6 58.05 -223.23 56.83 -216.84 52.07 C-207.93 46.69 -196.73 46.08 -186.58 44.96 C-179.91 44.05 -176.01 42.66 -171.34 37.72 C-167.44 34.17 -162.97 33.73 -157.88 33.18 C-155.97 32.95 -155.97 32.95 -154.03 32.72 C-152.03 32.49 -150.03 32.26 -148.02 32.05 C-146.08 31.84 -144.13 31.61 -142.19 31.37 C-141.03 31.24 -139.87 31.11 -138.68 30.98 C-134.78 29.86 -133.2 28.08 -130.53 25.07 C-124.19 20.41 -117.53 19.86 -109.84 18.89 C-107.42 18.56 -105 18.23 -102.58 17.91 C-101.52 17.77 -100.45 17.63 -99.35 17.49 C-95.89 16.99 -95.89 16.99 -92.53 16.07 C-92.24 15.48 -91.95 14.88 -91.66 14.26 C-89.96 10.97 -87.74 9.89 -84.53 8.07 C-81.71 7.26 -78.88 6.84 -75.97 6.45 C-75.18 6.33 -74.39 6.21 -73.58 6.09 C-69.94 5.54 -66.29 5.04 -62.64 4.55 C-60.95 4.31 -60.95 4.31 -59.22 4.07 C-58.23 3.95 -57.25 3.83 -56.23 3.7 C-52.31 2.79 -49.51 0.78 -46.28 -1.55 C-36.04 -6.67 -9.07 -6.9 0 0 Z M-58.97 99.07 C-65.52 104.19 -73.58 104.86 -81.55 105.89 C-88.01 106.8 -93.7 108.22 -98.78 112.57 C-105.15 117.28 -113.06 118.06 -120.72 119.07 C-127.15 119.93 -132.79 120.81 -137.92 125.05 C-146.68 131.84 -159.98 132.19 -170.59 133.42 C-176.85 134 -176.85 134 -181.75 137.45 C-182.34 138.32 -182.92 139.18 -183.53 140.07 C-190.15 144.4 -197.53 144.96 -205.22 145.64 C-216.7 146.48 -216.7 146.48 -226.09 152.64 C-230.04 156.58 -234.19 157.33 -239.6 158.11 C-240.74 158.28 -241.89 158.45 -243.07 158.62 C-244.25 158.79 -245.44 158.96 -246.66 159.14 C-249.01 159.48 -251.37 159.82 -253.73 160.17 C-255.29 160.4 -255.29 160.4 -256.88 160.63 C-260.88 161.3 -262.16 161.56 -264.59 164.95 C-270.34 172.12 -282.63 171.92 -291.12 172.89 C-297.53 173.7 -301.37 174.97 -306.09 179.57 C-311.55 184.16 -319.07 184.86 -325.95 185.56 C-326.71 185.64 -327.47 185.71 -328.25 185.79 C-329.74 185.94 -331.24 186.06 -332.74 186.16 C-336.16 186.47 -338.19 186.8 -340.88 188.98 C-341.43 189.67 -341.97 190.36 -342.53 191.07 C-345.14 193.82 -347.46 196.03 -350.66 198.07 C-354.63 200.84 -355.97 203.76 -357.84 208.14 C-359.53 211.07 -359.53 211.07 -362.47 212.7 C-366.66 215.95 -367.12 218.99 -368.22 224.01 C-370.64 234.4 -370.64 234.4 -373.53 238.07 C-374.37 238.49 -375.2 238.91 -376.06 239.34 C-379.86 242.01 -380.12 245.5 -381.09 249.89 C-382.42 255.69 -383.66 260.36 -387.53 265.07 C-388.21 265.38 -388.88 265.68 -389.58 265.99 C-391.66 266.9 -391.66 266.9 -392.4 268.86 C-392.57 269.56 -392.74 270.27 -392.91 271 C-393.21 272.16 -393.21 272.16 -393.51 273.36 C-393.71 274.17 -393.9 274.98 -394.09 275.82 C-396.78 286.8 -396.78 286.8 -399.53 291.07 C-400.53 291.67 -401.52 292.27 -402.55 292.89 C-406.74 295.96 -407.15 299.09 -408.22 304.01 C-410.64 314.4 -410.64 314.4 -413.53 318.07 C-414.37 318.49 -415.2 318.91 -416.06 319.34 C-419.86 322.01 -420.12 325.5 -421.09 329.89 C-422.42 335.69 -423.66 340.36 -427.53 345.07 C-428.54 345.53 -428.54 345.53 -429.58 345.99 C-431.66 346.9 -431.66 346.9 -432.4 348.86 C-432.57 349.56 -432.74 350.27 -432.91 351 C-433.11 351.77 -433.31 352.55 -433.51 353.36 C-433.8 354.58 -433.8 354.58 -434.09 355.82 C-436.78 366.8 -436.78 366.8 -439.53 371.07 C-441.03 371.97 -441.03 371.97 -442.55 372.89 C-446.74 375.96 -447.15 379.09 -448.22 384.01 C-450.59 394.19 -450.59 394.19 -453.53 398.07 C-454.38 398.45 -455.22 398.82 -456.09 399.2 C-459.59 401.89 -459.47 404.38 -460.15 408.61 C-460.92 415.6 -460.81 422.61 -460.79 429.63 C-460.79 431.38 -460.8 433.14 -460.8 434.89 C-460.81 439.61 -460.81 444.34 -460.8 449.07 C-460.79 454.02 -460.8 458.97 -460.8 463.93 C-460.81 472.23 -460.8 480.54 -460.79 488.84 C-460.78 498.45 -460.78 508.06 -460.8 517.67 C-460.8 525.93 -460.81 534.19 -460.8 542.45 C-460.8 547.38 -460.8 552.3 -460.8 557.23 C-460.81 561.86 -460.81 566.48 -460.79 571.11 C-460.79 572.81 -460.79 574.51 -460.8 576.21 C-460.8 578.52 -460.8 580.84 -460.79 583.15 C-460.78 584.45 -460.78 585.74 -460.78 587.08 C-460.85 590.19 -460.85 590.19 -458.53 592.07 C-455.88 592.38 -455.88 592.38 -452.72 592.32 C-450.85 592.33 -450.85 592.33 -448.94 592.34 C-447.54 592.34 -446.14 592.33 -444.73 592.33 C-443.25 592.33 -441.77 592.33 -440.29 592.33 C-436.18 592.34 -432.08 592.34 -427.97 592.33 C-423.52 592.33 -419.06 592.33 -414.61 592.34 C-406.79 592.34 -398.98 592.34 -391.16 592.34 C-379.53 592.33 -367.91 592.34 -356.29 592.34 C-335.53 592.35 -314.77 592.35 -294.02 592.35 C-275.85 592.34 -257.69 592.34 -239.53 592.34 C-237.72 592.34 -237.72 592.34 -235.88 592.34 C-231 592.34 -226.12 592.34 -221.23 592.34 C-175.39 592.35 -129.55 592.34 -83.71 592.33 C-42.95 592.32 -2.19 592.33 38.58 592.33 C84.33 592.35 130.09 592.35 175.84 592.34 C180.72 592.34 185.59 592.34 190.46 592.34 C191.66 592.34 192.86 592.34 194.1 592.34 C212.26 592.34 230.41 592.34 248.57 592.35 C269.2 592.35 289.84 592.35 310.48 592.34 C322.04 592.33 333.6 592.33 345.16 592.34 C352.87 592.35 360.58 592.34 368.29 592.33 C372.69 592.33 377.09 592.33 381.49 592.34 C385.49 592.34 389.49 592.34 393.48 592.33 C394.93 592.33 396.37 592.33 397.81 592.33 C399.76 592.34 401.71 592.33 403.66 592.32 C404.74 592.32 405.82 592.32 406.94 592.32 C409.64 592.33 409.64 592.33 411.47 590.07 C411.77 586.93 411.77 586.93 411.72 583.15 C411.73 582.07 411.73 582.07 411.73 580.97 C411.74 578.54 411.73 576.11 411.73 573.68 C411.73 571.95 411.73 570.21 411.74 568.47 C411.75 563.75 411.74 559.02 411.74 554.29 C411.73 549.34 411.74 544.39 411.74 539.44 C411.74 531.12 411.74 522.8 411.73 514.48 C411.72 504.87 411.72 495.27 411.73 485.67 C411.74 477.42 411.74 469.17 411.74 460.92 C411.74 455.99 411.73 451.07 411.74 446.14 C411.75 441.5 411.74 436.86 411.73 432.22 C411.73 430.52 411.73 428.83 411.73 427.13 C412.07 413.9 412.07 413.9 409.47 401.07 C407.52 399.67 405.51 398.34 403.47 397.07 C400.52 391.99 399.3 386.4 398.09 380.7 C397.08 376.03 397.08 376.03 393.53 372.89 C392.52 372.29 391.51 371.69 390.47 371.07 C386.41 365.02 385.26 357.45 383.79 350.43 C382.15 346.25 380.23 345.37 376.47 343.07 C375.11 340.92 375.11 340.92 374.28 338.57 C373.97 337.71 373.65 336.84 373.32 335.94 C372.41 332.88 371.75 329.82 371.09 326.7 C370.1 322.04 370.1 322.04 366.53 318.95 C365.02 318.02 365.02 318.02 363.47 317.07 C360.52 311.98 359.3 306.4 358.09 300.7 C357.08 296.03 357.08 296.03 353.53 292.89 C352.52 292.29 351.51 291.69 350.47 291.07 C346.41 285.02 345.26 277.45 343.79 270.43 C342.15 266.25 340.23 265.37 336.47 263.07 C335.11 260.92 335.11 260.92 334.28 258.57 C333.97 257.71 333.65 256.84 333.32 255.94 C332.41 252.88 331.75 249.82 331.09 246.7 C330.1 242.04 330.1 242.04 326.53 238.95 C325.02 238.02 325.02 238.02 323.47 237.07 C320.52 231.98 319.3 226.4 318.09 220.7 C317.1 216.06 317.1 216.06 313.59 212.95 C312.56 212.33 311.53 211.71 310.47 211.07 C308.98 208.62 307.81 206.13 306.64 203.51 C304.82 199.73 303.42 197.53 299.59 195.7 C296.47 194.07 296.47 194.07 294.23 191.07 C291.35 187.5 288.71 187.06 284.16 186.45 C282.73 186.23 281.31 186 279.88 185.77 C278.79 185.61 278.79 185.61 277.68 185.44 C274.09 184.85 270.57 184.09 267.03 183.26 C265.18 182.85 265.18 182.85 263.29 182.43 C260.12 181.51 257.92 180.05 255.27 178.1 C249.89 174.32 244.44 173.5 238.03 172.51 C229.09 171.09 220.72 169.36 213.53 163.49 C211.01 161.76 209.04 161.39 206.03 160.9 C204.98 160.71 203.92 160.53 202.83 160.34 C201.17 160.05 201.17 160.05 199.47 159.76 C189.08 157.85 181.02 155.42 172.17 149.55 C169.33 148 167.23 147.48 164.05 147.05 C162.51 146.82 162.51 146.82 160.94 146.58 C158.81 146.29 156.68 145.99 154.55 145.7 C146.5 144.5 139.68 142.91 133.47 137.43 C129.53 134.34 126.28 133.95 121.41 133.39 C120.57 133.27 119.73 133.15 118.87 133.03 C116.41 132.69 113.94 132.38 111.47 132.07 C97.18 130.29 97.18 130.29 91.47 126.07 C90.85 125.07 90.85 125.07 90.21 124.04 C87.68 121.19 85.37 121.1 81.66 120.45 C80.99 120.33 80.33 120.21 79.65 120.08 C75.15 119.28 70.63 118.7 66.09 118.14 C57.95 117.02 51.69 114.47 45.37 109.22 C39.36 105.59 32.05 105.51 25.23 105.04 C18.22 104.4 12.67 102.16 7.41 97.45 C-5.59 86.94 -45.94 88.38 -58.97 99.07 Z M-460.53 682.07 C-460.84 684.94 -460.84 684.94 -460.78 688.37 C-460.79 689.03 -460.79 689.69 -460.79 690.36 C-460.8 692.59 -460.79 694.81 -460.79 697.03 C-460.79 698.63 -460.79 700.23 -460.79 701.83 C-460.8 706.25 -460.8 710.66 -460.79 715.08 C-460.79 719.84 -460.8 724.59 -460.8 729.35 C-460.81 738.67 -460.81 747.99 -460.8 757.31 C-460.8 764.89 -460.8 772.46 -460.8 780.03 C-460.8 781.11 -460.8 782.18 -460.8 783.29 C-460.8 785.48 -460.8 787.66 -460.8 789.85 C-460.81 810.37 -460.8 830.88 -460.79 851.4 C-460.78 869.02 -460.78 886.64 -460.79 904.26 C-460.8 924.7 -460.81 945.14 -460.8 965.58 C-460.8 967.76 -460.8 969.94 -460.8 972.12 C-460.8 973.19 -460.8 974.26 -460.8 975.36 C-460.8 982.93 -460.8 990.5 -460.8 998.07 C-460.81 1007.29 -460.81 1016.5 -460.8 1025.72 C-460.79 1030.43 -460.79 1035.13 -460.8 1039.84 C-460.8 1044.14 -460.8 1048.45 -460.79 1052.75 C-460.79 1054.31 -460.79 1055.87 -460.79 1057.44 C-460.8 1059.55 -460.79 1061.66 -460.78 1063.77 C-460.78 1064.95 -460.78 1066.13 -460.78 1067.34 C-460.81 1070.22 -460.81 1070.22 -458.53 1072.07 C-455.86 1072.38 -455.86 1072.38 -452.69 1072.33 C-451.44 1072.33 -450.2 1072.34 -448.91 1072.35 C-447.52 1072.34 -446.14 1072.34 -444.75 1072.33 C-443.29 1072.34 -441.84 1072.34 -440.38 1072.34 C-436.43 1072.35 -432.47 1072.35 -428.51 1072.34 C-424.37 1072.34 -420.24 1072.34 -416.1 1072.35 C-409.15 1072.35 -402.21 1072.34 -395.26 1072.33 C-387.22 1072.32 -379.18 1072.33 -371.14 1072.34 C-364.24 1072.35 -357.35 1072.35 -350.45 1072.34 C-346.33 1072.34 -342.21 1072.34 -338.09 1072.35 C-334.22 1072.35 -330.34 1072.35 -326.47 1072.34 C-325.04 1072.33 -323.62 1072.34 -322.19 1072.34 C-320.26 1072.34 -318.32 1072.34 -316.38 1072.33 C-315.29 1072.33 -314.2 1072.33 -313.08 1072.33 C-310.36 1072.33 -310.36 1072.33 -308.53 1070.07 C-308.23 1067.21 -308.23 1067.21 -308.28 1063.77 C-308.28 1062.79 -308.28 1062.79 -308.27 1061.78 C-308.26 1059.56 -308.27 1057.34 -308.28 1055.12 C-308.27 1053.52 -308.27 1051.92 -308.27 1050.32 C-308.26 1045.9 -308.26 1041.48 -308.27 1037.07 C-308.27 1032.31 -308.27 1027.56 -308.26 1022.8 C-308.25 1013.48 -308.25 1004.16 -308.26 994.84 C-308.27 987.26 -308.27 979.69 -308.26 972.12 C-308.26 970.5 -308.26 970.5 -308.26 968.86 C-308.26 966.67 -308.26 964.48 -308.26 962.3 C-308.26 941.78 -308.26 921.27 -308.27 900.75 C-308.28 883.13 -308.28 865.51 -308.27 847.89 C-308.26 827.45 -308.26 807.01 -308.26 786.57 C-308.26 784.39 -308.26 782.21 -308.26 780.03 C-308.26 778.96 -308.26 777.89 -308.26 776.79 C-308.27 769.22 -308.26 761.65 -308.26 754.08 C-308.25 744.86 -308.25 735.65 -308.27 726.43 C-308.27 721.72 -308.27 717.01 -308.27 712.31 C-308.26 708 -308.26 703.7 -308.27 699.4 C-308.28 697.84 -308.27 696.27 -308.27 694.71 C-308.26 692.6 -308.27 690.49 -308.28 688.37 C-308.28 687.2 -308.28 686.02 -308.28 684.81 C-308.25 681.93 -308.25 681.93 -310.53 680.07 C-313.2 679.77 -313.2 679.77 -316.38 679.82 C-318.24 679.81 -318.24 679.81 -320.15 679.8 C-321.54 679.81 -322.93 679.81 -324.31 679.82 C-325.77 679.81 -327.22 679.81 -328.68 679.8 C-332.64 679.8 -336.6 679.8 -340.55 679.81 C-344.69 679.81 -348.83 679.81 -352.96 679.8 C-359.91 679.8 -366.86 679.8 -373.8 679.81 C-381.84 679.82 -389.88 679.82 -397.92 679.81 C-404.82 679.8 -411.71 679.8 -418.61 679.8 C-422.73 679.81 -426.85 679.81 -430.97 679.8 C-434.85 679.8 -438.72 679.8 -442.59 679.81 C-444.02 679.81 -445.44 679.81 -446.87 679.81 C-448.81 679.8 -450.75 679.81 -452.69 679.82 C-454.32 679.82 -454.32 679.82 -455.98 679.82 C-458.7 679.82 -458.7 679.82 -460.53 682.07 Z M-155.53 683.07 C-154.62 683.86 -153.72 684.64 -152.78 685.45 C-152.27 685.89 -151.76 686.33 -151.23 686.79 C-149.56 688.16 -149.56 688.16 -147.47 689 C-145.1 690.31 -144.47 691.51 -143.22 693.89 C-140.64 698.29 -137.88 700.45 -133.53 703.07 C-132.87 703.07 -132.21 703.07 -131.53 703.07 C-131.3 703.78 -131.08 704.48 -130.84 705.2 C-128.72 709.84 -126.23 713.3 -121.53 715.45 C-118.34 717.18 -117.84 717.91 -116.16 720.95 C-114.32 724.2 -112.8 725.77 -109.53 727.57 C-105.53 729.79 -104.01 732.21 -101.82 736.14 C-99.64 739.42 -96.88 741.05 -93.53 743.07 C-92.87 743.07 -92.21 743.07 -91.53 743.07 C-91.3 743.78 -91.08 744.48 -90.84 745.2 C-88.72 749.84 -86.23 753.3 -81.53 755.45 C-78.34 757.18 -77.84 757.91 -76.16 760.95 C-74.32 764.2 -72.8 765.77 -69.53 767.57 C-65.53 769.79 -64.01 772.21 -61.82 776.14 C-59.64 779.42 -56.88 781.05 -53.53 783.07 C-52.87 783.07 -52.21 783.07 -51.53 783.07 C-51.3 783.78 -51.08 784.48 -50.84 785.2 C-48.72 789.84 -46.23 793.3 -41.53 795.45 C-37.83 797.46 -36.62 799.63 -34.61 803.23 C-33.54 805.23 -33.54 805.23 -31.53 807.07 C-23.27 808.2 -23.27 808.2 -15.57 805.87 C-13.83 803.78 -12.71 801.51 -11.66 799.02 C-10.3 796.67 -9.1 796.01 -6.72 794.76 C-2.32 792.18 -0.16 789.43 2.47 785.07 C2.47 784.41 2.47 783.75 2.47 783.07 C3.17 782.85 3.87 782.62 4.59 782.39 C9.24 780.27 12.69 777.77 14.84 773.07 C16.57 769.88 17.31 769.39 20.34 767.7 C23.6 765.87 25.17 764.35 26.97 761.07 C29.18 757.07 31.6 755.55 35.53 753.36 C38.81 751.18 40.45 748.42 42.47 745.07 C42.47 744.41 42.47 743.75 42.47 743.07 C43.17 742.85 43.87 742.62 44.59 742.39 C49.24 740.27 52.69 737.77 54.84 733.07 C56.57 729.88 57.31 729.39 60.34 727.7 C63.6 725.87 65.17 724.35 66.97 721.07 C69.18 717.07 71.6 715.55 75.53 713.36 C78.81 711.18 80.45 708.42 82.47 705.07 C82.47 704.41 82.47 703.75 82.47 703.07 C83.17 702.85 83.87 702.62 84.59 702.39 C89.24 700.27 92.69 697.77 94.84 693.07 C96.85 689.37 99 688.22 102.63 686.25 C104.77 685.05 104.77 685.05 106.47 682.07 C103.52 680.39 101.41 679.82 98.02 679.82 C97.13 679.81 96.24 679.81 95.32 679.8 C94.35 679.81 93.38 679.81 92.37 679.81 C91.33 679.81 90.3 679.81 89.23 679.8 C85.74 679.79 82.25 679.8 78.76 679.8 C76.27 679.8 73.77 679.79 71.27 679.78 C65.19 679.77 59.11 679.77 53.02 679.77 C48.08 679.77 43.13 679.77 38.19 679.77 C37.14 679.77 37.14 679.77 36.06 679.77 C34.63 679.76 33.2 679.76 31.77 679.76 C18.37 679.75 4.97 679.75 -8.43 679.76 C-20.69 679.76 -32.95 679.75 -45.22 679.73 C-57.81 679.72 -70.39 679.71 -82.98 679.71 C-90.05 679.71 -97.12 679.71 -104.19 679.7 C-110.84 679.68 -117.48 679.69 -124.13 679.7 C-126.57 679.7 -129.01 679.7 -131.45 679.69 C-134.78 679.68 -138.11 679.69 -141.43 679.7 C-142.41 679.69 -143.38 679.69 -144.39 679.68 C-145.28 679.68 -146.17 679.69 -147.08 679.7 C-147.85 679.7 -148.62 679.7 -149.41 679.7 C-152.08 680.17 -153.5 681.33 -155.53 683.07 Z M259.47 682.07 C259.16 684.94 259.16 684.94 259.22 688.37 C259.21 689.03 259.21 689.69 259.21 690.36 C259.2 692.59 259.21 694.81 259.21 697.03 C259.21 698.63 259.21 700.23 259.21 701.83 C259.2 706.25 259.2 710.66 259.21 715.08 C259.21 719.84 259.2 724.59 259.2 729.35 C259.19 738.67 259.19 747.99 259.2 757.31 C259.2 764.89 259.2 772.46 259.2 780.03 C259.2 781.11 259.2 782.18 259.2 783.29 C259.2 785.48 259.2 787.66 259.2 789.85 C259.19 810.37 259.2 830.88 259.21 851.4 C259.22 869.02 259.22 886.64 259.21 904.26 C259.2 924.7 259.19 945.14 259.2 965.58 C259.2 967.76 259.2 969.94 259.2 972.12 C259.2 973.19 259.2 974.26 259.2 975.36 C259.2 982.93 259.2 990.5 259.2 998.07 C259.19 1007.29 259.19 1016.5 259.2 1025.72 C259.21 1030.43 259.21 1035.13 259.2 1039.84 C259.2 1044.14 259.2 1048.45 259.21 1052.75 C259.21 1054.31 259.21 1055.87 259.21 1057.44 C259.2 1059.55 259.21 1061.66 259.22 1063.77 C259.22 1064.95 259.22 1066.13 259.22 1067.34 C259.19 1070.22 259.19 1070.22 261.47 1072.07 C264.14 1072.38 264.14 1072.38 267.31 1072.33 C268.56 1072.33 269.8 1072.34 271.09 1072.35 C272.48 1072.34 273.86 1072.34 275.25 1072.33 C276.71 1072.34 278.16 1072.34 279.62 1072.34 C283.57 1072.35 287.53 1072.35 291.49 1072.34 C295.63 1072.34 299.76 1072.34 303.9 1072.35 C310.85 1072.35 317.79 1072.34 324.74 1072.33 C332.78 1072.32 340.82 1072.33 348.86 1072.34 C355.76 1072.35 362.65 1072.35 369.55 1072.34 C373.67 1072.34 377.79 1072.34 381.91 1072.35 C385.78 1072.35 389.66 1072.35 393.53 1072.34 C394.96 1072.33 396.38 1072.34 397.81 1072.34 C399.74 1072.34 401.68 1072.34 403.62 1072.33 C404.71 1072.33 405.8 1072.33 406.92 1072.33 C409.64 1072.33 409.64 1072.33 411.47 1070.07 C411.77 1067.21 411.77 1067.21 411.72 1063.77 C411.72 1062.79 411.72 1062.79 411.73 1061.78 C411.74 1059.56 411.73 1057.34 411.72 1055.12 C411.73 1053.52 411.73 1051.92 411.73 1050.32 C411.74 1045.9 411.74 1041.48 411.73 1037.07 C411.73 1032.31 411.73 1027.56 411.74 1022.8 C411.75 1013.48 411.75 1004.16 411.74 994.84 C411.73 987.26 411.73 979.69 411.74 972.12 C411.74 970.5 411.74 970.5 411.74 968.86 C411.74 966.67 411.74 964.48 411.74 962.3 C411.74 941.78 411.74 921.27 411.73 900.75 C411.72 883.13 411.72 865.51 411.73 847.89 C411.74 827.45 411.74 807.01 411.74 786.57 C411.74 784.39 411.74 782.21 411.74 780.03 C411.74 778.96 411.74 777.89 411.74 776.79 C411.73 769.22 411.74 761.65 411.74 754.08 C411.75 744.86 411.75 735.65 411.73 726.43 C411.73 721.72 411.73 717.01 411.73 712.31 C411.74 708 411.74 703.7 411.73 699.4 C411.72 697.84 411.73 696.27 411.73 694.71 C411.74 692.6 411.73 690.49 411.72 688.37 C411.72 687.2 411.72 686.02 411.72 684.81 C411.75 681.93 411.75 681.93 409.47 680.07 C406.8 679.77 406.8 679.77 403.62 679.82 C401.76 679.81 401.76 679.81 399.85 679.8 C398.46 679.81 397.07 679.81 395.69 679.82 C394.23 679.81 392.78 679.81 391.32 679.8 C387.36 679.8 383.4 679.8 379.45 679.81 C375.31 679.81 371.17 679.81 367.04 679.8 C360.09 679.8 353.14 679.8 346.2 679.81 C338.16 679.82 330.12 679.82 322.08 679.81 C315.18 679.8 308.29 679.8 301.39 679.8 C297.27 679.81 293.15 679.81 289.03 679.8 C285.15 679.8 281.28 679.8 277.41 679.81 C275.98 679.81 274.56 679.81 273.13 679.81 C271.19 679.8 269.25 679.81 267.31 679.82 C265.68 679.82 265.68 679.82 264.02 679.82 C261.3 679.82 261.3 679.82 259.47 682.07 Z M-218.53 745.07 C-220.22 748.02 -220.78 750.13 -220.79 753.52 C-220.79 754.41 -220.8 755.3 -220.8 756.22 C-220.8 757.19 -220.8 758.17 -220.79 759.17 C-220.8 760.21 -220.8 761.25 -220.8 762.32 C-220.81 765.8 -220.81 769.29 -220.81 772.78 C-220.81 775.28 -220.82 777.77 -220.82 780.27 C-220.83 786.35 -220.84 792.44 -220.83 798.52 C-220.83 803.46 -220.83 808.41 -220.84 813.35 C-220.84 814.06 -220.84 814.76 -220.84 815.48 C-220.84 816.91 -220.84 818.34 -220.84 819.77 C-220.85 833.17 -220.85 846.57 -220.85 859.97 C-220.84 872.23 -220.85 884.5 -220.87 896.76 C-220.89 909.35 -220.9 921.94 -220.89 934.53 C-220.89 941.6 -220.9 948.66 -220.91 955.73 C-220.92 962.38 -220.92 969.02 -220.91 975.67 C-220.9 978.11 -220.91 980.55 -220.92 983 C-220.93 986.32 -220.92 989.65 -220.91 992.98 C-220.91 993.95 -220.92 994.93 -220.93 995.93 C-220.92 996.82 -220.91 997.71 -220.91 998.63 C-220.91 999.39 -220.91 1000.16 -220.91 1000.95 C-220.43 1003.62 -219.27 1005.04 -217.53 1007.07 C-216.75 1006.17 -215.96 1005.26 -215.16 1004.32 C-214.72 1003.81 -214.27 1003.3 -213.82 1002.78 C-212.45 1001.1 -212.45 1001.1 -211.61 999.02 C-210.29 996.64 -209.1 996.01 -206.72 994.76 C-202.32 992.18 -200.16 989.43 -197.53 985.07 C-197.53 984.41 -197.53 983.75 -197.53 983.07 C-196.48 982.73 -196.48 982.73 -195.41 982.39 C-190.76 980.27 -187.31 977.77 -185.16 973.07 C-183.43 969.88 -182.69 969.39 -179.66 967.7 C-176.4 965.87 -174.83 964.35 -173.03 961.07 C-170.82 957.07 -168.4 955.55 -164.47 953.36 C-161.19 951.18 -159.55 948.42 -157.53 945.07 C-157.53 944.41 -157.53 943.75 -157.53 943.07 C-156.83 942.85 -156.13 942.62 -155.41 942.39 C-150.76 940.27 -147.31 937.77 -145.16 933.07 C-143.43 929.88 -142.69 929.39 -139.66 927.7 C-136.4 925.87 -134.83 924.35 -133.03 921.07 C-130.82 917.07 -128.4 915.55 -124.47 913.36 C-121.19 911.18 -119.55 908.42 -117.53 905.07 C-117.53 904.41 -117.53 903.75 -117.53 903.07 C-116.83 902.85 -116.13 902.62 -115.41 902.39 C-110.76 900.27 -107.31 897.77 -105.16 893.07 C-103.15 889.37 -100.98 888.17 -97.37 886.15 C-95.38 885.09 -95.38 885.09 -93.53 883.07 C-92.41 874.81 -92.41 874.81 -94.73 867.11 C-96.82 865.37 -99.11 864.25 -101.6 863.2 C-103.93 861.84 -104.51 860.71 -105.72 858.32 C-107.73 854.87 -109.62 853.14 -113.03 851.07 C-117.2 848.55 -118.92 846.16 -121.22 841.95 C-123.16 839.17 -125.71 838.03 -128.62 836.42 C-131.41 834.45 -132.56 831.92 -134.19 828.98 C-135.75 826.77 -137.18 825.87 -139.53 824.57 C-142.74 822.8 -144.21 821.35 -145.97 818.14 C-147.86 814.7 -149.68 813.1 -153.03 811.07 C-157.2 808.55 -158.92 806.16 -161.22 801.95 C-163.16 799.17 -165.71 798.03 -168.62 796.42 C-171.41 794.45 -172.56 791.92 -174.19 788.98 C-175.75 786.77 -177.18 785.87 -179.53 784.57 C-182.74 782.8 -184.21 781.35 -185.97 778.14 C-187.86 774.7 -189.68 773.1 -193.03 771.07 C-197.2 768.55 -198.92 766.16 -201.22 761.95 C-203.16 759.18 -205.7 758.04 -208.61 756.43 C-211.45 754.43 -212.82 751.88 -214.43 748.84 C-215.56 746.76 -215.56 746.76 -218.53 745.07 Z M168.47 745.07 C167.68 745.98 166.9 746.89 166.09 747.82 C165.43 748.59 165.43 748.59 164.76 749.37 C163.39 751.05 163.39 751.05 162.54 753.14 C161.23 755.5 160.1 756.06 157.72 757.26 C154.26 759.27 152.53 761.16 150.47 764.57 C147.95 768.74 145.55 770.47 141.34 772.77 C138.57 774.71 137.42 777.25 135.81 780.17 C133.85 782.96 131.31 784.11 128.38 785.73 C126.16 787.29 125.27 788.72 123.97 791.07 C122.2 794.28 120.74 795.76 117.53 797.51 C114.1 799.41 112.5 801.22 110.47 804.57 C107.95 808.74 105.55 810.47 101.34 812.77 C98.57 814.71 97.42 817.25 95.81 820.17 C93.85 822.96 91.31 824.11 88.38 825.73 C86.16 827.29 85.27 828.72 83.97 831.07 C82.2 834.28 80.74 835.76 77.53 837.51 C74.1 839.41 72.5 841.22 70.47 844.57 C67.95 848.74 65.55 850.47 61.34 852.77 C58.57 854.7 57.43 857.24 55.82 860.14 C53.81 863 51.27 864.41 48.24 866.07 C46.3 867.07 46.3 867.07 44.47 869.07 C43.34 877.33 43.34 877.33 45.67 885.04 C47.76 886.77 50.04 887.89 52.53 888.95 C54.87 890.31 55.53 891.51 56.78 893.89 C59.36 898.29 62.12 900.45 66.47 903.07 C67.13 903.07 67.79 903.07 68.47 903.07 C68.7 903.78 68.92 904.48 69.16 905.2 C71.28 909.84 73.77 913.3 78.47 915.45 C81.66 917.18 82.16 917.91 83.84 920.95 C85.68 924.2 87.2 925.77 90.47 927.57 C94.47 929.79 95.99 932.21 98.18 936.14 C100.36 939.42 103.12 941.05 106.47 943.07 C107.13 943.07 107.79 943.07 108.47 943.07 C108.7 943.78 108.92 944.48 109.16 945.2 C111.28 949.84 113.77 953.3 118.47 955.45 C121.66 957.18 122.16 957.91 123.84 960.95 C125.68 964.2 127.2 965.77 130.47 967.57 C134.47 969.79 135.99 972.21 138.18 976.14 C140.36 979.42 143.12 981.05 146.47 983.07 C147.13 983.07 147.79 983.07 148.47 983.07 C148.7 983.78 148.92 984.48 149.16 985.2 C151.28 989.84 153.77 993.3 158.47 995.45 C162.17 997.45 163.33 999.61 165.29 1003.23 C166.49 1005.38 166.49 1005.38 169.47 1007.07 C171.15 1004.12 171.72 1002.01 171.72 998.63 C171.73 997.29 171.73 997.29 171.74 995.93 C171.74 994.47 171.74 994.47 171.73 992.98 C171.73 991.94 171.74 990.9 171.74 989.83 C171.75 986.34 171.75 982.86 171.74 979.37 C171.75 976.87 171.75 974.37 171.76 971.88 C171.77 965.79 171.77 959.71 171.77 953.63 C171.77 948.68 171.77 943.74 171.78 938.8 C171.78 938.09 171.78 937.39 171.78 936.67 C171.78 935.24 171.78 933.81 171.78 932.38 C171.79 918.98 171.79 905.58 171.78 892.18 C171.78 879.92 171.79 867.65 171.81 855.39 C171.83 842.8 171.84 830.21 171.83 817.62 C171.83 810.55 171.83 803.48 171.85 796.41 C171.86 789.77 171.86 783.12 171.84 776.48 C171.84 774.04 171.85 771.59 171.85 769.15 C171.86 765.82 171.86 762.5 171.84 759.17 C171.85 757.71 171.85 757.71 171.87 756.22 C171.86 755.33 171.85 754.44 171.84 753.52 C171.84 752.75 171.84 751.99 171.84 751.2 C171.37 748.53 170.21 747.11 168.47 745.07 Z M-34.78 947.82 C-36.47 950.84 -36.47 950.84 -37.41 953.14 C-38.76 955.47 -39.9 956.06 -42.28 957.26 C-45.74 959.27 -47.47 961.16 -49.53 964.57 C-52.05 968.74 -54.45 970.47 -58.66 972.77 C-61.43 974.71 -62.58 977.25 -64.19 980.17 C-66.15 982.96 -68.69 984.11 -71.62 985.73 C-73.84 987.29 -74.73 988.72 -76.03 991.07 C-77.8 994.28 -79.26 995.76 -82.47 997.51 C-85.9 999.41 -87.5 1001.22 -89.53 1004.57 C-92.05 1008.74 -94.45 1010.47 -98.66 1012.77 C-101.43 1014.71 -102.58 1017.25 -104.19 1020.17 C-106.15 1022.96 -108.69 1024.11 -111.62 1025.73 C-113.84 1027.29 -114.73 1028.72 -116.03 1031.07 C-117.8 1034.28 -119.26 1035.76 -122.47 1037.51 C-125.9 1039.41 -127.5 1041.22 -129.53 1044.57 C-132.05 1048.74 -134.45 1050.47 -138.66 1052.77 C-141.43 1054.7 -142.57 1057.24 -144.18 1060.15 C-146.18 1063 -148.73 1064.36 -151.76 1065.97 C-153.85 1067.1 -153.85 1067.1 -155.53 1070.07 C-152.58 1071.76 -150.47 1072.32 -147.08 1072.33 C-146.19 1072.33 -145.3 1072.34 -144.39 1072.35 C-142.92 1072.34 -142.92 1072.34 -141.43 1072.33 C-140.4 1072.34 -139.36 1072.34 -138.29 1072.35 C-134.8 1072.36 -131.31 1072.35 -127.82 1072.35 C-125.33 1072.35 -122.83 1072.36 -120.33 1072.36 C-114.25 1072.38 -108.17 1072.38 -102.08 1072.38 C-97.14 1072.37 -92.2 1072.38 -87.25 1072.38 C-86.55 1072.38 -85.85 1072.38 -85.12 1072.38 C-83.69 1072.38 -82.27 1072.39 -80.84 1072.39 C-67.44 1072.4 -54.04 1072.39 -40.64 1072.39 C-28.37 1072.38 -16.11 1072.39 -3.84 1072.41 C8.74 1072.43 21.33 1072.44 33.92 1072.44 C40.99 1072.44 48.06 1072.44 55.13 1072.45 C61.77 1072.47 68.42 1072.46 75.06 1072.45 C77.51 1072.45 79.95 1072.45 82.39 1072.46 C85.72 1072.47 89.05 1072.46 92.37 1072.45 C93.35 1072.46 94.32 1072.46 95.32 1072.47 C96.66 1072.46 96.66 1072.46 98.02 1072.45 C99.17 1072.45 99.17 1072.45 100.35 1072.45 C103.02 1071.98 104.44 1070.82 106.47 1069.07 C105.56 1068.29 104.65 1067.51 103.72 1066.7 C103.21 1066.26 102.7 1065.82 102.17 1065.36 C100.49 1063.99 100.49 1063.99 98.4 1063.14 C96.04 1061.84 95.49 1060.71 94.28 1058.32 C92.27 1054.87 90.38 1053.14 86.97 1051.07 C82.8 1048.55 81.08 1046.16 78.78 1041.95 C76.84 1039.17 74.29 1038.03 71.38 1036.42 C68.59 1034.45 67.44 1031.92 65.81 1028.98 C64.25 1026.77 62.82 1025.87 60.47 1024.57 C57.26 1022.8 55.79 1021.35 54.03 1018.14 C52.14 1014.7 50.32 1013.1 46.97 1011.07 C42.8 1008.55 41.08 1006.16 38.78 1001.95 C36.84 999.17 34.29 998.03 31.38 996.42 C28.59 994.45 27.44 991.92 25.81 988.98 C24.25 986.77 22.82 985.87 20.47 984.57 C17.26 982.8 15.79 981.35 14.03 978.14 C12.14 974.7 10.32 973.1 6.97 971.07 C2.8 968.55 1.08 966.16 -1.22 961.95 C-3.16 959.18 -5.69 958.04 -8.6 956.43 C-11.46 954.42 -12.87 951.87 -14.52 948.84 C-15.52 946.9 -15.52 946.9 -17.53 945.07 C-26.97 943.65 -26.97 943.65 -34.78 947.82 Z " fill="#000000" transform="translate(664.53125,43.92578125)"/>
<path d="M0 0 C1.06 -0 2.13 -0 3.22 -0.01 C6.79 -0.01 10.35 -0.01 13.92 -0.01 C16.47 -0.01 19.03 -0.02 21.59 -0.02 C27.81 -0.03 34.03 -0.03 40.26 -0.03 C45.32 -0.03 50.38 -0.04 55.44 -0.04 C69.79 -0.05 84.15 -0.05 98.51 -0.05 C99.28 -0.05 100.05 -0.05 100.85 -0.05 C102.01 -0.05 102.01 -0.05 103.2 -0.05 C115.75 -0.05 128.29 -0.06 140.84 -0.07 C153.74 -0.09 166.63 -0.1 179.52 -0.1 C186.76 -0.09 193.99 -0.1 201.23 -0.11 C208.03 -0.12 214.84 -0.12 221.65 -0.11 C224.14 -0.11 226.64 -0.11 229.13 -0.12 C232.54 -0.13 235.95 -0.12 239.37 -0.11 C240.84 -0.12 240.84 -0.12 242.34 -0.13 C250.88 -0.09 259.78 0.25 266.44 6.13 C267.71 8.09 268.86 10.1 270.02 12.13 C271.63 14.4 273.25 15.59 275.56 17.13 C280.71 20.7 281.76 24.78 282.96 30.7 C283.54 34.89 283.58 38.95 283.57 43.17 C283.57 44.07 283.58 44.97 283.58 45.9 C283.58 48.91 283.58 51.92 283.58 54.93 C283.59 57.09 283.59 59.25 283.59 61.41 C283.6 67.27 283.6 73.14 283.6 79.01 C283.61 82.67 283.61 86.34 283.61 90.01 C283.62 102.81 283.62 115.6 283.62 128.4 C283.62 140.32 283.63 152.24 283.65 164.16 C283.66 174.4 283.67 184.65 283.67 194.89 C283.67 201 283.67 207.11 283.68 213.23 C283.69 218.98 283.69 224.73 283.68 230.48 C283.68 232.59 283.68 234.7 283.69 236.8 C283.76 262.03 283.76 262.03 279.81 269.01 C277.2 271.35 274.47 272.92 271.45 274.68 C269.19 276.31 267.98 277.95 266.44 280.26 C262.88 285.39 258.85 286.41 252.96 287.65 C248.25 288.29 243.63 288.27 238.88 288.27 C237.29 288.27 237.29 288.27 235.66 288.27 C232.1 288.28 228.53 288.28 224.97 288.28 C222.42 288.28 219.86 288.29 217.31 288.29 C211.09 288.3 204.87 288.3 198.65 288.3 C193.59 288.3 188.53 288.3 183.48 288.31 C169.12 288.32 154.77 288.32 140.42 288.32 C139.65 288.32 138.87 288.32 138.08 288.32 C137.3 288.32 136.53 288.32 135.73 288.32 C123.19 288.32 110.65 288.33 98.11 288.34 C85.22 288.36 72.33 288.36 59.45 288.36 C52.21 288.36 44.98 288.36 37.75 288.38 C30.95 288.39 24.15 288.39 17.34 288.38 C14.85 288.38 12.36 288.38 9.86 288.39 C6.45 288.39 3.04 288.39 -0.37 288.38 C-1.35 288.39 -2.33 288.39 -3.34 288.4 C-10.75 288.36 -18.87 288.22 -25.44 284.51 C-27.78 281.89 -29.35 279.16 -31.11 276.14 C-32.74 273.89 -34.38 272.68 -36.69 271.13 C-41.84 267.56 -42.88 263.49 -44.08 257.57 C-44.67 253.38 -44.7 249.31 -44.7 245.09 C-44.7 244.19 -44.7 243.29 -44.7 242.36 C-44.71 239.35 -44.71 236.34 -44.71 233.32 C-44.71 231.16 -44.71 229 -44.72 226.84 C-44.73 220.97 -44.73 215.1 -44.73 209.23 C-44.73 205.56 -44.73 201.89 -44.74 198.22 C-44.74 185.42 -44.75 172.61 -44.75 159.81 C-44.75 147.88 -44.76 135.95 -44.77 124.03 C-44.79 113.78 -44.79 103.53 -44.79 93.29 C-44.79 87.17 -44.79 81.05 -44.8 74.94 C-44.81 69.18 -44.81 63.43 -44.81 57.67 C-44.81 55.56 -44.81 53.45 -44.81 51.34 C-44.82 48.46 -44.82 45.57 -44.81 42.69 C-44.82 41.86 -44.82 41.03 -44.83 40.18 C-44.78 31.99 -44.17 23.48 -38.56 17.13 C-36.61 15.86 -34.6 14.71 -32.57 13.56 C-30.3 11.94 -29.11 10.32 -27.56 8.01 C-24.01 2.88 -19.98 1.85 -14.09 0.61 C-9.38 -0.03 -4.75 -0.01 0 0 Z M43.44 90.13 C43.13 92.13 43.13 92.13 43.18 94.46 C43.18 95.37 43.17 96.28 43.17 97.21 C43.17 98.21 43.17 99.21 43.18 100.24 C43.17 101.29 43.17 102.34 43.17 103.43 C43.16 106.91 43.16 110.4 43.17 113.88 C43.17 116.3 43.17 118.71 43.17 121.12 C43.16 126.19 43.17 131.25 43.18 136.32 C43.19 142.82 43.18 149.32 43.17 155.83 C43.16 160.81 43.16 165.8 43.17 170.79 C43.17 173.18 43.17 175.58 43.16 177.98 C43.16 181.33 43.17 184.68 43.18 188.02 C43.17 189.02 43.17 190.02 43.17 191.05 C43.17 191.96 43.18 192.87 43.18 193.81 C43.18 194.6 43.18 195.39 43.19 196.21 C43.27 198.37 43.27 198.37 45.44 200.13 C48.11 200.44 48.11 200.44 51.28 200.39 C53.15 200.4 53.15 200.4 55.06 200.4 C56.44 200.4 57.83 200.4 59.22 200.39 C60.67 200.4 62.13 200.4 63.58 200.4 C67.54 200.41 71.5 200.41 75.46 200.4 C79.6 200.4 83.73 200.4 87.87 200.41 C94.82 200.41 101.76 200.4 108.71 200.39 C116.75 200.38 124.79 200.39 132.83 200.4 C139.72 200.41 146.62 200.41 153.51 200.4 C157.63 200.4 161.76 200.4 165.88 200.41 C169.75 200.41 173.63 200.41 177.5 200.4 C178.92 200.39 180.35 200.39 181.77 200.4 C183.71 200.4 185.65 200.4 187.59 200.39 C188.68 200.39 189.77 200.39 190.89 200.39 C193.6 200.39 193.6 200.39 195.44 198.13 C195.74 196.13 195.74 196.13 195.69 193.81 C195.7 192.9 195.7 191.99 195.71 191.05 C195.7 190.05 195.7 189.05 195.7 188.02 C195.7 186.97 195.7 185.92 195.71 184.84 C195.72 181.36 195.71 177.87 195.7 174.38 C195.7 171.97 195.71 169.56 195.71 167.14 C195.71 162.08 195.71 157.01 195.7 151.95 C195.69 145.45 195.69 138.94 195.71 132.44 C195.71 127.45 195.71 122.47 195.7 117.48 C195.7 115.08 195.71 112.68 195.71 110.29 C195.71 106.94 195.71 103.59 195.7 100.24 C195.7 98.74 195.7 98.74 195.71 97.21 C195.7 95.85 195.7 95.85 195.69 94.46 C195.69 93.67 195.69 92.88 195.69 92.06 C195.61 89.9 195.61 89.9 193.44 88.13 C190.77 87.83 190.77 87.83 187.59 87.88 C185.72 87.87 185.72 87.87 183.82 87.86 C182.43 87.87 181.04 87.87 179.66 87.87 C178.2 87.87 176.75 87.87 175.29 87.86 C171.33 87.86 167.37 87.86 163.41 87.87 C159.28 87.87 155.14 87.87 151.01 87.86 C144.06 87.86 137.11 87.86 130.16 87.87 C122.12 87.88 114.08 87.88 106.04 87.87 C99.15 87.86 92.26 87.86 85.36 87.86 C81.24 87.87 77.12 87.87 73 87.86 C69.12 87.86 65.25 87.86 61.37 87.87 C59.95 87.87 58.52 87.87 57.1 87.87 C55.16 87.86 53.22 87.87 51.28 87.88 C49.65 87.88 49.65 87.88 47.99 87.88 C45.27 87.88 45.27 87.88 43.44 90.13 Z " fill="#000000" transform="translate(520.5628051757813,275.8662872314453)"/>
</svg>
