<?xml version="1.0" encoding="UTF-8"?>
<!-- Generator: visioncortex VTracer 0.6.3 -->
<svg version="1.1" xmlns="http://www.w3.org/2000/svg" width="1280" height="1280">
<path d="M0 0 C0.91 -0 1.83 -0.01 2.77 -0.01 C5.84 -0.02 8.91 -0.01 11.98 0 C14.2 -0 16.42 -0.01 18.65 -0.01 C24.75 -0.02 30.86 -0.01 36.97 -0 C42.88 0.01 48.79 -0 54.7 -0.01 C67.54 -0.02 80.37 -0.01 93.21 -0 C104.44 0.01 115.68 0.01 126.91 0.01 C128.03 0.01 128.03 0.01 129.17 0.01 C132.2 0.01 135.22 0.01 138.25 0.01 C166.63 0.01 195.01 0.02 223.39 0.04 C248.6 0.06 273.81 0.06 299.02 0.06 C300.64 0.06 302.26 0.06 303.88 0.06 C304.67 0.06 305.47 0.06 306.3 0.06 C310.33 0.06 314.35 0.06 318.38 0.06 C319.57 0.05 319.57 0.05 320.79 0.05 C341.86 0.05 362.92 0.06 383.99 0.06 C386.26 0.07 388.53 0.07 390.8 0.07 C392.3 0.07 393.8 0.07 395.31 0.07 C405.79 0.07 416.27 0.07 426.75 0.07 C440.26 0.07 453.77 0.07 467.29 0.09 C473.8 0.1 480.31 0.1 486.83 0.1 C492.79 0.09 498.76 0.1 504.72 0.11 C506.88 0.11 509.04 0.11 511.19 0.11 C539.55 0.06 539.55 0.06 545.75 5.37 C547.25 7.32 548.67 9.29 550.03 11.34 C551.75 13.58 551.75 13.58 554.71 15.2 C558.27 17.75 559.72 20.42 561.44 24.31 C564.83 32.29 564.83 32.29 570.63 38.44 C573.82 40.9 574.79 43.58 576.19 47.31 C578.14 52.47 578.14 52.47 582.06 56.12 C586.7 59.47 588.42 64.44 590.76 69.49 C592.99 74.16 595.26 77.33 599.22 80.73 C601.73 83.43 602.69 86.68 603.83 90.14 C604.84 92.6 605.78 93.62 607.75 95.37 C612.75 99.85 614.97 104.48 617.62 110.49 C619.29 114.05 620.7 116.58 623.85 119 C627.87 122.29 628.68 125.73 630.28 130.53 C631.58 133.6 631.58 133.6 634.68 135.31 C638.33 137.77 639.72 140.41 641.44 144.31 C644.83 152.29 644.83 152.29 650.63 158.44 C653.82 160.9 654.79 163.58 656.19 167.31 C658.14 172.47 658.14 172.47 662.06 176.12 C666.7 179.47 668.42 184.44 670.76 189.49 C672.99 194.16 675.26 197.33 679.22 200.73 C681.73 203.43 682.69 206.68 683.83 210.14 C684.84 212.6 685.78 213.62 687.75 215.37 C692.75 219.85 694.97 224.48 697.62 230.49 C699.29 234.05 700.7 236.58 703.85 239 C707.87 242.29 708.68 245.73 710.28 250.53 C711.58 253.6 711.58 253.6 714.68 255.31 C718.33 257.77 719.72 260.41 721.44 264.31 C724.83 272.29 724.83 272.29 730.63 278.44 C733.82 280.9 734.79 283.58 736.19 287.31 C738.14 292.47 738.14 292.47 742.06 296.12 C746.7 299.47 748.42 304.44 750.76 309.49 C752.99 314.16 755.26 317.33 759.22 320.73 C761.73 323.43 762.69 326.68 763.83 330.14 C764.84 332.6 765.78 333.62 767.75 335.37 C772.75 339.85 774.97 344.48 777.62 350.49 C779.29 354.05 780.7 356.58 783.85 359 C787.87 362.29 788.68 365.73 790.28 370.53 C791.58 373.6 791.58 373.6 794.68 375.31 C798.33 377.77 799.72 380.41 801.44 384.31 C804.83 392.29 804.83 392.29 810.63 398.44 C813.82 400.9 814.79 403.58 816.19 407.31 C818.14 412.47 818.14 412.47 822.06 416.12 C826.7 419.47 828.42 424.44 830.76 429.49 C832.99 434.16 835.26 437.33 839.22 440.73 C841.73 443.43 842.69 446.68 843.83 450.14 C844.84 452.6 845.78 453.62 847.75 455.37 C852.75 459.85 854.97 464.48 857.62 470.49 C859.29 474.05 860.7 476.58 863.85 479 C867.87 482.29 868.68 485.73 870.28 490.53 C871.58 493.6 871.58 493.6 874.68 495.31 C878.33 497.77 879.72 500.41 881.44 504.31 C884.83 512.29 884.83 512.29 890.63 518.44 C893.82 520.9 894.79 523.58 896.19 527.31 C898.14 532.47 898.14 532.47 902.06 536.12 C906.7 539.47 908.42 544.44 910.76 549.49 C912.99 554.16 915.26 557.33 919.22 560.73 C921.73 563.43 922.69 566.68 923.83 570.14 C924.84 572.6 925.78 573.62 927.75 575.37 C932.75 579.85 934.97 584.48 937.62 590.49 C939.29 594.05 940.7 596.58 943.85 599 C947.87 602.29 948.68 605.73 950.28 610.53 C951.58 613.6 951.58 613.6 954.68 615.31 C958.33 617.77 959.72 620.41 961.44 624.31 C964.83 632.29 964.83 632.29 970.63 638.44 C973.82 640.9 974.79 643.58 976.19 647.31 C978.14 652.47 978.14 652.47 982.06 656.12 C986.7 659.47 988.42 664.44 990.76 669.49 C992.99 674.16 995.26 677.33 999.22 680.73 C1001.73 683.43 1002.69 686.68 1003.83 690.14 C1004.84 692.6 1005.78 693.62 1007.75 695.37 C1012.75 699.85 1014.97 704.48 1017.62 710.49 C1019.28 714.04 1020.69 716.58 1023.83 718.99 C1027.11 721.67 1028.13 723.64 1029.63 727.56 C1030.04 728.61 1030.45 729.65 1030.87 730.73 C1031.75 733.37 1031.75 733.37 1031.75 735.37 C1032.49 735.56 1033.24 735.75 1034 735.94 C1037.77 737.91 1039.22 740.55 1040.75 744.37 C1042.61 751.16 1043.08 757.81 1043 764.81 C1042.99 765.73 1042.99 766.65 1042.98 767.59 C1042.75 782.84 1042.75 782.84 1039.13 789.25 C1036.51 791.59 1033.78 793.16 1030.76 794.92 C1028.51 796.55 1027.29 798.19 1025.75 800.5 C1022.17 805.67 1018.06 806.73 1012.1 807.9 C1008.41 808.42 1004.8 808.52 1001.08 808.51 C1000.33 808.51 999.57 808.52 998.79 808.52 C996.25 808.53 993.72 808.53 991.18 808.53 C989.34 808.53 987.51 808.53 985.67 808.54 C980.63 808.55 975.58 808.56 970.53 808.56 C965.09 808.57 959.65 808.58 954.21 808.59 C944.78 808.61 935.35 808.62 925.92 808.64 C912.29 808.65 898.65 808.68 885.02 808.7 C862.9 808.75 840.78 808.79 818.66 808.82 C817.99 808.82 817.33 808.82 816.65 808.83 C805.91 808.84 795.16 808.86 784.42 808.88 C774.34 808.89 764.27 808.91 754.19 808.93 C753.53 808.93 752.87 808.93 752.19 808.93 C729.48 808.97 706.76 809.01 684.05 809.05 C670.44 809.08 656.84 809.1 643.23 809.12 C633.92 809.13 624.6 809.15 615.29 809.17 C609.91 809.18 604.53 809.19 599.14 809.19 C594.23 809.2 589.31 809.2 584.39 809.22 C582.6 809.22 580.82 809.22 579.03 809.22 C576.62 809.22 574.2 809.23 571.79 809.24 C571.08 809.24 570.38 809.24 569.65 809.23 C566.42 808.98 566.42 808.98 563.75 810.37 C563.65 812.49 563.62 814.6 563.62 816.71 C563.62 817.38 563.62 818.04 563.62 818.72 C563.61 820.92 563.62 823.11 563.62 825.31 C563.62 826.83 563.62 828.35 563.62 829.87 C563.61 833.07 563.62 836.26 563.62 839.45 C563.63 843.55 563.62 847.65 563.62 851.75 C563.61 854.89 563.62 858.03 563.62 861.17 C563.62 862.68 563.62 864.19 563.62 865.71 C563.61 867.82 563.62 869.93 563.62 872.03 C563.62 873.24 563.62 874.44 563.62 875.68 C563.44 878.29 563.44 878.29 564.75 879.37 C567.24 879.47 569.71 879.51 572.2 879.5 C572.99 879.5 573.78 879.51 574.6 879.51 C577.29 879.51 579.98 879.51 582.67 879.51 C584.61 879.51 586.55 879.51 588.48 879.51 C592.71 879.52 596.93 879.52 601.16 879.52 C608.03 879.52 614.9 879.52 621.78 879.53 C631.76 879.54 641.74 879.54 651.72 879.54 C667.48 879.55 683.25 879.57 699.02 879.58 C701.7 879.59 704.38 879.59 707.07 879.59 C708.07 879.6 708.07 879.6 709.09 879.6 C710.44 879.6 711.8 879.6 713.15 879.6 C714.51 879.6 715.86 879.6 717.22 879.61 C733.25 879.62 749.28 879.64 765.3 879.66 C766 879.66 766.71 879.66 767.43 879.66 C790.18 879.68 812.92 879.69 835.67 879.7 C859.71 879.71 883.75 879.73 907.78 879.77 C922.18 879.79 936.59 879.8 950.99 879.8 C960.86 879.79 970.72 879.8 980.59 879.83 C986.29 879.84 991.99 879.85 997.68 879.83 C1002.9 879.82 1008.11 879.83 1013.32 879.85 C1015.21 879.86 1017.1 879.86 1018.99 879.85 C1021.55 879.84 1024.11 879.85 1026.68 879.87 C1027.41 879.86 1028.15 879.85 1028.91 879.84 C1033.97 879.92 1036.84 881.22 1040.75 884.37 C1043.32 887.79 1043 891.28 1042.99 895.44 C1043 896.5 1043 896.5 1043 897.58 C1043 899.91 1042.99 902.24 1042.98 904.57 C1042.98 906.21 1042.98 907.84 1042.98 909.48 C1042.98 912.91 1042.97 916.35 1042.96 919.79 C1042.94 924.14 1042.94 928.49 1042.94 932.85 C1042.94 936.23 1042.93 939.62 1042.92 943 C1042.92 944.61 1042.92 946.21 1042.92 947.81 C1042.91 956.05 1042.78 964.27 1042.32 972.5 C1042.28 973.17 1042.25 973.84 1042.21 974.54 C1041.6 984.27 1040.38 994.05 1034.94 1002.35 C1031.15 1008.84 1030.58 1016.67 1029.43 1023.97 C1028.08 1031.9 1026.18 1039.45 1021.17 1045.9 C1018.11 1049.89 1017.2 1054.15 1016.13 1059 C1013.68 1069.68 1013.68 1069.68 1010.75 1073.37 C1009.92 1073.82 1009.08 1074.27 1008.22 1074.73 C1004.78 1077.02 1004.21 1079.88 1003.19 1083.69 C1001.75 1088.84 1000.13 1093.14 996.75 1097.37 C995.91 1097.84 995.07 1098.3 994.2 1098.78 C990.71 1101.05 989.91 1104.16 988.63 1107.94 C986.12 1115.13 986.12 1115.13 982.75 1117.37 C983.73 1118.05 984.7 1118.73 985.71 1119.42 C986.99 1120.32 988.28 1121.22 989.56 1122.12 C990.21 1122.57 990.85 1123.01 991.51 1123.47 C996.42 1126.93 996.42 1126.93 998.39 1129.58 C1000.23 1132 1001.88 1132.42 1004.75 1133.37 C1007.53 1133.78 1007.53 1133.78 1010.46 1133.9 C1012.08 1134.01 1012.08 1134.01 1013.74 1134.11 C1015.99 1134.25 1018.24 1134.37 1020.49 1134.5 C1026.55 1134.9 1031.42 1135.38 1036.75 1138.37 C1043.77 1146.53 1043.06 1156.65 1043.05 1166.8 C1043.06 1168.2 1043.06 1169.6 1043.07 1171 C1043.07 1173.93 1043.07 1176.85 1043.07 1179.77 C1043.06 1183.49 1043.08 1187.21 1043.1 1190.93 C1043.12 1193.82 1043.12 1196.71 1043.11 1199.6 C1043.11 1200.97 1043.12 1202.34 1043.13 1203.71 C1043.19 1212.94 1042.98 1221.58 1037.69 1229.44 C1034.49 1232.64 1032.31 1232.56 1027.88 1232.62 C1019.28 1232.54 1011.86 1231.11 1004.34 1226.92 C997.75 1223.55 990.81 1222.79 983.56 1221.81 C965.09 1219.3 965.09 1219.3 959.63 1212.87 C956.43 1210.1 954.29 1209.5 950.25 1208.37 C945.07 1206.93 942.19 1205.67 938.75 1201.37 C934.21 1197.39 929.21 1194.98 923.81 1192.35 C920.34 1190.11 918.94 1187.82 916.75 1184.37 C915 1183.17 915 1183.17 913.06 1182.69 C912.36 1182.46 911.66 1182.24 910.94 1182.01 C910.22 1181.8 909.5 1181.59 908.75 1181.37 C900.85 1178.86 893.2 1175.84 885.64 1172.42 C874.12 1167.22 854.65 1167.25 842.75 1171.37 C840.78 1172.75 839.15 1174.23 837.44 1175.92 C833.73 1179.11 828.68 1179.98 823.98 1180.94 C817.5 1182.36 814.85 1183.94 810.9 1189.19 C807.56 1192.59 803.46 1194.42 799.17 1196.41 C795.61 1198.12 793.83 1199.28 791.27 1202.44 C788.14 1206.08 785.57 1206.97 781.06 1208.25 C780.05 1208.57 780.05 1208.57 779.02 1208.89 C774.17 1210.37 774.17 1210.37 771.75 1210.37 C771.52 1210.95 771.3 1211.53 771.06 1212.12 C768.25 1216.94 764.67 1218.59 759.44 1220 C753.15 1221.45 746.84 1222.14 740.42 1222.75 C735.39 1223.61 731.88 1225.62 727.69 1228.44 C718.21 1233.82 705.23 1232.72 694.62 1232.69 C692.19 1232.69 689.76 1232.71 687.32 1232.74 C676.73 1232.78 666.64 1232.51 657.34 1226.82 C651.72 1223.43 645.74 1223.03 639.31 1222.31 C618.7 1219.92 618.7 1219.92 613.63 1213.81 C613.01 1213.01 612.39 1212.2 611.75 1211.37 C608.56 1209.75 605.13 1208.78 601.7 1207.77 C597.8 1206.52 595.43 1205.27 592.69 1202.19 C588.85 1197.96 584.19 1195.77 579.08 1193.39 C574.47 1191.15 572.45 1188.87 569.75 1184.37 C566.71 1182.35 564.84 1181.82 561.31 1181.06 C554.26 1179.37 546.52 1177.27 540.69 1172.79 C531.4 1165.99 511.64 1168.66 500.81 1170.06 C496 1171.01 494.06 1172.71 490.75 1176.37 C484.68 1179.6 478.25 1181.05 471.51 1182.18 C468.53 1183.47 468.08 1184.08 466.38 1186.7 C463.64 1190.92 460.38 1192.67 455.94 1194.87 C451.34 1197.29 447.23 1199.5 443.5 1203.19 C439.7 1206.86 435.64 1207.83 430.64 1209.28 C426.88 1210.7 424.58 1212.78 421.86 1215.69 C414.69 1221.42 404.61 1221.58 395.86 1222.66 C389.15 1223.48 389.15 1223.48 383.47 1226.82 C374.53 1234.13 358.3 1232.85 347.4 1232.77 C344.99 1232.75 342.58 1232.77 340.18 1232.78 C329.65 1232.8 319.57 1232.48 310.35 1226.82 C304.7 1223.42 298.69 1223.03 292.25 1222.31 C274.44 1220.26 274.44 1220.26 267.19 1214.25 C265.75 1212.37 265.75 1212.37 265.75 1210.37 C265.05 1210.24 264.35 1210.11 263.62 1209.98 C255.75 1208.33 249.35 1206.94 244.57 1200.23 C242.05 1197.66 239.04 1196.4 235.81 1194.94 C231.45 1192.96 228.2 1191.24 225.38 1187.25 C221.11 1181.62 214.17 1180.65 207.67 1178.91 C205.05 1178.18 202.53 1177.25 200 1176.25 C199.26 1175.96 198.53 1175.67 197.77 1175.37 C195.75 1174.37 195.75 1174.37 193.74 1172.83 C184.51 1166.06 165.67 1168.67 154.94 1170 C150.26 1170.91 147.78 1172.6 144.45 1175.92 C140.08 1179.67 133.95 1180.36 128.44 1181.31 C123.09 1182.32 121.16 1184.32 118.12 1188.76 C114.72 1192.51 110.75 1194.18 106.24 1196.34 C102 1198.45 99.57 1200.45 96.75 1204.37 C92.92 1206.77 88.92 1207.94 84.63 1209.25 C79.67 1210.84 77.88 1212.21 74.75 1216.37 C66.65 1220.8 57.77 1221.63 48.77 1222.71 C42.87 1223.52 38.96 1224.41 34.35 1228.22 C27.63 1233.08 14.5 1232.72 6.52 1232.87 C2.96 1232.23 1.32 1230.88 -1.25 1228.37 C-4.37 1222.24 -5.37 1216.91 -5.41 1210.09 C-5.42 1208.84 -5.43 1207.59 -5.44 1206.31 C-5.44 1204.95 -5.45 1203.59 -5.45 1202.24 C-5.45 1201.55 -5.46 1200.86 -5.46 1200.15 C-5.48 1196.5 -5.48 1192.85 -5.49 1189.2 C-5.49 1185.46 -5.52 1181.71 -5.55 1177.97 C-5.57 1175.07 -5.57 1172.17 -5.57 1169.27 C-5.57 1167.89 -5.58 1166.51 -5.6 1165.13 C-5.68 1155.84 -5.26 1147.54 -0.5 1139.37 C4.85 1134.62 12.64 1134.92 19.44 1134.44 C33.15 1134.1 33.15 1134.1 44.85 1128.32 C46.7 1125.98 46.7 1125.98 48.28 1123.54 C50.06 1120.92 52.16 1119.18 54.75 1117.37 C53.99 1116.57 53.23 1115.77 52.44 1114.94 C50.23 1112.32 49.16 1110.02 48.19 1106.75 C47.05 1102.94 45.88 1100.95 42.75 1098.37 C37.34 1093.76 35.7 1088.99 34.3 1082.19 C33.24 1077.06 31.6 1074.85 27.75 1071.37 C23.5 1065.92 22.26 1060.51 20.77 1053.92 C19.46 1048.66 17.9 1046.07 13.75 1042.37 C10.54 1038.12 9.93 1033.96 9.19 1028.81 C9 1027.61 9 1027.61 8.8 1026.39 C8.25 1022.88 7.75 1019.38 7.36 1015.84 C6.58 1009.3 5.1 1005.61 0.41 1000.9 C-10.8 983.83 -5.62 948.54 -5.62 928.48 C-5.62 924.33 -5.65 920.17 -5.68 916.02 C-5.7 912.78 -5.71 909.54 -5.71 906.3 C-5.71 904.77 -5.72 903.24 -5.73 901.7 C-5.75 899.58 -5.75 897.45 -5.73 895.33 C-5.74 894.13 -5.74 892.92 -5.74 891.69 C-5.14 887.64 -3.84 885.51 -1.25 882.37 C2.41 879.82 6.29 880.09 10.58 880.12 C11.38 880.11 12.18 880.11 13 880.1 C15.69 880.09 18.38 880.1 21.07 880.1 C23.01 880.1 24.95 880.09 26.89 880.09 C32.24 880.07 37.59 880.07 42.94 880.07 C48.7 880.07 54.46 880.06 60.22 880.05 C70.21 880.03 80.2 880.02 90.19 880.01 C104.63 880 119.07 879.98 133.51 879.95 C156.94 879.91 180.37 879.88 203.8 879.85 C205.22 879.85 206.64 879.85 208.06 879.85 C208.76 879.85 209.46 879.85 210.18 879.84 C213.74 879.84 217.29 879.84 220.84 879.83 C221.55 879.83 222.25 879.83 222.98 879.83 C239.35 879.81 255.72 879.79 272.09 879.77 C272.79 879.77 273.49 879.77 274.22 879.76 C290.22 879.74 306.22 879.72 322.23 879.7 C322.9 879.69 323.57 879.69 324.26 879.69 C331.63 879.68 339 879.67 346.37 879.66 C360.79 879.63 375.2 879.61 389.62 879.6 C399.48 879.59 409.35 879.58 419.22 879.56 C424.92 879.55 430.62 879.55 436.32 879.54 C441.53 879.54 446.74 879.53 451.95 879.52 C453.84 879.52 455.74 879.52 457.63 879.52 C460.19 879.52 462.74 879.52 465.3 879.51 C466.42 879.51 466.42 879.51 467.57 879.51 C470.95 879.8 470.95 879.8 473.75 878.37 C473.85 875.47 473.89 872.6 473.88 869.7 C473.88 868.77 473.88 867.84 473.88 866.89 C473.89 863.75 473.88 860.6 473.88 857.46 C473.88 855.2 473.88 852.94 473.88 850.68 C473.89 844.43 473.89 838.19 473.88 831.94 C473.88 825.91 473.88 819.88 473.89 813.85 C473.89 800.74 473.89 787.64 473.89 774.53 C473.88 763.06 473.88 751.59 473.89 740.12 C473.89 739.36 473.89 738.6 473.89 737.82 C473.89 734.74 473.89 731.66 473.89 728.57 C473.89 699.63 473.89 670.69 473.88 641.74 C473.88 616 473.88 590.26 473.88 564.53 C473.89 535.64 473.89 506.75 473.89 477.86 C473.89 474.78 473.89 471.7 473.89 468.63 C473.89 467.87 473.89 467.11 473.89 466.33 C473.88 454.87 473.89 443.4 473.89 431.94 C473.89 418.91 473.89 405.88 473.88 392.85 C473.88 386.19 473.88 379.54 473.88 372.88 C473.89 366.8 473.89 360.72 473.88 354.64 C473.88 352.43 473.88 350.22 473.88 348.01 C473.89 345.02 473.88 342.04 473.88 339.05 C473.88 338.18 473.88 337.3 473.88 336.4 C474.25 332.58 474.25 332.58 472.75 329.37 C470.2 329.27 467.67 329.24 465.12 329.24 C464.3 329.24 463.49 329.24 462.65 329.24 C459.89 329.23 457.13 329.24 454.37 329.24 C452.39 329.23 450.4 329.23 448.42 329.23 C442.94 329.22 437.46 329.22 431.97 329.22 C426.07 329.22 420.17 329.21 414.27 329.2 C404.03 329.19 393.8 329.18 383.56 329.18 C368.08 329.17 352.59 329.15 337.11 329.13 C330.89 329.12 324.68 329.11 318.47 329.1 C317.78 329.1 317.09 329.1 316.38 329.1 C299.95 329.08 283.51 329.06 267.07 329.04 C265.99 329.04 265.99 329.04 264.89 329.03 C248.11 329.02 231.33 329 214.54 328.99 C213.82 328.99 213.1 328.98 212.36 328.98 C206.54 328.98 200.72 328.98 194.91 328.97 C170.93 328.95 146.96 328.93 122.99 328.89 C119.6 328.88 116.22 328.88 112.83 328.87 C112.17 328.87 111.5 328.87 110.82 328.87 C100.75 328.85 90.68 328.85 80.62 328.85 C69.17 328.85 57.73 328.83 46.28 328.81 C40.44 328.8 34.59 328.79 28.75 328.8 C23.4 328.8 18.06 328.79 12.71 328.77 C10.77 328.77 8.83 328.77 6.9 328.78 C4.27 328.78 1.64 328.77 -0.99 328.76 C-2.12 328.77 -2.12 328.77 -3.28 328.78 C-8.01 328.72 -11.22 327.85 -15.25 325.37 C-18.8 321.59 -18.69 317.57 -18.54 312.62 C-17.71 303.38 -16.8 293.5 -9.62 286.87 C-5.59 282.48 -5.6 275.29 -4.87 269.62 C-2.35 251.47 -2.35 251.47 3.75 246.37 C4.41 246.37 5.07 246.37 5.75 246.37 C6.95 241.08 7.85 235.81 8.45 230.4 C10.41 213.01 10.41 213.01 17.35 206.18 C21.77 200.5 21.69 192.15 22.52 185.25 C23.27 179.51 24.64 174.75 26.75 169.37 C27.45 166.27 27.45 166.27 27.69 163.31 C27.8 162.35 27.91 161.39 28.03 160.4 C27.72 157.06 26.55 155.33 24.8 152.54 C22.05 146.87 21.69 140.05 20.69 133.89 C19.58 127.53 18.41 122.72 14.75 117.37 C9.86 109.97 8.43 101.95 7.11 93.26 C5.58 83.49 5.58 83.49 0.25 75.29 C-3.89 70 -4.62 62.73 -5.58 56.27 C-6.84 47.76 -7.98 41.25 -13.64 34.51 C-18.63 27.9 -19.41 17.43 -19.25 9.37 C-18.25 5.81 -18.25 5.81 -16.25 3.37 C-10.71 0.41 -6.22 -0.05 0 0 Z M102.75 90.37 C103.04 91.05 103.33 91.72 103.63 92.42 C104.91 95.79 105.83 99.19 106.69 102.69 C106.86 103.38 107.04 104.07 107.22 104.79 C108.11 108.41 108.89 112.01 109.47 115.7 C110.57 122.71 111.52 128.11 116.33 133.62 C124.38 143.55 123.02 160.78 122.06 172.69 C121.99 173.68 121.91 174.67 121.83 175.69 C120.97 184.79 119.67 194.12 113.75 201.37 C112.76 201.87 112.76 201.87 111.75 202.37 C108.88 208.7 108.27 215.63 107.53 222.45 C106.89 228.01 105.64 233.13 103.75 238.37 C108.41 239.86 112.33 240.62 117.26 240.63 C119.17 240.63 119.17 240.63 121.12 240.64 C122.52 240.64 123.92 240.63 125.32 240.63 C126.82 240.63 128.32 240.63 129.82 240.64 C133.92 240.65 138.03 240.64 142.14 240.64 C146.57 240.63 151 240.64 155.44 240.64 C164.12 240.65 172.8 240.65 181.48 240.65 C188.53 240.64 195.58 240.64 202.63 240.64 C204.13 240.64 204.13 240.64 205.67 240.64 C207.71 240.64 209.74 240.64 211.78 240.65 C230.89 240.65 249.99 240.64 269.1 240.63 C285.51 240.62 301.91 240.63 318.32 240.64 C337.37 240.65 356.41 240.65 375.46 240.64 C377.49 240.64 379.52 240.64 381.54 240.64 C383.04 240.64 383.04 240.64 384.57 240.64 C391.62 240.64 398.67 240.64 405.71 240.65 C414.29 240.65 422.87 240.65 431.45 240.64 C435.84 240.64 440.22 240.63 444.6 240.64 C448.6 240.65 452.61 240.64 456.61 240.63 C458.07 240.63 459.52 240.63 460.97 240.64 C462.94 240.64 464.91 240.63 466.87 240.63 C467.97 240.63 469.06 240.63 470.19 240.63 C472.92 240.63 472.92 240.63 474.75 238.37 C475.06 235.7 475.06 235.7 475.01 232.53 C475.01 231.28 475.02 230.04 475.02 228.76 C475.02 227.37 475.01 225.98 475.01 224.59 C475.01 223.14 475.02 221.68 475.02 220.23 C475.03 216.27 475.03 212.31 475.02 208.35 C475.02 204.22 475.02 200.08 475.02 195.94 C475.03 189 475.02 182.05 475.01 175.1 C475 167.06 475.01 159.02 475.02 150.98 C475.03 144.09 475.03 137.19 475.02 130.3 C475.02 126.18 475.02 122.06 475.02 117.93 C475.03 114.06 475.03 110.19 475.01 106.31 C475.01 104.89 475.01 103.46 475.02 102.04 C475.02 100.1 475.01 98.16 475.01 96.22 C475 95.13 475 94.05 475 92.93 C475.01 90.21 475.01 90.21 472.75 88.37 C470.06 88.07 470.06 88.07 466.86 88.12 C465.59 88.12 464.33 88.11 463.03 88.11 C461.61 88.11 460.19 88.12 458.78 88.12 C457.28 88.12 455.79 88.12 454.3 88.11 C450.17 88.1 446.05 88.11 441.93 88.11 C437.49 88.12 433.06 88.11 428.62 88.11 C419.92 88.1 411.21 88.1 402.51 88.1 C395.44 88.11 388.37 88.11 381.29 88.11 C380.29 88.11 379.28 88.11 378.25 88.11 C376.2 88.11 374.16 88.1 372.12 88.1 C352.95 88.1 333.78 88.11 314.61 88.12 C298.16 88.12 281.71 88.12 265.26 88.11 C246.17 88.1 227.08 88.1 207.99 88.11 C205.95 88.11 203.92 88.11 201.88 88.11 C200.38 88.11 200.38 88.11 198.84 88.11 C191.78 88.11 184.72 88.11 177.66 88.1 C169.05 88.1 160.44 88.1 151.83 88.11 C147.43 88.11 143.04 88.12 138.65 88.11 C134.62 88.1 130.6 88.11 126.58 88.12 C125.12 88.12 123.67 88.12 122.21 88.11 C120.23 88.11 118.26 88.11 116.28 88.12 C115.18 88.12 114.08 88.12 112.95 88.12 C109.28 88.41 106.25 89.26 102.75 90.37 Z M564.75 194.37 C563.16 200.51 562.46 206.19 562.5 212.52 C562.5 213.4 562.49 214.28 562.49 215.18 C562.48 218.12 562.49 221.06 562.5 223.99 C562.5 226.13 562.49 228.26 562.49 230.39 C562.48 236.23 562.48 242.08 562.49 247.93 C562.49 254.24 562.49 260.55 562.48 266.86 C562.47 278.5 562.47 290.14 562.48 301.78 C562.49 312.53 562.49 323.28 562.48 334.02 C562.48 334.74 562.48 335.45 562.48 336.19 C562.48 339.08 562.48 341.97 562.48 344.87 C562.48 372.01 562.48 399.16 562.49 426.3 C562.5 450.43 562.5 474.56 562.49 498.69 C562.48 525.79 562.48 552.9 562.48 580 C562.48 582.89 562.48 585.77 562.48 588.66 C562.48 589.37 562.48 590.08 562.48 590.82 C562.49 601.56 562.48 612.31 562.48 623.06 C562.47 635.28 562.47 647.49 562.49 659.7 C562.49 665.94 562.49 672.17 562.49 678.41 C562.48 684.11 562.48 689.81 562.49 695.51 C562.5 697.58 562.5 699.65 562.49 701.72 C562.48 704.52 562.49 707.31 562.5 710.11 C562.5 710.93 562.49 711.75 562.49 712.59 C562.34 716.95 562.34 716.95 564.75 720.37 C567.3 720.68 567.3 720.68 570.32 720.63 C571.51 720.63 572.7 720.64 573.93 720.64 C575.26 720.64 576.6 720.63 577.93 720.63 C579.34 720.63 580.74 720.63 582.15 720.64 C586.03 720.65 589.91 720.64 593.79 720.64 C597.98 720.63 602.16 720.64 606.34 720.64 C614.53 720.65 622.73 720.65 630.93 720.65 C637.59 720.64 644.25 720.64 650.92 720.64 C652.34 720.64 652.34 720.64 653.78 720.64 C655.71 720.64 657.63 720.64 659.55 720.65 C677.61 720.65 695.67 720.64 713.73 720.63 C729.22 720.62 744.72 720.63 760.22 720.64 C778.2 720.65 796.18 720.65 814.17 720.64 C816.08 720.64 818 720.64 819.92 720.64 C821.33 720.64 821.33 720.64 822.78 720.64 C829.43 720.64 836.08 720.64 842.74 720.65 C850.85 720.65 858.96 720.65 867.07 720.64 C871.2 720.64 875.34 720.63 879.48 720.64 C883.27 720.65 887.06 720.64 890.85 720.63 C892.87 720.63 894.89 720.64 896.91 720.64 C902.9 720.62 908.11 720.48 913.75 718.37 C913.1 715.95 913.1 715.95 911.75 713.37 C910.98 713 910.21 712.62 909.41 712.23 C905.07 709.21 903.89 704.59 901.97 699.8 C899.83 694.82 897.59 692.11 893.33 688.79 C890.94 686.64 890.13 684.25 889.13 681.25 C887.52 676.5 885.98 674.16 881.75 671.37 C881.09 671.37 880.43 671.37 879.75 671.37 C879.48 670.68 879.2 669.99 878.92 669.28 C874.61 657.75 874.61 657.75 866.4 649.03 C864.13 646.75 863.37 644.37 862.25 641.37 C860.8 637.49 859.87 635.01 856.44 632.62 C851.8 629.27 850.09 624.31 847.74 619.26 C845.51 614.59 843.24 611.42 839.28 608.02 C836.77 605.32 835.86 602.03 834.65 598.61 C833.53 595.81 832.08 594.26 829.75 592.37 C825.2 588.49 823.31 583.65 820.93 578.31 C819.25 574.73 817.82 572.17 814.65 569.75 C811.38 567.07 810.54 565.26 809.19 561.31 C807.55 556.56 806 554.17 801.75 551.37 C801.09 551.37 800.43 551.37 799.75 551.37 C799.48 550.68 799.2 549.99 798.92 549.28 C794.61 537.75 794.61 537.75 786.4 529.03 C784.13 526.75 783.37 524.37 782.25 521.37 C780.8 517.49 779.87 515.01 776.44 512.62 C771.8 509.27 770.09 504.31 767.74 499.26 C765.51 494.59 763.24 491.42 759.28 488.02 C756.77 485.32 755.86 482.03 754.65 478.61 C753.53 475.81 752.08 474.26 749.75 472.37 C745.2 468.49 743.31 463.65 740.93 458.31 C739.25 454.73 737.82 452.17 734.65 449.75 C731.38 447.07 730.54 445.26 729.19 441.31 C727.55 436.56 726 434.17 721.75 431.37 C721.09 431.37 720.43 431.37 719.75 431.37 C719.48 430.68 719.2 429.99 718.92 429.28 C714.61 417.75 714.61 417.75 706.4 409.03 C704.13 406.75 703.37 404.37 702.25 401.37 C700.8 397.49 699.87 395.01 696.44 392.62 C691.8 389.27 690.09 384.31 687.74 379.26 C685.51 374.59 683.24 371.42 679.28 368.02 C676.77 365.32 675.86 362.03 674.65 358.61 C673.53 355.81 672.08 354.26 669.75 352.37 C665.2 348.49 663.31 343.65 660.93 338.31 C659.25 334.73 657.82 332.17 654.65 329.75 C651.38 327.07 650.54 325.26 649.19 321.31 C647.55 316.56 646 314.17 641.75 311.37 C641.09 311.37 640.43 311.37 639.75 311.37 C639.48 310.68 639.2 309.99 638.92 309.28 C634.61 297.75 634.61 297.75 626.4 289.03 C624.13 286.75 623.37 284.37 622.25 281.37 C620.8 277.49 619.87 275.01 616.44 272.62 C611.8 269.27 610.09 264.31 607.74 259.26 C605.51 254.59 603.24 251.42 599.28 248.02 C596.77 245.32 595.86 242.03 594.65 238.61 C593.53 235.81 592.08 234.26 589.75 232.37 C585.2 228.49 583.31 223.65 580.93 218.31 C579.25 214.74 577.82 212.18 574.67 209.76 C571.36 207.05 570.43 205.1 569 201.12 C567.8 196.95 567.8 196.95 564.75 194.37 Z M91.75 970.37 C92.25 974.34 92.77 978.31 93.3 982.27 C93.56 984.27 93.81 986.27 94.07 988.28 C95.88 1002.19 95.88 1002.19 103.35 1013.57 C105.86 1016.8 106.59 1020.51 107.5 1024.44 C107.89 1025.99 108.28 1027.54 108.67 1029.1 C108.86 1029.83 109.04 1030.56 109.23 1031.31 C109.93 1034.08 110.66 1036.73 111.75 1039.37 C112.7 1039.81 113.65 1040.24 114.63 1040.69 C118.66 1042.87 119.19 1044.96 120.83 1049.09 C122.51 1053.25 124.57 1056.5 128.18 1059.17 C131.1 1061.68 132.31 1063.85 133.94 1067.31 C134.43 1068.33 134.92 1069.35 135.42 1070.4 C136.75 1073.37 136.75 1073.37 137.3 1076.13 C138.51 1078.52 138.51 1078.52 140.67 1079.02 C147.28 1080.3 153.65 1080.68 160.36 1080.72 C161.46 1080.73 162.55 1080.75 163.67 1080.76 C167.13 1080.81 170.6 1080.84 174.06 1080.87 C199.91 1081.11 199.91 1081.11 212.36 1082.16 C213.18 1082.22 214 1082.28 214.85 1082.34 C221.43 1082.97 228.1 1084.67 232.84 1089.5 C235.59 1092.19 238.73 1092.62 242.38 1093.37 C259.61 1097.34 259.61 1097.34 264.07 1103.8 C267.44 1106.96 272.3 1108.28 276.57 1109.88 C279.8 1111.4 281.03 1112.32 282.75 1115.37 C283.08 1116.36 283.41 1117.35 283.75 1118.37 C286.53 1119.64 286.53 1119.64 289.88 1120.69 C296.34 1123.03 300.62 1125.81 305.12 1130.93 C308.55 1133.97 312.59 1134.64 317.04 1135.01 C318.05 1135.09 319.07 1135.18 320.11 1135.26 C321.19 1135.34 322.27 1135.42 323.38 1135.5 C324.5 1135.58 325.61 1135.67 326.77 1135.75 C340.41 1136.71 353.75 1136.68 367.38 1135.56 C368.28 1135.49 369.18 1135.42 370.11 1135.35 C376.66 1134.74 383.58 1133.88 388.88 1129.69 C389.59 1128.82 389.59 1128.82 390.31 1127.94 C394.35 1123.5 398.88 1121.27 404.56 1119.5 C407.69 1117.89 408.23 1115.48 409.75 1112.37 C412.09 1110.53 414.38 1109.51 417.16 1108.48 C422.57 1106.48 425.23 1105.07 428.75 1100.37 C434.91 1096.39 441.8 1094.93 448.86 1093.4 C454.46 1092.06 457.54 1090.3 461.75 1086.37 C476.51 1079 495.9 1081.06 511.87 1081.11 C515.24 1081.13 518.62 1081.12 522 1081.11 C567.9 1080.97 567.9 1080.97 577.75 1087.37 C578.35 1088.03 578.94 1088.68 579.55 1089.35 C582 1091.61 583.57 1092.19 586.78 1092.97 C587.74 1093.22 588.69 1093.46 589.68 1093.71 C591.17 1094.07 591.17 1094.07 592.69 1094.44 C606.87 1097.92 606.87 1097.92 610.69 1102.9 C613.16 1105.87 615.14 1106.64 618.75 1107.94 C624.19 1109.9 627.37 1111.83 630.17 1117 C632.16 1120 633.59 1120.38 637 1121.37 C643.1 1123.37 647.36 1125.91 651.88 1130.56 C655.27 1133.84 659.19 1134.61 663.79 1135.01 C665.23 1135.13 665.23 1135.13 666.71 1135.26 C668.25 1135.38 668.25 1135.38 669.81 1135.5 C670.88 1135.58 671.95 1135.67 673.05 1135.75 C686.93 1136.76 700.57 1136.7 714.44 1135.56 C715.34 1135.49 716.23 1135.42 717.16 1135.35 C722.77 1134.82 728.76 1134.16 733.75 1131.37 C734.91 1129.38 734.91 1129.38 735.75 1127.37 C737.5 1126.37 737.5 1126.37 739.75 1125.37 C741.11 1124.42 741.11 1124.42 742.5 1123.44 C745.19 1121.73 746.99 1120.91 749.94 1120 C754.23 1118.52 754.78 1116.41 756.75 1112.37 C759.25 1110.67 761.97 1109.55 764.75 1108.37 C770.35 1106.01 770.35 1106.01 774.63 1101.87 C779.12 1096.58 786.28 1095.45 792.81 1093.98 C798.99 1092.59 803.5 1091.41 808 1086.77 C817.18 1079.47 835.21 1081.22 846.23 1081.09 C847.48 1081.08 848.74 1081.06 850.03 1081.04 C854.67 1080.97 859.31 1080.91 863.96 1080.85 C868.53 1080.79 873.1 1080.72 877.67 1080.66 C879.46 1080.64 879.46 1080.64 881.28 1080.61 C890.07 1080.53 890.07 1080.53 898.75 1079.37 C900.37 1076.79 900.37 1076.79 900.99 1074.67 C903.48 1067.14 906.68 1060.69 913.07 1055.95 C916.38 1052.85 918.13 1048.54 919.75 1044.37 C919.75 1043.71 919.75 1043.05 919.75 1042.37 C920.54 1042.09 921.32 1041.8 922.13 1041.5 C924.85 1040.53 924.85 1040.53 926.75 1038.37 C927.42 1036.34 927.42 1036.34 927.9 1033.98 C928.1 1033.11 928.3 1032.23 928.51 1031.33 C928.92 1029.5 929.32 1027.66 929.72 1025.83 C931.17 1019.58 932.92 1015.79 937.9 1011.54 C940.46 1008.54 940.79 1005.47 941.31 1001.69 C941.55 1000.17 941.79 998.65 942.03 997.13 C942.15 996.35 942.26 995.57 942.38 994.76 C942.98 990.87 943.68 987 944.38 983.12 C944.5 982.42 944.62 981.72 944.75 981 C945.37 977.45 946.03 973.91 946.75 970.37 C942.55 968.79 939.09 968.12 934.61 968.12 C933.39 968.12 932.17 968.11 930.91 968.11 C929.56 968.11 928.21 968.12 926.86 968.12 C925.42 968.12 923.98 968.12 922.54 968.11 C918.56 968.11 914.58 968.11 910.6 968.12 C906.28 968.12 901.96 968.12 897.63 968.11 C890.05 968.1 882.47 968.1 874.89 968.11 C863.62 968.12 852.34 968.11 841.07 968.11 C820.94 968.1 800.81 968.1 780.68 968.1 C763.06 968.11 745.44 968.11 727.83 968.11 C726.66 968.11 725.49 968.11 724.29 968.11 C719.55 968.11 714.81 968.11 710.07 968.1 C665.6 968.1 621.12 968.1 576.65 968.11 C537.11 968.12 497.58 968.12 458.04 968.11 C413.65 968.1 369.26 968.1 324.87 968.11 C320.14 968.11 315.41 968.11 310.68 968.11 C309.51 968.11 308.35 968.11 307.15 968.11 C289.54 968.11 271.93 968.11 254.32 968.1 C234.31 968.1 214.29 968.1 194.27 968.11 C183.06 968.11 171.85 968.11 160.64 968.11 C153.17 968.1 145.69 968.11 138.21 968.11 C133.94 968.12 129.67 968.12 125.4 968.11 C121.53 968.11 117.65 968.11 113.77 968.12 C112.37 968.12 110.97 968.12 109.58 968.12 C107.68 968.11 105.79 968.12 103.9 968.12 C102.85 968.12 101.8 968.12 100.71 968.12 C97.47 968.4 94.79 969.23 91.75 970.37 Z " fill="#000000" transform="translate(121.24837112426758,35.62526988983154)"/>
</svg>
