<?xml version="1.0" encoding="UTF-8"?>
<!-- Generator: visioncortex VTracer 0.6.3 -->
<svg version="1.1" xmlns="http://www.w3.org/2000/svg" width="1280" height="1266">
<path d="M0 0 C1.82 -0 3.64 -0 5.45 -0.01 C10.46 -0.01 15.46 -0.01 20.47 -0.01 C25.91 -0 31.35 -0.01 36.79 -0.01 C46.33 -0.02 55.87 -0.02 65.41 -0.02 C79.6 -0.02 93.79 -0.02 107.97 -0.03 C134.78 -0.04 161.6 -0.04 188.41 -0.04 C191.36 -0.04 194.32 -0.04 197.28 -0.04 C198.38 -0.04 198.38 -0.04 199.5 -0.04 C215.76 -0.04 232.02 -0.04 248.29 -0.04 C254.98 -0.04 261.68 -0.05 268.37 -0.05 C269.11 -0.05 269.85 -0.05 270.62 -0.05 C313.01 -0.05 355.41 -0.06 397.81 -0.06 C399.4 -0.06 400.98 -0.06 402.57 -0.06 C409.74 -0.06 416.9 -0.06 424.06 -0.06 C427.26 -0.06 430.45 -0.06 433.65 -0.06 C435.24 -0.06 436.84 -0.06 438.44 -0.06 C489 -0.06 539.56 -0.06 590.12 -0.08 C602.86 -0.08 615.6 -0.08 628.34 -0.09 C629.12 -0.09 629.91 -0.09 630.72 -0.09 C654.89 -0.09 679.07 -0.1 703.24 -0.1 C704.38 -0.1 704.38 -0.1 705.54 -0.1 C722.21 -0.1 738.87 -0.1 755.53 -0.1 C761.49 -0.1 767.45 -0.1 773.42 -0.1 C774.9 -0.1 776.38 -0.1 777.87 -0.1 C801.5 -0.1 825.13 -0.11 848.76 -0.11 C873.23 -0.12 897.69 -0.12 922.16 -0.12 C936.26 -0.11 950.37 -0.12 964.47 -0.13 C973.89 -0.13 983.31 -0.13 992.73 -0.12 C998.1 -0.12 1003.47 -0.12 1008.83 -0.13 C1013.72 -0.13 1018.61 -0.13 1023.49 -0.12 C1025.25 -0.12 1027 -0.12 1028.76 -0.13 C1056.28 -0.21 1056.28 -0.21 1063.34 6.13 C1063.92 6.96 1064.5 7.78 1065.1 8.64 C1067.84 11.68 1069.78 12.2 1073.72 13.19 C1082.29 15.62 1086.34 18.83 1091.55 25.9 C1093.24 28.01 1094.89 29.49 1097.03 31.13 C1103.95 36.86 1104.92 45.47 1106.7 53.81 C1107.94 59.25 1109.85 63.54 1113.07 68.15 C1115.15 71.39 1115.47 74.5 1115.48 78.3 C1115.49 79.54 1115.49 79.54 1115.5 80.8 C1115.5 81.69 1115.5 82.59 1115.5 83.51 C1115.51 84.46 1115.51 85.41 1115.52 86.39 C1115.53 89.54 1115.54 92.68 1115.55 95.82 C1115.55 98.01 1115.56 100.2 1115.56 102.39 C1115.57 106.99 1115.58 111.58 1115.58 116.18 C1115.59 122.05 1115.61 127.92 1115.64 133.79 C1115.66 138.32 1115.67 142.84 1115.67 147.37 C1115.67 149.53 1115.68 151.7 1115.69 153.86 C1115.71 156.9 1115.71 159.93 1115.7 162.97 C1115.71 163.85 1115.72 164.74 1115.73 165.65 C1115.68 172.79 1115 180.43 1109.82 185.7 C1109 186.5 1108.18 187.3 1107.34 188.13 C1106.15 191.03 1105.47 194.01 1104.78 197.07 C1103.17 203.99 1101.35 209.21 1096.09 214.32 C1093.35 216.92 1093.35 216.92 1091.77 219.61 C1086.86 227.33 1081.83 230.49 1073.84 234.34 C1070.86 235.86 1068.71 237.25 1066.28 239.5 C1060.76 244.43 1054.17 244.64 1047.09 245.34 C1043.24 245.76 1040.88 246.36 1037.34 248.13 C1037.34 361.32 1037.34 474.51 1037.34 591.13 C1041.33 593.12 1042.87 593.38 1047.16 593.4 C1048.33 593.41 1049.51 593.42 1050.71 593.43 C1052.61 593.43 1052.61 593.43 1054.54 593.44 C1056.54 593.46 1058.53 593.47 1060.52 593.49 C1065.43 593.54 1070.34 593.56 1075.25 593.58 C1078 593.6 1080.76 593.62 1083.51 593.65 C1086.1 593.67 1088.69 593.69 1091.28 593.69 C1099.71 593.78 1106.46 594.26 1113.37 599.36 C1117.13 604.64 1116.01 612.2 1115.94 618.41 C1115.94 619.92 1115.94 621.42 1115.94 622.93 C1115.94 626.07 1115.92 629.21 1115.89 632.36 C1115.85 636.38 1115.84 640.41 1115.85 644.43 C1115.85 647.53 1115.84 650.64 1115.82 653.74 C1115.82 655.22 1115.81 656.71 1115.81 658.19 C1115.81 660.27 1115.79 662.34 1115.76 664.41 C1115.75 665.59 1115.75 666.77 1115.74 667.99 C1115.3 671.46 1114.43 673.34 1112.34 676.13 C1103.77 681.78 1092.85 681.44 1082.97 681.51 C1081.72 681.52 1080.48 681.54 1079.19 681.56 C1075.91 681.6 1072.63 681.64 1069.35 681.67 C1064.7 681.72 1060.06 681.77 1055.41 681.83 C1052.94 681.87 1050.47 681.89 1048 681.91 C1046.9 681.93 1045.79 681.94 1044.64 681.96 C1043.67 681.96 1042.69 681.97 1041.68 681.98 C1039.32 681.98 1039.32 681.98 1037.34 683.13 C1037.34 683.88 1037.34 684.64 1037.34 685.42 C1037.28 730.2 1037.21 774.99 1037.11 819.77 C1037.1 825.15 1037.09 830.53 1037.08 835.91 C1037.08 836.98 1037.08 838.05 1037.07 839.15 C1037.04 856.48 1037.01 873.82 1036.99 891.15 C1036.97 908.94 1036.94 926.72 1036.89 944.51 C1036.87 955.48 1036.85 966.46 1036.84 977.43 C1036.84 984.96 1036.82 992.49 1036.8 1000.02 C1036.78 1004.36 1036.77 1008.7 1036.78 1013.04 C1036.78 1017.02 1036.77 1021 1036.75 1024.98 C1036.74 1026.41 1036.74 1027.85 1036.75 1029.28 C1036.82 1049.51 1036.82 1049.51 1030.82 1055.76 C1029.59 1056.93 1029.59 1056.93 1028.34 1058.13 C1027.15 1061.03 1026.47 1064.01 1025.78 1067.07 C1024.13 1074.16 1022.23 1080.31 1016.34 1085.13 C1015.68 1085.13 1015.02 1085.13 1014.34 1085.13 C1014.07 1085.86 1013.79 1086.6 1013.51 1087.36 C1009.85 1096.05 1004.1 1100.36 995.85 1104.3 C992.62 1105.85 989.89 1107.39 987.18 1109.75 C984.5 1111.99 982.84 1112.98 979.53 1113.88 C978.76 1114.1 977.99 1114.32 977.2 1114.55 C968.23 1116.37 959.27 1116.27 950.15 1116.26 C948.61 1116.26 947.06 1116.26 945.51 1116.26 C941.25 1116.27 937 1116.27 932.74 1116.26 C928.11 1116.26 923.48 1116.27 918.85 1116.27 C910.73 1116.27 902.61 1116.28 894.5 1116.27 C882.43 1116.27 870.36 1116.28 858.29 1116.28 C835.48 1116.29 812.67 1116.3 789.86 1116.3 C772.25 1116.3 754.64 1116.3 737.02 1116.3 C731.96 1116.3 726.89 1116.3 721.82 1116.3 C720.56 1116.3 719.3 1116.3 718 1116.3 C682.56 1116.31 647.12 1116.31 611.68 1116.31 C610.33 1116.31 608.98 1116.31 607.63 1116.31 C601.53 1116.31 595.44 1116.31 589.34 1116.31 C586.62 1116.31 583.91 1116.31 581.19 1116.31 C579.83 1116.31 578.47 1116.31 577.11 1116.31 C534.09 1116.31 491.08 1116.32 448.06 1116.33 C437.22 1116.34 426.38 1116.34 415.55 1116.34 C414.88 1116.34 414.21 1116.35 413.52 1116.35 C377.48 1116.36 341.45 1116.36 305.41 1116.36 C300.34 1116.36 295.27 1116.36 290.2 1116.36 C288.95 1116.36 287.7 1116.36 286.42 1116.36 C266.32 1116.36 246.22 1116.36 226.12 1116.37 C205.93 1116.38 185.74 1116.38 165.55 1116.38 C153.55 1116.37 141.55 1116.37 129.55 1116.38 C121.53 1116.39 113.52 1116.39 105.5 1116.38 C100.94 1116.38 96.37 1116.38 91.8 1116.38 C87.64 1116.39 83.48 1116.39 79.33 1116.38 C77.83 1116.38 76.34 1116.38 74.85 1116.39 C49.23 1116.47 49.23 1116.47 42.34 1110.13 C41.93 1109.3 41.51 1108.47 41.09 1107.62 C38.78 1104.32 36.95 1104.03 33.09 1103.07 C23.76 1100.43 19.47 1097.84 14.1 1089.57 C12.43 1087.25 10.93 1085.82 8.66 1084.13 C2.3 1079 1.31 1071.24 -0.03 1063.57 C-1.09 1057.76 -2.52 1053.82 -6.25 1049.25 C-10.88 1042.25 -9.95 1033.78 -9.94 1025.73 C-9.94 1024.26 -9.95 1022.78 -9.95 1021.3 C-9.97 1017.24 -9.97 1013.19 -9.97 1009.13 C-9.98 1004.76 -9.99 1000.38 -10.01 996.01 C-10.03 988.43 -10.04 980.85 -10.05 973.27 C-10.07 962.32 -10.09 951.36 -10.12 940.4 C-10.17 922.63 -10.2 904.85 -10.23 887.07 C-10.27 869.81 -10.3 852.54 -10.34 835.27 C-10.34 834.21 -10.34 833.14 -10.35 832.05 C-10.36 826.7 -10.37 821.36 -10.38 816.02 C-10.49 771.73 -10.58 727.43 -10.66 683.13 C-13.22 681.85 -15.06 681.99 -17.93 681.97 C-19.03 681.96 -20.13 681.95 -21.27 681.94 C-23.06 681.93 -23.06 681.93 -24.9 681.92 C-27.44 681.89 -29.97 681.86 -32.51 681.83 C-36.51 681.79 -40.51 681.75 -44.51 681.73 C-48.37 681.7 -52.23 681.65 -56.09 681.61 C-57.27 681.6 -58.44 681.6 -59.66 681.6 C-68.27 681.47 -78.35 681.21 -85.34 675.57 C-88.87 671.85 -88.79 669.89 -88.83 664.85 C-88.84 664.2 -88.85 663.56 -88.85 662.89 C-88.87 660.76 -88.89 658.62 -88.9 656.49 C-88.9 655.76 -88.9 655.03 -88.91 654.28 C-88.93 650.41 -88.94 646.55 -88.95 642.68 C-88.96 638.7 -89 634.71 -89.04 630.72 C-89.06 627.66 -89.07 624.59 -89.08 621.52 C-89.08 620.05 -89.09 618.58 -89.11 617.11 C-89.13 615.05 -89.13 612.99 -89.13 610.93 C-89.13 609.76 -89.14 608.59 -89.14 607.38 C-88.55 603.4 -87.16 601.25 -84.66 598.13 C-79.33 594.91 -74.92 594.01 -68.77 593.94 C-67.59 593.92 -66.4 593.91 -65.18 593.89 C-63.91 593.87 -62.63 593.86 -61.32 593.85 C-59.31 593.82 -57.3 593.79 -55.29 593.76 C-51.77 593.71 -48.24 593.67 -44.72 593.63 C-40.52 593.58 -36.32 593.53 -32.11 593.47 C-29.5 593.43 -26.88 593.4 -24.27 593.37 C-23.08 593.35 -21.89 593.34 -20.67 593.32 C-19.1 593.3 -19.1 593.3 -17.51 593.28 C-14.27 593.18 -14.27 593.18 -9.66 592.13 C-9.66 478.28 -9.66 364.43 -9.66 247.13 C-16.26 246.14 -22.86 245.15 -29.66 244.13 C-36.66 240.13 -36.66 240.13 -38.14 237.53 C-40.31 234.1 -43.18 233.67 -46.91 232.69 C-53.99 230.59 -59.31 228.26 -63.05 221.67 C-64.79 218.92 -66.54 217.43 -69.09 215.44 C-76.67 208.84 -77.91 200.28 -80.08 190.89 C-81.2 186.31 -82.6 182.71 -85.51 179 C-88.96 173.38 -88.95 167.19 -88.93 160.8 C-88.94 159.44 -88.94 159.44 -88.95 158.05 C-88.96 155.06 -88.96 152.07 -88.96 149.09 C-88.96 146.99 -88.97 144.9 -88.97 142.81 C-88.98 138.43 -88.98 134.05 -88.97 129.67 C-88.97 124.08 -88.98 118.5 -89.01 112.91 C-89.02 108.59 -89.02 104.27 -89.02 99.95 C-89.02 97.89 -89.02 95.84 -89.04 93.78 C-89.15 66.1 -89.15 66.1 -81.04 57.83 C-78.51 54.72 -77.96 50.98 -77.16 47.13 C-75.78 40.55 -73.91 35.62 -68.66 31.13 C-68 31.13 -67.34 31.13 -66.66 31.13 C-66.23 30.27 -66.23 30.27 -65.79 29.39 C-65.23 28.27 -65.23 28.27 -64.66 27.13 C-64.34 26.45 -64.03 25.78 -63.71 25.09 C-59.69 17.78 -53.69 14.93 -46.53 11.27 C-43.89 9.9 -41.7 8.43 -39.46 6.47 C-36.8 4.25 -35.13 3.27 -31.84 2.38 C-30.69 2.05 -30.69 2.05 -29.51 1.71 C-19.75 -0.27 -9.91 -0.01 0 0 Z M7.34 89.13 C7.27 97.83 7.22 106.53 7.19 115.23 C7.17 119.27 7.15 123.31 7.12 127.35 C7.08 131.25 7.07 135.15 7.06 139.04 C7.05 140.53 7.04 142.02 7.03 143.51 C7 145.59 7 147.67 7 149.75 C7 150.94 6.99 152.12 6.98 153.34 C7.1 154.26 7.22 155.18 7.34 156.13 C11.02 158.58 12.78 158.38 17.17 158.38 C17.87 158.38 18.57 158.38 19.3 158.39 C21.68 158.39 24.05 158.39 26.43 158.38 C28.15 158.38 29.87 158.39 31.59 158.39 C36.35 158.4 41.11 158.39 45.88 158.39 C51.04 158.38 56.21 158.39 61.38 158.39 C70.44 158.4 79.51 158.4 88.58 158.39 C102.06 158.39 115.54 158.39 129.03 158.4 C151.7 158.41 174.38 158.41 197.06 158.4 C197.75 158.4 198.44 158.4 199.16 158.4 C199.85 158.4 200.54 158.4 201.25 158.4 C222.32 158.4 243.39 158.39 264.46 158.4 C265.87 158.4 267.28 158.4 268.69 158.4 C274.35 158.4 280.01 158.4 285.68 158.4 C301.51 158.4 317.35 158.4 333.18 158.4 C333.9 158.4 334.62 158.4 335.37 158.4 C358.35 158.4 381.34 158.4 404.32 158.4 C405.44 158.4 405.44 158.4 406.58 158.4 C418.7 158.39 430.81 158.39 442.92 158.39 C490.96 158.38 539 158.38 587.04 158.39 C599.15 158.39 611.26 158.39 623.36 158.4 C624.11 158.4 624.85 158.4 625.62 158.4 C648.58 158.4 671.54 158.4 694.51 158.4 C695.59 158.4 695.59 158.4 696.69 158.4 C712.51 158.4 728.32 158.4 744.14 158.4 C749.8 158.4 755.46 158.4 761.12 158.4 C762.52 158.4 763.93 158.4 765.34 158.4 C786.4 158.39 807.47 158.4 828.53 158.4 C829.57 158.4 829.57 158.4 830.63 158.4 C831.32 158.4 832.01 158.4 832.72 158.4 C855.96 158.41 879.19 158.41 902.43 158.39 C915.84 158.39 929.25 158.39 942.66 158.4 C951.61 158.4 960.55 158.4 969.49 158.39 C974.6 158.38 979.7 158.38 984.81 158.39 C989.44 158.4 994.08 158.39 998.71 158.38 C1000.39 158.38 1002.06 158.38 1003.74 158.39 C1006 158.39 1008.26 158.39 1010.52 158.38 C1011.77 158.38 1013.03 158.38 1014.32 158.38 C1017.52 158.36 1017.52 158.36 1020.34 156.13 C1020.82 153.28 1020.82 153.28 1020.76 149.89 C1020.78 148.58 1020.79 147.27 1020.81 145.92 C1020.81 144.48 1020.81 143.04 1020.81 141.6 C1020.82 140.13 1020.83 138.66 1020.84 137.19 C1020.85 134.11 1020.85 131.03 1020.84 127.94 C1020.84 123.99 1020.87 120.04 1020.91 116.09 C1020.94 113.05 1020.94 110.02 1020.93 106.98 C1020.94 105.52 1020.95 104.06 1020.96 102.61 C1020.99 100.57 1020.97 98.53 1020.96 96.5 C1020.96 94.76 1020.96 94.76 1020.96 92.98 C1020.63 89.99 1020.63 89.99 1018.25 88.47 C1014.71 86.83 1012.19 86.75 1008.29 86.75 C1007.59 86.75 1006.88 86.75 1006.16 86.74 C1003.79 86.73 1001.43 86.74 999.06 86.75 C997.34 86.75 995.63 86.75 993.91 86.74 C989.17 86.73 984.42 86.74 979.68 86.75 C974.53 86.76 969.38 86.75 964.22 86.74 C955.19 86.73 946.15 86.73 937.12 86.74 C923.68 86.76 910.24 86.75 896.81 86.75 C874.2 86.74 851.6 86.74 829 86.75 C806.61 86.76 784.22 86.77 761.83 86.77 C760.43 86.77 759.02 86.77 757.62 86.77 C751.97 86.77 746.33 86.77 740.68 86.76 C724.9 86.76 709.11 86.76 693.33 86.76 C692.25 86.76 692.25 86.76 691.15 86.76 C668.24 86.76 645.33 86.77 622.42 86.78 C621.31 86.78 621.31 86.78 620.17 86.78 C608.1 86.78 596.03 86.79 583.96 86.79 C536.08 86.81 488.2 86.82 440.33 86.81 C437.3 86.81 434.27 86.81 431.25 86.81 C430.5 86.81 429.75 86.81 428.98 86.81 C420.7 86.81 412.41 86.81 404.13 86.81 C403.39 86.81 402.64 86.81 401.88 86.81 C361.79 86.8 321.71 86.81 281.63 86.82 C280.21 86.82 278.8 86.82 277.39 86.82 C276.34 86.82 276.34 86.82 275.27 86.82 C273.86 86.82 272.45 86.82 271.04 86.82 C267.53 86.82 264.02 86.82 260.51 86.82 C245.12 86.83 229.72 86.83 214.32 86.83 C213.63 86.83 212.93 86.83 212.22 86.83 C208.72 86.83 205.22 86.83 201.73 86.83 C176.48 86.82 151.23 86.83 125.99 86.84 C112.62 86.85 99.26 86.85 85.9 86.85 C76.98 86.85 68.07 86.85 59.16 86.86 C54.07 86.87 48.98 86.87 43.9 86.86 C39.28 86.86 34.66 86.86 30.04 86.87 C28.37 86.87 26.7 86.87 25.03 86.87 C22.78 86.86 20.53 86.87 18.27 86.88 C17.02 86.88 15.77 86.88 14.48 86.88 C11.51 87.12 9.84 87.56 7.34 89.13 Z M86.34 248.13 C85.89 250.68 85.89 250.68 85.96 253.72 C85.95 254.92 85.94 256.12 85.93 257.35 C85.94 258.69 85.94 260.03 85.95 261.37 C85.94 262.78 85.94 264.2 85.93 265.61 C85.91 269.51 85.92 273.41 85.92 277.32 C85.92 281.52 85.91 285.72 85.9 289.92 C85.88 298.15 85.87 306.39 85.87 314.63 C85.88 321.32 85.87 328.01 85.86 334.7 C85.86 336.62 85.86 338.55 85.86 340.47 C85.86 341.43 85.86 342.39 85.85 343.38 C85.84 361.5 85.84 379.63 85.84 397.76 C85.85 414.36 85.83 430.96 85.8 447.56 C85.76 464.59 85.75 481.62 85.75 498.65 C85.75 508.22 85.75 517.78 85.72 527.35 C85.7 535.49 85.7 543.64 85.72 551.78 C85.73 555.94 85.73 560.1 85.71 564.26 C85.69 568.06 85.69 571.86 85.72 575.67 C85.72 577.05 85.72 578.43 85.7 579.8 C85.68 581.67 85.7 583.54 85.72 585.41 C85.72 586.45 85.72 587.49 85.72 588.56 C86.11 591.35 86.11 591.35 88.72 592.96 C91.6 594.24 93.55 594.51 96.7 594.52 C97.74 594.53 98.79 594.54 99.86 594.55 C100.98 594.54 102.1 594.53 103.25 594.53 C104.99 594.53 104.99 594.53 106.76 594.54 C109.2 594.54 111.65 594.53 114.09 594.52 C117.83 594.5 121.57 594.52 125.31 594.54 C127.68 594.54 130.06 594.53 132.44 594.53 C134.11 594.54 134.11 594.54 135.82 594.55 C136.87 594.54 137.91 594.53 138.99 594.52 C139.91 594.51 140.82 594.51 141.76 594.51 C144.98 594.03 146.75 593.1 149.34 591.13 C150.09 588.69 150.09 588.69 149.96 585.87 C149.97 584.78 149.98 583.69 150 582.56 C149.98 580.77 149.98 580.77 149.96 578.94 C149.96 577.68 149.97 576.42 149.97 575.12 C149.98 572.37 149.98 569.63 149.97 566.89 C149.94 562.54 149.95 558.19 149.97 553.85 C149.99 546.18 149.99 538.51 149.98 530.84 C149.96 519.32 149.96 507.8 150 496.28 C150.01 491.97 150 487.66 149.99 483.35 C149.98 481.31 149.98 479.26 149.98 477.22 C149.99 474.74 149.98 472.26 149.96 469.78 C150.01 459.7 151.57 451.41 157.21 443 C160.96 436.82 160.94 428.73 161.68 421.71 C162.67 416.33 164 413.18 168.36 409.76 C172.11 406.46 172.89 403.78 174.09 399.07 C177.29 387.47 177.29 387.47 181.72 384.94 C186.12 382 187.78 378.07 189.34 373.13 C189.34 372.47 189.34 371.81 189.34 371.13 C190.27 370.84 191.2 370.55 192.16 370.25 C196.48 368.8 196.48 368.8 199.19 365.36 C199.58 364.35 199.58 364.35 199.97 363.32 C202.08 358.77 204.85 357.47 209.23 355.35 C212.26 353.6 213.55 351.07 215.34 348.13 C218.12 346.11 220.79 344.94 223.97 343.63 C228.06 341.81 229.61 340.02 232.41 336.63 C237.23 332.53 242.72 331.6 248.86 330.49 C255.48 329.27 259.99 328.39 264.78 323.55 C272.79 316.26 286.91 317.97 296.85 317.96 C298.26 317.96 299.68 317.95 301.09 317.95 C304.04 317.94 307 317.94 309.95 317.94 C313.69 317.94 317.44 317.93 321.18 317.91 C324.1 317.9 327.02 317.9 329.93 317.9 C331.31 317.9 332.69 317.89 334.07 317.89 C363.48 317.74 363.48 317.74 370.85 324.52 C371.62 325.28 371.62 325.28 372.41 326.07 C376.29 329.7 380.84 330.54 385.85 331.73 C391.93 333.2 396.27 334.82 400.53 339.57 C404.17 342.88 408 344.16 412.6 345.82 C416.28 347.58 417.68 349.57 419.26 353.27 C420.71 355.75 422.02 356 424.72 356.88 C429.01 358.61 429.01 358.61 430.51 360.95 C431.07 362.34 431.63 363.73 432.19 365.12 C433.67 367.69 435.3 368.58 437.84 370.07 C442.3 372.72 443.83 375.22 445.49 380.08 C446.47 382.42 447.46 383.43 449.34 385.13 C453.29 388.75 455.53 392.02 457.78 396.88 C459.71 401.03 461.61 404.51 464.37 408.16 C468.47 414.18 469.31 420.87 470.53 427.94 C470.99 430.53 471.47 433.12 471.95 435.71 C472.15 436.85 472.34 437.98 472.55 439.16 C473.36 442.2 474.38 443.72 476.34 446.13 C477.16 448.71 477.85 451.19 478.47 453.82 C478.64 454.49 478.81 455.16 478.98 455.85 C481.18 464.9 481.49 473.83 481.47 483.12 C481.47 484.87 481.47 484.87 481.47 486.65 C481.48 489.17 481.48 491.69 481.48 494.21 C481.48 498.2 481.5 502.18 481.51 506.16 C481.51 506.84 481.52 507.51 481.52 508.21 C481.52 509.58 481.53 510.96 481.53 512.34 C481.57 521.6 481.6 530.86 481.59 540.13 C481.59 546.39 481.61 552.66 481.64 558.93 C481.66 562.24 481.67 565.55 481.66 568.86 C481.65 572.55 481.67 576.23 481.7 579.92 C481.69 581.01 481.68 582.11 481.67 583.24 C481.55 588.88 481.55 588.88 484.55 593.31 C487.41 594.15 489.71 594.51 492.7 594.52 C493.74 594.53 494.79 594.54 495.86 594.55 C496.98 594.54 498.1 594.53 499.25 594.53 C500.99 594.53 500.99 594.53 502.76 594.54 C505.2 594.54 507.65 594.53 510.09 594.52 C513.83 594.5 517.57 594.52 521.31 594.54 C523.68 594.54 526.06 594.53 528.44 594.53 C530.11 594.54 530.11 594.54 531.82 594.55 C532.87 594.54 533.91 594.53 534.99 594.52 C535.91 594.51 536.82 594.51 537.76 594.51 C540.98 594.03 542.75 593.1 545.34 591.13 C546.08 588.68 546.08 588.68 545.96 585.84 C545.97 584.75 545.97 583.65 545.98 582.52 C545.97 581.32 545.95 580.12 545.94 578.88 C545.95 576.98 545.95 576.98 545.95 575.04 C545.96 572.28 545.95 569.52 545.93 566.76 C545.91 562.39 545.91 558.02 545.93 553.65 C545.95 545.14 545.93 536.63 545.91 528.12 C545.89 517.33 545.87 506.54 545.9 495.74 C545.91 491.41 545.9 487.07 545.88 482.74 C545.87 480.68 545.87 478.62 545.87 476.57 C545.87 474.07 545.86 471.58 545.84 469.09 C545.9 458.63 547.57 449.31 554.34 441.13 C556.35 435.22 556.89 429.13 557.38 422.94 C557.88 417.99 559.22 414.97 562.34 411.13 C563.2 410.51 564.05 409.89 564.93 409.25 C568.18 406.4 568.92 403.23 569.97 399.19 C573.17 387.37 573.17 387.37 577.85 384.69 C581.1 382.65 581.72 380.7 583.16 377.19 C585.59 371.94 587.21 370.09 592.54 368.11 C594.89 366.83 595.29 365.64 596.28 363.19 C598.14 358.69 600.75 357.4 605.12 355.53 C607.6 354.19 607.6 354.19 609.19 351.2 C612.11 347.03 615.69 345.73 620.21 343.85 C623.62 342.32 625.26 341.26 627.34 338.1 C630.6 333.26 635.16 332.29 640.65 331.21 C642.17 330.93 643.69 330.65 645.22 330.38 C651.93 329.05 656.39 327.36 661.54 322.68 C669.08 316.21 683.57 317.97 692.85 317.96 C694.26 317.96 695.68 317.95 697.09 317.95 C700.04 317.94 703 317.94 705.95 317.94 C709.69 317.94 713.44 317.93 717.18 317.91 C720.1 317.9 723.02 317.9 725.93 317.9 C727.31 317.9 728.69 317.89 730.07 317.89 C756.03 317.75 756.03 317.75 766.34 324.13 C766.98 324.81 767.62 325.49 768.28 326.19 C771.08 328.82 773.89 329.35 777.55 330.36 C785.21 332.47 790.79 334.29 796.34 340.13 C800.64 342.6 805.13 344.63 809.72 346.5 C812.89 348.46 813.59 350.26 815.21 353.5 C817.14 356.28 820.28 356.92 823.34 358.13 C825.75 360.61 827.12 362.37 828.09 365.69 C829.58 368.6 830.3 368.69 833.22 369.88 C836.9 371.5 838.08 372.91 839.59 376.63 C839.89 377.42 840.18 378.21 840.49 379.02 C841.6 381.75 843.11 383.23 845.34 385.13 C850.51 389.72 852.31 394.4 854.72 400.75 C856.46 404.37 858.51 406.33 861.34 409.13 C865.09 417.19 866.35 426.61 867.86 435.32 C868.67 439.74 869.35 442.66 872.34 446.13 C878.87 462.97 877.68 482.16 877.76 499.84 C877.78 502.51 877.8 505.18 877.82 507.85 C877.86 514.12 877.9 520.39 877.93 526.65 C877.97 533.8 878.02 540.95 878.07 548.09 C878.17 562.77 878.26 577.45 878.34 592.13 C882 593.66 884.72 594.38 888.7 594.4 C889.74 594.41 890.79 594.42 891.86 594.43 C892.98 594.43 894.1 594.43 895.25 594.43 C896.41 594.43 897.56 594.44 898.76 594.44 C901.2 594.45 903.65 594.45 906.09 594.44 C909.83 594.44 913.57 594.46 917.31 594.49 C919.68 594.49 922.06 594.49 924.44 594.49 C926.11 594.51 926.11 594.51 927.82 594.52 C928.87 594.51 929.91 594.51 930.99 594.5 C932.36 594.5 932.36 594.5 933.76 594.5 C937 594.03 938.75 593.13 941.34 591.13 C942.09 588.49 942.09 588.49 941.97 585.41 C941.98 584.21 941.99 583.01 942 581.77 C941.99 580.44 941.98 579.1 941.96 577.76 C941.97 576.34 941.98 574.93 941.98 573.51 C942 569.61 941.99 565.71 941.97 561.81 C941.95 557.61 941.97 553.41 941.98 549.2 C941.99 540.97 941.98 532.73 941.96 524.5 C941.93 514.91 941.93 505.33 941.94 495.75 C941.94 478.65 941.92 461.56 941.89 444.47 C941.85 427.86 941.84 411.26 941.84 394.66 C941.85 376.6 941.85 358.54 941.83 340.47 C941.83 339.52 941.83 338.56 941.83 337.58 C941.82 335.66 941.82 333.75 941.82 331.83 C941.81 325.14 941.81 318.46 941.81 311.77 C941.81 303.63 941.81 295.48 941.78 287.34 C941.77 283.18 941.76 279.02 941.77 274.87 C941.77 271.06 941.76 267.26 941.74 263.46 C941.74 262.08 941.74 260.7 941.75 259.32 C941.75 257.46 941.74 255.59 941.73 253.72 C941.72 252.16 941.72 252.16 941.72 250.57 C941.6 249.77 941.47 248.96 941.34 248.13 C937.88 245.82 936.61 245.88 932.53 245.88 C931.31 245.87 930.08 245.87 928.82 245.86 C927.46 245.87 926.09 245.87 924.72 245.88 C923.27 245.87 921.82 245.87 920.37 245.87 C916.36 245.86 912.35 245.87 908.33 245.87 C903.98 245.88 899.62 245.87 895.26 245.87 C887.62 245.86 879.98 245.86 872.33 245.86 C860.97 245.87 849.6 245.87 838.24 245.86 C817.94 245.85 797.65 245.85 777.35 245.86 C759.59 245.86 741.83 245.86 724.07 245.86 C722.31 245.86 722.31 245.86 720.51 245.86 C715.73 245.86 710.96 245.86 706.18 245.86 C661.36 245.85 616.53 245.86 571.71 245.87 C531.85 245.88 491.99 245.88 452.14 245.87 C407.4 245.86 362.65 245.85 317.91 245.86 C313.15 245.86 308.38 245.86 303.61 245.86 C302.44 245.86 301.27 245.86 300.06 245.86 C282.3 245.86 264.55 245.86 246.8 245.86 C226.62 245.85 206.44 245.85 186.27 245.86 C174.96 245.87 163.66 245.87 152.36 245.86 C144.82 245.86 137.28 245.86 129.74 245.87 C125.44 245.87 121.13 245.87 116.83 245.87 C112.92 245.86 109.01 245.86 105.11 245.87 C103.69 245.88 102.28 245.87 100.87 245.87 C98.97 245.86 97.06 245.87 95.16 245.88 C94.1 245.88 93.04 245.88 91.95 245.88 C89.11 245.94 89.11 245.94 86.34 248.13 Z M294.16 408.5 C289.36 412.98 283.03 414.63 276.66 415.82 C272.26 417.56 270.22 420.3 267.26 423.9 C265.62 425.8 264.17 427.13 262.16 428.57 C258.8 431.62 257.5 434.57 255.81 438.73 C254.34 441.13 254.34 441.13 251.3 442.99 C248.07 444.9 248.07 444.9 247.14 448.45 C246.94 449.7 246.74 450.96 246.53 452.25 C246.32 453.49 246.11 454.73 245.89 456.01 C244.67 464.8 244.18 473.46 244.15 482.32 C244.14 483.5 244.13 484.68 244.13 485.89 C244.1 489.75 244.08 493.61 244.07 497.47 C244.06 498.8 244.06 500.14 244.05 501.47 C244.03 507.02 244.01 512.57 244 518.12 C243.99 526.06 243.95 533.99 243.9 541.92 C243.86 547.51 243.84 553.11 243.83 558.7 C243.83 562.04 243.81 565.37 243.78 568.71 C243.75 572.42 243.75 576.13 243.76 579.84 C243.74 580.94 243.73 582.05 243.71 583.19 C243.72 584.2 243.73 585.2 243.74 586.24 C243.73 587.12 243.73 587.99 243.73 588.9 C244.17 591.34 244.17 591.34 246.53 592.91 C249.58 594.23 251.61 594.51 254.92 594.51 C256.03 594.52 257.14 594.53 258.29 594.54 C259.5 594.53 260.7 594.52 261.95 594.52 C263.23 594.52 264.51 594.53 265.83 594.53 C269.33 594.55 272.84 594.54 276.34 594.53 C280.01 594.52 283.68 594.53 287.35 594.54 C293.52 594.54 299.68 594.53 305.84 594.52 C312.96 594.5 320.09 594.51 327.21 594.53 C333.33 594.54 339.44 594.54 345.56 594.53 C349.22 594.53 352.87 594.53 356.52 594.54 C360.59 594.55 364.67 594.53 368.74 594.52 C370.55 594.53 370.55 594.53 372.4 594.54 C373.51 594.53 374.62 594.52 375.76 594.51 C376.73 594.51 377.69 594.51 378.68 594.51 C381.94 594.04 383.79 593.21 386.34 591.13 C387.08 588.83 387.08 588.83 386.96 586.18 C386.97 585.16 386.98 584.14 386.99 583.09 C386.97 581.41 386.97 581.41 386.94 579.69 C386.95 578.51 386.95 577.33 386.95 576.11 C386.96 572.87 386.94 569.62 386.92 566.38 C386.89 562.97 386.9 559.56 386.89 556.15 C386.89 550.4 386.87 544.66 386.83 538.91 C386.79 532.32 386.77 525.72 386.77 519.12 C386.76 512.06 386.75 505 386.72 497.94 C386.71 495.93 386.71 493.92 386.71 491.9 C386.7 474.31 386.7 474.31 385.51 456.77 C385.4 455.73 385.4 455.73 385.3 454.68 C384.72 450 383.48 446.29 381.34 442.13 C379.7 441.41 378.03 440.74 376.34 440.13 C375.28 437.88 375.28 437.88 374.34 435.13 C371.67 430.3 368.65 427.63 364.15 424.62 C362.13 422.95 361.45 421.47 360.34 419.13 C356.69 416.79 353 415.74 348.84 414.69 C343.09 413.2 339.27 410.73 334.72 406.94 C329.22 402.75 322.07 403.94 315.47 403.94 C313.71 403.92 313.71 403.92 311.92 403.9 C310.78 403.9 309.65 403.9 308.48 403.9 C307.44 403.89 306.41 403.89 305.35 403.89 C300.7 404.26 297.35 405.03 294.16 408.5 Z M690.16 408.5 C685.25 413.08 678.71 414.5 672.34 416.25 C668.74 417.3 666.86 418.25 664.93 421.52 C663.21 424.34 661.48 425.84 658.91 427.88 C654.84 431.34 653.12 434.25 651.3 439.2 C650.34 441.13 650.34 441.13 647.28 442.82 C641.85 447.09 641.89 454.7 641.08 461.26 C640.34 467.99 640.18 474.65 640.15 481.42 C640.14 482.6 640.13 483.79 640.13 485.01 C640.1 488.9 640.08 492.8 640.07 496.69 C640.06 498.03 640.06 499.38 640.05 500.73 C640.03 506.32 640.01 511.92 640 517.51 C639.99 525.51 639.95 533.51 639.9 541.51 C639.86 547.15 639.84 552.79 639.83 558.43 C639.83 561.8 639.82 565.16 639.78 568.52 C639.75 572.27 639.75 576.01 639.76 579.75 C639.74 580.86 639.73 581.98 639.71 583.12 C639.72 584.14 639.73 585.16 639.74 586.2 C639.73 587.09 639.73 587.97 639.73 588.88 C640.17 591.34 640.17 591.34 642.53 592.91 C645.58 594.23 647.61 594.51 650.92 594.51 C652.03 594.52 653.14 594.53 654.29 594.54 C655.5 594.53 656.7 594.52 657.95 594.52 C659.23 594.52 660.51 594.53 661.83 594.53 C665.33 594.55 668.84 594.54 672.34 594.53 C676.01 594.52 679.68 594.53 683.35 594.54 C689.52 594.54 695.68 594.53 701.84 594.52 C708.96 594.5 716.09 594.51 723.21 594.53 C729.33 594.54 735.44 594.54 741.56 594.53 C745.22 594.53 748.87 594.53 752.52 594.54 C756.59 594.55 760.67 594.53 764.74 594.52 C766.55 594.53 766.55 594.53 768.4 594.54 C769.51 594.53 770.62 594.52 771.76 594.51 C772.73 594.51 773.69 594.51 774.68 594.51 C777.94 594.04 779.79 593.21 782.34 591.13 C783.09 588.86 783.09 588.86 782.96 586.25 C782.98 584.74 782.98 584.74 783 583.21 C782.99 582.1 782.97 581 782.96 579.86 C782.97 578.12 782.97 578.12 782.98 576.34 C782.99 572.47 782.96 568.6 782.94 564.74 C782.93 562.04 782.94 559.34 782.94 556.64 C782.94 550.97 782.92 545.29 782.89 539.61 C782.85 533.11 782.84 526.61 782.85 520.11 C782.85 513.81 782.84 507.51 782.82 501.21 C782.81 498.56 782.81 495.9 782.81 493.25 C782.81 480.45 782.59 467.78 781.06 455.06 C780.96 454.11 780.85 453.16 780.74 452.18 C780.03 447.01 780.03 447.01 777.35 442.61 C776.69 442.12 776.03 441.63 775.34 441.13 C772.49 438.56 770.55 435.93 768.53 432.69 C766.5 429.55 764.7 427.4 761.59 425.32 C758.31 423.11 757.98 422.4 756.34 419.13 C752.99 417 749.88 415.98 746.03 415.25 C738.88 413.8 733.36 410.34 728.34 405.13 C723.01 403.29 717.03 403.94 711.47 403.94 C709.71 403.92 709.71 403.92 707.92 403.9 C706.78 403.9 705.65 403.9 704.48 403.9 C703.44 403.89 702.41 403.89 701.35 403.89 C696.7 404.26 693.35 405.03 690.16 408.5 Z M86.34 683.13 C85.89 685.69 85.89 685.69 85.97 688.75 C85.97 689.95 85.96 691.15 85.96 692.39 C85.96 693.74 85.97 695.08 85.98 696.43 C85.98 697.85 85.98 699.27 85.97 700.69 C85.97 704.61 85.98 708.53 86 712.44 C86.01 716.66 86 720.88 86 725.1 C86 732.42 86.01 739.73 86.03 747.05 C86.05 757.62 86.06 768.2 86.06 778.78 C86.07 795.94 86.09 813.09 86.12 830.25 C86.14 846.92 86.17 863.59 86.18 880.27 C86.18 881.29 86.18 882.32 86.18 883.38 C86.18 888.53 86.19 893.68 86.19 898.83 C86.22 941.6 86.28 984.36 86.34 1027.13 C89.66 1028.9 91.89 1029.38 95.68 1029.4 C96.74 1029.41 97.8 1029.42 98.9 1029.43 C100.62 1029.43 100.62 1029.43 102.37 1029.43 C103.55 1029.43 104.73 1029.44 105.95 1029.44 C108.45 1029.45 110.94 1029.45 113.44 1029.44 C117.26 1029.44 121.08 1029.46 124.9 1029.49 C127.33 1029.49 129.76 1029.49 132.18 1029.49 C133.9 1029.51 133.9 1029.51 135.65 1029.52 C136.71 1029.51 137.78 1029.51 138.88 1029.5 C139.82 1029.5 140.75 1029.5 141.72 1029.5 C144.97 1029.04 146.73 1028.11 149.34 1026.13 C150.08 1023.7 150.08 1023.7 149.96 1020.88 C149.97 1019.25 149.97 1019.25 149.98 1017.59 C149.96 1015.8 149.96 1015.8 149.94 1013.97 C149.94 1012.71 149.95 1011.45 149.95 1010.16 C149.96 1007.42 149.95 1004.69 149.93 1001.95 C149.91 997.61 149.91 993.27 149.93 988.93 C149.95 980.49 149.93 972.05 149.91 963.6 C149.89 952.89 149.87 942.18 149.9 931.47 C149.91 927.17 149.9 922.87 149.88 918.57 C149.87 916.53 149.87 914.49 149.87 912.45 C149.87 909.97 149.86 907.5 149.84 905.03 C149.9 894.36 152.09 884.89 158.34 876.13 C160.25 870.44 160.93 864.93 161.47 859 C161.95 854.44 162.82 850.98 165.34 847.13 C166.84 846.21 166.84 846.21 168.37 845.28 C172.45 842.33 172.86 839.51 173.91 834.75 C175.66 827.07 178.12 823.12 183.97 817.69 C186.56 815.23 186.56 815.23 187.59 811.69 C189.76 807.28 192.11 806.19 196.21 803.73 C198.57 801.96 199.26 800.76 200.34 798.07 C202.19 793.57 204.93 792.45 209.19 790.41 C211.54 789.01 212.4 787.89 213.78 785.57 C216.32 781.47 219.56 780.62 223.97 779.09 C227.22 777.77 229.1 775.78 231.34 773.13 C236.53 767 245.2 766.17 252.67 764.93 C257.95 763.9 260.93 762.19 264.83 758.5 C266.67 756.83 268.34 756.02 270.72 755.32 C271.39 755.1 272.05 754.89 272.74 754.67 C281.02 752.94 289.33 752.97 297.75 752.96 C299.03 752.96 300.31 752.95 301.62 752.95 C304.32 752.94 307.02 752.94 309.72 752.94 C312.46 752.94 315.19 752.94 317.92 752.92 C361.28 752.71 361.28 752.71 371.34 760.13 C372 761.12 372.66 762.11 373.34 763.13 C375.21 764.07 375.21 764.07 377.41 764.69 C378.61 765.07 378.61 765.07 379.84 765.45 C382.21 766.09 384.56 766.6 386.97 767.07 C392.31 768.2 396.82 770 400.1 774.59 C402.91 777.77 405.38 778.58 409.34 780 C416.93 782.92 416.93 782.92 418.72 786.75 C420.73 790.92 422.44 791.46 426.51 793.24 C428.96 794.43 430.05 795.75 431.34 798.13 C431.57 798.95 431.8 799.78 432.03 800.63 C433.58 803.57 434.25 803.67 437.22 804.88 C440.9 806.5 442.08 807.91 443.59 811.63 C443.89 812.42 444.18 813.21 444.49 814.02 C445.6 816.75 447.11 818.23 449.34 820.13 C454.51 824.72 456.31 829.4 458.72 835.75 C460.46 839.37 462.49 841.35 465.34 844.13 C469.37 851.96 470.46 861.31 471.86 869.92 C472.01 870.79 472.16 871.67 472.32 872.57 C472.44 873.35 472.57 874.13 472.7 874.94 C473.45 877.5 474.68 879.06 476.34 881.13 C480.71 892.76 481.64 905.5 481.66 917.8 C481.67 919 481.68 920.19 481.69 921.42 C481.72 925.31 481.74 929.2 481.76 933.09 C481.77 935.8 481.8 938.52 481.82 941.24 C481.86 947.62 481.9 954.01 481.93 960.4 C481.97 967.68 482.02 974.97 482.07 982.25 C482.17 997.21 482.26 1012.17 482.34 1027.13 C485.66 1028.9 487.89 1029.38 491.68 1029.4 C492.74 1029.41 493.8 1029.42 494.9 1029.43 C496.62 1029.43 496.62 1029.43 498.37 1029.43 C499.55 1029.43 500.73 1029.44 501.95 1029.44 C504.45 1029.45 506.94 1029.45 509.44 1029.44 C513.26 1029.44 517.08 1029.46 520.9 1029.49 C523.33 1029.49 525.76 1029.49 528.18 1029.49 C529.9 1029.51 529.9 1029.51 531.65 1029.52 C533.25 1029.51 533.25 1029.51 534.88 1029.5 C535.82 1029.5 536.75 1029.5 537.72 1029.5 C540.97 1029.04 542.73 1028.12 545.34 1026.13 C546.09 1023.67 546.09 1023.67 545.96 1020.82 C545.97 1019.72 545.98 1018.62 546 1017.49 C545.98 1016.28 545.97 1015.07 545.96 1013.83 C545.96 1012.56 545.97 1011.29 545.97 1009.98 C545.98 1007.21 545.98 1004.44 545.97 1001.67 C545.94 997.29 545.95 992.9 545.97 988.52 C545.99 980.78 545.99 973.05 545.98 965.32 C545.96 953.7 545.96 942.08 546 930.46 C546.01 926.11 546 921.76 545.99 917.41 C545.98 915.35 545.98 913.29 545.98 911.22 C545.99 908.72 545.98 906.22 545.96 903.72 C546.01 893.79 547.74 886.3 553.21 878.03 C556.92 871.8 556.93 863.77 557.68 856.71 C558.38 852.94 559.28 850.36 561.34 847.13 C562.16 846.69 562.99 846.26 563.83 845.81 C567.71 843.21 568.27 839.6 569.53 835.25 C570.02 833.65 570.52 832.05 571.01 830.45 C571.24 829.7 571.47 828.95 571.71 828.18 C572.46 825.75 573.22 823.41 574.34 821.13 C576 820.45 577.67 819.78 579.34 819.13 C581.06 816.88 581.06 816.88 582.34 814.13 C582.9 813.08 583.46 812.02 584.03 810.94 C585.48 808.34 585.48 808.34 585.34 806.13 C586.27 805.84 587.2 805.55 588.16 805.25 C592.48 803.8 592.48 803.8 595.19 800.36 C595.45 799.68 595.71 799.01 595.97 798.32 C598.08 793.77 600.85 792.46 605.25 790.34 C607.65 789.16 607.65 789.16 609.34 786.07 C612.19 781.89 615.76 780.93 620.34 779.13 C624.24 777.2 624.24 777.2 626.59 773.69 C630.09 768.57 635.85 767.39 641.69 766.2 C642.47 766.04 643.26 765.88 644.07 765.72 C645.63 765.42 647.21 765.13 648.78 764.87 C654.03 763.88 656.95 762.16 660.82 758.51 C662.67 756.84 664.34 756.02 666.72 755.32 C667.72 755 667.72 755 668.74 754.67 C677.02 752.94 685.33 752.97 693.75 752.96 C695.03 752.96 696.31 752.95 697.62 752.95 C700.32 752.94 703.02 752.94 705.72 752.94 C708.46 752.94 711.19 752.94 713.92 752.92 C757.28 752.71 757.28 752.71 767.34 760.13 C768 761.12 768.66 762.11 769.34 763.13 C771.21 764.07 771.21 764.07 773.41 764.69 C774.61 765.07 774.61 765.07 775.84 765.45 C778.21 766.09 780.56 766.6 782.97 767.07 C788.31 768.2 792.82 770 796.1 774.59 C798.91 777.77 801.38 778.58 805.34 780 C812.93 782.92 812.93 782.92 814.72 786.75 C816.73 790.92 818.44 791.46 822.51 793.24 C824.96 794.43 826.05 795.75 827.34 798.13 C827.57 798.95 827.8 799.78 828.03 800.63 C829.58 803.57 830.25 803.67 833.22 804.88 C836.9 806.5 838.08 807.91 839.59 811.63 C839.89 812.42 840.18 813.21 840.49 814.02 C841.6 816.75 843.11 818.23 845.34 820.13 C849.61 823.92 851.7 827.41 853.84 832.57 C855.54 836.61 857.06 839.79 859.93 843.17 C862.63 846.48 863.47 848.88 864.47 853 C864.63 853.64 864.79 854.29 864.95 854.95 C865.8 858.42 866.5 861.9 867.12 865.42 C867.24 866.12 867.36 866.83 867.49 867.55 C867.83 869.52 868.13 871.5 868.44 873.47 C869.32 877.05 870.51 879.33 872.4 882.41 C873.9 885.15 874.43 887.96 875.03 891 C875.26 892.14 875.49 893.27 875.73 894.43 C877.1 902.7 877.5 910.79 877.55 919.17 C877.56 920.34 877.57 921.51 877.58 922.72 C877.61 926.56 877.63 930.41 877.66 934.26 C877.68 936.94 877.7 939.61 877.72 942.29 C877.77 948.6 877.82 954.91 877.86 961.22 C877.91 968.41 877.97 975.6 878.02 982.79 C878.13 997.57 878.24 1012.35 878.34 1027.13 C881.66 1028.9 883.89 1029.38 887.68 1029.4 C888.74 1029.41 889.8 1029.42 890.9 1029.43 C892.62 1029.43 892.62 1029.43 894.37 1029.43 C895.55 1029.43 896.73 1029.44 897.95 1029.44 C900.45 1029.45 902.94 1029.45 905.44 1029.44 C909.26 1029.44 913.08 1029.46 916.9 1029.49 C919.33 1029.49 921.76 1029.49 924.18 1029.49 C925.9 1029.51 925.9 1029.51 927.65 1029.52 C928.71 1029.51 929.78 1029.51 930.88 1029.5 C931.82 1029.5 932.75 1029.5 933.72 1029.5 C936.99 1029.04 938.73 1028.15 941.34 1026.13 C942.09 1023.49 942.09 1023.49 941.96 1020.4 C941.97 1019.2 941.98 1018 941.99 1016.76 C941.97 1015.42 941.96 1014.09 941.94 1012.75 C941.95 1011.33 941.95 1009.91 941.96 1008.49 C941.97 1004.59 941.95 1000.69 941.92 996.78 C941.9 992.58 941.91 988.37 941.91 984.16 C941.92 976.87 941.9 969.58 941.87 962.29 C941.83 951.75 941.82 941.21 941.81 930.66 C941.8 913.56 941.77 896.46 941.72 879.36 C941.67 862.74 941.64 846.13 941.62 829.51 C941.62 828.49 941.62 827.46 941.61 826.41 C941.61 821.27 941.6 816.14 941.59 811 C941.54 768.38 941.45 725.75 941.34 683.13 C937.95 681.08 935.34 680.88 931.41 680.88 C929.58 680.87 929.58 680.87 927.7 680.86 C926.34 680.87 924.98 680.87 923.62 680.88 C922.17 680.87 920.72 680.87 919.27 680.87 C915.26 680.86 911.25 680.87 907.24 680.87 C902.89 680.88 898.54 680.87 894.19 680.87 C886.56 680.86 878.93 680.86 871.29 680.86 C859.94 680.87 848.59 680.87 837.24 680.86 C816.97 680.85 796.71 680.85 776.44 680.86 C758.7 680.86 740.97 680.86 723.23 680.86 C722.06 680.86 720.88 680.86 719.67 680.86 C714.9 680.86 710.13 680.86 705.36 680.86 C660.6 680.85 615.83 680.86 571.06 680.87 C531.26 680.88 491.46 680.88 451.65 680.87 C406.97 680.86 362.29 680.85 317.6 680.86 C312.84 680.86 308.08 680.86 303.32 680.86 C302.15 680.86 300.98 680.86 299.77 680.86 C282.04 680.86 264.31 680.86 246.58 680.86 C226.43 680.85 206.28 680.85 186.13 680.86 C174.85 680.87 163.56 680.87 152.27 680.86 C144.74 680.86 137.21 680.86 129.68 680.87 C125.39 680.87 121.09 680.87 116.79 680.87 C112.89 680.86 108.99 680.86 105.08 680.87 C103.68 680.88 102.27 680.87 100.86 680.87 C98.95 680.86 97.05 680.87 95.15 680.88 C94.09 680.88 93.04 680.88 91.95 680.88 C89.11 680.94 89.11 680.94 86.34 683.13 Z M293.91 844.07 C289.2 848.47 283.74 849.57 277.59 851 C273.72 852.35 272.03 854.08 269.34 857.13 C267.11 859.44 265.02 861.36 262.41 863.25 C258.86 866.1 257.43 869.69 255.71 873.82 C254.34 876.13 254.34 876.13 251.83 877.46 C248.3 879.83 247.92 882.75 247.09 886.69 C246.93 887.36 246.77 888.02 246.61 888.71 C244.45 898.15 244.19 907.67 244.15 917.32 C244.14 918.5 244.13 919.68 244.13 920.89 C244.1 924.75 244.08 928.61 244.07 932.47 C244.06 933.8 244.06 935.14 244.05 936.47 C244.03 942.02 244.01 947.57 244 953.12 C243.99 961.06 243.95 968.99 243.9 976.92 C243.86 982.51 243.84 988.11 243.83 993.7 C243.83 997.04 243.81 1000.37 243.78 1003.71 C243.75 1007.42 243.75 1011.13 243.76 1014.84 C243.74 1015.94 243.73 1017.05 243.71 1018.19 C243.72 1019.2 243.73 1020.2 243.74 1021.24 C243.73 1022.12 243.73 1022.99 243.73 1023.9 C244.17 1026.34 244.17 1026.34 246.53 1027.91 C249.6 1029.24 251.64 1029.5 254.97 1029.5 C256.65 1029.51 256.65 1029.51 258.36 1029.52 C260.19 1029.51 260.19 1029.51 262.06 1029.5 C263.35 1029.5 264.64 1029.51 265.97 1029.51 C269.51 1029.52 273.04 1029.51 276.58 1029.5 C280.28 1029.49 283.98 1029.49 287.68 1029.49 C293.89 1029.49 300.11 1029.48 306.32 1029.46 C313.51 1029.44 320.69 1029.44 327.88 1029.45 C334.79 1029.45 341.7 1029.45 348.62 1029.44 C351.56 1029.43 354.5 1029.43 357.44 1029.43 C361.55 1029.43 365.65 1029.42 369.76 1029.4 C371.59 1029.41 371.59 1029.41 373.46 1029.41 C374.58 1029.4 375.7 1029.4 376.85 1029.39 C377.82 1029.39 378.79 1029.39 379.79 1029.38 C382.43 1029.12 384.08 1028.48 386.34 1027.13 C386.39 1011.14 386.43 995.15 386.45 979.17 C386.46 971.74 386.47 964.32 386.49 956.89 C386.51 950.41 386.53 943.93 386.53 937.45 C386.53 934.03 386.54 930.6 386.55 927.18 C386.67 909.44 386.67 909.44 385.52 891.75 C385.45 891.06 385.38 890.37 385.31 889.66 C384.73 884.99 383.45 881.29 381.34 877.13 C378.87 875.47 378.87 875.47 376.34 874.13 C374.82 871.86 374.82 871.86 373.53 869.32 C371 864.79 368.44 862.23 364.08 859.48 C362.05 857.9 361.46 856.4 360.34 854.13 C356.44 852.1 352.56 850.89 348.34 849.69 C342.64 848.03 337.75 846.23 334.34 841.13 C328.35 838.74 321.64 838.82 315.28 838.88 C314.43 838.87 313.59 838.86 312.72 838.86 C306.09 838.88 298.74 838.92 293.91 844.07 Z M687.34 846.13 C683.71 848.41 680.46 849.35 676.28 850.07 C671.99 850.85 669.37 851.82 666.34 855.13 C666.01 855.99 665.68 856.86 665.34 857.75 C665.01 858.54 664.68 859.32 664.34 860.13 C662.68 860.8 661.01 861.47 659.34 862.13 C656.21 865.33 654.24 868.19 652.41 872.25 C650.93 875.48 650.59 876 647.28 877.75 C641.44 882.47 641.6 891.47 640.82 898.6 C640.24 904.54 640.17 910.45 640.15 916.42 C640.14 917.6 640.13 918.79 640.13 920.01 C640.1 923.9 640.08 927.8 640.07 931.69 C640.06 933.03 640.06 934.38 640.05 935.73 C640.03 941.32 640.01 946.92 640 952.51 C639.99 960.51 639.95 968.51 639.9 976.51 C639.86 982.15 639.84 987.79 639.83 993.43 C639.83 996.8 639.82 1000.16 639.78 1003.52 C639.75 1007.27 639.75 1011.01 639.76 1014.75 C639.74 1015.86 639.73 1016.98 639.71 1018.12 C639.72 1019.14 639.73 1020.16 639.74 1021.2 C639.73 1022.09 639.73 1022.97 639.73 1023.88 C640.17 1026.34 640.17 1026.34 642.53 1027.91 C645.6 1029.24 647.64 1029.5 650.97 1029.5 C652.65 1029.51 652.65 1029.51 654.36 1029.52 C656.19 1029.51 656.19 1029.51 658.06 1029.5 C659.35 1029.5 660.64 1029.51 661.97 1029.51 C665.51 1029.52 669.04 1029.51 672.58 1029.5 C676.28 1029.49 679.98 1029.49 683.68 1029.49 C689.89 1029.49 696.11 1029.48 702.32 1029.46 C709.51 1029.44 716.69 1029.44 723.88 1029.45 C730.79 1029.45 737.7 1029.45 744.62 1029.44 C747.56 1029.43 750.5 1029.43 753.44 1029.43 C757.55 1029.43 761.65 1029.42 765.76 1029.4 C767.59 1029.41 767.59 1029.41 769.46 1029.41 C770.58 1029.4 771.7 1029.4 772.85 1029.39 C773.82 1029.39 774.79 1029.39 775.79 1029.38 C778.43 1029.12 780.08 1028.48 782.34 1027.13 C782.41 1011.36 782.47 995.59 782.5 979.82 C782.51 972.49 782.53 965.17 782.57 957.84 C782.6 951.45 782.62 945.05 782.63 938.65 C782.63 935.28 782.64 931.9 782.66 928.52 C782.74 915.63 782.62 902.86 781.07 890.04 C780.97 889.09 780.86 888.14 780.75 887.16 C780.04 882.03 780.04 882.03 777.4 877.66 C776.72 877.16 776.04 876.65 775.34 876.13 C772.02 872.97 769.66 870.06 767.34 866.13 C765.27 863.84 763.18 862 760.72 860.13 C758.34 858.13 758.34 858.13 757.47 856.07 C755.65 852.94 752.63 852.19 749.34 851.13 C747.51 850.66 745.68 850.21 743.84 849.75 C738.69 848.41 735.39 846.56 731.34 843.13 C730.85 842.14 730.85 842.14 730.34 841.13 C724.24 838.91 717.76 838.82 711.34 838.88 C710.51 838.87 709.67 838.86 708.8 838.86 C700.01 838.88 693.43 839.38 687.34 846.13 Z " fill="#000000" transform="translate(139.65676498413086,74.87136554718018)"/>
</svg>
