<?xml version="1.0" encoding="UTF-8"?>
<svg version="1.1" xmlns="http://www.w3.org/2000/svg" width="96" height="96">
<path d="M0 0 C9.95632076 0.77304766 22.93623483 4.42944629 29.80029297 11.98046875 C32.88065985 16.51802737 34.92162158 21.43856248 36.93066406 26.52099609 C37.97789773 28.94876109 39.19020142 31.08987872 40.5859375 33.33203125 C49.10931621 47.57093591 48.50330937 63.87593318 47 80 C45.19128539 81.80871461 42.70986693 81.12635822 40.30209351 81.13552856 C39.0755455 81.13249222 39.0755455 81.13249222 37.82421875 81.12939453 C36.53893784 81.13202301 36.53893784 81.13202301 35.22769165 81.13470459 C32.3809408 81.13912417 29.53425153 81.13618475 26.6875 81.1328125 C24.71834298 81.13348551 22.74918603 81.13445551 20.7800293 81.13571167 C16.64729015 81.13718879 12.51457258 81.13503364 8.38183594 81.13037109 C3.07175479 81.1246738 -2.23827581 81.12795273 -7.5483551 81.13394356 C-11.61625553 81.1375488 -15.68414389 81.13641076 -19.75204468 81.13381577 C-21.71056118 81.13314639 -23.66907876 81.13397527 -25.62759399 81.13629532 C-28.359832 81.13882124 -31.09198697 81.13498211 -33.82421875 81.12939453 C-35.05076675 81.13243088 -35.05076675 81.13243088 -36.30209351 81.13552856 C-41.88573754 81.11426246 -41.88573754 81.11426246 -43 80 C-43.31214587 74.36892536 -42.4595121 69.21643687 -41.35546875 63.70703125 C-41.18501541 62.83858078 -41.01456207 61.97013031 -40.83894348 61.07536316 C-40.47834039 59.25016211 -40.11424088 57.42564871 -39.74682617 55.60180664 C-39.18761236 52.81306034 -38.64699969 50.02111911 -38.10742188 47.22851562 C-37.75372782 45.45029697 -37.39894738 43.67229397 -37.04296875 41.89453125 C-36.88346237 41.0621846 -36.72395599 40.22983795 -36.55961609 39.37226868 C-35.00972697 31.83371691 -35.00972697 31.83371691 -32 29 C-30.03881836 28.08691406 -30.03881836 28.08691406 -27.83984375 27.515625 C-27.04642578 27.30292969 -26.25300781 27.09023438 -25.43554688 26.87109375 C-24.61119141 26.66613281 -23.78683594 26.46117188 -22.9375 26.25 C-22.10927734 26.02957031 -21.28105469 25.80914062 -20.42773438 25.58203125 C-14.38948467 24 -14.38948467 24 -12 24 C-11.76410156 23.19175781 -11.52820313 22.38351563 -11.28515625 21.55078125 C-9.70906635 17.1961742 -7.63314909 13.25621466 -5.4375 9.1875 C-5.02564453 8.41212891 -4.61378906 7.63675781 -4.18945312 6.83789062 C-1.14773261 1.14773261 -1.14773261 1.14773261 0 0 Z M3 8 C2.70754395 8.59538574 2.41508789 9.19077148 2.11376953 9.80419922 C0.78836183 12.49654862 -0.54323554 15.18578967 -1.875 17.875 C-2.33519531 18.81214844 -2.79539063 19.74929687 -3.26953125 20.71484375 C-3.71425781 21.61074219 -4.15898438 22.50664062 -4.6171875 23.4296875 C-5.02565918 24.25710449 -5.43413086 25.08452148 -5.85498047 25.93701172 C-7.18606209 28.33522914 -8.2115598 29.72756724 -10.84765625 30.63842773 C-11.57855469 30.81833252 -12.30945313 30.9982373 -13.0625 31.18359375 C-13.85914062 31.38919922 -14.65578125 31.59480469 -15.4765625 31.80664062 C-17.15793907 32.22698477 -18.8402378 32.64365742 -20.5234375 33.05664062 C-21.32007813 33.26353516 -22.11671875 33.47042969 -22.9375 33.68359375 C-23.66839844 33.86462646 -24.39929688 34.04565918 -25.15234375 34.23217773 C-27.36993861 34.95313692 -27.36993861 34.95313692 -29 38 C-29.45601261 40.50896686 -29.45601261 40.50896686 -29.625 43.1875 C-29.69976563 44.08855469 -29.77453125 44.98960938 -29.8515625 45.91796875 C-29.92503906 46.94857422 -29.92503906 46.94857422 -30 48 C-27.36 48 -24.72 48 -22 48 C-22 49.98 -22 51.96 -22 54 C-25.3 54 -28.6 54 -32 54 C-33.32 60.93 -34.64 67.86 -36 75 C-29.4 75 -22.8 75 -16 75 C-15.938125 73.185 -15.87625 71.37 -15.8125 69.5 C-15.30705682 63.55402254 -14.06155789 59.42776393 -10 55 C-5.45802885 51.45504691 -0.56140305 51.43341507 5.01953125 51.5859375 C10.80513191 52.38970378 14.4612674 54.96490204 17.9375 59.5625 C19.52117294 64.68614775 19.70268536 69.64833654 20 75 C26.93 75 33.86 75 41 75 C41.0539165 71.2498081 41.09363473 67.50039039 41.125 63.75 C41.15013672 62.15478516 41.15013672 62.15478516 41.17578125 60.52734375 C41.18222656 59.50253906 41.18867187 58.47773437 41.1953125 57.421875 C41.20578613 56.47924805 41.21625977 55.53662109 41.22705078 54.56542969 C41.12625314 51.64147268 41.12625314 51.64147268 39 48 C34.71 48 30.42 48 26 48 C26 46.02 26 44.04 26 42 C29.3 42 32.6 42 36 42 C34.68 39.03 33.36 36.06 32 33 C25.07 33 18.14 33 11 33 C11 31.02 11 29.04 11 27 C16.61 27 22.22 27 28 27 C27.34 25.02 26.68 23.04 26 21 C25.81308594 20.14019531 25.62617187 19.28039062 25.43359375 18.39453125 C23.07773772 14.45954557 19.18992513 13.3802261 15.0625 11.6875 C14.23814453 11.32849609 13.41378906 10.96949219 12.56445312 10.59960938 C7.94847837 8.5771551 7.94847837 8.5771551 3 8 Z M-6 60 C-10.50668092 64.65690362 -10 68.53930681 -10 75 C-2.08 75 5.84 75 14 75 C14 68.44324134 13.84615099 63.94429413 9.1875 59.125 C3.42658561 56.16224403 -0.40120678 56.93650937 -6 60 Z " fill="#000000" transform="translate(46,9)"/>
</svg>
