<?xml version="1.0" encoding="UTF-8"?>
<!-- Generator: visioncortex VTracer 0.6.3 -->
<svg version="1.1" xmlns="http://www.w3.org/2000/svg" width="1280" height="1266">
<path d="M0 0 C5.71 0.71 5.71 0.71 7 2 C8.34 2.27 9.7 2.49 11.06 2.68 C11.91 2.81 12.76 2.93 13.64 3.05 C14.56 3.18 15.49 3.31 16.44 3.44 C17.38 3.57 18.32 3.71 19.29 3.84 C24.66 4.59 30.02 5.22 35.41 5.72 C45.06 6.64 53.07 7.83 60 15 C67.82 17.93 76.35 18.04 84.6 18.77 C94.43 19.72 102.28 20.91 109.79 27.6 C115.79 31.4 123.3 31.38 130.19 31.88 C140.73 32.77 150.75 33.95 159.24 40.83 C166.06 45.35 177.05 44.9 184.94 45.68 C194.55 46.76 202.41 48.89 210 55 C212.67 55.72 215.1 56.23 217.81 56.62 C218.56 56.75 219.3 56.87 220.06 56.99 C224.48 57.69 228.91 58.23 233.35 58.71 C242.1 59.68 251.16 60.99 258 67 C258 67.66 258 68.32 258 69 C259.07 69.11 260.13 69.22 261.23 69.33 C266.16 69.85 271.08 70.42 276 71 C276.88 71.1 277.75 71.2 278.65 71.31 C289.54 72.61 298.98 73.89 308.07 80.5 C313.32 83.19 319.22 83.9 324.98 85.02 C331.88 86.46 335.94 88 340.06 94 C341.02 95.49 341.02 95.49 342 97 C344.09 99.23 346.27 101.23 348.56 103.25 C355.82 111.44 355.21 122.56 354.69 132.88 C354.65 133.8 354.62 134.73 354.58 135.69 C354.11 145.79 352.83 153.65 347 162 C344.41 165.8 343.49 168.75 342.94 173.31 C342.78 174.54 342.62 175.77 342.46 177.04 C342.15 179.73 341.84 182.42 341.54 185.12 C339.33 204.55 339.33 204.55 333.2 211.23 C328.6 218.02 328.75 228.18 328.06 236.12 C327.34 244.41 326.6 252.8 320.98 259.36 C318.62 262.51 317.98 265.02 317.19 268.88 C316.93 270.05 316.68 271.22 316.42 272.43 C315.97 276.23 316.17 279.27 317 283 C319.09 284.77 319.09 284.77 322 286 C323.86 287.22 325.7 288.47 327.55 289.72 C335 293.61 342.66 294.66 350.94 295.5 C361.44 296.57 370.17 297.99 379 304 C386.59 307.29 394.49 307.94 402.65 308.73 C408.75 309.41 412.96 310.43 418 314 C422.36 319.87 423.36 328.8 422.75 335.95 C422.41 337.89 422.04 339.83 421.63 341.76 C421.03 344.85 420.66 347.91 420.34 351.03 C419.51 359.03 418.49 367.05 412.99 373.27 C410.14 377.18 409.55 381.38 408.67 386.03 C407.31 392.32 404.61 395.48 399.98 399.95 C398 401 398 401 395.8 400.71 C394.98 400.41 394.16 400.12 393.31 399.81 C388.2 398.22 383.23 397.33 377.94 396.69 C377.19 396.59 376.44 396.49 375.66 396.38 C373.78 396.17 371.89 396.07 370 396 C366.95 399.05 366.6 403.13 365.68 407.24 C364.31 412.81 362.06 416.94 358 421 C357.4 423.51 356.92 425.96 356.5 428.5 C356.37 429.25 356.24 430 356.11 430.77 C355.31 435.55 354.74 440.31 354.28 445.12 C352.6 462.9 352.6 462.9 346.98 467.74 C344.14 470.98 343.83 474.14 343.19 478.31 C343.05 479.05 342.92 479.78 342.78 480.54 C342 485.25 341.96 489.28 343 494 C347.58 499.93 354.18 502.56 361 505 C365.06 506.57 367.96 508.61 371.06 511.62 C371.69 512.24 372.32 512.85 372.97 513.48 C374.37 516.9 373.2 518.74 371.92 522.06 C370.77 525.73 370.25 529.41 369.75 533.22 C369.66 533.97 369.56 534.71 369.45 535.48 C369.05 538.61 368.66 541.73 368.27 544.86 C365.74 565.26 365.74 565.26 359.9 571.09 C356.8 574.2 356.13 578.38 355.02 582.51 C353.64 587.16 352.06 589.37 348 592 C344.83 593.58 341.51 592.95 338.06 592.75 C336.92 592.68 336.92 592.68 335.76 592.62 C329.58 592.19 323.86 591.01 318 589 C315.67 594.35 313.79 599.55 312.5 605.25 C311.37 610.04 310.05 613.16 307 617 C305.13 619.8 304.69 620.81 304.22 623.96 C304.1 624.73 303.98 625.51 303.86 626.31 C303.74 627.14 303.62 627.96 303.5 628.81 C303.37 629.66 303.24 630.51 303.11 631.38 C302.52 635.28 301.97 639.17 301.5 643.09 C300.5 651.3 298.95 657.18 293.88 663.75 C289.55 671.25 289.66 680.53 290 689 C294.33 690.6 298.29 691.35 302.88 691.81 C308.97 692.62 313.3 694.01 318 698 C318.54 698.45 319.08 698.89 319.63 699.36 C321.4 701.48 321.71 703.17 322.19 705.88 C322.43 707.14 322.43 707.14 322.67 708.43 C323.53 715.11 323.53 715.11 321.62 718.31 C320.82 719.15 320.82 719.15 320 720 C319.34 720 318.68 720 318 720 C317.92 720.65 317.84 721.3 317.76 721.97 C317.64 722.88 317.53 723.79 317.41 724.72 C317.23 726.23 317.23 726.23 317.04 727.77 C316.62 731.08 316.2 734.39 315.79 737.69 C315.32 741.34 314.88 744.99 314.5 748.65 C313.32 759.08 310.8 765.18 304 773 C303.4 773.97 302.8 774.94 302.19 775.94 C299.32 779.96 295.8 782.88 292 786 C291.09 785.38 290.18 784.76 289.25 784.12 C283.83 780.58 279.75 779.48 273.38 778.75 C272.6 778.65 271.82 778.54 271.02 778.44 C269.02 778.2 267.01 778.09 265 778 C262.04 780.96 262.49 784.38 262.19 788.38 C261.4 796.86 259.52 804.25 255.01 811.61 C251.28 818.11 250.81 824.96 250 832.31 C247.54 854.45 247.54 854.45 241.38 861.12 C238.38 864.75 237.14 868.28 237 873 C237.82 876.26 238.41 877.61 241.24 879.48 C242.11 879.86 242.98 880.23 243.88 880.62 C246.46 881.78 248.72 882.78 250.95 884.53 C253.49 886.35 255.89 887.05 258.88 887.94 C264.62 889.78 268.46 891.7 272.94 895.75 C274.6 899.27 273.96 902.37 273 906 C271.4 910.3 269.55 914.18 267 918 C266.34 918 265.68 918 265 918 C264.92 918.67 264.85 919.35 264.77 920.04 C260.02 962.22 260.02 962.22 248.94 971.77 C239.98 977.43 228.86 974.51 219.12 972.44 C217.08 971.97 215.04 971.49 213 971 C210.78 976.64 209.68 981.92 209.06 987.94 C208.07 997.16 205.84 1003.79 200 1011 C197.44 1017.68 196.92 1024.94 196 1032 C199.13 1033.04 201.3 1033.13 204.59 1033.13 C205.76 1033.13 206.93 1033.14 208.13 1033.14 C210.07 1033.14 210.07 1033.14 212.05 1033.14 C213.43 1033.14 214.81 1033.14 216.19 1033.15 C220 1033.15 223.8 1033.16 227.61 1033.16 C231.71 1033.16 235.81 1033.17 239.91 1033.17 C247.02 1033.18 254.13 1033.19 261.24 1033.2 C272.48 1033.21 283.72 1033.23 294.96 1033.25 C298.8 1033.26 302.65 1033.27 306.49 1033.27 C307.45 1033.28 308.41 1033.28 309.4 1033.28 C320.35 1033.3 331.29 1033.32 342.23 1033.34 C343.73 1033.34 343.73 1033.34 345.26 1033.34 C361.47 1033.37 377.67 1033.39 393.88 1033.4 C410.51 1033.42 427.15 1033.45 443.79 1033.49 C454.05 1033.51 464.31 1033.53 474.57 1033.53 C481.6 1033.53 488.64 1033.54 495.68 1033.57 C499.73 1033.58 503.79 1033.58 507.85 1033.58 C511.57 1033.57 515.29 1033.58 519.01 1033.6 C520.98 1033.61 522.96 1033.6 524.93 1033.59 C533.32 1033.65 541.18 1034.12 548.06 1039.31 C551.25 1043.74 551.12 1048.56 551.15 1053.88 C551.15 1055.58 551.15 1055.58 551.16 1057.32 C551.17 1058.53 551.17 1059.74 551.17 1060.99 C551.17 1062.25 551.17 1063.51 551.18 1064.81 C551.18 1067.47 551.19 1070.13 551.19 1072.79 C551.19 1076.18 551.2 1079.58 551.22 1082.97 C551.23 1086.23 551.23 1089.48 551.23 1092.74 C551.24 1093.95 551.24 1095.16 551.25 1096.4 C551.21 1111.73 551.21 1111.73 546.69 1116.38 C539.83 1120.52 533.18 1121.15 525.29 1121.13 C524.14 1121.13 524.14 1121.13 522.98 1121.13 C520.41 1121.14 517.85 1121.13 515.29 1121.13 C513.43 1121.13 511.57 1121.14 509.71 1121.14 C504.57 1121.14 499.43 1121.14 494.29 1121.14 C488.71 1121.14 483.13 1121.15 477.55 1121.15 C466.47 1121.16 455.39 1121.16 444.31 1121.16 C431.73 1121.16 419.14 1121.17 406.56 1121.17 C374.57 1121.19 342.59 1121.2 310.6 1121.2 C294.68 1121.2 278.75 1121.21 262.83 1121.21 C211.75 1121.22 160.68 1121.23 109.6 1121.24 C107.16 1121.24 104.72 1121.24 102.28 1121.24 C97.38 1121.24 92.49 1121.24 87.59 1121.24 C81.86 1121.24 76.13 1121.24 70.4 1121.24 C68.76 1121.24 67.11 1121.24 65.47 1121.24 C12.78 1121.24 -39.92 1121.26 -92.61 1121.28 C-130.48 1121.3 -168.34 1121.31 -206.2 1121.32 C-206.98 1121.32 -207.76 1121.32 -208.56 1121.32 C-225.65 1121.32 -242.75 1121.32 -259.84 1121.32 C-265.95 1121.32 -272.07 1121.32 -278.19 1121.32 C-279.71 1121.32 -281.23 1121.32 -282.75 1121.32 C-307 1121.32 -331.24 1121.33 -355.49 1121.35 C-379.91 1121.36 -404.33 1121.37 -428.76 1121.36 C-432.13 1121.36 -435.51 1121.36 -438.88 1121.36 C-439.54 1121.36 -440.2 1121.36 -440.89 1121.36 C-452 1121.35 -463.11 1121.36 -474.22 1121.38 C-483.88 1121.38 -493.54 1121.38 -503.21 1121.37 C-508.72 1121.37 -514.23 1121.37 -519.74 1121.38 C-524.75 1121.39 -529.76 1121.39 -534.78 1121.38 C-536.58 1121.37 -538.38 1121.38 -540.18 1121.38 C-564.92 1121.49 -564.92 1121.49 -571.19 1115.38 C-572.08 1114.2 -572.08 1114.2 -573 1113 C-573.33 1112.67 -573.66 1112.34 -574 1112 C-574.12 1109.89 -574.17 1107.77 -574.19 1105.65 C-574.2 1104.98 -574.21 1104.32 -574.22 1103.64 C-574.24 1101.43 -574.26 1099.23 -574.27 1097.02 C-574.28 1096.27 -574.28 1095.51 -574.29 1094.74 C-574.32 1090.75 -574.34 1086.76 -574.35 1082.77 C-574.37 1078.66 -574.41 1074.55 -574.46 1070.43 C-574.5 1067.26 -574.51 1064.1 -574.51 1060.93 C-574.52 1059.41 -574.54 1057.9 -574.56 1056.38 C-574.59 1054.25 -574.59 1052.13 -574.58 1050 C-574.59 1048.79 -574.6 1047.58 -574.61 1046.33 C-573.84 1042.11 -572.37 1039.56 -569 1037 C-560.95 1032.85 -551.58 1033.56 -542.77 1033.58 C-541.14 1033.58 -539.52 1033.57 -537.9 1033.56 C-533.52 1033.53 -529.14 1033.53 -524.77 1033.53 C-520.18 1033.52 -515.59 1033.5 -511 1033.48 C-502.32 1033.44 -493.64 1033.41 -484.96 1033.4 C-469.4 1033.36 -453.83 1033.3 -438.27 1033.24 C-432.8 1033.22 -427.34 1033.2 -421.88 1033.19 C-418.49 1033.19 -415.1 1033.18 -411.71 1033.16 C-410.14 1033.16 -408.56 1033.16 -406.99 1033.16 C-404.85 1033.15 -402.7 1033.15 -400.56 1033.14 C-399.36 1033.14 -398.16 1033.13 -396.92 1033.13 C-393.94 1033.13 -393.94 1033.13 -391 1032 C-390.87 1030.55 -390.87 1030.55 -390.74 1029.07 C-389.72 1019.59 -387.72 1012.52 -382.31 1004.5 C-378.91 998.01 -378.79 990.24 -378.06 983.06 C-377.07 973.58 -375.98 964.72 -370 957 C-367.75 953.63 -367.54 951.74 -367.07 947.75 C-366.91 946.5 -366.76 945.25 -366.6 943.96 C-366.29 941.35 -365.98 938.74 -365.68 936.13 C-363.36 917.71 -363.36 917.71 -357.41 910.82 C-353.2 905.4 -353.24 897.49 -352.44 890.88 C-349.16 864.82 -349.16 864.82 -343.99 858.58 C-340.18 853.65 -339.74 848.03 -339.37 841.97 C-339.28 840.69 -339.2 839.4 -339.11 838.08 C-339.03 836.74 -338.95 835.4 -338.88 834.06 C-338.79 832.7 -338.7 831.33 -338.61 829.97 C-338.4 826.64 -338.2 823.32 -338 820 C-342.48 817.55 -346.98 817.35 -351.98 816.96 C-356.94 816.47 -360.02 815.22 -364 812 C-367.14 807.28 -366.19 802.54 -366 797 C-365.98 796.31 -365.96 795.62 -365.94 794.9 C-365.03 764.72 -365.03 764.72 -356.49 755.34 C-353.89 751.26 -353.52 746.44 -352.71 741.73 C-351.63 736.14 -350.08 733.02 -346 729 C-341.25 727.19 -337.03 728.54 -332.22 729.52 C-325.56 730.52 -317.43 731.14 -311 729 C-310.34 727.09 -310.34 727.09 -310.06 724.81 C-309.07 719.59 -306.78 716.19 -303.44 712.08 C-299.25 706.02 -299.71 697.13 -299.06 690 C-298.14 680.05 -296.8 672.33 -291 664 C-288.48 658.77 -287.51 653.67 -286.75 647.94 C-286.66 647.26 -286.57 646.59 -286.47 645.9 C-285.94 641.41 -286.05 637.42 -287 633 C-289.31 630.69 -290.51 630.5 -293.62 629.75 C-299.09 628.19 -302.72 625.65 -307 622 C-307.63 621.5 -308.26 621 -308.91 620.49 C-312.79 617.35 -315.45 614.28 -318 610 C-317.7 609.43 -317.4 608.87 -317.09 608.29 C-313.64 601.07 -312.76 593.43 -312.06 585.56 C-311.09 574.93 -308.29 566.15 -303.29 556.71 C-301.23 552.36 -299.84 547.79 -298.41 543.2 C-296.76 539.46 -295.23 537.49 -292 535 C-284.19 532.96 -275.5 534.79 -268.32 538.32 C-266.49 539.46 -264.73 540.72 -263 542 C-260.89 536.98 -258.95 532.01 -257.5 526.75 C-256.3 522.58 -254.61 519.5 -252 516 C-246.49 508.16 -246.52 498.16 -245.88 488.9 C-245.19 480.49 -244.08 473.1 -238.21 466.8 C-233.31 459.5 -233.3 448.47 -234 440 C-234.33 439.01 -234.66 438.02 -235 437 C-236.21 436.83 -237.41 436.66 -238.66 436.48 C-240.27 436.24 -241.89 436 -243.5 435.75 C-244.29 435.64 -245.08 435.53 -245.9 435.42 C-252.65 434.37 -257.9 432.2 -263.47 428.25 C-265.7 424.98 -265.55 421.87 -265.44 418.06 C-265.44 417.36 -265.45 416.66 -265.46 415.93 C-265.4 411.36 -264.51 408.75 -262 405 C-261.29 402.66 -261.29 402.66 -260.94 400.19 C-260.78 399.23 -260.62 398.28 -260.46 397.29 C-260.03 394.22 -259.69 391.15 -259.35 388.07 C-258.24 378.04 -256.37 369.96 -250 362 C-248.93 359.23 -248 356.45 -247.12 353.62 C-245.85 350.65 -244.47 349.06 -242 347 C-236.73 345.24 -232.15 345.91 -226.81 347 C-220.93 348.14 -214.98 348.65 -209 348 C-206.71 345.71 -206.67 345.03 -206.29 341.93 C-206.18 341.12 -206.07 340.3 -205.95 339.46 C-205.74 337.76 -205.53 336.06 -205.32 334.36 C-204.46 328.15 -203.05 322 -198.44 317.46 C-193.84 312.79 -194.28 303.43 -193.62 297.31 C-191.34 277.65 -191.34 277.65 -185.94 270.12 C-182.76 264.99 -181.61 258.98 -181 253 C-183.49 249.26 -184.62 249.39 -188.88 248.38 C-195.45 246.5 -199.97 243.5 -205.25 239.22 C-208.01 236.92 -208.01 236.92 -211.23 234.87 C-214.3 232.8 -215.61 231.42 -217 228 C-216.89 222.81 -214.67 219.3 -212 215 C-211.34 215 -210.68 215 -210 215 C-209.54 212 -209.08 209 -208.62 206 C-208.49 205.09 -208.35 204.19 -208.2 203.26 C-207.46 198.3 -206.8 193.36 -206.28 188.38 C-204.8 174.67 -199.34 164.08 -190 154 C-187.29 152.01 -184.63 151.52 -181.25 151.61 C-174.86 152.71 -168.33 155.42 -162.98 159.05 C-157.5 162.26 -150.94 162.32 -144.75 163 C-122.56 165.45 -122.56 165.45 -115.88 171.62 C-108.94 177.35 -98.5 176.41 -89.94 176.62 C-88.07 176.68 -88.07 176.68 -86.16 176.74 C-83.11 176.84 -80.05 176.92 -77 177 C-76.91 176.05 -76.81 175.11 -76.71 174.13 C-76.35 170.57 -75.96 167.01 -75.57 163.45 C-75.4 161.92 -75.24 160.39 -75.09 158.85 C-73.09 138.94 -73.09 138.94 -66.41 132.46 C-61.2 127.07 -61.95 114.4 -61.23 107.38 C-59.38 90.52 -59.38 90.52 -53.2 83.77 C-48.5 76.84 -48.72 66.46 -48.06 58.38 C-46.57 40.27 -46.57 40.27 -41.01 35.18 C-38.4 32.35 -37.68 29.37 -36.69 25.75 C-34.04 17.14 -30.49 11.69 -22.56 7.25 C-16.71 4.57 -10.5 3.21 -4.25 1.8 C-1.17 1.34 -1.17 1.34 0 0 Z M35 108 C33.7 110.83 33.7 110.83 32.94 113.94 C31.57 118.52 30.13 121.35 27 125 C24.48 132.08 24.05 139.49 23.32 146.93 C22.55 153.88 20.84 159.63 18 166 C17.67 166.99 17.34 167.98 17 169 C16.34 169 15.68 169 15 169 C10.96 177.96 9.29 192.31 11 202 C13.89 205.1 17.36 205.82 21.38 206.88 C28.44 208.92 28.44 208.92 31.31 211.62 C38.22 217.73 50.24 216.96 59 217.77 C75.5 219.44 75.5 219.44 81 225 C81.66 225 82.32 225 83 225 C83 225.66 83 226.32 83 227 C90.51 229.33 97.69 230.33 105.5 230.94 C115.83 231.79 124.84 233.23 133.14 239.83 C138.76 243.37 147.03 243.3 153.5 244.04 C175.24 246.53 175.24 246.53 181.2 252.03 C185.07 254.75 188.62 255.07 193.25 255.62 C194.13 255.74 195 255.86 195.91 255.98 C198.6 256.34 201.3 256.68 204 257 C204.83 257.1 205.66 257.2 206.51 257.3 C209.52 257.67 212.52 258.02 215.53 258.35 C219.07 258.74 222.53 259.24 226 260 C229.38 254.21 229.96 248.69 230.73 242.16 C231.7 235 234.21 229.83 238.05 223.76 C240.19 220 240.88 216.28 241.34 212.01 C241.44 211.27 241.54 210.53 241.63 209.76 C241.94 207.4 242.22 205.05 242.5 202.69 C245.28 179.38 245.28 179.38 251.12 172.5 C253.88 168.82 254.79 164.58 255 160 C252.6 157.6 251.69 157.64 248.38 157.29 C247.45 157.18 246.52 157.07 245.56 156.96 C244.08 156.79 244.08 156.79 242.56 156.62 C222.84 154.17 222.84 154.17 218.19 148.98 C215.28 146.35 212.38 145.9 208.62 145.31 C207.92 145.19 207.21 145.07 206.49 144.94 C201.89 144.18 197.34 143.76 192.69 143.5 C183.81 142.98 176.18 141.47 169 136 C165.1 133.29 162.01 132.47 157.3 131.94 C156.01 131.78 154.72 131.62 153.38 131.46 C152.03 131.31 150.67 131.15 149.31 131 C126.37 128.39 126.37 128.39 119.38 122.94 C113.08 118.05 105.47 117.74 97.81 117.12 C86.67 116.07 77.24 113.28 67.3 108.1 C61.14 105.16 54.48 104.72 47.75 104.12 C47.06 104.05 46.38 103.98 45.67 103.9 C40.73 103.55 38.32 104.32 35 108 Z M-92 274 C-94.41 279.01 -95.48 283.38 -95.94 288.94 C-96.72 296.48 -98.21 301.63 -103.12 307.56 C-107.56 313.33 -107.4 320.64 -107.88 327.62 C-108.75 338.46 -109.85 348.6 -116.89 357.32 C-119.02 360.55 -119.48 364.23 -120 368 C-120.14 368.95 -120.29 369.9 -120.44 370.88 C-120.2 373.19 -120.2 373.19 -118.02 374.51 C-113.49 376.74 -108.79 377.45 -103.86 378.37 C-98.37 379.48 -93.88 381.3 -89 384 C-77.09 390.54 -63.9 389.23 -51 387 C-49.39 381.34 -48.59 375.87 -48.01 370.02 C-46.83 358.13 -45.13 348.93 -38.96 338.59 C-36.02 332.67 -35.71 326.17 -35 319.69 C-33.91 309.87 -32.45 300.91 -28 292 C-28.83 291.69 -29.67 291.37 -30.53 291.05 C-49.01 284.02 -49.01 284.02 -52.06 280.88 C-57.4 275.71 -68.25 276.14 -75.25 275.38 C-77.01 275.17 -77.01 275.17 -78.8 274.97 C-83.23 274.47 -87.53 274 -92 274 Z M60 319 C58.36 321.27 57.25 323.45 56 326 C55.49 326.76 54.98 327.51 54.45 328.29 C52.7 331.57 52.36 334.19 51.97 337.88 C51.82 339.23 51.66 340.58 51.51 341.92 C51.28 344.01 51.06 346.11 50.85 348.2 C49.74 358.56 47.79 367.69 43 377 C42.34 377 41.68 377 41 377 C39.06 382.05 38.39 386.85 37.88 392.19 C37.79 393.03 37.71 393.87 37.63 394.73 C36.39 403.91 36.39 403.91 37 413 C39.77 415.74 42.77 416.73 46.44 417.88 C51.17 419.5 53.5 421.41 57 425 C63.76 427.11 70.68 427.82 77.69 428.62 C78.8 428.76 79.92 428.89 81.06 429.03 C88.02 429.97 88.02 429.97 95 430 C98.77 425.77 100.12 420.9 101.93 415.6 C102.93 413.17 103.83 411.76 105.62 409.88 C111.09 403.26 110.55 393.14 111.12 384.9 C111.77 376.97 112.95 368.88 118.06 362.5 C121.39 357.77 122.4 353.71 123 348 C123.07 347.35 123.14 346.71 123.21 346.04 C123.44 343.89 123.63 341.73 123.81 339.56 C123.88 338.86 123.94 338.16 124.01 337.45 C124.34 333.66 124.34 333.66 122.77 330.35 C120.67 328.75 119.21 328.4 116.61 327.97 C115.33 327.74 115.33 327.74 114.02 327.51 C112.23 327.21 110.45 326.92 108.67 326.63 C102.08 325.45 96.26 323.65 91 319.38 C82.94 313.83 67.49 312.49 60 319 Z M212 356 C210.17 359.19 209.62 361.86 209.25 365.51 C209.14 366.58 209.02 367.65 208.9 368.75 C208.68 370.98 208.45 373.2 208.23 375.43 C206.38 392.57 206.38 392.57 200.2 399.29 C195.83 405.53 195.81 414.44 195.12 421.81 C194.15 432.18 191.7 442.14 186 451 C187.1 451.68 188.19 452.35 189.32 453.05 C190.78 453.95 192.23 454.85 193.69 455.75 C194.77 456.42 194.77 456.42 195.87 457.09 C198.96 459.01 201.79 460.81 204.51 463.23 C207.87 465.62 211.19 466.05 215.19 466.56 C216.39 466.74 216.39 466.74 217.62 466.91 C229.05 468.5 240.53 469.75 252 471 C254.29 467.56 255.41 464.98 255.81 460.87 C255.97 459.42 255.97 459.42 256.13 457.94 C256.23 456.93 256.33 455.92 256.44 454.88 C258.76 434.88 258.76 434.88 264.03 430.2 C266.67 427.25 267.03 424.35 267.56 420.56 C267.68 419.83 267.8 419.1 267.92 418.34 C268.6 414.07 269.16 409.78 269.71 405.49 C269.89 404.11 269.89 404.11 270.08 402.69 C270.31 400.9 270.53 399.11 270.73 397.31 C271.54 391.05 273 384.99 277.6 380.4 C279.42 378.58 279.48 377.35 279.69 374.81 C279.79 373.55 279.89 372.3 280 371 C277.01 369.32 274.55 368.65 271.15 368.29 C269.75 368.12 269.75 368.12 268.32 367.95 C266.38 367.74 264.44 367.53 262.5 367.32 C254.92 366.41 247.44 364.85 241.44 359.88 C233.63 353.87 221.32 355.82 212 356 Z M-144 462 C-146.68 464.68 -146.5 466.45 -146.93 470.19 C-147.09 471.44 -147.24 472.7 -147.4 474 C-147.72 476.63 -148.02 479.27 -148.32 481.91 C-149.39 490.46 -150.57 498.76 -156.12 505.62 C-160.34 510.97 -160.31 518.44 -160.81 525 C-161.41 531.54 -162.46 537.67 -164.44 543.94 C-164.64 544.59 -164.85 545.25 -165.06 545.92 C-165.98 548.66 -166.92 550.89 -168.67 553.2 C-170.52 555.71 -170.02 557.72 -169.62 560.71 C-168.68 564.18 -167.85 566.87 -166 570 C-163.21 571.27 -160.41 571.48 -157.38 571.75 C-155.64 571.97 -153.91 572.18 -152.18 572.4 C-151.3 572.5 -150.43 572.6 -149.53 572.7 C-145.86 573.13 -142.21 573.69 -138.56 574.31 C-137.89 574.43 -137.21 574.54 -136.51 574.66 C-129.78 575.89 -123.29 577.86 -116.77 579.93 C-112.52 581.28 -108.44 582.41 -104 583 C-101.24 574.06 -100.16 565.09 -99.27 555.81 C-98.43 548.04 -96.99 540.56 -91.85 534.44 C-89.15 530.88 -88.92 527.36 -88.38 523 C-88.25 522.16 -88.13 521.31 -88.01 520.45 C-87.48 516.69 -86.99 512.94 -86.51 509.18 C-85.83 504.15 -85.17 499.96 -82.81 495.44 C-80.18 490.15 -80.59 484.64 -82 479 C-84.61 475.43 -87.58 475.2 -91.73 474.46 C-94.99 474 -98.25 473.67 -101.53 473.35 C-120.99 471.45 -120.99 471.45 -127.38 465.95 C-130.66 463.51 -133.15 463.14 -137.19 462.62 C-138.42 462.45 -139.65 462.28 -140.92 462.1 C-142.44 462.05 -142.44 462.05 -144 462 Z M13 503 C12.69 503.77 12.37 504.55 12.05 505.34 C5.21 521.98 5.21 521.98 2.48 524.28 C0.21 526.92 0.04 529.6 -0.56 533 C-0.69 533.7 -0.81 534.39 -0.94 535.11 C-1.9 540.68 -2.43 546.25 -2.94 551.88 C-3.79 561.07 -5.17 568.39 -12 575 C-15.74 585.04 -16.66 598.58 -14 609 C-10.82 611.16 -7.56 611.48 -3.8 611.93 C-1.99 612.16 -1.99 612.16 -0.13 612.4 C2.39 612.71 4.92 613.02 7.45 613.32 C23.88 615.47 23.88 615.47 28.88 621.12 C32.44 624.27 37.31 624.99 42 625 C44.86 623.54 45.8 622.46 47.09 619.51 C47.37 618.58 47.65 617.65 47.94 616.69 C49.1 613.17 50.08 610.52 52.62 607.81 C57.52 602.01 57.35 594.1 57.88 586.81 C58.78 576.17 60.02 566.24 66.9 557.66 C70.64 552.02 70.55 543.57 71 537 C71.07 536.24 71.13 535.47 71.2 534.68 C71.5 528.72 70.07 524.12 67 519 C61.01 512.6 49.17 513.11 41.07 512.32 C32.1 511.32 24.39 509.63 18 503 C15.43 502.85 15.43 502.85 13 503 Z M159 550 C156.57 554.82 156.5 559.65 156.12 564.94 C154.28 586.86 154.28 586.86 148.38 593.31 C143.03 599.36 143.48 609.15 142.69 616.88 C141.47 627.94 139.21 638.36 136 649 C142.3 651.26 148.24 652.3 154.88 652.88 C163.45 653.67 171.71 655.3 178.42 661.09 C181.5 663.37 183.66 663.77 187.44 664.25 C188.53 664.4 189.62 664.55 190.75 664.7 C193.88 664.99 196.86 665.2 200 665 C202.4 662.6 202.36 661.69 202.71 658.38 C202.82 657.45 202.93 656.52 203.04 655.56 C203.15 654.57 203.26 653.58 203.38 652.56 C205.87 632.58 205.87 632.58 211 628.35 C216.72 621.61 215.88 608.73 216.68 600.28 C217.67 591.12 219.39 583.61 226 577 C227.65 573.22 228.39 570.23 227.12 566.25 C224.66 563.64 222.32 562.46 219.04 561.09 C217 560 217 560 215.09 557.98 C208.39 551.64 194.01 552.24 185.19 551.43 C182.88 551.22 180.75 550.95 178.49 550.45 C174.73 549.77 171 549.9 167.19 549.94 C166.4 549.94 165.61 549.95 164.8 549.95 C162.87 549.96 160.93 549.98 159 550 Z M-197 658 C-199.42 662.9 -199.71 667.97 -200.31 673.31 C-203.36 697.76 -203.36 697.76 -210 704 C-212.81 710.49 -213.32 717.54 -213.94 724.5 C-214.77 733.56 -216.21 741.52 -221.81 748.94 C-224.32 751.68 -224.32 751.68 -223.64 754.19 C-223.32 755.09 -223.32 755.09 -223 756 C-222.38 756.13 -221.75 756.26 -221.11 756.4 C-218.24 757 -215.37 757.63 -212.5 758.25 C-211.52 758.45 -210.54 758.66 -209.52 758.87 C-196.02 761.84 -196.02 761.84 -191.5 766.57 C-188.98 768.97 -185.64 769.1 -182.31 769.62 C-181.57 769.75 -180.82 769.87 -180.05 769.99 C-174.76 770.82 -169.46 771.48 -164.12 771.94 C-162.83 772.05 -161.53 772.16 -160.2 772.28 C-156.98 772.35 -156.98 772.35 -155.35 770.3 C-153.82 767.69 -153.48 765.89 -153.19 762.89 C-153.08 761.91 -152.98 760.93 -152.87 759.91 C-152.67 757.87 -152.47 755.82 -152.27 753.77 C-151.43 746.1 -149.94 739.47 -144.86 733.47 C-142.25 730 -141.9 726.73 -141.31 722.5 C-141.19 721.7 -141.07 720.91 -140.94 720.09 C-140.25 715.4 -139.79 710.73 -139.5 706 C-138.9 696.71 -136.7 688.7 -130 682 C-129.47 680.1 -129.47 680.1 -129.25 678 C-129.15 677.3 -129.05 676.6 -128.95 675.88 C-128.79 673.75 -128.79 673.75 -131 672 C-133.37 671.31 -135.72 670.7 -138.12 670.12 C-144.64 668.48 -150.61 666.74 -155.92 662.45 C-166.18 655.3 -185.04 657.88 -197 658 Z M-40.2 698.54 C-42.46 701.63 -43.22 704.69 -44 708.38 C-45.22 713.82 -46.77 717.46 -50 722 C-52.39 726.24 -53.49 729.76 -54.06 734.58 C-54.3 736.44 -54.3 736.44 -54.54 738.35 C-54.69 739.64 -54.84 740.92 -55 742.25 C-57.7 764.86 -57.7 764.86 -63 772 C-63.99 772.5 -63.99 772.5 -65 773 C-67.32 779.97 -68.34 787.67 -68 795 C-65.91 798.39 -62.7 798.84 -59 799.81 C-54.5 801.1 -50.92 802.52 -47 805.06 C-37.16 810.78 -20.22 812.79 -9 811 C-4.1 809.39 -0.72 807.46 2 803 C2.55 800.34 2.95 797.81 3.25 795.12 C3.34 794.35 3.44 793.59 3.54 792.8 C3.95 789.53 4.34 786.26 4.73 782.99 C7.51 759.78 7.51 759.78 15 751 C17.96 742.72 18.65 733.65 19.57 724.95 C19.97 721.28 20.46 717.65 21 714 C16.31 710.78 11.43 709.76 5.97 708.63 C0.33 707.35 -3.85 705.15 -8 701 C-10.8 700.38 -13.54 699.87 -16.38 699.44 C-17.18 699.31 -17.99 699.18 -18.82 699.05 C-21.21 698.69 -23.61 698.34 -26 698 C-27.23 697.82 -28.45 697.63 -29.72 697.45 C-30.76 697.32 -31.8 697.19 -32.88 697.06 C-33.78 696.95 -34.68 696.84 -35.62 696.72 C-38.12 696.82 -38.12 696.82 -40.2 698.54 Z M107.62 742.62 C103.47 748.7 103.64 757.13 103.12 764.25 C101.42 784.23 101.42 784.23 95.47 790.79 C92.27 794.45 91.87 798.16 91.31 802.88 C91.2 803.7 91.08 804.53 90.97 805.38 C90.62 807.92 90.31 810.46 90 813 C89.8 814.54 89.61 816.08 89.41 817.62 C89.07 820.31 88.74 822.99 88.43 825.68 C88.07 828.49 87.6 831.23 87 834 C91.48 838.05 95.92 841.73 101 845 C101.66 845.66 102.32 846.32 103 847 C105.7 847.6 108.34 848.08 111.06 848.5 C111.86 848.63 112.66 848.76 113.48 848.89 C119 849.76 124.51 850.41 130.06 851 C136.06 851.63 141.39 852.76 147 855 C149.31 849.69 151.18 844.54 152.44 838.88 C153.53 834.18 155.05 830.65 157.82 826.72 C160.64 822.62 161.39 819.18 161.93 814.21 C162.09 812.87 162.24 811.52 162.4 810.17 C162.64 808.06 162.87 805.96 163.1 803.85 C164.23 793.46 165.78 783.73 171.62 774.81 C174.11 770.57 174.85 766.43 175.5 761.62 C175.65 760.57 175.65 760.57 175.81 759.5 C176.31 755.69 176.31 755.69 174.78 752.33 C172.6 750.7 171.23 750.51 168.54 750.26 C167.66 750.17 166.78 750.07 165.88 749.97 C164.48 749.83 164.48 749.83 163.06 749.69 C154.17 748.62 147.68 746.73 140 742 C136.76 740.14 133.81 739.47 130.12 738.88 C129.12 738.71 128.11 738.54 127.07 738.37 C119.58 737.47 113.88 738.34 107.62 742.62 Z M-250 850 C-251.93 856 -252.42 861.87 -252.88 868.12 C-254.66 889.09 -254.66 889.09 -260.56 896 C-266.41 903.2 -266.17 914.29 -266.94 923.25 C-267.65 931.39 -268.48 938.95 -274.03 945.34 C-276.36 948.48 -276.92 950.79 -277.62 954.62 C-277.74 955.26 -277.86 955.9 -277.99 956.56 C-279.08 962.73 -279.7 968.97 -280.18 975.21 C-280.8 982.42 -282.25 989.35 -287 995 C-287 995.66 -287 996.32 -287 997 C-287.66 997 -288.32 997 -289 997 C-292.5 1008.21 -293.96 1020.79 -290 1032 C-282.69 1032.18 -275.38 1032.34 -268.07 1032.49 C-264.67 1032.57 -261.28 1032.64 -257.88 1032.72 C-253.97 1032.82 -250.06 1032.9 -246.15 1032.98 C-244.94 1033.01 -243.73 1033.04 -242.48 1033.07 C-232.56 1033.33 -232.56 1033.33 -223.69 1029.38 C-219.44 1023.4 -219.61 1015.38 -219.12 1008.31 C-217.43 987.33 -217.43 987.33 -211.38 980.81 C-207.14 975.8 -207.17 969.8 -206.55 963.45 C-206.47 962.62 -206.38 961.8 -206.3 960.95 C-206.15 959.32 -206 957.68 -205.87 956.04 C-205.21 948.63 -203.82 940.09 -198 935 C-190.95 931.54 -184.25 929.45 -176.53 931.73 C-172.46 933.23 -169.07 934.81 -165.75 937.62 C-160.66 941.49 -154.16 941.42 -148 942 C-145.63 942.23 -143.26 942.46 -140.89 942.7 C-139.33 942.85 -137.77 943 -136.22 943.13 C-131.52 943.58 -128.19 944.68 -124 947 C-123.34 947 -122.68 947 -122 947 C-120.25 951.2 -118.8 955.49 -117.38 959.81 C-117.15 960.51 -116.92 961.2 -116.68 961.91 C-116.12 963.61 -115.56 965.3 -115 967 C-115.66 967 -116.32 967 -117 967 C-119.45 973.35 -120.47 979.11 -120.88 985.88 C-121.45 993.27 -122.51 1000.32 -124.38 1007.5 C-124.57 1008.28 -124.77 1009.06 -124.97 1009.87 C-126.24 1014.45 -127.82 1017.38 -131 1021 C-132.64 1025.37 -133.46 1028.5 -132 1033 C-130.17 1034.83 -127.24 1034.15 -124.78 1034.16 C-123.81 1034.17 -123.81 1034.17 -122.82 1034.18 C-120.66 1034.19 -118.51 1034.2 -116.35 1034.2 C-114.86 1034.21 -113.36 1034.21 -111.87 1034.22 C-108.74 1034.23 -105.6 1034.24 -102.46 1034.24 C-98.44 1034.25 -94.42 1034.27 -90.4 1034.3 C-87.32 1034.32 -84.23 1034.32 -81.14 1034.32 C-79.66 1034.33 -78.18 1034.33 -76.69 1034.35 C-74.62 1034.36 -72.55 1034.36 -70.48 1034.36 C-69.29 1034.36 -68.11 1034.36 -66.9 1034.37 C-64.03 1034.23 -64.03 1034.23 -62.13 1032.72 C-60.12 1029.67 -60.31 1025.99 -60.06 1022.44 C-58.59 1006.11 -58.59 1006.11 -52.99 1001.26 C-50.22 998.12 -49.76 994.74 -49 990.75 C-46.12 977.22 -46.12 977.22 -41.33 972.27 C-36.26 969.5 -29.41 971.73 -24 973 C-21.65 974.08 -19.75 975.21 -17.71 976.78 C-11.15 981.46 -2.08 981.75 5.69 982.43 C25.69 984.18 25.69 984.18 32.44 991.31 C38.01 998.6 37.6 1006.89 36.58 1015.58 C35.86 1020.75 35.06 1025.89 34 1031 C39.77 1034.8 45.41 1034.43 52.15 1034.4 C53.33 1034.4 54.5 1034.4 55.71 1034.41 C58.19 1034.41 60.66 1034.4 63.14 1034.39 C66.92 1034.38 70.7 1034.39 74.48 1034.41 C76.89 1034.41 79.3 1034.4 81.71 1034.4 C82.84 1034.4 83.97 1034.41 85.13 1034.42 C91.17 1034.36 95.7 1034.01 101 1031 C102.54 1029.02 102.54 1029.02 103.25 1026.69 C103.7 1025.49 103.7 1025.49 104.16 1024.26 C104.44 1023.52 104.72 1022.77 105 1022 C105.54 1021.01 106.07 1020.02 106.62 1019 C110.46 1010.64 110.79 1001.01 111.68 991.97 C112.54 984.29 113.91 976.54 119.12 970.56 C123.32 964.83 123.7 955.92 123 949 C120.81 944.15 117.71 941.48 113.07 939.09 C104.78 936.14 95.67 935.56 86.97 934.52 C71.46 932.56 71.46 932.56 65.94 926.88 C61.08 922.17 52.29 922.59 45.88 922.12 C24.12 920.27 24.12 920.27 17.69 914.38 C10.95 908.42 -1.01 909.13 -9.59 908.32 C-18.93 907.31 -27.27 905.85 -34 899 C-37.32 897.93 -37.32 897.93 -41.12 897.38 C-41.82 897.25 -42.52 897.13 -43.23 897.01 C-47.81 896.25 -52.38 895.73 -57 895.29 C-66.17 894.4 -74.76 893.4 -82.18 887.47 C-86.5 884.31 -90.78 883.86 -96 883.31 C-96.92 883.2 -97.84 883.08 -98.79 882.96 C-102.29 882.52 -105.8 882.13 -109.31 881.75 C-118.41 880.75 -125.34 879.87 -132.56 873.88 C-138.33 869.44 -145.64 869.6 -152.62 869.12 C-163.39 868.26 -173.57 867.19 -182.24 860.17 C-187.71 856.53 -195.73 856.64 -202.07 856.01 C-225.75 853.64 -225.75 853.64 -231.49 847.37 C-234.13 844.98 -237.03 845.54 -240.42 845.66 C-244.66 846.22 -246.67 847.23 -250 850 Z " fill="#000000" transform="translate(665,70)"/>
</svg>
