<?xml version="1.0" encoding="UTF-8"?>
<!-- Generator: visioncortex VTracer 0.6.3 -->
<svg version="1.1" xmlns="http://www.w3.org/2000/svg" width="1280" height="1280">
<path d="M0 0 C1.28 -0 1.28 -0 2.59 -0 C5.46 -0.01 8.34 -0.01 11.22 -0 C13.3 -0 15.39 -0.01 17.48 -0.01 C23.24 -0.01 29 -0.01 34.77 -0.01 C41.03 -0.01 47.29 -0.01 53.55 -0.01 C64.53 -0.02 75.51 -0.02 86.49 -0.02 C98.28 -0.02 110.06 -0.02 121.85 -0.02 C122.59 -0.02 123.34 -0.02 124.1 -0.02 C127.13 -0.02 130.16 -0.03 133.19 -0.03 C164.81 -0.04 196.44 -0.04 228.06 -0.04 C231.46 -0.04 234.87 -0.04 238.27 -0.04 C239.54 -0.04 239.54 -0.04 240.83 -0.04 C259.55 -0.04 278.26 -0.04 296.97 -0.05 C304.68 -0.05 312.38 -0.05 320.08 -0.05 C320.94 -0.05 321.79 -0.05 322.66 -0.05 C371.44 -0.06 420.23 -0.06 469.01 -0.06 C470.83 -0.06 472.66 -0.06 474.49 -0.06 C482.73 -0.06 490.97 -0.06 499.22 -0.06 C502.9 -0.06 506.57 -0.06 510.25 -0.06 C512.09 -0.06 513.93 -0.06 515.77 -0.06 C573.96 -0.06 632.15 -0.07 690.34 -0.08 C705.01 -0.08 719.67 -0.09 734.33 -0.09 C735.23 -0.09 736.14 -0.09 737.07 -0.09 C764.88 -0.1 792.7 -0.1 820.52 -0.1 C821.83 -0.1 821.83 -0.1 823.17 -0.1 C842.34 -0.1 861.5 -0.1 880.67 -0.1 C887.53 -0.1 894.39 -0.1 901.25 -0.1 C902.95 -0.1 904.66 -0.1 906.37 -0.1 C933.57 -0.1 960.77 -0.11 987.97 -0.12 C1015.36 -0.12 1042.76 -0.13 1070.15 -0.12 C1073.93 -0.12 1077.72 -0.12 1081.5 -0.12 C1082.24 -0.12 1082.98 -0.12 1083.75 -0.12 C1095.5 -0.12 1107.25 -0.12 1119.01 -0.13 C1130.56 -0.13 1142.11 -0.13 1153.66 -0.13 C1159.84 -0.12 1166.02 -0.12 1172.21 -0.13 C1177.83 -0.14 1183.45 -0.13 1189.07 -0.13 C1191.09 -0.12 1193.11 -0.12 1195.14 -0.13 C1221.28 -0.2 1221.28 -0.2 1228.44 6.13 C1229.9 8.17 1231.21 10.24 1232.46 12.42 C1233.32 14.1 1233.32 14.1 1234.44 15.13 C1237.9 15.62 1237.9 15.62 1241.44 16.13 C1241.44 343.49 1241.44 670.85 1241.44 1008.13 C1165.44 1008.13 1165.44 1008.13 1159.44 1004.13 C1156.93 1000.76 1157.17 997.37 1157.13 993.26 C1157.12 992.24 1157.12 992.24 1157.11 991.2 C1157.08 988.95 1157.07 986.7 1157.06 984.46 C1157.04 982.9 1157.02 981.34 1157.01 979.77 C1156.96 975.67 1156.93 971.57 1156.89 967.46 C1156.84 960.88 1156.78 954.3 1156.71 947.72 C1156.68 945.42 1156.67 943.11 1156.65 940.81 C1156.64 939.41 1156.62 938 1156.61 936.6 C1156.6 935.37 1156.59 934.14 1156.58 932.88 C1156.75 930.22 1156.75 930.22 1155.44 929.13 C1153.02 929.03 1150.63 928.99 1148.21 929 C1147.44 929 1146.67 929 1145.87 929 C1143.25 928.99 1140.63 929 1138.01 929 C1136.12 929 1134.23 929 1132.34 929 C1127.1 928.99 1121.85 928.99 1116.61 929 C1110.92 929 1105.24 929 1099.55 928.99 C1089.57 928.99 1079.58 928.99 1069.6 928.99 C1058.88 929 1048.17 929 1037.45 929 C1036.77 928.99 1036.1 928.99 1035.4 928.99 C1032.65 928.99 1029.9 928.99 1027.15 928.99 C1001.49 928.99 975.83 928.99 950.16 928.99 C949.4 928.99 948.64 928.99 947.86 928.99 C947.1 928.99 946.33 928.99 945.55 928.99 C922.35 928.99 899.16 928.99 875.96 928.99 C874.41 928.99 872.86 928.99 871.31 928.99 C865.08 928.99 858.84 928.99 852.61 928.99 C835.18 928.99 817.75 928.99 800.32 928.99 C799.13 928.99 799.13 928.99 797.92 928.99 C772.62 928.99 747.31 928.99 722.01 928.99 C721.19 928.99 720.37 928.99 719.52 928.99 C706.19 928.99 692.85 929 679.52 929 C626.63 929 573.74 929 520.85 929 C507.52 928.99 494.19 928.99 480.86 928.99 C480.04 928.99 479.22 928.99 478.38 928.99 C453.1 928.99 427.83 928.99 402.55 928.99 C401.76 928.99 400.96 928.99 400.15 928.99 C382.74 928.99 365.33 928.99 347.92 928.99 C341.69 928.99 335.47 928.99 329.24 928.99 C327.69 928.99 326.14 928.99 324.59 928.99 C301.4 928.99 278.21 928.99 255.02 928.99 C254.25 928.99 253.49 928.99 252.71 928.99 C251.57 928.99 251.57 928.99 250.41 928.99 C224.82 928.99 199.24 928.99 173.66 928.99 C170.91 928.99 168.17 928.99 165.42 929 C164.41 929 164.41 929 163.38 929 C152.04 929 140.7 929 129.36 928.99 C119.51 928.99 109.67 928.99 99.83 929 C94.21 929 88.58 929 82.96 929 C77.86 928.99 72.76 928.99 67.66 929 C65.81 929 63.97 929 62.12 929 C59.63 928.99 57.15 929 54.66 929 C53.94 929 53.21 929 52.46 928.99 C49.17 928.72 49.17 928.72 46.44 930.13 C46.33 932.27 46.3 934.42 46.3 936.57 C46.29 937.58 46.29 937.58 46.28 938.61 C46.28 940.08 46.27 941.55 46.27 943.01 C46.26 945.34 46.25 947.66 46.23 949.99 C46.17 956.6 46.13 963.21 46.11 969.82 C46.1 973.86 46.07 977.9 46.03 981.94 C46.02 983.48 46.01 985.02 46.01 986.56 C46.02 988.72 45.99 990.88 45.97 993.04 C45.96 994.88 45.96 994.88 45.95 996.75 C45.33 1000.83 44.05 1002.97 41.44 1006.13 C17.58 1018.06 -11.89 1008.13 -38.56 1008.13 C-38.56 680.44 -38.56 352.75 -38.56 15.13 C-35.92 14.8 -33.28 14.47 -30.56 14.13 C-28.21 11.94 -28.21 11.94 -26.56 9.13 C-22.76 3.43 -18.45 1.92 -11.96 0.6 C-7.96 0.04 -4.03 -0.01 0 0 Z M45.44 90.13 C45.13 92.44 45.13 92.44 45.19 95.17 C45.18 96.24 45.18 97.32 45.17 98.43 C45.18 99.62 45.18 100.82 45.19 102.05 C45.18 103.31 45.18 104.58 45.18 105.88 C45.17 109.42 45.17 112.96 45.18 116.49 C45.19 120.33 45.18 124.17 45.17 128.01 C45.17 134.74 45.17 141.48 45.17 148.21 C45.18 158.23 45.18 168.25 45.17 178.26 C45.16 196.15 45.16 214.03 45.17 231.92 C45.17 247.57 45.17 263.22 45.17 278.87 C45.17 279.91 45.17 280.94 45.17 282.01 C45.17 286.22 45.17 290.43 45.17 294.63 C45.16 334.13 45.17 373.63 45.18 413.13 C45.19 448.26 45.19 483.38 45.18 518.51 C45.17 557.93 45.16 597.36 45.17 636.78 C45.17 640.98 45.17 645.18 45.17 649.38 C45.17 650.42 45.17 651.45 45.17 652.52 C45.17 668.16 45.17 683.81 45.16 699.45 C45.16 717.23 45.16 735.01 45.17 752.79 C45.18 762.76 45.18 772.72 45.17 782.68 C45.17 789.32 45.17 795.97 45.18 802.61 C45.18 806.4 45.18 810.19 45.18 813.99 C45.17 818.06 45.18 822.13 45.19 826.2 C45.18 827.4 45.18 828.59 45.17 829.82 C45.18 830.9 45.18 831.98 45.19 833.08 C45.19 834.02 45.19 834.95 45.19 835.91 C45.23 838.33 45.23 838.33 47.44 840.13 C49.92 840.32 52.3 840.39 54.79 840.38 C55.56 840.38 56.33 840.38 57.13 840.39 C59.74 840.39 62.36 840.39 64.98 840.38 C66.87 840.38 68.76 840.38 70.66 840.39 C75.9 840.39 81.14 840.39 86.38 840.38 C92.07 840.38 97.75 840.38 103.44 840.39 C113.42 840.4 123.4 840.4 133.38 840.39 C144.09 840.39 154.81 840.39 165.52 840.39 C166.53 840.39 166.53 840.39 167.57 840.39 C170.32 840.39 173.07 840.39 175.82 840.39 C201.48 840.4 227.13 840.4 252.78 840.4 C253.93 840.4 253.93 840.4 255.09 840.4 C255.85 840.4 256.61 840.4 257.4 840.4 C280.59 840.39 303.78 840.39 326.97 840.39 C328.52 840.39 330.07 840.39 331.62 840.39 C337.85 840.4 344.09 840.4 350.32 840.4 C367.74 840.4 385.17 840.4 402.6 840.4 C403.79 840.4 403.79 840.4 405 840.4 C430.3 840.4 455.6 840.4 480.89 840.39 C482.12 840.39 482.12 840.39 483.38 840.39 C496.71 840.39 510.04 840.39 523.37 840.39 C576.25 840.38 629.13 840.38 682.01 840.39 C695.33 840.39 708.66 840.39 721.98 840.39 C723.21 840.39 723.21 840.39 724.47 840.39 C749.74 840.4 775.01 840.4 800.28 840.4 C801.07 840.4 801.87 840.4 802.68 840.4 C820.09 840.4 837.49 840.4 854.9 840.4 C861.13 840.4 867.35 840.39 873.58 840.39 C875.13 840.39 876.68 840.39 878.23 840.39 C901.41 840.39 924.6 840.39 947.78 840.4 C948.93 840.4 948.93 840.4 950.09 840.4 C951.23 840.4 951.23 840.4 952.39 840.4 C977.97 840.41 1003.55 840.4 1029.13 840.39 C1031.87 840.39 1034.61 840.39 1037.35 840.39 C1038.36 840.39 1038.36 840.39 1039.39 840.39 C1050.73 840.38 1062.07 840.39 1073.41 840.39 C1083.25 840.4 1093.09 840.4 1102.93 840.39 C1108.55 840.38 1114.17 840.38 1119.79 840.39 C1124.89 840.39 1130 840.39 1135.1 840.38 C1136.94 840.38 1138.79 840.38 1140.63 840.39 C1143.12 840.39 1145.6 840.39 1148.09 840.38 C1149.17 840.38 1149.17 840.38 1150.28 840.39 C1154.31 840.47 1154.31 840.47 1157.44 838.13 C1157.74 835.81 1157.74 835.81 1157.69 833.08 C1157.69 832.01 1157.7 830.93 1157.7 829.82 C1157.7 828.63 1157.69 827.43 1157.69 826.2 C1157.69 824.94 1157.69 823.67 1157.7 822.37 C1157.71 818.83 1157.7 815.3 1157.69 811.76 C1157.69 807.92 1157.7 804.08 1157.7 800.25 C1157.71 793.51 1157.71 786.77 1157.7 780.04 C1157.7 770.02 1157.7 760.01 1157.7 749.99 C1157.72 732.11 1157.71 714.22 1157.71 696.34 C1157.7 680.68 1157.7 665.03 1157.7 649.38 C1157.71 648.35 1157.71 647.31 1157.71 646.24 C1157.71 642.03 1157.71 637.83 1157.71 633.62 C1157.71 594.12 1157.71 554.62 1157.7 515.12 C1157.69 480 1157.69 444.87 1157.7 409.75 C1157.71 370.32 1157.71 330.9 1157.71 291.47 C1157.71 287.27 1157.71 283.07 1157.7 278.87 C1157.7 277.84 1157.7 276.8 1157.7 275.74 C1157.7 260.09 1157.7 244.45 1157.71 228.8 C1157.72 211.02 1157.71 193.24 1157.7 175.46 C1157.7 165.5 1157.7 155.54 1157.7 145.57 C1157.71 138.93 1157.71 132.29 1157.7 125.64 C1157.69 121.85 1157.69 118.06 1157.7 114.27 C1157.71 110.19 1157.7 106.12 1157.69 102.05 C1157.69 100.85 1157.7 99.66 1157.7 98.43 C1157.7 96.82 1157.7 96.82 1157.69 95.17 C1157.69 94.24 1157.69 93.3 1157.69 92.34 C1157.65 89.92 1157.65 89.92 1155.44 88.13 C1152.95 87.93 1150.57 87.86 1148.09 87.88 C1147.31 87.87 1146.54 87.87 1145.75 87.87 C1143.13 87.86 1140.51 87.87 1137.89 87.87 C1136 87.87 1134.11 87.87 1132.22 87.87 C1126.98 87.86 1121.73 87.86 1116.49 87.87 C1110.81 87.87 1105.12 87.87 1099.43 87.86 C1089.45 87.86 1079.47 87.86 1069.49 87.86 C1058.78 87.87 1048.07 87.87 1037.35 87.86 C1036.34 87.86 1036.34 87.86 1035.31 87.86 C1032.56 87.86 1029.8 87.86 1027.05 87.86 C1001.4 87.85 975.74 87.85 950.09 87.85 C949.33 87.85 948.57 87.85 947.78 87.85 C946.64 87.85 946.64 87.85 945.48 87.85 C922.29 87.86 899.1 87.86 875.91 87.86 C874.36 87.86 872.81 87.86 871.25 87.86 C865.02 87.86 858.79 87.86 852.56 87.86 C835.13 87.85 817.7 87.85 800.28 87.85 C799.49 87.85 798.69 87.85 797.87 87.85 C772.58 87.85 747.28 87.85 721.98 87.86 C721.16 87.86 720.34 87.86 719.49 87.86 C706.16 87.86 692.83 87.86 679.5 87.87 C626.62 87.88 573.74 87.88 520.87 87.87 C507.54 87.86 494.22 87.86 480.89 87.86 C479.66 87.86 479.66 87.86 478.41 87.86 C453.14 87.85 427.87 87.85 402.6 87.85 C401.8 87.85 401.01 87.85 400.19 87.85 C382.79 87.85 365.38 87.85 347.97 87.86 C341.75 87.86 335.52 87.86 329.29 87.86 C327.74 87.86 326.19 87.86 324.64 87.86 C301.46 87.86 278.27 87.86 255.09 87.85 C254.33 87.85 253.57 87.85 252.78 87.85 C251.65 87.85 251.65 87.85 250.48 87.85 C224.91 87.85 199.33 87.85 173.75 87.86 C171.01 87.86 168.26 87.86 165.52 87.86 C164.51 87.86 164.51 87.86 163.48 87.86 C152.14 87.87 140.8 87.86 129.47 87.86 C119.62 87.85 109.78 87.86 99.94 87.87 C94.32 87.87 88.7 87.87 83.08 87.87 C77.98 87.86 72.88 87.86 67.78 87.87 C65.93 87.87 64.09 87.87 62.24 87.87 C59.76 87.86 57.27 87.87 54.79 87.88 C53.7 87.87 53.7 87.87 52.59 87.86 C48.57 87.78 48.57 87.78 45.44 90.13 Z " fill="#000000" transform="translate(38.562772035598755,195.87350016832352)"/>
<path d="M0 0 C0.69 -0.01 1.39 -0.01 2.1 -0.02 C4.39 -0.04 6.67 -0.04 8.96 -0.05 C10.56 -0.05 12.15 -0.06 13.74 -0.07 C17.08 -0.08 20.43 -0.08 23.77 -0.08 C28.04 -0.08 32.31 -0.11 36.58 -0.14 C39.88 -0.16 43.17 -0.17 46.46 -0.17 C48.04 -0.17 49.61 -0.18 51.19 -0.19 C53.39 -0.21 55.6 -0.21 57.8 -0.2 C59.06 -0.2 60.31 -0.2 61.6 -0.2 C65.72 0.39 67.85 1.65 71.03 4.29 C72.78 7.13 73.28 9.26 73.28 12.58 C73.29 13.43 73.3 14.29 73.3 15.17 C73.3 16.11 73.29 17.05 73.29 18.01 C73.29 19.01 73.3 20.02 73.3 21.05 C73.31 24.43 73.3 27.82 73.3 31.21 C73.3 33.65 73.31 36.09 73.31 38.53 C73.32 43.85 73.33 49.17 73.32 54.49 C73.32 62.41 73.33 70.32 73.34 78.23 C73.36 93.19 73.36 108.14 73.37 123.09 C73.37 134.64 73.37 146.18 73.38 157.73 C73.38 161.05 73.38 164.37 73.38 167.69 C73.38 168.52 73.38 169.34 73.38 170.19 C73.4 193.42 73.4 216.64 73.4 239.87 C73.4 240.75 73.4 241.62 73.4 242.52 C73.4 246.96 73.4 251.41 73.4 255.85 C73.4 256.73 73.4 257.61 73.4 258.52 C73.4 260.3 73.4 262.08 73.4 263.87 C73.4 291.62 73.42 319.37 73.44 347.13 C73.47 378.29 73.49 409.46 73.49 440.62 C73.49 443.94 73.49 447.26 73.49 450.59 C73.49 451.4 73.49 452.22 73.49 453.06 C73.49 466.24 73.5 479.42 73.52 492.59 C73.54 505.83 73.54 519.06 73.52 532.3 C73.52 540.17 73.52 548.04 73.54 555.91 C73.55 561.77 73.55 567.64 73.53 573.51 C73.53 575.89 73.53 578.27 73.54 580.65 C73.56 583.87 73.55 587.09 73.53 590.32 C73.54 591.25 73.55 592.18 73.56 593.14 C73.5 598.83 72.73 601.92 69.03 606.29 C65.64 608.83 62.2 608.56 58.06 608.58 C57.02 608.59 57.02 608.59 55.96 608.6 C53.68 608.62 51.39 608.62 49.1 608.63 C47.51 608.63 45.91 608.64 44.32 608.65 C40.98 608.66 37.64 608.66 34.3 608.66 C30.03 608.66 25.75 608.69 21.48 608.72 C18.19 608.74 14.9 608.75 11.6 608.75 C10.03 608.75 8.45 608.76 6.88 608.77 C4.67 608.79 2.47 608.79 0.26 608.78 C-1.62 608.78 -1.62 608.78 -3.54 608.79 C-7.66 608.19 -9.78 606.93 -12.97 604.29 C-14.72 601.45 -15.22 599.32 -15.22 596 C-15.23 595.15 -15.23 594.29 -15.24 593.41 C-15.23 592.47 -15.23 591.54 -15.23 590.57 C-15.23 589.57 -15.23 588.56 -15.24 587.53 C-15.25 584.15 -15.24 580.76 -15.24 577.38 C-15.24 574.93 -15.24 572.49 -15.25 570.05 C-15.26 564.73 -15.26 559.41 -15.26 554.09 C-15.26 546.18 -15.27 538.26 -15.28 530.35 C-15.3 515.4 -15.3 500.44 -15.3 485.49 C-15.3 473.94 -15.31 462.4 -15.31 450.85 C-15.32 447.53 -15.32 444.21 -15.32 440.89 C-15.32 440.07 -15.32 439.24 -15.32 438.39 C-15.33 415.16 -15.34 391.94 -15.34 368.71 C-15.34 367.84 -15.34 366.96 -15.34 366.06 C-15.34 361.62 -15.34 357.18 -15.34 352.74 C-15.34 351.85 -15.34 350.97 -15.34 350.06 C-15.34 348.28 -15.34 346.5 -15.34 344.71 C-15.34 316.96 -15.35 289.21 -15.38 261.45 C-15.41 230.29 -15.43 199.12 -15.43 167.96 C-15.43 164.64 -15.43 161.32 -15.43 158 C-15.43 157.18 -15.43 156.36 -15.43 155.52 C-15.43 142.34 -15.44 129.17 -15.46 115.99 C-15.47 102.75 -15.47 89.52 -15.46 76.28 C-15.45 68.41 -15.46 60.54 -15.48 52.68 C-15.49 46.81 -15.48 40.94 -15.47 35.07 C-15.46 32.69 -15.47 30.31 -15.48 27.93 C-15.49 24.71 -15.48 21.49 -15.47 18.26 C-15.48 17.33 -15.49 16.4 -15.5 15.44 C-15.43 9.75 -14.67 6.66 -10.97 2.29 C-7.58 -0.24 -4.13 0.03 0 0 Z " fill="#000000" transform="translate(1010.96826171875,355.70947265625)"/>
<path d="M0 0 C0.69 -0.01 1.39 -0.01 2.1 -0.02 C4.39 -0.04 6.67 -0.04 8.96 -0.05 C10.56 -0.05 12.15 -0.06 13.74 -0.07 C17.08 -0.08 20.43 -0.08 23.77 -0.08 C28.04 -0.08 32.31 -0.11 36.58 -0.14 C39.88 -0.16 43.17 -0.17 46.46 -0.17 C48.04 -0.17 49.61 -0.18 51.19 -0.19 C53.39 -0.21 55.6 -0.21 57.8 -0.2 C59.06 -0.2 60.31 -0.2 61.6 -0.2 C65.72 0.39 67.85 1.65 71.03 4.29 C72.78 7.13 73.28 9.26 73.28 12.58 C73.29 13.43 73.3 14.29 73.3 15.17 C73.3 16.11 73.29 17.05 73.29 18.01 C73.29 19.01 73.3 20.02 73.3 21.05 C73.31 24.43 73.3 27.82 73.3 31.21 C73.3 33.65 73.31 36.09 73.31 38.53 C73.32 43.85 73.33 49.17 73.32 54.49 C73.32 62.41 73.33 70.32 73.34 78.23 C73.36 93.19 73.36 108.14 73.37 123.09 C73.37 134.64 73.37 146.18 73.38 157.73 C73.38 161.05 73.38 164.37 73.38 167.69 C73.38 168.52 73.38 169.34 73.38 170.19 C73.4 193.42 73.4 216.64 73.4 239.87 C73.4 240.75 73.4 241.62 73.4 242.52 C73.4 246.96 73.4 251.41 73.4 255.85 C73.4 256.73 73.4 257.61 73.4 258.52 C73.4 260.3 73.4 262.08 73.4 263.87 C73.4 291.62 73.42 319.37 73.44 347.13 C73.47 378.29 73.49 409.46 73.49 440.62 C73.49 443.94 73.49 447.26 73.49 450.59 C73.49 451.4 73.49 452.22 73.49 453.06 C73.49 466.24 73.5 479.42 73.52 492.59 C73.54 505.83 73.54 519.06 73.52 532.3 C73.52 540.17 73.52 548.04 73.54 555.91 C73.55 561.77 73.55 567.64 73.53 573.51 C73.53 575.89 73.53 578.27 73.54 580.65 C73.56 583.87 73.55 587.09 73.53 590.32 C73.54 591.25 73.55 592.18 73.56 593.14 C73.5 598.83 72.73 601.92 69.03 606.29 C65.64 608.83 62.2 608.56 58.06 608.58 C57.02 608.59 57.02 608.59 55.96 608.6 C53.68 608.62 51.39 608.62 49.1 608.63 C47.51 608.63 45.91 608.64 44.32 608.65 C40.98 608.66 37.64 608.66 34.3 608.66 C30.03 608.66 25.75 608.69 21.48 608.72 C18.19 608.74 14.9 608.75 11.6 608.75 C10.03 608.75 8.45 608.76 6.88 608.77 C4.67 608.79 2.47 608.79 0.26 608.78 C-1.62 608.78 -1.62 608.78 -3.54 608.79 C-7.66 608.19 -9.78 606.93 -12.97 604.29 C-14.72 601.45 -15.22 599.32 -15.22 596 C-15.23 595.15 -15.23 594.29 -15.24 593.41 C-15.23 592.47 -15.23 591.54 -15.23 590.57 C-15.23 589.57 -15.23 588.56 -15.24 587.53 C-15.25 584.15 -15.24 580.76 -15.24 577.38 C-15.24 574.93 -15.24 572.49 -15.25 570.05 C-15.26 564.73 -15.26 559.41 -15.26 554.09 C-15.26 546.18 -15.27 538.26 -15.28 530.35 C-15.3 515.4 -15.3 500.44 -15.3 485.49 C-15.3 473.94 -15.31 462.4 -15.31 450.85 C-15.32 447.53 -15.32 444.21 -15.32 440.89 C-15.32 440.07 -15.32 439.24 -15.32 438.39 C-15.33 415.16 -15.34 391.94 -15.34 368.71 C-15.34 367.84 -15.34 366.96 -15.34 366.06 C-15.34 361.62 -15.34 357.18 -15.34 352.74 C-15.34 351.85 -15.34 350.97 -15.34 350.06 C-15.34 348.28 -15.34 346.5 -15.34 344.71 C-15.34 316.96 -15.35 289.21 -15.38 261.45 C-15.41 230.29 -15.43 199.12 -15.43 167.96 C-15.43 164.64 -15.43 161.32 -15.43 158 C-15.43 157.18 -15.43 156.36 -15.43 155.52 C-15.43 142.34 -15.44 129.17 -15.46 115.99 C-15.47 102.75 -15.47 89.52 -15.46 76.28 C-15.45 68.41 -15.46 60.54 -15.48 52.68 C-15.49 46.81 -15.48 40.94 -15.47 35.07 C-15.46 32.69 -15.47 30.31 -15.48 27.93 C-15.49 24.71 -15.48 21.49 -15.47 18.26 C-15.48 17.33 -15.49 16.4 -15.5 15.44 C-15.43 9.75 -14.67 6.66 -10.97 2.29 C-7.58 -0.24 -4.13 0.03 0 0 Z " fill="#000000" transform="translate(810.96826171875,355.70947265625)"/>
<path d="M0 0 C0.69 -0.01 1.39 -0.01 2.1 -0.02 C4.39 -0.04 6.67 -0.04 8.96 -0.05 C10.56 -0.05 12.15 -0.06 13.74 -0.07 C17.08 -0.08 20.43 -0.08 23.77 -0.08 C28.04 -0.08 32.31 -0.11 36.58 -0.14 C39.88 -0.16 43.17 -0.17 46.46 -0.17 C48.04 -0.17 49.61 -0.18 51.19 -0.19 C53.39 -0.21 55.6 -0.21 57.8 -0.2 C59.06 -0.2 60.31 -0.2 61.6 -0.2 C65.72 0.39 67.85 1.65 71.03 4.29 C72.78 7.13 73.28 9.26 73.28 12.58 C73.29 13.43 73.3 14.29 73.3 15.17 C73.3 16.11 73.29 17.05 73.29 18.01 C73.29 19.01 73.3 20.02 73.3 21.05 C73.31 24.43 73.3 27.82 73.3 31.21 C73.3 33.65 73.31 36.09 73.31 38.53 C73.32 43.85 73.33 49.17 73.32 54.49 C73.32 62.41 73.33 70.32 73.34 78.23 C73.36 93.19 73.36 108.14 73.37 123.09 C73.37 134.64 73.37 146.18 73.38 157.73 C73.38 161.05 73.38 164.37 73.38 167.69 C73.38 168.52 73.38 169.34 73.38 170.19 C73.4 193.42 73.4 216.64 73.4 239.87 C73.4 240.75 73.4 241.62 73.4 242.52 C73.4 246.96 73.4 251.41 73.4 255.85 C73.4 256.73 73.4 257.61 73.4 258.52 C73.4 260.3 73.4 262.08 73.4 263.87 C73.4 291.62 73.42 319.37 73.44 347.13 C73.47 378.29 73.49 409.46 73.49 440.62 C73.49 443.94 73.49 447.26 73.49 450.59 C73.49 451.4 73.49 452.22 73.49 453.06 C73.49 466.24 73.5 479.42 73.52 492.59 C73.54 505.83 73.54 519.06 73.52 532.3 C73.52 540.17 73.52 548.04 73.54 555.91 C73.55 561.77 73.55 567.64 73.53 573.51 C73.53 575.89 73.53 578.27 73.54 580.65 C73.56 583.87 73.55 587.09 73.53 590.32 C73.54 591.25 73.55 592.18 73.56 593.14 C73.5 598.83 72.73 601.92 69.03 606.29 C65.64 608.83 62.2 608.56 58.06 608.58 C57.02 608.59 57.02 608.59 55.96 608.6 C53.68 608.62 51.39 608.62 49.1 608.63 C47.51 608.63 45.91 608.64 44.32 608.65 C40.98 608.66 37.64 608.66 34.3 608.66 C30.03 608.66 25.75 608.69 21.48 608.72 C18.19 608.74 14.9 608.75 11.6 608.75 C10.03 608.75 8.45 608.76 6.88 608.77 C4.67 608.79 2.47 608.79 0.26 608.78 C-1.62 608.78 -1.62 608.78 -3.54 608.79 C-7.66 608.19 -9.78 606.93 -12.97 604.29 C-14.72 601.45 -15.22 599.32 -15.22 596 C-15.23 595.15 -15.23 594.29 -15.24 593.41 C-15.23 592.47 -15.23 591.54 -15.23 590.57 C-15.23 589.57 -15.23 588.56 -15.24 587.53 C-15.25 584.15 -15.24 580.76 -15.24 577.38 C-15.24 574.93 -15.24 572.49 -15.25 570.05 C-15.26 564.73 -15.26 559.41 -15.26 554.09 C-15.26 546.18 -15.27 538.26 -15.28 530.35 C-15.3 515.4 -15.3 500.44 -15.3 485.49 C-15.3 473.94 -15.31 462.4 -15.31 450.85 C-15.32 447.53 -15.32 444.21 -15.32 440.89 C-15.32 440.07 -15.32 439.24 -15.32 438.39 C-15.33 415.16 -15.34 391.94 -15.34 368.71 C-15.34 367.84 -15.34 366.96 -15.34 366.06 C-15.34 361.62 -15.34 357.18 -15.34 352.74 C-15.34 351.85 -15.34 350.97 -15.34 350.06 C-15.34 348.28 -15.34 346.5 -15.34 344.71 C-15.34 316.96 -15.35 289.21 -15.38 261.45 C-15.41 230.29 -15.43 199.12 -15.43 167.96 C-15.43 164.64 -15.43 161.32 -15.43 158 C-15.43 157.18 -15.43 156.36 -15.43 155.52 C-15.43 142.34 -15.44 129.17 -15.46 115.99 C-15.47 102.75 -15.47 89.52 -15.46 76.28 C-15.45 68.41 -15.46 60.54 -15.48 52.68 C-15.49 46.81 -15.48 40.94 -15.47 35.07 C-15.46 32.69 -15.47 30.31 -15.48 27.93 C-15.49 24.71 -15.48 21.49 -15.47 18.26 C-15.48 17.33 -15.49 16.4 -15.5 15.44 C-15.43 9.75 -14.67 6.66 -10.97 2.29 C-7.58 -0.24 -4.13 0.03 0 0 Z " fill="#000000" transform="translate(610.96826171875,355.70947265625)"/>
<path d="M0 0 C0.69 -0.01 1.39 -0.01 2.1 -0.02 C4.39 -0.04 6.67 -0.04 8.96 -0.05 C10.56 -0.05 12.15 -0.06 13.74 -0.07 C17.08 -0.08 20.43 -0.08 23.77 -0.08 C28.04 -0.08 32.31 -0.11 36.58 -0.14 C39.88 -0.16 43.17 -0.17 46.46 -0.17 C48.04 -0.17 49.61 -0.18 51.19 -0.19 C53.39 -0.21 55.6 -0.21 57.8 -0.2 C59.06 -0.2 60.31 -0.2 61.6 -0.2 C65.72 0.39 67.85 1.65 71.03 4.29 C72.78 7.13 73.28 9.26 73.28 12.58 C73.29 13.43 73.3 14.29 73.3 15.17 C73.3 16.11 73.29 17.05 73.29 18.01 C73.29 19.01 73.3 20.02 73.3 21.05 C73.31 24.43 73.3 27.82 73.3 31.21 C73.3 33.65 73.31 36.09 73.31 38.53 C73.32 43.85 73.33 49.17 73.32 54.49 C73.32 62.41 73.33 70.32 73.34 78.23 C73.36 93.19 73.36 108.14 73.37 123.09 C73.37 134.64 73.37 146.18 73.38 157.73 C73.38 161.05 73.38 164.37 73.38 167.69 C73.38 168.52 73.38 169.34 73.38 170.19 C73.4 193.42 73.4 216.64 73.4 239.87 C73.4 240.75 73.4 241.62 73.4 242.52 C73.4 246.96 73.4 251.41 73.4 255.85 C73.4 256.73 73.4 257.61 73.4 258.52 C73.4 260.3 73.4 262.08 73.4 263.87 C73.4 291.62 73.42 319.37 73.44 347.13 C73.47 378.29 73.49 409.46 73.49 440.62 C73.49 443.94 73.49 447.26 73.49 450.59 C73.49 451.4 73.49 452.22 73.49 453.06 C73.49 466.24 73.5 479.42 73.52 492.59 C73.54 505.83 73.54 519.06 73.52 532.3 C73.52 540.17 73.52 548.04 73.54 555.91 C73.55 561.77 73.55 567.64 73.53 573.51 C73.53 575.89 73.53 578.27 73.54 580.65 C73.56 583.87 73.55 587.09 73.53 590.32 C73.54 591.25 73.55 592.18 73.56 593.14 C73.5 598.83 72.73 601.92 69.03 606.29 C65.64 608.83 62.2 608.56 58.06 608.58 C57.02 608.59 57.02 608.59 55.96 608.6 C53.68 608.62 51.39 608.62 49.1 608.63 C47.51 608.63 45.91 608.64 44.32 608.65 C40.98 608.66 37.64 608.66 34.3 608.66 C30.03 608.66 25.75 608.69 21.48 608.72 C18.19 608.74 14.9 608.75 11.6 608.75 C10.03 608.75 8.45 608.76 6.88 608.77 C4.67 608.79 2.47 608.79 0.26 608.78 C-1.62 608.78 -1.62 608.78 -3.54 608.79 C-7.66 608.19 -9.78 606.93 -12.97 604.29 C-14.72 601.45 -15.22 599.32 -15.22 596 C-15.23 595.15 -15.23 594.29 -15.24 593.41 C-15.23 592.47 -15.23 591.54 -15.23 590.57 C-15.23 589.57 -15.23 588.56 -15.24 587.53 C-15.25 584.15 -15.24 580.76 -15.24 577.38 C-15.24 574.93 -15.24 572.49 -15.25 570.05 C-15.26 564.73 -15.26 559.41 -15.26 554.09 C-15.26 546.18 -15.27 538.26 -15.28 530.35 C-15.3 515.4 -15.3 500.44 -15.3 485.49 C-15.3 473.94 -15.31 462.4 -15.31 450.85 C-15.32 447.53 -15.32 444.21 -15.32 440.89 C-15.32 440.07 -15.32 439.24 -15.32 438.39 C-15.33 415.16 -15.34 391.94 -15.34 368.71 C-15.34 367.84 -15.34 366.96 -15.34 366.06 C-15.34 361.62 -15.34 357.18 -15.34 352.74 C-15.34 351.85 -15.34 350.97 -15.34 350.06 C-15.34 348.28 -15.34 346.5 -15.34 344.71 C-15.34 316.96 -15.35 289.21 -15.38 261.45 C-15.41 230.29 -15.43 199.12 -15.43 167.96 C-15.43 164.64 -15.43 161.32 -15.43 158 C-15.43 157.18 -15.43 156.36 -15.43 155.52 C-15.43 142.34 -15.44 129.17 -15.46 115.99 C-15.47 102.75 -15.47 89.52 -15.46 76.28 C-15.45 68.41 -15.46 60.54 -15.48 52.68 C-15.49 46.81 -15.48 40.94 -15.47 35.07 C-15.46 32.69 -15.47 30.31 -15.48 27.93 C-15.49 24.71 -15.48 21.49 -15.47 18.26 C-15.48 17.33 -15.49 16.4 -15.5 15.44 C-15.43 9.75 -14.67 6.66 -10.97 2.29 C-7.58 -0.24 -4.13 0.03 0 0 Z " fill="#000000" transform="translate(410.96826171875,355.70947265625)"/>
<path d="M0 0 C0.69 -0.01 1.39 -0.01 2.1 -0.02 C4.39 -0.04 6.67 -0.04 8.96 -0.05 C10.56 -0.05 12.15 -0.06 13.74 -0.07 C17.08 -0.08 20.43 -0.08 23.77 -0.08 C28.04 -0.08 32.31 -0.11 36.58 -0.14 C39.88 -0.16 43.17 -0.17 46.46 -0.17 C48.04 -0.17 49.61 -0.18 51.19 -0.19 C53.39 -0.21 55.6 -0.21 57.8 -0.2 C59.06 -0.2 60.31 -0.2 61.6 -0.2 C65.72 0.39 67.85 1.65 71.03 4.29 C72.78 7.13 73.28 9.26 73.28 12.58 C73.29 13.43 73.3 14.29 73.3 15.17 C73.3 16.11 73.29 17.05 73.29 18.01 C73.29 19.01 73.3 20.02 73.3 21.05 C73.31 24.43 73.3 27.82 73.3 31.21 C73.3 33.65 73.31 36.09 73.31 38.53 C73.32 43.85 73.33 49.17 73.32 54.49 C73.32 62.41 73.33 70.32 73.34 78.23 C73.36 93.19 73.36 108.14 73.37 123.09 C73.37 134.64 73.37 146.18 73.38 157.73 C73.38 161.05 73.38 164.37 73.38 167.69 C73.38 168.52 73.38 169.34 73.38 170.19 C73.4 193.42 73.4 216.64 73.4 239.87 C73.4 240.75 73.4 241.62 73.4 242.52 C73.4 246.96 73.4 251.41 73.4 255.85 C73.4 256.73 73.4 257.61 73.4 258.52 C73.4 260.3 73.4 262.08 73.4 263.87 C73.4 291.62 73.42 319.37 73.44 347.13 C73.47 378.29 73.49 409.46 73.49 440.62 C73.49 443.94 73.49 447.26 73.49 450.59 C73.49 451.4 73.49 452.22 73.49 453.06 C73.49 466.24 73.5 479.42 73.52 492.59 C73.54 505.83 73.54 519.06 73.52 532.3 C73.52 540.17 73.52 548.04 73.54 555.91 C73.55 561.77 73.55 567.64 73.53 573.51 C73.53 575.89 73.53 578.27 73.54 580.65 C73.56 583.87 73.55 587.09 73.53 590.32 C73.54 591.25 73.55 592.18 73.56 593.14 C73.5 598.83 72.73 601.92 69.03 606.29 C65.64 608.83 62.2 608.56 58.06 608.58 C57.02 608.59 57.02 608.59 55.96 608.6 C53.68 608.62 51.39 608.62 49.1 608.63 C47.51 608.63 45.91 608.64 44.32 608.65 C40.98 608.66 37.64 608.66 34.3 608.66 C30.03 608.66 25.75 608.69 21.48 608.72 C18.19 608.74 14.9 608.75 11.6 608.75 C10.03 608.75 8.45 608.76 6.88 608.77 C4.67 608.79 2.47 608.79 0.26 608.78 C-1.62 608.78 -1.62 608.78 -3.54 608.79 C-7.66 608.19 -9.78 606.93 -12.97 604.29 C-14.72 601.45 -15.22 599.32 -15.22 596 C-15.23 595.15 -15.23 594.29 -15.24 593.41 C-15.23 592.47 -15.23 591.54 -15.23 590.57 C-15.23 589.57 -15.23 588.56 -15.24 587.53 C-15.25 584.15 -15.24 580.76 -15.24 577.38 C-15.24 574.93 -15.24 572.49 -15.25 570.05 C-15.26 564.73 -15.26 559.41 -15.26 554.09 C-15.26 546.18 -15.27 538.26 -15.28 530.35 C-15.3 515.4 -15.3 500.44 -15.3 485.49 C-15.3 473.94 -15.31 462.4 -15.31 450.85 C-15.32 447.53 -15.32 444.21 -15.32 440.89 C-15.32 440.07 -15.32 439.24 -15.32 438.39 C-15.33 415.16 -15.34 391.94 -15.34 368.71 C-15.34 367.84 -15.34 366.96 -15.34 366.06 C-15.34 361.62 -15.34 357.18 -15.34 352.74 C-15.34 351.85 -15.34 350.97 -15.34 350.06 C-15.34 348.28 -15.34 346.5 -15.34 344.71 C-15.34 316.96 -15.35 289.21 -15.38 261.45 C-15.41 230.29 -15.43 199.12 -15.43 167.96 C-15.43 164.64 -15.43 161.32 -15.43 158 C-15.43 157.18 -15.43 156.36 -15.43 155.52 C-15.43 142.34 -15.44 129.17 -15.46 115.99 C-15.47 102.75 -15.47 89.52 -15.46 76.28 C-15.45 68.41 -15.46 60.54 -15.48 52.68 C-15.49 46.81 -15.48 40.94 -15.47 35.07 C-15.46 32.69 -15.47 30.31 -15.48 27.93 C-15.49 24.71 -15.48 21.49 -15.47 18.26 C-15.48 17.33 -15.49 16.4 -15.5 15.44 C-15.43 9.75 -14.67 6.66 -10.97 2.29 C-7.58 -0.24 -4.13 0.03 0 0 Z " fill="#000000" transform="translate(210.96826171875,355.70947265625)"/>
</svg>
