<?xml version="1.0" encoding="UTF-8"?>
<!-- Generator: visioncortex VTracer 0.6.3 -->
<svg version="1.1" xmlns="http://www.w3.org/2000/svg" width="1280" height="1280">
<path d="M0 0 C1.58 -0 3.16 -0.01 4.74 -0.01 C9.04 -0.02 13.34 -0.01 17.64 -0.01 C22.34 -0 27.03 -0.01 31.73 -0.02 C39.94 -0.03 48.16 -0.03 56.38 -0.02 C68.6 -0.02 80.81 -0.03 93.03 -0.03 C116.12 -0.05 139.21 -0.05 162.3 -0.05 C180.13 -0.05 197.95 -0.05 215.78 -0.05 C218.34 -0.05 220.9 -0.05 223.47 -0.05 C227.33 -0.05 231.19 -0.06 235.05 -0.06 C270.93 -0.07 306.82 -0.07 342.71 -0.07 C343.38 -0.07 344.06 -0.07 344.75 -0.06 C352.29 -0.06 359.83 -0.06 367.36 -0.06 C368.39 -0.06 368.39 -0.06 369.43 -0.06 C375.08 -0.06 375.08 -0.06 377.68 -0.06 C421.22 -0.06 464.77 -0.06 508.31 -0.08 C519.28 -0.09 530.26 -0.09 541.24 -0.1 C541.91 -0.1 542.59 -0.1 543.28 -0.1 C579.78 -0.11 616.27 -0.11 652.76 -0.11 C657.9 -0.11 663.03 -0.11 668.16 -0.11 C669.42 -0.11 670.69 -0.11 671.99 -0.11 C691.08 -0.11 710.16 -0.11 729.25 -0.12 C750.94 -0.14 772.64 -0.14 794.34 -0.13 C806.48 -0.12 818.63 -0.12 830.77 -0.13 C838.88 -0.14 846.99 -0.14 855.1 -0.13 C859.72 -0.12 864.34 -0.12 868.96 -0.13 C873.17 -0.14 877.38 -0.14 881.59 -0.12 C883.1 -0.12 884.61 -0.12 886.11 -0.13 C897.02 -0.19 908.91 -0.13 917.64 7.25 C918.06 7.92 918.48 8.58 918.92 9.26 C921.2 11.91 923.17 12.29 926.51 13.19 C931.61 14.77 934.54 15.88 937.64 20.25 C938.45 23.07 938.45 23.07 938.64 25.25 C940.24 25.59 940.24 25.59 941.89 25.94 C946.21 27.46 947.26 28.4 949.64 32.25 C950.27 33.75 950.9 35.25 951.51 36.75 C952.85 39.96 954 41.89 956.76 44 C961.24 47.51 961.82 51.31 962.51 56.84 C962.59 57.54 962.67 58.24 962.75 58.97 C962.87 60.09 962.87 60.09 963 61.23 C963.86 69.44 963.91 77.62 963.89 85.87 C963.89 87.58 963.9 89.3 963.9 91.01 C963.91 95.69 963.91 100.38 963.9 105.06 C963.9 110.16 963.9 115.27 963.91 120.37 C963.92 129.31 963.92 138.25 963.91 147.19 C963.91 160.48 963.92 173.77 963.92 187.06 C963.94 211.48 963.94 235.91 963.94 260.33 C963.94 263.79 963.94 267.25 963.94 270.7 C963.94 271.73 963.94 271.73 963.94 272.79 C963.94 288.02 963.94 303.25 963.94 318.49 C963.94 321.97 963.94 325.45 963.94 328.93 C963.94 330.33 963.95 331.73 963.95 333.12 C963.95 333.82 963.95 334.51 963.95 335.22 C963.95 336.62 963.95 338.02 963.95 339.42 C963.96 379.16 963.96 418.89 963.96 458.62 C963.96 459.35 963.96 460.09 963.96 460.84 C963.95 469.04 963.95 477.24 963.95 485.44 C963.95 486.18 963.95 486.92 963.95 487.68 C963.95 493.83 963.95 493.83 963.95 496.66 C963.95 544.02 963.95 591.38 963.97 638.75 C963.98 650.68 963.98 662.62 963.99 674.56 C963.99 675.3 963.99 676.03 963.99 676.79 C964 699.45 964 722.1 964 744.76 C964 745.47 964 746.18 964 746.92 C964 762.53 964 778.14 964 793.76 C964 799.35 964 804.93 964 810.52 C964 811.91 964 813.3 964 814.69 C964 836.83 964 858.97 964.02 881.11 C964.03 904.02 964.03 926.94 964.02 949.85 C964.01 963.06 964.01 976.27 964.02 989.48 C964.03 998.3 964.03 1007.12 964.02 1015.94 C964.01 1020.97 964.01 1026 964.02 1031.03 C964.03 1035.6 964.03 1040.18 964.02 1044.75 C964.01 1046.4 964.01 1048.04 964.02 1049.68 C964.13 1073.4 964.13 1073.4 956.64 1082.25 C955.97 1082.68 955.31 1083.1 954.63 1083.54 C951.98 1085.82 951.6 1087.79 950.7 1091.13 C949.12 1096.23 948.01 1099.16 943.64 1102.25 C940.82 1103.07 940.82 1103.07 938.64 1103.25 C938.41 1104.33 938.18 1105.4 937.95 1106.5 C936.43 1110.83 935.49 1111.88 931.64 1114.25 C930.14 1114.89 928.64 1115.52 927.14 1116.13 C923.93 1117.47 922 1118.62 919.89 1121.38 C916.36 1125.88 912.54 1126.44 906.99 1127.13 C906.28 1127.21 905.57 1127.28 904.85 1127.36 C904.1 1127.45 903.35 1127.53 902.58 1127.62 C894.81 1128.43 887.08 1128.53 879.27 1128.51 C877.69 1128.51 876.12 1128.51 874.54 1128.52 C870.23 1128.53 865.93 1128.52 861.63 1128.52 C856.93 1128.51 852.24 1128.52 847.54 1128.53 C839.33 1128.54 831.11 1128.54 822.9 1128.53 C810.68 1128.53 798.46 1128.53 786.24 1128.54 C763.15 1128.56 740.06 1128.56 716.97 1128.56 C699.14 1128.55 681.32 1128.56 663.49 1128.56 C660.93 1128.56 658.37 1128.56 655.81 1128.56 C651.94 1128.56 648.08 1128.56 644.22 1128.57 C608.34 1128.57 572.45 1128.58 536.57 1128.57 C535.89 1128.57 535.22 1128.57 534.52 1128.57 C526.98 1128.57 519.44 1128.57 511.91 1128.57 C510.89 1128.57 510.89 1128.57 509.85 1128.57 C504.19 1128.57 504.19 1128.57 501.59 1128.57 C458.05 1128.56 414.51 1128.57 370.97 1128.59 C359.99 1128.6 349.01 1128.6 338.04 1128.6 C337.02 1128.6 337.02 1128.6 335.99 1128.61 C299.49 1128.62 263 1128.62 226.51 1128.62 C221.38 1128.62 216.24 1128.62 211.11 1128.62 C209.85 1128.62 208.58 1128.62 207.28 1128.62 C188.2 1128.62 169.11 1128.62 150.02 1128.63 C128.33 1128.64 106.63 1128.65 84.93 1128.63 C72.79 1128.63 60.65 1128.63 48.5 1128.64 C40.39 1128.65 32.28 1128.65 24.17 1128.64 C19.55 1128.63 14.93 1128.63 10.31 1128.64 C6.1 1128.65 1.89 1128.65 -2.31 1128.63 C-3.82 1128.63 -5.33 1128.63 -6.84 1128.64 C-17.75 1128.69 -29.64 1128.63 -38.36 1121.25 C-38.79 1120.59 -39.21 1119.93 -39.65 1119.25 C-41.92 1116.6 -43.9 1116.22 -47.24 1115.32 C-52.34 1113.74 -55.27 1112.63 -58.36 1108.25 C-59.18 1105.44 -59.18 1105.44 -59.36 1103.25 C-60.44 1103.03 -61.51 1102.8 -62.61 1102.57 C-66.94 1101.05 -67.99 1100.11 -70.36 1096.25 C-71 1094.76 -71.63 1093.26 -72.24 1091.75 C-73.57 1088.55 -74.73 1086.62 -77.49 1084.5 C-81.97 1081 -82.55 1077.2 -83.24 1071.67 C-83.35 1070.62 -83.35 1070.62 -83.47 1069.54 C-83.6 1068.42 -83.6 1068.42 -83.73 1067.28 C-84.59 1059.07 -84.64 1050.89 -84.62 1042.64 C-84.62 1040.93 -84.62 1039.21 -84.63 1037.5 C-84.64 1032.81 -84.63 1028.13 -84.63 1023.45 C-84.62 1018.35 -84.63 1013.24 -84.64 1008.14 C-84.64 999.2 -84.65 990.26 -84.64 981.32 C-84.64 968.03 -84.64 954.74 -84.65 941.45 C-84.67 917.03 -84.67 892.6 -84.67 868.18 C-84.67 864.72 -84.67 861.26 -84.67 857.8 C-84.67 857.12 -84.67 856.43 -84.67 855.72 C-84.66 840.49 -84.67 825.25 -84.67 810.02 C-84.67 806.54 -84.67 803.06 -84.67 799.58 C-84.67 798.18 -84.67 796.78 -84.67 795.39 C-84.67 794.69 -84.67 794 -84.67 793.29 C-84.67 791.89 -84.67 790.48 -84.67 789.08 C-84.68 749.35 -84.69 709.62 -84.68 669.89 C-84.68 669.16 -84.68 668.42 -84.68 667.67 C-84.68 659.47 -84.68 651.27 -84.68 643.07 C-84.68 642.33 -84.68 641.59 -84.68 640.83 C-84.68 634.68 -84.68 634.68 -84.68 631.85 C-84.67 584.49 -84.68 537.12 -84.7 489.76 C-84.7 477.82 -84.71 465.89 -84.71 453.95 C-84.71 453.21 -84.71 452.48 -84.71 451.72 C-84.72 429.06 -84.73 406.4 -84.73 383.75 C-84.73 383.04 -84.73 382.33 -84.73 381.59 C-84.73 365.98 -84.73 350.36 -84.73 334.75 C-84.73 329.16 -84.73 323.58 -84.73 317.99 C-84.73 316.6 -84.73 315.21 -84.73 313.82 C-84.72 291.68 -84.73 269.54 -84.74 247.4 C-84.75 224.49 -84.76 201.57 -84.74 178.66 C-84.74 165.45 -84.74 152.24 -84.75 139.03 C-84.76 130.21 -84.76 121.39 -84.75 112.57 C-84.74 107.54 -84.74 102.51 -84.75 97.48 C-84.76 92.91 -84.76 88.33 -84.74 83.76 C-84.74 82.11 -84.74 80.47 -84.75 78.83 C-84.86 55.34 -84.86 55.34 -77.36 46.25 C-76.39 45.37 -76.39 45.37 -75.39 44.47 C-73.01 41.87 -72.08 39.55 -70.86 36.25 C-69.29 32 -67.89 29.18 -64.36 26.25 C-61.61 25.5 -61.61 25.5 -59.36 25.25 C-59.14 24.18 -58.91 23.11 -58.68 22 C-57.16 17.68 -56.22 16.63 -52.36 14.25 C-50.87 13.62 -49.37 12.99 -47.86 12.38 C-44.66 11.04 -42.73 9.89 -40.61 7.13 C-37.09 2.63 -33.27 2.07 -27.71 1.38 C-27.01 1.3 -26.3 1.23 -25.57 1.15 C-24.83 1.06 -24.08 0.98 -23.31 0.89 C-15.54 0.08 -7.81 -0.03 0 0 Z M3.64 90.25 C3.33 93.13 3.33 93.13 3.39 96.58 C3.38 97.24 3.38 97.9 3.38 98.58 C3.37 100.82 3.38 103.06 3.38 105.3 C3.38 106.92 3.38 108.54 3.38 110.16 C3.37 114.64 3.37 119.12 3.38 123.61 C3.38 128.47 3.38 133.34 3.37 138.2 C3.37 146.74 3.37 155.28 3.37 163.82 C3.38 176.51 3.37 189.21 3.37 201.91 C3.36 224.58 3.36 247.25 3.36 269.92 C3.37 289.76 3.37 309.6 3.37 329.43 C3.37 330.75 3.37 332.06 3.37 333.42 C3.37 338.75 3.37 344.08 3.37 349.41 C3.36 364.32 3.36 379.23 3.36 394.14 C3.36 394.82 3.36 395.5 3.36 396.2 C3.36 417.84 3.36 439.48 3.37 461.13 C3.37 461.83 3.37 462.53 3.37 463.25 C3.37 474.66 3.37 486.07 3.38 497.47 C3.39 542.71 3.39 587.95 3.38 633.18 C3.37 644.58 3.37 655.98 3.37 667.38 C3.37 668.08 3.37 668.79 3.37 669.51 C3.36 691.13 3.36 712.75 3.36 734.37 C3.36 735.05 3.36 735.73 3.36 736.43 C3.36 751.32 3.36 766.21 3.37 781.1 C3.37 787.09 3.37 793.08 3.37 799.07 C3.37 800.38 3.37 801.7 3.37 803.05 C3.37 822.88 3.37 842.71 3.36 862.54 C3.36 885.08 3.36 907.62 3.37 930.16 C3.38 942.78 3.38 955.41 3.37 968.04 C3.36 976.46 3.37 984.88 3.38 993.3 C3.38 998.11 3.38 1002.92 3.38 1007.72 C3.37 1012.09 3.37 1016.45 3.38 1020.82 C3.38 1022.39 3.38 1023.97 3.38 1025.55 C3.37 1027.68 3.38 1029.8 3.39 1031.93 C3.39 1033.11 3.39 1034.29 3.39 1035.51 C3.35 1038.4 3.35 1038.4 5.64 1040.25 C8.63 1040.45 11.53 1040.52 14.52 1040.51 C15.45 1040.51 16.38 1040.51 17.34 1040.52 C20.48 1040.53 23.62 1040.52 26.76 1040.51 C29 1040.52 31.25 1040.52 33.49 1040.52 C39.6 1040.53 45.71 1040.53 51.81 1040.52 C58.19 1040.52 64.57 1040.52 70.95 1040.53 C82.35 1040.53 93.75 1040.52 105.15 1040.51 C115.49 1040.5 125.84 1040.51 136.18 1040.52 C148.19 1040.53 160.19 1040.53 172.19 1040.52 C178.55 1040.52 184.9 1040.52 191.26 1040.53 C197.24 1040.53 203.21 1040.53 209.19 1040.52 C211.39 1040.51 213.58 1040.52 215.78 1040.52 C218.77 1040.53 221.76 1040.52 224.75 1040.51 C226.07 1040.52 226.07 1040.52 227.42 1040.52 C232.01 1040.7 232.01 1040.7 235.64 1038.25 C235.84 1035.34 235.91 1032.52 235.89 1029.61 C235.9 1028.69 235.9 1027.78 235.9 1026.85 C235.91 1023.76 235.91 1020.67 235.9 1017.59 C235.9 1015.36 235.91 1013.14 235.91 1010.92 C235.93 1004.79 235.93 998.66 235.92 992.52 C235.92 986.6 235.93 980.67 235.94 974.74 C235.96 962.61 235.97 950.47 235.97 938.34 C235.98 921.75 236 905.16 236.02 888.57 C236.03 880.85 236.04 873.12 236.05 865.39 C236.05 864.61 236.05 863.84 236.05 863.04 C236.07 844.61 236.09 826.18 236.1 807.74 C236.11 806.94 236.11 806.13 236.11 805.3 C236.12 793.03 236.13 780.77 236.14 768.5 C236.15 755.46 236.16 742.42 236.17 729.37 C236.17 728.17 236.17 728.17 236.17 726.94 C236.19 708.58 236.2 690.22 236.22 671.86 C236.23 671.08 236.23 670.31 236.23 669.51 C236.24 661.79 236.25 654.07 236.26 646.35 C236.28 629.79 236.3 613.23 236.3 596.67 C236.31 584.58 236.32 572.5 236.33 560.41 C236.34 553.87 236.35 547.33 236.35 540.79 C236.34 534.79 236.35 528.78 236.37 522.78 C236.37 520.63 236.37 518.47 236.37 516.31 C236.35 505.65 236.57 495.06 237.47 484.43 C237.53 483.55 237.6 482.68 237.67 481.77 C238.25 475.65 239.68 470.07 241.64 464.25 C241.97 463.26 242.3 462.27 242.64 461.25 C243.25 461.03 243.87 460.8 244.51 460.57 C248 458.41 248.66 455.04 249.64 451.25 C250.57 446.17 250.57 446.17 251.37 441.07 C252.32 435.2 254.5 431.31 258.77 427.21 C260.98 424.9 261.6 423.05 262.51 420 C264.77 413.37 268.15 408.68 273.14 403.82 C275.37 401.53 276.78 399.51 278.45 396.82 C281.06 392.74 283.81 390.48 287.77 387.78 C289.83 386.1 290.8 384.57 292.07 382.25 C294.44 378.04 297.38 376.28 301.44 373.82 C303.77 372.16 305.04 370.6 306.64 368.25 C309.36 364.26 312.46 362.19 316.55 359.69 C318.57 358.3 319.71 357.1 321.14 355.13 C325.59 350.01 331.47 348.53 337.89 346.88 C342.78 345.5 344.47 343.23 347.64 339.25 C353.78 334.97 361.51 334.26 368.69 332.9 C374.25 331.76 378.1 330.18 382.61 326.65 C392.73 319.69 408.63 321.1 420.28 321.09 C421.57 321.08 422.85 321.08 424.18 321.08 C426.89 321.07 429.61 321.07 432.32 321.07 C435.05 321.07 437.79 321.06 440.52 321.05 C453.69 320.98 466.83 320.95 479.96 322.08 C480.81 322.15 481.65 322.22 482.52 322.29 C489.55 322.99 495.97 325.03 502.64 327.25 C502.86 327.87 503.09 328.49 503.32 329.13 C505.48 332.62 508.85 333.28 512.64 334.25 C517.72 335.19 517.72 335.19 522.82 335.99 C528.69 336.94 532.58 339.12 536.68 343.39 C539 345.6 540.84 346.22 543.89 347.13 C550.52 349.38 555.21 352.77 560.07 357.75 C562.36 359.99 564.38 361.4 567.07 363.07 C571.15 365.67 573.41 368.43 576.11 372.39 C577.79 374.45 579.32 375.42 581.64 376.69 C585.85 379.05 587.61 382 590.07 386.06 C591.73 388.39 593.29 389.66 595.64 391.25 C599.53 393.91 601.61 396.83 603.92 400.91 C605.56 403.15 606.95 404.31 609.13 405.97 C613.33 409.45 614.38 413.15 615.7 418.32 C617.44 425.05 618.99 428.11 624.64 432.25 C629.03 438.2 629.65 446.23 630.99 453.3 C632.13 458.87 633.72 462.72 637.25 467.23 C645.57 479.35 642.78 499.39 642.78 513.33 C642.78 515.59 642.79 517.86 642.79 520.12 C642.8 526.33 642.8 532.54 642.81 538.75 C642.81 544.76 642.82 550.77 642.83 556.78 C642.84 569.07 642.86 581.37 642.87 593.66 C642.88 611.21 642.9 628.76 642.93 646.32 C642.94 653.36 642.95 660.41 642.96 667.46 C642.96 668.24 642.96 669.02 642.96 669.83 C642.98 688.44 643.01 707.06 643.03 725.68 C643.03 726.49 643.03 727.31 643.03 728.15 C643.05 747.16 643.07 766.18 643.09 785.19 C643.09 786.01 643.1 786.83 643.1 787.67 C643.1 791.8 643.1 795.93 643.11 800.06 C643.11 800.88 643.11 801.69 643.11 802.53 C643.11 804.18 643.11 805.83 643.12 807.47 C643.14 834.66 643.18 861.85 643.22 889.04 C643.22 892.88 643.23 896.71 643.23 900.55 C643.23 901.3 643.24 902.06 643.24 902.84 C643.25 915 643.26 927.17 643.27 939.34 C643.28 951.55 643.29 963.76 643.31 975.98 C643.33 982.6 643.33 989.22 643.33 995.84 C643.33 1001.89 643.34 1007.94 643.36 1013.99 C643.36 1016.19 643.36 1018.39 643.36 1020.59 C643.36 1023.56 643.37 1026.53 643.38 1029.5 C643.37 1030.8 643.37 1030.8 643.37 1032.13 C643.2 1036.67 643.2 1036.67 645.64 1040.25 C648.63 1040.45 651.53 1040.52 654.52 1040.51 C655.45 1040.51 656.38 1040.51 657.34 1040.52 C660.48 1040.53 663.62 1040.52 666.76 1040.51 C669 1040.52 671.25 1040.52 673.49 1040.52 C679.6 1040.53 685.71 1040.53 691.81 1040.52 C698.19 1040.52 704.57 1040.52 710.95 1040.53 C722.35 1040.53 733.75 1040.52 745.15 1040.51 C755.49 1040.5 765.84 1040.51 776.18 1040.52 C788.19 1040.53 800.19 1040.53 812.19 1040.52 C818.55 1040.52 824.9 1040.52 831.26 1040.53 C837.24 1040.53 843.21 1040.53 849.19 1040.52 C851.39 1040.51 853.58 1040.52 855.78 1040.52 C858.77 1040.53 861.76 1040.52 864.75 1040.51 C866.07 1040.52 866.07 1040.52 867.42 1040.52 C872.01 1040.7 872.01 1040.7 875.64 1038.25 C875.94 1035.38 875.94 1035.38 875.89 1031.93 C875.89 1031.27 875.89 1030.61 875.9 1029.93 C875.9 1027.69 875.9 1025.45 875.89 1023.21 C875.89 1021.59 875.89 1019.97 875.9 1018.35 C875.9 1013.87 875.9 1009.38 875.89 1004.9 C875.89 1000.04 875.89 995.17 875.9 990.31 C875.91 981.77 875.91 973.23 875.9 964.69 C875.89 951.99 875.9 939.3 875.9 926.6 C875.91 903.93 875.91 881.26 875.91 858.59 C875.9 838.75 875.9 818.91 875.9 799.07 C875.9 797.76 875.9 796.45 875.9 795.09 C875.9 789.76 875.91 784.43 875.91 779.09 C875.91 764.19 875.91 749.28 875.91 734.37 C875.91 733.35 875.91 733.35 875.91 732.31 C875.91 710.67 875.91 689.03 875.9 667.38 C875.9 666.68 875.9 665.98 875.9 665.25 C875.9 653.85 875.9 642.44 875.9 631.04 C875.89 585.8 875.89 540.56 875.9 495.32 C875.9 483.93 875.9 472.53 875.9 461.13 C875.9 460.42 875.9 459.72 875.9 459 C875.91 437.38 875.91 415.76 875.91 394.14 C875.91 393.46 875.91 392.78 875.91 392.08 C875.91 377.19 875.91 362.3 875.91 347.41 C875.91 341.42 875.9 335.43 875.9 329.43 C875.9 328.12 875.9 326.81 875.9 325.46 C875.9 305.63 875.9 285.8 875.91 265.97 C875.91 243.43 875.91 220.89 875.9 198.35 C875.9 185.73 875.9 173.1 875.9 160.47 C875.91 152.05 875.91 143.63 875.9 135.21 C875.89 130.4 875.89 125.59 875.9 120.79 C875.9 116.42 875.9 112.06 875.89 107.69 C875.89 106.11 875.89 104.54 875.9 102.96 C875.9 100.83 875.9 98.71 875.89 96.58 C875.89 95.4 875.89 94.21 875.89 93 C875.92 90.11 875.92 90.11 873.64 88.25 C870.98 87.95 870.98 87.95 867.82 88 C866.58 88 865.33 87.99 864.04 87.99 C862.64 87.99 861.24 88 859.84 88 C858.36 88 856.88 88 855.39 87.99 C851.29 87.99 847.18 87.99 843.08 88 C838.62 88 834.17 88 829.71 87.99 C821.9 87.98 814.08 87.98 806.26 87.99 C794.64 88 783.01 87.99 771.39 87.99 C750.63 87.98 729.88 87.98 709.12 87.98 C690.96 87.99 672.79 87.99 654.63 87.99 C653.43 87.99 652.22 87.99 650.99 87.99 C646.1 87.99 641.22 87.99 636.34 87.98 C590.5 87.98 544.66 87.98 498.82 87.99 C458.05 88 417.29 88 376.53 87.99 C330.77 87.98 285.02 87.98 239.26 87.98 C234.39 87.99 229.52 87.99 224.64 87.99 C223.44 87.99 222.24 87.99 221.01 87.99 C202.85 87.99 184.69 87.99 166.54 87.98 C145.9 87.98 125.26 87.98 104.63 87.99 C93.07 87.99 81.51 87.99 69.94 87.99 C62.23 87.98 54.53 87.99 46.82 87.99 C42.41 88 38.01 88 33.61 87.99 C29.62 87.99 25.62 87.99 21.62 88 C20.18 88 18.73 88 17.29 88 C15.34 87.99 13.4 88 11.45 88 C9.82 88 9.82 88 8.17 88 C5.47 88 5.47 88 3.64 90.25 Z M411.64 414.25 C405.6 417.39 399.41 419.42 392.76 420.82 C386.9 422.08 383.22 423.87 378.79 427.96 C372.83 433.42 372.83 433.42 368.45 434.63 C365.77 435.46 364.86 435.91 363.3 438.29 C362.52 439.9 361.75 441.51 360.98 443.13 C359.41 445.62 358.34 446.14 355.64 447.19 C351.74 448.75 350.78 450.43 349.14 454.25 C348.84 455.1 348.54 455.95 348.23 456.82 C346.4 459.62 345.71 459.69 342.68 460.78 C339.74 462.12 338.83 462.83 337.49 465.83 C336.63 469.14 335.97 472.44 335.39 475.82 C331.35 496.87 331.35 496.87 327.14 502.12 C321.19 510.56 323.35 525.22 323.38 535.11 C323.37 537.1 323.37 539.1 323.37 541.1 C323.36 546.5 323.36 551.9 323.37 557.3 C323.37 562.95 323.37 568.6 323.36 574.26 C323.36 583.74 323.37 593.22 323.38 602.71 C323.39 613.68 323.38 624.65 323.37 635.62 C323.36 645.05 323.36 654.47 323.37 663.9 C323.37 669.53 323.37 675.16 323.36 680.78 C323.36 686.07 323.36 691.35 323.37 696.63 C323.38 698.57 323.38 700.51 323.37 702.46 C323.37 705.1 323.37 707.74 323.38 710.38 C323.38 711.16 323.37 711.93 323.37 712.73 C323.25 716.95 323.25 716.95 325.64 720.25 C328.63 720.45 331.53 720.52 334.52 720.51 C335.92 720.51 335.92 720.51 337.34 720.52 C340.48 720.53 343.62 720.52 346.76 720.51 C349 720.52 351.25 720.52 353.49 720.52 C359.6 720.53 365.71 720.53 371.81 720.52 C378.19 720.52 384.57 720.52 390.95 720.53 C402.35 720.53 413.75 720.52 425.15 720.51 C435.49 720.5 445.84 720.51 456.18 720.52 C468.19 720.53 480.19 720.53 492.19 720.52 C498.55 720.52 504.9 720.52 511.26 720.53 C517.24 720.53 523.21 720.53 529.19 720.52 C531.39 720.51 533.58 720.52 535.78 720.52 C538.77 720.53 541.76 720.52 544.75 720.51 C545.63 720.51 546.51 720.52 547.42 720.52 C552.01 720.7 552.01 720.7 555.64 718.25 C555.83 715.57 555.91 712.99 555.89 710.31 C555.89 709.48 555.9 708.65 555.9 707.8 C555.91 705 555.9 702.2 555.89 699.4 C555.9 697.4 555.9 695.4 555.91 693.4 C555.91 687.95 555.91 682.5 555.9 677.05 C555.9 671.35 555.9 665.65 555.91 659.94 C555.91 650.35 555.91 640.77 555.9 631.18 C555.89 620.11 555.89 609.04 555.9 597.97 C555.91 588.47 555.91 578.96 555.91 569.45 C555.9 563.78 555.9 558.1 555.91 552.43 C555.91 547.08 555.91 541.73 555.9 536.39 C555.9 534.43 555.9 532.48 555.9 530.52 C556.84 512.15 556.84 512.15 549.64 496.25 C547.1 492.02 545.66 487.56 544.59 482.76 C541.87 470.53 541.87 470.53 533.69 461.23 C531.3 458.93 530.63 457.15 529.64 454 C528.64 451 528.16 449.62 525.54 447.79 C523.95 447.02 522.34 446.27 520.73 445.53 C518.23 444.01 517.74 442.94 516.7 440.25 C515.14 436.36 513.46 435.4 509.64 433.75 C508.79 433.46 507.94 433.16 507.07 432.85 C504.26 431.01 504.21 430.34 503.14 427.3 C501.78 424.29 501.04 423.43 497.96 422.11 C494.49 421.25 491.04 420.59 487.51 420 C467.64 416.38 467.64 416.38 459.64 410.25 C446.47 405.66 422.52 405.29 411.64 414.25 Z M323.64 810.25 C323.33 813.2 323.33 813.2 323.38 816.69 C323.37 817.35 323.37 818.01 323.37 818.69 C323.36 820.88 323.36 823.07 323.37 825.25 C323.37 826.77 323.37 828.29 323.36 829.81 C323.36 832.99 323.37 836.17 323.38 839.35 C323.39 843.43 323.38 847.51 323.37 851.6 C323.36 854.73 323.36 857.86 323.37 860.99 C323.37 862.5 323.37 864.01 323.36 865.51 C323.36 867.61 323.37 869.71 323.38 871.82 C323.38 873.01 323.38 874.21 323.38 875.45 C323.35 878.39 323.35 878.39 325.64 880.25 C328.63 880.45 331.53 880.52 334.52 880.51 C335.45 880.51 336.38 880.51 337.34 880.52 C340.48 880.53 343.62 880.52 346.76 880.51 C349 880.52 351.25 880.52 353.49 880.52 C359.6 880.53 365.71 880.53 371.81 880.52 C378.19 880.52 384.57 880.52 390.95 880.53 C402.35 880.53 413.75 880.52 425.15 880.51 C435.49 880.5 445.84 880.51 456.18 880.52 C468.19 880.53 480.19 880.53 492.19 880.52 C498.55 880.52 504.9 880.52 511.26 880.53 C517.24 880.53 523.21 880.53 529.19 880.52 C531.39 880.51 533.58 880.52 535.78 880.52 C538.77 880.53 541.76 880.52 544.75 880.51 C545.63 880.51 546.51 880.52 547.42 880.52 C552.01 880.7 552.01 880.7 555.64 878.25 C555.94 875.31 555.94 875.31 555.89 871.82 C555.9 871.16 555.9 870.5 555.91 869.82 C555.91 867.63 555.91 865.44 555.9 863.25 C555.9 861.74 555.91 860.22 555.91 858.7 C555.91 855.52 555.91 852.34 555.9 849.16 C555.89 845.08 555.89 841 555.9 836.91 C555.91 833.78 555.91 830.65 555.9 827.51 C555.9 826.01 555.9 824.5 555.91 823 C555.91 820.9 555.91 818.79 555.89 816.69 C555.89 815.49 555.89 814.3 555.89 813.06 C555.93 810.12 555.93 810.12 553.64 808.25 C550.64 808.06 547.75 807.99 544.75 808 C543.82 808 542.89 807.99 541.93 807.99 C538.79 807.98 535.65 807.99 532.51 808 C530.27 807.99 528.02 807.99 525.78 807.99 C519.67 807.98 513.57 807.98 507.46 807.99 C501.08 807.99 494.7 807.99 488.32 807.98 C476.92 807.98 465.52 807.99 454.12 808 C443.78 808 433.43 808 423.09 807.99 C411.09 807.98 399.08 807.98 387.08 807.98 C380.73 807.99 374.37 807.99 368.01 807.98 C362.04 807.98 356.06 807.98 350.09 807.99 C347.89 807.99 345.69 807.99 343.49 807.99 C340.5 807.98 337.51 807.99 334.52 808 C333.64 808 332.76 807.99 331.85 807.99 C327.27 807.81 327.27 807.81 323.64 810.25 Z M323.64 970.25 C323.33 973.2 323.33 973.2 323.38 976.69 C323.37 977.35 323.37 978.01 323.37 978.69 C323.36 980.88 323.36 983.07 323.37 985.25 C323.37 986.77 323.37 988.29 323.36 989.81 C323.36 992.99 323.37 996.17 323.38 999.35 C323.39 1003.43 323.38 1007.51 323.37 1011.6 C323.36 1014.73 323.36 1017.86 323.37 1020.99 C323.37 1022.5 323.37 1024.01 323.36 1025.51 C323.36 1027.61 323.37 1029.71 323.38 1031.82 C323.38 1033.01 323.38 1034.21 323.38 1035.45 C323.35 1038.39 323.35 1038.39 325.64 1040.25 C328.63 1040.45 331.53 1040.52 334.52 1040.51 C335.45 1040.51 336.38 1040.51 337.34 1040.52 C340.48 1040.53 343.62 1040.52 346.76 1040.51 C349 1040.52 351.25 1040.52 353.49 1040.52 C359.6 1040.53 365.71 1040.53 371.81 1040.52 C378.19 1040.52 384.57 1040.52 390.95 1040.53 C402.35 1040.53 413.75 1040.52 425.15 1040.51 C435.49 1040.5 445.84 1040.51 456.18 1040.52 C468.19 1040.53 480.19 1040.53 492.19 1040.52 C498.55 1040.52 504.9 1040.52 511.26 1040.53 C517.24 1040.53 523.21 1040.53 529.19 1040.52 C531.39 1040.51 533.58 1040.52 535.78 1040.52 C538.77 1040.53 541.76 1040.52 544.75 1040.51 C545.63 1040.51 546.51 1040.52 547.42 1040.52 C552.01 1040.7 552.01 1040.7 555.64 1038.25 C555.94 1035.31 555.94 1035.31 555.89 1031.82 C555.9 1031.16 555.9 1030.5 555.91 1029.82 C555.91 1027.63 555.91 1025.44 555.9 1023.25 C555.9 1021.74 555.91 1020.22 555.91 1018.7 C555.91 1015.52 555.91 1012.34 555.9 1009.16 C555.89 1005.08 555.89 1001 555.9 996.91 C555.91 993.78 555.91 990.65 555.9 987.51 C555.9 986.01 555.9 984.5 555.91 983 C555.91 980.9 555.91 978.79 555.89 976.69 C555.89 975.49 555.89 974.3 555.89 973.06 C555.93 970.12 555.93 970.12 553.64 968.25 C550.64 968.06 547.75 967.99 544.75 968 C543.82 968 542.89 967.99 541.93 967.99 C538.79 967.98 535.65 967.99 532.51 968 C530.27 967.99 528.02 967.99 525.78 967.99 C519.67 967.98 513.57 967.98 507.46 967.99 C501.08 967.99 494.7 967.99 488.32 967.98 C476.92 967.98 465.52 967.99 454.12 968 C443.78 968 433.43 968 423.09 967.99 C411.09 967.98 399.08 967.98 387.08 967.98 C380.73 967.99 374.37 967.99 368.01 967.98 C362.04 967.98 356.06 967.98 350.09 967.99 C347.89 967.99 345.69 967.99 343.49 967.99 C340.5 967.98 337.51 967.99 334.52 968 C333.64 968 332.76 967.99 331.85 967.99 C327.27 967.81 327.27 967.81 323.64 970.25 Z " fill="#000000" transform="translate(200.3638048171997,75.7455244064331)"/>
<path d="M0 0 C0.89 -0.01 1.78 -0.02 2.7 -0.04 C11.22 -0.06 20.11 0.32 26.75 6.19 C28.03 8.14 29.17 10.15 30.33 12.18 C31.94 14.46 33.56 15.64 35.88 17.19 C41.05 20.78 42.05 24.87 43.3 30.8 C44.83 42.4 46.02 58.63 40.12 69.06 C37.51 71.4 34.78 72.97 31.76 74.73 C29.5 76.37 28.29 78.01 26.75 80.31 C23.16 85.49 19.07 86.48 13.14 87.74 C1.54 89.27 -14.69 90.46 -25.12 84.56 C-27.46 81.95 -29.04 79.22 -30.79 76.2 C-32.43 73.94 -34.07 72.73 -36.38 71.19 C-41.55 67.6 -42.54 63.51 -43.8 57.58 C-44.4 53.02 -44.43 48.53 -44.44 43.94 C-44.45 43.05 -44.46 42.16 -44.47 41.24 C-44.49 32.72 -44.12 23.83 -38.25 17.19 C-36.29 15.91 -34.29 14.76 -32.26 13.61 C-29.98 12 -28.79 10.37 -27.25 8.06 C-23.66 2.89 -19.57 1.89 -13.64 0.63 C-9.08 0.03 -4.59 0 0 0 Z " fill="#000000" transform="translate(640.25,235.8125)"/>
</svg>
