<?xml version="1.0" standalone="no"?>
<!DOCTYPE svg PUBLIC "-//W3C//DTD SVG 20010904//EN"
 "http://www.w3.org/TR/2001/REC-SVG-20010904/DTD/svg10.dtd">
<svg version="1.0" xmlns="http://www.w3.org/2000/svg"
 width="96.000000pt" height="96.000000pt" viewBox="0 0 96.000000 96.000000"
 preserveAspectRatio="xMidYMid meet">

<g transform="translate(0.000000,96.000000) scale(0.100000,-0.100000)"
fill="#000000" stroke="none">
<path d="M350 817 c-36 -12 -89 -39 -119 -60 -47 -33 -60 -37 -115 -37 -33 0
-67 -4 -74 -8 -9 -7 -12 -79 -10 -328 l3 -319 445 0 445 0 0 325 0 325 -76 5
c-67 4 -82 9 -131 43 -110 76 -246 96 -368 54z m227 -52 c28 -8 79 -34 114
-57 51 -34 73 -43 121 -46 41 -3 58 -9 58 -18 0 -12 -65 -14 -390 -14 -325 0
-390 2 -390 14 0 10 18 15 60 18 42 3 69 11 88 26 102 82 227 110 339 77z
m-397 -240 l0 -45 -45 0 -45 0 0 45 0 45 45 0 45 0 0 -45z m270 15 c0 -42 -39
-60 -135 -60 l-75 0 0 45 0 45 105 0 105 0 0 -30z m300 -15 l0 -45 -90 0
c-112 0 -150 16 -150 60 l0 30 120 0 120 0 0 -45z m120 0 c0 -43 -1 -45 -30
-45 -29 0 -30 2 -30 45 0 43 1 45 30 45 29 0 30 -2 30 -45z m-329 -104 l29
-29 0 -136 0 -136 -90 0 -90 0 0 136 0 136 29 29 c20 20 39 29 61 29 22 0 41
-9 61 -29z m-391 -61 l0 -60 -30 0 -30 0 0 60 0 60 30 0 30 0 0 -60z m186 44
c-3 -9 -6 -36 -6 -60 l0 -44 -60 0 -60 0 0 60 0 60 66 0 c56 0 65 -2 60 -16z
m354 -44 l0 -60 -30 0 c-29 0 -30 2 -30 44 0 24 -3 51 -6 60 -5 13 1 16 30 16
l36 0 0 -60z m180 0 l0 -60 -60 0 -60 0 0 60 0 60 60 0 60 0 0 -60z m-660
-180 l0 -60 -60 0 -60 0 0 60 0 60 60 0 60 0 0 -60z m120 0 l0 -60 -30 0 -30
0 0 60 0 60 30 0 30 0 0 -60z m420 0 l0 -60 -60 0 -60 0 0 60 0 60 60 0 60 0
0 -60z m120 0 l0 -60 -30 0 -30 0 0 60 0 60 30 0 30 0 0 -60z"/>
</g>
</svg>
