<?xml version="1.0" encoding="UTF-8"?>
<!-- Generator: visioncortex VTracer 0.6.3 -->
<svg version="1.1" xmlns="http://www.w3.org/2000/svg" width="1280" height="1280">
<path d="M0 0 C42.57 0 85.14 0 129 0 C129 2.31 129 4.62 129 7 C129.56 7.11 130.13 7.21 130.71 7.32 C133.31 7.81 135.9 8.31 138.5 8.81 C139.39 8.98 140.27 9.14 141.19 9.31 C156.6 12.32 156.6 12.32 161 18 C161 18.66 161 19.32 161 20 C161.68 20.14 162.36 20.27 163.05 20.41 C173.19 22.76 179.74 27.74 187 35 C188.47 35.96 189.95 36.89 191.44 37.81 C195.51 40.42 197.78 43.18 200.48 47.14 C202.15 49.18 203.63 50.12 205.94 51.38 C210.46 53.9 212.58 57.45 215.36 61.73 C216.95 64.22 216.95 64.22 219.94 65.94 C223.98 68.66 226.1 72.12 228.78 76.15 C230.68 78.59 232.16 79.95 234.56 81.79 C238.73 85.22 239.76 88.95 241.06 94.06 C242.81 100.8 244.36 103.85 250 108 C254.39 113.95 255.02 121.97 256.36 129.05 C257.49 134.61 259.08 138.47 262.61 142.98 C270.93 155.08 268.16 175.14 268.19 189.07 C268.2 191.31 268.21 193.54 268.21 195.78 C268.23 200.58 268.25 205.37 268.26 210.17 C268.28 217.75 268.31 225.33 268.34 232.91 C268.38 243.53 268.41 254.14 268.45 264.76 C268.45 265.43 268.45 266.1 268.45 266.8 C268.47 272.94 268.49 279.09 268.51 285.23 C268.53 289.34 268.54 293.44 268.55 297.54 C268.55 298.22 268.56 298.89 268.56 299.59 C268.59 310.82 268.63 322.05 268.68 333.28 C268.71 340.83 268.73 348.37 268.75 355.91 C268.76 360.58 268.78 365.26 268.8 369.93 C268.81 372.11 268.81 374.29 268.82 376.46 C268.82 379.42 268.83 382.38 268.85 385.34 C268.85 386.21 268.85 387.08 268.85 387.98 C268.5 391.8 268.5 391.8 270 395 C272.11 395.1 274.23 395.13 276.34 395.13 C277.33 395.13 277.33 395.13 278.35 395.13 C280.54 395.14 282.74 395.14 284.94 395.13 C286.46 395.13 287.98 395.13 289.5 395.14 C292.69 395.14 295.88 395.14 299.07 395.13 C303.17 395.12 307.27 395.13 311.37 395.13 C314.51 395.14 317.65 395.14 320.8 395.13 C322.31 395.13 323.82 395.13 325.33 395.14 C327.44 395.14 329.55 395.13 331.66 395.13 C332.86 395.13 334.07 395.13 335.3 395.13 C337.92 395.31 337.92 395.31 339 394 C339.11 392.48 339.14 390.95 339.15 389.42 C339.16 388.43 339.17 387.44 339.18 386.42 C339.18 385.32 339.19 384.22 339.19 383.09 C339.2 381.94 339.21 380.8 339.21 379.61 C339.23 377.11 339.25 374.6 339.26 372.1 C339.28 368.13 339.31 364.15 339.34 360.18 C339.39 352.44 339.44 344.7 339.49 336.96 C339.55 327.16 339.61 317.36 339.68 307.56 C339.71 302.99 339.74 298.42 339.76 293.86 C339.98 258.07 339.98 258.07 345 249 C345.81 248.25 346.62 247.5 347.45 246.72 C350.7 243.25 351.67 239.99 353 235.5 C354.71 229.75 356.17 225.92 361 222 C361.99 221.67 362.98 221.34 364 221 C365.04 218.48 365.04 218.48 365.81 215.44 C368.83 205.9 373.67 200.85 381.63 194.96 C384.16 192.86 385.96 190.57 388 188 C392.52 184.34 397.26 182.37 402.92 181.16 C405.37 180.04 405.37 180.04 406.77 176.6 C408.76 172.8 410.81 171.76 414.79 170.4 C415.86 170.08 415.86 170.08 416.94 169.75 C425.14 167.08 425.14 167.08 432.06 162 C442.41 154.95 457.85 155.85 469.89 155.83 C471.54 155.83 471.54 155.83 473.22 155.82 C475.54 155.82 477.85 155.81 480.17 155.81 C483.66 155.81 487.15 155.79 490.65 155.78 C524.53 155.69 524.53 155.69 534 162 C534.57 162.96 534.57 162.96 535.14 163.94 C538.06 167.17 541.78 167.86 545.88 169.06 C556.13 172.17 556.13 172.17 560 175 C560.39 175.8 560.78 176.61 561.19 177.44 C563.29 180.41 564.34 180.69 567.69 181.88 C573.29 183.91 576.76 186.91 581 191 C582.72 192.57 584.45 194.13 586.19 195.69 C586.99 196.41 587.78 197.14 588.61 197.89 C590.24 199.33 591.92 200.71 593.64 202.04 C598.98 206.47 601.42 212.25 602.84 218.92 C603.96 221.37 603.96 221.37 607.4 222.77 C611.2 224.76 612.24 226.81 613.6 230.79 C613.82 231.5 614.03 232.21 614.25 232.94 C616.92 241.14 616.92 241.14 622 248.06 C628.72 257.93 628.15 272.46 628.13 283.99 C628.14 285.4 628.14 285.4 628.14 286.84 C628.15 289.97 628.15 293.09 628.15 296.21 C628.15 298.47 628.15 300.72 628.16 302.97 C628.16 309.07 628.17 315.17 628.17 321.27 C628.17 325.09 628.17 328.91 628.17 332.73 C628.18 345.4 628.19 358.07 628.19 370.73 C628.19 371.41 628.19 372.1 628.19 372.8 C628.19 373.82 628.19 373.82 628.19 374.86 C628.18 385.89 628.19 396.92 628.21 407.95 C628.22 419.32 628.23 430.69 628.23 442.06 C628.23 448.42 628.23 454.79 628.24 461.15 C628.25 467.15 628.25 473.14 628.24 479.14 C628.24 481.33 628.25 483.51 628.25 485.69 C628.28 496.29 628.11 506.84 627.23 517.41 C627.17 518.24 627.11 519.08 627.05 519.94 C626.43 526.42 624.89 533.39 619.9 537.89 C616.17 542.02 616.02 548.25 615.02 553.58 C613.48 561.18 611.25 567.99 605.44 573.38 C602.84 576.17 602.22 577.92 601.06 581.5 C599.32 586.74 597.7 589.1 593 592 C592.01 592 591.02 592 590 592 C589.91 592.61 589.83 593.21 589.74 593.84 C588.54 601.01 586.75 608.67 581.11 613.68 C579.74 614.65 578.36 615.59 576.96 616.51 C574.83 618.13 573.62 619.72 572.12 621.94 C569.19 626.16 565.63 628.5 561.37 631.28 C559.13 632.91 557.76 634.36 556.12 636.56 C551.78 642.11 544.54 644.82 538 647 C537.44 647.93 536.89 648.86 536.31 649.81 C532.59 654.94 527.6 656.47 521.75 658.44 C518.82 659.48 518.09 659.89 516.06 662.44 C511.39 668.24 503.96 669.3 497 670.88 C491.31 672.17 486.82 673.78 482.29 677.54 C476.06 681.52 468.75 682.59 461.51 683.16 C460.54 683.24 459.57 683.32 458.57 683.4 C442.34 684.57 426.02 684.34 409.76 684.37 C404.83 684.38 399.91 684.41 394.98 684.43 C385.7 684.47 376.41 684.5 367.12 684.53 C350.43 684.58 333.74 684.65 317.05 684.72 C311.19 684.74 305.34 684.76 299.49 684.78 C295.87 684.79 292.25 684.8 288.63 684.82 C286.95 684.82 285.27 684.83 283.58 684.83 C281.3 684.83 279.01 684.84 276.72 684.86 C275.44 684.86 274.16 684.86 272.84 684.87 C270.1 684.68 270.1 684.68 269 686 C268.9 688.27 268.87 690.54 268.87 692.8 C268.87 693.53 268.87 694.25 268.87 695 C268.87 697.45 268.87 699.91 268.87 702.36 C268.87 704.13 268.87 705.89 268.87 707.66 C268.86 712.53 268.87 717.41 268.87 722.29 C268.87 727.53 268.87 732.78 268.87 738.03 C268.86 748.32 268.86 758.62 268.86 768.91 C268.87 777.27 268.87 785.63 268.87 793.99 C268.87 795.18 268.87 796.36 268.87 797.59 C268.87 800 268.87 802.41 268.86 804.82 C268.86 827.47 268.87 850.11 268.87 872.76 C268.88 892.21 268.87 911.66 268.87 931.12 C268.86 953.68 268.86 976.24 268.87 998.8 C268.87 1001.2 268.87 1003.61 268.87 1006.01 C268.87 1007.19 268.87 1008.38 268.87 1009.59 C268.87 1017.95 268.87 1026.31 268.86 1034.66 C268.86 1044.84 268.86 1055.01 268.87 1065.19 C268.87 1070.38 268.87 1075.58 268.87 1080.78 C268.86 1085.53 268.87 1090.28 268.87 1095.03 C268.87 1096.75 268.87 1098.48 268.87 1100.2 C268.87 1102.53 268.87 1104.87 268.87 1107.2 C268.87 1109.14 268.87 1109.14 268.87 1111.13 C268.67 1113.9 268.67 1113.9 270 1115 C271.86 1115.1 273.71 1115.13 275.57 1115.13 C276.79 1115.13 278.01 1115.13 279.26 1115.14 C280.63 1115.13 282 1115.13 283.37 1115.13 C284.81 1115.13 286.25 1115.14 287.69 1115.14 C290.83 1115.14 293.98 1115.14 297.12 1115.14 C302.23 1115.14 307.35 1115.15 312.46 1115.15 C319.89 1115.16 327.31 1115.17 334.74 1115.17 C346.47 1115.17 358.21 1115.19 369.94 1115.21 C373.95 1115.22 377.97 1115.22 381.98 1115.23 C382.98 1115.23 383.98 1115.23 385.02 1115.23 C396.44 1115.25 407.86 1115.27 419.28 1115.28 C420.33 1115.28 421.37 1115.29 422.45 1115.29 C439.37 1115.31 456.3 1115.32 473.22 1115.33 C490.59 1115.34 507.95 1115.36 525.31 1115.4 C536.03 1115.42 546.75 1115.43 557.47 1115.42 C564.81 1115.42 572.15 1115.43 579.5 1115.45 C583.74 1115.46 587.98 1115.47 592.22 1115.46 C596.1 1115.45 599.98 1115.46 603.86 1115.48 C605.26 1115.49 606.67 1115.48 608.07 1115.47 C621.11 1115.4 621.11 1115.4 626 1120 C628.54 1123.39 628.27 1126.83 628.29 1130.97 C628.3 1132.01 628.3 1132.01 628.31 1133.07 C628.33 1135.36 628.33 1137.64 628.34 1139.93 C628.34 1141.52 628.35 1143.12 628.36 1144.71 C628.37 1148.05 628.37 1151.39 628.37 1154.73 C628.37 1159.01 628.4 1163.28 628.43 1167.55 C628.45 1170.84 628.46 1174.14 628.46 1177.43 C628.46 1179 628.47 1180.58 628.48 1182.15 C628.5 1184.36 628.5 1186.57 628.49 1188.77 C628.49 1190.03 628.49 1191.28 628.49 1192.57 C627.9 1196.69 626.64 1198.82 624 1202 C620.39 1204.5 616.61 1204.28 612.38 1204.25 C611.6 1204.26 610.83 1204.26 610.03 1204.26 C607.4 1204.27 604.78 1204.26 602.16 1204.26 C600.26 1204.26 598.36 1204.26 596.46 1204.27 C591.21 1204.28 585.95 1204.27 580.7 1204.27 C574.99 1204.27 569.29 1204.27 563.59 1204.28 C553.58 1204.29 543.57 1204.29 533.56 1204.29 C522.82 1204.29 512.08 1204.29 501.34 1204.3 C500.66 1204.3 499.98 1204.3 499.29 1204.3 C496.52 1204.3 493.76 1204.3 491 1204.31 C462.19 1204.33 433.37 1204.33 404.56 1204.33 C401.45 1204.33 398.35 1204.33 395.25 1204.33 C394.48 1204.33 393.71 1204.33 392.91 1204.33 C375.86 1204.34 358.81 1204.34 341.76 1204.34 C334.74 1204.35 327.72 1204.35 320.7 1204.35 C319.54 1204.35 319.54 1204.35 318.35 1204.35 C273.91 1204.36 229.47 1204.37 185.02 1204.37 C183.36 1204.37 181.69 1204.37 180.03 1204.37 C172.52 1204.37 165.01 1204.37 157.49 1204.37 C154.14 1204.37 150.79 1204.37 147.44 1204.37 C145.77 1204.37 144.09 1204.37 142.41 1204.37 C89.39 1204.37 36.36 1204.38 -16.67 1204.41 C-30.03 1204.42 -43.39 1204.43 -56.75 1204.43 C-57.58 1204.43 -58.4 1204.43 -59.25 1204.43 C-84.59 1204.45 -109.94 1204.45 -135.29 1204.46 C-136.48 1204.46 -136.48 1204.46 -137.7 1204.46 C-155.16 1204.46 -172.62 1204.46 -190.08 1204.46 C-196.33 1204.46 -202.58 1204.46 -208.83 1204.46 C-210.38 1204.46 -211.94 1204.46 -213.49 1204.46 C-238.28 1204.46 -263.07 1204.47 -287.86 1204.49 C-312.82 1204.5 -337.78 1204.51 -362.74 1204.49 C-366.18 1204.49 -369.63 1204.49 -373.08 1204.49 C-373.75 1204.49 -374.43 1204.49 -375.12 1204.49 C-386.49 1204.48 -397.85 1204.49 -409.22 1204.51 C-419.09 1204.52 -428.96 1204.52 -438.84 1204.5 C-444.47 1204.5 -450.11 1204.49 -455.74 1204.51 C-460.86 1204.53 -465.98 1204.52 -471.1 1204.5 C-472.94 1204.5 -474.79 1204.5 -476.64 1204.51 C-479.13 1204.53 -481.63 1204.52 -484.13 1204.5 C-484.85 1204.51 -485.56 1204.52 -486.3 1204.53 C-491.3 1204.46 -494.13 1203.11 -498 1200 C-500.54 1196.61 -500.27 1193.17 -500.29 1189.03 C-500.3 1188.34 -500.3 1187.65 -500.31 1186.93 C-500.33 1184.64 -500.33 1182.36 -500.34 1180.07 C-500.34 1178.48 -500.35 1176.88 -500.36 1175.29 C-500.37 1171.95 -500.37 1168.61 -500.37 1165.27 C-500.37 1160.99 -500.4 1156.72 -500.43 1152.45 C-500.45 1149.16 -500.46 1145.86 -500.46 1142.57 C-500.46 1141 -500.47 1139.42 -500.48 1137.85 C-500.5 1135.64 -500.5 1133.43 -500.49 1131.23 C-500.49 1129.97 -500.49 1128.72 -500.49 1127.43 C-499.9 1123.31 -498.64 1121.18 -496 1118 C-492.69 1115.84 -489.95 1115.75 -486.04 1115.74 C-484.82 1115.73 -483.59 1115.73 -482.33 1115.72 C-480.96 1115.72 -479.6 1115.73 -478.24 1115.73 C-476.79 1115.72 -475.35 1115.72 -473.9 1115.71 C-469.92 1115.7 -465.94 1115.7 -461.96 1115.7 C-457.67 1115.7 -453.38 1115.68 -449.09 1115.67 C-441.66 1115.65 -434.22 1115.64 -426.79 1115.63 C-416.04 1115.62 -405.29 1115.6 -394.54 1115.58 C-377.1 1115.54 -359.66 1115.5 -342.22 1115.48 C-341.17 1115.48 -340.13 1115.47 -339.05 1115.47 C-337.48 1115.47 -337.48 1115.47 -335.88 1115.47 C-321.05 1115.44 -306.22 1115.42 -291.39 1115.39 C-290.35 1115.39 -289.3 1115.39 -288.23 1115.39 C-270.85 1115.36 -253.47 1115.32 -236.09 1115.28 C-225.36 1115.26 -214.64 1115.24 -203.91 1115.23 C-196.56 1115.22 -189.22 1115.2 -181.88 1115.19 C-177.63 1115.18 -173.39 1115.17 -169.15 1115.17 C-165.27 1115.17 -161.39 1115.16 -157.51 1115.15 C-156.1 1115.15 -154.7 1115.14 -153.29 1115.15 C-151.38 1115.15 -149.48 1115.14 -147.58 1115.13 C-146.52 1115.13 -145.46 1115.13 -144.36 1115.13 C-142.04 1115.27 -142.04 1115.27 -141 1114 C-140.9 1111.07 -140.87 1108.16 -140.87 1105.23 C-140.87 1103.83 -140.87 1103.83 -140.87 1102.41 C-140.86 1099.26 -140.87 1096.12 -140.87 1092.97 C-140.87 1090.73 -140.87 1088.48 -140.87 1086.24 C-140.86 1080.12 -140.86 1074.01 -140.87 1067.89 C-140.87 1061.51 -140.87 1055.12 -140.86 1048.74 C-140.86 1037.33 -140.87 1025.92 -140.87 1014.5 C-140.88 1004.15 -140.87 993.79 -140.87 983.43 C-140.86 971.42 -140.86 959.41 -140.87 947.39 C-140.87 941.03 -140.87 934.66 -140.86 928.3 C-140.86 922.32 -140.86 916.34 -140.87 910.35 C-140.87 908.15 -140.87 905.95 -140.87 903.75 C-140.86 900.75 -140.87 897.76 -140.87 894.77 C-140.87 893.44 -140.87 893.44 -140.87 892.09 C-140.5 888.24 -140.5 888.24 -142 885 C-144.11 884.9 -146.22 884.86 -148.33 884.86 C-148.99 884.85 -149.66 884.85 -150.35 884.84 C-152.61 884.83 -154.87 884.83 -157.13 884.83 C-158.74 884.82 -160.35 884.81 -161.97 884.81 C-165.45 884.79 -168.94 884.78 -172.42 884.77 C-177.95 884.75 -183.48 884.73 -189.01 884.71 C-204.74 884.63 -220.47 884.57 -236.2 884.52 C-244.87 884.49 -253.55 884.46 -262.23 884.42 C-266.82 884.39 -271.4 884.38 -275.99 884.37 C-332.28 884.24 -332.28 884.24 -342.88 876.12 C-347.54 872.72 -352.33 871.86 -357.88 870.69 C-365.77 868.98 -370.42 866.73 -376.36 861.07 C-380.41 857.89 -384.81 857.08 -389.76 855.89 C-396.74 853.98 -400.98 850.02 -406 845 C-407.51 844 -409.03 843.02 -410.56 842.06 C-413.63 840.1 -414.95 839.08 -416.94 835.94 C-419.61 832.13 -422.51 831.12 -426.66 829.22 C-430.34 827.3 -432.27 824.75 -433.85 820.97 C-435.26 818.55 -436.38 818.07 -438.94 817 C-443.86 814.7 -445.39 812.63 -447.31 807.5 C-448.7 803.84 -448.7 803.84 -451.86 802.2 C-455.54 799.62 -456.86 797.35 -458.88 793.38 C-459.47 792.23 -460.07 791.08 -460.68 789.9 C-462 787 -462 787 -462 785 C-462.6 784.74 -463.19 784.48 -463.81 784.22 C-469.27 781.18 -472.08 775.49 -473.81 769.69 C-474.22 768.13 -474.61 766.56 -475 765 C-475.33 764.01 -475.66 763.02 -476 762 C-476.76 761.77 -477.53 761.55 -478.31 761.31 C-482.37 759.33 -483.41 756.11 -485 752 C-485.8 748.76 -486.3 745.49 -486.81 742.19 C-488.08 734.89 -489.73 729.41 -494.41 723.48 C-498.28 717.42 -498.53 709.62 -499.11 702.62 C-499.19 701.62 -499.28 700.61 -499.36 699.58 C-500.28 687.77 -500.28 675.98 -500.26 664.14 C-500.26 661.64 -500.27 659.14 -500.27 656.64 C-500.28 650.62 -500.28 644.6 -500.27 638.58 C-500.27 633.68 -500.27 628.78 -500.27 623.88 C-500.27 623.18 -500.27 622.48 -500.27 621.75 C-500.27 620.32 -500.27 618.9 -500.27 617.47 C-500.28 604.15 -500.27 590.82 -500.26 577.5 C-500.25 566.11 -500.25 554.71 -500.26 543.32 C-500.27 530.03 -500.28 516.73 -500.27 503.44 C-500.27 502.02 -500.27 500.6 -500.27 499.18 C-500.27 498.48 -500.27 497.78 -500.27 497.06 C-500.26 492.18 -500.27 487.29 -500.27 482.4 C-500.28 475.81 -500.27 469.22 -500.26 462.63 C-500.26 460.22 -500.26 457.81 -500.27 455.41 C-500.32 420.48 -500.32 420.48 -494 411 C-493.12 410.67 -492.25 410.34 -491.35 410 C-490.19 409.51 -490.19 409.51 -489 409 C-487.88 405.76 -487.88 405.76 -487.44 401.94 C-485.46 390.04 -485.46 390.04 -482 385 C-481.01 384.36 -480.02 383.72 -479 383.06 C-475.66 380.77 -475.36 379.92 -474.06 376.25 C-472.07 370.66 -469.08 367.23 -465 363 C-463.43 361.28 -461.87 359.55 -460.31 357.81 C-459.59 357.01 -458.86 356.22 -458.11 355.39 C-456.67 353.76 -455.29 352.08 -453.96 350.36 C-449.53 345.02 -443.75 342.58 -437.08 341.16 C-434.63 340.04 -434.63 340.04 -433.23 336.6 C-431.24 332.8 -429.19 331.76 -425.21 330.4 C-424.5 330.18 -423.79 329.97 -423.06 329.75 C-414.86 327.08 -414.86 327.08 -407.94 322 C-397.85 315.13 -382.9 315.85 -371.13 315.83 C-370.13 315.83 -369.12 315.83 -368.09 315.82 C-365.98 315.82 -363.87 315.81 -361.76 315.81 C-358.6 315.81 -355.44 315.79 -352.28 315.78 C-342.46 315.75 -332.69 315.91 -322.9 316.76 C-322.1 316.82 -321.3 316.88 -320.48 316.95 C-315.08 317.49 -311.47 318.89 -307 322 C-306.67 322.88 -306.34 323.75 -306 324.66 C-305.67 325.43 -305.34 326.2 -305 327 C-301.79 328.09 -301.79 328.09 -298 328.5 C-291.42 329.57 -285.54 331.06 -280 335 C-279.5 335.85 -279.01 336.69 -278.5 337.56 C-276.66 340.55 -275.56 340.72 -272.31 341.88 C-266.71 343.91 -263.24 346.91 -259 351 C-257.28 352.57 -255.55 354.13 -253.81 355.69 C-253.01 356.41 -252.22 357.14 -251.39 357.89 C-249.76 359.33 -248.08 360.71 -246.36 362.04 C-241.02 366.47 -238.58 372.25 -237.16 378.92 C-236.04 381.37 -236.04 381.37 -232.6 382.77 C-228.8 384.76 -227.76 386.81 -226.4 390.79 C-226.18 391.5 -225.97 392.21 -225.75 392.94 C-223.08 401.14 -223.08 401.14 -218 408.06 C-210.23 419.48 -211.85 436.71 -211.81 449.92 C-211.8 451.5 -211.79 453.07 -211.79 454.65 C-211.77 458.02 -211.75 461.39 -211.74 464.76 C-211.72 470.09 -211.69 475.42 -211.66 480.75 C-211.6 493 -211.54 505.26 -211.49 517.51 C-211.44 528.78 -211.38 540.04 -211.32 551.31 C-211.29 556.61 -211.27 561.91 -211.25 567.21 C-211.24 570.5 -211.22 573.78 -211.2 577.06 C-211.19 578.59 -211.19 580.12 -211.18 581.65 C-211.18 583.73 -211.17 585.8 -211.15 587.88 C-211.15 589.04 -211.14 590.21 -211.14 591.41 C-211.29 593.93 -211.29 593.93 -210 595 C-207.89 595.1 -205.77 595.13 -203.66 595.13 C-203 595.13 -202.34 595.13 -201.65 595.13 C-199.46 595.14 -197.26 595.14 -195.06 595.13 C-193.54 595.13 -192.02 595.13 -190.5 595.14 C-187.31 595.14 -184.12 595.14 -180.93 595.13 C-176.83 595.12 -172.73 595.13 -168.63 595.13 C-165.49 595.14 -162.35 595.14 -159.2 595.13 C-157.69 595.13 -156.18 595.13 -154.67 595.14 C-152.56 595.14 -150.45 595.13 -148.34 595.13 C-147.14 595.13 -145.93 595.13 -144.7 595.13 C-142.08 595.31 -142.08 595.31 -141 594 C-140.9 591.78 -140.87 589.57 -140.87 587.35 C-140.86 586.29 -140.86 586.29 -140.86 585.21 C-140.85 582.81 -140.85 580.41 -140.86 578.01 C-140.85 576.28 -140.85 574.56 -140.84 572.83 C-140.83 568.06 -140.83 563.3 -140.83 558.53 C-140.82 553.4 -140.82 548.26 -140.81 543.13 C-140.79 534.23 -140.78 525.32 -140.77 516.41 C-140.76 503.51 -140.74 490.61 -140.71 477.71 C-140.67 456.75 -140.64 435.79 -140.61 414.84 C-140.61 413.58 -140.6 412.32 -140.6 411.03 C-140.57 393.25 -140.55 375.47 -140.53 357.69 C-140.53 355.81 -140.53 355.81 -140.52 353.9 C-140.52 352.65 -140.52 351.41 -140.52 350.12 C-140.49 329.27 -140.46 308.41 -140.42 287.56 C-140.39 274.71 -140.37 261.85 -140.36 249 C-140.36 240.17 -140.34 231.34 -140.32 222.51 C-140.31 217.43 -140.3 212.35 -140.3 207.26 C-140.3 172.14 -140.3 172.14 -139.17 159.05 C-139.1 158.24 -139.03 157.43 -138.96 156.6 C-138.08 148.33 -136.53 140.69 -130.4 134.77 C-126.51 129.87 -126.2 122.94 -125.32 116.92 C-124.51 112.09 -123.1 108.79 -120 105 C-119.28 104.65 -118.57 104.3 -117.83 103.94 C-115.76 103.14 -115.76 103.14 -115.2 100.75 C-115.03 99.84 -114.86 98.94 -114.69 98 C-112.57 89.16 -107.29 83.29 -101 77 C-100.04 75.53 -99.11 74.05 -98.19 72.56 C-95.58 68.49 -92.82 66.22 -88.86 63.52 C-86.82 61.85 -85.88 60.37 -84.62 58.06 C-82.1 53.54 -78.55 51.42 -74.27 48.64 C-71.78 47.05 -71.78 47.05 -70.06 44.06 C-67.28 39.94 -63.66 37.76 -59.61 34.95 C-57.39 33.29 -55.97 31.96 -54.38 29.75 C-50.01 24.7 -44.05 23.25 -37.75 21.62 C-32.86 20.25 -31.17 17.98 -28 14 C-20.33 8.92 -9.04 7 0 7 C0 4.69 0 2.38 0 0 Z M36 90 C29.96 93.14 23.77 95.16 17.12 96.56 C11.27 97.82 7.59 99.61 3.15 103.71 C-2.81 109.16 -2.81 109.16 -7.19 110.38 C-9.87 111.2 -10.77 111.65 -12.33 114.04 C-13.11 115.64 -13.89 117.26 -14.66 118.88 C-16.23 121.36 -17.29 121.89 -20 122.94 C-23.89 124.5 -24.85 126.18 -26.5 130 C-26.8 130.85 -27.1 131.69 -27.41 132.56 C-29.24 135.36 -29.93 135.44 -32.95 136.53 C-35.9 137.86 -36.81 138.58 -38.15 141.57 C-39 144.89 -39.66 148.19 -40.25 151.56 C-44.29 172.62 -44.29 172.62 -48.49 177.86 C-54.27 186.07 -52.28 200.09 -52.27 209.71 C-52.27 211.61 -52.27 213.51 -52.28 215.41 C-52.29 220.61 -52.29 225.81 -52.29 231.01 C-52.29 236.62 -52.3 242.23 -52.31 247.85 C-52.32 257.57 -52.33 267.29 -52.34 277.02 C-52.34 291.09 -52.36 305.16 -52.38 319.23 C-52.42 342.07 -52.45 364.91 -52.47 387.76 C-52.47 388.44 -52.47 389.12 -52.47 389.83 C-52.48 400.22 -52.49 410.61 -52.5 421 C-52.51 432.08 -52.52 443.16 -52.53 454.24 C-52.53 454.92 -52.53 455.61 -52.53 456.31 C-52.56 479.76 -52.59 503.21 -52.62 526.66 C-52.65 540.69 -52.66 554.73 -52.67 568.76 C-52.67 578.37 -52.68 587.99 -52.7 597.6 C-52.71 603.15 -52.71 608.7 -52.71 614.24 C-52.71 619.32 -52.72 624.4 -52.73 629.48 C-52.73 631.32 -52.73 633.15 -52.73 634.99 C-52.69 658.98 -52.69 658.98 -57.25 664.94 C-60 667 -60 667 -62.94 668.81 C-65.81 670.87 -66.96 672.22 -68.88 675.06 C-72.55 680.24 -76.64 681.34 -82.66 682.52 C-86.33 683.05 -89.82 683.13 -93.52 683.13 C-94.62 683.14 -94.62 683.14 -95.75 683.14 C-98.21 683.15 -100.66 683.15 -103.12 683.15 C-104.89 683.15 -106.65 683.15 -108.42 683.16 C-113.21 683.16 -118 683.17 -122.8 683.17 C-125.79 683.17 -128.79 683.17 -131.79 683.17 C-142.25 683.18 -152.72 683.19 -163.18 683.19 C-172.92 683.18 -182.66 683.2 -192.39 683.21 C-200.77 683.22 -209.14 683.23 -217.51 683.23 C-222.51 683.23 -227.5 683.23 -232.5 683.24 C-237.2 683.25 -241.9 683.25 -246.61 683.24 C-248.33 683.24 -250.05 683.25 -251.76 683.25 C-274.96 683.33 -274.96 683.33 -280.94 678.75 C-283 676 -283 676 -284.81 673.06 C-286.87 670.19 -288.22 669.04 -291.06 667.12 C-296.23 663.46 -297.33 659.38 -298.52 653.38 C-299.07 649.51 -299.15 645.72 -299.14 641.82 C-299.15 641.01 -299.15 640.21 -299.16 639.38 C-299.17 636.68 -299.17 633.98 -299.17 631.29 C-299.18 629.35 -299.19 627.41 -299.19 625.47 C-299.21 621.31 -299.22 617.14 -299.23 612.97 C-299.25 606.38 -299.27 599.78 -299.29 593.19 C-299.37 574.44 -299.43 555.69 -299.48 536.94 C-299.51 526.59 -299.54 516.23 -299.58 505.87 C-299.61 499.32 -299.63 492.77 -299.64 486.22 C-299.65 482.14 -299.67 478.06 -299.69 473.98 C-299.69 472.09 -299.7 470.2 -299.7 468.31 C-299.7 465.73 -299.71 463.14 -299.73 460.56 C-299.72 459.45 -299.72 459.45 -299.72 458.32 C-299.77 453.14 -300.19 447.89 -302 443 C-303.44 441.82 -304.89 440.64 -306.41 439.57 C-310.77 435.27 -312.8 427.95 -313.56 422 C-314.69 418.82 -314.69 418.82 -317.47 417.87 C-319.57 417.19 -321.68 416.56 -323.81 415.98 C-327.66 414.8 -330.83 413.04 -334.26 410.95 C-335.96 409.84 -335.96 409.84 -338 410 C-338.22 409.37 -338.45 408.73 -338.68 408.08 C-339.83 405.81 -339.83 405.81 -342.26 405.14 C-348.38 404.18 -354.26 403.87 -360.44 404.19 C-361.11 404.22 -361.78 404.25 -362.48 404.28 C-368.37 404.7 -371.46 406.61 -375.78 410.5 C-378.73 413.03 -381.66 414.11 -385.32 415.32 C-392.63 417.7 -392.63 417.7 -398.08 422.84 C-399.28 425.87 -400.18 428.85 -401 432 C-402.71 436.15 -404.23 439.32 -407.62 442.31 C-414.77 450.39 -412.28 466.24 -412.26 476.42 C-412.26 478.49 -412.27 480.55 -412.27 482.61 C-412.28 488.18 -412.28 493.76 -412.27 499.33 C-412.26 505.19 -412.27 511.04 -412.27 516.9 C-412.28 526.74 -412.27 536.58 -412.26 546.42 C-412.25 557.75 -412.25 569.09 -412.26 580.43 C-412.27 590.19 -412.27 599.95 -412.27 609.72 C-412.27 615.54 -412.27 621.35 -412.27 627.17 C-412.28 632.65 -412.27 638.13 -412.26 643.61 C-412.26 645.61 -412.26 647.6 -412.27 649.6 C-412.28 659.11 -412.13 668.55 -411.17 678.02 C-411.1 678.76 -411.03 679.5 -410.96 680.25 C-410.34 685.53 -408.74 688.85 -405.46 692.94 C-401.81 698.11 -401.17 705.01 -400.06 711.12 C-398.63 718.47 -396.74 723.98 -390.5 728.43 C-388.36 730.67 -387.63 733.11 -386.56 736 C-384.68 740.95 -383.23 743.17 -378.7 745.79 C-376.02 747.7 -374.71 750.29 -373.14 753.13 C-371.23 756.26 -369.57 757.76 -366.19 759.19 C-362.94 761.04 -362.2 761.98 -360.25 765 C-357.23 769.35 -354.53 770.01 -349.52 771.16 C-345.84 772.38 -343.67 774.69 -340.89 777.3 C-334.96 782.63 -327.8 783.84 -320.23 785.5 C-314.32 786.83 -308.9 788.36 -304.3 792.55 C-301.04 794.6 -297.76 794.82 -294.01 795.17 C-293.22 795.25 -292.42 795.33 -291.61 795.41 C-282.36 796.26 -273.12 796.29 -263.85 796.29 C-261.9 796.29 -259.95 796.3 -258.01 796.31 C-253.85 796.32 -249.7 796.33 -245.55 796.34 C-238.97 796.34 -232.4 796.36 -225.83 796.39 C-210.7 796.44 -195.57 796.47 -180.44 796.51 C-166.54 796.54 -152.65 796.57 -138.75 796.62 C-132.22 796.65 -125.69 796.66 -119.16 796.67 C-115.1 796.67 -111.04 796.69 -106.98 796.7 C-105.1 796.71 -103.22 796.71 -101.35 796.71 C-76.18 796.7 -76.18 796.7 -70 802 C-68.75 803.95 -67.61 805.95 -66.46 807.96 C-64.83 810.24 -63.2 811.45 -60.88 813 C-55.76 816.55 -54.74 820.55 -53.48 826.41 C-52.81 831.45 -52.85 836.42 -52.86 841.49 C-52.85 842.65 -52.85 843.82 -52.84 845.02 C-52.84 848.24 -52.83 851.46 -52.83 854.68 C-52.82 858.15 -52.82 861.63 -52.81 865.11 C-52.79 871.13 -52.78 877.15 -52.77 883.17 C-52.76 891.88 -52.74 900.58 -52.71 909.29 C-52.67 923.42 -52.64 937.55 -52.61 951.68 C-52.61 952.53 -52.6 953.37 -52.6 954.24 C-52.57 966.25 -52.55 978.26 -52.53 990.28 C-52.53 991.12 -52.52 991.97 -52.52 992.84 C-52.52 994.11 -52.52 994.11 -52.52 995.4 C-52.49 1009.49 -52.46 1023.57 -52.42 1037.65 C-52.39 1046.34 -52.37 1055.03 -52.36 1063.72 C-52.36 1069.67 -52.34 1075.61 -52.32 1081.56 C-52.31 1085 -52.3 1088.43 -52.3 1091.87 C-52.3 1095.58 -52.29 1099.3 -52.27 1103.02 C-52.27 1104.11 -52.28 1105.21 -52.28 1106.34 C-52.27 1107.33 -52.27 1108.32 -52.26 1109.34 C-52.26 1110.19 -52.26 1111.05 -52.25 1111.94 C-52.19 1114.22 -52.19 1114.22 -50 1116 C-47.01 1116.2 -44.11 1116.27 -41.12 1116.25 C-40.19 1116.26 -39.25 1116.26 -38.29 1116.26 C-35.15 1116.27 -32.02 1116.27 -28.88 1116.26 C-26.63 1116.26 -24.39 1116.27 -22.15 1116.27 C-16.04 1116.28 -9.93 1116.27 -3.82 1116.27 C2.56 1116.26 8.93 1116.27 15.31 1116.27 C26.71 1116.28 38.11 1116.27 49.51 1116.26 C59.86 1116.25 70.2 1116.25 80.55 1116.26 C92.55 1116.27 104.55 1116.28 116.55 1116.27 C122.91 1116.27 129.27 1116.27 135.62 1116.27 C141.6 1116.28 147.58 1116.27 153.55 1116.26 C155.75 1116.26 157.95 1116.26 160.15 1116.27 C163.14 1116.27 166.13 1116.26 169.12 1116.25 C170 1116.26 170.88 1116.26 171.78 1116.27 C176.37 1116.45 176.37 1116.45 180 1114 C180.2 1111.37 180.27 1108.84 180.26 1106.21 C180.26 1104.98 180.26 1104.98 180.27 1103.73 C180.28 1100.96 180.27 1098.19 180.27 1095.41 C180.27 1093.42 180.27 1091.42 180.28 1089.43 C180.29 1083.92 180.29 1078.42 180.29 1072.91 C180.29 1066.98 180.3 1061.05 180.31 1055.12 C180.32 1044.84 180.33 1034.56 180.34 1024.27 C180.34 1009.4 180.36 994.52 180.38 979.64 C180.39 972.71 180.4 965.78 180.41 958.85 C180.41 958.16 180.41 957.46 180.41 956.75 C180.44 940.23 180.45 923.71 180.47 907.18 C180.47 906.46 180.47 905.74 180.47 904.99 C180.48 894 180.49 883 180.5 872 C180.51 860.29 180.52 848.57 180.53 836.86 C180.53 836.14 180.53 835.42 180.53 834.67 C180.55 818.2 180.57 801.72 180.59 785.24 C180.59 784.55 180.59 783.86 180.59 783.14 C180.6 776.22 180.61 769.31 180.62 762.39 C180.64 746.87 180.66 731.34 180.67 715.82 C180.67 705.65 180.68 695.48 180.7 685.3 C180.71 679.43 180.71 673.56 180.71 667.69 C180.71 662.32 180.72 656.94 180.73 651.57 C180.73 649.62 180.73 647.68 180.73 645.74 C180.69 620.2 180.69 620.2 186 614 C187.95 612.75 189.95 611.61 191.96 610.46 C194.24 608.83 195.45 607.2 197 604.88 C200.57 599.72 204.66 598.67 210.59 597.48 C214.64 596.91 218.57 596.85 222.65 596.86 C223.94 596.85 223.94 596.85 225.25 596.84 C228.12 596.83 230.99 596.83 233.86 596.83 C235.92 596.82 237.98 596.81 240.04 596.81 C244.47 596.79 248.91 596.78 253.35 596.77 C260.37 596.75 267.4 596.73 274.43 596.71 C294.42 596.63 314.41 596.57 334.4 596.52 C345.44 596.49 356.48 596.46 367.52 596.42 C374.49 596.39 381.46 596.37 388.43 596.36 C392.79 596.35 397.15 596.33 401.52 596.31 C403.52 596.31 405.53 596.3 407.53 596.3 C417.08 596.3 426.55 596.13 436.06 595.16 C436.8 595.1 437.54 595.03 438.3 594.95 C443.45 594.36 446.43 592.94 450.16 589.46 C454.4 586.1 460.33 585.54 465.53 584.48 C471.39 583.28 475.41 582.22 479.06 577.12 C483.19 571.82 490.62 570.13 496.77 568.07 C500.24 566.4 500.66 563.48 502 560 C503.96 557.26 505.1 556.97 508.44 556 C511.13 554.93 511.85 554.3 513.13 551.64 C513.76 549.72 514.37 547.8 514.97 545.87 C516.93 540.42 520.21 536.19 525 533 C525.88 531.1 525.88 531.1 526.44 528.81 C526.69 527.92 526.94 527.04 527.2 526.12 C527.78 523.85 528.33 521.57 528.87 519.29 C530.47 512.58 532.02 507.37 536.59 502.04 C542.27 493.81 540.28 479.8 540.26 470.21 C540.26 468.32 540.27 466.44 540.27 464.55 C540.28 459.46 540.28 454.37 540.27 449.27 C540.26 443.93 540.27 438.58 540.27 433.24 C540.28 424.26 540.27 415.29 540.26 406.32 C540.25 395.96 540.25 385.6 540.26 375.25 C540.27 366.34 540.27 357.42 540.27 348.51 C540.27 343.2 540.27 337.88 540.27 332.57 C540.28 327.57 540.27 322.58 540.26 317.58 C540.26 315.75 540.26 313.92 540.27 312.1 C541 294.16 541 294.16 532.81 279.17 C528.91 274.5 526.98 268.25 525.24 262.47 C523.65 259.31 522.44 258.91 519.17 257.72 C518.2 257.35 517.24 256.98 516.25 256.61 C514.73 256.06 514.73 256.06 513.19 255.5 C506.61 253.1 501.78 251.31 497 246 C489.6 242.69 479.8 243.67 472 245 C468.89 246.5 466.8 248.19 464.25 250.53 C461.18 253.17 458.21 253.96 454.33 254.91 C446.56 256.74 446.56 256.74 440.93 261.96 C439.7 265.3 439.7 265.3 438.87 268.75 C437.99 272.06 436.86 274.11 434.88 276.88 C427.31 287.56 427.85 298.36 427.83 310.96 C427.82 312.47 427.81 313.98 427.81 315.49 C427.79 318.73 427.78 321.97 427.77 325.21 C427.75 330.35 427.73 335.48 427.71 340.61 C427.63 355.2 427.57 369.8 427.52 384.39 C427.49 392.45 427.46 400.52 427.42 408.59 C427.39 413.68 427.37 418.78 427.36 423.87 C427.35 427.05 427.33 430.23 427.31 433.41 C427.31 434.87 427.3 436.34 427.3 437.8 C427.29 459.01 427.29 459.01 422.75 464.94 C420 467 420 467 417.06 468.81 C414.19 470.87 413.04 472.22 411.12 475.06 C407.45 480.24 403.36 481.34 397.34 482.52 C393.67 483.05 390.18 483.13 386.48 483.13 C385.74 483.14 385.01 483.14 384.25 483.14 C381.79 483.15 379.34 483.15 376.88 483.15 C375.11 483.15 373.35 483.15 371.58 483.16 C366.79 483.16 362 483.17 357.2 483.17 C354.21 483.17 351.21 483.17 348.21 483.17 C337.75 483.18 327.28 483.19 316.82 483.19 C307.08 483.18 297.34 483.2 287.61 483.21 C279.23 483.22 270.86 483.23 262.49 483.23 C257.49 483.23 252.5 483.23 247.5 483.24 C242.8 483.25 238.1 483.25 233.39 483.24 C231.67 483.24 229.95 483.25 228.24 483.25 C205.04 483.33 205.04 483.33 199.06 478.75 C197 476 197 476 195.19 473.06 C193.13 470.19 191.78 469.04 188.94 467.12 C183.81 463.48 182.73 459.47 181.48 453.53 C180.84 448.82 180.85 444.19 180.86 439.45 C180.85 437.86 180.85 437.86 180.84 436.23 C180.83 432.67 180.83 429.11 180.83 425.55 C180.82 423 180.81 420.44 180.81 417.89 C180.79 412.39 180.78 406.89 180.77 401.4 C180.76 393.43 180.74 385.47 180.71 377.51 C180.67 364.57 180.64 351.63 180.61 338.7 C180.61 337.92 180.6 337.15 180.6 336.35 C180.57 325.38 180.55 314.4 180.53 303.43 C180.53 302.65 180.52 301.88 180.52 301.09 C180.52 300.32 180.52 299.54 180.52 298.75 C180.49 285.87 180.46 272.99 180.42 260.1 C180.39 252.17 180.37 244.23 180.36 236.29 C180.36 230.2 180.34 224.11 180.31 218.02 C180.31 215.53 180.3 213.04 180.3 210.54 C180.3 207.13 180.29 203.72 180.27 200.31 C180.27 199.33 180.28 198.36 180.28 197.35 C180.27 183.62 180.27 183.62 174 172 C171.46 167.77 170.02 163.3 168.95 158.51 C166.23 146.27 166.23 146.27 158.06 136.98 C155.66 134.68 155 132.89 154 129.75 C153 126.75 152.52 125.37 149.91 123.54 C148.31 122.77 146.7 122.01 145.09 121.27 C142.6 119.75 142.1 118.68 141.06 116 C139.5 112.11 137.82 111.15 134 109.5 C133.15 109.2 132.31 108.9 131.44 108.59 C128.63 106.76 128.58 106.08 127.51 103.05 C126.14 100.04 125.41 99.17 122.32 97.85 C118.85 97 115.4 96.34 111.88 95.75 C92.01 92.12 92.01 92.12 84 86 C70.83 81.41 46.89 81.03 36 90 Z " fill="#000000" transform="translate(576,0)"/>
</svg>
