<?xml version="1.0" standalone="no"?>
<!DOCTYPE svg PUBLIC "-//W3C//DTD SVG 20010904//EN"
 "http://www.w3.org/TR/2001/REC-SVG-20010904/DTD/svg10.dtd">
<svg version="1.0" xmlns="http://www.w3.org/2000/svg"
 width="96.000000pt" height="96.000000pt" viewBox="0 0 96.000000 96.000000"
 preserveAspectRatio="xMidYMid meet">

<g transform="translate(0.000000,96.000000) scale(0.100000,-0.100000)"
fill="#000000" stroke="none">
<path d="M357 880 c-130 -41 -237 -149 -277 -277 -17 -57 -20 -93 -20 -288 0
-220 0 -224 22 -239 19 -14 75 -16 405 -16 l382 0 15 22 c13 19 16 59 16 243
-1 213 -1 222 -27 290 -20 55 -27 93 -30 178 l-4 107 -30 0 c-29 0 -29 0 -29
-61 l0 -60 -57 41 c-106 76 -246 99 -366 60z m269 -74 c77 -35 145 -103 181
-180 28 -60 28 -64 31 -283 l3 -223 -105 0 -106 0 0 150 0 150 30 0 c27 0 30
3 30 30 l0 30 -210 0 -210 0 0 -30 c0 -27 3 -30 30 -30 l30 0 0 -150 0 -150
-106 0 -105 0 3 223 c3 219 3 223 31 282 86 183 293 263 473 181z m-56 -536
l0 -150 -90 0 -90 0 0 150 0 150 90 0 90 0 0 -150z"/>
<path d="M462 621 c-23 -14 -10 -46 18 -46 20 0 25 5 25 25 0 26 -20 36 -43
21z"/>
</g>
</svg>
