<?xml version="1.0" encoding="UTF-8"?>
<svg version="1.1" xmlns="http://www.w3.org/2000/svg" width="96" height="96">
<path d="M0 0 C3.49029792 1.97277708 6.19844633 4.39689265 8 8 C8.15004973 9.3734635 8.24838006 10.7528526 8.31640625 12.1328125 C8.35830078 12.93847656 8.40019531 13.74414062 8.44335938 14.57421875 C8.48267578 15.41597656 8.52199219 16.25773437 8.5625 17.125 C8.60568359 17.97449219 8.64886719 18.82398437 8.69335938 19.69921875 C8.79954236 21.79928223 8.90028497 23.89961948 9 26 C10.41152344 24.80890625 10.41152344 24.80890625 11.8515625 23.59375 C13.1087462 22.56173353 14.36659398 21.53052566 15.625 20.5 C16.24246094 19.97535156 16.85992187 19.45070313 17.49609375 18.91015625 C20.36442624 16.58529728 22.39782179 15.1354514 26.0390625 14.31640625 C30.25281254 15.28923772 32.62900099 17.54250437 35.75 20.4375 C39.60188369 24.10432078 39.60188369 24.10432078 44 27 C44 24.03 44 21.06 44 18 C45.98 18 47.96 18 50 18 C49.99097656 19.01320313 49.98195313 20.02640625 49.97265625 21.0703125 C49.86920669 28.5821726 49.86920669 28.5821726 52.625 35.33203125 C54.3567291 36.76699225 56.01075759 37.95603727 58 39 C57 41 56 43 55 45 C53.68 44.34 52.36 43.68 51 43 C50.67 46.63 50.34 50.26 50 54 C51.299375 53.979375 52.59875 53.95875 53.9375 53.9375 C55.29165633 53.91600546 56.64756083 53.92851801 58 54 C59.83034055 55.83034055 59.13042797 58.73211992 59.1328125 61.1875 C59.13410156 62.44304687 59.13539062 63.69859375 59.13671875 64.9921875 C59.13462402 65.64928711 59.1325293 66.30638672 59.13037109 66.98339844 C59.12502234 68.99161335 59.13031691 70.99960459 59.13671875 73.0078125 C59.13542969 74.26335937 59.13414063 75.51890625 59.1328125 76.8125 C59.13168457 77.97394531 59.13055664 79.13539062 59.12939453 80.33203125 C59 83 59 83 58 84 C55.41360962 84.09507821 52.8540144 84.12556376 50.26733398 84.11352539 C49.05279541 84.11374443 49.05279541 84.11374443 47.8137207 84.1139679 C45.12448492 84.11326854 42.43531751 84.1054751 39.74609375 84.09765625 C37.88664284 84.09579215 36.02719144 84.09436821 34.16773987 84.09336853 C29.26370904 84.08954271 24.35970764 84.07971188 19.45568848 84.06866455 C14.45548908 84.05845181 9.45528494 84.05387121 4.45507812 84.04882812 C-5.36329421 84.03808967 -15.18164466 84.02101248 -25 84 C-25 82.02 -25 80.04 -25 78 C-24.35450195 77.9906543 -23.70900391 77.98130859 -23.04394531 77.97167969 C-20.11186056 77.91790899 -17.18135992 77.8342766 -14.25 77.75 C-12.72632813 77.72873047 -12.72632813 77.72873047 -11.171875 77.70703125 C-10.1921875 77.67480469 -9.2125 77.64257812 -8.203125 77.609375 C-7.30239258 77.58842773 -6.40166016 77.56748047 -5.47363281 77.54589844 C-2.37787863 77.09535813 -2.37787863 77.09535813 1 73 C-11.87 72.505 -11.87 72.505 -25 72 C-25 70.02 -25 68.04 -25 66 C-24.01604248 65.9906543 -23.03208496 65.98130859 -22.01831055 65.97167969 C-18.3669714 65.9318012 -14.71647681 65.8660502 -11.06567383 65.79248047 C-9.48570608 65.76425807 -7.90559682 65.74304975 -6.32543945 65.72900391 C-4.05346155 65.70759035 -1.78318729 65.66095466 0.48828125 65.609375 C1.19463211 65.60814636 1.90098297 65.60691772 2.6287384 65.60565186 C4.86942159 65.58228277 4.86942159 65.58228277 8 65 C8.99 63.68 9.98 62.36 11 61 C-0.88 60.67 -12.76 60.34 -25 60 C-25 58.02 -25 56.04 -25 54 C-23.02 54 -21.04 54 -19 54 C-19.01332367 53.43925278 -19.02664734 52.87850555 -19.04037476 52.30076599 C-19.17350671 46.44447863 -19.26377118 40.58862359 -19.32958984 34.73120117 C-19.35969295 32.54775522 -19.4005857 30.3644295 -19.45263672 28.18139648 C-19.52573563 25.03599335 -19.55952167 21.8921937 -19.5859375 18.74609375 C-19.61690521 17.7760289 -19.64787292 16.80596405 -19.67977905 15.8065033 C-19.68274047 9.79183697 -18.72670242 6.59277853 -14.48721313 2.25111389 C-10.39421815 -1.19210669 -5.05426584 -0.75779226 0 0 Z M-8.6875 7.125 C-11.53005479 9.42977415 -12.80783365 11.37201136 -13.24050903 15.03753662 C-13.23606781 15.75701477 -13.23162659 16.47649292 -13.22705078 17.21777344 C-13.22689972 18.03832214 -13.22674866 18.85887085 -13.22659302 19.70428467 C-13.21627045 20.58046448 -13.20594788 21.45664429 -13.1953125 22.359375 C-13.1924826 23.26375305 -13.18965271 24.1681311 -13.18673706 25.09991455 C-13.17555782 27.98341195 -13.15045733 30.86659675 -13.125 33.75 C-13.11496728 35.70702676 -13.10584194 37.66405839 -13.09765625 39.62109375 C-13.07562585 44.41418262 -13.04111144 49.20703834 -13 54 C-8.05 54 -3.1 54 2 54 C2.07426628 48.25255142 2.12865726 42.5053834 2.16479492 36.75756836 C2.17986301 34.80309177 2.20032124 32.84864888 2.22631836 30.89428711 C2.26278865 28.08178377 2.27974622 25.26972826 2.29296875 22.45703125 C2.30845261 21.58601273 2.32393646 20.7149942 2.33988953 19.81758118 C2.34120523 15.05352687 2.13425805 11.85057941 -1 8 C-4.15134656 6.00967586 -5.21146524 5.66991568 -8.6875 7.125 Z M18.0625 27.875 C16.80361967 28.7893851 15.54451298 29.70345864 14.28515625 30.6171875 C13.72707275 31.02565918 13.16898926 31.43413086 12.59399414 31.85498047 C11.08675893 32.93767814 9.54411862 33.97058759 8 35 C7.58519893 37.02887311 7.58519893 37.02887311 7.70703125 39.3515625 C7.71669922 40.20234375 7.72636719 41.053125 7.73632812 41.9296875 C7.76146484 42.81914063 7.78660156 43.70859375 7.8125 44.625 C7.82603516 45.5221875 7.83957031 46.419375 7.85351562 47.34375 C7.88892527 49.56275471 7.94273346 51.78145176 8 54 C10.97 54 13.94 54 17 54 C17.33 49.38 17.66 44.76 18 40 C23.28 40 28.56 40 34 40 C34.495 46.93 34.495 46.93 35 54 C37.97 54 40.94 54 44 54 C45.27312246 43.75562784 45.27312246 43.75562784 42.27734375 34.30078125 C39.95735224 32.2752655 37.60888973 30.63307626 35 29 C33.51457201 27.8413159 32.03488864 26.67520928 30.5625 25.5 C25.21817494 21.44047228 22.99112388 24.2570213 18.0625 27.875 Z M23 45 C23 47.97 23 50.94 23 54 C24.98 54 26.96 54 29 54 C29 51.03 29 48.06 29 45 C27.02 45 25.04 45 23 45 Z M15 67 C14.26910156 67.8765625 13.53820313 68.753125 12.78515625 69.65625 C9.05029885 73.45965251 9.05029885 73.45965251 7 78 C12.16899853 78.71189571 12.16899853 78.71189571 16.80859375 76.79296875 C18.67747973 74.94997957 20.34119755 73.03498875 22 71 C22.73089844 70.1234375 23.46179688 69.246875 24.21484375 68.34375 C27.94970115 64.54034749 27.94970115 64.54034749 30 60 C22.30401977 59.05487962 19.76410972 61.15547663 15 67 Z M33 67 C32.26910156 67.8765625 31.53820312 68.753125 30.78515625 69.65625 C27.05029885 73.45965251 27.05029885 73.45965251 25 78 C30.16899853 78.71189571 30.16899853 78.71189571 34.80859375 76.79296875 C36.67747973 74.94997957 38.34119755 73.03498875 40 71 C40.73089844 70.1234375 41.46179688 69.246875 42.21484375 68.34375 C45.94970115 64.54034749 45.94970115 64.54034749 48 60 C40.30401977 59.05487962 37.76410972 61.15547663 33 67 Z M52 66 C50.44549916 67.7837089 48.93117144 69.60255152 47.4375 71.4375 C46.19806641 72.95150391 46.19806641 72.95150391 44.93359375 74.49609375 C42.89813309 76.60464673 42.89813309 76.60464673 43 78 C46.3 78 49.6 78 53 78 C53 74.04 53 70.08 53 66 C52.67 66 52.34 66 52 66 Z " fill="#000000" transform="translate(34,6)"/>
</svg>
