<?xml version="1.0" encoding="UTF-8"?>
<!-- Generator: visioncortex VTracer 0.6.3 -->
<svg version="1.1" xmlns="http://www.w3.org/2000/svg" width="1280" height="1280">
<path d="M0 0 C1.7 -0.01 3.41 -0.02 5.11 -0.03 C9.79 -0.05 14.46 -0.04 19.14 -0.02 C24.23 -0 29.31 -0.02 34.4 -0.04 C43.32 -0.06 52.24 -0.06 61.15 -0.04 C74.41 -0.02 87.67 -0.03 100.93 -0.05 C123.24 -0.08 145.54 -0.08 167.85 -0.06 C168.87 -0.06 168.87 -0.06 169.91 -0.06 C170.93 -0.06 170.93 -0.06 171.97 -0.06 C192.69 -0.04 213.41 -0.04 234.14 -0.05 C235.52 -0.05 236.91 -0.05 238.3 -0.05 C243.88 -0.05 249.46 -0.05 255.03 -0.05 C270.63 -0.06 286.22 -0.06 301.81 -0.07 C302.87 -0.07 302.87 -0.07 303.96 -0.07 C326.58 -0.07 349.2 -0.06 371.83 -0.05 C372.93 -0.05 372.93 -0.05 374.05 -0.05 C385.96 -0.04 397.88 -0.03 409.79 -0.03 C457.04 0 504.3 0 551.55 -0.03 C563.46 -0.03 575.36 -0.04 587.27 -0.05 C588 -0.05 588.74 -0.05 589.49 -0.05 C612.09 -0.06 634.69 -0.07 657.29 -0.07 C658.35 -0.07 658.35 -0.07 659.44 -0.07 C675.01 -0.06 690.59 -0.06 706.16 -0.05 C711.73 -0.05 717.31 -0.05 722.88 -0.05 C724.27 -0.05 725.65 -0.05 727.04 -0.05 C747.76 -0.04 768.47 -0.05 789.19 -0.06 C789.87 -0.06 790.55 -0.06 791.25 -0.06 C791.93 -0.06 792.6 -0.06 793.3 -0.06 C816.16 -0.08 839.03 -0.07 861.89 -0.04 C875.07 -0.03 888.25 -0.02 901.43 -0.05 C910.23 -0.06 919.04 -0.05 927.84 -0.03 C932.85 -0.01 937.87 -0.01 942.89 -0.03 C947.45 -0.05 952.02 -0.04 956.59 -0.01 C958.23 -0 959.86 -0.01 961.5 -0.02 C972.59 -0.12 982.03 1.19 990.54 9.06 C1000.4 19.5 1001.35 30.72 1001.32 44.54 C1001.33 45.78 1001.33 47.02 1001.34 48.3 C1001.35 51.67 1001.35 55.05 1001.35 58.42 C1001.35 61.25 1001.35 64.08 1001.36 66.91 C1001.37 73.6 1001.37 80.28 1001.36 86.97 C1001.36 93.83 1001.37 100.7 1001.39 107.56 C1001.41 113.48 1001.42 119.41 1001.41 125.33 C1001.41 128.85 1001.41 132.38 1001.43 135.9 C1001.44 139.84 1001.43 143.77 1001.42 147.71 C1001.43 149.43 1001.43 149.43 1001.44 151.19 C1001.37 162.83 999.23 175.83 991.05 184.76 C990.39 184.76 989.73 184.76 989.05 184.76 C989.05 185.42 989.05 186.08 989.05 186.76 C988.39 186.76 987.73 186.76 987.05 186.76 C986.72 187.75 986.39 188.74 986.05 189.76 C985.39 189.76 984.73 189.76 984.05 189.76 C983.78 190.39 983.51 191.03 983.24 191.69 C982.05 193.76 982.05 193.76 979.05 194.76 C978.72 195.42 978.39 196.08 978.05 196.76 C977.72 197.42 977.39 198.08 977.05 198.76 C976.06 199.09 975.07 199.42 974.05 199.76 C973.72 200.42 973.39 201.08 973.05 201.76 C972.72 202.42 972.39 203.08 972.05 203.76 C971.06 204.09 970.07 204.42 969.05 204.76 C968.72 205.42 968.39 206.08 968.05 206.76 C967.72 207.42 967.39 208.08 967.05 208.76 C966.06 209.09 965.07 209.42 964.05 209.76 C963.72 210.42 963.39 211.08 963.05 211.76 C962.72 212.42 962.39 213.08 962.05 213.76 C961.06 214.09 960.07 214.42 959.05 214.76 C958.65 215.58 958.65 215.58 958.24 216.43 C956.48 219.87 953.72 222.31 950.98 224.98 C950.09 225.86 950.09 225.86 949.18 226.77 C947.29 228.64 945.39 230.51 943.49 232.38 C941.58 234.26 939.68 236.13 937.78 238.02 C936.6 239.18 935.41 240.35 934.23 241.51 C931.27 244.35 931.27 244.35 929.05 247.76 C928.39 247.76 927.73 247.76 927.05 247.76 C927.05 248.42 927.05 249.08 927.05 249.76 C925.67 251.38 925.67 251.38 924.05 252.76 C923.39 252.76 922.73 252.76 922.05 252.76 C922.05 253.42 922.05 254.08 922.05 254.76 C920.67 256.38 920.67 256.38 919.05 257.76 C918.39 257.76 917.73 257.76 917.05 257.76 C917.05 258.42 917.05 259.08 917.05 259.76 C915.67 261.38 915.67 261.38 914.05 262.76 C913.39 262.76 912.73 262.76 912.05 262.76 C912.05 263.42 912.05 264.08 912.05 264.76 C910.67 266.38 910.67 266.38 909.05 267.76 C908.39 267.76 907.73 267.76 907.05 267.76 C907.05 268.42 907.05 269.08 907.05 269.76 C905.67 271.38 905.67 271.38 904.05 272.76 C903.39 272.76 902.73 272.76 902.05 272.76 C901.78 273.39 901.51 274.03 901.24 274.69 C900.05 276.76 900.05 276.76 897.05 277.76 C896.72 278.42 896.39 279.08 896.05 279.76 C895.72 280.42 895.39 281.08 895.05 281.76 C894.06 282.09 893.07 282.42 892.05 282.76 C891.35 284.07 890.69 285.41 890.05 286.76 C888.41 288.63 888.41 288.63 886.43 290.59 C885.69 291.32 884.95 292.06 884.18 292.82 C882.98 294.01 882.98 294.01 881.75 295.21 C880.51 296.44 880.51 296.44 879.25 297.7 C876.6 300.33 873.95 302.95 871.3 305.57 C868.66 308.18 866.03 310.79 863.39 313.4 C861.76 315.03 860.11 316.65 858.47 318.27 C854.55 322.15 850.79 326.08 847.27 330.33 C845.61 332.26 843.76 333.88 841.8 335.51 C839.32 337.56 837.87 339.03 836.05 341.76 C835.39 341.76 834.73 341.76 834.05 341.76 C833.72 342.75 833.39 343.74 833.05 344.76 C832.39 344.76 831.73 344.76 831.05 344.76 C831.05 345.42 831.05 346.08 831.05 346.76 C830.39 346.76 829.73 346.76 829.05 346.76 C828.82 347.31 828.59 347.86 828.36 348.44 C826.68 351.41 824.57 353.46 822.14 355.87 C821.65 356.37 821.15 356.86 820.64 357.38 C818.99 359.01 817.34 360.64 815.69 362.27 C814.54 363.42 813.39 364.56 812.24 365.7 C809.22 368.72 806.19 371.72 803.16 374.73 C798.32 379.52 793.48 384.33 788.65 389.13 C786.97 390.8 785.29 392.47 783.61 394.14 C778.53 399.17 773.62 404.25 769.05 409.76 C767.73 410.98 766.38 412.18 764.99 413.32 C762.45 415.46 760.24 417.59 758.17 420.19 C757.47 421.04 756.77 421.88 756.05 422.76 C755.39 422.76 754.73 422.76 754.05 422.76 C754.05 423.42 754.05 424.08 754.05 424.76 C753.39 424.76 752.73 424.76 752.05 424.76 C751.72 425.75 751.39 426.74 751.05 427.76 C750.39 427.76 749.73 427.76 749.05 427.76 C749.05 428.42 749.05 429.08 749.05 429.76 C748.39 429.76 747.73 429.76 747.05 429.76 C746.72 430.75 746.39 431.74 746.05 432.76 C745.39 432.76 744.73 432.76 744.05 432.76 C744.05 433.42 744.05 434.08 744.05 434.76 C743.39 434.76 742.73 434.76 742.05 434.76 C741.72 435.75 741.39 436.74 741.05 437.76 C740.39 437.76 739.73 437.76 739.05 437.76 C739.05 438.42 739.05 439.08 739.05 439.76 C738.39 439.76 737.73 439.76 737.05 439.76 C736.72 440.75 736.39 441.74 736.05 442.76 C735.39 442.76 734.73 442.76 734.05 442.76 C734.05 443.42 734.05 444.08 734.05 444.76 C733.39 444.76 732.73 444.76 732.05 444.76 C731.72 445.75 731.39 446.74 731.05 447.76 C730.39 447.76 729.73 447.76 729.05 447.76 C729.05 448.42 729.05 449.08 729.05 449.76 C728.39 449.76 727.73 449.76 727.05 449.76 C726.72 450.75 726.39 451.74 726.05 452.76 C725.39 452.76 724.73 452.76 724.05 452.76 C724.05 453.42 724.05 454.08 724.05 454.76 C723.39 454.76 722.73 454.76 722.05 454.76 C721.72 455.75 721.39 456.74 721.05 457.76 C720.39 457.76 719.73 457.76 719.05 457.76 C719.05 458.42 719.05 459.08 719.05 459.76 C718.39 459.76 717.73 459.76 717.05 459.76 C716.66 460.63 716.66 460.63 716.27 461.52 C714.94 463.95 713.49 465.55 711.52 467.49 C710.8 468.21 710.08 468.93 709.33 469.67 C708.55 470.44 707.77 471.2 706.97 471.99 C705.76 473.19 705.76 473.19 704.53 474.41 C701.96 476.97 699.38 479.52 696.8 482.07 C694.23 484.61 691.67 487.15 689.11 489.69 C687.51 491.27 685.92 492.85 684.32 494.42 C680.94 497.77 677.68 501.13 674.64 504.79 C673.78 505.77 672.93 506.75 672.05 507.76 C671.39 507.76 670.73 507.76 670.05 507.76 C669.72 508.75 669.39 509.74 669.05 510.76 C668.39 510.76 667.73 510.76 667.05 510.76 C667.05 511.42 667.05 512.08 667.05 512.76 C666.39 512.76 665.73 512.76 665.05 512.76 C664.8 513.35 664.56 513.95 664.31 514.57 C662.82 517.15 661.45 518.09 658.94 519.67 C642.05 530.9 622.96 545.95 618.06 566.68 C613.14 591.57 614.84 618.04 615.53 643.24 C615.83 654.54 615.87 665.84 615.91 677.15 C615.97 697.31 616.22 717.46 616.6 737.62 C616.96 757.14 617.25 776.67 617.42 796.19 C617.43 797.4 617.44 798.61 617.45 799.85 C617.52 808.31 617.59 816.77 617.66 825.23 C617.73 834.61 617.81 844 617.89 853.38 C617.9 854.52 617.91 855.65 617.92 856.83 C618.05 872.54 618.25 888.26 618.5 903.98 C618.6 910.25 618.69 916.52 618.78 922.79 C618.86 928.6 618.96 934.41 619.08 940.22 C619.15 943.75 619.2 947.28 619.24 950.81 C619.27 952.43 619.3 954.04 619.34 955.65 C619.64 968.34 617.88 978.2 609.05 987.76 C602.56 994.3 594.28 997.66 586.03 1001.43 C581.4 1003.56 576.9 1005.89 572.42 1008.32 C566.18 1011.68 559.86 1014.77 553.42 1017.74 C548.41 1020.07 543.53 1022.57 538.67 1025.19 C531.93 1028.83 525.08 1032.14 518.14 1035.38 C512.09 1038.21 506.2 1041.28 500.32 1044.45 C494.78 1047.42 489.13 1050.1 483.42 1052.74 C478.41 1055.07 473.53 1057.57 468.67 1060.19 C461.93 1063.83 455.08 1067.14 448.14 1070.38 C442.09 1073.21 436.2 1076.28 430.32 1079.45 C424.78 1082.42 419.15 1085.1 413.44 1087.72 C408.99 1089.79 404.67 1092.01 400.37 1094.37 C388.84 1100.68 378.49 1104.39 365.05 1102.76 C355.28 1099.76 349 1093.03 344.09 1084.36 C341.39 1077.61 340.75 1070.81 340.79 1063.6 C340.78 1062.72 340.78 1061.84 340.78 1060.94 C340.76 1058 340.77 1055.06 340.77 1052.12 C340.77 1049.99 340.76 1047.86 340.75 1045.73 C340.74 1039.87 340.73 1034.02 340.73 1028.17 C340.73 1021.86 340.71 1015.55 340.7 1009.23 C340.68 998.3 340.66 987.36 340.65 976.43 C340.64 964.96 340.63 953.49 340.61 942.03 C340.61 941.31 340.6 940.6 340.6 939.87 C340.6 936.24 340.59 932.62 340.58 929 C340.54 903.35 340.5 877.7 340.47 852.04 C340.44 827.13 340.41 802.21 340.37 777.29 C340.37 776.52 340.36 775.76 340.36 774.96 C340.35 767.25 340.34 759.53 340.33 751.82 C340.3 736.1 340.27 720.39 340.25 704.67 C340.25 703.59 340.25 703.59 340.25 702.48 C340.17 654.24 340.11 606 340.05 557.76 C339.41 557.49 338.77 557.22 338.11 556.94 C336.05 555.76 336.05 555.76 335.05 552.76 C334.39 552.43 333.73 552.1 333.05 551.76 C331.05 550.76 331.05 550.76 330.05 547.76 C329.39 547.76 328.73 547.76 328.05 547.76 C326.42 546.38 326.42 546.38 325.05 544.76 C325.05 544.1 325.05 543.44 325.05 542.76 C324.39 542.76 323.73 542.76 323.05 542.76 C321.42 541.38 321.42 541.38 320.05 539.76 C320.05 539.1 320.05 538.44 320.05 537.76 C319.39 537.76 318.73 537.76 318.05 537.76 C316.42 536.38 316.42 536.38 315.05 534.76 C315.05 534.1 315.05 533.44 315.05 532.76 C314.39 532.76 313.73 532.76 313.05 532.76 C311.42 531.38 311.42 531.38 310.05 529.76 C310.05 529.1 310.05 528.44 310.05 527.76 C309.39 527.76 308.73 527.76 308.05 527.76 C306.6 526.28 306.6 526.28 304.92 524.25 C301.2 519.88 297.24 515.85 293.15 511.83 C291.67 510.36 290.18 508.89 288.7 507.42 C286.39 505.13 284.08 502.85 281.76 500.57 C279.51 498.34 277.27 496.12 275.02 493.89 C274.32 493.2 273.62 492.52 272.9 491.81 C271.94 490.86 271.94 490.86 270.97 489.88 C270.4 489.33 269.84 488.77 269.25 488.19 C268.05 486.76 268.05 486.76 268.05 484.76 C267.41 484.49 266.77 484.22 266.11 483.94 C264.05 482.76 264.05 482.76 263.05 479.76 C262.39 479.43 261.73 479.1 261.05 478.76 C259.05 477.76 259.05 477.76 258.05 474.76 C257.39 474.43 256.73 474.1 256.05 473.76 C254.05 472.76 254.05 472.76 253.05 469.76 C252.39 469.43 251.73 469.1 251.05 468.76 C249.05 467.76 249.05 467.76 248.05 464.76 C247.39 464.43 246.73 464.1 246.05 463.76 C244.05 462.76 244.05 462.76 243.05 459.76 C242.06 459.43 241.07 459.1 240.05 458.76 C240.05 458.1 240.05 457.44 240.05 456.76 C239.39 456.76 238.73 456.76 238.05 456.76 C238.05 456.1 238.05 455.44 238.05 454.76 C237.39 454.76 236.73 454.76 236.05 454.76 C234.42 453.38 234.42 453.38 233.05 451.76 C233.05 451.1 233.05 450.44 233.05 449.76 C232.39 449.76 231.73 449.76 231.05 449.76 C229.42 448.38 229.42 448.38 228.05 446.76 C228.05 446.1 228.05 445.44 228.05 444.76 C227.39 444.76 226.73 444.76 226.05 444.76 C224.42 443.38 224.42 443.38 223.05 441.76 C223.05 441.1 223.05 440.44 223.05 439.76 C222.39 439.76 221.73 439.76 221.05 439.76 C219.42 438.38 219.42 438.38 218.05 436.76 C218.05 436.1 218.05 435.44 218.05 434.76 C217.39 434.76 216.73 434.76 216.05 434.76 C214.75 433.44 214.75 433.44 213.19 431.52 C208.58 426.11 203.56 421.15 198.52 416.15 C196.76 414.41 195 412.65 193.25 410.9 C189.52 407.18 185.78 403.47 182.05 399.76 C177.72 395.45 173.39 391.14 169.06 386.82 C167.34 385.11 165.62 383.4 163.9 381.69 C158.92 376.73 154.04 371.74 149.47 366.4 C147.45 364.06 145.26 361.91 143.05 359.76 C141.63 358.35 140.22 356.95 138.81 355.55 C138.01 354.75 137.21 353.96 136.38 353.14 C132.78 349.56 129.18 345.98 125.58 342.4 C123.68 340.5 121.77 338.61 119.86 336.72 C117.11 333.99 114.37 331.26 111.62 328.52 C110.76 327.68 109.9 326.83 109.02 325.95 C108.23 325.17 107.45 324.38 106.64 323.57 C105.95 322.88 105.25 322.19 104.53 321.48 C103.05 319.76 103.05 319.76 103.05 317.76 C102.06 317.43 101.07 317.1 100.05 316.76 C100.05 316.1 100.05 315.44 100.05 314.76 C99.39 314.76 98.73 314.76 98.05 314.76 C98.05 314.1 98.05 313.44 98.05 312.76 C97.06 312.43 96.07 312.1 95.05 311.76 C95.05 311.1 95.05 310.44 95.05 309.76 C94.39 309.76 93.73 309.76 93.05 309.76 C93.05 309.1 93.05 308.44 93.05 307.76 C92.06 307.43 91.07 307.1 90.05 306.76 C90.05 306.1 90.05 305.44 90.05 304.76 C89.39 304.76 88.73 304.76 88.05 304.76 C88.05 304.1 88.05 303.44 88.05 302.76 C87.06 302.43 86.07 302.1 85.05 301.76 C85.05 301.1 85.05 300.44 85.05 299.76 C84.39 299.76 83.73 299.76 83.05 299.76 C83.05 299.1 83.05 298.44 83.05 297.76 C82.06 297.43 81.07 297.1 80.05 296.76 C80.05 296.1 80.05 295.44 80.05 294.76 C79.39 294.76 78.73 294.76 78.05 294.76 C78.05 294.1 78.05 293.44 78.05 292.76 C77.06 292.43 76.07 292.1 75.05 291.76 C75.05 291.1 75.05 290.44 75.05 289.76 C74.39 289.76 73.73 289.76 73.05 289.76 C73.05 289.1 73.05 288.44 73.05 287.76 C72.06 287.43 71.07 287.1 70.05 286.76 C70.05 286.1 70.05 285.44 70.05 284.76 C69.39 284.76 68.73 284.76 68.05 284.76 C68.05 284.1 68.05 283.44 68.05 282.76 C67.06 282.43 66.07 282.1 65.05 281.76 C65.05 281.1 65.05 280.44 65.05 279.76 C64.39 279.76 63.73 279.76 63.05 279.76 C61.5 278.18 61.5 278.18 59.74 276.07 C56.99 272.79 54.09 269.77 51.05 266.76 C50.12 265.83 49.2 264.91 48.25 263.97 C47.22 262.94 46.19 261.92 45.16 260.89 C39.42 255.19 33.68 249.48 27.95 243.76 C24.49 240.31 21.02 236.86 17.55 233.41 C14.19 230.07 10.83 226.73 7.48 223.38 C6.2 222.1 4.92 220.83 3.64 219.56 C1.85 217.78 0.07 216.01 -1.71 214.23 C-2.24 213.7 -2.78 213.17 -3.33 212.63 C-6.95 208.98 -6.95 208.98 -6.95 206.76 C-7.61 206.76 -8.27 206.76 -8.95 206.76 C-8.95 206.1 -8.95 205.44 -8.95 204.76 C-9.94 204.43 -10.93 204.1 -11.95 203.76 C-11.95 203.1 -11.95 202.44 -11.95 201.76 C-12.61 201.76 -13.27 201.76 -13.95 201.76 C-13.95 201.1 -13.95 200.44 -13.95 199.76 C-14.94 199.43 -15.93 199.1 -16.95 198.76 C-16.95 198.1 -16.95 197.44 -16.95 196.76 C-17.61 196.76 -18.27 196.76 -18.95 196.76 C-20.36 195.36 -20.36 195.36 -22.01 193.38 C-25.49 189.27 -29.13 185.34 -32.84 181.44 C-39.32 173.2 -39.51 166.28 -39.41 156.08 C-39.4 154.6 -39.4 153.12 -39.41 151.64 C-39.41 147.64 -39.38 143.65 -39.36 139.65 C-39.33 135.47 -39.33 131.29 -39.32 127.11 C-39.31 119.19 -39.28 111.28 -39.24 103.37 C-39.19 94.36 -39.17 85.35 -39.15 76.34 C-39.11 57.81 -39.04 39.28 -38.95 20.76 C-38.29 20.76 -37.63 20.76 -36.95 20.76 C-36.86 19.73 -36.86 19.73 -36.76 18.69 C-35.69 14.8 -33.69 11.72 -30.95 8.76 C-30.29 8.76 -29.63 8.76 -28.95 8.76 C-28.95 8.1 -28.95 7.44 -28.95 6.76 C-19.32 0.65 -11 -0.1 0 0 Z M24.05 63.76 C24.03 71.3 24.01 78.85 24 86.39 C23.99 89.89 23.98 93.4 23.97 96.9 C23.96 100.92 23.96 104.95 23.95 108.97 C23.95 110.23 23.94 111.5 23.94 112.8 C23.94 113.96 23.94 115.12 23.94 116.32 C23.93 117.35 23.93 118.37 23.93 119.43 C23.79 121.72 23.79 121.72 25.05 122.76 C27.03 122.85 29.02 122.88 31.01 122.88 C32.31 122.88 33.62 122.89 34.96 122.89 C36.44 122.89 37.91 122.88 39.38 122.88 C40.93 122.88 42.48 122.88 44.04 122.89 C48.34 122.89 52.65 122.89 56.95 122.88 C61.62 122.88 66.29 122.88 70.96 122.89 C79.16 122.89 87.36 122.89 95.55 122.89 C107.74 122.88 119.93 122.89 132.12 122.89 C153.88 122.89 175.65 122.89 197.41 122.89 C216.46 122.89 235.51 122.89 254.55 122.89 C255.81 122.89 257.07 122.89 258.37 122.89 C263.49 122.89 268.61 122.89 273.73 122.89 C309.48 122.89 345.23 122.89 380.98 122.89 C381.65 122.89 382.32 122.89 383.02 122.89 C393.97 122.89 404.92 122.89 415.87 122.89 C459.3 122.88 502.73 122.88 546.16 122.89 C557.1 122.89 568.05 122.89 578.99 122.89 C579.66 122.89 580.34 122.89 581.03 122.89 C617.38 122.89 653.73 122.89 690.08 122.89 C695.19 122.89 700.3 122.89 705.41 122.89 C706.67 122.89 707.93 122.89 709.23 122.89 C728.26 122.89 747.3 122.89 766.34 122.89 C787.98 122.89 809.62 122.89 831.26 122.89 C843.38 122.89 855.5 122.88 867.63 122.89 C875.71 122.89 883.8 122.89 891.88 122.89 C896.49 122.88 901.11 122.88 905.73 122.89 C909.92 122.89 914.11 122.89 918.3 122.88 C919.81 122.88 921.33 122.88 922.84 122.88 C924.88 122.89 926.92 122.88 928.97 122.88 C930.67 122.88 930.67 122.88 932.41 122.88 C935.03 122.93 935.03 122.93 937.05 121.76 C937.07 114.34 937.09 106.93 937.1 99.51 C937.11 96.07 937.11 92.63 937.12 89.18 C937.14 85.23 937.14 81.28 937.15 77.32 C937.15 76.08 937.16 74.84 937.16 73.56 C937.16 72.42 937.16 71.28 937.16 70.1 C937.17 68.59 937.17 68.59 937.17 67.04 C937.31 64.79 937.31 64.79 936.05 63.76 C934.06 63.66 932.07 63.63 930.08 63.63 C928.11 63.63 928.11 63.63 926.11 63.62 C924.63 63.63 923.16 63.63 921.68 63.63 C920.13 63.63 918.57 63.63 917.01 63.63 C912.7 63.63 908.38 63.63 904.06 63.63 C899.38 63.64 894.7 63.63 890.02 63.63 C881.8 63.63 873.58 63.63 865.36 63.64 C853.14 63.64 840.92 63.64 828.7 63.64 C808.15 63.64 787.6 63.64 767.04 63.65 C746.68 63.66 726.32 63.66 705.96 63.66 C704.7 63.66 703.44 63.66 702.13 63.66 C695.71 63.66 689.29 63.66 682.87 63.66 C637.36 63.66 591.84 63.67 546.33 63.68 C535.29 63.68 524.25 63.68 513.21 63.69 C512.53 63.69 511.84 63.69 511.14 63.69 C479.33 63.69 447.52 63.7 415.71 63.7 C413.64 63.7 411.58 63.7 409.51 63.7 C395.83 63.7 382.15 63.7 368.47 63.7 C340.59 63.71 312.72 63.71 284.85 63.71 C283.57 63.71 282.29 63.71 280.96 63.71 C195.33 63.72 109.69 63.74 24.05 63.76 Z M63.05 185.76 C64.79 189.25 65.91 190.85 68.6 193.47 C69.3 194.16 70 194.84 70.72 195.55 C71.45 196.26 72.17 196.96 72.92 197.69 C80.58 205.16 80.58 205.16 83.43 208.76 C84.23 209.75 84.23 209.75 85.05 210.76 C85.71 210.76 86.37 210.76 87.05 210.76 C87.25 211.29 87.46 211.82 87.67 212.37 C89.62 215.75 92.34 218.27 95.12 220.98 C95.71 221.57 96.3 222.16 96.92 222.77 C98.81 224.64 100.71 226.51 102.61 228.38 C104.52 230.26 106.42 232.13 108.32 234.02 C109.5 235.18 110.68 236.35 111.87 237.51 C115.94 241.53 115.94 241.53 117.05 243.76 C117.71 243.76 118.37 243.76 119.05 243.76 C119.05 244.42 119.05 245.08 119.05 245.76 C120.38 247.42 120.38 247.42 122.05 248.76 C122.71 248.76 123.37 248.76 124.05 248.76 C124.05 249.42 124.05 250.08 124.05 250.76 C125.38 252.42 125.38 252.42 127.05 253.76 C127.71 253.76 128.37 253.76 129.05 253.76 C129.05 254.42 129.05 255.08 129.05 255.76 C130.38 257.42 130.38 257.42 132.05 258.76 C132.71 258.76 133.37 258.76 134.05 258.76 C134.05 259.42 134.05 260.08 134.05 260.76 C135.38 262.42 135.38 262.42 137.05 263.76 C137.71 263.76 138.37 263.76 139.05 263.76 C139.05 264.42 139.05 265.08 139.05 265.76 C140.38 267.42 140.38 267.42 142.05 268.76 C142.71 268.76 143.37 268.76 144.05 268.76 C144.45 269.71 144.45 269.71 144.86 270.69 C145.94 273.09 145.94 273.09 149.05 273.76 C149.72 275.09 150.38 276.42 151.05 277.76 C152.53 278.25 152.53 278.25 154.05 278.76 C154.75 280.07 155.41 281.41 156.05 282.76 C157.55 284.54 157.55 284.54 159.33 286.25 C160 286.92 160.67 287.58 161.36 288.26 C162.44 289.32 162.44 289.32 163.54 290.41 C164.28 291.14 165.03 291.88 165.79 292.64 C168.16 295 170.54 297.34 172.92 299.69 C175.3 302.04 177.67 304.38 180.04 306.73 C181.51 308.19 182.98 309.65 184.46 311.11 C187.29 313.9 189.94 316.62 192.41 319.74 C192.95 320.41 193.49 321.07 194.05 321.76 C194.71 321.76 195.37 321.76 196.05 321.76 C196.05 322.42 196.05 323.08 196.05 323.76 C197.38 325.42 197.38 325.42 199.05 326.76 C199.71 326.76 200.37 326.76 201.05 326.76 C201.45 327.71 201.45 327.71 201.86 328.69 C202.94 331.09 202.94 331.09 206.05 331.76 C206.31 332.31 206.58 332.86 206.85 333.43 C208.63 336.89 211.4 339.33 214.16 342.02 C214.76 342.62 215.37 343.22 215.99 343.84 C217.92 345.75 219.86 347.66 221.8 349.57 C223.72 351.46 225.65 353.36 227.57 355.26 C228.76 356.44 229.95 357.62 231.15 358.8 C234.59 362.19 237.75 365.69 240.77 369.46 C241.2 369.89 241.62 370.31 242.05 370.76 C242.71 370.76 243.37 370.76 244.05 370.76 C244.38 371.75 244.71 372.74 245.05 373.76 C245.71 373.76 246.37 373.76 247.05 373.76 C247.05 374.42 247.05 375.08 247.05 375.76 C247.71 375.76 248.37 375.76 249.05 375.76 C249.38 376.75 249.71 377.74 250.05 378.76 C250.71 378.76 251.37 378.76 252.05 378.76 C252.05 379.42 252.05 380.08 252.05 380.76 C252.71 380.76 253.37 380.76 254.05 380.76 C254.38 381.75 254.71 382.74 255.05 383.76 C255.71 383.76 256.37 383.76 257.05 383.76 C257.05 384.42 257.05 385.08 257.05 385.76 C257.71 385.76 258.37 385.76 259.05 385.76 C259.28 386.31 259.51 386.87 259.75 387.45 C261.4 390.37 263.45 392.36 265.85 394.71 C266.32 395.18 266.79 395.64 267.27 396.12 C268.78 397.61 270.29 399.09 271.8 400.57 C282.92 411.48 282.92 411.48 286.49 415.72 C288.64 418.27 290.73 420.39 293.3 422.51 C295.78 424.56 297.23 426.03 299.05 428.76 C299.71 428.76 300.37 428.76 301.05 428.76 C301.38 429.75 301.71 430.74 302.05 431.76 C302.71 431.76 303.37 431.76 304.05 431.76 C304.05 432.42 304.05 433.08 304.05 433.76 C304.71 433.76 305.37 433.76 306.05 433.76 C306.38 434.75 306.71 435.74 307.05 436.76 C307.71 436.76 308.37 436.76 309.05 436.76 C309.05 437.42 309.05 438.08 309.05 438.76 C309.71 438.76 310.37 438.76 311.05 438.76 C311.38 439.75 311.71 440.74 312.05 441.76 C312.71 441.76 313.37 441.76 314.05 441.76 C314.05 442.42 314.05 443.08 314.05 443.76 C314.71 443.76 315.37 443.76 316.05 443.76 C316.38 444.75 316.71 445.74 317.05 446.76 C317.71 446.76 318.37 446.76 319.05 446.76 C319.31 447.34 319.57 447.93 319.84 448.53 C321.13 450.9 322.51 452.45 324.43 454.34 C325.46 455.37 325.46 455.37 326.51 456.42 C327.62 457.51 327.62 457.51 328.76 458.63 C329.52 459.39 330.29 460.14 331.08 460.93 C333.52 463.35 335.97 465.77 338.42 468.19 C340.87 470.61 343.31 473.03 345.75 475.45 C347.27 476.95 348.79 478.46 350.31 479.95 C353.19 482.8 355.91 485.58 358.42 488.76 C359.23 489.75 359.23 489.75 360.05 490.76 C360.71 490.76 361.37 490.76 362.05 490.76 C362.25 491.29 362.46 491.82 362.67 492.37 C364.62 495.75 367.34 498.27 370.12 500.98 C370.71 501.57 371.3 502.16 371.92 502.77 C373.81 504.64 375.71 506.51 377.61 508.38 C379.52 510.26 381.42 512.13 383.32 514.02 C384.5 515.18 385.68 516.35 386.87 517.51 C390.94 521.53 390.94 521.53 392.05 523.76 C392.71 523.76 393.37 523.76 394.05 523.76 C394.05 524.42 394.05 525.08 394.05 525.76 C395.38 527.42 395.38 527.42 397.05 528.76 C397.71 528.76 398.37 528.76 399.05 528.76 C399.15 529.29 399.26 529.83 399.36 530.38 C399.98 532.87 399.98 532.87 401.55 535.32 C405.88 545.24 404.2 558.21 404.21 568.88 C404.21 570.83 404.22 572.77 404.22 574.71 C404.24 580.04 404.24 585.36 404.25 590.68 C404.26 596.43 404.27 602.18 404.28 607.92 C404.31 617.87 404.32 627.82 404.34 637.77 C404.36 652.16 404.39 666.55 404.42 680.94 C404.47 704.28 404.51 727.62 404.55 750.96 C404.59 773.64 404.63 796.31 404.68 818.98 C404.68 819.68 404.68 820.38 404.68 821.1 C404.69 828.12 404.71 835.14 404.72 842.17 C404.75 856.47 404.78 870.78 404.81 885.08 C404.81 886.4 404.81 887.71 404.81 889.06 C404.9 932.29 404.97 975.52 405.05 1018.76 C408.89 1018.05 411.83 1017.01 415.3 1015.19 C420.23 1012.66 425.21 1010.27 430.24 1007.94 C438.38 1004.15 446.29 999.98 454.2 995.74 C458.94 993.22 463.68 990.7 468.67 988.72 C471.11 987.8 471.11 987.8 473.42 986.32 C475.91 984.84 478.41 983.73 481.07 982.62 C483.23 981.68 485.32 980.64 487.42 979.57 C491.97 977.27 496.56 975.1 501.17 972.94 C508.87 969.34 516.47 965.59 524.05 961.76 C527.46 960.04 530.88 958.34 534.3 956.63 C535.62 955.97 536.94 955.31 538.26 954.65 C540.73 953.41 543.21 952.18 545.69 950.95 C546.77 950.41 547.86 949.87 548.99 949.32 C549.94 948.84 550.9 948.37 551.89 947.88 C553.97 946.93 553.97 946.93 555.05 945.76 C555.15 943.63 555.18 941.51 555.18 939.39 C555.18 938.37 555.18 938.37 555.18 937.34 C555.19 935.04 555.18 932.75 555.18 930.45 C555.18 928.8 555.18 927.15 555.19 925.5 C555.19 921.9 555.19 918.3 555.19 914.69 C555.19 908.83 555.2 902.97 555.2 897.11 C555.21 888.59 555.21 880.08 555.22 871.57 C555.22 858.11 555.24 844.65 555.26 831.19 C555.27 826.59 555.27 821.99 555.28 817.39 C555.28 816.24 555.28 815.09 555.28 813.9 C555.3 800.8 555.32 787.69 555.33 774.59 C555.33 773.39 555.33 772.19 555.34 770.95 C555.36 751.55 555.37 732.15 555.38 712.74 C555.38 692.83 555.41 672.91 555.44 652.99 C555.47 640.71 555.48 628.42 555.47 616.14 C555.47 607.71 555.48 599.28 555.5 590.86 C555.51 586 555.52 581.14 555.51 576.28 C555.5 571.82 555.51 567.37 555.53 562.91 C555.53 561.31 555.53 559.7 555.52 558.09 C555.44 542.59 558.52 531.66 569.39 520.31 C571.9 517.78 574.43 515.29 576.99 512.82 C578.71 511.15 580.43 509.47 582.14 507.79 C582.89 507.06 583.64 506.33 584.42 505.58 C586.27 503.92 586.27 503.92 586.05 501.76 C586.71 501.76 587.37 501.76 588.05 501.76 C589.72 500.42 589.72 500.42 591.05 498.76 C591.05 498.1 591.05 497.44 591.05 496.76 C591.71 496.76 592.37 496.76 593.05 496.76 C594.72 495.42 594.72 495.42 596.05 493.76 C596.05 493.1 596.05 492.44 596.05 491.76 C596.71 491.76 597.37 491.76 598.05 491.76 C599.51 490.31 599.51 490.31 601.04 488.39 C605.47 483.19 610.28 478.43 615.14 473.64 C616.09 472.69 617.05 471.74 618 470.79 C622.02 466.8 626.04 462.82 630.06 458.84 C632.54 456.39 635.01 453.93 637.48 451.48 C638.87 450.09 640.27 448.71 641.67 447.33 C642.51 446.5 643.35 445.66 644.21 444.8 C644.96 444.07 645.7 443.33 646.46 442.57 C648.27 440.91 648.27 440.91 648.05 438.76 C648.69 438.49 649.33 438.22 649.99 437.94 C652.38 436.87 652.38 436.87 653.05 433.76 C654.38 433.09 655.72 432.42 657.05 431.76 C657.38 430.77 657.71 429.78 658.05 428.76 C658.71 428.76 659.37 428.76 660.05 428.76 C661.72 427.42 661.72 427.42 663.05 425.76 C663.05 425.1 663.05 424.44 663.05 423.76 C663.71 423.76 664.37 423.76 665.05 423.76 C666.72 422.42 666.72 422.42 668.05 420.76 C668.05 420.1 668.05 419.44 668.05 418.76 C668.71 418.76 669.37 418.76 670.05 418.76 C671.72 417.42 671.72 417.42 673.05 415.76 C673.05 415.1 673.05 414.44 673.05 413.76 C673.71 413.76 674.37 413.76 675.05 413.76 C676.72 412.42 676.72 412.42 678.05 410.76 C678.05 410.1 678.05 409.44 678.05 408.76 C678.71 408.76 679.37 408.76 680.05 408.76 C681.72 407.42 681.72 407.42 683.05 405.76 C683.05 405.1 683.05 404.44 683.05 403.76 C683.71 403.76 684.37 403.76 685.05 403.76 C686.72 402.42 686.72 402.42 688.05 400.76 C688.05 400.1 688.05 399.44 688.05 398.76 C688.71 398.76 689.37 398.76 690.05 398.76 C691.72 397.42 691.72 397.42 693.05 395.76 C693.05 395.1 693.05 394.44 693.05 393.76 C693.71 393.76 694.37 393.76 695.05 393.76 C696.59 392.24 696.59 392.24 698.18 390.25 C701.9 385.88 705.86 381.85 709.95 377.83 C711.43 376.36 712.91 374.89 714.39 373.42 C716.71 371.13 719.02 368.85 721.33 366.57 C723.59 364.34 725.83 362.12 728.08 359.89 C728.78 359.2 729.48 358.52 730.2 357.81 C730.84 357.17 731.47 356.54 732.13 355.88 C732.7 355.33 733.26 354.77 733.84 354.19 C735.26 352.81 735.26 352.81 735.05 350.76 C735.69 350.49 736.33 350.22 736.99 349.94 C739.38 348.87 739.38 348.87 740.05 345.76 C741.38 345.09 742.71 344.42 744.05 343.76 C745.47 342.31 746.84 340.81 748.16 339.27 C753 333.76 758.11 328.6 763.33 323.44 C764.29 322.5 765.24 321.55 766.19 320.61 C770.18 316.64 774.17 312.68 778.17 308.73 C780.16 306.76 782.15 304.79 784.13 302.82 C785.99 300.97 787.86 299.12 789.72 297.28 C790.97 296.04 790.97 296.04 792.24 294.77 C793.35 293.68 793.35 293.68 794.48 292.56 C796.27 290.9 796.27 290.9 796.05 288.76 C796.71 288.76 797.37 288.76 798.05 288.76 C798.05 288.1 798.05 287.44 798.05 286.76 C799.53 286.26 799.53 286.26 801.05 285.76 C801.05 285.1 801.05 284.44 801.05 283.76 C801.71 283.76 802.37 283.76 803.05 283.76 C803.05 283.1 803.05 282.44 803.05 281.76 C804.53 281.26 804.53 281.26 806.05 280.76 C806.05 280.1 806.05 279.44 806.05 278.76 C806.71 278.76 807.37 278.76 808.05 278.76 C808.05 278.1 808.05 277.44 808.05 276.76 C809.53 276.26 809.53 276.26 811.05 275.76 C811.05 275.1 811.05 274.44 811.05 273.76 C811.71 273.76 812.37 273.76 813.05 273.76 C813.05 273.1 813.05 272.44 813.05 271.76 C814.53 271.26 814.53 271.26 816.05 270.76 C816.05 270.1 816.05 269.44 816.05 268.76 C816.71 268.76 817.37 268.76 818.05 268.76 C818.05 268.1 818.05 267.44 818.05 266.76 C818.71 266.76 819.37 266.76 820.05 266.76 C821.39 265.4 821.39 265.4 822.74 263.63 C824.84 261.09 826.93 258.9 829.49 256.82 C832.79 254.09 835.53 251.06 838.28 247.78 C840.42 245.33 842.73 243.05 845.05 240.76 C845.64 240.17 846.24 239.58 846.85 238.97 C848.22 237.62 849.58 236.26 850.95 234.9 C854.1 231.78 857.24 228.66 860.38 225.53 C862.04 223.88 863.7 222.23 865.37 220.58 C867.77 218.2 870.17 215.82 872.57 213.43 C873.32 212.69 874.07 211.95 874.84 211.19 C875.53 210.51 876.21 209.82 876.92 209.12 C877.52 208.51 878.13 207.91 878.75 207.29 C880.26 205.84 880.26 205.84 880.05 203.76 C881.04 203.43 882.03 203.1 883.05 202.76 C883.05 202.1 883.05 201.44 883.05 200.76 C883.71 200.76 884.37 200.76 885.05 200.76 C885.05 200.1 885.05 199.44 885.05 198.76 C886.53 198.26 886.53 198.26 888.05 197.76 C888.05 197.1 888.05 196.44 888.05 195.76 C888.71 195.76 889.37 195.76 890.05 195.76 C890.05 195.1 890.05 194.44 890.05 193.76 C891.53 193.26 891.53 193.26 893.05 192.76 C893.05 192.1 893.05 191.44 893.05 190.76 C893.71 190.76 894.37 190.76 895.05 190.76 C895.05 190.1 895.05 189.44 895.05 188.76 C895.71 188.76 896.37 188.76 897.05 188.76 C897.38 187.77 897.71 186.78 898.05 185.76 C622.5 185.76 346.95 185.76 63.05 185.76 Z " fill="#000000" transform="translate(38.95110321044922,88.24495315551758)"/>
<path d="M0 0 C1.55 -0.01 1.55 -0.01 3.14 -0.03 C4.27 -0.03 5.39 -0.04 6.55 -0.04 C8.3 -0.05 8.3 -0.05 10.09 -0.06 C12.58 -0.07 15.07 -0.08 17.55 -0.08 C21.29 -0.09 25.03 -0.12 28.77 -0.15 C63 -0.3 63 -0.3 71.93 4.16 C73.21 4.28 74.49 4.4 75.81 4.52 C81.7 5.12 87.2 6.77 92.87 8.47 C93.89 8.77 94.91 9.07 95.96 9.37 C101.7 11.07 107.25 13.01 112.78 15.3 C115.31 16.31 117.87 17.09 120.49 17.85 C128.12 20.33 134.93 24.26 141.94 28.09 C144.65 29.55 147.41 30.89 150.18 32.22 C156.64 35.43 163.06 38.96 168.93 43.16 C168.93 43.82 168.93 44.48 168.93 45.16 C169.92 45.16 170.91 45.16 171.93 45.16 C171.93 45.82 171.93 46.48 171.93 47.16 C172.71 47.47 173.5 47.78 174.3 48.1 C176.93 49.16 176.93 49.16 178.93 50.16 C178.93 50.82 178.93 51.48 178.93 52.16 C179.46 52.41 180 52.66 180.55 52.91 C183.51 54.47 186.23 56.2 188.93 58.16 C188.93 58.82 188.93 59.48 188.93 60.16 C189.47 60.39 190.02 60.61 190.58 60.84 C193.66 62.57 195.97 64.81 198.55 67.22 C201.97 70.58 201.97 70.58 205.93 73.16 C205.93 73.82 205.93 74.48 205.93 75.16 C206.92 75.49 207.91 75.82 208.93 76.16 C208.93 76.82 208.93 77.48 208.93 78.16 C209.59 78.16 210.25 78.16 210.93 78.16 C212.34 79.56 212.34 79.56 213.99 81.54 C217.62 85.82 221.39 89.94 225.21 94.06 C226.93 96.16 226.93 96.16 226.93 98.16 C227.59 98.16 228.25 98.16 228.93 98.16 C230.83 100.6 232.61 103.05 234.37 105.6 C235.15 106.73 235.15 106.73 235.96 107.89 C239.76 113.4 243.5 118.95 247.18 124.54 C247.66 125.25 248.13 125.97 248.62 126.71 C251.93 131.81 251.93 131.81 251.93 135.16 C252.59 135.16 253.25 135.16 253.93 135.16 C254.17 135.67 254.41 136.19 254.66 136.71 C255.79 139.11 256.92 141.51 258.05 143.91 C258.67 145.22 258.67 145.22 259.3 146.55 C261.52 151.26 263.82 155.92 266.24 160.54 C268.77 165.53 270.46 170.57 271.97 175.96 C272.92 179.27 272.92 179.27 274.35 182.84 C276.31 187.98 277.63 193.27 278.99 198.6 C279.37 200.08 279.37 200.08 279.77 201.58 C284.03 218.15 284.03 218.15 284.49 225.6 C284.66 229.53 284.66 229.53 285.93 233.16 C286.02 235.18 286.06 237.21 286.06 239.23 C286.06 241.14 286.06 241.14 286.07 243.09 C286.07 244.49 286.06 245.89 286.06 247.29 C286.06 248.71 286.06 250.14 286.06 251.57 C286.07 254.56 286.06 257.55 286.06 260.55 C286.05 264.39 286.06 268.23 286.06 272.07 C286.07 275.01 286.06 277.96 286.06 280.91 C286.06 282.33 286.06 283.74 286.06 285.16 C286.07 287.14 286.06 289.11 286.06 291.09 C286.06 292.78 286.06 292.78 286.05 294.5 C285.93 297.16 285.93 297.16 284.93 299.16 C284.8 300.89 284.7 302.62 284.62 304.35 C284.14 310.61 282.68 316.32 280.97 322.35 C279.96 326.04 279.13 329.73 278.37 333.47 C276.65 341.67 274.48 349.25 270.95 356.84 C269.88 359.27 269.03 361.71 268.18 364.22 C265.7 371.17 262.31 377.62 258.94 384.17 C258 386.02 257.1 387.9 256.21 389.77 C251.87 398.83 246.66 406.95 240.93 415.16 C240.47 415.83 240.01 416.5 239.54 417.18 C238.18 419.16 236.8 421.13 235.43 423.1 C235.01 423.71 234.59 424.32 234.15 424.95 C233.13 426.39 232.03 427.78 230.93 429.16 C230.27 429.16 229.61 429.16 228.93 429.16 C228.66 429.9 228.39 430.65 228.12 431.41 C226.98 434.05 225.83 436.02 223.93 438.16 C223.27 438.16 222.61 438.16 221.93 438.16 C221.6 439.15 221.27 440.14 220.93 441.16 C220.27 441.16 219.61 441.16 218.93 441.16 C218.59 441.97 218.59 441.97 218.24 442.79 C215.91 447.01 212.6 451.01 208.93 454.16 C208.27 454.16 207.61 454.16 206.93 454.16 C206.93 454.82 206.93 455.48 206.93 456.16 C205.28 457.85 205.28 457.85 203.12 459.72 C202.41 460.34 201.7 460.96 200.97 461.6 C198.93 463.16 198.93 463.16 195.93 464.16 C195.93 464.82 195.93 465.48 195.93 466.16 C193.81 468.11 193.81 468.11 191.05 470.29 C190.15 471.01 189.24 471.74 188.31 472.48 C185.93 474.16 185.93 474.16 183.93 474.16 C183.93 474.82 183.93 475.48 183.93 476.16 C179.54 479.16 179.54 479.16 176.93 479.16 C176.93 479.82 176.93 480.48 176.93 481.16 C175.94 481.16 174.95 481.16 173.93 481.16 C173.93 481.82 173.93 482.48 173.93 483.16 C171.73 484.75 171.73 484.75 168.8 486.54 C165.62 488.49 162.47 490.44 159.43 492.6 C156.93 494.16 156.93 494.16 153.93 494.16 C153.93 494.82 153.93 495.48 153.93 496.16 C153.42 496.4 152.9 496.64 152.37 496.89 C149.97 498.02 147.58 499.15 145.18 500.29 C144.31 500.7 143.44 501.11 142.54 501.53 C137.81 503.77 133.13 506.06 128.49 508.47 C123.68 510.91 118.81 512.68 113.67 514.29 C111.33 515.04 109.04 515.84 106.74 516.72 C105.47 517.2 104.2 517.68 102.93 518.16 C102.01 518.51 102.01 518.51 101.07 518.87 C94.87 521.1 88.49 522.44 82.05 523.8 C77.87 524.63 77.87 524.63 73.93 526.16 C65.07 527.87 56.08 528.76 47.1 529.59 C45.06 529.79 43.02 529.99 40.99 530.19 C26.62 531.58 12.66 531.27 -1.7 529.79 C-3 529.66 -4.3 529.53 -5.64 529.4 C-27.4 527.23 -27.4 527.23 -37.13 524.22 C-41.51 522.91 -45.88 521.68 -50.32 520.6 C-57.96 518.71 -65.13 516.82 -72.1 513.12 C-74.11 512.14 -76.06 511.49 -78.2 510.85 C-83.15 509.3 -87.69 506.96 -92.29 504.59 C-94.87 503.25 -97.31 502.08 -100.07 501.16 C-100.07 500.5 -100.07 499.84 -100.07 499.16 C-100.74 499.09 -101.41 499.01 -102.1 498.93 C-106.07 497.9 -109.12 495.95 -112.57 493.79 C-113.55 493.19 -113.55 493.19 -114.54 492.58 C-115.81 491.8 -117.07 491.02 -118.33 490.23 C-119.88 489.28 -121.46 488.38 -123.04 487.5 C-123.71 487.06 -124.38 486.62 -125.07 486.16 C-125.07 485.5 -125.07 484.84 -125.07 484.16 C-125.86 483.85 -126.64 483.54 -127.45 483.22 C-130.07 482.16 -130.07 482.16 -132.07 481.16 C-132.07 480.5 -132.07 479.84 -132.07 479.16 C-133.15 478.79 -133.15 478.79 -134.26 478.41 C-137.35 477.04 -139.58 475.44 -142.07 473.16 C-142.07 472.5 -142.07 471.84 -142.07 471.16 C-143.09 470.85 -143.09 470.85 -144.13 470.54 C-147.99 468.73 -151.15 466.26 -154.07 463.16 C-154.07 462.5 -154.07 461.84 -154.07 461.16 C-154.66 460.9 -155.25 460.63 -155.86 460.36 C-158.15 459.12 -159.68 457.81 -161.53 455.97 C-162.14 455.36 -162.76 454.74 -163.4 454.11 C-164.03 453.46 -164.67 452.82 -165.32 452.16 C-165.97 451.52 -166.62 450.88 -167.29 450.22 C-167.9 449.6 -168.52 448.98 -169.15 448.35 C-169.71 447.79 -170.27 447.22 -170.85 446.64 C-172.07 445.16 -172.07 445.16 -172.07 443.16 C-172.73 443.16 -173.39 443.16 -174.07 443.16 C-175.81 441.28 -175.81 441.28 -177.95 438.6 C-178.76 437.58 -179.57 436.56 -180.4 435.51 C-180.84 434.96 -181.27 434.41 -181.72 433.85 C-183.05 432.18 -184.42 430.56 -185.81 428.93 C-196.97 415.67 -206.53 400.77 -214.07 385.16 C-214.57 384.38 -215.06 383.59 -215.57 382.79 C-217.37 379.64 -218.6 376.4 -219.9 373.02 C-221.17 369.92 -222.61 366.93 -224.07 363.91 C-226.75 358.19 -228.57 352.47 -230.2 346.38 C-230.93 343.7 -231.73 341.09 -232.63 338.47 C-236.1 328.23 -238.27 317.81 -240.07 307.16 C-240.32 305.77 -240.32 305.77 -240.57 304.35 C-241.88 296.55 -242.38 289.02 -242.37 281.13 C-242.38 279.93 -242.38 278.73 -242.39 277.49 C-242.39 274.97 -242.39 272.45 -242.39 269.93 C-242.38 266.13 -242.41 262.34 -242.43 258.55 C-242.48 241.13 -241.31 224.52 -236.75 207.66 C-236.15 205.44 -235.65 203.23 -235.2 200.97 C-234.21 196.44 -232.93 191.99 -231.63 187.54 C-231.43 186.82 -231.22 186.1 -231.01 185.36 C-229.66 180.79 -227.99 176.52 -226.07 172.16 C-225.5 170.52 -224.93 168.87 -224.38 167.22 C-222.34 161.48 -219.67 156.14 -216.89 150.73 C-215.1 147.26 -213.44 143.83 -212.07 140.16 C-211.41 140.16 -210.75 140.16 -210.07 140.16 C-209.97 139.43 -209.87 138.7 -209.76 137.95 C-209.01 134.9 -207.89 133.08 -206.07 130.54 C-204.26 127.98 -203.07 126.15 -202.07 123.16 C-201.41 123.16 -200.75 123.16 -200.07 123.16 C-199.83 122.48 -199.6 121.79 -199.35 121.09 C-197.81 117.56 -195.77 114.5 -193.57 111.35 C-193.17 110.75 -192.77 110.15 -192.35 109.54 C-191.31 108.04 -190.2 106.59 -189.07 105.16 C-188.41 105.16 -187.75 105.16 -187.07 105.16 C-186.87 104.47 -186.66 103.79 -186.45 103.08 C-184.61 99.19 -181.98 96.54 -179.01 93.47 C-175.1 89.64 -175.1 89.64 -172.07 85.16 C-171.41 85.16 -170.75 85.16 -170.07 85.16 C-169.58 83.68 -169.58 83.68 -169.07 82.16 C-168.41 82.16 -167.75 82.16 -167.07 82.16 C-167.07 81.5 -167.07 80.84 -167.07 80.16 C-166.41 80.16 -165.75 80.16 -165.07 80.16 C-164.58 78.68 -164.58 78.68 -164.07 77.16 C-163.41 77.16 -162.75 77.16 -162.07 77.16 C-162.07 76.5 -162.07 75.84 -162.07 75.16 C-161.41 75.16 -160.75 75.16 -160.07 75.16 C-159.58 73.68 -159.58 73.68 -159.07 72.16 C-158.41 72.16 -157.75 72.16 -157.07 72.16 C-157.07 71.5 -157.07 70.84 -157.07 70.16 C-156.41 70.16 -155.75 70.16 -155.07 70.16 C-155.07 69.5 -155.07 68.84 -155.07 68.16 C-150.39 63.33 -144.74 58.79 -139.07 55.16 C-138.41 55.16 -137.75 55.16 -137.07 55.16 C-137.07 54.5 -137.07 53.84 -137.07 53.16 C-134.67 51.34 -132.26 49.64 -129.76 47.97 C-129.03 47.48 -128.31 46.99 -127.56 46.48 C-121.8 42.6 -115.98 38.81 -110.07 35.16 C-109.21 34.6 -108.35 34.05 -107.46 33.47 C-105.07 32.16 -105.07 32.16 -102.07 32.16 C-102.07 31.5 -102.07 30.84 -102.07 30.16 C-96.38 27.2 -90.67 24.51 -84.69 22.19 C-81.89 21.09 -79.14 19.91 -76.38 18.72 C-69.41 15.8 -62.26 13.49 -55.07 11.16 C-53.49 10.62 -51.9 10.08 -50.32 9.54 C-42.99 7.11 -35.83 5.08 -28.11 4.41 C-25.82 4.19 -25.82 4.19 -22.7 3.16 C-18.61 2.03 -14.74 1.7 -10.53 1.41 C-6.86 1.04 -3.76 0.03 0 0 Z M-30.07 70.16 C-31.21 70.48 -32.35 70.81 -33.53 71.14 C-43.73 74.08 -53.53 77.48 -63.07 82.16 C-64.22 82.72 -65.36 83.28 -66.54 83.86 C-73.16 87.11 -79.68 90.49 -86.07 94.16 C-86.07 94.82 -86.07 95.48 -86.07 96.16 C-87.06 96.16 -88.05 96.16 -89.07 96.16 C-89.07 96.82 -89.07 97.48 -89.07 98.16 C-89.8 98.43 -90.52 98.7 -91.27 98.97 C-94.04 100.15 -96.38 101.5 -98.88 103.16 C-100.07 103.93 -100.07 103.93 -101.28 104.72 C-101.87 105.2 -102.46 105.67 -103.07 106.16 C-103.07 106.82 -103.07 107.48 -103.07 108.16 C-103.6 108.37 -104.12 108.58 -104.67 108.79 C-108.09 110.74 -110.72 113.34 -113.57 116.04 C-114.14 116.57 -114.71 117.1 -115.29 117.64 C-116.9 119.14 -118.49 120.65 -120.07 122.16 C-120.87 122.91 -121.66 123.65 -122.48 124.42 C-124.3 126.01 -124.3 126.01 -124.07 128.16 C-124.73 128.16 -125.39 128.16 -126.07 128.16 C-127.67 129.98 -129.12 131.79 -130.57 133.72 C-131.23 134.59 -131.23 134.59 -131.91 135.48 C-136.92 142.18 -141.58 149.11 -146.07 156.16 C-146.7 157.15 -147.33 158.13 -147.97 159.15 C-155.39 171.31 -160.9 184.57 -165.07 198.16 C-165.59 199.68 -166.11 201.2 -166.63 202.72 C-172.69 221.01 -174.25 239.07 -174.2 258.22 C-174.2 260.66 -174.2 263.1 -174.21 265.54 C-174.22 284.27 -172.95 303.32 -165.95 320.91 C-164.77 323.93 -163.71 326.98 -162.63 330.04 C-161.78 332.41 -160.93 334.79 -160.07 337.16 C-159.77 338.02 -159.46 338.88 -159.14 339.76 C-154.97 350.82 -148.87 361.06 -142.7 371.1 C-142.27 371.8 -141.84 372.51 -141.4 373.23 C-140.35 374.91 -139.22 376.54 -138.07 378.16 C-137.41 378.16 -136.75 378.16 -136.07 378.16 C-135.8 378.74 -135.54 379.31 -135.26 379.91 C-134.04 382.22 -132.66 384.16 -131.07 386.22 C-129.32 388.5 -127.67 390.77 -126.07 393.16 C-125.41 393.16 -124.75 393.16 -124.07 393.16 C-123.82 393.72 -123.58 394.27 -123.32 394.85 C-120.55 399.98 -116.65 403.54 -112.27 407.28 C-110.05 409.18 -107.87 411.14 -105.7 413.1 C-95.98 422.97 -95.98 422.97 -84.07 428.16 C-84.07 428.82 -84.07 429.48 -84.07 430.16 C-83.08 430.16 -82.09 430.16 -81.07 430.16 C-81.07 430.82 -81.07 431.48 -81.07 432.16 C-78.5 433.57 -75.92 434.98 -73.34 436.38 C-71.17 437.56 -69 438.76 -66.83 439.98 C-60.84 443.3 -54.98 446.12 -48.49 448.33 C-46.44 449.03 -44.44 449.87 -42.45 450.72 C-35.1 453.85 -27.51 455.94 -19.76 457.79 C-18.84 458.01 -17.93 458.23 -16.98 458.45 C-11.08 459.82 -5.32 460.77 0.75 461.02 C2.93 461.16 2.93 461.16 5.93 462.16 C8.91 462.27 11.86 462.33 14.85 462.33 C15.74 462.33 16.63 462.34 17.54 462.34 C19.44 462.34 21.33 462.35 23.22 462.35 C26.06 462.35 28.9 462.37 31.74 462.39 C47.09 462.43 62.09 461.43 76.93 457.16 C77.26 456.83 77.59 456.5 77.93 456.16 C78.9 456.06 79.87 455.95 80.87 455.85 C85.01 455.32 88.58 453.83 92.4 452.2 C94.93 451.16 94.93 451.16 97.68 450.26 C101.8 448.87 105.79 447.21 109.8 445.54 C110.59 445.21 111.37 444.89 112.18 444.55 C114.1 443.76 116.01 442.96 117.93 442.16 C117.93 441.5 117.93 440.84 117.93 440.16 C119.02 440 119.02 440 120.12 439.83 C123.11 439.12 125.17 438.08 127.79 436.51 C129.12 435.72 129.12 435.72 130.48 434.91 C131.39 434.35 132.3 433.8 133.24 433.22 C134.64 432.4 134.64 432.4 136.06 431.55 C136.94 431.02 137.82 430.49 138.73 429.95 C139.53 429.46 140.34 428.97 141.17 428.47 C141.75 428.04 142.33 427.61 142.93 427.16 C142.93 426.5 142.93 425.84 142.93 425.16 C144.1 424.7 144.1 424.7 145.3 424.22 C147.85 423.23 147.85 423.23 149.93 422.16 C149.93 421.5 149.93 420.84 149.93 420.16 C150.48 419.91 151.04 419.66 151.61 419.4 C159.13 415.37 165.37 408.95 171.12 402.72 C171.6 402.2 172.08 401.68 172.57 401.15 C175.16 398.56 175.16 398.56 175.93 395.16 C176.59 395.16 177.25 395.16 177.93 395.16 C179.36 393.48 179.36 393.48 180.79 391.29 C181.35 390.46 181.91 389.64 182.48 388.8 C183.06 387.93 183.64 387.06 184.24 386.16 C184.81 385.32 185.38 384.48 185.97 383.62 C189.4 378.53 192.72 373.39 195.93 368.16 C196.55 367.15 197.17 366.15 197.81 365.11 C201.49 358.94 204.45 352.88 206.93 346.16 C207.59 344.51 208.26 342.87 208.93 341.22 C211.05 335.91 213.05 330.56 214.93 325.16 C215.2 324.4 215.46 323.63 215.74 322.84 C218.12 315.54 219.27 308.04 220.51 300.49 C220.78 298.96 221.09 297.44 221.43 295.93 C222.82 289.71 223.22 283.83 223.19 277.47 C223.2 276.49 223.2 275.51 223.2 274.49 C223.2 272.43 223.2 270.37 223.19 268.3 C223.18 265.17 223.19 262.04 223.2 258.9 C223.2 256.89 223.2 254.87 223.19 252.85 C223.2 251.46 223.2 251.46 223.21 250.05 C223.17 244.64 222.6 239.64 221.42 234.37 C220.96 232.29 220.6 230.23 220.29 228.13 C218.05 213.75 213.91 200.03 208.01 186.7 C206.82 183.9 205.86 181.06 204.93 178.16 C204.27 178.16 203.61 178.16 202.93 178.16 C202.8 177.14 202.8 177.14 202.67 176.09 C201.75 172.44 200.03 169.49 198.12 166.29 C197.42 165.1 196.73 163.92 196.03 162.73 C195.69 162.14 195.34 161.56 194.98 160.95 C193.92 159.14 192.87 157.32 191.83 155.49 C190.34 152.89 188.85 150.29 187.3 147.72 C186.9 147.04 186.49 146.36 186.08 145.67 C185.7 145.17 185.32 144.67 184.93 144.16 C184.27 144.16 183.61 144.16 182.93 144.16 C182.74 143.5 182.56 142.84 182.37 142.16 C180.64 138.55 178.35 136.04 175.67 133.1 C174.25 131.52 172.92 129.85 171.62 128.16 C170.78 127.17 170.78 127.17 169.93 126.16 C169.27 126.16 168.61 126.16 167.93 126.16 C167.53 125.2 167.53 125.2 167.12 124.22 C166.04 121.83 166.04 121.83 162.93 121.16 C162.6 120.17 162.27 119.18 161.93 118.16 C161.27 118.16 160.61 118.16 159.93 118.16 C159.93 117.5 159.93 116.84 159.93 116.16 C159.27 116.16 158.61 116.16 157.93 116.16 C157.93 115.5 157.93 114.84 157.93 114.16 C155.78 112.31 153.62 110.57 151.37 108.85 C150.76 108.37 150.15 107.9 149.52 107.41 C147.67 105.98 145.8 104.57 143.93 103.16 C143.28 102.68 142.64 102.19 141.97 101.69 C138.78 99.06 138.78 99.06 134.93 98.16 C134.93 97.5 134.93 96.84 134.93 96.16 C133.89 95.6 133.89 95.6 132.84 95.02 C128.28 92.54 123.72 90.05 119.18 87.54 C118.08 86.93 118.08 86.93 116.97 86.31 C115.14 85.28 113.34 84.19 111.55 83.1 C107.75 80.91 103.69 79.54 99.56 78.1 C97.44 77.35 95.37 76.49 93.3 75.6 C83.84 71.57 73.95 69.34 63.93 67.16 C63.26 67.01 62.6 66.86 61.91 66.71 C32.54 60.2 -1.38 61.25 -30.07 70.16 Z " fill="#000000" transform="translate(994.072021484375,526.8388671875)"/>
<path d="M0 0 C0 0.66 0 1.32 0 2 C0.57 2.09 1.14 2.18 1.73 2.28 C12.02 5.56 22.57 20.44 30.07 27.97 C31.6 29.51 33.14 31.04 34.67 32.58 C38.67 36.58 42.67 40.59 46.67 44.6 C50.77 48.71 54.86 52.81 58.96 56.91 C66.98 64.94 74.99 72.97 83 81 C86.3 79.43 88.5 77.75 91.08 75.15 C91.85 74.38 92.62 73.61 93.41 72.82 C94.2 72.01 95 71.21 95.81 70.38 C96.59 69.59 97.38 68.81 98.18 68 C101.66 64.5 105.05 60.96 108.27 57.22 C112.03 52.9 116.02 48.87 120.09 44.85 C120.83 44.11 121.57 43.37 122.34 42.61 C124.68 40.28 127.03 37.95 129.38 35.62 C132.49 32.54 135.6 29.45 138.71 26.35 C139.43 25.64 140.14 24.93 140.88 24.21 C141.54 23.55 142.2 22.9 142.88 22.22 C143.46 21.65 144.04 21.07 144.64 20.48 C146.1 19.03 146.1 19.03 147 17 C147.66 17 148.32 17 149 17 C149 16.34 149 15.68 149 15 C150.38 13.38 150.38 13.38 152 12 C152.66 12 153.32 12 154 12 C154 11.34 154 10.68 154 10 C155.38 8.38 155.38 8.38 157 7 C157.66 7 158.32 7 159 7 C159 6.34 159 5.68 159 5 C167.01 -0.82 175.02 -4.37 185 -3 C196.48 0.5 203 6 209.25 16 C211.51 22.04 211.2 28.65 211 35 C210.98 36.13 210.96 37.27 210.94 38.44 C209.26 44.83 205.13 51.7 200 56 C199.34 56 198.68 56 198 56 C197.73 56.64 197.46 57.28 197.19 57.94 C196 60 196 60 193 61 C192.67 61.66 192.34 62.32 192 63 C191.67 63.66 191.34 64.32 191 65 C190.01 65.33 189.02 65.66 188 66 C187.67 66.66 187.34 67.32 187 68 C186.67 68.66 186.34 69.32 186 70 C185.01 70.33 184.02 70.66 183 71 C182.67 71.66 182.34 72.32 182 73 C181.67 73.66 181.34 74.32 181 75 C180.01 75.33 179.02 75.66 178 76 C177.67 76.66 177.34 77.32 177 78 C176.67 78.66 176.34 79.32 176 80 C175.01 80.33 174.02 80.66 173 81 C172.67 81.66 172.34 82.32 172 83 C171.67 83.66 171.34 84.32 171 85 C170.01 85.33 169.02 85.66 168 86 C167.67 86.66 167.34 87.32 167 88 C166.67 88.66 166.34 89.32 166 90 C165.01 90.33 164.02 90.66 163 91 C162.67 91.66 162.34 92.32 162 93 C161.67 93.66 161.34 94.32 161 95 C160.01 95.33 159.02 95.66 158 96 C157.67 96.66 157.34 97.32 157 98 C156.67 98.66 156.34 99.32 156 100 C155.01 100.33 154.02 100.66 153 101 C152.67 101.66 152.34 102.32 152 103 C151.67 103.66 151.34 104.32 151 105 C150.01 105.33 149.02 105.66 148 106 C147.67 106.66 147.34 107.32 147 108 C146.67 108.66 146.34 109.32 146 110 C145.01 110.33 144.02 110.66 143 111 C142.67 111.66 142.34 112.32 142 113 C141.67 113.66 141.34 114.32 141 115 C140.01 115.33 139.02 115.66 138 116 C137.67 116.66 137.34 117.32 137 118 C136.67 118.66 136.34 119.32 136 120 C135.01 120.33 134.02 120.66 133 121 C131.04 123.98 131 125.26 131 129 C132.09 130.67 132.09 130.67 133.7 132.17 C134.3 132.77 134.9 133.37 135.51 133.99 C136.18 134.64 136.84 135.28 137.53 135.95 C138.57 136.99 138.57 136.99 139.63 138.05 C141.94 140.34 144.26 142.62 146.57 144.89 C148.18 146.49 149.78 148.08 151.38 149.67 C155.61 153.87 159.84 158.06 164.09 162.24 C170.86 168.93 177.62 175.63 184.37 182.33 C186.73 184.67 189.09 187 191.46 189.33 C192.91 190.77 194.37 192.22 195.82 193.66 C196.81 194.62 196.81 194.62 197.81 195.6 C206.73 204.48 210.99 212.34 212 225 C211.88 234.11 207.77 241.11 202 248 C201.34 248 200.68 248 200 248 C200 248.66 200 249.32 200 250 C191.06 255.6 183.51 257.37 173 256 C165.05 253.91 158.13 248.69 152.91 242.45 C147.56 236.24 141.62 230.61 135.77 224.89 C134.9 224.03 134.03 223.17 133.13 222.29 C132.34 221.51 131.54 220.74 130.72 219.94 C129 218 129 218 129 216 C128.01 215.67 127.02 215.34 126 215 C126 214.34 126 213.68 126 213 C125.34 213 124.68 213 124 213 C124 212.34 124 211.68 124 211 C123.01 210.67 122.02 210.34 121 210 C121 209.34 121 208.68 121 208 C120.34 208 119.68 208 119 208 C119 207.34 119 206.68 119 206 C118.01 205.67 117.02 205.34 116 205 C116 204.34 116 203.68 116 203 C115.34 203 114.68 203 114 203 C114 202.34 114 201.68 114 201 C113.01 200.67 112.02 200.34 111 200 C111 199.34 111 198.68 111 198 C110.34 198 109.68 198 109 198 C109 197.34 109 196.68 109 196 C108.01 195.67 107.02 195.34 106 195 C106 194.34 106 193.68 106 193 C105.34 193 104.68 193 104 193 C102.66 191.64 102.66 191.64 101.06 189.69 C97.92 186 94.65 182.5 91.25 179.06 C90.33 178.13 89.4 177.19 88.45 176.22 C86.13 173.82 86.13 173.82 83 173 C82.55 173.5 82.09 173.99 81.62 174.5 C80 176 80 176 78 176 C77.73 176.64 77.46 177.28 77.19 177.94 C76 180 76 180 73 181 C72.67 181.66 72.34 182.32 72 183 C71.67 183.66 71.34 184.32 71 185 C70.01 185.33 69.02 185.66 68 186 C67.67 186.66 67.34 187.32 67 188 C66.67 188.66 66.34 189.32 66 190 C65.01 190.33 64.02 190.66 63 191 C62.67 191.66 62.34 192.32 62 193 C61.67 193.66 61.34 194.32 61 195 C60.01 195.33 59.02 195.66 58 196 C57.67 196.66 57.34 197.32 57 198 C56.67 198.66 56.34 199.32 56 200 C55.01 200.33 54.02 200.66 53 201 C52.67 201.66 52.34 202.32 52 203 C51.67 203.66 51.34 204.32 51 205 C50.01 205.33 49.02 205.66 48 206 C47.67 206.66 47.34 207.32 47 208 C46.67 208.66 46.34 209.32 46 210 C45.01 210.33 44.02 210.66 43 211 C42.67 211.66 42.34 212.32 42 213 C41.67 213.66 41.34 214.32 41 215 C40.01 215.33 39.02 215.66 38 216 C37.67 216.66 37.34 217.32 37 218 C36.67 218.66 36.34 219.32 36 220 C35.01 220.33 34.02 220.66 33 221 C32.67 221.66 32.34 222.32 32 223 C31.67 223.66 31.34 224.32 31 225 C30.01 225.33 29.02 225.66 28 226 C27.67 226.66 27.34 227.32 27 228 C26.67 228.66 26.34 229.32 26 230 C25.01 230.33 24.02 230.66 23 231 C22.67 231.66 22.34 232.32 22 233 C21.67 233.66 21.34 234.32 21 235 C20.01 235.33 19.02 235.66 18 236 C17.67 236.66 17.34 237.32 17 238 C16.67 238.66 16.34 239.32 16 240 C15.01 240.33 14.02 240.66 13 241 C12.67 241.66 12.34 242.32 12 243 C11.67 243.66 11.34 244.32 11 245 C10.01 245.33 9.02 245.66 8 246 C8 246.66 8 247.32 8 248 C4.54 251 4.54 251 2 251 C2 251.66 2 252.32 2 253 C-6.16 257.08 -16.34 257.74 -25.08 255.05 C-29.85 252.78 -33.56 250.05 -37 246 C-37.7 245.2 -38.4 244.39 -39.12 243.56 C-44.27 236.53 -46.56 228.67 -45.7 219.94 C-43.91 211.49 -39.71 202.69 -33 197 C-32.34 197 -31.68 197 -31 197 C-31 196.34 -31 195.68 -31 195 C-29.62 193.38 -29.62 193.38 -28 192 C-27.34 192 -26.68 192 -26 192 C-26 191.34 -26 190.68 -26 190 C-24.62 188.38 -24.62 188.38 -23 187 C-22.34 187 -21.68 187 -21 187 C-21 186.34 -21 185.68 -21 185 C-19.62 183.38 -19.62 183.38 -18 182 C-17.34 182 -16.68 182 -16 182 C-16 181.34 -16 180.68 -16 180 C-14.62 178.38 -14.62 178.38 -13 177 C-12.34 177 -11.68 177 -11 177 C-11 176.34 -11 175.68 -11 175 C-9.62 173.38 -9.62 173.38 -8 172 C-7.34 172 -6.68 172 -6 172 C-6 171.34 -6 170.68 -6 170 C-4.62 168.38 -4.62 168.38 -3 167 C-2.34 167 -1.68 167 -1 167 C-1 166.34 -1 165.68 -1 165 C0.38 163.38 0.38 163.38 2 162 C2.66 162 3.32 162 4 162 C4 161.34 4 160.68 4 160 C5.38 158.38 5.38 158.38 7 157 C7.66 157 8.32 157 9 157 C9 156.34 9 155.68 9 155 C10.38 153.38 10.38 153.38 12 152 C12.66 152 13.32 152 14 152 C14 151.34 14 150.68 14 150 C15.38 148.38 15.38 148.38 17 147 C17.66 147 18.32 147 19 147 C19 146.34 19 145.68 19 145 C20.38 143.38 20.38 143.38 22 142 C22.66 142 23.32 142 24 142 C24 141.34 24 140.68 24 140 C25.38 138.38 25.38 138.38 27 137 C27.66 137 28.32 137 29 137 C29 136.34 29 135.68 29 135 C30.38 133.38 30.38 133.38 32 132 C32.66 132 33.32 132 34 132 C34 131.34 34 130.68 34 130 C34.66 129.67 35.32 129.34 36 129 C35.58 124.11 33.56 122.23 30 119 C10 99 -10 79 -30 59 C-30.8 58.22 -31.61 57.43 -32.44 56.62 C-40.93 47.92 -45.39 40.51 -46 28 C-44.96 18.8 -40.2 9.92 -33 4 C-32.34 4 -31.68 4 -31 4 C-31 3.34 -31 2.68 -31 2 C-19.68 -3.45 -11.73 -4.76 0 0 Z " fill="#000000" transform="translate(933,665)"/>
</svg>
