<?xml version="1.0" encoding="UTF-8"?>
<!-- Generator: visioncortex VTracer 0.6.3 -->
<svg version="1.1" xmlns="http://www.w3.org/2000/svg" width="1280" height="1266">
<path d="M0 0 C0.68 0.8 1.36 1.61 2.06 2.44 C5.18 5.16 7.16 5.83 11.06 7 C15.83 8.44 18.46 9.49 21 14 C23.11 17.17 23.51 17.37 26.81 18.62 C30.47 20.32 31.76 21.88 33.5 25.5 C35.65 29.98 37.64 31.13 42.13 32.97 C45.51 34.83 46.49 37.54 48 41 C48 41.99 48 42.98 48 44 C48.89 44.06 49.77 44.12 50.69 44.19 C55.46 45.36 57.77 48.01 60.31 52.12 C61 54 61 54 61 57 C61.72 57.1 62.44 57.21 63.19 57.31 C66.46 58.11 68.35 58.89 71 61 C71.63 62.27 72.21 63.57 72.75 64.88 C74.37 68.52 75.85 69.73 79.44 71.44 C84.21 73.72 85.48 76.28 87.69 80.94 C89.59 83.93 91.9 84.56 95.09 85.84 C98.2 87.73 99.12 90.71 100.65 93.9 C102.59 96.92 104.9 97.65 108.13 98.97 C111.51 100.83 112.49 103.54 114 107 C114 107.99 114 108.98 114 110 C114.89 110.06 115.77 110.12 116.69 110.19 C121.46 111.36 123.77 114.01 126.31 118.12 C127 120 127 120 127 123 C127.89 123.06 128.77 123.12 129.69 123.19 C133.86 124.21 135.29 125.7 138 129 C138.62 130.49 138.62 130.49 139.25 132 C141.18 135.31 142.04 135.71 145.38 137.31 C150.14 139.68 151.47 142.25 153.69 146.94 C155.59 149.93 157.9 150.56 161.09 151.84 C164.2 153.73 165.12 156.72 166.66 159.91 C168.23 162.36 169.34 162.93 172 164 C176.58 165.85 177.58 168.59 179.65 172.9 C181.59 175.92 183.9 176.65 187.13 177.97 C190.51 179.83 191.49 182.54 193 186 C193 186.99 193 187.98 193 189 C193.89 189.06 194.77 189.12 195.69 189.19 C199.86 190.21 201.29 191.7 204 195 C204.62 196.49 204.62 196.49 205.25 198 C207.19 201.32 208.1 201.75 211.44 203.38 C215 205.15 216.51 206.3 218 210 C219.48 213.67 220.88 214.75 224.44 216.44 C229.21 218.72 230.48 221.27 232.69 225.93 C234.6 228.94 236.93 229.66 240.13 230.97 C243.46 232.8 244.44 235.63 246 239 C247.27 241.55 248.22 241.63 250.81 242.69 C255.49 244.92 256.95 247.3 259 252 C259 252.99 259 253.98 259 255 C259.89 255.06 260.77 255.12 261.69 255.19 C266.85 256.45 269.13 259.7 272 264 C272 264.99 272 265.98 272 267 C272.66 267 273.32 267 274 267 C276.41 259.47 277.43 252.72 277.35 244.82 C277.36 243.24 277.36 243.24 277.36 241.62 C277.36 239.35 277.36 237.08 277.35 234.8 C277.34 231.21 277.34 227.61 277.35 224.01 C277.39 213.79 277.38 203.57 277.36 193.34 C277.35 187.07 277.36 180.8 277.39 174.53 C277.4 172.15 277.39 169.76 277.38 167.38 C277.36 164.05 277.37 160.73 277.39 157.4 C277.37 156.41 277.36 155.43 277.35 154.42 C277.4 149.75 277.46 147.69 280.41 143.92 C282.61 142.29 284.31 141.12 286.88 140.25 C287.49 140.03 288.11 139.81 288.74 139.58 C295.88 137.75 303 137.84 310.33 137.83 C311.51 137.83 312.7 137.83 313.92 137.82 C316.42 137.82 318.92 137.81 321.42 137.81 C325.22 137.81 329.02 137.79 332.82 137.78 C335.26 137.77 337.7 137.77 340.14 137.77 C341.26 137.76 342.39 137.76 343.55 137.75 C353.38 137.78 362.76 138.22 371 144 C373.56 147.84 373.27 150.96 373.24 155.4 C373.25 156.71 373.25 156.71 373.25 158.03 C373.26 160.95 373.25 163.87 373.24 166.79 C373.24 168.88 373.24 170.97 373.25 173.06 C373.25 177.57 373.25 182.08 373.24 186.58 C373.24 193.71 373.25 200.85 373.26 207.98 C373.3 228.26 373.32 248.55 373.31 268.83 C373.3 280.03 373.31 291.22 373.34 302.42 C373.36 309.5 373.36 316.58 373.34 323.67 C373.33 328.09 373.34 332.51 373.36 336.93 C373.37 338.97 373.37 341.01 373.35 343.05 C373.03 358.76 373.03 358.76 379 373 C381.03 374.38 382.84 375.23 385.13 376.07 C388.52 377.75 389.46 380.67 391 384 C392.27 386.54 393.24 386.66 395.81 387.75 C399.94 389.72 401.82 391.91 404 396 C404.33 396.99 404.66 397.98 405 399 C406.74 400.02 406.74 400.02 408.81 400.81 C412.96 402.75 414.82 404.9 417 409 C417.33 409.99 417.66 410.98 418 412 C419.71 412.95 419.71 412.95 421.75 413.69 C426.57 415.91 428.85 419.23 431 424 C431 424.66 431 425.32 431 426 C431.89 426.23 432.77 426.45 433.69 426.69 C437.55 428.22 439.34 429.84 442 433 C442.43 434.01 442.87 435.02 443.31 436.06 C445.42 439.73 447.38 440.41 451.13 442.07 C453.59 443.29 454.69 444.6 456 447 C456.23 447.83 456.45 448.65 456.69 449.5 C458.21 452.41 458.97 452.64 461.88 453.94 C466.04 455.8 467.83 457.92 470 462 C470.33 462.99 470.66 463.98 471 465 C472.74 466.02 472.74 466.02 474.81 466.81 C478.96 468.75 480.82 470.9 483 475 C483.33 475.99 483.66 476.98 484 478 C485.71 478.95 485.71 478.95 487.75 479.69 C492.57 481.91 494.85 485.23 497 490 C497 490.66 497 491.32 497 492 C497.89 492.23 498.77 492.45 499.69 492.69 C504.04 494.41 506.74 496.87 509.12 500.91 C511.87 507.46 509.84 516.41 508 523 C505.86 526.8 504.68 527.75 500.56 529.25 C496.68 531.16 496.38 531.69 494.62 535.38 C492.3 540.17 489.75 541.46 485.06 543.69 C482.62 545.24 482.07 546.36 481 549 C479.16 553.56 476.41 554.7 472.11 556.78 C469.07 558.54 467.75 561.01 466 564 C462.92 566.98 460.28 567.83 456 568 C451.38 566.49 448.08 564.8 445 561 C444.67 560.01 444.34 559.02 444 558 C442.27 556.94 442.27 556.94 440.19 556.12 C436.41 554.34 434.22 552.64 432 549 C431.25 546.19 431.25 546.19 431 544 C429.95 543.91 429.95 543.91 428.88 543.81 C425.13 542.75 422.48 540.96 420 538 C418.97 535.64 418.5 533.55 418 531 C416.95 530.91 416.95 530.91 415.88 530.81 C411.37 529.54 408.16 526.8 405.62 522.88 C405 521 405 521 405 518 C403.95 517.79 402.9 517.59 401.81 517.38 C397.28 516.08 395.59 513.88 393 510 C392.19 507.12 392.19 507.12 392 505 C390.42 504.69 390.42 504.69 388.81 504.38 C384.3 503.1 382.65 500.79 380 497 C379.31 495.68 378.64 494.34 378 493 C374.44 501.12 373.42 508.08 373.48 516.9 C373.47 518.16 373.47 519.41 373.46 520.7 C373.44 524.16 373.44 527.61 373.45 531.06 C373.46 534.8 373.44 538.53 373.42 542.27 C373.4 548.73 373.39 555.19 373.39 561.65 C373.39 570.99 373.37 580.33 373.35 589.67 C373.31 604.83 373.28 619.98 373.27 635.14 C373.26 649.86 373.24 664.58 373.21 679.29 C373.21 680.2 373.2 681.11 373.2 682.05 C373.19 686.6 373.18 691.16 373.17 695.71 C373.09 733.48 373.04 771.24 373 809 C375.81 809.74 378.26 810.13 381.17 810.14 C382.41 810.15 382.41 810.15 383.67 810.15 C384.56 810.16 385.46 810.16 386.38 810.16 C387.33 810.16 388.28 810.17 389.26 810.17 C391.33 810.18 393.39 810.19 395.45 810.2 C398.72 810.21 401.99 810.23 405.27 810.25 C414.57 810.31 423.87 810.37 433.17 810.4 C438.86 810.42 444.55 810.46 450.24 810.5 C452.4 810.52 454.57 810.52 456.73 810.53 C459.77 810.53 462.8 810.56 465.84 810.58 C466.72 810.58 467.61 810.58 468.52 810.57 C475.99 810.67 483.21 811.67 489.06 816.56 C491.84 820.06 492.13 821.79 492.16 826.19 C492.17 827.28 492.18 828.36 492.19 829.48 C492.19 830.66 492.2 831.85 492.2 833.07 C492.21 834.29 492.21 835.51 492.22 836.77 C492.23 839.37 492.24 841.97 492.24 844.57 C492.25 848.49 492.28 852.42 492.31 856.34 C492.47 893.29 492.47 893.29 484 906 C483.48 908.34 483.48 908.34 483.22 910.98 C483.1 911.97 482.98 912.96 482.86 913.99 C482.74 915.04 482.62 916.1 482.5 917.19 C482.37 918.27 482.24 919.35 482.11 920.46 C481.53 925.24 480.99 930.03 480.5 934.83 C479.57 943.76 478.42 951.09 472.38 958 C468.67 962.68 468.33 967.44 467.58 973.26 C466.06 984.71 466.06 984.71 462 989 C461.16 989.23 460.32 989.46 459.46 989.7 C456.65 990.82 456.65 990.82 456 994.2 C455.72 996.14 455.72 996.14 455.44 998.12 C454.31 1005.01 453.16 1011.03 447.88 1016 C446 1017 446 1017 444 1017 C443.85 1017.62 443.71 1018.23 443.55 1018.87 C441.41 1026.96 437.69 1033 432.19 1039.25 C430 1042 429.3 1043.55 429 1047 C431.29 1048.85 433.29 1050.13 436 1051.31 C439 1053 439 1053 440.7 1056 C443.22 1059.28 444.61 1059.86 448.64 1060.49 C449.35 1060.58 450.07 1060.66 450.81 1060.75 C451.56 1060.86 452.31 1060.97 453.08 1061.09 C456.77 1061.63 460.47 1062.06 464.17 1062.48 C474.23 1063.66 480.93 1065.02 487.68 1072.83 C492.26 1080.35 492.46 1087.29 492.43 1095.9 C492.44 1097.13 492.44 1098.36 492.45 1099.63 C492.46 1102.22 492.45 1104.81 492.45 1107.41 C492.44 1111.36 492.47 1115.3 492.5 1119.25 C492.5 1121.78 492.5 1124.31 492.5 1126.84 C492.51 1128.01 492.52 1129.18 492.53 1130.38 C492.46 1138.97 491.16 1146.2 485.56 1152.94 C479.15 1158.1 474.21 1159.56 466 1159 C463.08 1158.42 460.27 1157.58 457.44 1156.69 C456.72 1156.47 456.01 1156.26 455.27 1156.04 C451.84 1155 448.53 1153.84 445.25 1152.4 C439.7 1150.01 433.99 1149.21 428.01 1148.54 C427.31 1148.46 426.61 1148.38 425.88 1148.3 C424.49 1148.14 423.1 1148 421.71 1147.87 C417.21 1147.39 413.8 1146.48 410 1144 C409.37 1142.99 408.74 1141.98 408.09 1140.95 C405.32 1137.04 403.24 1136.82 398.62 1135.88 C391.78 1134.43 387.05 1132.65 382.69 1127 C380.07 1123.61 376.99 1122.56 373.09 1121 C370.15 1119.6 368.69 1117.74 367 1115 C366.67 1114.01 366.34 1113.02 366 1112 C363.64 1111.18 361.42 1110.56 359 1110 C357.62 1109.66 356.25 1109.31 354.88 1108.96 C352.96 1108.49 352.96 1108.49 351 1108 C346 1106.71 342.4 1105.6 338.69 1101.94 C329.77 1093.85 312.26 1096.54 301 1097 C293.74 1097.5 289.46 1099.12 283.65 1103.41 C280.21 1105.48 276.7 1106.64 272.88 1107.81 C272.21 1108.02 271.54 1108.23 270.85 1108.44 C266.57 1109.69 262.41 1110.47 258 1111 C257.94 1111.72 257.88 1112.44 257.81 1113.19 C256.69 1117.06 255.16 1118.5 252 1121 C250.45 1121.55 248.89 1122.05 247.31 1122.5 C244.98 1123.13 244.98 1123.13 243 1124 C241.68 1126.4 241.68 1126.4 241 1129 C236.42 1133.57 231.32 1134.5 225.24 1135.89 C219.64 1137.34 217.66 1139.4 214 1144 C207.55 1147.84 200.08 1148.23 192.75 1149.19 C191.47 1149.36 190.19 1149.54 188.88 1149.72 C179.54 1151 179.54 1151 176 1151 C175.67 1151.99 175.34 1152.98 175 1154 C161.44 1162.87 135.82 1160.94 120.05 1158.55 C115.18 1157.48 110.62 1155.88 106 1154 C104.6 1153.46 103.21 1152.93 101.81 1152.4 C100.86 1152.04 100.86 1152.04 99.89 1151.67 C93.07 1149.27 85.92 1148.53 78.76 1147.87 C74.24 1147.39 70.81 1146.5 67 1144 C66.37 1142.99 65.73 1141.98 65.08 1140.95 C62.33 1137.05 60.29 1136.83 55.69 1135.88 C50.16 1134.6 45.58 1133.46 41 1130 C40.07 1128.51 40.07 1128.51 39.12 1127 C36.53 1123.33 34.24 1122.48 30.12 1120.96 C27.75 1119.89 26.58 1119.07 25 1117 C23.81 1113.81 23.81 1113.81 23 1111 C22.02 1110.82 21.04 1110.64 20.04 1110.45 C0.6 1106.76 0.6 1106.76 -4.31 1101.94 C-13.23 1093.85 -30.74 1096.54 -42 1097 C-49.26 1097.5 -53.54 1099.12 -59.35 1103.41 C-62.79 1105.48 -66.3 1106.64 -70.12 1107.81 C-70.79 1108.02 -71.46 1108.23 -72.15 1108.44 C-76.43 1109.69 -80.59 1110.47 -85 1111 C-85.06 1111.72 -85.12 1112.44 -85.19 1113.19 C-86.3 1117.05 -87.88 1118.47 -91 1121 C-92.51 1121.68 -94.03 1122.33 -95.56 1122.94 C-99.02 1124.34 -99.84 1124.76 -102 1128 C-105.83 1133.74 -112.31 1134.87 -118.75 1136.38 C-122.4 1137.3 -124.48 1137.96 -126.75 1141 C-130.86 1146.48 -136.22 1147.15 -142.7 1148.17 C-145.22 1148.52 -147.73 1148.86 -150.25 1149.19 C-152.17 1149.45 -152.17 1149.45 -154.12 1149.72 C-163.46 1151 -163.46 1151 -167 1151 C-167 1151.66 -167 1152.32 -167 1153 C-180.65 1163.01 -206.29 1160.68 -222.72 1158.67 C-226.98 1157.88 -230.98 1156.6 -235 1155 C-236.38 1154.46 -236.38 1154.46 -237.79 1153.91 C-239.45 1153.25 -241.11 1152.57 -242.77 1151.88 C-247.77 1149.92 -252.81 1149.1 -258.13 1148.58 C-258.88 1148.5 -259.63 1148.43 -260.4 1148.35 C-261.89 1148.2 -263.39 1148.07 -264.89 1147.96 C-269.9 1147.48 -273 1146.28 -277 1143 C-277.62 1142.15 -278.24 1141.29 -278.88 1140.41 C-281.72 1137.18 -284.85 1136.46 -288.88 1135.44 C-294.26 1134.02 -298.56 1132.56 -303 1129 C-303.33 1128.32 -303.66 1127.63 -304 1126.93 C-305.91 1123.24 -310.49 1122.31 -314.15 1120.76 C-317.62 1118.62 -318.56 1116.76 -320 1113 C-320 1112.34 -320 1111.68 -320 1111 C-320.98 1110.82 -321.96 1110.64 -322.96 1110.45 C-340.95 1107.03 -340.95 1107.03 -347 1103 C-347 1102.34 -347 1101.68 -347 1101 C-348.35 1100.51 -349.71 1100.04 -351.06 1099.56 C-351.82 1099.3 -352.57 1099.03 -353.35 1098.75 C-365.31 1095.35 -384.23 1094.61 -396 1099 C-398.2 1100.37 -400.26 1101.87 -402.35 1103.41 C-405.79 1105.48 -409.3 1106.64 -413.12 1107.81 C-414.13 1108.12 -414.13 1108.12 -415.15 1108.44 C-419.43 1109.69 -423.59 1110.47 -428 1111 C-428.06 1111.72 -428.12 1112.44 -428.19 1113.19 C-429.3 1117.05 -430.88 1118.47 -434 1121 C-435.51 1121.68 -437.03 1122.33 -438.56 1122.94 C-442.02 1124.34 -442.84 1124.76 -445 1128 C-448.94 1133.91 -455.61 1134.96 -462.25 1136.38 C-467.84 1137.66 -469.38 1139.56 -473 1144 C-480.35 1147.71 -488.7 1148.8 -496.77 1149.96 C-502.25 1150.77 -506.44 1152.02 -511.19 1155 C-518.94 1159.49 -529.86 1160.61 -538.48 1158.35 C-544.08 1156.16 -547.83 1153.09 -551 1148 C-554.07 1140.7 -554.44 1133.6 -554.4 1125.78 C-554.4 1124.64 -554.4 1123.5 -554.41 1122.33 C-554.41 1119.94 -554.4 1117.54 -554.39 1115.15 C-554.38 1111.51 -554.39 1107.87 -554.41 1104.23 C-554.41 1101.89 -554.4 1099.56 -554.4 1097.22 C-554.4 1096.14 -554.41 1095.07 -554.42 1093.96 C-554.33 1084.89 -553.25 1076.22 -546.7 1069.46 C-538.56 1062.46 -527.77 1062.33 -517.46 1061.72 C-509.63 1061.47 -509.63 1061.47 -502.84 1058.2 C-501.35 1056.1 -501.35 1056.1 -500.2 1053.89 C-498.77 1051.63 -497.73 1051.15 -495.25 1050.25 C-491.98 1049.34 -491.98 1049.34 -490.71 1047.15 C-489.66 1044.73 -489.66 1044.73 -491.38 1041.31 C-493.18 1037.97 -495.36 1035.47 -498 1032.75 C-502.09 1028.41 -503.4 1024.31 -505.01 1018.65 C-506.4 1014.94 -508.94 1013.42 -512 1011 C-514.74 1006.02 -516.09 1000.68 -517.38 995.19 C-518.7 990.01 -520.76 988.29 -525 985 C-529.29 978.87 -530 971.13 -531.36 963.95 C-532.48 958.46 -533.99 954.59 -537.53 950.16 C-543.03 942.06 -542.81 930.72 -543.56 921.25 C-543.73 919.18 -543.9 917.12 -544.08 915.05 C-544.24 913.19 -544.39 911.33 -544.55 909.47 C-545.28 903.88 -546.73 899.15 -549.54 894.29 C-552.41 888.69 -553 883.66 -553.31 877.44 C-553.41 875.75 -553.41 875.75 -553.52 874.04 C-553.72 870.03 -553.87 866.01 -554 862 C-554.03 861.17 -554.06 860.35 -554.08 859.5 C-554.26 854 -554.39 848.51 -554.46 843.02 C-554.49 841.18 -554.52 839.35 -554.57 837.51 C-554.63 834.91 -554.65 832.31 -554.66 829.7 C-554.68 828.93 -554.71 828.15 -554.73 827.35 C-554.69 822.3 -553.57 819.07 -549.96 815.45 C-540.52 808.45 -525.75 810.54 -514.63 810.52 C-512.46 810.51 -510.29 810.49 -508.11 810.48 C-502.43 810.43 -496.74 810.41 -491.05 810.39 C-481.92 810.35 -472.79 810.29 -463.67 810.23 C-460.48 810.21 -457.3 810.2 -454.11 810.19 C-452.17 810.18 -450.22 810.17 -448.28 810.16 C-447.39 810.16 -446.51 810.16 -445.59 810.15 C-444.78 810.15 -443.97 810.14 -443.13 810.14 C-442.07 810.13 -442.07 810.13 -440.99 810.13 C-438.89 809.99 -437.03 809.53 -435 809 C-435.06 770.03 -435.13 731.05 -435.23 692.08 C-435.24 687.48 -435.25 682.88 -435.26 678.27 C-435.27 676.9 -435.27 676.9 -435.27 675.5 C-435.3 660.67 -435.33 645.84 -435.35 631 C-435.37 615.78 -435.41 600.56 -435.45 585.35 C-435.48 575.95 -435.49 566.56 -435.5 557.17 C-435.5 550.73 -435.52 544.29 -435.55 537.85 C-435.56 534.14 -435.57 530.42 -435.57 526.71 C-435.56 522.68 -435.58 518.65 -435.6 514.62 C-435.6 513.45 -435.59 512.27 -435.59 511.07 C-435.64 504.66 -436.32 499.84 -439 494 C-439.59 494.84 -439.59 494.84 -440.19 495.69 C-443.1 499.41 -445.66 502.43 -450.06 504.31 C-453.27 506.16 -453.48 506.64 -454.81 509.88 C-456.4 513.57 -457.89 514.77 -461.5 516.5 C-465.98 518.65 -467.13 520.64 -468.97 525.13 C-470.83 528.51 -473.54 529.49 -477 531 C-477.99 531 -478.98 531 -480 531 C-480.06 531.89 -480.12 532.77 -480.19 533.69 C-481.36 538.46 -484.01 540.77 -488.12 543.31 C-490 544 -490 544 -493 544 C-493.1 544.72 -493.21 545.44 -493.31 546.19 C-494.12 549.5 -494.85 551.31 -497 554 C-499.24 555.32 -501.54 556.49 -503.86 557.68 C-506.83 559.51 -508.12 562.11 -510 565 C-514.09 567.57 -517 568.3 -521.69 567.5 C-525.83 566.36 -527.82 564.81 -530 561 C-530.75 558.69 -530.75 558.69 -531 557 C-532.05 556.79 -533.1 556.59 -534.19 556.38 C-538.54 555.13 -540.45 552.72 -543 549 C-543.29 548.11 -543.58 547.23 -543.88 546.31 C-545.59 542.79 -548.46 542.41 -552 541 C-554.89 538.74 -555.85 537.59 -556.75 534 C-558.4 530.05 -560.25 529.64 -564.03 528 C-567.92 526.03 -569.66 523.01 -571 519 C-571.3 516.57 -571.55 514.13 -571.75 511.69 C-571.87 510.39 -571.99 509.1 -572.11 507.76 C-571.97 503 -570.69 499.94 -567.57 496.36 C-564.44 493.82 -562.04 492.36 -558 492 C-557.98 491.13 -557.96 490.27 -557.94 489.38 C-556.64 484.7 -554.02 482.58 -550 480 C-547.06 479.12 -547.06 479.12 -545 479 C-544.94 478.3 -544.88 477.6 -544.81 476.88 C-543.54 472.37 -540.8 469.16 -536.88 466.62 C-535 466 -535 466 -532 466 C-531.96 465.32 -531.92 464.64 -531.88 463.94 C-530.62 459.74 -528.33 456.84 -525 454 C-521.62 453.06 -521.62 453.06 -519 453 C-518.72 451.45 -518.72 451.45 -518.44 449.88 C-517.11 445.15 -513.95 442.69 -510 440 C-509.29 439.67 -508.59 439.35 -507.86 439.01 C-505.7 438.07 -505.7 438.07 -504.62 435.19 C-502.56 431.14 -500.71 429.6 -497 427 C-494.13 426.19 -494.13 426.19 -492 426 C-491.98 425.13 -491.96 424.27 -491.94 423.38 C-490.64 418.7 -488.02 416.58 -484 414 C-481.06 413.12 -481.06 413.12 -479 413 C-478.94 412.3 -478.88 411.6 -478.81 410.88 C-477.54 406.37 -474.8 403.16 -470.88 400.62 C-469 400 -469 400 -466 400 C-465.96 399.32 -465.92 398.64 -465.88 397.94 C-464.62 393.74 -462.33 390.84 -459 388 C-455.62 387.06 -455.62 387.06 -453 387 C-452.72 385.45 -452.72 385.45 -452.44 383.88 C-451.11 379.15 -447.95 376.69 -444 374 C-443.29 373.67 -442.59 373.35 -441.86 373.01 C-439.7 372.07 -439.7 372.07 -438.62 369.19 C-436.56 365.14 -434.71 363.6 -431 361 C-428.12 360.19 -428.12 360.19 -426 360 C-425.97 358.7 -425.97 358.7 -425.94 357.38 C-424.64 352.7 -422.02 350.58 -418 348 C-415.06 347.12 -415.06 347.12 -413 347 C-412.94 346.3 -412.88 345.6 -412.81 344.88 C-411.54 340.37 -408.8 337.16 -404.88 334.62 C-403 334 -403 334 -400 334 C-399.94 333.3 -399.88 332.6 -399.81 331.88 C-398.54 327.37 -395.8 324.16 -391.88 321.62 C-390 321 -390 321 -387 321 C-386.81 319.97 -386.63 318.94 -386.44 317.88 C-385.11 313.15 -381.95 310.69 -378 308 C-377.29 307.67 -376.59 307.35 -375.86 307.01 C-373.7 306.07 -373.7 306.07 -372.62 303.19 C-370.56 299.14 -368.71 297.6 -365 295 C-362.13 294.19 -362.13 294.19 -360 294 C-359.97 292.7 -359.97 292.7 -359.94 291.38 C-358.64 286.7 -356.02 284.58 -352 282 C-349.06 281.12 -349.06 281.12 -347 281 C-346.94 280.3 -346.88 279.6 -346.81 278.88 C-345.54 274.37 -342.8 271.16 -338.88 268.62 C-337 268 -337 268 -334 268 C-333.94 267.3 -333.88 266.6 -333.81 265.88 C-332.54 261.37 -329.8 258.16 -325.88 255.62 C-324 255 -324 255 -321 255 C-320.66 253.42 -320.66 253.42 -320.31 251.81 C-319.15 247.79 -317.35 245.59 -314 243 C-310.69 242.19 -310.69 242.19 -308 242 C-307.81 240.97 -307.63 239.94 -307.44 238.88 C-306.1 234.17 -303.05 231.57 -299 229 C-296.06 228.12 -296.06 228.12 -294 228 C-293.91 226.95 -293.91 226.95 -293.81 225.88 C-292.75 222.13 -290.96 219.48 -288 217 C-285.64 215.97 -283.55 215.5 -281 215 C-280.91 213.95 -280.91 213.95 -280.81 212.88 C-279.54 208.37 -276.8 205.16 -272.88 202.62 C-271 202 -271 202 -268 202 C-267.91 200.95 -267.91 200.95 -267.81 199.88 C-266.54 195.37 -263.8 192.16 -259.88 189.62 C-258 189 -258 189 -255 189 C-254.69 187.42 -254.69 187.42 -254.38 185.81 C-253.08 181.28 -250.88 179.59 -247 177 C-244.12 176.19 -244.12 176.19 -242 176 C-241.81 174.97 -241.63 173.94 -241.44 172.88 C-240.1 168.17 -237.05 165.57 -233 163 C-230.06 162.12 -230.06 162.12 -228 162 C-227.91 160.95 -227.91 160.95 -227.81 159.88 C-226.75 156.13 -224.96 153.48 -222 151 C-219.64 149.97 -217.55 149.5 -215 149 C-214.91 147.95 -214.91 147.95 -214.81 146.88 C-213.75 143.13 -211.96 140.48 -209 138 C-206.64 136.97 -204.55 136.5 -202 136 C-201.91 134.95 -201.91 134.95 -201.81 133.88 C-200.54 129.37 -197.8 126.16 -193.88 123.62 C-192 123 -192 123 -189 123 C-188.79 121.95 -188.59 120.9 -188.38 119.81 C-187.08 115.28 -184.88 113.59 -181 111 C-178.12 110.19 -178.12 110.19 -176 110 C-175.79 108.95 -175.59 107.9 -175.38 106.81 C-174.13 102.46 -171.72 100.55 -168 98 C-167.13 97.73 -166.27 97.46 -165.38 97.19 C-162.06 95.53 -161.51 93.26 -160.03 89.97 C-158.54 87.12 -156.73 85.66 -154 84 C-151.19 83.25 -151.19 83.25 -149 83 C-148.94 82.3 -148.88 81.6 -148.81 80.88 C-147.75 77.13 -145.96 74.48 -143 72 C-140.64 70.97 -138.55 70.5 -136 70 C-135.94 69.3 -135.88 68.6 -135.81 67.88 C-134.54 63.37 -131.8 60.16 -127.88 57.62 C-126 57 -126 57 -123 57 C-122.69 55.42 -122.69 55.42 -122.38 53.81 C-121.08 49.28 -118.88 47.59 -115 45 C-112.12 44.19 -112.12 44.19 -110 44 C-109.69 42.42 -109.69 42.42 -109.38 40.81 C-108.13 36.46 -105.72 34.55 -102 32 C-101.13 31.73 -100.27 31.46 -99.38 31.19 C-96.08 29.54 -95.39 27.29 -93.99 23.97 C-92.9 21.81 -91.87 20.53 -90 19 C-87.69 18.26 -85.36 17.58 -83 17 C-82.92 16.26 -82.84 15.52 -82.75 14.75 C-81.83 11.37 -80.65 10.26 -78 8 C-75.48 6.98 -75.48 6.98 -72.75 6.19 C-68.63 4.82 -65.99 3.4 -62.88 0.38 C-58.82 -3.46 -55.47 -4.4 -50 -5 C-49.17 -5.11 -48.35 -5.22 -47.5 -5.33 C-32.29 -6.97 -13.28 -8.87 0 0 Z M-41.21 94.02 C-44.78 96.55 -45.99 98.99 -47.73 102.91 C-49.71 106.16 -52.59 107.1 -55.94 108.69 C-58.93 110.59 -59.56 112.9 -60.84 116.09 C-62.73 119.2 -65.72 120.12 -68.91 121.66 C-71.36 123.23 -71.93 124.34 -73 127 C-74.85 131.58 -77.6 132.59 -81.91 134.66 C-84.36 136.23 -84.93 137.34 -86 140 C-87.85 144.58 -90.6 145.59 -94.91 147.66 C-97.36 149.23 -97.93 150.34 -99 153 C-100.48 156.67 -101.88 157.75 -105.44 159.44 C-109.24 161.26 -110.7 162.68 -112.5 166.5 C-114.75 171.25 -117.31 172.49 -121.94 174.69 C-124.93 176.59 -125.56 178.9 -126.84 182.09 C-128.73 185.2 -131.72 186.12 -134.91 187.66 C-137.36 189.23 -137.93 190.34 -139 193 C-140.85 197.58 -143.6 198.59 -147.91 200.66 C-150.36 202.23 -150.93 203.34 -152 206 C-153.85 210.58 -156.6 211.59 -160.91 213.66 C-163.36 215.23 -163.93 216.34 -165 219 C-166.48 222.67 -167.88 223.75 -171.44 225.44 C-175.24 227.26 -176.7 228.68 -178.5 232.5 C-180.75 237.25 -183.31 238.49 -187.94 240.69 C-190.93 242.59 -191.56 244.9 -192.84 248.09 C-194.73 251.2 -197.72 252.12 -200.91 253.66 C-203.36 255.23 -203.93 256.34 -205 259 C-206.85 263.58 -209.6 264.59 -213.91 266.66 C-216.36 268.23 -216.93 269.34 -218 272 C-219.85 276.58 -222.6 277.59 -226.91 279.66 C-229.36 281.23 -229.93 282.34 -231 285 C-232.48 288.67 -233.88 289.75 -237.44 291.44 C-241.24 293.26 -242.7 294.68 -244.5 298.5 C-246.75 303.25 -249.31 304.49 -253.94 306.69 C-256.93 308.59 -257.56 310.9 -258.84 314.09 C-260.73 317.2 -263.7 318.12 -266.89 319.65 C-269.94 321.6 -270.76 323.94 -272.11 327.2 C-273.46 329.92 -275.27 330.84 -278 332 C-278.68 332.1 -279.35 332.2 -280.05 332.3 C-282.18 332.81 -282.18 332.81 -282.95 334.89 C-283.19 335.67 -283.44 336.45 -283.69 337.25 C-285.68 342.29 -288.15 343.46 -292.91 345.69 C-295.38 347.24 -295.93 348.33 -297 351 C-298.48 354.67 -299.88 355.75 -303.44 357.44 C-307.24 359.26 -308.7 360.68 -310.5 364.5 C-312.75 369.25 -315.31 370.49 -319.94 372.69 C-322.94 374.59 -323.56 376.91 -324.84 380.11 C-326.36 382.58 -327.87 383.14 -330.5 384.31 C-334.28 386.19 -335.76 387.65 -337.25 391.61 C-339.77 399.28 -339.54 406.96 -339.48 414.93 C-339.48 416.63 -339.49 418.34 -339.49 420.04 C-339.5 424.7 -339.48 429.36 -339.46 434.02 C-339.45 439.06 -339.45 444.09 -339.46 449.13 C-339.46 457.85 -339.45 466.56 -339.42 475.28 C-339.39 487.88 -339.38 500.48 -339.37 513.08 C-339.37 533.53 -339.34 553.98 -339.3 574.43 C-339.27 594.29 -339.24 614.15 -339.22 634.01 C-339.22 635.23 -339.22 636.46 -339.22 637.72 C-339.21 643.86 -339.21 650.01 -339.2 656.15 C-339.16 707.1 -339.09 758.05 -339 809 C-335.61 810.82 -333.33 811.25 -329.46 811.25 C-327.77 811.26 -327.77 811.26 -326.04 811.27 C-324.81 811.27 -323.58 811.26 -322.31 811.26 C-321.01 811.26 -319.71 811.27 -318.37 811.27 C-314.8 811.28 -311.23 811.27 -307.67 811.27 C-303.94 811.26 -300.2 811.27 -296.47 811.27 C-290.2 811.28 -283.93 811.27 -277.67 811.26 C-270.42 811.25 -263.18 811.25 -255.93 811.26 C-249.71 811.27 -243.49 811.27 -237.26 811.27 C-233.55 811.27 -229.83 811.27 -226.12 811.27 C-221.98 811.28 -217.83 811.27 -213.69 811.26 C-212.46 811.26 -211.23 811.27 -209.96 811.27 C-208.83 811.27 -207.7 811.26 -206.54 811.25 C-205.56 811.25 -204.58 811.25 -203.57 811.25 C-200.92 810.99 -199.28 810.35 -197 809 C-197 807.75 -197 807.75 -196.99 806.48 C-196.93 786.24 -196.86 766 -196.76 745.76 C-196.72 735.97 -196.68 726.18 -196.65 716.4 C-196.63 707.86 -196.6 699.33 -196.55 690.79 C-196.53 686.28 -196.51 681.76 -196.5 677.24 C-196.5 672.99 -196.48 668.73 -196.45 664.47 C-196.44 662.92 -196.43 661.36 -196.43 659.8 C-196.44 648.18 -196.02 638.84 -188 630 C-186.35 626.44 -185.46 622.89 -184.62 619.06 C-182.53 610.62 -177.97 605.71 -172.12 599.46 C-169.94 597.12 -169.94 597.12 -168.68 594.44 C-166.37 591.08 -163.33 589.77 -159.75 588.06 C-153.62 585.03 -153.62 585.03 -148.38 580.69 C-139.64 572.58 -123.16 574.58 -112.12 574.63 C-110.15 574.63 -108.17 574.62 -106.19 574.62 C-100.86 574.61 -95.52 574.62 -90.19 574.63 C-84.59 574.64 -78.99 574.64 -73.39 574.64 C-64 574.63 -54.6 574.65 -45.21 574.66 C-34.36 574.69 -23.51 574.69 -12.67 574.68 C-2.21 574.68 8.25 574.68 18.71 574.69 C23.15 574.7 27.59 574.7 32.04 574.7 C37.27 574.69 42.5 574.7 47.73 574.72 C49.64 574.72 51.56 574.72 53.47 574.72 C56.09 574.72 58.71 574.73 61.34 574.74 C62.09 574.74 62.84 574.73 63.61 574.73 C71.17 574.79 78.45 575.45 84 581 C84.39 581.65 84.77 582.3 85.17 582.98 C87.74 585.82 90.79 586.5 94.38 587.5 C100.57 589.25 105.18 591.15 108.75 596.75 C110.86 599.8 112.66 601.45 115.5 603.75 C122.52 609.86 123.8 616.64 125.38 625.56 C126.43 631.37 127.86 635.31 131.6 639.88 C134.81 644.75 135.25 650.21 135.28 655.92 C135.28 656.58 135.29 657.23 135.3 657.91 C135.31 660.1 135.32 662.29 135.32 664.48 C135.33 666.06 135.34 667.64 135.35 669.21 C135.38 673.48 135.39 677.75 135.4 682.02 C135.42 686.48 135.45 690.95 135.47 695.42 C135.52 703.87 135.56 712.32 135.59 720.77 C135.63 730.39 135.68 740.01 135.73 749.63 C135.83 769.42 135.92 789.21 136 809 C139.29 810.96 141.74 811.25 145.54 811.25 C147.23 811.26 147.23 811.26 148.96 811.27 C150.81 811.26 150.81 811.26 152.69 811.26 C153.99 811.26 155.29 811.27 156.63 811.27 C160.2 811.28 163.77 811.27 167.33 811.27 C171.06 811.26 174.8 811.27 178.53 811.27 C184.8 811.28 191.07 811.27 197.33 811.26 C204.58 811.25 211.82 811.25 219.07 811.26 C225.29 811.27 231.51 811.27 237.74 811.27 C241.45 811.27 245.17 811.27 248.88 811.27 C253.02 811.28 257.17 811.27 261.31 811.26 C262.54 811.26 263.77 811.27 265.04 811.27 C266.17 811.27 267.3 811.26 268.46 811.25 C269.44 811.25 270.42 811.25 271.43 811.25 C274.11 810.99 275.65 810.26 278 809 C278.11 756.99 278.2 704.98 278.26 652.97 C278.26 646.83 278.27 640.69 278.27 634.54 C278.28 632.71 278.28 632.71 278.28 630.84 C278.3 611.05 278.34 591.25 278.39 571.46 C278.43 551.15 278.46 530.84 278.47 510.53 C278.48 498 278.5 485.46 278.54 472.93 C278.57 464.34 278.57 455.74 278.57 447.15 C278.56 442.19 278.57 437.23 278.6 432.27 C278.62 427.73 278.62 423.18 278.6 418.64 C278.6 417 278.61 415.36 278.62 413.72 C278.71 403.92 278.15 394.69 273 386 C270.96 384.5 269.24 383.67 266.87 382.82 C263.73 381.44 262.55 378.92 261 376 C260.67 375.01 260.34 374.02 260 373 C258.24 371.87 258.24 371.87 256.12 371 C253.18 369.7 251.07 368.5 249 366 C248.77 365.03 248.55 364.06 248.31 363.06 C246.6 359.07 244.79 358.67 240.96 356.99 C237.24 355.11 235.5 351.96 233.62 348.38 C231.54 345.33 229.28 344.61 226 343 C223.65 340.52 222.21 338.73 221.25 335.44 C219.53 332.09 217.31 331.59 213.97 330.1 C210 327.88 208.39 324.16 207 320 C205.26 318.98 205.26 318.98 203.19 318.19 C199.04 316.25 197.18 314.1 195 310 C194.67 309.01 194.34 308.02 194 307 C192.24 305.87 192.24 305.87 190.12 305 C187.18 303.7 185.07 302.5 183 300 C182.77 299.03 182.55 298.06 182.31 297.06 C180.6 293.07 178.79 292.67 174.96 290.99 C171.24 289.11 169.5 285.96 167.62 282.38 C165.54 279.33 163.28 278.61 160 277 C157.63 274.5 156.21 272.67 155.19 269.38 C153.42 265.83 150.57 265.48 147 264 C144.59 261.52 143.22 259.76 142.25 256.44 C140.53 253.09 138.31 252.59 134.97 251.1 C131 248.88 129.39 245.16 128 241 C126.24 239.87 126.24 239.87 124.12 239 C121.18 237.7 119.07 236.5 117 234 C116.66 232.55 116.66 232.55 116.31 231.06 C114.6 227.07 112.79 226.67 108.96 224.99 C105.24 223.11 103.5 219.96 101.62 216.38 C99.54 213.33 97.28 212.61 94 211 C91.63 208.5 90.21 206.67 89.19 203.38 C87.42 199.83 84.57 199.48 81 198 C78.59 195.52 77.22 193.76 76.25 190.44 C74.53 187.09 72.31 186.59 68.97 185.1 C65 182.88 63.39 179.16 62 175 C60.24 173.87 60.24 173.87 58.12 173 C55.18 171.7 53.07 170.5 51 168 C50.77 167.03 50.55 166.06 50.31 165.06 C48.6 161.07 46.79 160.67 42.96 158.99 C39.24 157.11 37.5 153.96 35.62 150.38 C33.54 147.33 31.28 146.61 28 145 C25.76 142.57 24.16 140.3 22.62 137.38 C20.54 134.33 18.28 133.61 15 132 C12.63 129.5 11.21 127.67 10.19 124.38 C8.42 120.83 5.57 120.48 2 119 C-0.41 116.52 -1.78 114.76 -2.75 111.44 C-4.46 108.11 -6.66 107.41 -10.03 105.99 C-12.18 104.91 -13.48 103.86 -15 102 C-15.19 101.03 -15.37 100.06 -15.56 99.06 C-17.29 95.39 -18.15 95.2 -21.81 93.75 C-23.54 93.15 -25.27 92.57 -27 92 C-27.81 91.59 -28.62 91.17 -29.45 90.75 C-34 89.42 -37.22 91.9 -41.21 94.02 Z M-102 663 C-102.45 665.64 -102.45 665.64 -102.36 668.78 C-102.36 670.01 -102.37 671.25 -102.37 672.51 C-102.36 673.89 -102.35 675.26 -102.34 676.63 C-102.34 678.07 -102.34 679.51 -102.34 680.95 C-102.34 684.86 -102.33 688.77 -102.3 692.68 C-102.29 696.77 -102.28 700.86 -102.28 704.94 C-102.27 712.69 -102.25 720.43 -102.22 728.17 C-102.18 736.98 -102.17 745.79 -102.15 754.61 C-102.12 772.74 -102.07 790.87 -102 809 C-98.71 810.96 -96.26 811.25 -92.46 811.25 C-91.33 811.26 -90.2 811.27 -89.04 811.27 C-87.81 811.27 -86.58 811.26 -85.31 811.26 C-84.01 811.26 -82.71 811.27 -81.37 811.27 C-77.8 811.28 -74.23 811.27 -70.67 811.27 C-66.94 811.26 -63.2 811.27 -59.47 811.27 C-53.2 811.28 -46.93 811.27 -40.67 811.26 C-33.42 811.25 -26.18 811.25 -18.93 811.26 C-12.71 811.27 -6.49 811.27 -0.26 811.27 C3.45 811.27 7.17 811.27 10.88 811.27 C15.02 811.28 19.17 811.27 23.31 811.26 C24.54 811.26 25.77 811.27 27.04 811.27 C28.17 811.27 29.3 811.26 30.46 811.25 C31.44 811.25 32.42 811.25 33.43 811.25 C36.08 810.99 37.72 810.35 40 809 C40.07 790 40.12 771 40.16 752 C40.17 743.17 40.19 734.35 40.23 725.53 C40.26 717.84 40.28 710.15 40.28 702.47 C40.29 698.39 40.3 694.32 40.32 690.25 C40.34 686.42 40.34 682.59 40.34 678.76 C40.34 677.35 40.35 675.94 40.36 674.54 C40.37 672.62 40.37 670.7 40.36 668.78 C40.36 667.71 40.37 666.63 40.37 665.53 C40.25 664.69 40.13 663.86 40 663 C36.61 660.74 35.47 660.75 31.5 660.75 C30.35 660.74 29.21 660.73 28.03 660.73 C26.77 660.73 25.52 660.74 24.22 660.74 C22.89 660.74 21.55 660.73 20.22 660.73 C16.59 660.72 12.96 660.73 9.33 660.73 C5.54 660.74 1.74 660.73 -2.05 660.73 C-8.42 660.72 -14.79 660.73 -21.17 660.74 C-28.54 660.75 -35.91 660.75 -43.28 660.74 C-49.6 660.73 -55.93 660.73 -62.25 660.73 C-66.03 660.73 -69.81 660.73 -73.59 660.73 C-77.14 660.72 -80.69 660.73 -84.24 660.74 C-86.17 660.74 -88.1 660.74 -90.03 660.73 C-91.17 660.73 -92.32 660.74 -93.5 660.75 C-94.99 660.75 -94.99 660.75 -96.52 660.75 C-99.25 660.83 -99.25 660.83 -102 663 Z M-456 900 C-456.14 903.39 -456.14 903.39 -455.81 907.25 C-455.74 908.55 -455.66 909.86 -455.58 911.2 C-454.85 915.98 -453.55 919.54 -450 922.88 C-444.32 928.91 -443.91 938.54 -442.89 946.4 C-441.92 952.41 -440.59 954.91 -435.7 958.5 C-432.67 961.18 -431.76 964.75 -430.5 968.5 C-428.02 975.21 -425.93 978.78 -420 983 C-418.13 986.15 -416.93 989.18 -415.69 992.62 C-413.68 996.64 -411.69 997.56 -408 1000 C-406.54 1002.03 -405.3 1004.11 -404.08 1006.29 C-403.1 1008.16 -403.1 1008.16 -401 1009 C-399.22 1009.11 -397.44 1009.17 -395.66 1009.19 C-394.54 1009.21 -393.42 1009.22 -392.26 1009.24 C-390.44 1009.26 -390.44 1009.26 -388.57 1009.28 C-386.69 1009.31 -386.69 1009.31 -384.78 1009.34 C-380.75 1009.4 -376.72 1009.45 -372.69 1009.5 C-368.7 1009.55 -364.71 1009.6 -360.72 1009.66 C-358.23 1009.7 -355.75 1009.73 -353.26 1009.76 C-324.87 1010.17 -324.87 1010.17 -313.89 1017.82 C-308.74 1021.05 -302.85 1022.05 -296.97 1023.24 C-290.95 1024.61 -287.08 1027.08 -283.42 1032.22 C-281.57 1034.54 -280.17 1034.79 -277.31 1035.44 C-269.96 1037.43 -265.18 1040.33 -260.61 1046.46 C-257.6 1049.33 -253.63 1050.71 -249.84 1052.31 C-247 1054 -247 1054 -245.13 1057.07 C-242.71 1060.39 -241.2 1060.9 -237.22 1061.54 C-236.48 1061.63 -235.75 1061.72 -235 1061.81 C-234.23 1061.92 -233.47 1062.04 -232.68 1062.15 C-230.45 1062.46 -228.23 1062.74 -226 1063 C-225.02 1063.13 -224.04 1063.26 -223.02 1063.4 C-207.25 1065.12 -191.13 1064.26 -175.38 1062.88 C-174.12 1062.78 -172.87 1062.69 -171.58 1062.59 C-164.33 1062.07 -164.33 1062.07 -158.66 1058.01 C-156.84 1055.28 -156.84 1055.28 -157 1053 C-156.32 1052.75 -155.64 1052.51 -154.94 1052.25 C-148.97 1049.71 -145.44 1047.63 -141.5 1042.52 C-137.22 1038.18 -130.86 1036.19 -125.12 1034.56 C-120.65 1033.19 -119.47 1030.96 -117 1027 C-111.08 1023.94 -105.03 1022.86 -98.5 1021.8 C-92.49 1020.64 -90.66 1018.81 -87 1014 C-84.49 1012.79 -84.49 1012.79 -81.88 1012.19 C-81.03 1011.97 -80.18 1011.76 -79.3 1011.54 C-69.69 1009.96 -60.07 1009.84 -50.34 1009.83 C-48.94 1009.83 -47.54 1009.83 -46.14 1009.82 C-43.23 1009.82 -40.31 1009.81 -37.39 1009.81 C-34.43 1009.81 -31.48 1009.81 -28.52 1009.79 C17.2 1009.59 17.2 1009.59 30 1018 C30.66 1018.66 31.32 1019.32 32 1020 C34.04 1020.7 34.04 1020.7 36.39 1021.22 C37.7 1021.53 37.7 1021.53 39.04 1021.86 C39.96 1022.07 40.87 1022.28 41.81 1022.5 C53.71 1025.3 53.71 1025.3 57 1027 C58.19 1029.5 58.19 1029.5 59 1032 C61.3 1034.3 62.53 1034.53 65.62 1035.31 C73.32 1037.53 78.05 1040.77 83 1047 C85.92 1048.82 88.84 1050.41 91.9 1051.96 C96.78 1054.54 96.78 1054.54 98.21 1057.52 C100.39 1060.54 102.1 1060.86 105.7 1061.46 C106.81 1061.6 106.81 1061.6 107.94 1061.75 C108.71 1061.87 109.48 1061.98 110.27 1062.1 C112.51 1062.43 114.75 1062.72 117 1063 C117.98 1063.13 118.97 1063.27 119.98 1063.4 C135.85 1065.11 151.92 1064.22 167.75 1062.62 C169.02 1062.5 170.29 1062.37 171.59 1062.24 C178.16 1061.71 178.16 1061.71 184 1059 C184.71 1057.79 184.71 1057.79 185.44 1056.56 C187.92 1052.49 191.38 1050.73 195.56 1048.62 C199.12 1046.73 199.12 1046.73 201.44 1043.5 C204.8 1038.12 212.01 1036.22 217.88 1034.56 C221.35 1033.5 221.81 1033.3 223.88 1030.06 C228.35 1023.61 237.07 1022.95 244.38 1021.62 C250.47 1020.42 252.14 1018.87 256 1014 C267.45 1009.51 280.31 1009.86 292.4 1009.82 C293.76 1009.81 295.13 1009.8 296.5 1009.79 C302.25 1009.74 308 1009.69 313.76 1009.67 C317.3 1009.66 320.84 1009.63 324.37 1009.59 C326.37 1009.57 328.36 1009.58 330.35 1009.58 C332.16 1009.56 332.16 1009.56 334.01 1009.53 C335.08 1009.52 336.14 1009.52 337.23 1009.51 C340.7 1008.87 341.81 1007.71 344 1005 C344.64 1003.99 345.28 1002.98 345.94 1001.94 C348 999 348 999 350.5 997.75 C353.48 995.66 353.75 994.43 354.94 991.06 C356.64 986.31 358.34 984.28 363 982 C364.49 981.51 364.49 981.51 366 981 C366.83 979.27 366.83 979.27 367.28 977.14 C367.48 976.35 367.69 975.57 367.89 974.76 C368.09 973.93 368.29 973.1 368.5 972.25 C371.1 961.7 371.1 961.7 374 958 C375.25 957.35 375.25 957.35 376.52 956.69 C379.16 955.23 379.16 955.23 379.93 952.65 C380.08 951.73 380.22 950.82 380.37 949.88 C380.55 948.87 380.73 947.85 380.91 946.81 C381.17 945.2 381.17 945.2 381.44 943.56 C383.31 933.35 385.66 925.27 391.63 916.65 C393.36 913.3 393.58 910.56 393.81 906.81 C393.9 905.58 393.99 904.35 394.08 903.08 C394.35 899.89 394.35 899.89 392 898 C389.41 897.7 389.41 897.7 386.33 897.75 C385.11 897.74 383.9 897.74 382.64 897.73 C381.28 897.74 379.91 897.74 378.55 897.75 C377.1 897.75 375.66 897.74 374.21 897.74 C370.21 897.73 366.21 897.74 362.21 897.74 C357.87 897.75 353.53 897.74 349.19 897.74 C341.57 897.73 333.95 897.73 326.33 897.73 C315 897.74 303.67 897.74 292.34 897.73 C272.11 897.72 251.88 897.72 231.65 897.73 C213.95 897.73 196.25 897.73 178.54 897.73 C177.37 897.73 176.2 897.73 174.99 897.73 C170.23 897.73 165.47 897.73 160.71 897.73 C116.04 897.72 71.36 897.73 26.68 897.74 C-13.05 897.75 -52.78 897.75 -92.51 897.74 C-137.1 897.73 -181.7 897.72 -226.29 897.73 C-231.04 897.73 -235.79 897.73 -240.54 897.73 C-242.3 897.73 -242.3 897.73 -244.09 897.73 C-261.78 897.74 -279.48 897.73 -297.17 897.73 C-317.29 897.72 -337.4 897.72 -357.51 897.73 C-368.78 897.74 -380.05 897.74 -391.32 897.73 C-398.83 897.73 -406.34 897.73 -413.86 897.74 C-418.15 897.74 -422.44 897.75 -426.73 897.74 C-430.62 897.73 -434.52 897.74 -438.41 897.75 C-439.82 897.75 -441.23 897.75 -442.64 897.74 C-444.53 897.73 -446.43 897.74 -448.33 897.75 C-449.38 897.75 -450.44 897.75 -451.53 897.75 C-454.18 897.75 -454.18 897.75 -456 900 Z " fill="#000000" transform="translate(684,95)"/>
<path d="M0 0 C2.54 0.01 5.08 -0 7.63 -0.01 C15.74 -0.02 23.76 0.23 31.83 1.16 C32.52 1.24 33.21 1.32 33.92 1.4 C40.87 2.3 46.07 4.17 51.29 8.82 C55.01 11.72 58.15 12.42 62.66 13.53 C69.95 15.46 73.65 18.12 77.85 24.33 C79.54 26.42 81 27.37 83.35 28.64 C87.88 31.16 89.93 34.7 92.69 38.99 C94.42 41.27 95.4 42.04 97.97 43.14 C102.64 45.31 104.03 49.81 106.05 54.29 C108.04 58.63 110.19 62.05 113.46 65.51 C116.9 69.44 117.79 73.19 118.66 78.26 C118.96 79.8 119.25 81.34 119.55 82.89 C119.69 83.62 119.83 84.36 119.98 85.12 C121.13 90.82 122.6 94.74 126.41 99.26 C132.05 110.54 131.16 128.91 127.66 140.7 C126.52 143.94 125.26 146.5 123.39 149.4 C120.17 154.91 119.91 161.33 119.08 167.55 C117.65 177.02 115.06 184.29 107.41 190.26 C106.37 191.9 105.37 193.57 104.41 195.26 C102.17 199.18 100.22 201.72 96.41 204.26 C93.36 206.44 91.67 207.66 90.16 211.14 C87.96 215.07 85.39 216.48 81.62 218.82 C78.83 220.64 76.69 222.85 74.41 225.26 C69.22 229.91 63.9 231.88 57.29 233.57 C52.33 234.98 50.65 237.27 47.41 241.26 C38.42 245.81 27.91 245.43 18.09 245.46 C16.33 245.47 16.33 245.47 14.53 245.48 C12.04 245.49 9.56 245.5 7.08 245.5 C3.32 245.51 -0.44 245.54 -4.2 245.57 C-35.11 245.71 -35.11 245.71 -45.59 238.26 C-46.01 237.76 -46.44 237.27 -46.88 236.75 C-49.29 234.65 -51.7 234.2 -54.78 233.39 C-61.56 231.39 -67.54 229.48 -71.46 223.32 C-73.72 220.08 -75.13 219.23 -78.53 217.39 C-83.03 214.87 -84.94 212.66 -87.33 208.17 C-88.79 205.96 -90.15 205.12 -92.4 203.76 C-97.37 200.39 -99.3 195.52 -101.62 190.17 C-103.25 186.54 -104.72 183.93 -107.69 181.25 C-111 178.17 -111.98 174.86 -112.84 170.51 C-113 169.81 -113.16 169.1 -113.32 168.38 C-114.19 164.48 -114.87 160.57 -115.53 156.64 C-116.13 153.39 -116.89 151.53 -119.09 149.07 C-126.04 141.25 -125.24 127.41 -124.78 117.39 C-124.19 110.69 -122.71 103.03 -118.6 97.67 C-114.97 91.52 -114.66 84.25 -113.61 77.27 C-111.92 66.99 -108.86 61.53 -101.59 54.26 C-100.65 52.81 -99.74 51.35 -98.84 49.89 C-96.03 45.49 -92.76 42.91 -88.56 39.89 C-85.95 37.74 -84.95 35.32 -83.59 32.26 C-80.93 29.75 -78.39 28.16 -75.15 26.45 C-72.31 24.91 -70.75 23.35 -68.84 20.76 C-64.38 15.18 -57.42 13.9 -50.71 12.39 C-46.65 10.92 -45.25 8.6 -42.59 5.26 C-37.79 2.29 -33.47 1.58 -27.97 1.09 C-27.14 1.01 -26.32 0.93 -25.46 0.85 C-16.98 0.1 -8.51 -0.04 0 0 Z M-8.59 90.26 C-10.23 91.93 -11.57 93.67 -12.95 95.55 C-15.59 98.31 -18.84 99.19 -22.42 100.34 C-24.92 101.17 -24.92 101.17 -26.59 104.26 C-30.25 116.82 -30.54 133.36 -24.59 145.26 C-22.55 146.39 -22.55 146.39 -20.15 147.39 C-19.35 147.74 -18.55 148.09 -17.72 148.46 C-15.66 149.38 -15.66 149.38 -13.59 149.26 C-13.44 150.19 -13.3 151.12 -13.15 152.07 C-11.42 155.61 -11.04 155.87 -7.53 157.14 C-0.49 159.04 6.65 159.19 13.41 156.26 C14.92 154.6 16.24 152.84 17.6 151.05 C19.9 148.78 22.16 147.94 25.16 146.76 C29.67 145 29.67 145 32.04 140.76 C32.22 139.03 32.22 139.03 32.41 137.26 C32.66 136.18 32.66 136.18 32.92 135.08 C34.6 125.39 34.7 112.56 31.41 103.26 C29.35 100.69 28.07 100.11 24.91 98.76 C20.73 96.97 19.14 95.83 17.24 91.75 C15.58 89 15.58 89 12.41 88.23 C4.96 87.25 -1.84 86.43 -8.59 90.26 Z " fill="#000000" transform="translate(650.58935546875,351.7392578125)"/>
</svg>
