<?xml version="1.0" encoding="UTF-8"?>
<svg version="1.1" xmlns="http://www.w3.org/2000/svg" width="96" height="96">
<path d="M0 0 C1.48310457 0.89779909 2.94525803 1.831949 4.375 2.8125 C5.4475 3.493125 6.52 4.17375 7.625 4.875 C13.54036409 10.35093705 16.60382396 17.92836375 17.03881836 25.86254883 C17.12585921 33.48894282 15.72725946 39.46646804 11.375 45.8125 C10.3540625 47.42125 10.3540625 47.42125 9.3125 49.0625 C3.83656295 54.97786409 -3.74086375 58.04132396 -11.67504883 58.47631836 C-19.30144282 58.56335921 -25.27896804 57.16475946 -31.625 52.8125 C-32.6975 52.131875 -33.77 51.45125 -34.875 50.75 C-40.79036409 45.27406295 -43.85382396 37.69663625 -44.28881836 29.76245117 C-44.37585921 22.13605718 -42.97725946 16.15853196 -38.625 9.8125 C-37.944375 8.74 -37.26375 7.6675 -36.5625 6.5625 C-27.4785101 -3.25045205 -11.91575734 -5.63486115 0 0 Z M-31.625 11.8125 C-36.07162332 16.71518725 -37.16366188 22.35376635 -37.625 28.8125 C-37.20826743 36.53594357 -32.51777804 43.18881759 -26.9375 48.25 C-20.56696101 51.25497122 -13.46763826 52.90705055 -6.6015625 50.703125 C-0.25461018 47.84323344 5.34245282 44.24150002 8.375 37.8125 C10.69070066 29.91971921 11.03217058 23.74958854 7.109375 16.4609375 C3.64179749 10.85806225 0.36413334 6.98289089 -6.16796875 5.06640625 C-16.59311629 2.75130452 -23.4150308 5.09230825 -31.625 11.8125 Z " fill="#000000" transform="translate(61.625,5.1875)"/>
<path d="M0 0 C10.89 0 21.78 0 33 0 C33 1.98 33 3.96 33 6 C31.1128125 6.5878125 31.1128125 6.5878125 29.1875 7.1875 C26.43636571 8.24712416 25.11283092 8.87988967 23.0625 11.0625 C21.52944819 15.30093736 21.25220253 19.52123094 21 24 C18.03 24 15.06 24 12 24 C11.89042969 23.09636719 11.78085937 22.19273438 11.66796875 21.26171875 C11.50941406 20.08222656 11.35085937 18.90273437 11.1875 17.6875 C11.03667969 16.51574219 10.88585938 15.34398438 10.73046875 14.13671875 C9.98914718 10.95339673 9.63090185 9.83666733 7 8 C4.69011685 7.25613932 2.35684056 6.57809297 0 6 C0 4.02 0 2.04 0 0 Z " fill="#000000" transform="translate(33,69)"/>
<path d="M0 0 C1.65 0.33 3.3 0.66 5 1 C4.67 2.65 4.34 4.3 4 6 C2.35 5.67 0.7 5.34 -1 5 C-0.67 3.35 -0.34 1.7 0 0 Z " fill="#000000" transform="translate(46,45)"/>
<path d="M0 0 C1.65 0.33 3.3 0.66 5 1 C4.67 2.65 4.34 4.3 4 6 C2.35 5.67 0.7 5.34 -1 5 C-0.67 3.35 -0.34 1.7 0 0 Z " fill="#000000" transform="translate(55,39)"/>
<path d="M0 0 C1.65 0.33 3.3 0.66 5 1 C4.67 2.65 4.34 4.3 4 6 C2.35 5.67 0.7 5.34 -1 5 C-0.67 3.35 -0.34 1.7 0 0 Z " fill="#000000" transform="translate(37,39)"/>
<path d="M0 0 C1.65 0.33 3.3 0.66 5 1 C4.67 2.65 4.34 4.3 4 6 C2.35 5.67 0.7 5.34 -1 5 C-0.67 3.35 -0.34 1.7 0 0 Z " fill="#000000" transform="translate(46,33)"/>
</svg>
