<?xml version="1.0" encoding="UTF-8"?>
<svg version="1.1" xmlns="http://www.w3.org/2000/svg" width="96" height="96">
<path d="M0 0 C1.98 0 3.96 0 6 0 C6 1.98 6 3.96 6 6 C19.86 6 33.72 6 48 6 C48 4.02 48 2.04 48 0 C49.98 0 51.96 0 54 0 C53.95617187 1.08539063 53.91234375 2.17078125 53.8671875 3.2890625 C53.53941431 11.47358932 53.53941431 11.47358932 57.1875 18.36328125 C60.69437318 20.4174526 64.15739428 21.71913143 68 23 C68 22.34 68 21.68 68 21 C70.31 21 72.62 21 75 21 C74.51392405 26.46835443 74.51392405 26.46835443 72.1875 28.875 C70 30 70 30 66 30 C66 43.86 66 57.72 66 72 C67.98 72 69.96 72 72 72 C72 73.98 72 75.96 72 78 C70.02 78 68.04 78 66 78 C66 79.98 66 81.96 66 84 C64.02 84 62.04 84 60 84 C60 82.02 60 80.04 60 78 C58.02 78 56.04 78 54 78 C54 79.98 54 81.96 54 84 C52.02 84 50.04 84 48 84 C48 82.02 48 80.04 48 78 C34.14 78 20.28 78 6 78 C6 79.98 6 81.96 6 84 C4.02 84 2.04 84 0 84 C0 82.02 0 80.04 0 78 C-1.98 78 -3.96 78 -6 78 C-6 79.98 -6 81.96 -6 84 C-7.98 84 -9.96 84 -12 84 C-12 82.02 -12 80.04 -12 78 C-13.98 78 -15.96 78 -18 78 C-18 76.02 -18 74.04 -18 72 C-16.02 72 -14.04 72 -12 72 C-12 58.14 -12 44.28 -12 30 C-13.98 29.67 -15.96 29.34 -18 29 C-19.875 27.1875 -19.875 27.1875 -21 25 C-21 23.68 -21 22.36 -21 21 C-18.69 21 -16.38 21 -14 21 C-14 21.66 -14 22.32 -14 23 C-12.39459341 22.21085079 -10.79071984 21.41858235 -9.1875 20.625 C-8.29417969 20.18414063 -7.40085937 19.74328125 -6.48046875 19.2890625 C-3.85443619 17.98133095 -3.85443619 17.98133095 -1 16 C-0.61605333 13.22737745 -0.39657752 10.65676472 -0.3125 7.875 C-0.27833984 7.12089844 -0.24417969 6.36679688 -0.20898438 5.58984375 C-0.12645722 3.72708799 -0.06155289 1.86356674 0 0 Z M6 12 C5.67 14.64 5.34 17.28 5 20 C3.68 21.32 2.36 22.64 1 24 C18.16 24 35.32 24 53 24 C51.68 22.68 50.36 21.36 49 20 C48.505 16.04 48.505 16.04 48 12 C34.14 12 20.28 12 6 12 Z M-6 30 C-6 31.98 -6 33.96 -6 36 C15.78 36 37.56 36 60 36 C60 34.02 60 32.04 60 30 C38.22 30 16.44 30 -6 30 Z M-6 42 C-6 51.9 -6 61.8 -6 72 C-4.02 72 -2.04 72 0 72 C0 62.1 0 52.2 0 42 C-1.98 42 -3.96 42 -6 42 Z M6 42 C6 51.9 6 61.8 6 72 C8.97 72 11.94 72 15 72 C15.33 64.41 15.66 56.82 16 49 C23.26 49 30.52 49 38 49 C38.495 60.385 38.495 60.385 39 72 C41.97 72 44.94 72 48 72 C48 62.1 48 52.2 48 42 C34.14 42 20.28 42 6 42 Z M54 42 C54 51.9 54 61.8 54 72 C55.98 72 57.96 72 60 72 C60 62.1 60 52.2 60 42 C58.02 42 56.04 42 54 42 Z M21 54 C21 59.94 21 65.88 21 72 C24.96 72 28.92 72 33 72 C33 66.06 33 60.12 33 54 C29.04 54 25.08 54 21 54 Z " fill="#212121" transform="translate(21,6)"/>
</svg>
