<?xml version="1.0" encoding="iso-8859-1"?>
<!-- Uploaded to: SVG Repo, www.svgrepo.com, Generator: SVG Repo Mixer Tools -->
<svg fill="#000000" height="800px" width="800px" version="1.1" id="Layer_1" xmlns="http://www.w3.org/2000/svg" xmlns:xlink="http://www.w3.org/1999/xlink" 
	 viewBox="0 0 512 512" xml:space="preserve">
<g>
	<g>
		<path d="M384,122.223h-81.737c25.371-21.421,42.662-39.506,42.662-66.543c0-31.103-23.196-55.467-52.815-55.467
			c-15.728,0-27.598,6.685-36.108,15.386c-8.511-8.702-20.382-15.387-36.109-15.387c-29.619,0-52.815,24.365-52.815,55.467
			c0,27.037,17.291,45.123,42.662,66.543H128c-9.22,0-16.696,7.475-16.696,16.696v372.87h89.043v-89.044
			c0-9.22,7.475-16.696,16.696-16.696h77.913c9.22,0,16.696,7.475,16.696,16.696v89.044h89.044v-372.87
			C400.696,129.697,393.22,122.223,384,122.223z M200.466,55.678c0.001-10.971,6.676-22.075,19.426-22.075
			c14.173,0,19.761,17.87,20.065,18.864c2.055,7.152,8.598,12.087,16.043,12.087c7.49,0,14.054-4.984,16.076-12.196
			c0.055-0.185,5.652-18.756,20.033-18.756c12.75,0,19.424,11.104,19.424,22.076c0,15.146-14.239,27.532-43.881,51.897
			c-3.729,3.071-7.62,6.266-11.652,9.63c-4.033-3.364-7.924-6.56-11.652-9.63C214.705,83.21,200.466,70.824,200.466,55.678z
			 M317.217,355.962H194.783c-9.217,0-16.696-7.473-16.696-16.696c0-9.223,7.479-16.696,16.696-16.696h122.435
			c9.217,0,16.696,7.473,16.696,16.696C333.913,348.489,326.435,355.962,317.217,355.962z M317.217,289.18H194.783
			c-9.217,0-16.696-7.473-16.696-16.696c0-9.223,7.479-16.696,16.696-16.696h122.435c9.217,0,16.696,7.473,16.696,16.696
			C333.913,281.707,326.435,289.18,317.217,289.18z M317.217,222.397H194.783c-9.217,0-16.696-7.473-16.696-16.696
			c0-9.223,7.479-16.696,16.696-16.696h122.435c9.217,0,16.696,7.473,16.696,16.696
			C333.913,214.924,326.435,222.397,317.217,222.397z"/>
	</g>
</g>
<g>
	<g>
		<path d="M16.696,222.397C7.479,222.397,0,229.869,0,239.093v256c0,9.223,7.479,16.696,16.696,16.696h61.217V222.397H16.696z"/>
	</g>
</g>
<g>
	<g>
		<path d="M495.304,222.397h-61.217v289.391h61.217c9.217,0,16.696-7.473,16.696-16.696v-256
			C512,229.869,504.521,222.397,495.304,222.397z"/>
	</g>
</g>
</svg>