<?xml version="1.0" encoding="UTF-8"?>
<svg version="1.1" xmlns="http://www.w3.org/2000/svg" width="96" height="96">
<path d="M0 0 C1.41194933 -0.00269785 2.82389684 -0.00658271 4.23583984 -0.01159668 C7.18800632 -0.01747811 10.13968708 -0.00897345 13.09179688 0.00976562 C16.86472235 0.03255538 20.63650954 0.01942486 24.40939331 -0.00452423 C27.3229216 -0.01901955 30.23618264 -0.01435937 33.14971924 -0.00401306 C34.54030494 -0.00135603 35.93091537 -0.00457936 37.32147217 -0.01393127 C49.50527527 -0.07790057 49.50527527 -0.07790057 53.2734375 2.18945312 C57.65343174 6.55125802 59.81204851 9.54986321 60.07910156 15.80224609 C60.07847223 17.88650054 60.0561075 19.97082615 60.015625 22.0546875 C60.00996521 23.15600006 60.00430542 24.25731262 59.99847412 25.39199829 C59.97614742 28.89719763 59.92595572 32.40136146 59.875 35.90625 C59.85493031 38.28774562 59.83668036 40.66925731 59.8203125 43.05078125 C59.77629474 48.87795535 59.70941888 54.70452868 59.625 60.53125 C61.605 60.53125 63.585 60.53125 65.625 60.53125 C65.625 58.55125 65.625 56.57125 65.625 54.53125 C67.605 54.53125 69.585 54.53125 71.625 54.53125 C71.625 58.49125 71.625 62.45125 71.625 66.53125 C51.825 66.53125 32.025 66.53125 11.625 66.53125 C10.965 68.18125 10.305 69.83125 9.625 71.53125 C7.37761996 74.12978317 5.68884926 75.33943745 2.28515625 75.953125 C-2.1098112 76.19104805 -5.39033362 76.04872522 -8.9375 73.28125 C-11.25849075 70.66269633 -11.75850444 69.7730469 -12.375 66.53125 C-12.98988281 66.55445312 -13.60476563 66.57765625 -14.23828125 66.6015625 C-15.04652344 66.61960937 -15.85476563 66.63765625 -16.6875 66.65625 C-17.88826172 66.69105469 -17.88826172 66.69105469 -19.11328125 66.7265625 C-21.375 66.53125 -21.375 66.53125 -24.375 64.53125 C-24.76268005 62.28106689 -24.76268005 62.28106689 -24.77905273 59.44238281 C-24.79173691 58.38077942 -24.80442108 57.31917603 -24.81748962 56.22540283 C-24.81455399 55.07336365 -24.81161835 53.92132446 -24.80859375 52.734375 C-24.8138356 51.55284851 -24.81907745 50.37132202 -24.82447815 49.1539917 C-24.83091287 46.64889309 -24.82954274 44.14376433 -24.82104492 41.63867188 C-24.81256512 37.81064626 -24.84123011 33.98412688 -24.87304688 30.15625 C-24.87465969 27.72395878 -24.87407982 25.29166492 -24.87109375 22.859375 C-24.88232773 21.71543274 -24.89356171 20.57149048 -24.90513611 19.3928833 C-24.83697559 11.58782672 -23.6462898 7.78895471 -18.0234375 2.18945312 C-12.75961158 -0.97786144 -5.9287898 -0.0398729 0 0 Z M-16.125 9.90625 C-18.48486193 12.97407051 -18.49908538 16.35685387 -18.48852539 20.11621094 C-18.48844986 21.01684265 -18.48837433 21.91747437 -18.48829651 22.84539795 C-18.48313522 23.80907288 -18.47797394 24.7727478 -18.47265625 25.765625 C-18.4712413 26.75878723 -18.46982635 27.75194946 -18.46836853 28.77520752 C-18.46277588 31.94391912 -18.4502247 35.11255979 -18.4375 38.28125 C-18.43248405 40.43098856 -18.42792131 42.58072823 -18.42382812 44.73046875 C-18.41280886 49.99741999 -18.396078 55.26432993 -18.375 60.53125 C-15.466473 60.77108086 -15.466473 60.77108086 -12.375 60.53125 C-10.125 57.69791667 -10.125 57.69791667 -8.375 54.53125 C-4.1317553 51.7024202 -0.35765471 51.87856999 4.625 52.53125 C8.21557418 54.62575161 10.10611744 56.66500348 11.625 60.53125 C13.605 60.53125 15.585 60.53125 17.625 60.53125 C17.64481934 59.26941895 17.66463867 58.00758789 17.68505859 56.70751953 C17.76098765 52.03706508 17.84972412 47.3669274 17.94238281 42.69677734 C17.98072521 40.67340334 18.01556871 38.64995994 18.046875 36.62646484 C18.09241169 33.72207797 18.15042409 30.81817106 18.2109375 27.9140625 C18.22248871 27.00568634 18.23403992 26.09731018 18.24594116 25.16140747 C18.26581085 24.32068695 18.28568054 23.47996643 18.30615234 22.61376953 C18.31947601 21.87208527 18.33279968 21.130401 18.3465271 20.36624146 C18.625 18.53125 18.625 18.53125 20.625 16.53125 C22.74804688 16.27246094 22.74804688 16.27246094 25.34375 16.265625 C26.27574219 16.26304688 27.20773438 16.26046875 28.16796875 16.2578125 C29.14378906 16.26554687 30.11960938 16.27328125 31.125 16.28125 C32.58873047 16.26964844 32.58873047 16.26964844 34.08203125 16.2578125 C35.01402344 16.26039062 35.94601563 16.26296875 36.90625 16.265625 C37.76283203 16.26788086 38.61941406 16.27013672 39.50195312 16.27246094 C41.625 16.53125 41.625 16.53125 43.625 18.53125 C43.9034729 20.36624146 43.9034729 20.36624146 43.94384766 22.61376953 C43.96371735 23.45449005 43.98358704 24.29521057 44.00405884 25.16140747 C44.01561005 26.06978363 44.02716125 26.97815979 44.0390625 27.9140625 C44.05842865 28.84346649 44.0777948 29.77287048 44.0977478 30.73043823 C44.15763685 33.7056148 44.2039661 36.68082988 44.25 39.65625 C44.28817121 41.67059 44.32722243 43.68491354 44.3671875 45.69921875 C44.463346 50.64309575 44.5473424 55.58704917 44.625 60.53125 C47.595 60.53125 50.565 60.53125 53.625 60.53125 C53.69930529 54.23244796 53.75367602 47.93390261 53.78979492 41.63476562 C53.80485641 39.49311883 53.82530972 37.35150276 53.85131836 35.20996094 C53.88781728 32.12687589 53.90475302 29.04419962 53.91796875 25.9609375 C53.93345261 25.00758514 53.94893646 24.05423279 53.96488953 23.07199097 C53.96621999 17.78471239 53.59454473 14.10221005 50.625 9.53125 C47.2959921 6.2022421 43.84349881 6.40453013 39.29321289 6.38598633 C38.22853287 6.37960648 37.16385284 6.37322662 36.06690979 6.36665344 C34.92205612 6.36554062 33.77720245 6.3644278 32.59765625 6.36328125 C31.41658798 6.35995285 30.23551971 6.35662445 29.0186615 6.35319519 C26.5213154 6.34813343 24.02396255 6.34578663 21.52661133 6.34594727 C17.70577871 6.34376046 13.88523467 6.3255956 10.06445312 6.30664062 C7.63802182 6.30370663 5.21158915 6.30172188 2.78515625 6.30078125 C1.64232681 6.29359573 0.49949738 6.28641022 -0.67796326 6.27900696 C-2.27971153 6.2836219 -2.27971153 6.2836219 -3.91381836 6.28833008 C-4.84995468 6.28690506 -5.786091 6.28548004 -6.75059509 6.28401184 C-10.38536825 6.62643409 -13.2501331 7.64742601 -16.125 9.90625 Z M23.625 22.53125 C23.53638008 25.3428838 23.50977645 28.12983255 23.52734375 30.94140625 C23.5287587 31.78344101 23.53017365 32.62547577 23.53163147 33.49302673 C23.53724737 36.19330335 23.54980252 38.89349828 23.5625 41.59375 C23.56751295 43.41992068 23.57207621 45.24609266 23.57617188 47.07226562 C23.58722196 51.55862542 23.60449721 56.04492384 23.625 60.53125 C28.575 60.53125 33.525 60.53125 38.625 60.53125 C38.64964849 55.13778012 38.66783531 49.74434275 38.67993164 44.35083008 C38.68497231 42.51456125 38.69180477 40.67829646 38.70043945 38.84204102 C38.71251672 36.20848599 38.71823081 33.57498384 38.72265625 30.94140625 C38.72781754 30.11536392 38.73297882 29.28932159 38.73829651 28.43824768 C38.73849205 26.46888632 38.68704152 24.49963386 38.625 22.53125 C37.51759422 21.19914781 37.51759422 21.19914781 34.71875 21.3984375 C33.5328125 21.40101562 32.346875 21.40359375 31.125 21.40625 C29.9390625 21.40367188 28.753125 21.40109375 27.53125 21.3984375 C24.73240578 21.19914781 24.73240578 21.19914781 23.625 22.53125 Z M-1.375 57.53125 C-3.025 59.18125 -4.675 60.83125 -6.375 62.53125 C-5.73578035 65.00752099 -5.73578035 65.00752099 -4.375 67.53125 C-1.85127099 68.89203035 -1.85127099 68.89203035 0.625 69.53125 C2.275 67.88125 3.925 66.23125 5.625 64.53125 C4.98578035 62.05497901 4.98578035 62.05497901 3.625 59.53125 C1.10127099 58.17046965 1.10127099 58.17046965 -1.375 57.53125 Z " fill="#000000" transform="translate(24.375,17.46875)"/>
<path d="M0 0 C1.92358398 -0.37231445 1.92358398 -0.37231445 4.24609375 -0.36328125 C5.50196289 -0.36231445 5.50196289 -0.36231445 6.78320312 -0.36132812 C8.09708008 -0.3371582 8.09708008 -0.3371582 9.4375 -0.3125 C10.30955078 -0.31572266 11.18160156 -0.31894531 12.08007812 -0.32226562 C18.5992817 -0.26714553 18.5992817 -0.26714553 22 2 C22.37231445 3.92358398 22.37231445 3.92358398 22.36328125 6.24609375 C22.36263672 7.08333984 22.36199219 7.92058594 22.36132812 8.78320312 C22.34521484 9.65912109 22.32910156 10.53503906 22.3125 11.4375 C22.31733398 12.74557617 22.31733398 12.74557617 22.32226562 14.08007812 C22.26714553 20.5992817 22.26714553 20.5992817 20 24 C18.07641602 24.37231445 18.07641602 24.37231445 15.75390625 24.36328125 C14.91666016 24.36263672 14.07941406 24.36199219 13.21679688 24.36132812 C11.90291992 24.3371582 11.90291992 24.3371582 10.5625 24.3125 C9.69044922 24.31572266 8.81839844 24.31894531 7.91992188 24.32226562 C1.4007183 24.26714553 1.4007183 24.26714553 -2 22 C-2.37231445 20.07641602 -2.37231445 20.07641602 -2.36328125 17.75390625 C-2.36231445 16.49803711 -2.36231445 16.49803711 -2.36132812 15.21679688 C-2.34521484 14.34087891 -2.32910156 13.46496094 -2.3125 12.5625 C-2.31572266 11.69044922 -2.31894531 10.81839844 -2.32226562 9.91992188 C-2.26714553 3.4007183 -2.26714553 3.4007183 0 0 Z M4 6 C4 9.96 4 13.92 4 18 C7.96 18 11.92 18 16 18 C16 14.04 16 10.08 16 6 C12.04 6 8.08 6 4 6 Z " fill="#000000" transform="translate(14,33)"/>
</svg>
