<?xml version="1.0" encoding="UTF-8"?>
<svg version="1.1" xmlns="http://www.w3.org/2000/svg" width="96" height="96">
<path d="M0 0 C1.47218994 0.81295532 1.47218994 0.81295532 2.97412109 1.64233398 C4.07369141 2.24239258 5.17326172 2.84245117 6.30615234 3.46069336 C8.00964844 4.41492188 8.00964844 4.41492188 9.74755859 5.38842773 C10.86001953 5.99750977 11.97248047 6.6065918 13.11865234 7.23413086 C20.52600742 11.30860731 27.83944372 15.53412166 35.12255859 19.82592773 C34.13255859 21.80592773 33.14255859 23.78592773 32.12255859 25.82592773 C27.37255859 23.95092773 27.37255859 23.95092773 25.12255859 22.82592773 C24.79255859 31.73592773 24.46255859 40.64592773 24.12255859 49.82592773 C28.08255859 49.82592773 32.04255859 49.82592773 36.12255859 49.82592773 C36.12255859 51.80592773 36.12255859 53.78592773 36.12255859 55.82592773 C35.25115234 55.77049805 34.37974609 55.71506836 33.48193359 55.65795898 C25.51968166 55.61487321 21.27326889 56.52618795 15.62255859 62.07592773 C14.68817781 63.03239447 13.76089818 63.99585657 12.84130859 64.96655273 C10.81659077 67.09599735 9.14987681 68.57090953 6.83349609 70.25952148 C3.85373455 72.61390169 3.85373455 72.61390169 3.31787109 76.15795898 C3.29466797 77.30651367 3.27146484 78.45506836 3.24755859 79.63842773 C3.20888672 80.79987305 3.17021484 81.96131836 3.13037109 83.15795898 C3.12779297 84.03838867 3.12521484 84.91881836 3.12255859 85.82592773 C1.14255859 85.82592773 -0.83744141 85.82592773 -2.87744141 85.82592773 C-2.87744141 83.84592773 -2.87744141 81.86592773 -2.87744141 79.82592773 C-4.85744141 79.82592773 -6.83744141 79.82592773 -8.87744141 79.82592773 C-8.87744141 81.80592773 -8.87744141 83.78592773 -8.87744141 85.82592773 C-10.85744141 85.82592773 -12.83744141 85.82592773 -14.87744141 85.82592773 C-14.81041016 85.01510742 -14.74337891 84.20428711 -14.67431641 83.36889648 C-14.60002666 78.05098858 -14.69489908 73.72540965 -18.40478516 69.68920898 C-20.90382655 67.31084644 -23.54792102 65.13295566 -26.30224609 63.05712891 C-27.87744141 61.82592773 -27.87744141 61.82592773 -29.35107422 60.43261719 C-33.22510651 56.8015217 -36.01628299 56.1616209 -41.25244141 56.01342773 C-42.49767578 55.96573242 -43.74291016 55.91803711 -45.02587891 55.86889648 C-45.96689453 55.8547168 -46.90791016 55.84053711 -47.87744141 55.82592773 C-47.87744141 53.84592773 -47.87744141 51.86592773 -47.87744141 49.82592773 C-43.91744141 49.82592773 -39.95744141 49.82592773 -35.87744141 49.82592773 C-36.20744141 40.91592773 -36.53744141 32.00592773 -36.87744141 22.82592773 C-38.52744141 23.81592773 -40.17744141 24.80592773 -41.87744141 25.82592773 C-42.86744141 25.49592773 -43.85744141 25.16592773 -44.87744141 24.82592773 C-46.06494141 22.26342773 -46.06494141 22.26342773 -46.87744141 19.82592773 C-42.41477042 17.2940972 -37.94224834 14.78064538 -33.46337891 12.27758789 C-31.65833218 11.2642941 -29.85649026 10.24527944 -28.05712891 9.22192383 C-25.12879264 7.55716466 -22.19141018 5.90932876 -19.25244141 4.26342773 C-18.31706543 3.72685547 -17.38168945 3.1902832 -16.41796875 2.63745117 C-15.5254541 2.14148438 -14.63293945 1.64551758 -13.71337891 1.13452148 C-12.53074463 0.46634399 -12.53074463 0.46634399 -11.32421875 -0.21533203 C-7.17785577 -1.84003443 -4.10639336 -1.6755172 0 0 Z M-11.85009766 8.41577148 C-13.3225293 9.22111328 -13.3225293 9.22111328 -14.82470703 10.04272461 C-15.85273437 10.61055664 -16.88076172 11.17838867 -17.93994141 11.76342773 C-19.4877832 12.609375 -19.4877832 12.609375 -21.06689453 13.47241211 C-25.74519581 15.76276878 -25.74519581 15.76276878 -29.87744141 18.82592773 C-29.96535116 21.11744191 -29.98438179 23.41165298 -29.97509766 25.70483398 C-29.97368271 26.39149643 -29.97226776 27.07815887 -29.97080994 27.78562927 C-29.9651962 29.98660574 -29.95264148 32.18748182 -29.93994141 34.38842773 C-29.93492817 35.87735856 -29.93036496 37.36629098 -29.92626953 38.85522461 C-29.91607162 42.51219579 -29.8964992 46.1689489 -29.87744141 49.82592773 C-24.92744141 49.82592773 -19.97744141 49.82592773 -14.87744141 49.82592773 C-14.54744141 43.22592773 -14.21744141 36.62592773 -13.87744141 29.82592773 C-8.59744141 29.82592773 -3.31744141 29.82592773 2.12255859 29.82592773 C2.45255859 36.42592773 2.78255859 43.02592773 3.12255859 49.82592773 C8.07255859 49.82592773 13.02255859 49.82592773 18.12255859 49.82592773 C18.35327127 45.51416418 18.55158712 41.2239309 18.671875 36.91088867 C18.72198815 35.44758475 18.79011013 33.98477743 18.87695312 32.52319336 C19.14837599 27.83556082 19.20838104 23.43436019 18.12255859 18.82592773 C15.22301709 15.68231002 12.06437949 14.34984631 8.12255859 12.82592773 C6.86062992 12.14175693 5.60862818 11.43859339 4.37255859 10.70874023 C3.30005859 10.12866211 2.22755859 9.54858398 1.12255859 8.95092773 C0.02943359 8.35538086 -1.06369141 7.75983398 -2.18994141 7.14624023 C-6.45090517 5.05291792 -7.83944606 6.21564465 -11.85009766 8.41577148 Z M-8.87744141 34.82592773 C-8.87744141 39.77592773 -8.87744141 44.72592773 -8.87744141 49.82592773 C-6.89744141 49.82592773 -4.91744141 49.82592773 -2.87744141 49.82592773 C-2.87744141 44.87592773 -2.87744141 39.92592773 -2.87744141 34.82592773 C-4.85744141 34.82592773 -6.83744141 34.82592773 -8.87744141 34.82592773 Z M-23.87744141 55.82592773 C-21.06939873 58.78997278 -18.69428367 61.27091792 -14.87744141 62.82592773 C-14.87744141 60.51592773 -14.87744141 58.20592773 -14.87744141 55.82592773 C-17.84744141 55.82592773 -20.81744141 55.82592773 -23.87744141 55.82592773 Z M-8.87744141 55.82592773 C-8.87744141 57.80592773 -8.87744141 59.78592773 -8.87744141 61.82592773 C-6.89744141 61.82592773 -4.91744141 61.82592773 -2.87744141 61.82592773 C-2.87744141 59.84592773 -2.87744141 57.86592773 -2.87744141 55.82592773 C-4.85744141 55.82592773 -6.83744141 55.82592773 -8.87744141 55.82592773 Z M3.12255859 55.82592773 C3.12255859 58.13592773 3.12255859 60.44592773 3.12255859 62.82592773 C6.65856324 60.91457387 8.91228706 59.19950008 11.12255859 55.82592773 C8.48255859 55.82592773 5.84255859 55.82592773 3.12255859 55.82592773 Z M-8.87744141 67.82592773 C-8.87744141 69.80592773 -8.87744141 71.78592773 -8.87744141 73.82592773 C-6.89744141 73.82592773 -4.91744141 73.82592773 -2.87744141 73.82592773 C-2.87744141 71.84592773 -2.87744141 69.86592773 -2.87744141 67.82592773 C-4.85744141 67.82592773 -6.83744141 67.82592773 -8.87744141 67.82592773 Z " fill="#000000" transform="translate(53.87744140625,4.174072265625)"/>
<path d="M0 0 C1.65 0.33 3.3 0.66 5 1 C4.67 2.65 4.34 4.3 4 6 C2.35 5.67 0.7 5.34 -1 5 C-0.67 3.35 -0.34 1.7 0 0 Z " fill="#000000" transform="translate(46,18)"/>
</svg>
