<?xml version="1.0" encoding="UTF-8"?>
<svg version="1.1" xmlns="http://www.w3.org/2000/svg" width="96" height="96">
<path d="M0 0 C2.9375 1.5 2.9375 1.5 5 3 C8.87493425 3.40772376 8.87493425 3.40772376 10.91015625 1.5234375 C14.75910108 -1.28233537 19.4379754 -0.4895168 24 0 C28.56489482 1.78626319 31.24721512 4.98879918 34 9 C34.3125 12.375 34.3125 12.375 34 15 C31.25 15.375 31.25 15.375 28 15 C26.6273318 13.02678947 25.29572383 11.02456848 24 9 C21.09802862 7.36521065 21.09802862 7.36521065 18 7 C15.8412784 7.91230037 15.8412784 7.91230037 14 9 C14.54269531 9.36351562 15.08539063 9.72703125 15.64453125 10.1015625 C20.10807594 13.23810742 23.21475672 15.64427015 25 21 C25.1875 24.375 25.1875 24.375 25 27 C23.02 27 21.04 27 19 27 C18.67128906 26.18595703 18.67128906 26.18595703 18.3359375 25.35546875 C16.55552142 21.33867638 15.5983784 19.36823286 11.75 17 C10.8425 16.67 9.935 16.34 9 16 C7.4454967 29.00892322 7.4454967 29.00892322 12 41 C14.37298248 41.73887846 14.37298248 41.73887846 17.125 41.9375 C21.15154299 42.50675186 23.68701162 43.18200136 26.9375 45.625 C30.42144804 48.10024851 32.75874273 48.20171186 37 48 C42.15698364 47.78512568 45.20246502 48.37285449 49.375 51.44140625 C52.80232594 54.72867319 54.83876405 58.10547757 55.25 62.9375 C55.1675 63.618125 55.085 64.29875 55 65 C56.98 65.66 58.96 66.32 61 67 C61 69.31 61 71.62 61 74 C57.49848665 73.58315317 55.10093381 73.05677527 52 71.3125 C49.04443509 69.66898541 49.04443509 69.66898541 45.875 70.6875 C43.12015188 71.88034272 43.12015188 71.88034272 41.125 73.125 C37.76855017 74.50706758 34.53218401 74.56514944 31 74 C28.9140625 73.03125 28.9140625 73.03125 26.875 71.875 C23.82708683 70.17773071 23.36369075 69.93005947 19.75 70.625 C18.18253566 71.40873217 16.62773783 72.2233573 15.125 73.125 C11.76855017 74.50706758 8.53218401 74.56514944 5 74 C2.9140625 73.03125 2.9140625 73.03125 0.875 71.875 C-2.17291317 70.17773071 -2.63630925 69.93005947 -6.25 70.625 C-7.88341837 71.44170918 -9.51101126 72.27053537 -11.125 73.125 C-13 74 -13 74 -17 74 C-17 71.69 -17 69.38 -17 67 C-14.03 66.01 -14.03 66.01 -11 65 C-10.99742188 64.443125 -10.99484375 63.88625 -10.9921875 63.3125 C-10.65681567 56.69449591 -8.62987079 52.71181541 -4 48 C-1.73798938 46.13610325 0.52356168 44.58492052 3 43 C2.67257813 42.03964844 2.34515625 41.07929687 2.0078125 40.08984375 C0.7159804 35.56843141 0.77716836 31.23207954 0.875 26.5625 C0.88402344 25.73556641 0.89304687 24.90863281 0.90234375 24.05664062 C0.92568488 22.03763292 0.96154712 20.01877644 1 18 C-2.0120432 20.86511426 -3.67585611 23.02756832 -5 27 C-6.98 27 -8.96 27 -11 27 C-11.63946566 21.88427468 -10.27524278 18.96934593 -7.51171875 14.8359375 C-5.31031334 12.16239605 -3.01304931 10.68170194 0 9 C-2.73185596 7.69940936 -2.73185596 7.69940936 -6 7 C-9.42540376 8.35422939 -10.69529412 9.43033248 -12.4375 12.6875 C-12.953125 13.450625 -13.46875 14.21375 -14 15 C-17.1875 15.3125 -17.1875 15.3125 -20 15 C-20 10.93197254 -19.89591103 8.28158396 -17.5390625 4.91015625 C-12.24620932 -0.37189519 -7.28384786 -1.30559537 0 0 Z M1.13671875 52.58984375 C-1.81240249 55.80642706 -3.72765203 58.50625846 -4 63 C-3.36191406 63.20496094 -2.72382813 63.40992188 -2.06640625 63.62109375 C-1.24011719 63.89050781 -0.41382813 64.15992187 0.4375 64.4375 C1.26121094 64.70433594 2.08492187 64.97117187 2.93359375 65.24609375 C5 66 5 66 6 67 C9.41030602 67.31002782 11.35433623 67.43044252 14.25 65.5 C18.38784573 63.24299324 22.38125203 63.40353917 27 64 C29.75 65.5 29.75 65.5 32 67 C36.7813607 67.59767009 39.03046914 66.54457107 43 64 C45.8125 63.3125 45.8125 63.3125 48 63 C46.73502412 59.09965772 45.62588439 57.01438022 42 55 C37.47056055 53.74717632 35.2373071 54.2158707 31 56 C27.75067961 55.89518321 26.77028942 54.79165785 24.3125 52.5625 C17.41781391 46.62059717 8.06504371 46.67825411 1.13671875 52.58984375 Z " fill="#000000" transform="translate(26,6)"/>
<path d="M0 0 C2.75 1.5 2.75 1.5 5 3 C8.51469816 3.43933727 10.27541075 3.4830595 13.25 1.5 C17.38784573 -0.75700676 21.38125203 -0.59646083 26 0 C28.75 1.5 28.75 1.5 31 3 C34.51469816 3.43933727 36.27541075 3.4830595 39.25 1.5 C43.43031846 -0.7801737 47.34007164 -0.66973252 52 0 C54.92016428 1.08624468 57.30220337 2.4013057 60 4 C60 6.31 60 8.62 60 11 C56.49848665 10.58315317 54.10093381 10.05677527 51 8.3125 C48.04443509 6.66898541 48.04443509 6.66898541 44.875 7.6875 C42.12015188 8.88034272 42.12015188 8.88034272 40.125 10.125 C36.76855017 11.50706758 33.53218401 11.56514944 30 11 C27.9140625 10.03125 27.9140625 10.03125 25.875 8.875 C22.82708683 7.17773071 22.36369075 6.93005947 18.75 7.625 C17.18253566 8.40873217 15.62773783 9.2233573 14.125 10.125 C10.76855017 11.50706758 7.53218401 11.56514944 4 11 C1.9140625 10.03125 1.9140625 10.03125 -0.125 8.875 C-3.17291317 7.17773071 -3.63630925 6.93005947 -7.25 7.625 C-8.88341837 8.44170918 -10.51101126 9.27053537 -12.125 10.125 C-14 11 -14 11 -18 11 C-18 8.69 -18 6.38 -18 4 C-11.91759331 0.39561085 -7.09290161 -1.06946697 0 0 Z " fill="#000000" transform="translate(27,84)"/>
</svg>
