<?xml version="1.0" encoding="UTF-8"?>
<!-- Generator: visioncortex VTracer 0.6.3 -->
<svg version="1.1" xmlns="http://www.w3.org/2000/svg" width="1280" height="1280">
<path d="M0 0 C3.08 0.01 6.16 0.01 9.23 0.01 C22.52 0.01 35.82 0.02 49.1 0.6 C49.89 0.63 50.69 0.66 51.5 0.7 C59.95 1.14 70.56 1.99 77.09 7.73 C80.03 10.23 81.72 11.06 85.43 11.88 C86.46 12.11 87.49 12.34 88.56 12.58 C93.53 13.47 98.52 14.06 103.54 14.57 C108.38 15.45 111.86 16.58 114.74 20.7 C118.61 24.99 124.17 25.48 129.64 26.78 C135.76 28.39 138.39 29.96 141.99 35.2 C145.15 39.32 150.22 39.92 155.01 41.21 C159.45 42.49 162.62 43.87 165.99 47.2 C166.32 47.9 166.65 48.6 167 49.32 C168.41 52 170.04 52.22 172.86 53.13 C177.2 54.73 179.65 56.03 181.99 60.2 C182.74 63.01 182.74 63.01 182.99 65.2 C183.59 65.35 184.2 65.51 184.82 65.68 C190.02 67.19 193.05 68.38 195.99 73.2 C196.27 73.87 196.55 74.54 196.84 75.24 C198.25 77.64 199.31 78.06 201.86 79.07 C206 80.97 207.82 83.12 209.99 87.2 C210.32 88.19 210.65 89.18 210.99 90.2 C212.75 91.5 212.75 91.5 214.86 92.63 C217.96 94.5 220.29 95.9 221.99 99.2 C222.68 102.45 222.68 102.45 222.99 105.2 C224.06 105.42 225.13 105.65 226.24 105.88 C230.51 107.38 231.63 108.41 233.99 112.2 C235.05 114.51 236.01 116.85 236.99 119.2 C237.95 119.21 238.92 119.22 239.91 119.23 C249.08 119.33 258.24 119.43 267.4 119.53 C272.11 119.59 276.82 119.64 281.53 119.69 C286.09 119.74 290.64 119.79 295.2 119.85 C296.93 119.87 298.65 119.89 300.38 119.9 C344.28 120.35 344.28 120.35 352.99 128.2 C353.32 129.19 353.65 130.18 353.99 131.2 C354.57 131.27 355.15 131.34 355.74 131.41 C383.2 134.81 383.2 134.81 390.99 144.2 C394.22 145.58 397.59 146.33 400.99 147.2 C412.89 150.83 412.89 150.83 416.99 156.2 C416.99 156.86 416.99 157.52 416.99 158.2 C417.95 158.54 417.95 158.54 418.93 158.88 C429.95 163.61 429.95 163.61 432.99 168.26 C435.5 171.95 437.83 172.66 441.87 174.27 C444.59 175.46 446.2 176.83 447.99 179.2 C448.24 180.02 448.48 180.85 448.74 181.7 C450.45 185.11 452.63 185.64 456.02 187.17 C459.74 189.11 461.57 191.92 462.86 195.82 C464.45 199.16 466.71 199.62 469.99 201.2 C472.68 203.96 473.97 206.14 475.36 209.76 C476.69 213.37 476.69 213.37 479.86 214.98 C483.48 217.55 484.94 220.19 486.68 224.13 C489.94 231.93 489.94 231.93 495.49 238.01 C499.38 241.42 500.3 245.65 501.63 250.54 C503.07 255.55 504.2 257.45 508.51 260.6 C514.79 267.37 516.99 284.95 516.99 294.2 C517.57 294.38 518.14 294.57 518.74 294.76 C522.65 297.26 524.47 301.15 525.59 305.55 C526.07 308.34 526.42 311.13 526.72 313.95 C526.85 315.02 526.97 316.1 527.09 317.21 C528.56 331.74 528.36 346.32 528.25 360.91 C528.23 363.97 528.23 367.04 528.23 370.11 C528.16 422.5 528.16 422.5 518.99 433.2 C518.33 433.2 517.67 433.2 516.99 433.2 C516.86 434.48 516.74 435.77 516.61 437.09 C516.05 442.09 515.15 446.97 514.11 451.88 C513.95 452.7 513.79 453.51 513.63 454.35 C511.28 465.59 511.28 465.59 506.49 468.95 C502.72 472.34 502.26 476.4 500.99 481.2 C497.34 493.11 497.34 493.11 491.99 497.2 C491.33 497.2 490.67 497.2 489.99 497.2 C489.76 497.83 489.54 498.47 489.3 499.13 C484.58 510.16 484.58 510.16 479.93 513.2 C476.24 515.71 475.53 518.03 473.92 522.07 C472.73 524.8 471.36 526.4 468.99 528.2 C468.16 528.44 467.34 528.69 466.49 528.95 C463.07 530.65 462.54 532.84 461.02 536.23 C459.08 539.94 456.26 541.77 452.36 543.07 C449.02 544.65 448.56 546.92 446.99 550.2 C444.23 552.88 442.04 554.18 438.43 555.57 C434.81 556.9 434.81 556.9 433.21 560.07 C430.64 563.69 428 565.14 424.05 566.88 C421.69 567.98 419.34 569.08 416.99 570.2 C416.08 570.57 415.17 570.95 414.24 571.34 C410.74 574.23 409.9 577.9 408.99 582.2 C408.56 587.4 408.57 592.59 408.59 597.8 C408.58 599.37 408.58 600.94 408.57 602.51 C408.55 605.87 408.55 609.23 408.55 612.6 C408.55 617.94 408.53 623.27 408.51 628.61 C408.47 638.99 408.45 649.37 408.43 659.75 C408.41 672.93 408.38 686.11 408.32 699.28 C408.3 704.57 408.3 709.86 408.29 715.14 C408.29 718.46 408.28 721.77 408.27 725.09 C408.26 726.6 408.26 728.12 408.26 729.64 C408.28 737.77 407.96 745.79 407.09 753.88 C407.01 754.63 406.93 755.38 406.85 756.14 C405.88 764.32 403.87 770.41 398.21 776.43 C396.51 778.88 395.85 781.41 394.99 784.26 C393.44 789.31 392.22 792.02 387.99 795.2 C387.32 795.46 386.66 795.73 385.97 796.01 C383.31 797.6 382.88 799.21 381.74 802.07 C379.95 805.99 378.87 807.68 374.8 809.2 C372.79 809.91 372.79 809.91 370.99 811.2 C368.3 817.83 368.7 825.69 368.72 832.73 C368.72 834.41 368.72 834.41 368.71 836.12 C368.7 839.85 368.7 843.58 368.7 847.31 C368.7 849.99 368.69 852.67 368.68 855.36 C368.67 861.13 368.66 866.89 368.65 872.66 C368.65 881.01 368.63 889.36 368.61 897.71 C368.57 911.28 368.54 924.84 368.52 938.41 C368.52 939.63 368.52 939.63 368.52 940.87 C368.51 946.62 368.5 952.38 368.49 958.13 C368.48 964.71 368.47 971.28 368.46 977.85 C368.46 978.66 368.46 979.47 368.45 980.3 C368.43 993.82 368.4 1007.34 368.37 1020.85 C368.34 1029.18 368.33 1037.5 368.32 1045.83 C368.32 1051.54 368.31 1057.25 368.29 1062.95 C368.28 1066.24 368.28 1069.53 368.28 1072.82 C368.28 1076.39 368.27 1079.96 368.25 1083.54 C368.26 1084.57 368.26 1085.59 368.26 1086.65 C368.22 1094.16 368.13 1102.41 364.36 1109.07 C361.75 1111.41 359.02 1112.98 356 1114.74 C353.74 1116.37 352.53 1118.02 350.99 1120.32 C347.44 1125.44 343.42 1126.46 337.55 1127.72 C332.67 1128.37 327.87 1128.33 322.96 1128.32 C321.28 1128.33 321.28 1128.33 319.57 1128.33 C315.79 1128.33 312.02 1128.33 308.25 1128.33 C305.52 1128.33 302.8 1128.33 300.08 1128.34 C294.14 1128.34 288.21 1128.34 282.28 1128.34 C273.45 1128.34 264.63 1128.34 255.81 1128.35 C239.13 1128.36 222.46 1128.36 205.79 1128.36 C192.91 1128.36 180.03 1128.37 167.16 1128.37 C163.45 1128.37 159.75 1128.37 156.04 1128.37 C155.12 1128.37 154.2 1128.37 153.25 1128.37 C127.34 1128.38 101.43 1128.38 75.52 1128.38 C74.54 1128.38 73.56 1128.38 72.55 1128.38 C67.6 1128.38 62.65 1128.38 57.7 1128.38 C56.71 1128.38 55.73 1128.38 54.71 1128.38 C52.73 1128.38 50.74 1128.38 48.75 1128.38 C17.8 1128.38 -13.15 1128.39 -44.1 1128.4 C-78.86 1128.42 -113.63 1128.43 -148.39 1128.42 C-152.1 1128.42 -155.8 1128.42 -159.51 1128.42 C-160.42 1128.42 -161.33 1128.42 -162.27 1128.42 C-176.96 1128.42 -191.66 1128.43 -206.35 1128.44 C-221.11 1128.45 -235.87 1128.45 -250.64 1128.44 C-259.41 1128.44 -268.18 1128.44 -276.95 1128.45 C-282.81 1128.46 -288.67 1128.45 -294.53 1128.45 C-297.87 1128.44 -301.21 1128.44 -304.55 1128.45 C-308.15 1128.46 -311.75 1128.45 -315.35 1128.44 C-316.38 1128.45 -317.41 1128.45 -318.47 1128.46 C-325.98 1128.42 -334.22 1128.34 -340.89 1124.57 C-343.22 1121.96 -344.8 1119.22 -346.55 1116.2 C-348.19 1113.95 -349.83 1112.74 -352.14 1111.2 C-357.26 1107.65 -358.28 1103.63 -359.53 1097.75 C-360.19 1092.88 -360.16 1088.08 -360.16 1083.18 C-360.16 1082.06 -360.16 1080.95 -360.17 1079.8 C-360.18 1076.07 -360.18 1072.34 -360.18 1068.61 C-360.19 1065.94 -360.2 1063.26 -360.2 1060.59 C-360.22 1054.83 -360.23 1049.07 -360.24 1043.31 C-360.25 1034.97 -360.28 1026.63 -360.3 1018.29 C-360.34 1004.74 -360.37 991.2 -360.4 977.65 C-360.41 976.44 -360.41 976.44 -360.41 975.2 C-360.44 963.7 -360.46 952.21 -360.48 940.71 C-360.48 939.9 -360.49 939.09 -360.49 938.26 C-360.49 937.45 -360.49 936.64 -360.49 935.81 C-360.52 922.32 -360.55 908.83 -360.59 895.34 C-360.62 887.02 -360.64 878.71 -360.65 870.39 C-360.65 864.69 -360.67 858.99 -360.69 853.29 C-360.7 850 -360.71 846.72 -360.71 843.43 C-360.71 839.86 -360.72 836.29 -360.74 832.72 C-360.74 831.69 -360.73 830.66 -360.73 829.6 C-360.74 820.21 -360.74 820.21 -363.01 811.2 C-364.97 809.85 -366.81 809.1 -369.03 808.25 C-372.55 806.37 -373.86 802.89 -375.01 799.2 C-375.01 798.21 -375.01 797.22 -375.01 796.2 C-375.92 795.97 -376.83 795.74 -377.76 795.51 C-381.63 793.95 -382.69 792.63 -385.01 789.2 C-385.9 786.73 -386.68 784.34 -387.39 781.82 C-389 776.52 -390.75 772.74 -394.66 768.78 C-402.58 759.51 -400.17 742.28 -400.2 730.99 C-400.21 729.38 -400.22 727.77 -400.23 726.16 C-400.24 722.72 -400.26 719.28 -400.27 715.84 C-400.29 710.4 -400.32 704.96 -400.35 699.52 C-400.41 686.99 -400.47 674.46 -400.52 661.94 C-400.57 650.44 -400.63 638.93 -400.69 627.43 C-400.72 622.03 -400.74 616.62 -400.76 611.21 C-400.77 607.85 -400.79 604.49 -400.81 601.12 C-400.82 599.57 -400.82 598.01 -400.83 596.45 C-400.83 594.32 -400.85 592.2 -400.86 590.07 C-400.87 588.28 -400.87 588.28 -400.87 586.46 C-401.01 583.27 -401.3 580.31 -402.01 577.2 C-403.86 575.94 -403.86 575.94 -406.01 575.2 C-407.76 573.7 -407.76 573.7 -409.01 572.2 C-409.01 571.54 -409.01 570.88 -409.01 570.2 C-410.09 569.79 -410.09 569.79 -411.19 569.37 C-413.98 568.21 -416.52 566.9 -419.14 565.38 C-419.98 564.9 -420.83 564.42 -421.71 563.93 C-424.01 562.2 -424.01 562.2 -425.54 559.63 C-427.27 556.77 -428.37 556.25 -431.45 555.13 C-435.09 553.65 -437.58 552.41 -440.01 549.2 C-440.26 548.37 -440.51 547.55 -440.76 546.7 C-442.47 543.28 -444.66 542.75 -448.04 541.22 C-451.76 539.28 -453.59 536.47 -454.89 532.57 C-456.47 529.23 -458.74 528.77 -462.01 527.2 C-464.7 524.43 -465.99 522.25 -467.39 518.63 C-468.71 515.02 -468.71 515.02 -471.88 513.41 C-475.5 510.85 -476.96 508.2 -478.7 504.26 C-481.96 496.46 -481.96 496.46 -487.51 490.38 C-491.4 486.98 -492.32 482.74 -493.65 477.85 C-495.31 472.1 -497.28 470.04 -502.01 466.2 C-504.73 460.09 -506.02 453.94 -507.2 447.38 C-507.46 445.97 -507.46 445.97 -507.74 444.53 C-509.01 437.64 -509.01 437.64 -509.01 434.2 C-509.59 434.01 -510.17 433.82 -510.76 433.63 C-514.67 431.13 -516.49 427.24 -517.61 422.84 C-518.09 420.05 -518.44 417.26 -518.74 414.45 C-518.93 412.83 -518.93 412.83 -519.11 411.18 C-520.58 396.65 -520.38 382.07 -520.27 367.48 C-520.26 364.42 -520.25 361.35 -520.25 358.28 C-520.18 304.26 -520.18 304.26 -512.01 295.2 C-511.02 294.87 -510.03 294.54 -509.01 294.2 C-508.94 293.62 -508.87 293.04 -508.8 292.44 C-505.4 264.99 -505.4 264.99 -496.01 257.2 C-494.63 253.97 -493.88 250.59 -493.01 247.2 C-489.38 235.29 -489.38 235.29 -484.01 231.2 C-483.35 231.2 -482.69 231.2 -482.01 231.2 C-481.78 230.56 -481.56 229.92 -481.32 229.26 C-476.6 218.23 -476.6 218.23 -471.95 215.2 C-468.26 212.68 -467.55 210.36 -465.94 206.32 C-464.75 203.59 -463.38 201.99 -461.01 200.2 C-459.77 199.82 -459.77 199.82 -458.51 199.45 C-455.09 197.74 -454.57 195.55 -453.04 192.16 C-451.1 188.45 -448.28 186.62 -444.39 185.32 C-441.04 183.74 -440.58 181.47 -439.01 178.2 C-436.25 175.51 -434.06 174.22 -430.45 172.82 C-426.84 171.49 -426.84 171.49 -425.23 168.32 C-422.66 164.7 -420.02 163.25 -416.07 161.51 C-408.27 158.25 -408.27 158.25 -402.2 152.7 C-398.79 148.8 -394.56 147.89 -389.67 146.56 C-383.91 144.9 -381.85 142.92 -378.01 138.2 C-371.91 135.47 -365.75 134.19 -359.2 133.01 C-358.26 132.83 -357.32 132.65 -356.35 132.47 C-349.46 131.2 -349.46 131.2 -346.01 131.2 C-345.82 130.62 -345.64 130.04 -345.45 129.45 C-342.95 125.54 -339.06 123.72 -334.67 122.6 C-331.89 122.11 -329.12 121.76 -326.31 121.45 C-325.23 121.33 -324.16 121.21 -323.05 121.08 C-308.27 119.59 -293.43 119.9 -278.6 120.05 C-272.38 120.11 -266.15 120.14 -259.92 120.17 C-257.79 120.19 -255.65 120.21 -253.51 120.23 C-247.25 120.28 -240.98 120.26 -234.72 120 C-233.69 119.96 -232.66 119.93 -231.6 119.89 C-228.81 119.42 -228.81 119.42 -227.18 116.88 C-225.9 114.34 -225.9 114.34 -225.04 111.64 C-223.83 108.76 -222.67 107.78 -220.01 106.2 C-217.26 105.51 -217.26 105.51 -215.01 105.2 C-214.77 104.29 -214.77 104.29 -214.53 103.37 C-213.01 98.17 -211.83 95.13 -207.01 92.2 C-206.34 91.91 -205.66 91.63 -204.97 91.34 C-202.56 89.93 -202.15 88.88 -201.14 86.32 C-199.24 82.18 -197.08 80.36 -193.01 78.2 C-191.53 77.7 -191.53 77.7 -190.01 77.2 C-188.7 75.43 -188.7 75.43 -187.57 73.32 C-185.71 70.22 -184.31 67.89 -181.01 66.2 C-177.76 65.51 -177.76 65.51 -175.01 65.2 C-174.78 64.12 -174.56 63.05 -174.32 61.95 C-172.82 57.65 -171.84 56.53 -168.01 54.2 C-166.01 53.49 -164.03 52.84 -161.98 52.3 C-159.72 51.24 -159.72 51.24 -158.2 48.32 C-155.65 44.69 -153.02 43.25 -149.07 41.51 C-141.27 38.1 -141.27 38.1 -134.82 32.73 C-130.97 29.26 -126.97 28.19 -122.07 26.7 C-115.51 24.69 -111.15 22.74 -106.01 18.2 C-100.3 15.64 -94.13 14.37 -88 13.27 C-87.12 13.11 -86.25 12.95 -85.35 12.79 C-83.62 12.48 -81.9 12.2 -80.17 11.94 C-74.66 10.99 -71.22 9.33 -67.01 5.63 C-61.39 1.59 -54.51 1.57 -47.84 1.08 C-46.71 1 -45.59 0.91 -44.42 0.83 C-29.63 -0.17 -14.82 -0.07 0 0 Z M-21.57 88.95 C-22.27 89.01 -22.97 89.07 -23.69 89.13 C-28.34 89.69 -30.46 91.3 -34.01 94.2 C-41.44 98.08 -49.16 99.25 -57.39 100.32 C-59.69 100.63 -61.99 100.94 -64.28 101.27 C-65.29 101.4 -66.29 101.53 -67.33 101.66 C-69.93 102.18 -71.78 102.78 -74.01 104.2 C-74.38 104.98 -74.75 105.76 -75.14 106.57 C-79.46 112.62 -88.88 113.83 -95.76 115.58 C-98.02 116.12 -98.02 116.12 -100.01 117.2 C-100.44 117.98 -100.88 118.76 -101.32 119.57 C-103.29 122.64 -104.84 123.44 -108.01 125.2 C-111.95 127.86 -115.4 130.46 -118.45 134.13 C-121.3 137.54 -124.41 139.88 -127.94 142.54 C-130.39 144.5 -132.15 146.67 -134.01 149.2 C-135.68 150.86 -137.34 152.53 -139.01 154.2 C-141.06 156.47 -143.08 158.77 -145.1 161.08 C-147.01 163.2 -147.01 163.2 -149.64 165.57 C-152.65 168.9 -154.37 172.54 -156.29 176.57 C-158.01 179.2 -158.01 179.2 -161.04 181.04 C-165.01 183.92 -165.49 186.51 -166.57 191.13 C-168.42 198.8 -171.48 202.61 -178.07 207.13 C-180.9 209.17 -182.08 210.32 -183.95 213.38 C-187.49 218.22 -192.68 218.81 -198.37 219.76 C-211.74 221.37 -230.2 221.65 -242.01 214.2 C-242.8 213.52 -243.58 212.84 -244.39 212.14 C-255.91 203.58 -281.61 207.45 -295.2 208.76 C-300.91 209.66 -305.37 211.68 -310.45 214.38 C-318.26 218.25 -326.87 219.51 -335.38 221.07 C-337.13 221.4 -337.13 221.4 -338.92 221.74 C-339.98 221.92 -341.03 222.11 -342.11 222.3 C-346.55 223.67 -349.18 226.25 -352.2 229.7 C-354.97 232.16 -356.65 232.92 -360.07 234.13 C-364.93 235.91 -366.21 237.82 -369.01 242.2 C-370.6 243.21 -372.23 244.17 -373.89 245.07 C-378.36 247.57 -380.69 250.04 -383.51 254.25 C-385.18 256.41 -386.89 257.71 -389.14 259.26 C-393.17 262.08 -394.95 264.74 -397.01 269.2 C-397.01 269.86 -397.01 270.52 -397.01 271.2 C-398.16 271.57 -398.16 271.57 -399.32 271.95 C-403.24 273.77 -404.57 276.02 -406.07 280.04 C-406.38 281.06 -406.69 282.08 -407.01 283.13 C-408.62 288.42 -410.12 292.72 -414.57 296.2 C-419.44 300.19 -419.55 306.05 -420.39 311.95 C-421.58 319.62 -422.85 326.54 -428.06 332.57 C-436.62 344.09 -432.75 369.79 -431.45 383.38 C-430.55 389.09 -428.53 393.56 -425.83 398.64 C-421.95 406.44 -420.69 415.05 -419.14 423.56 C-418.92 424.73 -418.7 425.9 -418.47 427.11 C-418.28 428.16 -418.1 429.21 -417.9 430.3 C-416.54 434.74 -413.96 437.37 -410.51 440.38 C-408.06 443.14 -407.24 444.86 -406.01 448.26 C-404.46 452.49 -403.04 454.86 -399.01 457.2 C-398.35 457.2 -397.69 457.2 -397.01 457.2 C-396.74 457.92 -396.47 458.64 -396.2 459.38 C-393.96 464.69 -391.61 467.72 -387.01 471.2 C-385.08 473 -383.3 474.84 -381.64 476.9 C-378.46 480.83 -375.86 483.32 -371.01 485.2 C-370.35 485.2 -369.69 485.2 -369.01 485.2 C-368.76 485.96 -368.52 486.72 -368.26 487.51 C-366.85 490.55 -365.8 491.41 -363.01 493.2 C-360.67 494.04 -360.67 494.04 -358.2 494.63 C-352.67 496.2 -347.71 497.84 -344.22 502.67 C-341.52 505.75 -339.38 506.45 -335.51 507.7 C-330.46 509.32 -327.98 510.74 -325.01 515.2 C-324.72 515.9 -324.43 516.6 -324.14 517.32 C-323.06 519.5 -323.06 519.5 -320.07 520.57 C-316.25 522.6 -315.5 524.19 -314.01 528.2 C-313.04 532.84 -312.86 537.38 -312.87 542.11 C-312.86 542.89 -312.86 543.67 -312.86 544.47 C-312.84 547.07 -312.84 549.67 -312.84 552.27 C-312.83 554.14 -312.82 556 -312.82 557.87 C-312.8 561.89 -312.79 565.91 -312.78 569.93 C-312.77 576.29 -312.74 582.64 -312.72 589 C-312.64 607.08 -312.58 625.16 -312.53 643.24 C-312.51 653.23 -312.47 663.22 -312.43 673.21 C-312.4 679.52 -312.38 685.84 -312.37 692.16 C-312.36 696.09 -312.34 700.03 -312.32 703.96 C-312.32 705.78 -312.31 707.6 -312.31 709.42 C-312.31 711.92 -312.3 714.41 -312.28 716.9 C-312.28 717.62 -312.29 718.33 -312.29 719.06 C-312.24 724.18 -311.77 729.36 -310.01 734.2 C-307.48 736.62 -307.48 736.62 -305.58 737.89 C-303.7 739.46 -302.73 741.07 -301.51 743.2 C-299.17 747.19 -296.67 749.37 -293.01 752.2 C-291.34 753.86 -289.68 755.53 -288.01 757.2 C-283 760.54 -277.4 760.32 -271.51 760.34 C-269.65 760.35 -269.65 760.35 -267.74 760.36 C-266.4 760.36 -265.06 760.36 -263.72 760.36 C-262.33 760.37 -260.94 760.37 -259.55 760.37 C-256.65 760.38 -253.74 760.38 -250.84 760.38 C-247.13 760.38 -243.41 760.39 -239.7 760.41 C-236.83 760.42 -233.97 760.42 -231.1 760.42 C-229.73 760.43 -228.36 760.43 -226.99 760.44 C-225.08 760.45 -223.16 760.44 -221.25 760.44 C-220.16 760.44 -219.08 760.44 -217.96 760.44 C-214.94 760.19 -212.74 759.47 -210.01 758.2 C-210.07 757.39 -210.12 756.58 -210.18 755.75 C-210.44 751.92 -210.69 748.09 -210.95 744.26 C-210.99 743.56 -211.04 742.85 -211.09 742.13 C-211.7 732.88 -212.16 723.65 -212.45 714.38 C-212.75 705.55 -213.39 696.79 -214.32 688.01 C-214.43 686.91 -214.53 685.82 -214.64 684.69 C-215.33 678.71 -216.34 675.1 -220.01 670.2 C-221.77 665 -222.55 659.95 -223.08 654.52 C-223.16 653.7 -223.24 652.87 -223.33 652.02 C-224.14 643.57 -224.52 635.12 -224.84 626.64 C-225.38 613.08 -226.04 599.53 -227.21 586.01 C-227.38 584 -227.54 581.98 -227.69 579.97 C-228.3 573.45 -228.9 569.3 -233.01 564.2 C-235 559.41 -235.61 554.68 -236.14 549.57 C-236.26 548.38 -236.26 548.38 -236.38 547.17 C-238.06 529.9 -238.06 529.9 -235.07 525.07 C-227.04 520.15 -217.41 520.87 -208.3 520.86 C-206.88 520.85 -205.46 520.85 -204.05 520.84 C-201.09 520.83 -198.13 520.82 -195.16 520.83 C-191.4 520.83 -187.64 520.8 -183.87 520.76 C-180.95 520.74 -178.02 520.74 -175.1 520.74 C-173.71 520.74 -172.32 520.73 -170.94 520.71 C-161.68 520.62 -152.1 520.8 -144.76 527.14 C-142.3 530.04 -142.22 532.36 -141.82 536.12 C-141.71 537.16 -141.71 537.16 -141.6 538.22 C-140.67 547.6 -140.37 557.03 -140.01 566.45 C-139.59 577.4 -139.11 588.33 -138.07 599.24 C-138 600.07 -137.92 600.9 -137.85 601.75 C-137.17 608.37 -134.98 613.39 -131.91 619.23 C-128.74 626.13 -129.16 634.41 -128.57 641.88 C-128.51 642.71 -128.44 643.54 -128.37 644.39 C-127.16 659.68 -126.35 674.98 -125.75 690.31 C-125.79 708.31 -125.79 708.31 -119.01 724.2 C-117.34 728.43 -116.66 732.31 -116.3 736.84 C-116.19 738.07 -116.08 739.31 -115.96 740.58 C-115.74 743.17 -115.53 745.77 -115.33 748.36 C-115.22 749.59 -115.1 750.82 -114.99 752.09 C-114.9 753.21 -114.8 754.34 -114.71 755.49 C-114.31 758.25 -114.31 758.25 -112.38 759.35 C-109.28 760.46 -106.64 760.45 -103.35 760.45 C-102.69 760.46 -102.02 760.46 -101.34 760.47 C-99.17 760.47 -96.99 760.47 -94.82 760.46 C-93.3 760.46 -91.79 760.46 -90.27 760.47 C-87.1 760.47 -83.93 760.47 -80.77 760.46 C-76.7 760.44 -72.63 760.45 -68.57 760.46 C-65.44 760.47 -62.32 760.47 -59.19 760.46 C-57.69 760.46 -56.19 760.46 -54.69 760.47 C-52.6 760.47 -50.51 760.47 -48.42 760.45 C-47.22 760.45 -46.03 760.45 -44.81 760.45 C-41.87 760.48 -41.87 760.48 -40.01 758.2 C-39.81 755.19 -39.74 752.27 -39.75 749.26 C-39.75 747.85 -39.75 747.85 -39.74 746.42 C-39.73 743.26 -39.74 740.1 -39.74 736.93 C-39.73 734.68 -39.73 732.42 -39.72 730.16 C-39.71 725.29 -39.71 720.41 -39.71 715.54 C-39.7 707.84 -39.69 700.14 -39.66 692.44 C-39.64 681.64 -39.61 670.85 -39.6 660.05 C-39.6 659.37 -39.6 658.68 -39.59 657.98 C-39.58 650.33 -39.57 642.69 -39.56 635.04 C-39.56 632.27 -39.56 629.5 -39.55 626.73 C-39.55 626.05 -39.55 625.36 -39.55 624.66 C-39.54 613.26 -39.51 601.86 -39.48 590.46 C-39.46 582.8 -39.45 575.14 -39.45 567.49 C-39.45 562.72 -39.44 557.96 -39.42 553.2 C-39.41 550.98 -39.41 548.77 -39.42 546.56 C-39.42 543.55 -39.41 540.53 -39.4 537.52 C-39.4 536.64 -39.41 535.76 -39.41 534.85 C-39.37 530.14 -39.06 527.04 -36.01 523.2 C-32.6 520.68 -29.16 520.94 -25.03 520.92 C-23.98 520.91 -23.98 520.91 -22.92 520.91 C-20.63 520.89 -18.34 520.89 -16.05 520.89 C-14.45 520.89 -12.85 520.89 -11.26 520.88 C-7.91 520.87 -4.57 520.87 -1.22 520.88 C3.06 520.89 7.34 520.87 11.62 520.85 C14.92 520.83 18.22 520.83 21.51 520.83 C23.09 520.83 24.67 520.83 26.25 520.82 C28.46 520.8 30.67 520.81 32.88 520.82 C34.13 520.82 35.39 520.82 36.68 520.82 C40.3 521.23 42.15 521.94 44.99 524.2 C46.67 526.97 47.24 529.04 47.25 532.27 C47.25 533.49 47.25 533.49 47.26 534.72 C47.26 535.6 47.26 536.49 47.25 537.39 C47.26 538.34 47.26 539.28 47.27 540.25 C47.28 543.41 47.28 546.57 47.28 549.73 C47.28 551.99 47.29 554.26 47.3 556.52 C47.31 561.4 47.32 566.28 47.32 571.15 C47.33 578.86 47.35 586.56 47.38 594.27 C47.41 605.06 47.44 615.86 47.46 626.65 C47.46 627.34 47.46 628.02 47.46 628.73 C47.47 634.29 47.48 639.85 47.49 645.41 C47.5 650.27 47.51 655.14 47.52 660 C47.52 660.68 47.52 661.37 47.53 662.07 C47.55 673.48 47.58 684.89 47.61 696.29 C47.64 703.96 47.65 711.63 47.66 719.29 C47.66 724.05 47.68 728.81 47.69 733.57 C47.7 735.79 47.7 738 47.7 740.21 C47.7 743.23 47.71 746.24 47.72 749.25 C47.72 750.14 47.72 751.02 47.71 751.94 C47.54 756.55 47.54 756.55 49.99 760.2 C52.92 760.5 52.92 760.5 56.4 760.45 C57.05 760.46 57.71 760.46 58.39 760.47 C60.56 760.47 62.74 760.47 64.92 760.46 C66.43 760.46 67.94 760.46 69.46 760.47 C72.63 760.47 75.8 760.47 78.97 760.46 C83.04 760.44 87.1 760.45 91.17 760.46 C94.29 760.47 97.42 760.47 100.54 760.46 C102.04 760.46 103.54 760.46 105.03 760.47 C107.13 760.47 109.23 760.47 111.32 760.45 C112.52 760.45 113.71 760.45 114.94 760.45 C117.88 760.21 119.57 759.84 121.99 758.2 C122.67 756.32 122.67 756.32 122.71 754.12 C122.77 753.29 122.84 752.47 122.9 751.62 C122.98 750.3 122.98 750.3 123.05 748.95 C123.71 740.44 124.95 732.49 126.99 724.2 C127.25 723 127.25 723 127.52 721.77 C128.48 717.54 130.06 714.06 131.99 710.2 C133.1 705.06 133.26 699.92 133.45 694.68 C133.53 692.78 133.61 690.88 133.69 688.99 C133.74 687.51 133.74 687.51 133.8 686 C136.4 621.32 136.4 621.32 143.58 607.03 C145.29 603.6 145.76 600.39 146.11 596.63 C146.19 595.87 146.27 595.11 146.35 594.32 C147.16 585.75 147.35 577.15 147.6 568.55 C147.87 559.73 148.31 550.94 148.93 542.13 C149 540.99 149.08 539.85 149.15 538.67 C149.27 537.09 149.27 537.09 149.39 535.47 C149.46 534.55 149.53 533.62 149.59 532.67 C150.18 529.01 151.13 526.87 154.05 524.57 C162.53 520.6 171.39 520.9 180.55 520.93 C181.95 520.93 183.35 520.93 184.75 520.92 C187.67 520.92 190.6 520.93 193.52 520.93 C197.24 520.95 200.96 520.94 204.68 520.93 C207.57 520.92 210.46 520.92 213.35 520.93 C214.72 520.93 216.09 520.93 217.46 520.92 C235.51 520.87 235.51 520.87 241.99 525.2 C244.59 527.8 244.99 528.55 245.01 532.27 C244.62 541.18 243.58 549.95 242.18 558.76 C242.02 559.77 241.87 560.78 241.71 561.82 C240.82 567.16 239.67 571.59 236.89 576.26 C234.42 581.59 234.75 587.87 234.56 593.64 C234.49 595.53 234.42 597.42 234.34 599.3 C234.31 600.29 234.27 601.27 234.23 602.28 C233.37 624.72 232.03 646.94 227.99 669.07 C227.84 669.92 227.68 670.76 227.52 671.63 C226.6 676.29 225.16 679.95 222.99 684.2 C220.37 695.5 220.68 707.48 220.39 719.02 C220.03 732.11 219.09 745.14 217.99 758.2 C221.88 760.01 224.94 760.45 229.21 760.45 C230.45 760.46 231.68 760.47 232.96 760.47 C234.3 760.47 235.64 760.47 236.98 760.46 C238.36 760.46 239.75 760.46 241.14 760.47 C244.04 760.47 246.94 760.47 249.84 760.46 C253.55 760.44 257.25 760.45 260.95 760.46 C263.81 760.47 266.67 760.47 269.54 760.46 C270.9 760.46 272.27 760.46 273.63 760.47 C283.99 760.53 283.99 760.53 293.99 758.2 C296.34 755.65 296.34 755.65 297.65 753.77 C299.24 751.9 300.87 750.92 302.99 749.7 C306.99 747.35 309.17 744.86 311.99 741.2 C313.66 739.53 315.32 737.86 316.99 736.2 C320.68 730.66 320.14 723.62 320.13 717.13 C320.14 716.35 320.14 715.58 320.14 714.79 C320.16 712.22 320.16 709.66 320.16 707.1 C320.17 705.25 320.18 703.4 320.18 701.56 C320.2 697.59 320.21 693.62 320.22 689.65 C320.23 683.37 320.26 677.1 320.28 670.82 C320.36 652.96 320.42 635.11 320.47 617.26 C320.49 607.39 320.53 597.53 320.57 587.66 C320.6 581.42 320.62 575.19 320.63 568.95 C320.64 565.06 320.66 561.18 320.68 557.29 C320.68 555.49 320.69 553.7 320.69 551.9 C320.7 529.91 320.7 529.91 324.8 523.26 C326.99 521.2 326.99 521.2 329.43 519.88 C332.19 518.06 332.64 517.14 334.09 514.28 C336.63 510.1 338.91 508.98 343.53 507.7 C344.72 507.42 344.72 507.42 345.93 507.13 C352.3 505.58 355.58 504.08 359.59 498.82 C361.71 496.37 364.09 495.58 367.11 494.57 C371.86 492.96 374.2 491.42 376.99 487.2 C376.99 486.54 376.99 485.88 376.99 485.2 C377.71 484.93 378.43 484.66 379.18 484.38 C384.49 482.14 387.51 479.8 390.99 475.2 C392.8 473.26 394.63 471.48 396.69 469.82 C400.63 466.64 403.12 464.05 404.99 459.2 C404.99 458.54 404.99 457.88 404.99 457.2 C405.75 456.95 406.52 456.7 407.3 456.45 C410.34 455.03 411.21 453.98 412.99 451.2 C413.8 448.89 413.8 448.89 414.36 446.45 C416.09 440.34 418.57 435.19 423.52 431.11 C426.99 427.02 427.31 423.15 428.05 417.95 C429.29 409.66 430.81 402.16 436.16 395.49 C444.78 384.68 440.68 358.03 439.43 345.01 C438.53 339.3 436.51 334.83 433.81 329.75 C429.93 321.95 428.67 313.34 427.12 304.83 C426.79 303.07 426.79 303.07 426.45 301.28 C426.26 300.23 426.07 299.18 425.88 298.1 C424.51 293.65 421.94 291.02 418.49 288.01 C416.04 285.25 415.22 283.53 413.99 280.13 C412.44 275.9 411.02 273.53 406.99 271.2 C406.33 271.2 405.67 271.2 404.99 271.2 C404.74 270.49 404.49 269.79 404.24 269.07 C401.73 263.31 398.91 259.99 393.77 256.61 C391.75 255 390.56 253.33 389.11 251.2 C386.32 247.18 383.34 245.54 379 243.41 C376.99 242.2 376.99 242.2 375.18 239.13 C372.13 235.04 368.81 234.6 364.03 233.19 C358.75 231.46 354.45 228.97 350.91 224.66 C346.81 221.2 342.95 220.87 337.74 220.13 C329.45 218.9 321.95 217.38 315.28 212.02 C304.47 203.4 277.82 207.51 264.8 208.76 C258.88 209.68 253.96 211.91 248.68 214.58 C234.44 221.6 215.6 222.59 200.44 218.18 C195.79 216.32 193.09 213.32 189.61 209.76 C187.43 207.62 185.43 206.09 182.93 204.38 C176.16 199.37 174.6 192.55 172.8 184.61 C171.92 181.99 171.08 180.95 168.99 179.2 C165.82 176.28 163.4 173.38 161.11 169.76 C158.71 166.03 156.24 163.53 152.78 160.8 C149.96 158.28 147.87 155.25 145.61 152.23 C143.67 149.79 141.5 148.04 138.99 146.2 C137.32 144.53 135.66 142.86 133.99 141.2 C131.71 139.15 129.41 137.13 127.11 135.11 C124.99 133.2 124.99 133.2 122.61 130.57 C119.29 127.56 115.65 125.84 111.61 123.92 C108.99 122.2 108.99 122.2 107.14 119.17 C104.38 115.36 101.55 114.64 97.18 113.57 C83.74 110.09 83.74 110.09 80.77 105.17 C78.15 102.26 75.09 102.05 71.39 101.45 C70.27 101.24 70.27 101.24 69.12 101.03 C66.73 100.59 64.33 100.17 61.93 99.76 C51.86 98.02 42.92 96.44 33.99 91.2 C18.17 84.74 -4.81 87.27 -21.57 88.95 Z M-272.01 850.2 C-272.21 852.69 -272.28 855.07 -272.26 857.56 C-272.27 858.33 -272.27 859.1 -272.27 859.89 C-272.28 862.47 -272.28 865.06 -272.27 867.65 C-272.27 869.5 -272.28 871.35 -272.28 873.2 C-272.29 878.23 -272.29 883.26 -272.28 888.3 C-272.27 893.55 -272.28 898.81 -272.28 904.07 C-272.29 912.9 -272.28 921.73 -272.27 930.56 C-272.26 940.78 -272.26 951 -272.27 961.22 C-272.28 969.99 -272.29 978.75 -272.28 987.51 C-272.28 992.75 -272.28 997.99 -272.28 1003.23 C-272.29 1008.15 -272.28 1013.08 -272.27 1018 C-272.27 1019.81 -272.27 1021.63 -272.28 1023.44 C-272.28 1025.9 -272.27 1028.37 -272.26 1030.83 C-272.27 1031.56 -272.27 1032.28 -272.28 1033.03 C-272.36 1037.06 -272.36 1037.06 -270.01 1040.2 C-267.05 1040.39 -264.18 1040.46 -261.21 1040.45 C-260.28 1040.45 -259.36 1040.45 -258.4 1040.46 C-255.26 1040.46 -252.12 1040.46 -248.98 1040.45 C-246.72 1040.45 -244.46 1040.46 -242.2 1040.46 C-235.96 1040.47 -229.72 1040.46 -223.48 1040.46 C-217.45 1040.45 -211.42 1040.46 -205.39 1040.46 C-192.29 1040.47 -179.19 1040.47 -166.09 1040.47 C-154.63 1040.46 -143.17 1040.46 -131.7 1040.46 C-130.56 1040.46 -130.56 1040.46 -129.4 1040.46 C-126.32 1040.46 -123.24 1040.46 -120.16 1040.47 C-91.22 1040.47 -62.29 1040.47 -33.36 1040.46 C-7.63 1040.45 18.09 1040.45 43.82 1040.46 C72.7 1040.47 101.57 1040.47 130.45 1040.47 C133.53 1040.46 136.61 1040.46 139.68 1040.46 C140.44 1040.46 141.2 1040.46 141.98 1040.46 C153.44 1040.46 164.89 1040.46 176.35 1040.47 C189.38 1040.47 202.4 1040.47 215.42 1040.46 C222.07 1040.46 228.72 1040.45 235.38 1040.46 C241.46 1040.47 247.53 1040.46 253.61 1040.45 C255.82 1040.45 258.03 1040.45 260.24 1040.46 C263.22 1040.46 266.21 1040.46 269.19 1040.45 C270.06 1040.45 270.94 1040.46 271.84 1040.46 C276.39 1040.64 276.39 1040.64 279.99 1038.2 C280.19 1035.7 280.26 1033.32 280.24 1030.83 C280.25 1029.68 280.25 1029.68 280.25 1028.5 C280.26 1025.92 280.25 1023.33 280.25 1020.74 C280.25 1018.89 280.25 1017.04 280.26 1015.19 C280.27 1010.16 280.26 1005.13 280.26 1000.1 C280.25 994.84 280.26 989.58 280.26 984.32 C280.26 975.49 280.26 966.66 280.25 957.83 C280.24 947.61 280.24 937.39 280.25 927.17 C280.26 918.41 280.26 909.64 280.26 900.88 C280.26 895.64 280.26 890.4 280.26 885.16 C280.27 880.24 280.26 875.31 280.25 870.39 C280.25 868.58 280.25 866.77 280.25 864.95 C280.26 862.49 280.25 860.02 280.24 857.56 C280.25 856.47 280.25 856.47 280.26 855.37 C280.34 851.33 280.34 851.33 277.99 848.2 C275.03 848 272.16 847.93 269.19 847.94 C268.26 847.94 267.34 847.94 266.38 847.94 C263.24 847.93 260.1 847.93 256.96 847.94 C254.7 847.94 252.44 847.94 250.18 847.93 C243.94 847.92 237.7 847.93 231.46 847.93 C225.43 847.94 219.4 847.93 213.37 847.93 C200.27 847.92 187.17 847.92 174.07 847.92 C162.61 847.93 151.14 847.93 139.68 847.93 C138.54 847.93 138.54 847.93 137.38 847.93 C134.3 847.93 131.22 847.93 128.14 847.93 C99.2 847.92 70.27 847.93 41.34 847.94 C15.61 847.95 -10.11 847.94 -35.84 847.93 C-64.72 847.92 -93.6 847.92 -122.47 847.93 C-125.55 847.93 -128.63 847.93 -131.7 847.93 C-132.84 847.93 -132.84 847.93 -134 847.93 C-145.46 847.93 -156.91 847.93 -168.37 847.92 C-181.4 847.92 -194.42 847.92 -207.44 847.93 C-214.09 847.93 -220.75 847.94 -227.4 847.93 C-233.48 847.92 -239.56 847.93 -245.64 847.94 C-247.84 847.94 -250.05 847.94 -252.26 847.93 C-255.24 847.93 -258.23 847.93 -261.21 847.94 C-262.09 847.94 -262.96 847.93 -263.86 847.93 C-268.41 847.75 -268.41 847.75 -272.01 850.2 Z " fill="#000000" transform="translate(636.0105590820313,75.80438232421875)"/>
</svg>
