<?xml version="1.0" encoding="UTF-8"?>
<svg version="1.1" xmlns="http://www.w3.org/2000/svg" width="96" height="96">
<path d="M0 0 C3.55247432 0.87379409 4.94828114 2.4927342 6.9375 5.4765625 C7.33706124 8.28386937 7.17974238 10.61810244 6.9375 13.4765625 C7.88625 13.5384375 8.835 13.6003125 9.8125 13.6640625 C19.56161577 15.13525703 27.43696903 21.39322531 33.9375 28.4765625 C38.3986757 34.59685314 41.9375 40.76381674 41.9375 48.4765625 C43.2575 48.4765625 44.5775 48.4765625 45.9375 48.4765625 C45.9375 50.4565625 45.9375 52.4365625 45.9375 54.4765625 C14.2575 54.4765625 -17.4225 54.4765625 -50.0625 54.4765625 C-50.0625 52.4965625 -50.0625 50.5165625 -50.0625 48.4765625 C-48.7425 48.4765625 -47.4225 48.4765625 -46.0625 48.4765625 C-46.000625 47.5278125 -45.93875 46.5790625 -45.875 45.6015625 C-44.40380547 35.85244673 -38.14583719 27.97709347 -31.0625 21.4765625 C-24.94220936 17.0153868 -18.77524576 13.4765625 -11.0625 13.4765625 C-11.2171875 11.65125 -11.2171875 11.65125 -11.375 9.7890625 C-11.35658036 6.33230968 -11.08659685 5.51270777 -9.0625 2.4765625 C-5.73362371 0.25731164 -3.92313492 -0.28234683 0 0 Z M-4.0625 7.4765625 C-4.0625 8.7965625 -4.0625 10.1165625 -4.0625 11.4765625 C-2.7425 11.4765625 -1.4225 11.4765625 -0.0625 11.4765625 C-0.0625 10.1565625 -0.0625 8.8365625 -0.0625 7.4765625 C-1.3825 7.4765625 -2.7025 7.4765625 -4.0625 7.4765625 Z M-30.23828125 30.453125 C-35.23904963 36.00001584 -37.83551375 41.114645 -39.0625 48.4765625 C-14.6425 48.4765625 9.7775 48.4765625 34.9375 48.4765625 C33.36279265 39.02831839 28.84450945 32.33488912 21.484375 26.234375 C4.73700324 14.67560615 -15.48397208 16.746282 -30.23828125 30.453125 Z " fill="#000000" transform="translate(50.0625,-0.4765625)"/>
<path d="M0 0 C2.8100346 1.79363911 4.50940468 3.01880935 6 6 C6.58377441 13.12204784 6.58377441 13.12204784 4.41333008 16.38623047 C1.60413049 19.4287485 -1.38818431 21.16170727 -5.0390625 22.98828125 C-5.71995941 23.33634323 -6.40085632 23.68440521 -7.10238647 24.04301453 C-8.53992178 24.77254485 -9.98064906 25.49581557 -11.42431641 26.21313477 C-13.6092613 27.30463763 -15.77490464 28.42906494 -17.94140625 29.55664062 C-30.47594977 35.94028154 -38.42268229 35.87294715 -51.875 32.1875 C-52.89335938 31.92646484 -53.91171875 31.66542969 -54.9609375 31.39648438 C-64.0168706 28.98355483 -64.0168706 28.98355483 -67 26 C-67.48583984 23.6875 -67.48583984 23.6875 -67.4609375 21 C-67.45707031 20.030625 -67.45320313 19.06125 -67.44921875 18.0625 C-67.42472656 17.051875 -67.40023437 16.04125 -67.375 15 C-67.37371094 13.989375 -67.37242188 12.97875 -67.37109375 11.9375 C-67.28114421 4.42171632 -67.28114421 4.42171632 -65 1 C-63.14050293 0.6257782 -63.14050293 0.6257782 -60.85742188 0.62768555 C-60.00313599 0.62145676 -59.1488501 0.61522797 -58.26867676 0.60881042 C-57.34470093 0.61802017 -56.4207251 0.62722992 -55.46875 0.63671875 C-54.52189331 0.63622025 -53.57503662 0.63572174 -52.5994873 0.63520813 C-50.59543766 0.63755105 -48.59138521 0.64729232 -46.58740234 0.66381836 C-43.51242885 0.68740467 -40.43832214 0.68438178 -37.36328125 0.67773438 C-35.41926564 0.68331108 -33.4752537 0.6904209 -31.53125 0.69921875 C-30.14528625 0.69785164 -30.14528625 0.69785164 -28.73132324 0.69645691 C-27.87703735 0.70598892 -27.02275146 0.71552094 -26.14257812 0.7253418 C-25.012453 0.73225288 -25.012453 0.73225288 -23.85949707 0.73930359 C-22 1 -22 1 -20 3 C-20 3.99 -20 4.98 -20 6 C-19.2265625 5.566875 -18.453125 5.13375 -17.65625 4.6875 C-6.6927593 -1.1741683 -6.6927593 -1.1741683 0 0 Z M-61 7 C-61 11.95 -61 16.9 -61 22 C-58.0835095 22.81313676 -55.16681631 23.6255335 -52.25 24.4375 C-51.425 24.66759766 -50.6 24.89769531 -49.75 25.13476562 C-48.55117188 25.46831055 -48.55117188 25.46831055 -47.328125 25.80859375 C-46.22839355 26.11494751 -46.22839355 26.11494751 -45.10644531 26.42749023 C-44.41131836 26.61641846 -43.71619141 26.80534668 -43 27 C-42.39510742 27.18957275 -41.79021484 27.37914551 -41.16699219 27.57446289 C-34.94543437 28.79620413 -30.33714955 27.70407616 -24.7890625 24.89453125 C-24.13545746 24.57344894 -23.48185242 24.25236664 -22.80844116 23.92155457 C-21.43862417 23.24337101 -20.07231972 22.55805019 -18.70947266 21.8659668 C-16.62074577 20.81034997 -14.51710715 19.79014635 -12.41015625 18.77148438 C-11.07709184 18.10623295 -9.74502227 17.43898347 -8.4140625 16.76953125 C-7.78496979 16.46723099 -7.15587708 16.16493073 -6.50772095 15.85346985 C-3.51161149 14.29861387 -2.17763336 13.53939886 -1.09912109 10.2644043 C-1.06641113 9.51715088 -1.03370117 8.76989746 -1 8 C-3.81996999 7.18589231 -5.42555303 6.76947966 -8.19384766 7.88037109 C-8.92651855 8.34008301 -9.65918945 8.79979492 -10.4140625 9.2734375 C-11.2491333 9.7686792 -12.0842041 10.2639209 -12.94458008 10.77416992 C-14.27138794 11.56658081 -14.27138794 11.56658081 -15.625 12.375 C-25.85522108 18.17437764 -34.37367515 19.57135082 -46 19 C-46 17.02 -46 15.04 -46 13 C-45.04738281 13.03480469 -44.09476563 13.06960937 -43.11328125 13.10546875 C-41.85902344 13.13253906 -40.60476562 13.15960938 -39.3125 13.1875 C-38.07113281 13.22230469 -36.82976563 13.25710937 -35.55078125 13.29296875 C-31.78740803 12.98245941 -29.90562771 12.38339252 -27 10 C-27 9.01 -27 8.02 -27 7 C-38.22 7 -49.44 7 -61 7 Z " fill="#000000" transform="translate(79,59)"/>
</svg>
