<?xml version="1.0" encoding="UTF-8"?>
<!-- Generator: visioncortex VTracer 0.6.3 -->
<svg version="1.1" xmlns="http://www.w3.org/2000/svg" width="1280" height="1280">
<path d="M0 0 C0.69 -0.01 1.39 -0.01 2.1 -0.02 C4.39 -0.04 6.67 -0.04 8.96 -0.05 C10.56 -0.05 12.15 -0.06 13.74 -0.07 C17.08 -0.08 20.43 -0.08 23.77 -0.08 C28.04 -0.08 32.31 -0.11 36.58 -0.14 C39.88 -0.16 43.17 -0.17 46.46 -0.17 C48.04 -0.17 49.61 -0.18 51.19 -0.19 C53.39 -0.21 55.6 -0.21 57.8 -0.2 C59.06 -0.2 60.31 -0.2 61.6 -0.2 C65.67 0.38 67.84 1.74 71.03 4.29 C72.17 6.33 72.17 6.33 72.72 8.48 C72.94 9.26 73.16 10.04 73.39 10.85 C73.6 11.65 73.81 12.46 74.03 13.29 C74.5 14.88 74.97 16.46 75.47 18.04 C75.67 18.74 75.88 19.43 76.09 20.15 C76.97 22.44 76.97 22.44 78.93 24.5 C81.69 28.17 82.81 31.88 84.16 36.23 C84.53 37.41 84.53 37.41 84.92 38.61 C85.99 41.97 87.04 45.33 87.97 48.74 C88.79 51.37 88.79 51.37 90.84 52.51 C91.52 52.74 92.2 52.98 92.91 53.23 C97.65 55.27 98.89 57.67 101.03 62.29 C101.83 64.48 101.83 64.48 103.98 64.96 C104.81 65.15 105.65 65.35 106.51 65.55 C107.43 65.78 108.35 66.02 109.29 66.26 C111.22 66.73 113.15 67.19 115.09 67.64 C119.92 68.89 123.04 69.74 126.02 73.87 C129.05 77.98 131.96 78.2 136.82 78.95 C142.59 79.56 148.34 79.56 154.14 79.55 C155.54 79.55 156.95 79.55 158.35 79.55 C162.2 79.56 166.05 79.56 169.9 79.55 C174.09 79.55 178.29 79.56 182.48 79.56 C189.82 79.57 197.17 79.57 204.51 79.57 C215.44 79.56 226.36 79.57 237.28 79.58 C257.92 79.59 278.56 79.6 299.2 79.59 C315.14 79.59 331.07 79.59 347.01 79.6 C349.3 79.6 351.59 79.6 353.88 79.6 C357.33 79.6 360.78 79.6 364.22 79.6 C396.29 79.61 428.36 79.61 460.43 79.61 C461.64 79.61 462.85 79.61 464.09 79.61 C470.22 79.61 476.35 79.61 482.48 79.61 C483.69 79.61 484.91 79.61 486.16 79.61 C488.63 79.61 491.09 79.61 493.55 79.61 C531.85 79.6 570.16 79.61 608.47 79.63 C651.5 79.65 694.53 79.66 737.56 79.65 C742.15 79.65 746.74 79.65 751.32 79.65 C752.45 79.65 753.58 79.65 754.74 79.65 C771.8 79.65 788.87 79.66 805.93 79.67 C825.32 79.68 844.72 79.68 864.11 79.67 C874.97 79.66 885.83 79.67 896.69 79.68 C903.94 79.69 911.18 79.68 918.43 79.67 C922.57 79.67 926.7 79.66 930.83 79.68 C934.59 79.69 938.35 79.68 942.11 79.67 C944.1 79.67 946.09 79.68 948.08 79.69 C957.82 79.63 964.41 78.42 972.03 72.29 C974.94 71.03 977.94 70.1 980.97 69.17 C981.75 68.91 982.54 68.66 983.35 68.4 C986.72 67.33 990.07 66.28 993.48 65.35 C996.11 64.53 996.11 64.53 997.25 62.49 C997.49 61.8 997.72 61.12 997.97 60.42 C1000.01 55.67 1002.41 54.43 1007.03 52.29 C1009.22 51.49 1009.22 51.49 1009.7 49.34 C1009.89 48.51 1010.09 47.67 1010.29 46.81 C1010.64 45.43 1010.64 45.43 1011 44.03 C1011.47 42.1 1011.93 40.17 1012.38 38.23 C1013.94 32.21 1015.51 29.43 1020.48 25.75 C1023.26 23.14 1023.37 19.94 1023.72 16.29 C1024.35 10.72 1025.38 6.72 1029.03 2.29 C1032.57 -0.09 1035.81 0.03 1040 0 C1040.69 -0.01 1041.39 -0.01 1042.1 -0.02 C1044.39 -0.04 1046.67 -0.04 1048.96 -0.05 C1050.56 -0.05 1052.15 -0.06 1053.74 -0.07 C1057.08 -0.08 1060.43 -0.08 1063.77 -0.08 C1068.04 -0.08 1072.31 -0.11 1076.58 -0.14 C1079.88 -0.16 1083.17 -0.17 1086.46 -0.17 C1088.04 -0.17 1089.61 -0.18 1091.19 -0.19 C1093.39 -0.21 1095.6 -0.21 1097.8 -0.2 C1099.06 -0.2 1100.31 -0.2 1101.6 -0.2 C1105.67 0.38 1107.84 1.75 1111.03 4.29 C1113.13 7.28 1113.29 9.77 1113.3 13.37 C1113.3 14.36 1113.31 15.35 1113.31 16.36 C1113.3 17.41 1113.29 18.46 1113.28 19.54 C1113.27 20.62 1113.27 21.69 1113.26 22.8 C1112.9 50.95 1112.9 50.95 1104.52 60 C1101.47 63.59 1100.78 67.24 1099.97 71.79 C1098.92 77.5 1097.74 81.61 1094.03 86.29 C1093.21 86.83 1092.38 87.36 1091.53 87.92 C1088.66 90.64 1088.22 92.3 1087.09 96.04 C1084.4 104.87 1079.77 109.87 1072.79 115.69 C1070.65 117.64 1069.38 119.74 1068.03 122.29 C1066.35 124.28 1064.96 125.33 1062.67 126.6 C1059.89 128.38 1058.28 130.16 1056.22 132.73 C1051.98 137.63 1047.96 140.25 1041.7 141.91 C1037.07 143.15 1034.73 144.06 1032.22 148.29 C1031.84 148.99 1031.47 149.7 1031.08 150.42 C1029.03 154.07 1025.71 155.58 1022.03 157.29 C1022.87 157.88 1022.87 157.88 1023.72 158.48 C1030.21 163.57 1032.84 168.4 1035.03 176.29 C1035.03 177.28 1035.03 178.27 1035.03 179.29 C1035.93 179.68 1035.93 179.68 1036.84 180.08 C1042.45 183.19 1045.1 189.03 1046.97 194.92 C1048.2 198.65 1049.05 200.71 1052.28 202.98 C1056.93 206.37 1058.68 211.26 1061.04 216.33 C1063.3 221.1 1065.8 224.59 1069.52 228.36 C1071.41 230.77 1072.12 233.06 1073.03 235.98 C1074.25 239.79 1074.97 241.71 1078.47 243.73 C1083.79 246.84 1085.19 252.7 1087.03 258.29 C1087.34 259.62 1087.63 260.95 1087.91 262.29 C1088.78 265.64 1088.78 265.64 1092.39 267 C1096.78 269.36 1097.92 272.34 1099.47 276.92 C1099.72 277.6 1099.98 278.28 1100.24 278.98 C1102.03 283.86 1102.03 283.86 1102.03 286.29 C1102.63 286.55 1103.23 286.81 1103.84 287.07 C1108.27 289.53 1111.33 293.99 1112.8 298.79 C1113 299.64 1113.2 300.48 1113.41 301.35 C1114.43 305.31 1115.45 306.98 1118.72 309.42 C1123.63 313.18 1125.55 317.9 1128.09 323.38 C1130.34 328.16 1132.85 331.7 1136.57 335.49 C1138.74 338.17 1139.44 341.05 1140.36 344.32 C1141.3 347.08 1142.8 348.45 1145.03 350.29 C1150.84 355.08 1153.35 361.65 1154.43 369.01 C1154.86 371.72 1154.86 371.72 1158.41 373.29 C1159.01 373.56 1159.62 373.83 1160.24 374.1 C1164.82 377.14 1165.83 382.61 1167.28 387.6 C1169.02 393.26 1171.05 397.37 1175.48 401.38 C1180.51 407.57 1179.36 416.49 1179.34 423.98 C1179.36 425.18 1179.38 426.38 1179.39 427.62 C1179.4 437.39 1178.65 447.02 1173.03 455.29 C1172.27 455.85 1171.51 456.4 1170.72 456.98 C1167.35 459.87 1165.61 463.1 1163.46 466.95 C1161.28 470.52 1159.52 472.04 1155.78 473.98 C1151.93 476.06 1149.73 478.86 1147.2 482.39 C1141.21 487.65 1132.64 487.87 1125.03 488.42 C1123.16 488.56 1121.28 488.71 1119.41 488.86 C1118.59 488.92 1117.77 488.98 1116.93 489.04 C1115.02 489.1 1115.02 489.1 1114.03 490.29 C1113.93 493.32 1113.9 496.32 1113.9 499.34 C1113.9 500.31 1113.9 501.28 1113.9 502.27 C1113.89 505.56 1113.89 508.84 1113.89 512.12 C1113.89 514.48 1113.89 516.84 1113.89 519.2 C1113.88 524.35 1113.88 529.51 1113.88 534.66 C1113.87 542.33 1113.87 549.99 1113.86 557.65 C1113.85 569.75 1113.84 581.86 1113.83 593.96 C1113.82 613.17 1113.8 632.39 1113.78 651.61 C1113.77 659 1113.77 666.39 1113.76 673.78 C1113.76 674.6 1113.76 675.42 1113.75 676.26 C1113.73 695.83 1113.71 715.39 1113.69 734.95 C1113.69 735.8 1113.69 736.66 1113.69 737.54 C1113.67 757.51 1113.66 777.47 1113.64 797.44 C1113.64 798.73 1113.64 798.73 1113.64 800.04 C1113.64 806.96 1113.63 813.87 1113.63 820.79 C1113.61 849.31 1113.58 877.83 1113.55 906.35 C1113.54 910.38 1113.53 914.41 1113.53 918.44 C1113.53 919.23 1113.53 920.02 1113.53 920.84 C1113.51 933.6 1113.5 946.36 1113.5 959.12 C1113.5 971.95 1113.49 984.78 1113.47 997.61 C1113.45 1005.23 1113.45 1012.85 1113.46 1020.47 C1113.46 1026.16 1113.45 1031.86 1113.43 1037.55 C1113.43 1039.85 1113.43 1042.15 1113.43 1044.46 C1113.5 1073.46 1113.5 1073.46 1106.03 1082.29 C1105.37 1082.71 1104.71 1083.14 1104.02 1083.58 C1101.38 1085.85 1101 1087.83 1100.09 1091.17 C1098.52 1096.26 1097.41 1099.19 1093.03 1102.29 C1090.22 1103.1 1090.22 1103.1 1088.03 1103.29 C1087.8 1104.36 1087.58 1105.44 1087.34 1106.54 C1085.83 1110.87 1084.88 1111.91 1081.03 1114.29 C1079.54 1114.93 1078.04 1115.55 1076.53 1116.17 C1073.33 1117.5 1071.4 1118.66 1069.28 1121.42 C1065.78 1125.89 1061.97 1126.47 1056.44 1127.16 C1055.74 1127.24 1055.04 1127.32 1054.32 1127.4 C1053.57 1127.48 1052.83 1127.57 1052.06 1127.65 C1043.84 1128.51 1035.67 1128.57 1027.42 1128.55 C1025.7 1128.55 1023.99 1128.55 1022.27 1128.55 C1017.59 1128.56 1012.91 1128.56 1008.23 1128.55 C1003.12 1128.55 998.02 1128.56 992.91 1128.56 C983.98 1128.57 975.04 1128.57 966.1 1128.57 C952.81 1128.56 939.52 1128.57 926.23 1128.58 C901.8 1128.59 877.38 1128.6 852.95 1128.59 C849.5 1128.59 846.04 1128.59 842.58 1128.59 C841.9 1128.59 841.21 1128.59 840.5 1128.59 C825.27 1128.59 810.03 1128.59 794.8 1128.6 C791.32 1128.6 787.83 1128.6 784.35 1128.6 C782.96 1128.6 781.56 1128.6 780.16 1128.6 C779.47 1128.6 778.78 1128.6 778.06 1128.6 C776.66 1128.6 775.26 1128.6 773.86 1128.6 C734.13 1128.61 694.4 1128.61 654.67 1128.61 C653.94 1128.61 653.2 1128.61 652.44 1128.61 C644.24 1128.61 636.05 1128.61 627.85 1128.61 C627.11 1128.61 626.37 1128.61 625.61 1128.61 C619.46 1128.61 619.46 1128.61 616.63 1128.61 C569.26 1128.6 521.9 1128.61 474.54 1128.63 C462.6 1128.63 450.66 1128.64 438.72 1128.64 C437.62 1128.64 437.62 1128.64 436.5 1128.64 C413.84 1128.65 391.18 1128.65 368.52 1128.66 C367.81 1128.66 367.1 1128.66 366.37 1128.66 C350.76 1128.66 335.14 1128.66 319.53 1128.65 C313.94 1128.65 308.35 1128.65 302.77 1128.65 C301.38 1128.65 299.99 1128.65 298.6 1128.65 C276.46 1128.65 254.32 1128.66 232.18 1128.67 C209.26 1128.68 186.35 1128.68 163.44 1128.67 C150.23 1128.66 137.02 1128.67 123.81 1128.68 C114.98 1128.69 106.16 1128.68 97.34 1128.67 C92.32 1128.67 87.29 1128.66 82.26 1128.68 C77.68 1128.69 73.11 1128.68 68.53 1128.67 C66.89 1128.67 65.25 1128.67 63.6 1128.68 C39.89 1128.78 39.89 1128.78 31.03 1121.29 C30.61 1120.63 30.18 1119.97 29.75 1119.28 C27.47 1116.64 25.5 1116.26 22.16 1115.35 C17.06 1113.78 14.13 1112.67 11.03 1108.29 C10.22 1105.48 10.22 1105.48 10.03 1103.29 C8.96 1103.06 7.89 1102.84 6.78 1102.6 C2.45 1101.09 1.41 1100.14 -0.97 1096.29 C-1.61 1094.8 -2.23 1093.3 -2.84 1091.79 C-4.18 1088.59 -5.34 1086.66 -8.09 1084.54 C-13.03 1080.68 -13.34 1075.98 -14.08 1069.96 C-15.34 1058.86 -15.25 1047.76 -15.24 1036.61 C-15.24 1034.25 -15.25 1031.88 -15.26 1029.52 C-15.27 1023.73 -15.27 1017.95 -15.27 1012.17 C-15.27 1005.23 -15.28 998.29 -15.29 991.36 C-15.31 978.56 -15.33 965.76 -15.33 952.96 C-15.34 940.3 -15.35 927.64 -15.37 914.97 C-15.37 914.18 -15.37 913.4 -15.37 912.58 C-15.38 908.58 -15.39 904.57 -15.39 900.56 C-15.43 872.22 -15.46 843.88 -15.49 815.53 C-15.49 813.82 -15.49 812.11 -15.5 810.4 C-15.5 809.55 -15.5 808.7 -15.5 807.83 C-15.5 803.53 -15.51 799.24 -15.51 794.95 C-15.51 794.1 -15.51 793.25 -15.51 792.37 C-15.53 772.57 -15.55 752.77 -15.58 732.96 C-15.58 731.69 -15.58 731.69 -15.58 730.39 C-15.6 711.02 -15.62 691.64 -15.65 672.27 C-15.65 671.45 -15.65 670.64 -15.65 669.8 C-15.66 662.49 -15.67 655.17 -15.68 647.86 C-15.7 629.6 -15.73 611.34 -15.74 593.08 C-15.75 580.37 -15.76 567.66 -15.78 554.96 C-15.79 548.07 -15.8 541.18 -15.8 534.28 C-15.8 527.99 -15.81 521.69 -15.82 515.4 C-15.82 513.11 -15.82 510.82 -15.82 508.53 C-15.82 505.44 -15.83 502.36 -15.84 499.27 C-15.83 498.36 -15.83 497.45 -15.83 496.52 C-15.45 492.59 -15.45 492.59 -16.97 489.29 C-18.36 489.1 -19.76 488.97 -21.16 488.86 C-22.02 488.79 -22.89 488.71 -23.77 488.64 C-25.58 488.49 -27.39 488.35 -29.2 488.22 C-37.83 487.46 -43.9 485.82 -49.97 479.29 C-53.18 476.7 -56.28 474.58 -60.09 472.98 C-65.63 469.73 -67.72 464.14 -69.84 458.29 C-71.56 453.71 -73.88 450.76 -77.38 447.37 C-82.3 440.91 -81.3 432.37 -81.28 424.67 C-81.3 423.47 -81.31 422.28 -81.33 421.04 C-81.34 410.81 -81.09 400.2 -73.97 392.29 C-72.98 391.42 -72.98 391.42 -71.97 390.54 C-69.49 387.76 -68.4 384.88 -66.97 381.48 C-65.68 378.66 -64.13 376.52 -61.97 374.29 C-61.32 374.07 -60.67 373.85 -60 373.62 C-56.86 371.56 -56.38 368.43 -55.41 364.98 C-54.07 360.42 -52.78 356.19 -49.97 352.29 C-48.55 351.52 -48.55 351.52 -47.09 350.73 C-42.94 347.49 -41.96 344.05 -40.24 339.17 C-38.87 336.07 -37.6 334.4 -34.97 332.29 C-32.72 331.54 -32.72 331.54 -30.97 331.29 C-30.8 330.53 -30.63 329.77 -30.45 328.98 C-26.69 312.95 -26.69 312.95 -21.34 307.73 C-18.97 306.29 -18.97 306.29 -16.97 306.29 C-16.69 304.4 -16.69 304.4 -16.41 302.48 C-14.82 295.31 -10.7 288.89 -5.41 283.85 C-2.78 281.09 -1.63 278.67 -0.03 275.23 C2.66 269.52 2.66 269.52 6.16 267.35 C10.42 264.3 10.76 260.42 12.11 255.49 C13.61 250.27 15.16 246.38 20.03 243.54 C24.02 240.55 24.54 237.56 26.04 232.93 C27.42 229.25 28.91 227.64 32.03 225.29 C34.19 224.67 34.19 224.67 36.03 224.29 C36.13 223.68 36.23 223.08 36.33 222.45 C39.26 206.03 39.26 206.03 45.47 201.42 C49.78 198.19 50.99 194.11 52.85 189.2 C54.83 184.33 57.53 180.63 61.47 177.1 C64.1 174.21 65.33 171.75 66.97 168.23 C69.38 163.11 71.15 160.96 76.03 158.29 C76.03 157.3 76.03 156.31 76.03 155.29 C75.33 155.27 74.63 155.25 73.91 155.23 C68.94 153.61 66.4 149.05 63.28 145.04 C60.86 143.15 59.22 142.7 56.28 141.92 C47.94 139.63 43.05 134.54 37.63 128.05 C35.68 125.9 33.58 124.64 31.03 123.29 C29.04 121.61 27.99 120.22 26.72 117.93 C24.94 115.15 23.16 113.53 20.59 111.48 C14.86 106.51 12.72 101.7 10.66 94.54 C9.25 90.04 7.16 88.61 3.03 86.29 C-2.04 81.4 -2.14 72.99 -2.62 66.33 C-3.32 62.22 -4.76 60.47 -7.97 57.79 C-11.85 54.56 -13.1 52.04 -13.6 47.08 C-13.73 45.85 -13.73 45.85 -13.86 44.59 C-13.93 43.71 -14.01 42.82 -14.09 41.92 C-14.18 41 -14.26 40.08 -14.34 39.14 C-14.91 32.22 -15.24 25.3 -15.34 18.35 C-15.37 17.44 -15.4 16.52 -15.42 15.58 C-15.44 10 -14.83 6.62 -10.97 2.29 C-7.42 -0.08 -4.2 0.03 0 0 Z M170.03 176.29 C163.83 184.15 163.83 184.15 161.03 193.29 C160.25 193.56 159.46 193.83 158.66 194.1 C155.75 195.14 155.75 195.14 154.03 198.29 C152.98 201.53 152.06 204.79 151.13 208.06 C149.6 212.57 148.41 215.54 144.16 217.85 C140.62 220.61 140.15 222.1 138.66 226.23 C136.53 231.96 136.53 231.96 134.12 233.55 C133.43 233.84 132.74 234.12 132.03 234.42 C129.56 235.62 128.32 236.6 127.25 239.16 C126.26 242.31 125.46 245.48 124.75 248.71 C123.69 253.49 122.66 256.75 119.03 260.29 C118.34 260.59 117.65 260.9 116.94 261.21 C113.94 262.91 113.61 265.36 112.53 268.54 C108.58 279.48 108.58 279.48 103.62 283.01 C100.06 286.15 98.61 289.89 96.8 294.16 C95.24 297.59 94.13 299.22 90.95 301.33 C87.29 303.79 86.89 305.45 85.84 309.67 C82.91 321.11 82.91 321.11 77.66 324.42 C73.98 326.76 73.06 329.24 71.59 333.29 C69.53 338.95 69.53 338.95 67.09 340.62 C66.39 340.92 65.69 341.23 64.97 341.54 C61.52 343.23 61.07 344.17 59.77 347.93 C59.24 350.05 58.79 352.17 58.4 354.33 C57.29 360.26 55.37 364.48 50.44 368.3 C47.54 370.7 46.75 372.65 45.47 376.17 C43.23 381.91 41.43 386.46 36.41 390.29 C33.53 392.71 32.93 394.69 32.03 398.29 C35.74 400.76 37.57 400.54 41.99 400.54 C42.71 400.55 43.43 400.55 44.17 400.55 C46.59 400.56 49.02 400.55 51.45 400.55 C53.2 400.55 54.96 400.55 56.71 400.55 C61.58 400.56 66.44 400.56 71.3 400.55 C76.57 400.55 81.85 400.56 87.12 400.56 C96.38 400.57 105.63 400.57 114.89 400.57 C128.66 400.56 142.42 400.57 156.18 400.58 C181.48 400.59 206.77 400.6 232.06 400.59 C235.65 400.59 239.23 400.59 242.82 400.59 C243.53 400.59 244.24 400.59 244.98 400.59 C260.75 400.59 276.52 400.59 292.29 400.6 C295.89 400.6 299.49 400.6 303.08 400.6 C304.53 400.6 305.97 400.6 307.42 400.6 C308.49 400.6 308.49 400.6 309.59 400.6 C311.03 400.6 312.48 400.6 313.93 400.6 C355.03 400.61 396.13 400.61 437.23 400.61 C437.99 400.61 438.75 400.61 439.53 400.61 C448.02 400.61 456.51 400.61 465 400.61 C465.77 400.61 466.54 400.61 467.33 400.61 C471.98 400.61 471.98 400.61 476.63 400.61 C525.67 400.6 574.72 400.61 623.76 400.63 C636.12 400.63 648.48 400.64 660.84 400.64 C661.6 400.64 662.36 400.64 663.14 400.64 C686.58 400.65 710.02 400.65 733.47 400.66 C734.57 400.66 734.57 400.66 735.69 400.66 C751.84 400.66 767.99 400.66 784.13 400.65 C789.91 400.65 795.69 400.65 801.46 400.65 C802.9 400.65 804.34 400.65 805.78 400.65 C828.7 400.65 851.63 400.66 874.56 400.67 C898.28 400.68 922.01 400.68 945.73 400.67 C959.42 400.66 973.11 400.67 986.8 400.68 C995.93 400.69 1005.06 400.68 1014.19 400.67 C1019.4 400.67 1024.61 400.66 1029.82 400.68 C1034.56 400.69 1039.29 400.68 1044.02 400.67 C1045.73 400.67 1047.44 400.67 1049.15 400.68 C1051.46 400.69 1053.76 400.68 1056.07 400.67 C1057.99 400.67 1057.99 400.67 1059.95 400.67 C1063.03 400.56 1063.03 400.56 1064.97 398.77 C1065.32 398.28 1065.67 397.79 1066.03 397.29 C1064.19 391.56 1062.58 388.39 1058.03 384.29 C1054.84 381 1053.54 378.03 1052.16 373.73 C1050.39 368.52 1048.62 367.32 1044.03 364.29 C1041.71 360.43 1039.89 356.38 1038.03 352.29 C1036.25 348.45 1034.6 345.58 1031.59 342.6 C1028.66 339.42 1027.31 336.73 1026.03 332.6 C1024.82 328.79 1024.09 326.87 1020.59 324.85 C1014.71 321.4 1013.19 314.02 1011.27 307.84 C1010.55 305.46 1010.55 305.46 1009.03 302.29 C1008.08 301.9 1007.13 301.5 1006.16 301.1 C1001.77 298.56 1001.06 295.56 999.47 290.92 C997.46 285.19 995.75 281.38 991.03 277.29 C987.92 274.09 986.71 271.47 985.59 267.23 C984.62 263.64 984.15 262.41 981.47 259.67 C979.21 258.13 979.21 258.13 977.03 258.29 C976.64 257.26 976.64 257.26 976.23 256.22 C972.71 247.63 969 239.87 962.52 233.16 C960.37 230.46 959.69 227.62 958.77 224.33 C957.63 221.17 955.54 219.44 953.03 217.29 C949.77 214.4 948.28 212.04 946.91 207.92 C946.57 206.95 946.24 205.98 945.89 204.99 C945.24 202.94 944.68 200.87 944.16 198.79 C942.59 195.32 940.41 194.87 937.03 193.29 C934.49 189.69 933.1 185.93 931.66 181.79 C929.81 176.94 928.43 173.33 924.03 170.29 C917.64 167.87 911.47 168.01 904.69 168.04 C902.82 168.03 902.82 168.03 900.91 168.03 C897.44 168.02 893.97 168.02 890.5 168.03 C886.72 168.03 882.95 168.02 879.18 168.02 C872.56 168.01 865.95 168.01 859.33 168.01 C849.49 168.02 839.66 168.01 829.82 168 C811.23 167.99 792.64 167.99 774.05 167.99 C759.7 167.99 745.35 167.99 731 167.98 C728.93 167.98 726.87 167.98 724.81 167.98 C721.71 167.98 718.6 167.98 715.5 167.98 C686.63 167.97 657.75 167.97 628.88 167.97 C627.79 167.97 626.7 167.97 625.58 167.97 C620.06 167.97 614.54 167.97 609.03 167.97 C607.93 167.97 606.83 167.97 605.7 167.97 C603.49 167.97 601.27 167.98 599.05 167.98 C564.55 167.98 530.05 167.97 495.55 167.95 C456.81 167.93 418.06 167.92 379.32 167.93 C375.19 167.93 371.06 167.93 366.93 167.93 C365.92 167.93 364.9 167.93 363.85 167.93 C348.49 167.93 333.12 167.92 317.76 167.91 C300.29 167.9 282.82 167.9 265.36 167.91 C255.57 167.92 245.79 167.92 236.01 167.9 C229.48 167.89 222.96 167.9 216.43 167.91 C212.71 167.91 208.98 167.92 205.26 167.9 C201.25 167.89 197.25 167.9 193.24 167.92 C191.5 167.9 191.5 167.9 189.72 167.89 C181.03 167.95 175.88 169.56 170.03 176.29 Z M73.03 490.29 C72.73 492.61 72.73 492.61 72.78 495.34 C72.77 496.42 72.77 497.49 72.76 498.6 C72.77 499.79 72.77 500.98 72.78 502.21 C72.77 503.47 72.77 504.73 72.77 506.02 C72.76 509.53 72.76 513.03 72.77 516.53 C72.77 520.31 72.77 524.08 72.76 527.85 C72.75 535.25 72.76 542.65 72.76 550.05 C72.77 556.06 72.77 562.06 72.76 568.07 C72.76 568.93 72.76 569.78 72.76 570.66 C72.76 572.4 72.76 574.13 72.76 575.87 C72.76 592.15 72.76 608.43 72.77 624.71 C72.78 638.69 72.78 652.67 72.77 666.66 C72.76 682.88 72.76 699.1 72.76 715.32 C72.76 717.05 72.76 718.78 72.76 720.51 C72.76 721.36 72.76 722.21 72.77 723.08 C72.77 729.09 72.76 735.09 72.76 741.1 C72.75 748.41 72.76 755.73 72.77 763.04 C72.77 766.78 72.77 770.51 72.77 774.25 C72.76 778.29 72.77 782.33 72.78 786.37 C72.77 787.56 72.77 788.75 72.76 789.98 C72.77 791.06 72.77 792.13 72.78 793.24 C72.78 794.17 72.78 795.11 72.78 796.07 C72.82 798.5 72.82 798.5 75.03 800.29 C77.07 800.59 77.07 800.59 79.46 800.54 C80.39 800.55 81.33 800.55 82.29 800.56 C83.33 800.55 84.37 800.55 85.43 800.54 C86.53 800.55 87.62 800.55 88.75 800.55 C92.44 800.56 96.14 800.56 99.83 800.55 C102.47 800.55 105.1 800.56 107.74 800.56 C114.18 800.57 120.61 800.57 127.04 800.56 C132.27 800.56 137.5 800.56 142.73 800.56 C143.47 800.56 144.21 800.56 144.98 800.56 C146.49 800.56 148 800.56 149.51 800.56 C163.67 800.57 177.83 800.56 192 800.55 C204.16 800.54 216.33 800.54 228.49 800.55 C242.6 800.56 256.71 800.57 270.82 800.56 C272.33 800.56 273.83 800.56 275.34 800.56 C276.07 800.56 276.81 800.56 277.58 800.56 C282.8 800.56 288.03 800.56 293.25 800.56 C299.61 800.57 305.97 800.57 312.34 800.56 C315.59 800.55 318.83 800.55 322.08 800.56 C325.6 800.56 329.11 800.55 332.63 800.54 C333.67 800.55 334.7 800.55 335.77 800.56 C337.17 800.55 337.17 800.55 338.61 800.54 C339.82 800.54 339.82 800.54 341.07 800.54 C343.27 800.46 343.27 800.46 345.03 798.29 C345.34 795.88 345.34 795.88 345.29 793.04 C345.3 791.37 345.3 791.37 345.31 789.67 C345.31 788.44 345.31 787.22 345.3 785.95 C345.31 783.98 345.32 782 345.33 780.02 C345.33 777.89 345.34 775.76 345.34 773.63 C345.34 769.18 345.36 764.73 345.38 760.29 C345.43 749.23 345.46 738.17 345.48 727.12 C345.5 718.54 345.52 709.96 345.56 701.39 C345.58 696.98 345.59 692.57 345.59 688.16 C345.59 684.75 345.61 681.33 345.63 677.92 C345.63 676.72 345.62 675.51 345.62 674.27 C345.7 664.74 346.58 655.37 352.03 647.29 C352.82 646.61 353.6 645.93 354.41 645.23 C357.73 641.51 359.1 637.67 360.82 633.03 C361.97 630.43 362.81 629.03 365.03 627.29 C365.84 627.06 366.64 626.84 367.47 626.6 C370.48 625.06 370.56 624.43 371.78 621.42 C373.39 617.77 374.79 616.56 378.47 615.04 C379.26 614.75 380.04 614.45 380.86 614.15 C384.88 612.56 387.51 609.9 390.28 606.67 C398.6 599.48 414.37 601.14 424.75 601.15 C425.88 601.15 427.01 601.14 428.17 601.14 C431.92 601.13 435.67 601.13 439.43 601.13 C442.13 601.12 444.83 601.12 447.53 601.11 C454.85 601.1 462.17 601.09 469.48 601.09 C474.06 601.09 478.64 601.08 483.21 601.08 C495.9 601.07 508.58 601.06 521.27 601.05 C522.49 601.05 522.49 601.05 523.73 601.05 C524.94 601.05 524.94 601.05 526.19 601.05 C527.83 601.05 529.48 601.05 531.12 601.05 C531.94 601.05 532.75 601.05 533.6 601.05 C546.82 601.05 560.05 601.03 573.28 601 C586.89 600.98 600.49 600.97 614.1 600.97 C621.73 600.97 629.36 600.96 636.99 600.94 C643.48 600.93 649.97 600.92 656.47 600.93 C659.78 600.93 663.08 600.93 666.39 600.92 C669.99 600.91 673.59 600.91 677.18 600.92 C678.73 600.91 678.73 600.91 680.31 600.9 C689.32 600.96 698.45 602.07 706.03 607.29 C706.55 608.09 707.06 608.9 707.59 609.73 C710.95 613.25 714.53 613.95 719.16 615.2 C722.34 616.41 723.88 617.68 726.03 620.29 C726.28 621.12 726.53 621.94 726.78 622.79 C728.27 625.76 728.94 625.84 731.91 627.04 C735.56 628.65 736.73 630.03 738.22 633.73 C738.51 634.52 738.8 635.3 739.11 636.11 C740.43 639.22 742.55 641.05 745.03 643.29 C754 652.52 752.18 669.5 752.21 681.44 C752.22 683.38 752.23 685.33 752.24 687.27 C752.25 689.34 752.25 691.4 752.26 693.47 C752.28 697.78 752.3 702.1 752.33 706.41 C752.4 718.68 752.46 730.94 752.51 743.2 C752.54 749.99 752.57 756.78 752.62 763.58 C752.64 767.87 752.66 772.16 752.67 776.45 C752.68 779.74 752.71 783.02 752.73 786.3 C752.73 788.09 752.73 788.09 752.73 789.91 C752.75 791.53 752.75 791.53 752.76 793.19 C752.77 794.6 752.77 794.6 752.77 796.04 C752.82 798.49 752.82 798.49 755.03 800.29 C757.07 800.59 757.07 800.59 759.46 800.54 C760.39 800.55 761.33 800.55 762.29 800.56 C763.33 800.55 764.37 800.55 765.43 800.54 C766.53 800.55 767.62 800.55 768.75 800.55 C772.44 800.56 776.14 800.56 779.83 800.55 C782.47 800.55 785.1 800.56 787.74 800.56 C794.18 800.57 800.61 800.57 807.04 800.56 C812.27 800.56 817.5 800.56 822.73 800.56 C823.47 800.56 824.21 800.56 824.98 800.56 C826.49 800.56 828 800.56 829.51 800.56 C843.67 800.57 857.83 800.56 872 800.55 C884.16 800.54 896.33 800.54 908.49 800.55 C922.6 800.56 936.71 800.57 950.82 800.56 C952.33 800.56 953.83 800.56 955.34 800.56 C956.07 800.56 956.81 800.56 957.58 800.56 C962.8 800.56 968.03 800.56 973.25 800.56 C979.61 800.57 985.97 800.57 992.34 800.56 C995.59 800.55 998.83 800.55 1002.08 800.56 C1005.6 800.56 1009.11 800.55 1012.63 800.54 C1013.67 800.55 1014.7 800.55 1015.77 800.56 C1017.17 800.55 1017.17 800.55 1018.61 800.54 C1019.42 800.54 1020.23 800.54 1021.07 800.54 C1023.27 800.46 1023.27 800.46 1025.03 798.29 C1025.34 795.97 1025.34 795.97 1025.28 793.24 C1025.29 792.16 1025.29 791.09 1025.3 789.98 C1025.29 788.79 1025.29 787.6 1025.29 786.37 C1025.29 784.48 1025.29 784.48 1025.3 782.56 C1025.3 779.06 1025.3 775.55 1025.29 772.05 C1025.29 768.27 1025.3 764.5 1025.3 760.73 C1025.31 753.33 1025.31 745.93 1025.3 738.54 C1025.3 732.53 1025.3 726.52 1025.3 720.51 C1025.3 719.65 1025.3 718.8 1025.3 717.92 C1025.3 716.18 1025.3 714.45 1025.3 712.72 C1025.31 696.43 1025.3 680.15 1025.29 663.87 C1025.28 649.89 1025.28 635.91 1025.29 621.92 C1025.3 605.7 1025.31 589.48 1025.3 573.26 C1025.3 571.53 1025.3 569.8 1025.3 568.07 C1025.3 567.22 1025.3 566.37 1025.3 565.5 C1025.3 559.49 1025.3 553.49 1025.3 547.48 C1025.31 540.17 1025.31 532.85 1025.3 525.54 C1025.29 521.8 1025.29 518.07 1025.3 514.33 C1025.3 510.29 1025.3 506.25 1025.29 502.21 C1025.29 500.42 1025.29 500.42 1025.3 498.6 C1025.29 496.99 1025.29 496.99 1025.28 495.34 C1025.28 494.41 1025.28 493.47 1025.28 492.51 C1025.24 490.09 1025.24 490.09 1023.03 488.29 C1020.15 487.99 1020.15 487.99 1016.71 488.04 C1016.05 488.04 1015.39 488.03 1014.71 488.03 C1012.47 488.02 1010.23 488.03 1007.99 488.04 C1006.37 488.04 1004.75 488.03 1003.13 488.03 C998.65 488.02 994.16 488.03 989.68 488.03 C984.81 488.04 979.95 488.03 975.08 488.03 C966.54 488.02 958.01 488.02 949.47 488.03 C936.77 488.03 924.08 488.03 911.38 488.02 C888.71 488.01 866.04 488.01 843.37 488.02 C823.53 488.02 803.69 488.03 783.85 488.02 C782.54 488.02 781.22 488.02 779.87 488.02 C774.54 488.02 769.2 488.02 763.87 488.02 C748.96 488.02 734.06 488.02 719.15 488.02 C718.13 488.02 718.13 488.02 717.09 488.02 C695.45 488.02 673.8 488.02 652.16 488.02 C651.11 488.02 651.11 488.02 650.03 488.02 C638.63 488.03 627.22 488.03 615.82 488.03 C570.58 488.04 525.34 488.04 480.1 488.03 C468.7 488.03 457.3 488.02 445.9 488.02 C445.2 488.02 444.5 488.02 443.78 488.02 C422.16 488.02 400.54 488.02 378.92 488.02 C378.24 488.02 377.56 488.02 376.86 488.02 C361.97 488.02 347.08 488.02 332.19 488.02 C326.19 488.02 320.2 488.02 314.21 488.02 C312.9 488.02 311.59 488.02 310.24 488.02 C290.41 488.03 270.58 488.02 250.75 488.02 C228.21 488.01 205.67 488.01 183.13 488.02 C170.5 488.03 157.87 488.03 145.25 488.02 C136.83 488.02 128.41 488.02 119.99 488.03 C115.18 488.04 110.37 488.04 105.56 488.03 C101.2 488.02 96.83 488.03 92.47 488.04 C90.89 488.04 89.31 488.04 87.74 488.03 C85.61 488.03 83.48 488.03 81.36 488.04 C80.17 488.04 78.99 488.04 77.77 488.04 C74.89 488.01 74.89 488.01 73.03 490.29 Z M433.03 690.29 C432.73 692.88 432.73 692.88 432.78 695.97 C432.77 697.18 432.77 698.4 432.76 699.65 C432.77 701.01 432.77 702.37 432.78 703.73 C432.78 705.16 432.77 706.6 432.77 708.04 C432.76 712 432.76 715.95 432.77 719.91 C432.77 724.18 432.77 728.44 432.76 732.71 C432.75 741.07 432.76 749.43 432.76 757.79 C432.77 764.58 432.77 771.37 432.76 778.16 C432.76 779.13 432.76 780.09 432.76 781.09 C432.76 783.05 432.76 785.01 432.76 786.97 C432.76 805.36 432.76 823.76 432.77 842.16 C432.78 857.96 432.78 873.77 432.77 889.57 C432.76 907.9 432.76 926.23 432.76 944.56 C432.76 946.51 432.76 948.47 432.76 950.42 C432.76 951.38 432.76 952.34 432.77 953.33 C432.77 960.12 432.76 966.91 432.76 973.69 C432.75 981.96 432.76 990.22 432.77 998.49 C432.77 1002.71 432.77 1006.93 432.77 1011.15 C432.76 1015.01 432.76 1018.87 432.77 1022.73 C432.78 1024.13 432.78 1025.53 432.77 1026.93 C432.76 1028.83 432.77 1030.72 432.78 1032.62 C432.78 1034.2 432.78 1034.2 432.78 1035.81 C432.79 1038.47 432.79 1038.47 435.03 1040.29 C438.02 1040.49 440.92 1040.56 443.91 1040.54 C445.31 1040.55 445.31 1040.55 446.74 1040.55 C449.88 1040.56 453.02 1040.56 456.16 1040.55 C458.4 1040.55 460.64 1040.56 462.89 1040.56 C468.99 1040.57 475.1 1040.57 481.21 1040.56 C487.59 1040.55 493.97 1040.56 500.34 1040.56 C511.74 1040.57 523.15 1040.56 534.55 1040.55 C544.89 1040.54 555.23 1040.54 565.58 1040.55 C577.58 1040.56 589.58 1040.57 601.59 1040.56 C607.94 1040.56 614.3 1040.56 620.66 1040.56 C626.63 1040.57 632.61 1040.56 638.58 1040.55 C640.78 1040.55 642.98 1040.55 645.18 1040.56 C648.17 1040.56 651.16 1040.55 654.15 1040.54 C655.03 1040.55 655.91 1040.55 656.82 1040.56 C661.4 1040.74 661.4 1040.74 665.03 1038.29 C665.34 1035.7 665.34 1035.7 665.28 1032.62 C665.29 1030.79 665.29 1030.79 665.3 1028.93 C665.29 1027.57 665.29 1026.21 665.29 1024.85 C665.29 1023.42 665.29 1021.98 665.3 1020.54 C665.3 1016.59 665.3 1012.63 665.29 1008.67 C665.29 1004.4 665.3 1000.14 665.3 995.87 C665.31 987.51 665.31 979.15 665.3 970.79 C665.3 964 665.3 957.21 665.3 950.42 C665.3 948.97 665.3 948.97 665.3 947.5 C665.3 945.54 665.3 943.58 665.3 941.61 C665.31 923.22 665.3 904.82 665.29 886.42 C665.28 870.62 665.28 854.82 665.29 839.01 C665.3 820.68 665.31 802.35 665.3 784.02 C665.3 782.07 665.3 780.11 665.3 778.16 C665.3 777.2 665.3 776.24 665.3 775.25 C665.3 768.46 665.3 761.68 665.3 754.89 C665.31 746.62 665.31 738.36 665.3 730.09 C665.29 725.87 665.29 721.65 665.3 717.43 C665.3 713.57 665.3 709.71 665.29 705.85 C665.29 704.45 665.29 703.05 665.29 701.65 C665.3 699.75 665.29 697.86 665.28 695.97 C665.28 694.91 665.28 693.86 665.28 692.77 C665.28 690.11 665.28 690.11 663.03 688.29 C660.04 688.09 657.14 688.02 654.15 688.04 C653.22 688.03 652.29 688.03 651.33 688.03 C648.19 688.02 645.05 688.03 641.91 688.03 C639.66 688.03 637.42 688.03 635.18 688.02 C629.07 688.01 622.96 688.02 616.85 688.02 C610.48 688.03 604.1 688.02 597.72 688.02 C586.32 688.02 574.92 688.02 563.52 688.03 C553.17 688.04 542.83 688.04 532.48 688.03 C520.48 688.02 508.48 688.02 496.48 688.02 C490.12 688.02 483.76 688.02 477.41 688.02 C471.43 688.01 465.46 688.02 459.48 688.03 C457.28 688.03 455.08 688.03 452.88 688.03 C449.89 688.02 446.9 688.03 443.91 688.04 C443.03 688.03 442.15 688.03 441.25 688.02 C436.66 687.84 436.66 687.84 433.03 690.29 Z M73.03 890.29 C72.73 892.96 72.73 892.96 72.78 896.14 C72.77 897.38 72.77 898.63 72.76 899.91 C72.76 901.3 72.77 902.68 72.77 904.07 C72.77 905.53 72.77 906.98 72.76 908.44 C72.75 912.4 72.76 916.35 72.76 920.31 C72.77 924.45 72.76 928.59 72.76 932.72 C72.76 939.67 72.76 946.62 72.77 953.56 C72.78 961.6 72.78 969.64 72.77 977.68 C72.76 984.58 72.76 991.47 72.76 998.37 C72.77 1002.49 72.77 1006.61 72.76 1010.73 C72.75 1014.61 72.76 1018.48 72.77 1022.35 C72.77 1023.78 72.77 1025.2 72.77 1026.63 C72.76 1028.57 72.77 1030.51 72.78 1032.44 C72.78 1033.53 72.78 1034.62 72.78 1035.74 C72.78 1038.46 72.78 1038.46 75.03 1040.29 C77.07 1040.59 77.07 1040.59 79.46 1040.54 C80.86 1040.55 80.86 1040.55 82.29 1040.56 C83.33 1040.55 84.37 1040.55 85.43 1040.54 C86.53 1040.55 87.62 1040.55 88.75 1040.55 C92.44 1040.56 96.14 1040.56 99.83 1040.55 C102.47 1040.55 105.1 1040.56 107.74 1040.56 C114.18 1040.57 120.61 1040.57 127.04 1040.56 C132.27 1040.56 137.5 1040.56 142.73 1040.56 C143.47 1040.56 144.21 1040.56 144.98 1040.56 C146.49 1040.56 148 1040.56 149.51 1040.56 C163.67 1040.57 177.83 1040.56 192 1040.55 C204.16 1040.54 216.33 1040.54 228.49 1040.55 C242.6 1040.56 256.71 1040.57 270.82 1040.56 C272.33 1040.56 273.83 1040.56 275.34 1040.56 C276.07 1040.56 276.81 1040.56 277.58 1040.56 C282.8 1040.56 288.03 1040.56 293.25 1040.56 C299.61 1040.57 305.97 1040.57 312.34 1040.56 C315.59 1040.55 318.83 1040.55 322.08 1040.56 C325.6 1040.56 329.11 1040.55 332.63 1040.54 C334.18 1040.55 334.18 1040.55 335.77 1040.56 C336.7 1040.55 337.64 1040.55 338.61 1040.54 C339.82 1040.54 339.82 1040.54 341.07 1040.54 C343.27 1040.46 343.27 1040.46 345.03 1038.29 C345.34 1035.62 345.34 1035.62 345.29 1032.44 C345.29 1031.2 345.3 1029.95 345.3 1028.67 C345.3 1027.28 345.29 1025.9 345.29 1024.51 C345.29 1023.05 345.3 1021.6 345.3 1020.14 C345.31 1016.19 345.31 1012.23 345.3 1008.27 C345.3 1004.13 345.3 1000 345.3 995.86 C345.31 988.91 345.3 981.96 345.29 975.02 C345.28 966.98 345.29 958.94 345.3 950.9 C345.31 944 345.31 937.11 345.3 930.21 C345.3 926.09 345.3 921.97 345.3 917.85 C345.31 913.98 345.31 910.1 345.29 906.23 C345.29 904.8 345.29 903.38 345.3 901.95 C345.3 900.01 345.29 898.08 345.29 896.14 C345.28 895.05 345.28 893.96 345.28 892.84 C345.29 890.12 345.29 890.12 343.03 888.29 C340.99 887.99 340.99 887.99 338.61 888.04 C337.2 888.03 337.2 888.03 335.77 888.02 C334.73 888.03 333.7 888.03 332.63 888.04 C330.99 888.03 330.99 888.03 329.31 888.03 C325.62 888.02 321.93 888.03 318.23 888.03 C315.6 888.03 312.96 888.03 310.32 888.02 C303.89 888.01 297.45 888.01 291.02 888.02 C285.79 888.02 280.56 888.03 275.34 888.02 C274.59 888.02 273.85 888.02 273.08 888.02 C271.57 888.02 270.07 888.02 268.56 888.02 C254.39 888.01 240.23 888.02 226.07 888.03 C213.9 888.04 201.74 888.04 189.57 888.03 C175.46 888.02 161.35 888.01 147.24 888.02 C145.74 888.02 144.23 888.02 142.73 888.02 C141.99 888.02 141.25 888.02 140.49 888.02 C135.26 888.03 130.04 888.02 124.81 888.02 C118.45 888.01 112.09 888.01 105.73 888.02 C102.48 888.03 99.23 888.03 95.98 888.03 C92.46 888.02 88.95 888.03 85.43 888.04 C83.88 888.03 83.88 888.03 82.29 888.02 C81.36 888.03 80.42 888.03 79.46 888.04 C78.24 888.04 78.24 888.04 77 888.04 C74.8 888.12 74.8 888.12 73.03 890.29 Z M753.03 890.29 C752.73 892.96 752.73 892.96 752.78 896.14 C752.77 897.38 752.77 898.63 752.76 899.91 C752.76 901.3 752.77 902.68 752.77 904.07 C752.77 905.53 752.77 906.98 752.76 908.44 C752.75 912.4 752.76 916.35 752.76 920.31 C752.77 924.45 752.76 928.59 752.76 932.72 C752.76 939.67 752.76 946.62 752.77 953.56 C752.78 961.6 752.78 969.64 752.77 977.68 C752.76 984.58 752.76 991.47 752.76 998.37 C752.77 1002.49 752.77 1006.61 752.76 1010.73 C752.75 1014.61 752.76 1018.48 752.77 1022.35 C752.77 1023.78 752.77 1025.2 752.77 1026.63 C752.76 1028.57 752.77 1030.51 752.78 1032.44 C752.78 1033.53 752.78 1034.62 752.78 1035.74 C752.78 1038.46 752.78 1038.46 755.03 1040.29 C757.07 1040.59 757.07 1040.59 759.46 1040.54 C760.86 1040.55 760.86 1040.55 762.29 1040.56 C763.33 1040.55 764.37 1040.55 765.43 1040.54 C766.53 1040.55 767.62 1040.55 768.75 1040.55 C772.44 1040.56 776.14 1040.56 779.83 1040.55 C782.47 1040.55 785.1 1040.56 787.74 1040.56 C794.18 1040.57 800.61 1040.57 807.04 1040.56 C812.27 1040.56 817.5 1040.56 822.73 1040.56 C823.47 1040.56 824.21 1040.56 824.98 1040.56 C826.49 1040.56 828 1040.56 829.51 1040.56 C843.67 1040.57 857.83 1040.56 872 1040.55 C884.16 1040.54 896.33 1040.54 908.49 1040.55 C922.6 1040.56 936.71 1040.57 950.82 1040.56 C952.33 1040.56 953.83 1040.56 955.34 1040.56 C956.07 1040.56 956.81 1040.56 957.58 1040.56 C962.8 1040.56 968.03 1040.56 973.25 1040.56 C979.61 1040.57 985.97 1040.57 992.34 1040.56 C995.59 1040.55 998.83 1040.55 1002.08 1040.56 C1005.6 1040.56 1009.11 1040.55 1012.63 1040.54 C1014.18 1040.55 1014.18 1040.55 1015.77 1040.56 C1016.7 1040.55 1017.64 1040.55 1018.61 1040.54 C1019.82 1040.54 1019.82 1040.54 1021.07 1040.54 C1023.27 1040.46 1023.27 1040.46 1025.03 1038.29 C1025.34 1035.62 1025.34 1035.62 1025.29 1032.44 C1025.29 1031.2 1025.3 1029.95 1025.3 1028.67 C1025.3 1027.28 1025.29 1025.9 1025.29 1024.51 C1025.29 1023.05 1025.3 1021.6 1025.3 1020.14 C1025.31 1016.19 1025.31 1012.23 1025.3 1008.27 C1025.3 1004.13 1025.3 1000 1025.3 995.86 C1025.31 988.91 1025.3 981.96 1025.29 975.02 C1025.28 966.98 1025.29 958.94 1025.3 950.9 C1025.31 944 1025.31 937.11 1025.3 930.21 C1025.3 926.09 1025.3 921.97 1025.3 917.85 C1025.31 913.98 1025.31 910.1 1025.29 906.23 C1025.29 904.8 1025.29 903.38 1025.3 901.95 C1025.3 900.01 1025.29 898.08 1025.29 896.14 C1025.28 895.05 1025.28 893.96 1025.28 892.84 C1025.29 890.12 1025.29 890.12 1023.03 888.29 C1020.99 887.99 1020.99 887.99 1018.61 888.04 C1017.2 888.03 1017.2 888.03 1015.77 888.02 C1014.73 888.03 1013.7 888.03 1012.63 888.04 C1010.99 888.03 1010.99 888.03 1009.31 888.03 C1005.62 888.02 1001.93 888.03 998.23 888.03 C995.6 888.03 992.96 888.03 990.32 888.02 C983.89 888.01 977.45 888.01 971.02 888.02 C965.79 888.02 960.56 888.03 955.34 888.02 C954.59 888.02 953.85 888.02 953.08 888.02 C951.57 888.02 950.07 888.02 948.56 888.02 C934.39 888.01 920.23 888.02 906.07 888.03 C893.9 888.04 881.74 888.04 869.57 888.03 C855.46 888.02 841.35 888.01 827.24 888.02 C825.74 888.02 824.23 888.02 822.73 888.02 C821.99 888.02 821.25 888.02 820.49 888.02 C815.26 888.03 810.04 888.02 804.81 888.02 C798.45 888.01 792.09 888.01 785.73 888.02 C782.48 888.03 779.23 888.03 775.98 888.03 C772.46 888.02 768.95 888.03 765.43 888.04 C763.88 888.03 763.88 888.03 762.29 888.02 C761.36 888.03 760.42 888.03 759.46 888.04 C758.24 888.04 758.24 888.04 757 888.04 C754.8 888.12 754.8 888.12 753.03 890.29 Z " fill="#000000" transform="translate(90.96826171875,75.70947265625)"/>
</svg>
