<?xml version="1.0" encoding="UTF-8"?>
<svg version="1.1" xmlns="http://www.w3.org/2000/svg" width="97" height="96">
<path d="M0 0 C2.31 0 4.62 0 7 0 C7.2475 1.093125 7.495 2.18625 7.75 3.3125 C9.0595294 7.17561172 9.5002492 8.1529093 13 10 C14.98014432 10.72351427 16.97821315 11.40265389 19 12 C19 13.98 19 15.96 19 18 C10.42857143 18.28571429 10.42857143 18.28571429 7 16 C8.40664584 21.03447566 8.40664584 21.03447566 12.203125 24.35546875 C14.44627284 25.33243723 16.68224974 26.21769855 19 27 C19 28.98 19 30.96 19 33 C17.7625 33.04125 16.525 33.0825 15.25 33.125 C14.55390625 33.14820313 13.8578125 33.17140625 13.140625 33.1953125 C11 33 11 33 7 31 C7 38.59 7 46.18 7 54 C8.32 54 9.64 54 11 54 C11.22276611 53.3402417 11.44553223 52.6804834 11.67504883 52.00073242 C13.43186474 48.02191827 15.77149634 44.58672935 18.19921875 40.98828125 C18.96912895 39.83588203 18.96912895 39.83588203 19.7545929 38.66020203 C21.39459313 36.20805559 23.04106693 33.76033057 24.6875 31.3125 C25.77579047 29.68581431 26.86368507 28.0588637 27.95117188 26.43164062 C43.97391357 2.48668047 43.97391357 2.48668047 47 0 C51.90686825 -0.64352371 53.70256532 -0.87554775 57.87109375 1.9375 C61.87807897 5.49252207 64.48444569 9.96254531 67.25 14.5 C68.04277344 15.76263672 68.04277344 15.76263672 68.8515625 17.05078125 C71.27815852 20.96166569 73.37236075 24.68115327 75 29 C71.25 32 71.25 32 69 32 C65 26.58823529 65 26.58823529 65 24 C62.03 24 59.06 24 56 24 C55.34 25.32 54.68 26.64 54 28 C53.10248959 29.44233344 52.16341331 30.85951666 51.1875 32.25 C50.46626953 33.30960938 50.46626953 33.30960938 49.73046875 34.390625 C48 36 48 36 45.5078125 36.484375 C43 36 43 36 41.19921875 34.25 C40.70035156 33.5075 40.20148437 32.765 39.6875 32 C39.17574219 31.2575 38.66398437 30.515 38.13671875 29.75 C37.76160156 29.1725 37.38648438 28.595 37 28 C32.50644607 33.99956792 28.2386293 40.0769448 24.21484375 46.3984375 C23.80617065 47.03740967 23.39749756 47.67638184 22.97644043 48.3347168 C21.98276455 49.8888346 20.99116111 51.44427716 20 53 C20.62782883 52.99920441 21.25565765 52.99840881 21.9025116 52.99758911 C28.440472 52.9951503 34.97724515 53.03434189 41.51489258 53.09765625 C43.95428958 53.11581835 46.39378953 53.1233844 48.83325195 53.12011719 C52.34146809 53.11726092 55.8475483 53.15257109 59.35546875 53.1953125 C60.44522507 53.18621857 61.53498138 53.17712463 62.65776062 53.16775513 C70.02607781 53.30901383 70.02607781 53.30901383 72.80923462 55.28363037 C74.95017862 57.73446966 75.96289449 59.82189353 76.625 63 C75.80357398 66.94284489 74.18115663 69.58145847 71 72 C67.77599292 72.87545954 64.65004248 72.83856036 61.32421875 72.8046875 C59.93648003 72.82524704 59.93648003 72.82524704 58.52070618 72.84622192 C55.5758089 72.88350954 52.63259977 72.87980793 49.6875 72.875 C47.68682261 72.89312765 45.68616755 72.91393055 43.68554688 72.9375 C38.79008185 72.98933948 33.89572444 73.00443138 29 73 C29 75.31 29 77.62 29 80 C44.84 80.495 44.84 80.495 61 81 C61 82.98 61 84.96 61 87 C56.24952648 87.12391876 51.50000039 87.21448561 46.74829102 87.2746582 C45.13321539 87.29974959 43.51825274 87.33383126 41.90356445 87.37719727 C39.57735294 87.43809286 37.25264641 87.46626124 34.92578125 87.48828125 C33.84892815 87.52699089 33.84892815 87.52699089 32.75032043 87.56648254 C28.78504781 87.5686837 27.17479228 87.14336372 24.06713867 84.59448242 C20.82799658 80.52900905 20.64671819 78.21090668 21 73 C22.65139305 69.4613006 23.71605229 68.18929847 27 66 C28.87931824 65.7215271 28.87931824 65.7215271 31.01245117 65.68115234 C31.81305466 65.66128265 32.61365814 65.64141296 33.43852234 65.62094116 C34.29798965 65.60938995 35.15745697 65.59783875 36.04296875 65.5859375 C36.9265657 65.56657135 37.81016266 65.5472052 38.72053528 65.5272522 C41.54275866 65.46747195 44.36502286 65.42107734 47.1875 65.375 C49.10092925 65.33681878 51.01434133 65.29776696 52.92773438 65.2578125 C57.61835021 65.16177168 62.30904652 65.0777349 67 65 C67 63.68 67 62.36 67 61 C37.3 60.505 37.3 60.505 7 60 C7 62.97 7 65.94 7 69 C4.69 69 2.38 69 0 69 C0 66.03 0 63.06 0 60 C-3.96 60 -7.92 60 -12 60 C-12 58.02 -12 56.04 -12 54 C-8.04 54 -4.08 54 0 54 C0 46.41 0 38.82 0 31 C-1.98 31.99 -1.98 31.99 -4 33 C-6.140625 33.1953125 -6.140625 33.1953125 -8.25 33.125 C-9.4875 33.08375 -10.725 33.0425 -12 33 C-12 31.02 -12 29.04 -12 27 C-11.38511719 26.79246094 -10.77023437 26.58492187 -10.13671875 26.37109375 C-5.30951849 24.64580419 -5.30951849 24.64580419 -1.734375 21.17578125 C-0.81822188 19.06283185 -0.81822188 19.06283185 0 16 C-0.495 16.33 -0.99 16.66 -1.5 17 C-5.09090894 18.43636358 -8.14456127 18.12851462 -12 18 C-12 16.02 -12 14.04 -12 12 C-11.37351562 11.74605469 -10.74703125 11.49210937 -10.1015625 11.23046875 C-9.28429687 10.88628906 -8.46703125 10.54210938 -7.625 10.1875 C-6.81289062 9.85105469 -6.00078125 9.51460937 -5.1640625 9.16796875 C-2.69852542 8.05560918 -2.69852542 8.05560918 -1 5 C-0.61500109 3.34450469 -0.27206865 1.6777567 0 0 Z M50 7 C47.87964465 9.31052994 47.87964465 9.31052994 45.875 12.25 C45.17117187 13.22453125 44.46734375 14.1990625 43.7421875 15.203125 C41.70290881 18.39731223 41.70290881 18.39731223 41 22 C43.35426499 24.77122275 43.35426499 24.77122275 46 27 C46.3403125 26.43410156 46.680625 25.86820313 47.03125 25.28515625 C50.94293157 19.36561686 50.94293157 19.36561686 54.1796875 18.24609375 C56.375 18 56.375 18 60 18 C59.21258141 16.53936857 58.4199095 15.08156827 57.625 13.625 C57.18414062 12.81289063 56.74328125 12.00078125 56.2890625 11.1640625 C55.0556107 8.89185698 55.0556107 8.89185698 53 7 C52.01 7 51.02 7 50 7 Z " fill="#000000" transform="translate(19,6)"/>
</svg>
