<?xml version="1.0" encoding="UTF-8"?>
<!-- Generator: visioncortex VTracer 0.6.3 -->
<svg version="1.1" xmlns="http://www.w3.org/2000/svg" width="1280" height="1280">
<path d="M0 0 C2.03 -0 4.06 -0 6.09 -0.01 C10.31 -0.01 14.52 -0 18.73 0 C24.08 0.02 29.42 0.01 34.77 -0 C38.95 -0.01 43.13 -0.01 47.31 -0 C49.27 -0 51.24 -0 53.21 -0.01 C70.81 -0.04 87.82 1.11 104.96 5.27 C105.77 5.44 106.58 5.62 107.42 5.8 C110.37 6.45 112.76 7.14 115.33 8.76 C122.14 12.66 131.47 12.33 139.17 12.96 C161.03 14.77 161.03 14.77 169.96 21.27 C176.98 24.87 184.32 25.57 192.06 26.64 C199.66 27.78 205.97 29.21 211.52 34.89 C215.82 39.08 220.65 39.28 226.39 39.64 C232.64 40.13 237.6 41.77 241.96 46.39 C242.96 48.27 242.96 48.27 242.96 50.27 C244.8 50.63 244.8 50.63 246.68 51 C248.32 51.34 249.95 51.68 251.58 52.02 C252.39 52.17 253.2 52.33 254.03 52.49 C260.23 53.8 264.96 55.56 268.87 60.86 C271.58 63.98 274.47 64.78 278.33 65.83 C284.57 67.59 289.9 69.48 293.87 74.86 C296.58 77.98 299.47 78.74 303.33 79.77 C310.35 81.65 314.35 84.44 319.27 89.77 C321.68 92.01 323.51 93.16 326.39 94.64 C329.66 96.35 331.72 97.9 333.96 100.83 C336.77 104.46 339.7 105.65 343.91 107.3 C346.84 108.68 348.26 110.55 349.96 113.27 C350.2 113.97 350.45 114.67 350.71 115.39 C352.49 118.07 354.81 118.2 357.75 119.16 C360.52 120.55 361.93 122.26 363.89 124.64 C367.18 128.62 370.2 130.85 374.78 133.16 C380.17 135.9 383.89 138.4 385.96 144.27 C387.27 144.97 388.61 145.63 389.96 146.27 C395.81 150.06 400.15 153.92 402.89 160.52 C403.83 162.5 403.83 162.5 406.18 162.92 C410.2 164.87 411.98 167.94 414.46 171.58 C417.68 176.23 420.89 180.29 424.96 184.27 C426.47 186.33 426.47 186.33 427.64 188.27 C428.06 188.95 428.48 189.63 428.91 190.34 C429.96 192.27 429.96 192.27 430.89 195.08 C432.44 198.26 434.83 198.77 437.96 200.27 C440.64 203.03 441.94 205.21 443.33 208.83 C444.66 212.44 444.66 212.44 447.81 214.02 C451.68 216.78 452.94 219.37 454.89 223.58 C457.93 229.76 457.93 229.76 462.58 234.77 C466.63 238.27 468.07 242.97 469.65 247.94 C470.88 251.52 471.68 253.09 474.89 255.2 C479.05 258 480.16 261.16 482.02 265.7 C484.35 271.31 486.44 275.05 490.96 279.27 C493.81 283.23 494.95 287.42 496.21 292.08 C497.94 298.13 499.85 301.82 504.38 306.29 C508.11 310.96 508.56 317.55 509.4 323.3 C510.3 329.34 511.09 332.21 515.96 336.27 C521.43 342.6 521.66 350.59 522.85 358.61 C523.95 365.16 525.25 369.33 529.52 374.41 C535.29 381.86 535.06 392.87 536.02 401.89 C536.26 404.11 536.5 406.33 536.75 408.55 C536.98 410.56 537.2 412.57 537.41 414.58 C538.4 421.24 540.46 426.55 543.74 432.35 C547.3 440.88 547.53 450.41 548.07 459.53 C548.11 460.22 548.15 460.92 548.2 461.64 C549.36 481.44 549.22 501.26 549.15 521.08 C549.14 525.08 549.14 529.08 549.14 533.08 C549.14 556.79 549.09 580.48 547.54 604.14 C547.47 605.17 547.4 606.2 547.33 607.26 C546.55 613.53 544.37 619.18 540.83 624.39 C535.49 632.59 536.13 644.22 535.43 653.76 C534.7 663.48 533.76 672.74 527.46 680.58 C524.27 684.64 523.35 689.34 522.14 694.28 C520.68 697.97 519.36 699.25 515.96 701.27 C508.45 702.74 501.4 701.72 493.89 700.77 C493.2 700.68 492.5 700.59 491.79 700.5 C482.59 699.33 474.49 697.81 466.52 692.85 C461.75 689.9 456.85 688.98 451.34 688.34 C450.1 688.18 448.85 688.02 447.56 687.86 C444.96 687.55 442.36 687.24 439.76 686.94 C429.78 685.68 422.78 683.61 414.96 677.27 C410.97 675.73 407.28 674.93 403.04 674.52 C401.93 674.4 400.82 674.29 399.68 674.17 C397.38 673.94 395.08 673.72 392.79 673.5 C382.97 672.47 375.17 670.85 366.96 665.27 C358.39 661.43 348.92 660.94 339.71 659.89 C322.24 657.71 322.24 657.71 316.91 652.12 C313.73 649.1 309.88 649.14 305.64 648.64 C304.75 648.52 303.86 648.4 302.95 648.28 C298.86 647.73 294.76 647.24 290.66 646.78 C280.61 645.6 272.82 643.82 264.96 637.27 C260.74 635.61 256.88 634.92 252.38 634.55 C250.51 634.39 250.51 634.39 248.61 634.22 C246.02 634 243.44 633.79 240.85 633.59 C232.11 632.79 223.57 631.73 216.83 625.64 C210.82 620.67 202.76 620.9 195.27 620.39 C174.93 618.75 174.93 618.75 168.07 612.73 C164.48 609.89 162.14 609.3 157.64 608.58 C156.61 608.41 156.61 608.41 155.56 608.23 C150.42 607.4 145.26 606.83 140.08 606.27 C124.51 604.56 124.51 604.56 118.77 599.77 C110.8 593.61 97.51 593.83 87.74 593.09 C80.5 592.46 73.37 591.06 67.77 586.14 C64.56 583.55 62.2 582.37 57.96 582.27 C56.31 583.91 56.48 586 56.16 588.26 C55.93 589.81 55.93 589.81 55.69 591.4 C55.37 593.56 55.07 595.73 54.77 597.9 C53.56 605.82 51.47 612.93 46.35 619.25 C44.73 621.6 44.41 623.19 44.08 626.01 C43.96 626.93 43.85 627.84 43.73 628.78 C43.62 629.74 43.51 630.71 43.39 631.7 C43.14 633.7 42.88 635.7 42.63 637.69 C42.24 640.85 41.88 644.02 41.54 647.18 C40.47 655.91 37.46 663.23 32.43 670.47 C30.61 673.93 30.31 676.77 29.93 680.66 C29.78 682.1 29.62 683.55 29.47 685 C29.24 687.25 29.02 689.51 28.8 691.76 C27.75 702.45 26.83 711.39 18.96 719.27 C16.24 726.71 15.95 734.65 15.19 742.49 C14.19 751.98 12.8 760.53 6.96 768.27 C2.98 774.23 2.91 781.51 2.31 788.51 C0.52 809.27 0.52 809.27 -5.61 816.52 C-11.02 823.36 -11.06 835.08 -11.48 843.45 C-12.07 853.49 -14.28 861.79 -21.04 869.27 C-23.31 875.47 -23.75 881.85 -24.42 888.39 C-25.81 900.8 -27.35 911.14 -35.04 921.27 C-37.14 927.08 -37.5 932.76 -37.92 938.89 C-38.8 949.96 -40.21 960.16 -47.04 969.27 C-48.83 973.07 -49.5 976.59 -50.01 980.75 C-50.17 981.99 -50.33 983.24 -50.49 984.53 C-50.82 987.12 -51.14 989.72 -51.46 992.32 C-53.85 1010.91 -53.85 1010.91 -58.54 1015.95 C-63.93 1021.8 -63.76 1032.1 -64.79 1039.7 C-64.91 1040.63 -65.04 1041.57 -65.17 1042.53 C-65.41 1044.36 -65.65 1046.19 -65.87 1048.03 C-66.67 1054.23 -67.97 1058.85 -72.13 1063.71 C-74.5 1066.87 -74.95 1069.26 -75.61 1073.14 C-75.72 1073.82 -75.84 1074.5 -75.97 1075.2 C-76.68 1079.45 -77.23 1083.72 -77.72 1088.01 C-80.64 1113.36 -80.64 1113.36 -86.57 1118.62 C-91.65 1124.3 -91.03 1135.13 -91.72 1142.29 C-92.5 1149.25 -93.48 1156.79 -98.73 1161.91 C-104.35 1166.37 -110.8 1167.51 -117.86 1167.52 C-119.83 1167.53 -119.83 1167.53 -121.85 1167.54 C-123.26 1167.54 -124.68 1167.54 -126.1 1167.53 C-127.57 1167.53 -129.05 1167.53 -130.52 1167.54 C-133.6 1167.54 -136.68 1167.54 -139.76 1167.53 C-143.69 1167.51 -147.61 1167.52 -151.54 1167.53 C-154.58 1167.54 -157.62 1167.54 -160.66 1167.53 C-162.11 1167.53 -163.56 1167.53 -165 1167.54 C-183.01 1167.58 -183.01 1167.58 -188.42 1163.45 C-192.17 1158.41 -192.26 1154.16 -191.48 1148.08 C-191.39 1147.33 -191.3 1146.57 -191.2 1145.8 C-190.3 1139.46 -188.7 1132.26 -183.51 1128.01 C-178.29 1121.8 -179.06 1109.76 -178.36 1102.08 C-177.39 1092.67 -176.07 1084.01 -169.04 1077.27 C-166.12 1069.79 -165.75 1061.56 -165.11 1053.64 C-163.71 1036.84 -163.71 1036.84 -158.85 1030.78 C-154.87 1025.8 -154.02 1021.47 -153.36 1015.2 C-153.18 1013.82 -153.18 1013.82 -153 1012.4 C-152.66 1009.69 -152.35 1006.98 -152.04 1004.27 C-149.93 985.83 -149.93 985.83 -143.92 978.77 C-139.23 972.51 -139.49 962.99 -138.67 955.45 C-136.19 934.34 -136.19 934.34 -131.02 929.28 C-125.36 923.5 -125.73 912.9 -125.04 905.2 C-124.16 895.37 -123.25 886.28 -117.04 878.27 C-114.53 874.5 -114.18 870.9 -113.54 866.52 C-113.41 865.67 -113.28 864.82 -113.15 863.94 C-112.55 860 -112 856.06 -111.58 852.1 C-109.51 833.2 -109.51 833.2 -103.48 827.89 C-101.23 825.35 -101.01 822.32 -100.48 819.08 C-100.36 818.37 -100.23 817.67 -100.1 816.94 C-99.36 812.62 -98.8 808.29 -98.33 803.93 C-97.44 795.8 -96.28 788.17 -90.92 781.7 C-86.3 775.71 -86.51 766.37 -85.67 759.08 C-82.8 735.94 -82.8 735.94 -76.19 727.21 C-72.86 721.57 -72.68 715.18 -72.23 708.83 C-71.36 698.73 -69.86 687.79 -63.98 679.28 C-61.72 675.77 -61.11 673 -60.42 668.89 C-60.3 668.2 -60.18 667.51 -60.05 666.79 C-59.33 662.55 -58.82 658.31 -58.38 654.04 C-57.51 645.71 -55.97 637.02 -50.48 630.37 C-48.49 627.46 -48.14 624.8 -47.54 621.33 C-47.42 620.64 -47.3 619.96 -47.17 619.26 C-46.45 615.1 -45.85 610.93 -45.29 606.75 C-45.1 605.36 -45.1 605.36 -44.91 603.93 C-44.67 602.11 -44.44 600.28 -44.22 598.45 C-43.38 591.98 -41.69 587.05 -37.48 581.95 C-32.9 575.59 -32.77 569.82 -33.92 562.2 C-34.28 560.22 -34.65 558.24 -35.04 556.27 C-35.69 556.19 -36.33 556.12 -36.99 556.04 C-75.21 551.53 -75.21 551.53 -83.04 545.27 C-86.6 542.89 -88.97 542.7 -93.2 542.15 C-94.65 541.95 -96.1 541.76 -97.55 541.56 C-99.82 541.25 -102.08 540.96 -104.35 540.67 C-123.32 538.25 -123.32 538.25 -130.86 531.69 C-133.9 529.71 -136.61 529.49 -140.2 529.02 C-140.89 528.92 -141.59 528.83 -142.3 528.72 C-144.53 528.41 -146.75 528.12 -148.98 527.83 C-174.79 524.44 -174.79 524.44 -185.17 517.36 C-191.05 513.92 -198.78 513.92 -205.42 513.39 C-214.21 512.56 -222.41 511.33 -229.48 505.64 C-235.17 501.28 -242.72 501.47 -249.62 500.85 C-271.34 498.86 -271.34 498.86 -279.67 492.7 C-287.04 487.71 -297.82 487.71 -306.45 486.78 C-316.47 485.7 -323.8 484.51 -331.04 477.27 C-338.43 474.57 -346.31 474.29 -354.09 473.59 C-362.93 472.68 -372.53 471.36 -379.67 465.64 C-385.6 461.06 -393.17 461.24 -400.38 460.57 C-410.99 459.6 -420.2 458.69 -429.16 452.45 C-433.57 449.68 -437.83 448.9 -442.96 448.34 C-444.31 448.18 -445.66 448.02 -447.01 447.86 C-449.11 447.63 -451.22 447.39 -453.32 447.17 C-468.45 445.52 -477.25 442.2 -488.04 431.27 C-488.65 430.67 -489.26 430.07 -489.88 429.46 C-492.07 427.13 -493.04 425.82 -493.04 422.58 C-492.04 420.27 -492.04 420.27 -490.61 418.89 C-484.92 412.98 -485.99 400.44 -485.36 392.84 C-484.54 384.14 -483.46 374.8 -477.42 368.02 C-473.06 362.97 -472.77 356.76 -472.17 350.33 C-471.48 344.19 -470.57 339.41 -467.04 334.27 C-466.21 333.83 -465.37 333.39 -464.51 332.95 C-461.81 331.45 -461.81 331.45 -461 328.48 C-460.81 327.4 -460.62 326.32 -460.42 325.2 C-460.18 324.04 -459.95 322.88 -459.7 321.68 C-459.38 319.99 -459.38 319.99 -459.04 318.27 C-457.8 312.26 -456.28 308.27 -452.17 303.64 C-447.49 298.24 -445.95 292.66 -444.15 285.9 C-442.72 281.19 -441.14 278.29 -437.54 274.92 C-434.63 271.82 -433.39 268.71 -432.04 264.77 C-429.79 258.14 -426.92 254.18 -421.04 250.27 C-420.21 248.12 -420.21 248.12 -419.67 245.64 C-417.55 238.01 -414.34 233.07 -408.04 228.27 C-406.09 225.49 -404.92 222.95 -403.73 219.77 C-401.68 215.52 -399.86 213.95 -396.04 211.27 C-395.38 211.27 -394.72 211.27 -394.04 211.27 C-393.9 210.67 -393.75 210.08 -393.6 209.47 C-391.91 203.52 -390.21 200.71 -385.04 197.27 C-384.05 196.94 -383.06 196.61 -382.04 196.27 C-381.01 194.24 -381.01 194.24 -380.23 191.77 C-375.38 178.84 -375.38 178.84 -370.09 176.34 C-367.21 174.83 -366.08 172.72 -364.29 170.02 C-361.21 165.61 -358.34 162.71 -353.92 159.73 C-351.18 157.59 -349.46 154.91 -347.48 152.08 C-345.42 149.47 -342.85 148 -340.04 146.27 C-338.34 144.64 -336.67 142.97 -335.04 141.27 C-331.27 137.39 -327.41 133.47 -323.04 130.27 C-322.38 130.27 -321.72 130.27 -321.04 130.27 C-320.79 129.67 -320.53 129.07 -320.26 128.45 C-317.23 123.01 -311.41 120.26 -305.73 118.27 C-301.7 116.82 -301.7 116.82 -299.23 113.27 C-298.84 112.28 -298.45 111.29 -298.04 110.27 C-295.32 107.62 -293.17 106.31 -289.61 104.95 C-286.15 103.32 -285.63 102.94 -283.61 100.08 C-280.03 95.47 -275.09 93.65 -269.93 91.26 C-265.24 89.03 -262.14 86.75 -258.75 82.78 C-256.5 80.79 -254.33 80.17 -251.48 79.27 C-247.59 78.04 -245.51 77.14 -243.11 73.83 C-238.74 67.92 -231.07 65.95 -224.17 64.39 C-220.84 63.19 -220.2 62.51 -218.11 59.83 C-212.95 53.31 -205.64 52.86 -197.78 51.79 C-193.42 50.95 -191.59 50.03 -188.98 46.39 C-184.23 40.44 -175.73 39.39 -168.67 37.83 C-163.63 36.64 -161.58 35.08 -158.04 31.27 C-149.69 26.06 -138.92 25.74 -129.38 24.59 C-126.89 24.24 -124.48 23.89 -122.04 23.27 C-121.34 21.95 -120.68 20.61 -120.04 19.27 C-116.14 16.4 -112.3 15.48 -107.61 14.77 C-106.85 14.64 -106.1 14.52 -105.33 14.4 C-96.08 12.99 -86.74 12.18 -77.41 11.36 C-68.8 10.57 -62.39 9.69 -54.9 5.21 C-48.61 2.02 -40.77 1.76 -33.86 1.16 C-32.9 1.07 -31.95 0.99 -30.97 0.9 C-20.64 0.06 -10.35 -0.02 0 0 Z M37.96 99.27 C36.44 99.69 34.92 100.09 33.39 100.45 C28.7 101.93 27.6 104.07 25.4 108.29 C23.08 111.47 19.84 112.44 16.32 113.98 C13.2 115.68 11.91 117.68 10.09 120.65 C8.96 122.27 8.96 122.27 6.08 124.14 C3.07 126.19 1.7 127.76 -0.42 130.64 C-3.29 134.52 -6.19 137.01 -10.13 139.73 C-12.87 141.93 -14.62 144.61 -16.61 147.46 C-18.04 149.27 -18.04 149.27 -21.04 151.2 C-24.67 153.7 -26.19 156.42 -28.48 160.12 C-30.05 162.28 -31.26 163.25 -33.54 164.58 C-38.03 167.37 -39.44 171.78 -41.39 176.52 C-43.04 179.27 -43.04 179.27 -46.06 180.77 C-49.85 182.67 -50.29 184.15 -51.67 188.08 C-55.59 198.45 -55.59 198.45 -60.48 202.08 C-63.58 204.72 -64.98 207.46 -66.86 211.02 C-69 215.07 -71.2 218.5 -74.61 221.58 C-76.99 224.21 -77.53 225.31 -78.48 228.58 C-80.22 234.51 -83.62 239.06 -88.17 243.2 C-90.6 245.88 -91.65 248.77 -93.04 252.08 C-94.65 255.59 -96.43 258.59 -100.07 260.12 C-102.2 261.11 -102.2 261.11 -102.98 263.25 C-103.19 264.04 -103.39 264.84 -103.61 265.66 C-103.85 266.53 -104.09 267.41 -104.33 268.31 C-104.57 269.22 -104.8 270.14 -105.04 271.08 C-108.42 284.08 -108.42 284.08 -114.13 287.52 C-117.25 290.37 -117.7 294.13 -118.67 298.14 C-121.45 309.1 -121.45 309.1 -123.04 312.27 C-125.54 313.39 -125.54 313.39 -128.04 314.27 C-129.91 317.06 -130.49 318.54 -131.19 321.72 C-131.39 322.59 -131.59 323.45 -131.8 324.35 C-132.21 326.15 -132.61 327.96 -133.01 329.78 C-134.37 335.59 -135.94 340.52 -140.58 344.63 C-142.43 346.7 -142.83 348.37 -143.47 351.05 C-143.71 352 -143.95 352.94 -144.2 353.91 C-144.67 355.87 -145.15 357.84 -145.62 359.8 C-147.44 366.97 -149.86 373.42 -154.63 379.18 C-156.34 381.71 -156.73 383.69 -157.22 386.7 C-157.4 387.76 -157.59 388.81 -157.78 389.9 C-157.97 391.01 -158.16 392.12 -158.36 393.27 C-162.03 413.26 -162.03 413.26 -169.04 420.27 C-168.72 422.87 -168.72 422.87 -168.04 425.27 C-166.81 425.65 -165.58 426.04 -164.32 426.44 C-162.68 426.96 -161.05 427.49 -159.42 428.02 C-158.61 428.27 -157.8 428.52 -156.97 428.78 C-152.1 430.37 -148.22 432.22 -144.04 435.27 C-136.53 439.25 -128.22 439.9 -119.84 440.66 C-99.27 442.59 -99.27 442.59 -93.63 448.83 C-91.2 451.03 -88.73 451.22 -85.54 451.83 C-84.89 451.95 -84.24 452.08 -83.57 452.21 C-78.17 453.19 -72.76 453.71 -67.29 454.2 C-58.59 455.02 -50.58 456.32 -43.54 461.89 C-34.64 468.66 -18.82 467.33 -8.04 468.27 C-4.99 464.05 -4.49 460.19 -4.11 455.14 C-3.27 446.62 -1.89 438.64 3.58 431.77 C9.55 424.1 8.77 410.64 9.64 401.32 C10.47 393.56 12 387.83 17.08 381.7 C21.41 376.08 21.38 368.91 21.89 362.08 C22.8 351.68 23.64 342.07 29.69 333.29 C35.08 324.68 35.22 313.73 36.33 303.93 C37.4 295.28 38.97 288.4 44.11 281.29 C46.59 277.22 47.02 273.51 47.58 268.83 C47.7 267.95 47.82 267.07 47.95 266.16 C48.5 262.1 48.99 258.04 49.41 253.97 C50.34 245.54 51.81 238.03 57.52 231.46 C59.51 228.42 59.92 225.29 60.46 221.77 C60.64 220.66 60.64 220.66 60.83 219.53 C61.51 215.38 62.1 211.22 62.64 207.05 C64.87 190 64.87 190 69.96 182.27 C74.42 175.33 75.16 168.24 75.77 160.2 C76.69 150.09 78.78 140.19 84.14 131.39 C87.89 124.93 88.23 117.78 88.83 110.45 C88.91 109.71 88.98 108.97 89.06 108.21 C89.28 104.86 89.22 102.71 87.48 99.8 C83.97 97.67 80.65 97.63 76.64 97.58 C75.17 97.54 73.69 97.49 72.22 97.44 C71.5 97.42 70.77 97.4 70.03 97.38 C67.96 97.27 67.96 97.27 64.45 96.76 C60.4 96.19 56.47 96.04 52.39 96.02 C51.3 95.98 51.3 95.98 50.19 95.95 C45.3 95.92 42.29 96.82 37.96 99.27 Z M-125.04 117.27 C-126.39 118.22 -127.7 119.22 -128.98 120.27 C-134.31 124.51 -140.03 125.74 -146.65 126.9 C-153.94 127.85 -153.94 127.85 -159.36 132.2 C-159.91 133.21 -160.47 134.22 -161.04 135.27 C-165.87 138.48 -171.24 139.55 -176.86 140.64 C-181.94 141.66 -181.94 141.66 -185.61 145.27 C-186.08 146.26 -186.55 147.25 -187.04 148.27 C-190.25 151.25 -193.65 152.2 -197.79 153.45 C-203.79 155.5 -207 157.7 -211.11 162.41 C-213.97 165.15 -217.16 166.12 -220.85 167.41 C-223.66 168.5 -225.15 169.95 -227.04 172.27 C-229.85 175.39 -232.25 177.49 -236.04 179.2 C-239.49 180.8 -241.21 182.54 -243.5 185.61 C-247.62 190.03 -253.53 193.52 -259.28 195.23 C-262.11 195.97 -262.11 195.97 -263.15 198.04 C-263.36 198.71 -263.58 199.38 -263.79 200.08 C-265.46 204.02 -267.13 205.09 -271.04 206.77 C-275.85 208.84 -277.33 210.7 -279.26 215.47 C-280.82 219.06 -283.56 220.08 -287.04 221.45 C-290.26 223.4 -290.51 223.88 -291.86 227.14 C-293.45 230.85 -294.89 231.97 -298.54 233.64 C-302.5 235.55 -303.75 237 -305.23 241.14 C-305.65 242.44 -305.65 242.44 -306.09 243.77 C-307.89 248.48 -311.43 251.75 -315.05 255.15 C-317.16 257.39 -318.46 259.56 -319.92 262.27 C-321.86 265.63 -322.73 267.08 -326.11 269.14 C-330.22 272.11 -331.06 275.68 -332.67 280.39 C-334.57 284.37 -337.14 286.51 -341.23 288.13 C-344.07 289.91 -344.22 292.22 -345.04 295.39 C-348.65 308.12 -348.65 308.12 -353.48 312.45 C-356.27 315.51 -357.1 317.77 -358.48 321.64 C-360.61 327.59 -363.08 333.28 -369.04 336.27 C-371.43 341.74 -372.27 347.57 -372.98 353.45 C-373.83 359.89 -374.85 364.76 -380.18 368.94 C-380.79 369.38 -381.41 369.82 -382.04 370.27 C-380.33 370.67 -378.62 371.08 -376.91 371.48 C-375.4 371.84 -373.88 372.2 -372.37 372.57 C-368.34 373.52 -364.32 374.42 -360.26 375.21 C-352.5 376.74 -345.88 378.09 -339.38 382.9 C-333.45 386.37 -326.49 386.6 -319.79 387.14 C-301.73 388.84 -301.73 388.84 -295.32 394.79 C-291.47 398.14 -287.3 398.5 -282.36 399.08 C-281.47 399.19 -280.58 399.31 -279.67 399.43 C-270.32 400.91 -270.32 400.91 -261.04 400.27 C-257.56 397.55 -256.36 395 -255.11 390.83 C-253.5 386.04 -251.61 383.83 -248.04 380.27 C-245.08 373.93 -244.47 366.86 -243.86 359.98 C-243.42 355.46 -242.54 352.07 -240.04 348.27 C-239.05 347.73 -238.05 347.19 -237.02 346.63 C-232.33 342.9 -232.28 338.11 -231.36 332.39 C-228.53 316.07 -228.53 316.07 -223.54 312.45 C-218.33 307.9 -217.89 300.6 -216.61 294.08 C-215.33 287.9 -214.15 283.71 -209.07 279.71 C-205.64 275.57 -205.15 270.43 -204.06 265.26 C-202.47 258.43 -199.97 255.21 -194.04 251.27 C-193.24 249.34 -193.24 249.34 -192.8 247.09 C-192.6 246.26 -192.4 245.43 -192.2 244.58 C-191.81 242.84 -191.41 241.1 -191.03 239.36 C-189.85 234.45 -188.79 230.88 -185.04 227.27 C-184.36 226.99 -183.68 226.72 -182.98 226.44 C-179.74 224.47 -179.16 220.9 -178.04 217.45 C-175.95 211.09 -173.79 206.6 -168.54 202.14 C-165.47 198.6 -164.41 195.22 -163.04 190.79 C-162.01 188.17 -161.23 186.99 -159.04 185.27 C-158.39 184.99 -157.73 184.72 -157.05 184.43 C-154.55 182.98 -154.2 181.98 -153.3 179.27 C-152.88 178.09 -152.88 178.09 -152.45 176.89 C-151.89 175.23 -151.33 173.57 -150.78 171.92 C-149.01 166.96 -147.59 164.25 -143.04 161.27 C-140.43 159 -139.35 156.98 -138.11 153.77 C-136.08 149.04 -134.19 147.28 -129.55 145.09 C-126.29 142.72 -125.85 140.87 -124.79 137.02 C-124.46 135.86 -124.13 134.7 -123.79 133.5 C-123.2 130.94 -122.91 128.81 -122.86 126.2 C-122.04 123.27 -122.04 123.27 -119.99 121.96 C-117.7 120.93 -115.43 120.04 -113.04 119.27 C-113.04 117.95 -113.04 116.63 -113.04 115.27 C-117.55 113.76 -120.81 115.34 -125.04 117.27 Z M177.33 127.91 C175.62 130.84 175.41 133.05 175.15 136.43 C174.99 138.24 174.99 138.24 174.82 140.08 C174.62 142.6 174.42 145.11 174.23 147.63 C173.45 156.29 172.36 164.72 166.33 171.39 C161.37 177.4 161.59 185.47 161.08 192.95 C159.44 213.3 159.44 213.3 153.43 220.15 C150.58 223.75 149.99 226.08 149.27 230.58 C149.15 231.27 149.04 231.95 148.92 232.66 C147.97 238.52 147.36 244.41 146.72 250.3 C145.88 257.73 144.5 265.14 139.96 271.27 C139.3 271.6 138.64 271.93 137.96 272.27 C137.13 275.28 137.13 275.28 136.52 279.02 C136.39 279.72 136.27 280.42 136.13 281.14 C135.24 286.21 134.54 291.29 133.88 296.4 C131.35 315.63 131.35 315.63 125.93 321.44 C123.22 325.32 122.93 328.83 122.39 333.45 C122.15 335.24 121.91 337.03 121.67 338.82 C121.55 339.73 121.43 340.63 121.31 341.57 C120.77 345.72 120.16 349.87 119.52 354.02 C119.42 354.73 119.32 355.44 119.22 356.18 C118.33 361.86 116.58 367.67 112.4 371.81 C107.79 376.47 108.23 385.85 107.58 391.95 C105.29 411.62 105.29 411.62 99.89 419.14 C95.26 426.62 94.9 436.33 94.02 444.95 C93.08 453.9 90.59 461.27 86.33 469.2 C82.93 475.76 81.23 483.87 81.96 491.27 C83.67 494.11 85.2 494.33 88.43 495.22 C89.82 495.51 91.2 495.8 92.58 496.08 C97.47 497.16 101.32 498.09 105.27 501.33 C111.86 506.35 120.99 506.31 128.96 507.27 C146.98 509.54 146.98 509.54 153.08 515.26 C156.62 517.73 159.76 518.17 163.93 518.61 C164.7 518.71 165.47 518.8 166.25 518.9 C168.7 519.2 171.14 519.49 173.58 519.77 C198.7 522.67 198.7 522.67 205.39 528.33 C212.31 533.56 221.42 533.54 229.77 533.58 C230.57 533.58 231.37 533.59 232.19 533.59 C237.14 533.54 241.27 532.84 245.96 531.27 C247.27 523.9 248.17 516.6 248.7 509.14 C248.76 508.34 248.82 507.54 248.88 506.71 C249.11 503.4 249.34 500.08 249.56 496.77 C251.18 472.39 251.18 472.39 256.52 461.95 C269.31 434.96 262.11 390.51 262.09 361.54 C262.08 355.07 262.09 348.6 262.09 342.12 C266.21 291.17 266.21 291.17 255.25 243.48 C249.96 234.45 249.92 222.58 248.89 212.39 C248.65 210.02 248.41 207.65 248.16 205.28 C248.01 203.81 247.86 202.35 247.72 200.89 C247.15 195.54 246.48 191.71 242.52 187.95 C236.91 182.07 236.32 174.26 235.39 166.52 C235.17 164.67 234.94 162.82 234.7 160.97 C234.61 160.16 234.51 159.35 234.41 158.52 C233.93 156.12 233.24 154.35 231.96 152.27 C230.81 151.65 230.81 151.65 229.64 151.02 C226.81 149.17 226.33 148.33 224.83 145.45 C222.08 140.65 218.3 139.07 213.44 136.71 C210.96 135.27 210.96 135.27 209.14 132.08 C205.85 127.84 202 127.64 196.85 126.74 C186.47 124.82 186.47 124.82 177.33 127.91 Z M350.96 240.27 C348.4 246.13 348.65 251.86 348.71 258.14 C348.71 259.28 348.72 260.42 348.73 261.59 C348.82 269.56 349.16 277.5 349.77 285.45 C349.84 286.44 349.91 287.42 349.98 288.44 C350.47 294 351.69 298.11 353.96 303.27 C354.26 305.99 354.46 308.54 354.52 311.27 C354.62 315.17 354.79 318.73 355.96 322.5 C357.04 326.57 357.25 330.33 357.22 334.52 C357.22 335.29 357.23 336.07 357.23 336.87 C357.23 338.5 357.23 340.14 357.22 341.78 C357.21 344.23 357.22 346.68 357.23 349.14 C357.24 357.91 356.73 366.3 355.42 374.99 C354.81 379.3 354.63 383.55 354.52 387.89 C354.27 394.37 353.41 400.2 351.75 406.49 C350.8 411.03 350.32 415.51 349.92 420.12 C349.79 421.56 349.79 421.56 349.66 423.02 C348.61 435.49 348.26 447.98 347.85 460.48 C346.85 490.57 346.85 490.57 342.52 503.58 C342.3 504.25 342.08 504.92 341.85 505.62 C340.95 508.39 340 511.14 339.04 513.89 C335.52 523.94 334.54 534.11 334.08 544.7 C334.01 545.86 333.94 547.02 333.86 548.21 C333.81 549.32 333.77 550.43 333.71 551.57 C333.66 552.57 333.61 553.57 333.56 554.6 C334.07 558.04 335.28 559.13 337.96 561.27 C340.54 562.41 340.54 562.41 343.33 563.2 C346.83 564.38 349.52 565.41 352.27 567.89 C356.59 571.71 361.25 572.47 366.88 573.01 C367.99 573.13 369.1 573.24 370.24 573.36 C372.53 573.59 374.83 573.81 377.13 574.03 C386.95 575.06 394.75 576.68 402.96 582.27 C410.48 585.63 418.61 586.38 426.71 587.39 C429.29 587.73 431.86 588.06 434.44 588.4 C435.57 588.54 436.7 588.68 437.87 588.83 C440.96 589.27 440.96 589.27 443.72 589.86 C446.68 590.4 447.94 589.77 450.52 588.27 C456.32 584.02 457.49 578.27 458.61 571.51 C458.73 570.77 458.84 570.03 458.96 569.27 C459.07 568.53 459.19 567.8 459.3 567.05 C462.89 542.21 461.57 516.08 460.33 491.08 C460.29 489.85 460.24 488.63 460.2 487.36 C459.73 479.84 457.98 474.52 454.36 467.92 C452.51 464.41 451.83 461.56 451.21 457.64 C451.1 456.96 450.99 456.27 450.87 455.57 C449.68 447.61 449.21 439.55 448.78 431.53 C448.21 422.24 447.06 414.51 440.96 407.27 C437.96 400.29 436.73 393.32 435.5 385.87 C434.35 379.37 432.81 374.5 428.52 369.33 C423.61 362.69 422.47 353.02 420.96 345.08 C419.91 341.07 419.13 339.79 415.96 337.27 C412.3 334.14 411.11 331.5 409.83 326.89 C409.52 325.79 409.21 324.69 408.89 323.55 C408.27 321.37 407.65 319.19 407.04 317 C406.11 313.95 406.11 313.95 402.83 311.89 C398.19 308.28 396.36 303.36 393.95 298.16 C391.72 293.48 389.44 290.31 385.48 286.91 C382.98 284.21 382.07 280.92 380.85 277.5 C379.73 274.7 378.28 273.15 375.96 271.27 C373.13 268.72 371.17 266.09 369.14 262.89 C367.18 259.85 365.4 257.63 362.52 255.45 C358.17 252.05 355.94 247.47 353.34 242.68 C352.88 241.88 352.43 241.09 351.96 240.27 C351.63 240.27 351.3 240.27 350.96 240.27 Z " fill="#000000" transform="translate(655.04296875,36.734375)"/>
<path d="M0 0 C3.55 0.01 7.1 0 10.65 -0.01 C48.42 -0.04 48.42 -0.04 57.93 8.77 C61.52 11.82 65.17 12.51 69.72 13.32 C75.43 14.37 79.54 15.56 84.22 19.26 C85.03 20.5 85.03 20.5 85.85 21.76 C88.57 24.63 90.23 25.07 93.97 26.2 C102.79 28.89 107.78 33.49 113.58 40.47 C115.27 42.47 115.27 42.47 118.16 44.07 C122.22 46.97 124.51 50.59 127.34 54.65 C129.39 57.49 131.71 59.82 134.22 62.26 C137.37 65.94 139.35 69.27 140.66 73.95 C142.01 78.51 144.05 79.91 148.22 82.26 C153.3 87.15 153.39 95.56 153.88 102.22 C154.57 106.33 156.01 108.08 159.22 110.76 C163.86 114.62 164.5 117.92 165.1 123.69 C165.21 124.98 165.21 124.98 165.33 126.3 C165.42 127.22 165.5 128.14 165.59 129.08 C166.5 140.06 166.52 151.03 166.48 162.04 C166.47 165.59 166.48 169.14 166.5 172.68 C166.52 210.45 166.52 210.45 157.72 219.97 C154.66 223.56 153.97 227.21 153.16 231.76 C152.11 237.47 150.93 241.58 147.22 246.26 C146.4 246.8 145.57 247.33 144.72 247.89 C141.86 250.61 141.42 252.27 140.29 256.01 C137.59 264.84 132.96 269.84 125.98 275.66 C123.84 277.61 122.57 279.71 121.22 282.26 C118.93 284.97 116.26 286.45 113.22 288.26 C110.52 290.29 108.14 292.34 105.79 294.76 C101.74 298.7 98.01 301.11 92.6 302.64 C88.02 304.03 86.59 306.06 84.22 310.26 C79.33 315.33 70.93 315.43 64.27 315.92 C60.16 316.61 58.4 318.05 55.72 321.26 C51.86 325.9 48.56 326.53 42.8 327.14 C41.5 327.25 41.5 327.25 40.18 327.37 C39.26 327.45 38.35 327.54 37.4 327.62 C26.43 328.54 15.45 328.56 4.45 328.52 C0.9 328.51 -2.65 328.52 -6.2 328.53 C-43.97 328.56 -43.97 328.56 -53.49 319.75 C-57.08 316.7 -60.72 316.01 -65.28 315.2 C-70.99 314.15 -75.1 312.97 -79.78 309.26 C-80.58 308.02 -80.58 308.02 -81.4 306.76 C-84.13 303.89 -85.79 303.45 -89.53 302.32 C-98.36 299.63 -103.35 295 -109.18 288.02 C-111.13 285.87 -113.23 284.61 -115.78 283.26 C-118.49 280.97 -119.97 278.29 -121.78 275.26 C-123.8 272.56 -125.86 270.18 -128.28 267.82 C-132.22 263.78 -134.63 260.05 -136.15 254.64 C-137.55 250.05 -139.58 248.62 -143.78 246.26 C-148.85 241.37 -148.95 232.96 -149.43 226.3 C-150.12 222.19 -151.56 220.44 -154.78 217.76 C-159.41 213.9 -160.05 210.6 -160.65 204.83 C-160.73 203.97 -160.81 203.11 -160.89 202.22 C-160.97 201.3 -161.05 200.38 -161.14 199.44 C-162.05 188.46 -162.08 177.49 -162.04 166.48 C-162.03 162.93 -162.04 159.39 -162.05 155.84 C-162.07 118.07 -162.07 118.07 -153.27 108.55 C-150.21 104.96 -149.53 101.31 -148.71 96.76 C-147.46 89.95 -145.98 84.71 -140.19 80.28 C-137.16 77.75 -136.46 75.6 -135.21 71.89 C-132.18 63.52 -128.57 58.92 -121.86 53.2 C-119.6 51.26 -119.6 51.26 -117.9 48.26 C-115.04 44.23 -111.42 41.95 -107.39 39.14 C-104.54 37.09 -102.22 34.77 -99.78 32.26 C-96.09 29.11 -92.77 27.14 -88.09 25.82 C-83.52 24.47 -82.12 22.44 -79.78 18.26 C-74.88 13.19 -66.48 13.09 -59.82 12.6 C-55.71 11.91 -53.95 10.47 -51.28 7.26 C-47.41 2.62 -44.11 1.99 -38.35 1.39 C-37.49 1.31 -36.62 1.23 -35.73 1.15 C-34.36 1.03 -34.36 1.03 -32.95 0.9 C-21.98 -0.01 -11 -0.04 0 0 Z M-17.95 93.18 C-21.63 95.89 -25.32 97 -29.65 98.32 C-39.39 100.64 -39.39 100.64 -47.02 106.13 C-47.33 107.12 -47.33 107.12 -47.65 108.14 C-48.71 110.78 -49.3 112 -51.84 113.39 C-52.63 113.71 -53.41 114.03 -54.21 114.37 C-57.04 115.84 -58.48 116.68 -59.96 119.53 C-60.75 122.24 -61.37 124.92 -61.9 127.7 C-63.31 134.68 -64.4 138.68 -70.23 143.01 C-73.2 145.42 -73.12 148.27 -73.57 151.86 C-75.3 169.15 -75.3 169.15 -68.86 184.44 C-66.15 188.11 -65.03 191.8 -63.71 196.14 C-61.4 205.88 -61.4 205.88 -55.91 213.5 C-55.25 213.71 -54.58 213.92 -53.9 214.14 C-51.25 215.2 -50.04 215.79 -48.65 218.33 C-48.32 219.11 -48 219.89 -47.67 220.7 C-46.2 223.52 -45.35 224.96 -42.51 226.44 C-39.8 227.24 -37.11 227.85 -34.34 228.39 C-27.36 229.79 -23.36 230.88 -19.03 236.71 C-16.62 239.69 -13.77 239.61 -10.18 240.05 C7.11 241.78 7.11 241.78 22.4 235.34 C26.07 232.63 29.76 231.52 34.1 230.2 C43.84 227.88 43.84 227.88 51.47 222.39 C51.67 221.73 51.88 221.07 52.1 220.39 C53.16 217.74 53.75 216.52 56.29 215.13 C57.07 214.81 57.85 214.49 58.66 214.16 C61.48 212.68 62.92 211.84 64.41 208.99 C65.2 206.28 65.82 203.6 66.35 200.82 C67.75 193.84 68.85 189.84 74.67 185.52 C77.65 183.11 77.57 180.25 78.01 176.66 C79.75 159.37 79.75 159.37 73.31 144.08 C70.6 140.41 69.48 136.72 68.16 132.39 C65.84 122.64 65.84 122.64 60.36 115.02 C59.69 114.81 59.03 114.6 58.35 114.39 C55.7 113.32 54.48 112.73 53.09 110.19 C52.61 109.02 52.61 109.02 52.12 107.82 C50.64 105 49.8 103.56 46.95 102.08 C44.24 101.28 41.56 100.67 38.79 100.14 C31.8 98.73 27.81 97.64 23.48 91.81 C21.07 88.83 18.22 88.91 14.62 88.47 C-2.67 86.74 -2.67 86.74 -17.95 93.18 Z " fill="#000000" transform="translate(237.776611328125,875.7392578125)"/>
</svg>
