<?xml version="1.0" encoding="UTF-8"?>
<!-- Generator: visioncortex VTracer 0.6.3 -->
<svg version="1.1" xmlns="http://www.w3.org/2000/svg" width="1280" height="1280">
<path d="M0 0 C1.11 -0 1.11 -0 2.25 -0 C4.75 -0.01 7.25 -0.01 9.74 -0 C11.56 -0 13.37 -0.01 15.18 -0.01 C20.19 -0.01 25.2 -0.01 30.21 -0.01 C35.64 -0.01 41.08 -0.01 46.52 -0.01 C56.06 -0.02 65.6 -0.02 75.14 -0.02 C89.32 -0.02 103.51 -0.02 117.7 -0.03 C144.5 -0.04 171.31 -0.04 198.12 -0.04 C201.07 -0.04 204.03 -0.04 206.99 -0.04 C207.72 -0.04 208.46 -0.04 209.21 -0.04 C225.47 -0.04 241.73 -0.04 257.99 -0.05 C264.68 -0.05 271.37 -0.05 278.06 -0.05 C278.8 -0.05 279.54 -0.05 280.31 -0.05 C322.69 -0.06 365.07 -0.06 407.45 -0.06 C409.04 -0.06 410.62 -0.06 412.21 -0.06 C419.37 -0.06 426.53 -0.06 433.7 -0.06 C436.89 -0.06 440.08 -0.06 443.28 -0.06 C444.88 -0.06 446.47 -0.06 448.07 -0.06 C498.63 -0.06 549.18 -0.07 599.73 -0.08 C612.47 -0.08 625.2 -0.09 637.94 -0.09 C638.73 -0.09 639.51 -0.09 640.32 -0.09 C664.49 -0.1 688.65 -0.1 712.82 -0.1 C713.58 -0.1 714.34 -0.1 715.12 -0.1 C731.77 -0.1 748.43 -0.1 765.08 -0.1 C771.04 -0.1 777 -0.1 782.96 -0.1 C784.44 -0.1 785.92 -0.1 787.41 -0.1 C811.03 -0.1 834.66 -0.11 858.29 -0.12 C882.75 -0.13 907.21 -0.13 931.67 -0.12 C945.78 -0.12 959.88 -0.12 973.99 -0.13 C983.41 -0.13 992.82 -0.13 1002.24 -0.13 C1007.61 -0.12 1012.97 -0.12 1018.34 -0.13 C1023.23 -0.14 1028.11 -0.13 1033 -0.13 C1034.75 -0.12 1036.51 -0.12 1038.27 -0.13 C1062.31 -0.2 1062.31 -0.2 1069.46 6.13 C1070.74 8.08 1071.89 10.09 1073.04 12.12 C1074.65 14.39 1076.28 15.58 1078.59 17.13 C1083.76 20.71 1084.82 24.83 1085.98 30.79 C1086.51 34.43 1086.6 37.99 1086.59 41.66 C1086.59 42.41 1086.59 43.15 1086.59 43.91 C1086.6 46.41 1086.59 48.91 1086.59 51.4 C1086.59 53.22 1086.59 55.03 1086.6 56.84 C1086.6 61.85 1086.6 66.86 1086.6 71.86 C1086.6 77.3 1086.6 82.74 1086.6 88.17 C1086.61 97.71 1086.61 107.25 1086.61 116.79 C1086.61 130.97 1086.61 145.16 1086.62 159.34 C1086.63 186.14 1086.63 212.95 1086.63 239.75 C1086.63 242.71 1086.63 245.66 1086.63 248.62 C1086.63 249.35 1086.63 250.09 1086.63 250.84 C1086.63 267.1 1086.63 283.36 1086.64 299.61 C1086.64 306.3 1086.64 313 1086.64 319.69 C1086.64 320.8 1086.64 320.8 1086.64 321.93 C1086.65 364.31 1086.65 406.68 1086.65 449.06 C1086.65 450.65 1086.65 452.23 1086.65 453.82 C1086.65 460.98 1086.65 468.14 1086.65 475.3 C1086.65 478.5 1086.65 481.69 1086.65 484.89 C1086.65 486.48 1086.65 488.08 1086.65 489.68 C1086.65 540.23 1086.66 590.77 1086.67 641.32 C1086.67 654.05 1086.68 666.79 1086.68 679.52 C1086.68 680.7 1086.68 680.7 1086.68 681.9 C1086.69 706.06 1086.69 730.23 1086.69 754.39 C1086.69 755.15 1086.69 755.91 1086.69 756.69 C1086.69 773.34 1086.69 790 1086.69 806.65 C1086.69 812.61 1086.69 818.57 1086.69 824.53 C1086.69 826.01 1086.69 827.49 1086.69 828.97 C1086.69 852.6 1086.7 876.23 1086.71 899.85 C1086.71 924.31 1086.72 948.76 1086.71 973.22 C1086.71 987.33 1086.71 1001.43 1086.72 1015.53 C1086.72 1024.95 1086.72 1034.36 1086.72 1043.78 C1086.71 1049.15 1086.71 1054.51 1086.72 1059.88 C1086.73 1064.77 1086.72 1069.65 1086.71 1074.53 C1086.71 1076.29 1086.71 1078.05 1086.72 1079.8 C1086.78 1102.02 1086.78 1102.02 1082.84 1109 C1080.22 1111.34 1077.49 1112.91 1074.47 1114.67 C1072.22 1116.3 1071.01 1117.95 1069.46 1120.25 C1065.88 1125.42 1061.76 1126.48 1055.8 1127.65 C1052.16 1128.17 1048.6 1128.27 1044.93 1128.25 C1044.18 1128.25 1043.44 1128.26 1042.68 1128.26 C1040.18 1128.26 1037.68 1128.26 1035.19 1128.26 C1033.37 1128.26 1031.56 1128.26 1029.75 1128.26 C1024.74 1128.27 1019.73 1128.26 1014.73 1128.26 C1009.29 1128.26 1003.85 1128.26 998.41 1128.27 C988.88 1128.27 979.34 1128.27 969.8 1128.27 C955.62 1128.27 941.43 1128.28 927.25 1128.28 C900.45 1128.29 873.64 1128.29 846.84 1128.29 C843.88 1128.29 840.93 1128.29 837.97 1128.29 C837.24 1128.29 836.5 1128.29 835.75 1128.29 C819.49 1128.29 803.23 1128.3 786.98 1128.3 C780.29 1128.3 773.59 1128.3 766.9 1128.3 C765.79 1128.3 765.79 1128.3 764.66 1128.3 C722.28 1128.31 679.91 1128.31 637.53 1128.31 C635.94 1128.31 634.36 1128.31 632.77 1128.31 C625.61 1128.31 618.45 1128.31 611.28 1128.31 C608.09 1128.31 604.9 1128.31 601.7 1128.31 C600.11 1128.31 598.51 1128.31 596.91 1128.31 C546.36 1128.31 495.82 1128.32 445.27 1128.33 C432.54 1128.34 419.8 1128.34 407.07 1128.34 C406.28 1128.34 405.5 1128.34 404.69 1128.34 C380.53 1128.35 356.36 1128.35 332.2 1128.35 C331.06 1128.35 331.06 1128.35 329.9 1128.35 C313.25 1128.36 296.59 1128.36 279.94 1128.36 C273.98 1128.36 268.02 1128.36 262.06 1128.36 C260.58 1128.36 259.1 1128.36 257.62 1128.36 C233.99 1128.35 210.36 1128.36 186.74 1128.37 C162.28 1128.38 137.83 1128.38 113.37 1128.37 C99.26 1128.37 85.16 1128.37 71.06 1128.38 C61.64 1128.39 52.23 1128.39 42.81 1128.38 C37.44 1128.37 32.08 1128.37 26.71 1128.38 C21.82 1128.39 16.94 1128.39 12.06 1128.38 C10.3 1128.38 8.54 1128.38 6.79 1128.38 C-15.43 1128.45 -15.43 1128.45 -22.41 1124.5 C-24.75 1121.89 -26.32 1119.16 -28.08 1116.13 C-29.71 1113.88 -31.36 1112.67 -33.66 1111.13 C-38.83 1107.54 -39.89 1103.43 -41.06 1097.46 C-41.58 1093.82 -41.68 1090.26 -41.66 1086.59 C-41.66 1085.85 -41.67 1085.1 -41.67 1084.34 C-41.67 1081.84 -41.67 1079.34 -41.67 1076.85 C-41.67 1075.03 -41.67 1073.22 -41.67 1071.41 C-41.68 1066.4 -41.67 1061.39 -41.67 1056.38 C-41.67 1050.95 -41.67 1045.51 -41.68 1040.07 C-41.68 1030.53 -41.68 1020.99 -41.68 1011.45 C-41.68 997.26 -41.69 983.08 -41.69 968.89 C-41.7 942.09 -41.7 915.28 -41.7 888.47 C-41.7 885.52 -41.7 882.56 -41.7 879.6 C-41.7 878.87 -41.7 878.13 -41.7 877.38 C-41.7 861.12 -41.71 844.86 -41.71 828.6 C-41.71 821.91 -41.71 815.22 -41.71 808.52 C-41.71 807.42 -41.71 807.42 -41.71 806.28 C-41.72 763.9 -41.72 721.52 -41.72 679.14 C-41.72 677.55 -41.72 675.97 -41.72 674.38 C-41.72 667.22 -41.72 660.06 -41.72 652.89 C-41.72 649.7 -41.72 646.51 -41.72 643.31 C-41.72 641.71 -41.72 640.12 -41.72 638.52 C-41.72 587.96 -41.73 537.41 -41.74 486.86 C-41.75 474.12 -41.75 461.39 -41.75 448.65 C-41.75 447.86 -41.75 447.08 -41.75 446.27 C-41.76 422.1 -41.76 397.94 -41.76 373.77 C-41.76 373.01 -41.76 372.25 -41.76 371.47 C-41.77 354.82 -41.77 338.16 -41.77 321.51 C-41.77 315.55 -41.77 309.59 -41.77 303.63 C-41.77 302.15 -41.77 300.67 -41.77 299.18 C-41.77 275.55 -41.77 251.93 -41.78 228.3 C-41.79 203.84 -41.79 179.38 -41.78 154.92 C-41.78 140.81 -41.78 126.71 -41.79 112.6 C-41.8 103.18 -41.8 93.77 -41.79 84.35 C-41.78 78.98 -41.78 73.61 -41.79 68.25 C-41.8 63.36 -41.8 58.48 -41.79 53.59 C-41.79 51.84 -41.79 50.08 -41.79 48.32 C-41.86 24.28 -41.86 24.28 -35.54 17.13 C-33.58 15.85 -31.57 14.7 -29.54 13.55 C-27.27 11.94 -26.08 10.31 -24.54 8 C-20.95 2.83 -16.84 1.77 -10.88 0.6 C-7.23 0.08 -3.67 -0.01 0 0 Z M46.46 90.13 C46.27 93.12 46.19 96.02 46.21 99.01 C46.21 99.94 46.2 100.87 46.2 101.83 C46.19 104.97 46.2 108.11 46.2 111.25 C46.2 113.49 46.2 115.74 46.19 117.98 C46.18 124.09 46.19 130.2 46.19 136.3 C46.2 142.68 46.19 149.06 46.19 155.44 C46.19 166.84 46.19 178.24 46.2 189.64 C46.21 199.99 46.21 210.33 46.2 220.67 C46.19 232.68 46.19 244.68 46.19 256.68 C46.2 263.04 46.2 269.39 46.19 275.75 C46.18 281.73 46.19 287.7 46.2 293.68 C46.2 295.88 46.2 298.07 46.2 300.27 C46.19 303.26 46.2 306.25 46.21 309.24 C46.2 310.12 46.2 311 46.2 311.91 C46.01 316.5 46.01 316.5 48.46 320.13 C51.34 320.43 51.34 320.43 54.79 320.38 C55.45 320.38 56.11 320.38 56.79 320.39 C59.03 320.39 61.27 320.39 63.51 320.38 C65.13 320.38 66.75 320.38 68.36 320.39 C72.85 320.39 77.33 320.39 81.82 320.38 C86.68 320.38 91.55 320.38 96.41 320.39 C104.95 320.4 113.49 320.4 122.03 320.39 C134.72 320.38 147.42 320.39 160.12 320.39 C182.79 320.4 205.46 320.4 228.13 320.4 C247.97 320.39 267.8 320.39 287.64 320.39 C288.96 320.39 290.27 320.39 291.62 320.39 C296.96 320.4 302.29 320.4 307.62 320.4 C322.53 320.4 337.44 320.4 352.35 320.4 C353.37 320.4 353.37 320.4 354.41 320.4 C376.05 320.4 397.69 320.4 419.34 320.39 C420.39 320.39 420.39 320.39 421.46 320.39 C432.87 320.39 444.27 320.39 455.68 320.39 C500.92 320.38 546.15 320.38 591.39 320.39 C602.79 320.39 614.19 320.39 625.59 320.39 C626.29 320.39 626.99 320.39 627.72 320.39 C649.34 320.4 670.96 320.4 692.58 320.4 C693.6 320.4 693.6 320.4 694.63 320.4 C709.53 320.4 724.42 320.4 739.31 320.4 C745.3 320.4 751.29 320.39 757.28 320.39 C758.59 320.39 759.9 320.39 761.25 320.39 C781.09 320.39 800.92 320.39 820.75 320.4 C843.29 320.4 865.83 320.4 888.36 320.39 C900.99 320.39 913.62 320.39 926.25 320.39 C934.67 320.4 943.09 320.4 951.51 320.39 C956.32 320.38 961.12 320.38 965.93 320.39 C970.3 320.39 974.66 320.39 979.03 320.38 C980.6 320.38 982.18 320.38 983.76 320.39 C985.89 320.39 988.01 320.39 990.14 320.38 C991.32 320.38 992.5 320.38 993.72 320.38 C996.61 320.41 996.61 320.41 998.46 318.13 C998.66 315.14 998.73 312.24 998.72 309.24 C998.72 307.85 998.72 307.85 998.73 306.42 C998.73 303.28 998.73 300.14 998.72 297 C998.72 294.76 998.73 292.51 998.73 290.27 C998.74 284.16 998.74 278.06 998.73 271.95 C998.73 265.57 998.73 259.19 998.73 252.81 C998.74 241.41 998.73 230.01 998.72 218.61 C998.71 208.27 998.71 197.92 998.72 187.58 C998.73 175.58 998.74 163.58 998.73 151.57 C998.73 145.22 998.73 138.86 998.74 132.5 C998.74 126.53 998.74 120.55 998.73 114.58 C998.72 112.38 998.72 110.18 998.73 107.98 C998.73 104.99 998.73 102 998.72 99.01 C998.72 97.69 998.72 97.69 998.73 96.34 C998.91 91.76 998.91 91.76 996.46 88.13 C993.59 87.82 993.59 87.82 990.14 87.88 C989.48 87.87 988.82 87.87 988.14 87.87 C985.9 87.86 983.66 87.87 981.42 87.87 C979.8 87.87 978.18 87.87 976.56 87.87 C972.08 87.86 967.59 87.86 963.11 87.87 C958.24 87.87 953.38 87.87 948.51 87.86 C939.98 87.86 931.44 87.86 922.9 87.86 C910.2 87.87 897.51 87.86 884.81 87.86 C862.14 87.85 839.47 87.85 816.8 87.85 C796.96 87.86 777.12 87.86 757.28 87.86 C755.97 87.86 754.66 87.86 753.3 87.86 C747.97 87.86 742.64 87.86 737.3 87.86 C722.4 87.85 707.49 87.85 692.58 87.85 C691.56 87.85 691.56 87.85 690.52 87.85 C668.88 87.85 647.23 87.85 625.59 87.86 C624.54 87.86 624.54 87.86 623.46 87.86 C612.06 87.86 600.65 87.86 589.25 87.87 C544.01 87.88 498.77 87.88 453.53 87.87 C442.13 87.86 430.73 87.86 419.34 87.86 C418.63 87.86 417.93 87.86 417.21 87.86 C395.59 87.85 373.97 87.85 352.35 87.85 C351.67 87.85 350.99 87.85 350.29 87.85 C335.4 87.85 320.51 87.85 305.62 87.86 C299.63 87.86 293.63 87.86 287.64 87.86 C286.33 87.86 285.02 87.86 283.67 87.86 C263.84 87.86 244.01 87.86 224.18 87.85 C201.64 87.85 179.1 87.85 156.56 87.86 C143.93 87.87 131.31 87.87 118.68 87.86 C110.26 87.85 101.84 87.86 93.42 87.87 C88.61 87.87 83.8 87.87 78.99 87.87 C74.63 87.86 70.27 87.86 65.9 87.87 C64.32 87.87 62.75 87.87 61.17 87.87 C59.04 87.86 56.91 87.87 54.79 87.88 C53.61 87.88 52.42 87.88 51.21 87.88 C48.32 87.84 48.32 87.84 46.46 90.13 Z M46.46 410.13 C46.27 412.63 46.19 415.01 46.21 417.52 C46.21 418.29 46.2 419.06 46.2 419.85 C46.19 422.45 46.2 425.04 46.2 427.64 C46.2 429.5 46.2 431.35 46.19 433.21 C46.18 438.26 46.19 443.31 46.19 448.36 C46.2 453.64 46.19 458.92 46.19 464.2 C46.19 473.07 46.19 481.94 46.2 490.81 C46.21 501.07 46.21 511.33 46.2 521.59 C46.19 530.39 46.19 539.19 46.19 547.98 C46.2 553.24 46.2 558.5 46.19 563.76 C46.18 568.71 46.19 573.65 46.2 578.6 C46.2 580.42 46.2 582.24 46.2 584.05 C46.19 586.53 46.2 589.01 46.21 591.48 C46.2 592.21 46.2 592.93 46.2 593.67 C46.22 597.32 46.46 600.02 48.46 603.13 C49.22 603.06 49.98 602.99 50.77 602.92 C60.91 602.09 71.01 601.87 81.18 601.83 C83.08 601.82 84.98 601.8 86.88 601.77 C100.82 601.56 112.65 601.8 124.46 610.13 C127.41 611.31 130.43 612.21 133.46 613.13 C147.95 617.53 147.95 617.53 152.21 623.63 C154.98 626.7 157.65 627.63 161.41 629.17 C164.97 630.83 166.05 633.32 167.78 636.69 C169.9 639.76 172.13 640.53 175.46 642.13 C177.78 644.53 178.57 646.44 179.71 649.63 C181.16 653.4 181.16 653.4 184.85 654.83 C189.41 657.28 190.43 660.65 192.03 665.38 C194.58 672.36 194.58 672.36 198.71 678.5 C206.89 688.25 205.61 704 205.61 715.95 C205.61 717.34 205.61 718.74 205.62 720.13 C205.63 723.93 205.63 727.74 205.63 731.55 C205.64 735.66 205.65 739.77 205.66 743.89 C205.67 751 205.68 758.12 205.69 765.24 C205.71 775.54 205.73 785.83 205.75 796.13 C205.79 812.84 205.82 829.54 205.86 846.25 C205.86 847.25 205.86 848.25 205.86 849.28 C205.89 863.48 205.91 877.68 205.94 891.88 C205.94 892.88 205.94 893.88 205.94 894.92 C205.94 895.92 205.94 896.92 205.94 897.95 C205.97 914.6 206.01 931.25 206.05 947.91 C206.07 958.18 206.09 968.46 206.1 978.73 C206.11 985.77 206.12 992.8 206.14 999.83 C206.15 1003.89 206.16 1007.95 206.16 1012.01 C206.16 1015.72 206.17 1019.44 206.19 1023.15 C206.19 1025.14 206.19 1027.13 206.18 1029.12 C206.19 1030.28 206.2 1031.45 206.2 1032.66 C206.21 1033.67 206.21 1034.69 206.21 1035.73 C206.23 1038.31 206.23 1038.31 208.46 1040.13 C211.4 1040.43 211.4 1040.43 214.9 1040.39 C215.56 1040.39 216.22 1040.39 216.9 1040.4 C219.09 1040.4 221.28 1040.4 223.46 1040.39 C224.98 1040.39 226.5 1040.4 228.01 1040.4 C231.19 1040.4 234.38 1040.4 237.56 1040.39 C241.64 1040.38 245.72 1040.38 249.8 1040.39 C252.94 1040.4 256.07 1040.4 259.2 1040.39 C260.71 1040.39 262.21 1040.39 263.72 1040.4 C265.82 1040.4 267.92 1040.4 270.03 1040.39 C271.22 1040.38 272.42 1040.38 273.65 1040.38 C276.6 1040.42 276.6 1040.42 278.46 1038.13 C278.77 1035.98 278.77 1035.98 278.72 1033.47 C278.73 1032.48 278.73 1031.49 278.74 1030.47 C278.73 1029.37 278.73 1028.28 278.73 1027.15 C278.73 1026 278.74 1024.84 278.74 1023.65 C278.75 1020.43 278.75 1017.2 278.75 1013.98 C278.75 1010.51 278.76 1007.04 278.77 1003.57 C278.79 997.54 278.79 991.52 278.8 985.5 C278.8 976.76 278.82 968.03 278.85 959.29 C278.88 945.09 278.91 930.88 278.93 916.67 C278.93 915.82 278.93 914.97 278.94 914.1 C278.94 908.06 278.95 902.03 278.96 896 C278.97 889.15 278.98 882.3 278.99 875.45 C279 874.18 279 874.18 279 872.89 C279.02 858.77 279.05 844.64 279.09 830.52 C279.11 821.82 279.12 813.12 279.13 804.43 C279.13 798.45 279.14 792.46 279.16 786.48 C279.17 783.04 279.18 779.61 279.17 776.17 C279.17 763.42 279.3 750.72 280.23 738 C280.29 737.06 280.35 736.12 280.41 735.15 C281.19 726.04 283.6 718.2 289.46 711.13 C290.47 707.94 290.47 707.94 291.03 704.5 C291.27 703.27 291.51 702.04 291.75 700.78 C291.99 699.57 292.22 698.37 292.46 697.13 C295.09 685.37 295.09 685.37 299.46 681.13 C300.44 680.6 300.44 680.6 301.43 680.06 C304.59 677.05 305.08 673.4 306.09 669.25 C308.86 658.31 308.86 658.31 310.46 655.13 C312.96 653.94 312.96 653.94 315.46 653.13 C317.81 650.78 318.26 649.08 319.28 645.94 C321.96 638.34 325.82 633.76 331.46 628.13 C332.75 626.51 334.01 624.88 335.28 623.25 C338.43 619.23 341.73 615.9 345.7 612.7 C347.62 610.99 349.05 609.27 350.46 607.13 C350.46 606.47 350.46 605.81 350.46 605.13 C351.14 604.92 351.82 604.71 352.53 604.5 C357.35 602.25 361.15 598.88 364.34 594.63 C368.05 590.26 373.09 587.43 378.09 584.69 C380.39 583.18 381.76 581.72 383.59 579.69 C387.19 575.9 390.81 574.7 395.81 573.44 C398.65 572.03 399.16 571.3 400.8 568.72 C403.59 564.48 406.79 563.22 411.46 561.56 C417.55 559.37 420.55 557.32 424.46 552.13 C427.08 550.56 429.61 549.42 432.48 548.42 C438.01 546.5 440.72 544.25 444.46 539.69 C448.21 536.49 452.06 535.01 456.62 533.24 C461.59 531.5 461.59 531.5 464.84 527.69 C467.5 523.49 471.52 522.49 476.03 520.75 C479.76 518.99 481.6 517.06 484.46 514.13 C489 510.53 493.13 508.05 498.78 506.69 C502.24 505.86 502.24 505.86 504.74 503.5 C505.19 502.57 505.19 502.57 505.65 501.63 C507.58 497.89 508.66 497.18 512.47 495.7 C515.78 494.75 519.05 494.69 522.46 494.75 C523.14 494.74 523.81 494.73 524.5 494.72 C529.59 494.75 533.07 495.73 537.46 498.13 C538 499.26 538.54 500.4 539.09 501.56 C540.49 504.5 541.33 505.07 544.42 506.36 C546.69 507.02 548.98 507.64 551.27 508.2 C554.43 509.12 556.7 510.39 559.46 512.13 C560.12 512.13 560.78 512.13 561.46 512.13 C561.71 512.89 561.96 513.65 562.21 514.44 C563.93 518.14 566.06 519.61 569.87 521.01 C570.7 521.28 571.54 521.54 572.4 521.81 C576.35 523.3 577.95 524.32 579.78 528.13 C581.36 531.21 582.18 532 585.44 533.39 C587.74 534.05 590.04 534.67 592.36 535.27 C596.23 536.34 598.45 537.51 601.46 540.13 C601.89 540.95 602.31 541.77 602.74 542.61 C604.94 545.82 606.68 546.26 610.34 547.44 C614.65 549.07 616.93 549.99 618.96 554.19 C620.42 557.1 621.12 557.97 624.14 559.35 C626.23 559.99 628.33 560.61 630.44 561.2 C634.55 562.46 638.23 564.28 641.46 567.13 C642.15 568.45 642.82 569.78 643.46 571.13 C646.9 573.65 650.58 574.97 654.6 576.28 C656.81 577.28 657.94 578.23 659.46 580.13 C659.72 580.97 659.99 581.81 660.26 582.68 C661.28 585.41 661.28 585.41 664.33 586.38 C665.46 586.67 666.6 586.96 667.78 587.25 C672.2 588.39 675.59 589.7 679.46 592.13 C680.12 592.13 680.78 592.13 681.46 592.13 C681.7 592.86 681.94 593.6 682.18 594.36 C683.66 597.55 685.31 599.15 687.96 601.44 C688.76 602.14 689.55 602.83 690.37 603.55 C692.29 605.33 692.29 605.33 694.46 605.13 C694.65 605.81 694.83 606.49 695.03 607.19 C697.46 612.17 701.58 615.72 705.98 619.01 C708.66 621.29 710.08 623.41 711.84 626.44 C713.97 629.96 715.89 632.72 719.03 635.38 C723.05 639.04 724.56 643.81 726.16 648.89 C727.4 652.53 728.11 653.93 731.51 655.86 C732.97 656.49 732.97 656.49 734.46 657.13 C735.78 658.82 735.78 658.82 736.59 660.69 C737.06 661.74 737.06 661.74 737.54 662.81 C738.18 664.42 738.81 666.04 739.42 667.66 C741.21 672.38 742.8 675.62 746.24 679.4 C751.24 686.43 752.24 696.43 753.65 704.78 C754.47 708.15 755.55 710.27 757.46 713.13 C768.36 731.79 765.62 756.33 765.63 777.22 C765.64 780.72 765.65 784.23 765.66 787.74 C765.67 793.79 765.68 799.85 765.69 805.91 C765.71 814.67 765.73 823.43 765.75 832.19 C765.79 846.41 765.82 860.62 765.86 874.84 C765.86 875.69 765.86 876.54 765.86 877.42 C765.89 889.49 765.91 901.57 765.94 913.65 C765.94 914.5 765.94 915.36 765.94 916.23 C765.94 917.09 765.94 917.94 765.94 918.82 C765.97 933 766.01 947.19 766.05 961.38 C766.07 970.12 766.09 978.86 766.1 987.61 C766.11 993.59 766.12 999.56 766.14 1005.54 C766.15 1008.99 766.16 1012.45 766.16 1015.9 C766.16 1019.63 766.18 1023.36 766.19 1027.1 C766.19 1028.2 766.19 1029.3 766.18 1030.43 C766.19 1031.43 766.2 1032.42 766.2 1033.44 C766.21 1034.31 766.21 1035.17 766.21 1036.06 C766.27 1038.35 766.27 1038.35 768.46 1040.13 C771.4 1040.43 771.4 1040.43 774.9 1040.39 C775.56 1040.39 776.22 1040.39 776.9 1040.4 C779.09 1040.4 781.28 1040.4 783.46 1040.39 C784.98 1040.39 786.5 1040.4 788.01 1040.4 C791.19 1040.4 794.38 1040.4 797.56 1040.39 C801.64 1040.38 805.72 1040.38 809.8 1040.39 C812.94 1040.4 816.07 1040.4 819.2 1040.39 C820.71 1040.39 822.21 1040.39 823.72 1040.4 C825.82 1040.4 827.92 1040.4 830.03 1040.39 C831.22 1040.38 832.42 1040.38 833.65 1040.38 C836.6 1040.42 836.6 1040.42 838.46 1038.13 C838.77 1035.64 838.77 1035.64 838.72 1032.7 C838.73 1031.54 838.74 1030.38 838.74 1029.19 C838.74 1027.9 838.74 1026.62 838.73 1025.29 C838.74 1023.92 838.74 1022.55 838.75 1021.18 C838.76 1017.4 838.77 1013.63 838.77 1009.85 C838.77 1005.78 838.78 1001.71 838.79 997.64 C838.81 990.58 838.82 983.52 838.83 976.46 C838.84 966.24 838.86 956.01 838.89 945.79 C838.93 929.19 838.96 912.59 838.99 895.99 C838.99 895 838.99 894 838.99 892.98 C838.99 891.98 838.99 890.99 839 889.96 C839.02 875.87 839.04 861.78 839.07 847.7 C839.07 846.21 839.07 846.21 839.08 844.7 C839.11 828.17 839.14 811.65 839.18 795.13 C839.2 784.94 839.22 774.75 839.24 764.56 C839.25 757.57 839.26 750.57 839.27 743.58 C839.28 739.55 839.29 735.52 839.29 731.49 C839.3 727.8 839.3 724.1 839.31 720.4 C839.32 718.45 839.32 716.49 839.32 714.54 C839.41 689.21 839.41 689.21 843.46 682.13 C846.03 680.69 846.03 680.69 848.46 680.13 C850.7 677.89 850.91 676.96 851.58 673.95 C851.77 673.12 851.97 672.29 852.17 671.44 C852.57 669.7 852.96 667.96 853.34 666.22 C854.65 660.82 856.01 657.76 860.46 654.13 C863.31 651.62 864.76 649.57 866.21 646.13 C868.18 641.9 870.35 640.97 874.53 639.25 C876.9 637.87 877.58 636.6 878.84 634.19 C881.32 629.63 884.41 628.43 889.05 626.41 C891.61 625.05 892.84 623.8 894.59 621.5 C899.07 615.77 905.37 615.14 912.15 613.75 C917.4 612.6 920.03 611.41 923.46 607.13 C933.64 599.98 949.36 601.81 961.29 601.87 C964.16 601.88 967.03 601.87 969.89 601.85 C978.91 601.85 987.67 601.85 996.46 604.13 C998.54 599.87 998.75 596.01 998.72 591.36 C998.72 590.2 998.72 590.2 998.73 589.02 C998.73 586.42 998.73 583.83 998.72 581.24 C998.72 579.38 998.73 577.52 998.73 575.66 C998.74 570.62 998.74 565.57 998.73 560.52 C998.73 555.24 998.73 549.97 998.73 544.69 C998.74 535.83 998.73 526.97 998.72 518.11 C998.71 507.86 998.72 497.6 998.73 487.35 C998.74 478.55 998.74 469.76 998.73 460.96 C998.73 455.7 998.73 450.44 998.74 445.19 C998.74 440.25 998.74 435.31 998.73 430.37 C998.72 428.55 998.72 426.74 998.73 424.92 C998.73 422.45 998.73 419.98 998.72 417.51 C998.72 416.42 998.72 416.42 998.73 415.31 C998.81 411.27 998.81 411.27 996.46 408.13 C993.59 407.82 993.59 407.82 990.14 407.88 C989.48 407.87 988.82 407.87 988.14 407.87 C985.9 407.86 983.66 407.87 981.42 407.87 C979.8 407.87 978.18 407.87 976.56 407.87 C972.08 407.86 967.59 407.86 963.11 407.87 C958.24 407.87 953.38 407.87 948.51 407.86 C939.98 407.86 931.44 407.86 922.9 407.86 C910.2 407.87 897.51 407.86 884.81 407.86 C862.14 407.85 839.47 407.85 816.8 407.85 C796.96 407.86 777.12 407.86 757.28 407.86 C755.97 407.86 754.66 407.86 753.3 407.86 C747.97 407.86 742.64 407.86 737.3 407.86 C722.4 407.85 707.49 407.85 692.58 407.85 C691.56 407.85 691.56 407.85 690.52 407.85 C668.88 407.85 647.23 407.85 625.59 407.86 C624.54 407.86 624.54 407.86 623.46 407.86 C612.06 407.86 600.65 407.86 589.25 407.87 C544.01 407.88 498.77 407.88 453.53 407.87 C442.13 407.86 430.73 407.86 419.34 407.86 C418.63 407.86 417.93 407.86 417.21 407.86 C395.59 407.85 373.97 407.85 352.35 407.85 C351.67 407.85 350.99 407.85 350.29 407.85 C335.4 407.85 320.51 407.85 305.62 407.86 C299.63 407.86 293.63 407.86 287.64 407.86 C286.33 407.86 285.02 407.86 283.67 407.86 C263.84 407.86 244.01 407.86 224.18 407.85 C201.64 407.85 179.1 407.85 156.56 407.86 C143.93 407.87 131.31 407.87 118.68 407.86 C110.26 407.85 101.84 407.86 93.42 407.87 C88.61 407.87 83.8 407.87 78.99 407.87 C74.63 407.86 70.27 407.86 65.9 407.87 C64.32 407.87 62.75 407.87 61.17 407.87 C59.04 407.86 56.91 407.87 54.79 407.88 C53.61 407.88 52.42 407.88 51.21 407.88 C48.32 407.84 48.32 407.84 46.46 410.13 Z M507.46 608.13 C505.95 608.47 505.95 608.47 504.4 608.81 C501.15 610.27 500.69 611.05 498.84 613.94 C495.55 618.77 491.57 620.02 486.22 621.98 C482.79 623.4 480.93 625.38 478.46 628.13 C474.27 631.35 470.35 633.26 465.21 634.5 C461.74 635.35 461.74 635.35 459.26 637.72 C458.68 638.95 458.12 640.19 457.57 641.43 C455.71 644.28 452.9 644.98 449.82 646.18 C444.03 648.5 439.53 651.99 435.03 656.25 C431.96 659.11 429.71 660.6 425.65 661.63 C422.39 662.48 422.39 662.48 420.22 664.94 C419.6 666.34 418.99 667.76 418.42 669.19 C416.59 672.9 413.02 674.55 409.28 675.94 C406.34 677.86 405.74 680.95 404.46 684.13 C402.5 686.87 401.37 687.15 398.02 688.12 C395.6 689.14 394.68 689.69 393.5 692.07 C392.82 694.54 392.3 696.98 391.84 699.5 C390.61 705.86 389.77 709.9 384.46 714.13 C382.98 715.12 382.98 715.12 381.46 716.13 C380.61 718.33 380.61 718.33 380.1 720.94 C379.88 721.92 379.65 722.91 379.42 723.92 C379.19 724.98 378.95 726.04 378.71 727.13 C376.7 735.75 374.33 743.92 370.82 752.06 C366.36 762.59 366.16 773.05 366.2 784.35 C366.2 785.9 366.19 787.45 366.19 789 C366.19 792.22 366.19 795.45 366.2 798.68 C366.21 802.82 366.21 806.96 366.2 811.1 C366.19 814.29 366.19 817.48 366.2 820.67 C366.2 822.2 366.2 823.73 366.19 825.26 C366.19 827.38 366.19 829.51 366.2 831.63 C366.21 832.84 366.21 834.05 366.21 835.3 C366.17 838.26 366.17 838.26 368.46 840.13 C370.78 840.43 370.78 840.43 373.51 840.38 C375.13 840.39 375.13 840.39 376.77 840.39 C377.96 840.39 379.16 840.39 380.38 840.38 C382.27 840.39 382.27 840.39 384.2 840.39 C387.7 840.4 391.2 840.39 394.71 840.39 C398.48 840.38 402.25 840.39 406.03 840.4 C413.42 840.4 420.82 840.4 428.22 840.4 C434.23 840.39 440.24 840.39 446.25 840.39 C447.1 840.39 447.96 840.39 448.83 840.4 C450.57 840.4 452.3 840.4 454.04 840.4 C470.32 840.4 486.6 840.4 502.88 840.39 C516.86 840.38 530.85 840.38 544.83 840.39 C561.05 840.4 577.27 840.4 593.49 840.4 C595.22 840.4 596.95 840.39 598.68 840.39 C599.53 840.39 600.38 840.39 601.26 840.39 C607.26 840.39 613.27 840.39 619.27 840.4 C626.59 840.4 633.9 840.4 641.22 840.39 C644.95 840.39 648.69 840.39 652.42 840.39 C656.46 840.4 660.5 840.39 664.54 840.38 C666.33 840.39 666.33 840.39 668.15 840.39 C669.77 840.39 669.77 840.39 671.41 840.38 C672.35 840.38 673.28 840.38 674.24 840.38 C676.67 840.34 676.67 840.34 678.46 838.13 C678.77 835.14 678.77 835.14 678.72 831.59 C678.73 830.92 678.73 830.24 678.73 829.55 C678.74 827.32 678.74 825.09 678.73 822.86 C678.73 821.3 678.73 819.74 678.73 818.18 C678.74 814.91 678.73 811.63 678.72 808.36 C678.71 804.19 678.72 800.03 678.73 795.86 C678.74 792.64 678.74 789.41 678.73 786.19 C678.73 784.65 678.73 783.12 678.74 781.59 C679.3 763.66 679.3 763.66 671.92 748.11 C668.21 743.06 667.6 736.52 666.9 730.44 C666.26 721.64 666.26 721.64 662.71 713.88 C661.34 712.88 659.95 711.92 658.53 711 C654.66 707.5 653.4 702.37 651.69 697.55 C649.61 691.48 649.61 691.48 644.59 687.94 C641.07 685.91 639.85 684.37 638.46 680.56 C637.21 677.16 637.21 677.16 634.55 674.8 C633.15 674.15 631.73 673.54 630.3 672.95 C627.8 671.83 626.76 670.5 625.46 668.13 C625.09 666.89 625.09 666.89 624.71 665.62 C623.69 662.95 623.69 662.95 621.14 661.97 C620.22 661.72 619.29 661.46 618.34 661.19 C611.68 659.03 606.89 655.82 602.21 650.63 C599.35 648.03 596.88 646.81 593.4 645.19 C587.71 642.5 587.71 642.5 585.4 639 C582.72 635.02 579.74 634.62 575.28 633.19 C569.86 631.15 565.86 627.37 561.59 623.56 C558.18 620.9 554.8 619.31 550.83 617.63 C548.46 616.13 548.46 616.13 546.55 613.15 C542.84 607.77 536.67 606.37 530.46 605.13 C522.18 604.11 515.04 604.57 507.46 608.13 Z M58.34 702.5 C56.37 705.11 56.37 705.11 54.96 708.19 C53.46 711.13 53.46 711.13 50.9 712.75 C45.84 717.69 46.36 726.69 46.21 733.45 C46.2 735.76 46.2 738.06 46.21 740.36 C46.21 741.64 46.2 742.92 46.2 744.24 C46.19 747.75 46.2 751.27 46.2 754.78 C46.21 758.59 46.2 762.39 46.19 766.19 C46.18 773.63 46.19 781.06 46.19 788.5 C46.2 794.54 46.2 800.58 46.2 806.62 C46.2 807.48 46.19 808.34 46.19 809.22 C46.19 810.97 46.19 812.72 46.19 814.47 C46.19 830.85 46.19 847.22 46.2 863.59 C46.21 877.65 46.21 891.7 46.2 905.76 C46.19 922.09 46.19 938.43 46.19 954.76 C46.19 956.5 46.19 958.24 46.2 959.98 C46.2 960.83 46.2 961.69 46.2 962.57 C46.2 968.61 46.2 974.65 46.19 980.69 C46.18 988.03 46.19 995.38 46.2 1002.73 C46.2 1006.48 46.2 1010.23 46.2 1013.99 C46.19 1018.04 46.2 1022.1 46.21 1026.16 C46.2 1027.36 46.2 1028.55 46.2 1029.78 C46.2 1030.86 46.21 1031.94 46.21 1033.06 C46.21 1033.99 46.21 1034.93 46.21 1035.9 C46.25 1038.33 46.25 1038.33 48.46 1040.13 C51.4 1040.43 51.4 1040.43 54.9 1040.39 C55.56 1040.39 56.22 1040.39 56.9 1040.4 C59.09 1040.4 61.28 1040.4 63.46 1040.39 C64.98 1040.39 66.5 1040.4 68.01 1040.4 C71.19 1040.4 74.38 1040.4 77.56 1040.39 C81.64 1040.38 85.72 1040.38 89.8 1040.39 C92.94 1040.4 96.07 1040.4 99.2 1040.39 C100.71 1040.39 102.21 1040.39 103.72 1040.4 C105.82 1040.4 107.92 1040.4 110.03 1040.39 C111.22 1040.38 112.42 1040.38 113.65 1040.38 C116.6 1040.42 116.6 1040.42 118.46 1038.13 C118.77 1035.77 118.77 1035.77 118.71 1032.99 C118.72 1031.34 118.72 1031.34 118.73 1029.67 C118.73 1028.45 118.72 1027.24 118.72 1025.99 C118.72 1024.71 118.72 1023.42 118.73 1022.1 C118.73 1018.53 118.73 1014.96 118.72 1011.4 C118.72 1007.55 118.73 1003.7 118.73 999.86 C118.74 992.32 118.74 984.78 118.73 977.24 C118.73 971.11 118.73 964.98 118.73 958.85 C118.73 957.54 118.73 957.54 118.73 956.21 C118.73 954.44 118.73 952.67 118.73 950.9 C118.74 934.28 118.73 917.66 118.72 901.04 C118.71 886.79 118.71 872.53 118.72 858.28 C118.73 841.73 118.74 825.18 118.73 808.64 C118.73 806.87 118.73 805.11 118.73 803.34 C118.73 802.47 118.73 801.6 118.73 800.71 C118.73 794.59 118.73 788.47 118.74 782.35 C118.74 774.89 118.74 767.43 118.73 759.97 C118.72 756.16 118.72 752.35 118.73 748.55 C118.74 744.42 118.73 740.28 118.72 736.15 C118.72 734.96 118.73 733.76 118.73 732.52 C118.7 726.09 118.34 720.3 116.46 714.13 C113.65 712 113.65 712 110.46 710.13 C109.14 708.22 109.14 708.22 107.9 706.06 C104.62 700.46 100.27 698.92 94.33 696.87 C92.46 696.13 92.46 696.13 89.46 694.13 C79.7 693.43 66.04 696.64 58.34 702.5 Z M938.34 702.5 C936.37 705.11 936.37 705.11 934.96 708.19 C933.46 711.13 933.46 711.13 930.9 712.75 C925.84 717.69 926.36 726.69 926.21 733.45 C926.2 735.76 926.2 738.06 926.21 740.36 C926.21 741.64 926.2 742.92 926.2 744.24 C926.19 747.75 926.2 751.27 926.2 754.78 C926.21 758.59 926.2 762.39 926.19 766.19 C926.18 773.63 926.19 781.06 926.19 788.5 C926.2 794.54 926.2 800.58 926.2 806.62 C926.2 807.48 926.19 808.34 926.19 809.22 C926.19 810.97 926.19 812.72 926.19 814.47 C926.19 830.85 926.19 847.22 926.2 863.59 C926.21 877.65 926.21 891.7 926.2 905.76 C926.19 922.09 926.19 938.43 926.19 954.76 C926.19 956.5 926.19 958.24 926.2 959.98 C926.2 960.83 926.2 961.69 926.2 962.57 C926.2 968.61 926.2 974.65 926.19 980.69 C926.18 988.03 926.19 995.38 926.2 1002.73 C926.2 1006.48 926.2 1010.23 926.2 1013.99 C926.19 1018.04 926.2 1022.1 926.21 1026.16 C926.2 1027.36 926.2 1028.55 926.2 1029.78 C926.2 1030.86 926.21 1031.94 926.21 1033.06 C926.21 1033.99 926.21 1034.93 926.21 1035.9 C926.25 1038.33 926.25 1038.33 928.46 1040.13 C931.4 1040.43 931.4 1040.43 934.9 1040.39 C935.56 1040.39 936.22 1040.39 936.9 1040.4 C939.09 1040.4 941.28 1040.4 943.46 1040.39 C944.98 1040.39 946.5 1040.4 948.01 1040.4 C951.19 1040.4 954.38 1040.4 957.56 1040.39 C961.64 1040.38 965.72 1040.38 969.8 1040.39 C972.94 1040.4 976.07 1040.4 979.2 1040.39 C980.71 1040.39 982.21 1040.39 983.72 1040.4 C985.82 1040.4 987.92 1040.4 990.03 1040.39 C991.22 1040.38 992.42 1040.38 993.65 1040.38 C996.6 1040.42 996.6 1040.42 998.46 1038.13 C998.77 1035.77 998.77 1035.77 998.71 1032.99 C998.72 1031.34 998.72 1031.34 998.73 1029.67 C998.73 1028.45 998.72 1027.24 998.72 1025.99 C998.72 1024.71 998.72 1023.42 998.73 1022.1 C998.73 1018.53 998.73 1014.96 998.72 1011.4 C998.72 1007.55 998.73 1003.7 998.73 999.86 C998.74 992.32 998.74 984.78 998.73 977.24 C998.73 971.11 998.73 964.98 998.73 958.85 C998.73 957.54 998.73 957.54 998.73 956.21 C998.73 954.44 998.73 952.67 998.73 950.9 C998.74 934.28 998.73 917.66 998.72 901.04 C998.71 886.79 998.71 872.53 998.72 858.28 C998.73 841.73 998.74 825.18 998.73 808.64 C998.73 806.87 998.73 805.11 998.73 803.34 C998.73 802.47 998.73 801.6 998.73 800.71 C998.73 794.59 998.73 788.47 998.74 782.35 C998.74 774.89 998.74 767.43 998.73 759.97 C998.72 756.16 998.72 752.35 998.73 748.55 C998.74 744.42 998.73 740.28 998.72 736.15 C998.72 734.96 998.73 733.76 998.73 732.52 C998.7 726.09 998.34 720.3 996.46 714.13 C993.65 712 993.65 712 990.46 710.13 C989.14 708.22 989.14 708.22 987.9 706.06 C984.62 700.46 980.27 698.92 974.33 696.87 C972.46 696.13 972.46 696.13 969.46 694.13 C959.7 693.43 946.04 696.64 938.34 702.5 Z M366.46 930.13 C366.16 932.13 366.16 932.13 366.21 934.45 C366.2 935.36 366.2 936.27 366.19 937.21 C366.2 938.21 366.2 939.21 366.2 940.24 C366.2 941.29 366.2 942.34 366.19 943.42 C366.18 946.9 366.19 950.39 366.2 953.88 C366.2 956.29 366.19 958.7 366.19 961.12 C366.19 966.18 366.19 971.25 366.2 976.31 C366.21 982.81 366.21 989.32 366.2 995.82 C366.19 1000.81 366.19 1005.79 366.2 1010.78 C366.2 1013.18 366.2 1015.58 366.19 1017.98 C366.19 1021.32 366.19 1024.67 366.2 1028.02 C366.2 1029.02 366.2 1030.02 366.19 1031.05 C366.2 1031.95 366.2 1032.86 366.21 1033.8 C366.21 1034.59 366.21 1035.38 366.21 1036.2 C366.3 1038.36 366.3 1038.36 368.46 1040.13 C370.78 1040.43 370.78 1040.43 373.51 1040.38 C375.13 1040.39 375.13 1040.39 376.77 1040.39 C377.96 1040.39 379.16 1040.39 380.38 1040.38 C382.27 1040.39 382.27 1040.39 384.2 1040.39 C387.7 1040.4 391.2 1040.39 394.71 1040.39 C398.48 1040.38 402.25 1040.39 406.03 1040.4 C413.42 1040.4 420.82 1040.4 428.22 1040.4 C434.23 1040.39 440.24 1040.39 446.25 1040.39 C447.1 1040.39 447.96 1040.39 448.83 1040.4 C450.57 1040.4 452.3 1040.4 454.04 1040.4 C470.32 1040.4 486.6 1040.4 502.88 1040.39 C516.86 1040.38 530.85 1040.38 544.83 1040.39 C561.05 1040.4 577.27 1040.4 593.49 1040.4 C595.22 1040.4 596.95 1040.39 598.68 1040.39 C599.53 1040.39 600.38 1040.39 601.26 1040.39 C607.26 1040.39 613.27 1040.39 619.27 1040.4 C626.59 1040.4 633.9 1040.4 641.22 1040.39 C644.95 1040.39 648.69 1040.39 652.42 1040.39 C656.46 1040.4 660.5 1040.39 664.54 1040.38 C666.33 1040.39 666.33 1040.39 668.15 1040.39 C669.77 1040.39 669.77 1040.39 671.41 1040.38 C672.35 1040.38 673.28 1040.38 674.24 1040.38 C676.67 1040.34 676.67 1040.34 678.46 1038.13 C678.77 1036.13 678.77 1036.13 678.72 1033.8 C678.72 1032.89 678.73 1031.98 678.73 1031.05 C678.73 1030.05 678.73 1029.05 678.72 1028.02 C678.73 1026.97 678.73 1025.92 678.73 1024.83 C678.74 1021.35 678.74 1017.86 678.73 1014.38 C678.73 1011.96 678.73 1009.55 678.73 1007.14 C678.74 1002.07 678.73 997.01 678.72 991.94 C678.71 985.44 678.72 978.94 678.73 972.43 C678.74 967.45 678.74 962.46 678.73 957.47 C678.73 955.08 678.73 952.68 678.74 950.28 C678.74 946.93 678.73 943.58 678.72 940.24 C678.73 938.74 678.73 938.74 678.73 937.21 C678.73 936.3 678.72 935.39 678.72 934.45 C678.72 933.66 678.72 932.87 678.71 932.05 C678.63 929.89 678.63 929.89 676.46 928.13 C674.15 927.82 674.15 927.82 671.41 927.87 C670.34 927.87 669.26 927.86 668.15 927.86 C666.96 927.86 665.77 927.87 664.54 927.87 C663.29 927.87 662.03 927.87 660.73 927.86 C657.23 927.85 653.72 927.86 650.22 927.87 C646.45 927.87 642.67 927.86 638.9 927.86 C631.5 927.85 624.11 927.85 616.71 927.86 C610.7 927.86 604.69 927.86 598.68 927.86 C597.83 927.86 596.97 927.86 596.09 927.86 C594.36 927.86 592.62 927.86 590.89 927.86 C574.61 927.85 558.33 927.86 542.04 927.87 C528.06 927.88 514.08 927.87 500.1 927.87 C483.87 927.86 467.65 927.85 451.43 927.86 C449.7 927.86 447.98 927.86 446.25 927.86 C445.4 927.86 444.55 927.86 443.67 927.86 C437.66 927.86 431.66 927.86 425.65 927.85 C418.34 927.85 411.03 927.85 403.71 927.86 C399.98 927.87 396.24 927.87 392.51 927.86 C388.47 927.85 384.42 927.86 380.38 927.87 C379.19 927.87 378 927.86 376.77 927.86 C375.7 927.86 374.62 927.87 373.51 927.87 C372.11 927.88 372.11 927.88 370.68 927.88 C368.26 927.92 368.26 927.92 366.46 930.13 Z " fill="#000000" transform="translate(117.53684735298157,75.87350016832352)"/>
<path d="M0 0 C0.89 -0.01 1.78 -0.02 2.7 -0.04 C11.22 -0.06 20.11 0.32 26.75 6.19 C28.03 8.14 29.17 10.15 30.33 12.18 C31.94 14.46 33.56 15.64 35.88 17.19 C41.05 20.78 42.05 24.87 43.3 30.8 C44.83 42.4 46.02 58.63 40.12 69.06 C37.51 71.4 34.78 72.97 31.76 74.73 C29.5 76.37 28.29 78.01 26.75 80.31 C23.16 85.49 19.07 86.48 13.14 87.74 C1.54 89.27 -14.69 90.46 -25.12 84.56 C-27.46 81.95 -29.04 79.22 -30.79 76.2 C-32.43 73.94 -34.07 72.73 -36.38 71.19 C-41.55 67.6 -42.54 63.51 -43.8 57.58 C-44.4 53.02 -44.43 48.53 -44.44 43.94 C-44.45 43.05 -44.46 42.16 -44.47 41.24 C-44.49 32.72 -44.12 23.83 -38.25 17.19 C-36.29 15.91 -34.29 14.76 -32.26 13.61 C-29.98 12 -28.79 10.37 -27.25 8.06 C-23.66 2.89 -19.57 1.89 -13.64 0.63 C-9.08 0.03 -4.59 0 0 0 Z " fill="#000000" transform="translate(920.25,235.8125)"/>
<path d="M0 0 C0.89 -0.01 1.78 -0.02 2.7 -0.04 C11.22 -0.06 20.11 0.32 26.75 6.19 C28.03 8.14 29.17 10.15 30.33 12.18 C31.94 14.46 33.56 15.64 35.88 17.19 C41.05 20.78 42.05 24.87 43.3 30.8 C44.83 42.4 46.02 58.63 40.12 69.06 C37.51 71.4 34.78 72.97 31.76 74.73 C29.5 76.37 28.29 78.01 26.75 80.31 C23.16 85.49 19.07 86.48 13.14 87.74 C1.54 89.27 -14.69 90.46 -25.12 84.56 C-27.46 81.95 -29.04 79.22 -30.79 76.2 C-32.43 73.94 -34.07 72.73 -36.38 71.19 C-41.55 67.6 -42.54 63.51 -43.8 57.58 C-44.4 53.02 -44.43 48.53 -44.44 43.94 C-44.45 43.05 -44.46 42.16 -44.47 41.24 C-44.49 32.72 -44.12 23.83 -38.25 17.19 C-36.29 15.91 -34.29 14.76 -32.26 13.61 C-29.98 12 -28.79 10.37 -27.25 8.06 C-23.66 2.89 -19.57 1.89 -13.64 0.63 C-9.08 0.03 -4.59 0 0 0 Z " fill="#000000" transform="translate(640.25,235.8125)"/>
<path d="M0 0 C0.89 -0.01 1.78 -0.02 2.7 -0.04 C11.22 -0.06 20.11 0.32 26.75 6.19 C28.03 8.14 29.17 10.15 30.33 12.18 C31.94 14.46 33.56 15.64 35.88 17.19 C41.05 20.78 42.05 24.87 43.3 30.8 C44.83 42.4 46.02 58.63 40.12 69.06 C37.51 71.4 34.78 72.97 31.76 74.73 C29.5 76.37 28.29 78.01 26.75 80.31 C23.16 85.49 19.07 86.48 13.14 87.74 C1.54 89.27 -14.69 90.46 -25.12 84.56 C-27.46 81.95 -29.04 79.22 -30.79 76.2 C-32.43 73.94 -34.07 72.73 -36.38 71.19 C-41.55 67.6 -42.54 63.51 -43.8 57.58 C-44.4 53.02 -44.43 48.53 -44.44 43.94 C-44.45 43.05 -44.46 42.16 -44.47 41.24 C-44.49 32.72 -44.12 23.83 -38.25 17.19 C-36.29 15.91 -34.29 14.76 -32.26 13.61 C-29.98 12 -28.79 10.37 -27.25 8.06 C-23.66 2.89 -19.57 1.89 -13.64 0.63 C-9.08 0.03 -4.59 0 0 0 Z " fill="#000000" transform="translate(360.25,235.8125)"/>
</svg>
