<?xml version="1.0" encoding="UTF-8"?>
<svg version="1.1" xmlns="http://www.w3.org/2000/svg" width="96" height="96">
<path d="M0 0 C2.08055115 -0.3742218 2.08055115 -0.3742218 4.67749023 -0.37231445 C6.1342643 -0.38165764 6.1342643 -0.38165764 7.62046814 -0.39118958 C8.67254959 -0.38197983 9.72463104 -0.37277008 10.80859375 -0.36328125 C11.88625504 -0.36377975 12.96391632 -0.36427826 14.07423401 -0.36479187 C16.35655559 -0.36244817 18.63887959 -0.35270234 20.92114258 -0.33618164 C24.4196683 -0.31262009 27.91743092 -0.31561479 31.41601562 -0.32226562 C33.63021289 -0.3166881 35.84440693 -0.30957776 38.05859375 -0.30078125 C39.63367958 -0.30214836 39.63367958 -0.30214836 41.24058533 -0.30354309 C42.2149202 -0.29401108 43.18925507 -0.28447906 44.19311523 -0.2746582 C45.47979347 -0.26774712 45.47979347 -0.26774712 46.79246521 -0.26069641 C49 0 49 0 52 2 C52.43237305 4.98095703 52.43237305 4.98095703 52.51171875 8.7578125 C52.52966995 9.42086395 52.54762115 10.08391541 52.56611633 10.76705933 C52.62032924 12.88630803 52.65414771 15.00533025 52.6875 17.125 C52.72066367 18.56122952 52.75515245 19.9974291 52.79101562 21.43359375 C52.87856089 24.95576363 52.93852579 28.47689189 53 32 C59.93 32.495 59.93 32.495 67 33 C67 30.03 67 27.06 67 24 C66.21753906 24.01160156 65.43507813 24.02320312 64.62890625 24.03515625 C63.11103516 24.04869141 63.11103516 24.04869141 61.5625 24.0625 C60.55316406 24.07410156 59.54382813 24.08570312 58.50390625 24.09765625 C56 24 56 24 55 23 C55.25465176 16.50638022 57.24366408 4.75633592 62 0 C64.64326005 -0.20696667 67.2283029 -0.32436753 69.875 -0.375 C70.60847656 -0.41238281 71.34195313 -0.44976563 72.09765625 -0.48828125 C74.2421875 -0.5234375 74.2421875 -0.5234375 78 0 C79.87109375 2.15234375 79.87109375 2.15234375 81 5 C81.38542969 5.95777344 81.77085938 6.91554688 82.16796875 7.90234375 C82.50441406 8.90394531 82.84085937 9.90554687 83.1875 10.9375 C83.53167969 11.93652344 83.87585938 12.93554688 84.23046875 13.96484375 C85.0298483 17.11772654 85.21214999 19.76117685 85 23 C84 24 84 24 81.49609375 24.09765625 C80.48675781 24.08605469 79.47742188 24.07445313 78.4375 24.0625 C77.42558594 24.05347656 76.41367188 24.04445313 75.37109375 24.03515625 C74.58863281 24.02355469 73.80617188 24.01195313 73 24 C73 26.97 73 29.94 73 33 C74.82337891 32.98259766 74.82337891 32.98259766 76.68359375 32.96484375 C78.26822764 32.95546722 79.85286318 32.94636687 81.4375 32.9375 C82.23994141 32.92912109 83.04238281 32.92074219 83.86914062 32.91210938 C85.91295221 32.9034857 87.95683902 32.9477185 90 33 C91 34 91 34 91.11352539 37.60180664 C91.11336625 39.20459856 91.10767063 40.8073956 91.09765625 42.41015625 C91.0962413 43.25219101 91.09482635 44.09422577 91.09336853 44.96177673 C91.08775263 47.66205335 91.07519748 50.36224828 91.0625 53.0625 C91.05748705 54.88867068 91.05292379 56.71484266 91.04882812 58.54101562 C91.03777804 63.02737542 91.02050279 67.51367384 91 72 C89.02 72 87.04 72 85 72 C85 69.03 85 66.06 85 63 C75.1 63 65.2 63 55 63 C55 65.97 55 68.94 55 72 C53.02 72 51.04 72 49 72 C49 69.03 49 66.06 49 63 C33.16 63 17.32 63 1 63 C1 65.97 1 68.94 1 72 C-0.98 72 -2.96 72 -5 72 C-5.0494186 66.78557724 -5.08572831 61.57129066 -5.10986328 56.35668945 C-5.11992411 54.58257676 -5.13357422 52.80848065 -5.15087891 51.03442383 C-5.17512378 48.48514716 -5.18648218 45.93608963 -5.1953125 43.38671875 C-5.20563507 42.59287277 -5.21595764 41.79902679 -5.22659302 40.98112488 C-5.2273811 37.11776957 -5.19440369 35.29160554 -3 32 C-2.6630822 28.94638231 -2.6630822 28.94638231 -2.65625 25.46875 C-2.62660156 24.18355469 -2.59695313 22.89835937 -2.56640625 21.57421875 C-2.54316647 20.21616428 -2.52104312 18.85809028 -2.5 17.5 C-2.45883405 14.84321267 -2.40503374 12.18776697 -2.34375 9.53125 C-2.32505859 8.35111328 -2.30636719 7.17097656 -2.28710938 5.95507812 C-2 3 -2 3 0 0 Z M4 6 C4 13.92 4 21.84 4 30 C5.98 30 7.96 30 10 30 C10.06058594 29.15695313 10.12117187 28.31390625 10.18359375 27.4453125 C10.26738281 26.34960938 10.35117188 25.25390625 10.4375 24.125 C10.51871094 23.03445312 10.59992187 21.94390625 10.68359375 20.8203125 C11 18 11 18 12 16 C16.12498538 15.97107615 20.24994485 15.95322733 24.375 15.9375 C26.1384375 15.92493164 26.1384375 15.92493164 27.9375 15.91210938 C29.61972656 15.90727539 29.61972656 15.90727539 31.3359375 15.90234375 C32.89127197 15.89448853 32.89127197 15.89448853 34.47802734 15.88647461 C37 16 37 16 39 17 C39.4140625 19.94140625 39.4140625 19.94140625 39.625 23.5625 C39.69976562 24.76003906 39.77453125 25.95757812 39.8515625 27.19140625 C39.90054688 28.11824219 39.94953125 29.04507813 40 30 C41.98 30 43.96 30 46 30 C46 22.08 46 14.16 46 6 C32.14 6 18.28 6 4 6 Z M66 6 C65.49440092 7.43554025 64.9957251 8.8735202 64.5 10.3125 C64.2215625 11.11300781 63.943125 11.91351563 63.65625 12.73828125 C62.86066893 15.08769422 62.86066893 15.08769422 63 18 C67.62 18 72.24 18 77 18 C76.525625 16.205625 76.05125 14.41125 75.5625 12.5625 C75.16224609 11.04849609 75.16224609 11.04849609 74.75390625 9.50390625 C74.24021923 7.08247999 74.24021923 7.08247999 73 6 C70.66702567 5.95907063 68.33294775 5.95758277 66 6 Z M16 21 C16 23.97 16 26.94 16 30 C21.94 30 27.88 30 34 30 C34 27.03 34 24.06 34 21 C28.06 21 22.12 21 16 21 Z M1 39 C1 44.94 1 50.88 1 57 C16.84 57 32.68 57 49 57 C49 51.06 49 45.12 49 39 C45.85664886 35.75193882 45.85664886 35.75193882 41.8515625 35.61181641 C41.02060059 35.60235992 40.18963867 35.59290344 39.33349609 35.5831604 C38.43969238 35.58923309 37.54588867 35.59530579 36.625 35.6015625 C35.70412598 35.59869232 34.78325195 35.59582214 33.83447266 35.59286499 C31.88768906 35.59082369 29.94088498 35.59635817 27.99414062 35.60888672 C25.01125301 35.62493944 22.02972039 35.60904028 19.046875 35.58984375 C17.156247 35.59182617 15.26561985 35.59566982 13.375 35.6015625 C12.48119629 35.59548981 11.58739258 35.58941711 10.66650391 35.5831604 C9.42006104 35.59734512 9.42006104 35.59734512 8.1484375 35.61181641 C7.05281494 35.61539658 7.05281494 35.61539658 5.93505859 35.61904907 C3.53863609 35.9041589 3.53863609 35.9041589 1 39 Z M55 39 C55 44.94 55 50.88 55 57 C64.9 57 74.8 57 85 57 C85 51.06 85 45.12 85 39 C75.1 39 65.2 39 55 39 Z " fill="#212121" transform="translate(5,18)"/>
<path d="M0 0 C1.65 0.33 3.3 0.66 5 1 C4.67 2.65 4.34 4.3 4 6 C2.35 5.67 0.7 5.34 -1 5 C-0.67 3.35 -0.34 1.7 0 0 Z " fill="#222222" transform="translate(73,63)"/>
</svg>
