<?xml version="1.0" encoding="UTF-8"?>
<!-- Generator: visioncortex VTracer 0.6.3 -->
<svg version="1.1" xmlns="http://www.w3.org/2000/svg" width="1280" height="1280">
<path d="M0 0 C2.33 0 4.65 -0.02 6.97 -0.05 C19.69 -0.1 32.75 1 42.72 9.85 C46.05 11.99 49.53 12.54 53.37 13.32 C63.45 15.38 63.45 15.38 68 18.32 C68.59 19.31 69.18 20.31 69.78 21.34 C72.96 25.61 76.32 25.89 81.37 26.88 C87.9 28.2 92.32 29.38 97 34.32 C97.87 36.63 97.87 36.63 98 38.32 C99.07 38.46 99.07 38.46 100.16 38.61 C120.42 41.65 120.42 41.65 127.12 47.75 C132.1 52.11 137.85 53.17 144.17 54.54 C149.19 55.66 152.94 56.96 157 60.32 C157.44 61.37 157.44 61.37 157.9 62.45 C158.95 64.71 158.95 64.71 162.34 65.37 C163.72 65.65 165.11 65.93 166.5 66.19 C174.19 67.87 181.42 70.24 186.78 76.35 C189.76 78.99 192.99 79.8 196.75 80.82 C210.78 84.91 210.78 84.91 214.42 88.85 C216.38 90.67 217.85 91 220.45 91.56 C221.32 91.76 222.18 91.96 223.08 92.16 C224.89 92.55 226.7 92.94 228.51 93.33 C234.83 94.78 239.91 96.35 243.81 101.9 C246.98 105.41 250.43 105.91 254.93 106.94 C265.3 109.42 265.3 109.42 269 112.32 C269.68 113.58 269.68 113.58 270.37 114.87 C272.7 118.38 274.95 118.49 279 119.38 C280.35 119.7 281.71 120.03 283.06 120.36 C283.73 120.52 284.39 120.68 285.08 120.84 C287.76 121.51 290.38 122.31 293 123.19 C293.8 123.46 294.6 123.72 295.43 124 C297.86 125.25 299.25 126.43 301.21 128.28 C305.26 131.88 309.29 132.86 314.5 133.94 C321.99 135.57 328.03 137.18 333.48 142.94 C336.65 145.93 339.08 146.38 343.31 147.25 C350.37 148.87 355.51 151.36 360.33 156.83 C362.28 158.57 363.62 158.96 366.16 159.53 C366.98 159.72 367.79 159.91 368.62 160.11 C370.31 160.49 372 160.87 373.69 161.25 C379.37 162.61 384.5 164.44 389 168.32 C389.33 169.31 389.66 170.3 390 171.32 C390.73 171.41 391.47 171.51 392.23 171.61 C411.83 174.5 411.83 174.5 418 182.32 C418.33 182.98 418.66 183.64 419 184.32 C420.82 185 420.82 185 423.04 185.46 C423.87 185.67 424.69 185.87 425.54 186.07 C427.28 186.48 429.02 186.88 430.76 187.28 C436.58 188.71 442.06 190.15 445.37 195.57 C445.68 196.43 445.68 196.43 446 197.32 C454.91 195.2 460.23 191.86 466.12 185 C466.94 184.06 466.94 184.06 467.77 183.1 C471.33 178.73 473.25 174.67 475 169.32 C476.47 165.59 477.22 163.8 480.65 161.67 C484.42 160.15 487.14 159.93 491.19 159.91 C492.23 159.9 492.23 159.9 493.29 159.89 C495.57 159.87 497.84 159.88 500.12 159.88 C501.71 159.88 503.3 159.87 504.89 159.87 C508.22 159.86 511.55 159.86 514.88 159.87 C519.14 159.88 523.39 159.86 527.65 159.83 C530.94 159.81 534.22 159.81 537.5 159.82 C539.07 159.82 540.64 159.81 542.21 159.8 C544.41 159.79 546.6 159.8 548.8 159.81 C550.05 159.81 551.3 159.81 552.58 159.81 C557.18 160.49 560.53 162.38 563.36 166.11 C565.02 171.85 564.17 178.37 564 184.32 C563.97 185.39 563.97 185.39 563.94 186.48 C563.57 198.32 562.46 206.59 554.7 215.85 C552.18 219.5 551.21 223.42 549.96 227.64 C548.62 231.38 547.15 232.95 544 235.32 C543.32 235.58 542.64 235.84 541.95 236.12 C539.23 237.78 539.08 239.35 538.25 242.38 C535.43 250.8 529.03 258.27 521 262.32 C519.57 262.67 518.13 262.98 516.68 263.25 C515.47 263.6 514.25 263.95 513 264.32 C512.27 266.29 511.6 268.3 511 270.32 C506.88 273.36 502.87 274.7 498 276.19 C493.15 277.71 490.31 279.47 486.68 282.93 C477.4 290.58 461.07 288.52 449.76 288.56 C447.63 288.57 445.5 288.6 443.37 288.63 C432.51 288.71 419.59 288.78 411 281.32 C410.48 280.66 409.97 280.01 409.44 279.34 C405.3 275.91 400.16 275.43 394.99 274.34 C388.16 272.75 384.94 270.24 381 264.32 C378.43 263.45 375.99 262.75 373.37 262.13 C372.31 261.86 372.31 261.86 371.23 261.59 C369.49 261.16 367.74 260.73 366 260.32 C364.96 263.42 364.87 265.54 364.87 268.79 C364.87 269.93 364.86 271.07 364.86 272.25 C364.86 273.5 364.86 274.75 364.87 276.03 C364.86 277.35 364.86 278.66 364.86 280.02 C364.86 283.63 364.86 287.24 364.86 290.85 C364.86 294.62 364.86 298.39 364.86 302.16 C364.86 308.5 364.86 314.83 364.87 321.17 C364.87 328.5 364.87 335.83 364.86 343.16 C364.86 349.45 364.86 355.74 364.86 362.02 C364.86 365.78 364.86 369.54 364.86 373.3 C364.86 377.49 364.86 381.67 364.87 385.86 C364.86 387.11 364.86 388.37 364.86 389.66 C364.86 390.79 364.87 391.92 364.87 393.09 C364.87 394.08 364.87 395.07 364.87 396.09 C364.75 398.29 364.75 398.29 366 399.32 C368.59 399.43 371.16 399.48 373.75 399.49 C374.57 399.5 375.38 399.5 376.22 399.51 C377.99 399.52 379.76 399.54 381.54 399.55 C384.35 399.56 387.16 399.59 389.98 399.61 C397.98 399.68 405.98 399.74 413.98 399.79 C418.87 399.82 423.76 399.87 428.65 399.91 C430.51 399.93 432.37 399.94 434.23 399.95 C459.93 400.07 459.93 400.07 467 406.32 C468.27 408.27 469.42 410.28 470.57 412.31 C472.19 414.58 473.81 415.77 476.12 417.32 C481.29 420.9 482.31 424.99 483.53 430.93 C484.15 435.43 484.27 439.91 484.43 444.44 C484.44 459.48 484.44 459.48 491 472.32 C493.54 476.56 494.98 481.05 496.08 485.84 C498.53 497.55 498.53 497.55 506.06 506.48 C509.68 509.91 511.37 514.67 513 519.32 C513 519.98 513 520.64 513 521.32 C513.57 521.4 514.15 521.48 514.75 521.57 C517.73 522.56 518.98 523.91 521 526.32 C521.39 527.29 521.78 528.25 522.18 529.25 C524.48 533.13 526.91 534.11 530.85 536.1 C533.66 537.69 535.17 539.68 537 542.32 C539.44 545.2 541.67 546.7 545.06 548.25 C548.69 549.97 550.43 551.49 552 555.32 C552 556.31 552 557.3 552 558.32 C552.99 558.49 553.98 558.66 555 558.83 C571.73 561.85 571.73 561.85 577 567.44 C578 569.32 578 569.32 578 571.32 C579.23 571.56 580.46 571.8 581.72 572.05 C583.36 572.39 584.99 572.73 586.62 573.07 C587.43 573.22 588.24 573.38 589.07 573.54 C594.16 574.62 597.88 575.96 602 579.32 C602.54 580.17 603.08 581.02 603.64 581.9 C607.48 585.84 612.34 586.07 617.62 587 C618.66 587.2 619.71 587.4 620.78 587.61 C622.76 587.98 624.74 588.35 626.72 588.71 C631.15 589.53 635.57 590.43 640 591.32 C640 623.33 640 655.34 640 688.32 C631.78 688.38 623.56 688.44 615.09 688.5 C609.24 688.54 603.39 688.59 597.54 688.64 C589.95 688.7 582.37 688.76 574.78 688.81 C568.13 688.86 561.49 688.91 554.84 688.97 C552.3 688.99 549.76 689.01 547.21 689.02 C543.67 689.05 540.12 689.08 536.57 689.11 C535.51 689.12 534.45 689.12 533.35 689.13 C532.39 689.14 531.43 689.15 530.44 689.16 C529.18 689.17 529.18 689.17 527.9 689.18 C525.99 689.11 525.99 689.11 525 690.32 C524.9 692.5 524.87 694.69 524.87 696.87 C524.86 697.57 524.86 698.26 524.86 698.98 C524.85 701.35 524.86 703.71 524.86 706.07 C524.86 707.77 524.85 709.47 524.85 711.17 C524.84 715.87 524.84 720.56 524.84 725.26 C524.84 730.31 524.83 735.37 524.82 740.42 C524.81 749.19 524.8 757.96 524.8 766.73 C524.79 780.59 524.77 794.45 524.74 808.31 C524.74 813.05 524.73 817.79 524.72 822.53 C524.72 823.71 524.72 824.9 524.72 826.12 C524.69 839.62 524.68 853.11 524.66 866.61 C524.66 867.85 524.65 869.08 524.65 870.35 C524.63 890.34 524.61 910.33 524.59 930.31 C524.57 950.82 524.55 971.34 524.51 991.85 C524.48 1004.5 524.47 1017.16 524.47 1029.81 C524.47 1038.49 524.45 1047.17 524.43 1055.85 C524.42 1060.85 524.41 1065.86 524.42 1070.87 C524.42 1075.45 524.41 1080.04 524.39 1084.63 C524.39 1086.28 524.39 1087.94 524.4 1089.59 C524.48 1113.47 524.48 1113.47 517 1122.32 C516.33 1122.74 515.67 1123.16 514.99 1123.6 C512.34 1125.88 511.96 1127.85 511.06 1131.19 C509.48 1136.29 508.37 1139.22 504 1142.32 C501.18 1143.13 501.18 1143.13 499 1143.32 C498.77 1144.39 498.54 1145.46 498.31 1146.57 C496.79 1150.89 495.85 1151.94 492 1154.32 C490.5 1154.95 489 1155.58 487.5 1156.19 C484.29 1157.53 482.36 1158.68 480.25 1161.44 C476.72 1165.94 472.9 1166.5 467.35 1167.19 C466.64 1167.27 465.93 1167.34 465.21 1167.42 C464.46 1167.51 463.71 1167.59 462.94 1167.68 C455.17 1168.49 447.44 1168.6 439.63 1168.57 C438.05 1168.57 436.48 1168.58 434.9 1168.58 C430.59 1168.59 426.29 1168.58 421.99 1168.58 C417.29 1168.57 412.6 1168.58 407.9 1168.59 C399.69 1168.6 391.47 1168.6 383.25 1168.59 C371.04 1168.59 358.82 1168.6 346.6 1168.6 C323.51 1168.62 300.42 1168.62 277.33 1168.62 C259.5 1168.62 241.68 1168.62 223.85 1168.62 C221.29 1168.62 218.73 1168.62 216.17 1168.62 C212.3 1168.62 208.44 1168.63 204.58 1168.63 C168.7 1168.64 132.81 1168.64 96.93 1168.64 C96.25 1168.64 95.57 1168.64 94.88 1168.64 C87.34 1168.63 79.8 1168.63 72.27 1168.63 C71.25 1168.63 71.25 1168.63 70.21 1168.63 C64.55 1168.63 64.55 1168.63 61.95 1168.63 C18.41 1168.63 -25.13 1168.63 -68.68 1168.65 C-79.65 1168.66 -90.63 1168.66 -101.6 1168.67 C-102.62 1168.67 -102.62 1168.67 -103.65 1168.67 C-140.15 1168.68 -176.64 1168.68 -213.13 1168.68 C-218.26 1168.68 -223.4 1168.68 -228.53 1168.68 C-229.79 1168.68 -231.06 1168.68 -232.36 1168.68 C-251.44 1168.68 -270.53 1168.68 -289.62 1168.69 C-311.31 1168.71 -333.01 1168.71 -354.71 1168.7 C-366.85 1168.69 -378.99 1168.69 -391.14 1168.7 C-399.25 1168.71 -407.36 1168.71 -415.47 1168.7 C-420.09 1168.69 -424.71 1168.69 -429.33 1168.7 C-433.54 1168.71 -437.75 1168.71 -441.95 1168.69 C-443.46 1168.69 -444.97 1168.69 -446.48 1168.7 C-457.39 1168.76 -469.28 1168.7 -478 1161.32 C-478.43 1160.65 -478.85 1159.99 -479.29 1159.31 C-481.56 1156.66 -483.54 1156.28 -486.88 1155.38 C-491.98 1153.8 -494.91 1152.69 -498 1148.32 C-498.82 1145.5 -498.82 1145.5 -499 1143.32 C-500.08 1143.09 -501.15 1142.86 -502.25 1142.63 C-506.58 1141.11 -507.63 1140.17 -510 1136.32 C-510.64 1134.82 -511.27 1133.32 -511.88 1131.82 C-513.21 1128.61 -514.37 1126.68 -517.13 1124.57 C-521.61 1121.06 -522.19 1117.26 -522.88 1111.73 C-522.95 1111.03 -523.03 1110.33 -523.11 1109.6 C-523.2 1108.86 -523.28 1108.11 -523.37 1107.34 C-524.23 1099.13 -524.29 1090.96 -524.28 1082.71 C-524.28 1081.01 -524.29 1079.3 -524.29 1077.6 C-524.31 1072.96 -524.31 1068.33 -524.31 1063.69 C-524.31 1058.68 -524.32 1053.66 -524.33 1048.64 C-524.35 1039.97 -524.36 1031.29 -524.37 1022.62 C-524.38 1010.07 -524.4 997.53 -524.43 984.99 C-524.47 964.63 -524.5 944.27 -524.53 923.92 C-524.53 922.09 -524.53 922.09 -524.53 920.23 C-524.53 918.4 -524.53 918.4 -524.54 916.54 C-524.56 899.24 -524.58 881.93 -524.61 864.63 C-524.61 862.8 -524.61 862.8 -524.62 860.93 C-524.65 840.63 -524.68 820.33 -524.72 800.02 C-524.75 787.5 -524.76 774.98 -524.78 762.46 C-524.79 753.89 -524.8 745.33 -524.82 736.77 C-524.82 731.82 -524.83 726.88 -524.83 721.93 C-524.84 717.41 -524.84 712.89 -524.85 708.37 C-524.86 706.73 -524.86 705.09 -524.86 703.45 C-524.86 701.23 -524.86 699.01 -524.87 696.79 C-524.87 695.56 -524.87 694.32 -524.88 693.05 C-524.69 690.4 -524.69 690.4 -526 689.32 C-527.48 689.21 -528.97 689.17 -530.45 689.16 C-531.41 689.15 -532.37 689.14 -533.36 689.13 C-534.43 689.12 -535.49 689.12 -536.58 689.11 C-537.69 689.1 -538.81 689.09 -539.95 689.08 C-543.65 689.05 -547.34 689.02 -551.04 689 C-553.59 688.98 -556.15 688.96 -558.7 688.94 C-564.75 688.89 -570.8 688.84 -576.85 688.8 C-584.41 688.74 -591.97 688.68 -599.53 688.62 C-613.02 688.51 -626.51 688.42 -640 688.32 C-640 656.31 -640 624.3 -640 591.32 C-629.77 589.34 -619.54 587.36 -609 585.32 C-604.11 583.78 -604.11 583.78 -601.82 580.94 C-595.48 575.03 -587.01 573.72 -578.69 572.32 C-575.79 571.59 -575.79 571.59 -574.85 568.87 C-574.43 567.61 -574.43 567.61 -574 566.32 C-572.41 564.91 -572.41 564.91 -570.5 563.82 C-569.44 563.19 -569.44 563.19 -568.35 562.55 C-565.94 561.28 -563.48 560.15 -561 559 C-557.27 557.21 -554.8 555.3 -552 552.25 C-548.43 548.37 -545.12 547.01 -540.2 545.31 C-536.9 543.82 -535.71 541.41 -534 538.32 C-531.74 536.28 -529.9 535.27 -527.07 534.13 C-523.41 531.96 -522.17 529.82 -520.18 526.16 C-519 524.32 -519 524.32 -516 522.32 C-515.01 522.32 -514.02 522.32 -513 522.32 C-511.59 519.71 -510.58 517.11 -509.63 514.32 C-508.33 510.84 -507.07 508.57 -504 506.32 C-501.25 505.57 -501.25 505.57 -499 505.32 C-498.81 503.57 -498.81 503.57 -498.61 501.79 C-497.38 492.03 -494.74 482.67 -490.94 473.63 C-486.35 462.58 -484.8 452.36 -484.34 440.5 C-483.67 423.73 -483.67 423.73 -478 417.32 C-476.05 416.04 -474.04 414.89 -472.01 413.74 C-469.74 412.13 -468.55 410.5 -467 408.19 C-463.43 403.03 -459.34 401.98 -453.39 400.8 C-449.46 400.24 -445.59 400.15 -441.63 400.13 C-440.81 400.12 -439.99 400.11 -439.15 400.1 C-437.38 400.08 -435.61 400.07 -433.84 400.06 C-431.05 400.03 -428.26 400.01 -425.46 399.98 C-418.53 399.91 -411.6 399.85 -404.66 399.79 C-398.79 399.74 -392.92 399.68 -387.05 399.62 C-384.29 399.6 -381.53 399.58 -378.77 399.56 C-377.09 399.54 -375.41 399.52 -373.73 399.51 C-372.96 399.5 -372.19 399.5 -371.39 399.49 C-367.91 399.77 -367.91 399.77 -365 398.32 C-364.91 396.57 -364.88 394.82 -364.88 393.07 C-364.88 391.93 -364.88 390.8 -364.88 389.62 C-364.88 388.37 -364.89 387.11 -364.89 385.81 C-364.89 383.83 -364.89 383.83 -364.89 381.82 C-364.89 378.2 -364.9 374.58 -364.9 370.95 C-364.91 367.17 -364.91 363.39 -364.91 359.61 C-364.91 352.45 -364.92 345.28 -364.93 338.12 C-364.94 329.96 -364.95 321.81 -364.95 313.65 C-364.96 296.87 -364.98 280.09 -365 263.32 C-368.68 262.48 -370.52 262.11 -373.88 263.94 C-374.93 264.5 -374.93 264.5 -376 265.07 C-378.26 266.41 -378.26 266.41 -381 268.82 C-387.9 273.97 -398.55 274.94 -406.88 276.25 C-409.16 276.62 -409.16 276.62 -411 277.32 C-412.27 279.68 -412.27 279.68 -413 282.32 C-422.46 289.36 -434.68 288.64 -445.96 288.58 C-448.24 288.57 -450.51 288.58 -452.78 288.59 C-478.6 288.61 -478.6 288.61 -489 283.32 C-489.58 282.51 -490.15 281.71 -490.75 280.89 C-493.57 277.68 -496.5 276.77 -500.44 275.5 C-508.56 272.63 -508.56 272.63 -510.75 268.19 C-511.07 267.51 -511.39 266.82 -511.72 266.12 C-513.97 262.95 -517.57 262.53 -521.16 261.42 C-529.62 258.14 -535.33 250.36 -539 242.32 C-539.17 241.41 -539.34 240.51 -539.52 239.57 C-539.68 238.83 -539.84 238.08 -540 237.32 C-541.67 236.64 -543.33 235.98 -545 235.32 C-548.31 231.06 -549.89 227.03 -551.38 221.88 C-552.99 216.6 -554.76 212.84 -558.65 208.9 C-563.54 203.18 -563.72 194.48 -564 187.32 C-564.04 186.57 -564.07 185.83 -564.1 185.07 C-564.2 182.55 -564.26 180.03 -564.32 177.5 C-564.36 176.28 -564.36 176.28 -564.41 175.04 C-564.46 169.66 -563.68 166.52 -560 162.32 C-556.46 159.94 -553.23 160.06 -549.04 160.04 C-548.34 160.04 -547.65 160.03 -546.94 160.03 C-544.65 160.01 -542.36 160.01 -540.07 160.01 C-538.48 160.01 -536.89 160.01 -535.29 160 C-531.95 159.99 -528.61 159.99 -525.27 160 C-521 160.01 -516.73 159.99 -512.45 159.97 C-509.16 159.95 -505.87 159.95 -502.57 159.95 C-501 159.95 -499.43 159.95 -497.85 159.94 C-495.64 159.92 -493.44 159.93 -491.23 159.94 C-489.35 159.94 -489.35 159.94 -487.43 159.94 C-483.64 160.36 -481.24 161.31 -478 163.32 C-476.01 166.48 -474.93 169.54 -473.77 173.1 C-472.1 177.52 -469.71 180.69 -466.5 184.13 C-465.72 184.98 -465.72 184.98 -464.91 185.84 C-460.32 190.51 -455.68 193.03 -449 193.32 C-446.02 192.81 -443.5 191.68 -440.75 190.44 C-435.5 188.25 -430.25 187.32 -424.63 186.62 C-419.54 185.85 -417.33 184.15 -414 180.32 C-408.42 175.41 -401.96 174.14 -394.82 172.92 C-392.36 172.5 -392.36 172.5 -389 171.32 C-387.7 168.9 -387.7 168.9 -387 166.32 C-380.34 161.3 -370.29 158.32 -362 158.32 C-361.78 157.74 -361.55 157.16 -361.32 156.57 C-358.59 151.88 -355.07 150.17 -350 148.75 C-346.87 147.96 -343.74 147.26 -340.57 146.64 C-334.13 145.33 -330.34 144.54 -326 139.32 C-321.13 136.18 -316.63 134.47 -311.07 133 C-306.3 131.64 -302.63 130.55 -299.13 126.88 C-294.85 122.43 -289.42 121.2 -283.61 119.62 C-278.59 118.18 -275.33 116.33 -271.56 112.69 C-265.91 107.69 -256.78 107.21 -249.61 105.96 C-245.75 105.35 -245.75 105.35 -242 104.32 C-241.63 103.17 -241.63 103.17 -241.25 102 C-239.35 97.9 -236.06 96.8 -232 95.32 C-228.44 94.33 -224.87 93.39 -221.27 92.54 C-217.45 91.11 -215.77 89.28 -213 86.32 C-207.43 81.88 -201.7 80.79 -194.9 79.34 C-189.49 78.06 -186.76 76.63 -183 72.32 C-178.46 69.38 -173.41 68.15 -168.17 67.02 C-160.77 65.42 -156.5 63.55 -150.83 58.33 C-146.45 55.21 -141.59 54.05 -136.48 52.54 C-131.09 50.88 -127.75 48.91 -123.76 44.85 C-117.33 39.22 -106.07 39.3 -98 38.32 C-97.8 37.57 -97.59 36.83 -97.38 36.07 C-95.52 32.35 -93.68 31.25 -90 29.32 C-86.24 28.23 -82.41 27.62 -78.55 26.98 C-73.18 25.96 -70.67 24.58 -67 20.32 C-62.18 15.68 -57.04 14.82 -50.69 13.51 C-45.29 12.22 -42.66 10.54 -39.49 5.95 C-35.87 1.97 -30.41 1.77 -25.34 1.21 C-24.59 1.13 -23.85 1.04 -23.09 0.96 C-15.4 0.15 -7.73 -0.02 0 0 Z M-24.81 104.81 C-25.93 106.28 -26.97 107.79 -28 109.32 C-33.57 112.15 -38.93 113.18 -45.04 114.13 C-51.35 115.19 -56.61 116.89 -61.38 121.32 C-65.2 124.77 -69.04 125.92 -73.94 127.25 C-80.28 129.15 -84.61 130.99 -89.31 135.78 C-93.18 139.29 -98.62 139.97 -103.55 141.2 C-105.41 141.69 -105.41 141.69 -107.32 142.19 C-108.49 142.48 -109.66 142.76 -110.87 143.06 C-114.53 144.53 -115.72 146.17 -118 149.32 C-121.9 151.19 -125.71 152.26 -129.91 153.21 C-130.61 153.37 -131.31 153.53 -132.04 153.7 C-133.45 154.02 -134.86 154.32 -136.28 154.61 C-141.31 155.73 -143.59 157.57 -147 161.32 C-152.48 165.54 -157.78 166.65 -164.45 168.09 C-168.52 169.49 -170.12 171.18 -173 174.32 C-178.05 178.42 -182.76 179.35 -189 180.38 C-196.59 181.66 -202.48 182.94 -208.29 188.29 C-212.25 191.82 -216.41 193.21 -221.44 194.69 C-222.27 194.95 -223.1 195.21 -223.95 195.48 C-225.96 196.1 -227.98 196.71 -230 197.32 C-224.83 200.09 -220.4 200.46 -214.58 200.44 C-213.82 200.45 -213.07 200.45 -212.29 200.45 C-209.75 200.45 -207.21 200.45 -204.67 200.45 C-202.83 200.45 -200.99 200.45 -199.16 200.46 C-194.1 200.46 -189.05 200.46 -183.99 200.46 C-178.55 200.46 -173.1 200.47 -167.65 200.47 C-156.97 200.48 -146.3 200.48 -135.62 200.48 C-126.94 200.48 -118.26 200.49 -109.58 200.49 C-84.98 200.5 -60.38 200.5 -35.78 200.5 C-35.11 200.5 -34.45 200.5 -33.77 200.5 C-32.42 200.5 -31.08 200.5 -29.74 200.5 C-8.88 200.5 11.98 200.51 32.83 200.52 C56.27 200.54 79.7 200.55 103.13 200.54 C115.54 200.54 127.95 200.55 140.36 200.56 C150.92 200.57 161.49 200.57 172.06 200.56 C177.45 200.56 182.84 200.56 188.23 200.57 C193.17 200.58 198.1 200.57 203.04 200.57 C204.83 200.56 206.61 200.57 208.39 200.57 C217.43 200.6 226.15 200.46 235 198.32 C234.67 197.66 234.34 197 234 196.32 C232 195.74 232 195.74 229.59 195.42 C228.68 195.27 227.77 195.12 226.83 194.96 C224.93 194.66 223.02 194.37 221.11 194.08 C215.42 193.11 211.28 191.71 206.56 188.33 C205.03 187.13 205.03 187.13 203 187.32 C202.67 186.33 202.34 185.34 202 184.32 C197.78 182.07 193.64 180.96 189 179.88 C182.85 178.4 178.11 176.77 173.86 171.85 C170.15 168.57 166.8 167.79 162.06 166.69 C156.64 165.38 151.96 163.94 147 161.32 C146.34 161.32 145.68 161.32 145 161.32 C144.81 160.7 144.63 160.08 144.44 159.44 C142.3 156.29 139.4 156.03 135.87 155.25 C134.5 154.92 133.14 154.58 131.77 154.24 C130.53 153.93 129.28 153.63 128 153.32 C123.34 152.09 120.22 150.88 117.39 146.87 C113.68 142.39 109.72 141.75 104.18 140.75 C96.6 139.14 91.07 137.27 85 132.32 C80.62 129.23 76.11 128.1 71 126.82 C64.46 125.17 59.34 123.72 54.5 118.75 C50.58 114.93 46.31 114.09 41.06 112.94 C35.03 111.46 30.94 109.57 26.83 104.8 C23.42 101.81 20.47 101.12 16.12 100.5 C15.37 100.39 14.62 100.27 13.85 100.15 C2.38 98.52 -15.08 96.75 -24.81 104.81 Z M-276 290.32 C-276.31 292.32 -276.31 292.32 -276.26 294.64 C-276.26 295.55 -276.27 296.46 -276.28 297.4 C-276.27 298.4 -276.27 299.4 -276.26 300.43 C-276.27 301.48 -276.27 302.53 -276.27 303.61 C-276.28 307.09 -276.28 310.58 -276.27 314.07 C-276.27 316.48 -276.27 318.89 -276.28 321.31 C-276.28 326.37 -276.27 331.44 -276.26 336.5 C-276.25 343 -276.26 349.51 -276.27 356.01 C-276.28 361 -276.28 365.98 -276.27 370.97 C-276.27 373.37 -276.27 375.77 -276.28 378.16 C-276.28 381.51 -276.27 384.86 -276.26 388.21 C-276.27 389.21 -276.27 390.21 -276.28 391.24 C-276.27 392.14 -276.26 393.05 -276.26 393.99 C-276.26 394.78 -276.26 395.57 -276.26 396.39 C-276.17 398.55 -276.17 398.55 -274 400.32 C-272 400.62 -272 400.62 -269.68 400.57 C-268.31 400.58 -268.31 400.58 -266.92 400.59 C-265.92 400.58 -264.92 400.58 -263.89 400.57 C-262.84 400.58 -261.79 400.58 -260.71 400.59 C-257.23 400.59 -253.74 400.59 -250.25 400.58 C-247.84 400.58 -245.43 400.58 -243.01 400.59 C-237.95 400.59 -232.88 400.59 -227.82 400.58 C-221.32 400.57 -214.81 400.57 -208.31 400.58 C-203.32 400.59 -198.34 400.59 -193.35 400.58 C-190.95 400.58 -188.55 400.58 -186.16 400.59 C-182.81 400.59 -179.46 400.59 -176.11 400.57 C-174.61 400.58 -174.61 400.58 -173.08 400.59 C-172.18 400.58 -171.27 400.58 -170.33 400.57 C-169.54 400.57 -168.75 400.57 -167.93 400.57 C-165.77 400.48 -165.77 400.48 -164 398.32 C-163.7 396.32 -163.7 396.32 -163.75 393.99 C-163.74 393.08 -163.74 392.17 -163.73 391.24 C-163.74 390.24 -163.74 389.24 -163.75 388.21 C-163.74 387.16 -163.74 386.11 -163.73 385.02 C-163.73 381.54 -163.73 378.05 -163.74 374.57 C-163.74 372.15 -163.74 369.74 -163.73 367.32 C-163.73 362.26 -163.73 357.2 -163.74 352.13 C-163.75 345.63 -163.75 339.12 -163.74 332.62 C-163.73 327.63 -163.73 322.65 -163.74 317.66 C-163.74 315.26 -163.74 312.87 -163.73 310.47 C-163.73 307.12 -163.73 303.77 -163.75 300.43 C-163.74 299.43 -163.74 298.43 -163.73 297.4 C-163.74 296.49 -163.74 295.58 -163.75 294.64 C-163.75 293.85 -163.75 293.06 -163.75 292.24 C-163.84 290.08 -163.84 290.08 -166 288.32 C-168 288.01 -168 288.01 -170.33 288.06 C-171.24 288.06 -172.15 288.05 -173.08 288.04 C-174.58 288.05 -174.58 288.05 -176.11 288.06 C-177.16 288.05 -178.21 288.05 -179.3 288.05 C-182.78 288.04 -186.27 288.04 -189.75 288.05 C-192.17 288.05 -194.58 288.05 -197 288.04 C-202.06 288.04 -207.12 288.05 -212.19 288.05 C-218.69 288.07 -225.2 288.06 -231.7 288.05 C-236.68 288.04 -241.67 288.04 -246.66 288.05 C-249.06 288.05 -251.45 288.05 -253.85 288.04 C-257.2 288.04 -260.55 288.05 -263.89 288.06 C-264.89 288.05 -265.89 288.05 -266.92 288.04 C-267.83 288.05 -268.74 288.06 -269.68 288.06 C-270.47 288.06 -271.26 288.06 -272.08 288.06 C-274.24 288.15 -274.24 288.15 -276 290.32 Z M-76 290.32 C-76.31 292.32 -76.31 292.32 -76.26 294.64 C-76.26 295.55 -76.27 296.46 -76.28 297.4 C-76.27 298.4 -76.27 299.4 -76.26 300.43 C-76.27 301.48 -76.27 302.53 -76.27 303.61 C-76.28 307.09 -76.28 310.58 -76.27 314.07 C-76.27 316.48 -76.27 318.89 -76.28 321.31 C-76.28 326.37 -76.27 331.44 -76.26 336.5 C-76.25 343 -76.26 349.51 -76.27 356.01 C-76.28 361 -76.28 365.98 -76.27 370.97 C-76.27 373.37 -76.27 375.77 -76.28 378.16 C-76.28 381.51 -76.27 384.86 -76.26 388.21 C-76.27 389.21 -76.27 390.21 -76.28 391.24 C-76.27 392.14 -76.26 393.05 -76.26 393.99 C-76.26 394.78 -76.26 395.57 -76.26 396.39 C-76.17 398.55 -76.17 398.55 -74 400.32 C-71.33 400.62 -71.33 400.62 -68.16 400.57 C-66.29 400.58 -66.29 400.58 -64.39 400.59 C-63 400.58 -61.61 400.58 -60.22 400.57 C-58.77 400.58 -57.31 400.58 -55.86 400.59 C-51.9 400.59 -47.94 400.59 -43.98 400.58 C-39.85 400.58 -35.71 400.58 -31.57 400.59 C-24.63 400.59 -17.68 400.59 -10.73 400.58 C-2.69 400.57 5.35 400.57 13.39 400.58 C20.28 400.59 27.18 400.59 34.07 400.59 C38.19 400.58 42.32 400.58 46.44 400.59 C50.31 400.59 54.18 400.59 58.06 400.58 C59.48 400.58 60.91 400.58 62.33 400.58 C64.27 400.59 66.21 400.58 68.15 400.57 C69.24 400.57 70.32 400.57 71.44 400.57 C74.16 400.57 74.16 400.57 76 398.32 C76.3 396.32 76.3 396.32 76.25 393.99 C76.26 393.08 76.26 392.17 76.27 391.24 C76.26 390.24 76.26 389.24 76.25 388.21 C76.26 387.16 76.26 386.11 76.27 385.02 C76.27 381.54 76.27 378.05 76.26 374.57 C76.26 372.15 76.26 369.74 76.27 367.32 C76.27 362.26 76.27 357.2 76.26 352.13 C76.25 345.63 76.25 339.12 76.26 332.62 C76.27 327.63 76.27 322.65 76.26 317.66 C76.26 315.26 76.26 312.87 76.27 310.47 C76.27 307.12 76.27 303.77 76.25 300.43 C76.26 298.93 76.26 298.93 76.27 297.4 C76.26 296.03 76.26 296.03 76.25 294.64 C76.25 293.85 76.25 293.06 76.25 292.24 C76.16 290.08 76.16 290.08 74 288.32 C71.33 288.01 71.33 288.01 68.15 288.06 C66.28 288.05 66.28 288.05 64.38 288.04 C62.99 288.05 61.6 288.05 60.21 288.06 C58.76 288.05 57.3 288.05 55.85 288.05 C51.89 288.04 47.93 288.04 43.97 288.05 C39.84 288.05 35.7 288.05 31.56 288.04 C24.62 288.04 17.67 288.05 10.72 288.05 C2.68 288.07 -5.36 288.06 -13.4 288.05 C-20.29 288.04 -27.19 288.04 -34.08 288.05 C-38.2 288.05 -42.32 288.05 -46.44 288.04 C-50.32 288.04 -54.19 288.04 -58.07 288.05 C-59.49 288.06 -60.92 288.05 -62.34 288.05 C-64.28 288.04 -66.22 288.05 -68.16 288.06 C-69.79 288.06 -69.79 288.06 -71.45 288.06 C-74.17 288.06 -74.17 288.06 -76 290.32 Z M164 290.32 C163.69 292.32 163.69 292.32 163.74 294.64 C163.74 295.55 163.73 296.46 163.72 297.4 C163.73 298.4 163.73 299.4 163.74 300.43 C163.73 301.48 163.73 302.53 163.73 303.61 C163.72 307.09 163.72 310.58 163.73 314.07 C163.73 316.48 163.73 318.89 163.72 321.31 C163.72 326.37 163.73 331.44 163.74 336.5 C163.75 343 163.74 349.51 163.73 356.01 C163.72 361 163.72 365.98 163.73 370.97 C163.73 373.37 163.73 375.77 163.72 378.16 C163.72 381.51 163.73 384.86 163.74 388.21 C163.73 389.21 163.73 390.21 163.72 391.24 C163.73 392.14 163.74 393.05 163.74 393.99 C163.74 394.78 163.74 395.57 163.74 396.39 C163.83 398.55 163.83 398.55 166 400.32 C168 400.62 168 400.62 170.32 400.57 C171.69 400.58 171.69 400.58 173.08 400.59 C174.08 400.58 175.08 400.58 176.11 400.57 C177.16 400.58 178.21 400.58 179.29 400.59 C182.77 400.59 186.26 400.59 189.75 400.58 C192.16 400.58 194.57 400.58 196.99 400.59 C202.05 400.59 207.12 400.59 212.18 400.58 C218.68 400.57 225.19 400.57 231.69 400.58 C236.68 400.59 241.66 400.59 246.65 400.58 C249.05 400.58 251.45 400.58 253.84 400.59 C257.19 400.59 260.54 400.59 263.89 400.57 C265.39 400.58 265.39 400.58 266.92 400.59 C267.82 400.58 268.73 400.58 269.67 400.57 C270.46 400.57 271.25 400.57 272.07 400.57 C274.23 400.48 274.23 400.48 276 398.32 C276.3 396.32 276.3 396.32 276.25 393.99 C276.26 393.08 276.26 392.17 276.27 391.24 C276.26 390.24 276.26 389.24 276.25 388.21 C276.26 387.16 276.26 386.11 276.27 385.02 C276.27 381.54 276.27 378.05 276.26 374.57 C276.26 372.15 276.26 369.74 276.27 367.32 C276.27 362.26 276.27 357.2 276.26 352.13 C276.25 345.63 276.25 339.12 276.26 332.62 C276.27 327.63 276.27 322.65 276.26 317.66 C276.26 315.26 276.26 312.87 276.27 310.47 C276.27 307.12 276.27 303.77 276.25 300.43 C276.26 299.43 276.26 298.43 276.27 297.4 C276.26 296.49 276.26 295.58 276.25 294.64 C276.25 293.85 276.25 293.06 276.25 292.24 C276.16 290.08 276.16 290.08 274 288.32 C272 288.01 272 288.01 269.67 288.06 C268.76 288.06 267.85 288.05 266.92 288.04 C265.42 288.05 265.42 288.05 263.89 288.06 C262.84 288.05 261.79 288.05 260.7 288.05 C257.22 288.04 253.73 288.04 250.25 288.05 C247.83 288.05 245.42 288.05 243 288.04 C237.94 288.04 232.88 288.05 227.81 288.05 C221.31 288.07 214.8 288.06 208.3 288.05 C203.32 288.04 198.33 288.04 193.34 288.05 C190.94 288.05 188.55 288.05 186.15 288.04 C182.8 288.04 179.45 288.05 176.11 288.06 C175.11 288.05 174.11 288.05 173.08 288.04 C172.17 288.05 171.26 288.06 170.32 288.06 C169.53 288.06 168.74 288.06 167.92 288.06 C165.76 288.15 165.76 288.15 164 290.32 Z M-398 491.32 C-398.99 494.29 -398.99 494.29 -399.5 497.63 C-400.75 503.75 -402.17 507.36 -406.5 511.88 C-408.77 515.56 -409.25 519.47 -410 523.69 C-412.02 534.8 -412.02 534.8 -415 539.32 C-416 539.94 -416.99 540.56 -418.01 541.2 C-421.85 543.91 -422.62 546.81 -423.88 551.13 C-425.89 557.21 -427.68 560.78 -432.99 564.6 C-436.3 567.42 -438.15 571.11 -440.27 574.86 C-442 577.32 -442 577.32 -444.54 578.81 C-447.64 580.7 -448.3 582.41 -449.75 585.69 C-452.7 591.51 -456.03 593.91 -462 596.32 C-461.67 597.31 -461.34 598.3 -461 599.32 C-456.76 600.12 -452.75 600.44 -448.43 600.44 C-447.12 600.44 -445.8 600.45 -444.44 600.45 C-442.99 600.45 -441.53 600.45 -440.07 600.44 C-438.52 600.45 -436.96 600.45 -435.4 600.45 C-431.11 600.45 -426.81 600.45 -422.52 600.45 C-417.85 600.45 -413.19 600.45 -408.52 600.46 C-400.34 600.46 -392.15 600.46 -383.97 600.46 C-371.8 600.46 -359.63 600.46 -347.47 600.47 C-324.47 600.48 -301.48 600.48 -278.48 600.48 C-260.73 600.48 -242.97 600.49 -225.22 600.49 C-220.12 600.49 -215.01 600.49 -209.9 600.49 C-208 600.49 -208 600.49 -206.06 600.49 C-170.35 600.5 -134.64 600.5 -98.93 600.5 C-97.57 600.5 -96.21 600.5 -94.84 600.5 C-88.7 600.5 -82.56 600.5 -76.42 600.5 C-73.68 600.5 -70.94 600.5 -68.2 600.5 C-66.83 600.5 -65.46 600.5 -64.09 600.5 C-20.72 600.5 22.64 600.51 66 600.52 C76.93 600.52 87.86 600.53 98.78 600.53 C99.79 600.53 99.79 600.53 100.82 600.53 C137.14 600.54 173.45 600.55 209.76 600.54 C214.87 600.54 219.97 600.54 225.08 600.54 C226.34 600.54 227.59 600.54 228.89 600.54 C249.15 600.54 269.42 600.55 289.68 600.56 C310.03 600.57 330.38 600.57 350.73 600.56 C362.83 600.56 374.93 600.56 387.03 600.57 C395.11 600.58 403.18 600.57 411.26 600.57 C415.86 600.56 420.47 600.56 425.08 600.57 C429.26 600.58 433.45 600.58 437.64 600.57 C439.15 600.57 440.66 600.57 442.16 600.57 C444.21 600.58 446.25 600.57 448.3 600.57 C449.43 600.57 450.56 600.57 451.73 600.57 C455.43 600.28 458.47 599.44 462 598.32 C461.37 595.26 461.37 595.26 459.32 594.46 C458.3 594.08 458.3 594.08 457.25 593.69 C452.67 591.58 451.46 588.95 449.34 584.54 C447.83 582.04 446.42 580.97 444 579.38 C439.72 576.5 438.36 573.36 436.34 568.73 C434.86 566.07 433.53 565.03 431.06 563.32 C425.96 559.36 424.81 553.81 423.25 547.8 C421.65 542.02 419.79 539.88 415 536.32 C411.82 531.64 410.75 526.29 409.68 520.82 C408.72 516.19 407.63 513.41 404.5 509.88 C400.33 505.19 399.67 500.45 398.8 494.35 C398.27 491.3 398.27 491.3 396.29 489.65 C393.47 488.01 391.71 487.94 388.45 487.94 C387.31 487.93 386.18 487.92 385 487.92 C383.75 487.92 382.5 487.93 381.21 487.94 C379.86 487.94 378.51 487.93 377.17 487.92 C373.44 487.91 369.72 487.92 366 487.93 C361.96 487.94 357.92 487.93 353.87 487.92 C346.78 487.91 339.69 487.91 332.6 487.92 C322.06 487.93 311.51 487.92 300.97 487.91 C282.14 487.9 263.31 487.9 244.48 487.91 C228.01 487.92 211.53 487.92 195.05 487.91 C193.96 487.91 192.87 487.91 191.74 487.91 C187.31 487.91 182.88 487.91 178.45 487.91 C136.86 487.9 95.27 487.91 53.68 487.93 C16.7 487.94 -20.27 487.94 -57.25 487.92 C-98.77 487.91 -140.28 487.9 -181.79 487.91 C-186.22 487.91 -190.64 487.91 -195.06 487.91 C-196.15 487.91 -197.24 487.91 -198.36 487.91 C-214.83 487.92 -231.3 487.91 -247.77 487.91 C-266.49 487.9 -285.21 487.9 -303.93 487.92 C-314.42 487.93 -324.9 487.93 -335.39 487.91 C-342.38 487.91 -349.38 487.91 -356.37 487.93 C-360.36 487.93 -364.36 487.93 -368.35 487.92 C-371.97 487.91 -375.6 487.92 -379.23 487.93 C-381.16 487.94 -383.08 487.93 -385.01 487.92 C-386.72 487.93 -386.72 487.93 -388.46 487.94 C-389.93 487.94 -389.93 487.94 -391.43 487.94 C-394.46 488.38 -395.82 489.2 -398 491.32 Z M-436 690.32 C-436.31 693.18 -436.31 693.18 -436.26 696.62 C-436.26 697.27 -436.26 697.93 -436.26 698.61 C-436.27 700.83 -436.26 703.05 -436.26 705.27 C-436.26 706.87 -436.26 708.47 -436.27 710.07 C-436.28 714.49 -436.27 718.91 -436.27 723.32 C-436.26 728.08 -436.27 732.83 -436.27 737.59 C-436.28 746.91 -436.28 756.23 -436.27 765.55 C-436.27 773.13 -436.27 780.7 -436.27 788.27 C-436.27 789.35 -436.27 790.43 -436.27 791.53 C-436.27 793.72 -436.27 795.91 -436.27 798.09 C-436.28 818.61 -436.27 839.12 -436.26 859.64 C-436.25 877.26 -436.26 894.88 -436.26 912.5 C-436.28 932.94 -436.28 953.38 -436.27 973.82 C-436.27 976 -436.27 978.18 -436.27 980.36 C-436.27 981.43 -436.27 982.5 -436.27 983.6 C-436.27 991.17 -436.27 998.74 -436.28 1006.31 C-436.28 1015.53 -436.28 1024.74 -436.27 1033.96 C-436.26 1038.67 -436.26 1043.38 -436.27 1048.08 C-436.28 1052.39 -436.27 1056.69 -436.26 1060.99 C-436.26 1062.55 -436.26 1064.12 -436.27 1065.68 C-436.27 1067.79 -436.27 1069.9 -436.26 1072.02 C-436.26 1073.19 -436.26 1074.37 -436.25 1075.58 C-436.28 1078.46 -436.28 1078.46 -434 1080.32 C-431.51 1080.51 -429.13 1080.58 -426.64 1080.57 C-425.87 1080.57 -425.1 1080.58 -424.31 1080.58 C-421.73 1080.59 -419.14 1080.58 -416.55 1080.57 C-414.7 1080.58 -412.85 1080.58 -411 1080.59 C-405.97 1080.59 -400.94 1080.59 -395.9 1080.58 C-390.65 1080.58 -385.39 1080.58 -380.13 1080.59 C-371.3 1080.59 -362.47 1080.59 -353.64 1080.58 C-343.42 1080.57 -333.2 1080.57 -322.98 1080.58 C-314.21 1080.59 -305.45 1080.59 -296.69 1080.59 C-291.45 1080.58 -286.21 1080.58 -280.97 1080.59 C-276.05 1080.59 -271.12 1080.59 -266.2 1080.58 C-264.39 1080.58 -262.57 1080.58 -260.76 1080.58 C-258.3 1080.59 -255.83 1080.58 -253.37 1080.57 C-252.64 1080.57 -251.92 1080.58 -251.17 1080.58 C-247.14 1080.66 -247.14 1080.66 -244 1078.32 C-243.7 1076.38 -243.7 1076.38 -243.75 1074.14 C-243.74 1072.81 -243.74 1072.81 -243.73 1071.47 C-243.74 1070.49 -243.74 1069.52 -243.75 1068.51 C-243.74 1067.48 -243.74 1066.45 -243.73 1065.39 C-243.72 1061.91 -243.73 1058.44 -243.73 1054.96 C-243.73 1052.48 -243.72 1050 -243.72 1047.51 C-243.71 1042.15 -243.7 1036.79 -243.7 1031.43 C-243.7 1023.67 -243.68 1015.9 -243.66 1008.14 C-243.63 995.53 -243.61 982.92 -243.59 970.3 C-243.59 969.55 -243.59 968.79 -243.59 968.01 C-243.58 959.6 -243.57 951.18 -243.56 942.77 C-243.55 939.72 -243.55 936.68 -243.55 933.63 C-243.55 932.88 -243.55 932.13 -243.55 931.35 C-243.53 918.8 -243.51 906.25 -243.47 893.7 C-243.45 885.96 -243.44 878.22 -243.45 870.49 C-243.45 864.54 -243.43 858.6 -243.41 852.66 C-243.41 850.23 -243.41 847.8 -243.41 845.37 C-243.46 817.06 -243.46 817.06 -237 807.32 C-236.22 806.64 -235.44 805.95 -234.63 805.25 C-231.31 801.53 -229.94 797.7 -228.22 793.06 C-227.06 790.45 -226.22 789.05 -224 787.32 C-223.2 787.09 -222.4 786.86 -221.57 786.63 C-218.56 785.09 -218.47 784.45 -217.25 781.44 C-215.64 777.79 -214.25 776.59 -210.57 775.07 C-209.78 774.77 -208.99 774.48 -208.18 774.17 C-204.16 772.59 -201.53 769.93 -198.75 766.69 C-189.82 758.98 -172.27 761.17 -161.25 761.18 C-159.78 761.17 -158.31 761.17 -156.84 761.17 C-152.83 761.16 -148.82 761.16 -144.81 761.16 C-140.47 761.15 -136.13 761.15 -131.8 761.14 C-122.33 761.13 -112.86 761.12 -103.4 761.12 C-97.48 761.11 -91.57 761.11 -85.65 761.1 C-69.26 761.09 -52.87 761.08 -36.47 761.08 C-35.42 761.08 -34.38 761.08 -33.3 761.08 C-32.25 761.08 -31.2 761.08 -30.12 761.08 C-27.99 761.08 -25.86 761.08 -23.73 761.08 C-22.15 761.08 -22.15 761.08 -20.54 761.07 C-3.43 761.07 13.68 761.05 30.79 761.03 C48.37 761.01 65.96 760.99 83.54 760.99 C93.4 760.99 103.27 760.99 113.13 760.97 C121.53 760.95 129.93 760.95 138.32 760.96 C142.61 760.96 146.89 760.96 151.17 760.94 C155.09 760.93 159.02 760.93 162.94 760.95 C164.36 760.95 165.77 760.94 167.18 760.94 C177.6 760.87 188.13 761.25 197 767.32 C197.51 768.12 198.03 768.92 198.56 769.75 C201.91 773.28 205.49 773.97 210.12 775.23 C213.31 776.43 214.85 777.7 217 780.32 C217.24 781.14 217.49 781.97 217.75 782.82 C219.23 785.79 219.9 785.86 222.87 787.07 C226.53 788.68 227.7 790.05 229.18 793.75 C229.62 794.93 229.62 794.93 230.07 796.14 C231.39 799.25 233.51 801.08 236 803.32 C244.52 812.08 243.15 827.68 243.14 839.12 C243.15 840.66 243.15 840.66 243.15 842.23 C243.16 845.65 243.17 849.07 243.17 852.48 C243.18 854.94 243.18 857.4 243.19 859.87 C243.2 865.15 243.22 870.43 243.23 875.72 C243.24 883.36 243.26 891 243.28 898.64 C243.32 911.04 243.36 923.44 243.39 935.85 C243.39 936.59 243.39 937.33 243.39 938.09 C243.42 948.63 243.45 959.17 243.47 969.7 C243.47 970.45 243.47 971.19 243.47 971.96 C243.47 972.7 243.48 973.44 243.48 974.21 C243.5 986.58 243.54 998.95 243.58 1011.32 C243.6 1018.94 243.62 1026.57 243.63 1034.2 C243.64 1040.03 243.66 1045.86 243.68 1051.69 C243.69 1054.09 243.69 1056.48 243.69 1058.88 C243.69 1062.14 243.71 1065.4 243.72 1068.66 C243.72 1069.62 243.72 1070.58 243.72 1071.57 C243.72 1072.43 243.73 1073.3 243.74 1074.2 C243.74 1074.95 243.74 1075.7 243.74 1076.48 C243.84 1078.56 243.84 1078.56 246 1080.32 C248.49 1080.51 250.87 1080.58 253.36 1080.57 C254.13 1080.57 254.9 1080.58 255.69 1080.58 C258.27 1080.59 260.86 1080.58 263.45 1080.57 C265.3 1080.58 267.15 1080.58 269 1080.59 C274.03 1080.59 279.06 1080.59 284.1 1080.58 C289.35 1080.58 294.61 1080.58 299.87 1080.59 C308.7 1080.59 317.53 1080.59 326.36 1080.58 C336.58 1080.57 346.8 1080.57 357.02 1080.58 C365.79 1080.59 374.55 1080.59 383.31 1080.59 C388.55 1080.58 393.79 1080.58 399.03 1080.59 C403.95 1080.59 408.88 1080.59 413.8 1080.58 C415.61 1080.58 417.43 1080.58 419.24 1080.58 C421.7 1080.59 424.17 1080.58 426.63 1080.57 C427.36 1080.57 428.08 1080.58 428.83 1080.58 C432.86 1080.66 432.86 1080.66 436 1078.32 C436.3 1075.45 436.3 1075.45 436.25 1072.02 C436.25 1071.36 436.25 1070.7 436.26 1070.03 C436.26 1067.8 436.26 1065.58 436.25 1063.36 C436.25 1061.76 436.26 1060.16 436.26 1058.56 C436.27 1054.14 436.26 1049.73 436.26 1045.31 C436.25 1040.55 436.26 1035.8 436.27 1031.04 C436.27 1021.72 436.27 1012.4 436.27 1003.08 C436.26 995.5 436.26 987.93 436.26 980.36 C436.26 979.28 436.26 978.21 436.26 977.1 C436.27 974.91 436.27 972.73 436.27 970.54 C436.27 950.02 436.27 929.51 436.25 908.99 C436.25 891.37 436.25 873.75 436.26 856.13 C436.27 835.69 436.27 815.25 436.27 794.81 C436.26 792.63 436.26 790.45 436.26 788.27 C436.26 787.2 436.26 786.13 436.26 785.03 C436.26 777.46 436.26 769.89 436.27 762.32 C436.27 753.1 436.27 743.89 436.26 734.67 C436.26 729.96 436.25 725.26 436.26 720.55 C436.27 716.25 436.26 711.94 436.25 707.64 C436.25 706.08 436.25 704.52 436.26 702.95 C436.26 700.84 436.26 698.73 436.25 696.62 C436.25 695.44 436.25 694.26 436.25 693.05 C436.28 690.17 436.28 690.17 434 688.32 C431.34 688.01 431.34 688.01 428.18 688.06 C426.94 688.06 425.69 688.05 424.4 688.05 C423 688.05 421.6 688.06 420.2 688.06 C418.72 688.06 417.24 688.06 415.75 688.06 C411.65 688.05 407.54 688.05 403.44 688.06 C398.98 688.06 394.53 688.06 390.07 688.05 C382.26 688.05 374.44 688.05 366.62 688.05 C355 688.06 343.37 688.05 331.75 688.05 C310.99 688.04 290.24 688.04 269.48 688.04 C251.32 688.05 233.15 688.05 214.99 688.05 C213.79 688.05 212.58 688.05 211.34 688.05 C206.46 688.05 201.58 688.05 196.7 688.05 C150.86 688.04 105.02 688.05 59.18 688.06 C18.41 688.07 -22.35 688.06 -63.11 688.05 C-108.87 688.04 -154.62 688.04 -200.38 688.05 C-205.25 688.05 -210.12 688.05 -215 688.05 C-216.2 688.05 -217.4 688.05 -218.64 688.05 C-236.79 688.05 -254.95 688.05 -273.1 688.04 C-293.74 688.04 -314.38 688.04 -335.01 688.05 C-346.57 688.06 -358.14 688.06 -369.7 688.05 C-377.41 688.04 -385.12 688.05 -392.82 688.06 C-397.23 688.06 -401.63 688.06 -406.03 688.05 C-410.03 688.05 -414.02 688.05 -418.02 688.06 C-419.46 688.06 -420.91 688.06 -422.35 688.06 C-424.3 688.05 -426.25 688.06 -428.19 688.06 C-429.82 688.07 -429.82 688.07 -431.47 688.07 C-434.17 688.06 -434.17 688.06 -436 690.32 Z M-156 850.32 C-156.2 853.31 -156.27 856.21 -156.26 859.2 C-156.26 860.13 -156.26 861.06 -156.27 862.02 C-156.28 865.16 -156.27 868.3 -156.26 871.44 C-156.27 873.68 -156.27 875.93 -156.27 878.17 C-156.28 884.28 -156.28 890.39 -156.27 896.49 C-156.27 902.87 -156.27 909.25 -156.28 915.63 C-156.28 927.03 -156.27 938.43 -156.26 949.83 C-156.25 960.17 -156.26 970.52 -156.26 980.86 C-156.28 992.86 -156.28 1004.87 -156.27 1016.87 C-156.27 1023.23 -156.27 1029.58 -156.28 1035.94 C-156.28 1041.92 -156.28 1047.89 -156.27 1053.87 C-156.26 1056.07 -156.27 1058.26 -156.27 1060.46 C-156.27 1063.45 -156.27 1066.44 -156.26 1069.43 C-156.26 1070.31 -156.27 1071.19 -156.27 1072.1 C-156.45 1076.69 -156.45 1076.69 -154 1080.32 C-152 1080.62 -152 1080.62 -149.68 1080.57 C-148.31 1080.58 -148.31 1080.58 -146.92 1080.59 C-145.92 1080.58 -144.92 1080.58 -143.89 1080.57 C-142.84 1080.58 -141.79 1080.58 -140.71 1080.59 C-137.23 1080.59 -133.74 1080.59 -130.25 1080.58 C-127.84 1080.58 -125.43 1080.58 -123.01 1080.59 C-117.95 1080.59 -112.88 1080.59 -107.82 1080.58 C-101.32 1080.57 -94.81 1080.57 -88.31 1080.58 C-83.32 1080.59 -78.34 1080.59 -73.35 1080.58 C-70.95 1080.58 -68.55 1080.58 -66.16 1080.59 C-62.81 1080.59 -59.46 1080.59 -56.11 1080.57 C-54.61 1080.58 -54.61 1080.58 -53.08 1080.59 C-52.18 1080.58 -51.27 1080.58 -50.33 1080.57 C-49.54 1080.57 -48.75 1080.57 -47.93 1080.57 C-45.77 1080.48 -45.77 1080.48 -44 1078.32 C-43.81 1075.32 -43.74 1072.43 -43.75 1069.43 C-43.75 1068.5 -43.74 1067.57 -43.74 1066.61 C-43.73 1063.47 -43.74 1060.33 -43.75 1057.19 C-43.74 1054.95 -43.74 1052.7 -43.73 1050.46 C-43.73 1044.35 -43.73 1038.25 -43.74 1032.14 C-43.74 1025.76 -43.74 1019.38 -43.73 1013 C-43.73 1001.6 -43.74 990.2 -43.75 978.8 C-43.75 968.46 -43.75 958.11 -43.74 947.77 C-43.73 935.77 -43.73 923.76 -43.73 911.76 C-43.74 905.4 -43.74 899.05 -43.73 892.69 C-43.73 886.72 -43.73 880.74 -43.74 874.76 C-43.74 872.57 -43.74 870.37 -43.74 868.17 C-43.73 865.18 -43.74 862.19 -43.75 859.2 C-43.75 858.32 -43.74 857.44 -43.74 856.53 C-43.56 851.95 -43.56 851.95 -46 848.32 C-48 848.01 -48 848.01 -50.33 848.06 C-51.24 848.06 -52.15 848.05 -53.08 848.04 C-54.58 848.05 -54.58 848.05 -56.11 848.06 C-57.16 848.05 -58.21 848.05 -59.3 848.05 C-62.78 848.04 -66.27 848.04 -69.75 848.05 C-72.17 848.05 -74.58 848.05 -77 848.04 C-82.06 848.04 -87.12 848.05 -92.19 848.05 C-98.69 848.07 -105.2 848.06 -111.7 848.05 C-116.68 848.04 -121.67 848.04 -126.66 848.05 C-129.06 848.05 -131.45 848.05 -133.85 848.04 C-137.2 848.04 -140.55 848.05 -143.89 848.06 C-144.89 848.05 -145.89 848.05 -146.92 848.04 C-147.83 848.05 -148.74 848.06 -149.68 848.06 C-150.47 848.06 -151.26 848.06 -152.08 848.06 C-154.24 848.15 -154.24 848.15 -156 850.32 Z M44 850.32 C43.8 853.31 43.73 856.21 43.74 859.2 C43.74 860.13 43.74 861.06 43.73 862.02 C43.72 865.16 43.73 868.3 43.74 871.44 C43.73 873.68 43.73 875.93 43.73 878.17 C43.72 884.28 43.72 890.39 43.73 896.49 C43.73 902.87 43.73 909.25 43.72 915.63 C43.72 927.03 43.73 938.43 43.74 949.83 C43.75 960.17 43.74 970.52 43.74 980.86 C43.72 992.86 43.72 1004.87 43.73 1016.87 C43.73 1023.23 43.73 1029.58 43.72 1035.94 C43.72 1041.92 43.72 1047.89 43.73 1053.87 C43.74 1056.07 43.73 1058.26 43.73 1060.46 C43.73 1063.45 43.73 1066.44 43.74 1069.43 C43.74 1070.31 43.73 1071.19 43.73 1072.1 C43.55 1076.69 43.55 1076.69 46 1080.32 C48 1080.62 48 1080.62 50.32 1080.57 C51.69 1080.58 51.69 1080.58 53.08 1080.59 C54.08 1080.58 55.08 1080.58 56.11 1080.57 C57.16 1080.58 58.21 1080.58 59.29 1080.59 C62.77 1080.59 66.26 1080.59 69.75 1080.58 C72.16 1080.58 74.57 1080.58 76.99 1080.59 C82.05 1080.59 87.12 1080.59 92.18 1080.58 C98.68 1080.57 105.19 1080.57 111.69 1080.58 C116.68 1080.59 121.66 1080.59 126.65 1080.58 C129.05 1080.58 131.45 1080.58 133.84 1080.59 C137.19 1080.59 140.54 1080.59 143.89 1080.57 C145.39 1080.58 145.39 1080.58 146.92 1080.59 C147.82 1080.58 148.73 1080.58 149.67 1080.57 C150.46 1080.57 151.25 1080.57 152.07 1080.57 C154.23 1080.48 154.23 1080.48 156 1078.32 C156.19 1075.32 156.26 1072.43 156.25 1069.43 C156.25 1068.5 156.26 1067.57 156.26 1066.61 C156.27 1063.47 156.26 1060.33 156.25 1057.19 C156.26 1054.95 156.26 1052.7 156.27 1050.46 C156.27 1044.35 156.27 1038.25 156.26 1032.14 C156.26 1025.76 156.26 1019.38 156.27 1013 C156.27 1001.6 156.26 990.2 156.25 978.8 C156.25 968.46 156.25 958.11 156.26 947.77 C156.27 935.77 156.27 923.76 156.27 911.76 C156.26 905.4 156.26 899.05 156.27 892.69 C156.27 886.72 156.27 880.74 156.26 874.76 C156.26 872.57 156.26 870.37 156.26 868.17 C156.27 865.18 156.26 862.19 156.25 859.2 C156.25 858.32 156.26 857.44 156.26 856.53 C156.44 851.95 156.44 851.95 154 848.32 C152 848.01 152 848.01 149.67 848.06 C148.76 848.06 147.85 848.05 146.92 848.04 C145.42 848.05 145.42 848.05 143.89 848.06 C142.84 848.05 141.79 848.05 140.7 848.05 C137.22 848.04 133.73 848.04 130.25 848.05 C127.83 848.05 125.42 848.05 123 848.04 C117.94 848.04 112.88 848.05 107.81 848.05 C101.31 848.07 94.8 848.06 88.3 848.05 C83.32 848.04 78.33 848.04 73.34 848.05 C70.94 848.05 68.55 848.05 66.15 848.04 C62.8 848.04 59.45 848.05 56.11 848.06 C55.11 848.05 54.11 848.05 53.08 848.04 C52.17 848.05 51.26 848.06 50.32 848.06 C49.53 848.06 48.74 848.06 47.92 848.06 C45.76 848.15 45.76 848.15 44 850.32 Z " fill="#000000" transform="translate(640.004150390625,35.684326171875)"/>
</svg>
