<?xml version="1.0" encoding="UTF-8"?>
<!-- Generator: visioncortex VTracer 0.6.3 -->
<svg version="1.1" xmlns="http://www.w3.org/2000/svg" width="1280" height="1266">
<path d="M0 0 C1.47 -0 2.94 -0 4.4 -0.01 C7.47 -0.01 10.53 -0.01 13.59 0.01 C17.49 0.02 21.4 0.01 25.3 -0 C28.33 -0.01 31.35 -0.01 34.38 -0 C35.82 -0 37.26 -0 38.7 -0.01 C56.95 -0.08 56.95 -0.08 63.49 5.86 C66.85 10.14 66.45 14.67 66.35 19.9 C66.35 20.95 66.35 21.99 66.35 23.07 C66.35 26.51 66.31 29.95 66.27 33.39 C66.26 35.78 66.25 38.17 66.25 40.56 C66.23 46.85 66.18 53.13 66.12 59.41 C66.07 65.83 66.05 72.24 66.03 78.66 C65.97 91.24 65.89 103.82 65.78 116.4 C68.71 117.17 71.29 117.54 74.32 117.59 C75.22 117.6 76.12 117.62 77.04 117.64 C78.01 117.65 78.97 117.67 79.97 117.68 C80.98 117.7 81.99 117.72 83.04 117.74 C86.28 117.79 89.53 117.85 92.78 117.9 C117.04 118.29 117.04 118.29 128.92 118.88 C129.72 118.92 130.52 118.96 131.35 119 C140.82 119.5 149.61 120.25 157.78 125.4 C158.08 126.08 158.38 126.76 158.69 127.46 C159.62 129.6 159.62 129.6 161.92 130.16 C162.78 130.28 163.65 130.4 164.54 130.52 C165.97 130.75 165.97 130.75 167.44 130.98 C168.94 131.19 168.94 131.19 170.47 131.4 C178.86 132.59 185.15 133.63 191.25 139.96 C194.28 142.88 197.38 144.07 201.28 145.4 C206.54 147.19 210.04 149.18 213.78 153.4 C215.96 155.76 217.77 156.99 220.72 158.27 C224.41 160.05 226.53 161.89 228.78 165.4 C229.11 166.39 229.44 167.38 229.78 168.4 C231.52 169.42 231.52 169.42 233.59 170.21 C237.75 172.15 239.6 174.3 241.78 178.4 C242.11 179.39 242.44 180.38 242.78 181.4 C243.69 181.83 244.6 182.26 245.53 182.71 C250 185.03 253.05 188.09 254.59 192.96 C255.99 195.83 256.91 196.17 259.66 197.65 C264 200.12 265.14 202.69 266.86 207.26 C268.19 210.34 270.31 212.18 272.78 214.4 C276.93 218.71 278.11 223.06 279.53 228.71 C279.86 229.96 279.86 229.96 280.2 231.24 C280.74 233.29 281.26 235.35 281.78 237.4 C284.09 237.73 286.4 238.06 288.78 238.4 C288.78 306.05 288.78 373.7 288.78 443.4 C281.85 443.73 274.92 444.06 267.78 444.4 C265.8 444.89 265.8 444.89 263.78 445.4 C263.78 446.31 263.78 447.23 263.78 448.17 C263.85 502.4 263.9 556.63 263.93 610.86 C263.94 617.37 263.94 623.87 263.95 630.38 C263.95 631.68 263.95 632.98 263.95 634.31 C263.96 655.3 263.99 676.29 264.01 697.28 C264.04 718.82 264.06 740.35 264.06 761.89 C264.07 775.18 264.08 788.47 264.1 801.76 C264.12 810.87 264.13 819.98 264.12 829.09 C264.12 834.35 264.12 839.61 264.14 844.86 C264.15 849.68 264.15 854.49 264.14 859.31 C264.14 861.05 264.15 862.79 264.16 864.53 C264.17 866.9 264.16 869.27 264.15 871.64 C264.15 872.95 264.15 874.27 264.15 875.62 C263.6 881.19 262.4 885.82 258.34 889.77 C255.73 892.45 255.02 894.02 253.78 897.46 C252.2 901.72 250.87 904.1 246.78 906.4 C243.97 907.15 243.97 907.15 241.78 907.4 C241.72 907.98 241.66 908.55 241.59 909.15 C240.42 912.39 238.62 913.5 235.78 915.4 C225.13 919.49 213 918.55 201.75 918.59 C200.29 918.6 198.84 918.6 197.38 918.61 C194.27 918.63 191.17 918.65 188.06 918.66 C183.15 918.68 178.23 918.71 173.32 918.74 C162.03 918.8 150.73 918.86 139.43 918.91 C129.04 918.96 118.65 919.02 108.26 919.08 C103.37 919.1 98.49 919.13 93.6 919.15 C90.57 919.16 87.54 919.18 84.52 919.2 C83.11 919.2 81.7 919.21 80.3 919.22 C78.38 919.22 76.47 919.23 74.55 919.25 C73.48 919.25 72.41 919.26 71.3 919.26 C68.79 919.23 68.79 919.23 66.78 920.4 C66.78 921.56 66.78 922.72 66.78 923.91 C66.74 951.45 66.68 978.98 66.6 1006.52 C66.59 1009.9 66.58 1013.29 66.57 1016.68 C66.57 1017.36 66.57 1018.03 66.57 1018.73 C66.54 1029.65 66.52 1040.58 66.51 1051.5 C66.5 1062.71 66.47 1073.92 66.43 1085.13 C66.4 1091.42 66.39 1097.72 66.39 1104.02 C66.39 1109.94 66.37 1115.86 66.34 1121.79 C66.33 1123.96 66.33 1126.14 66.34 1128.32 C66.34 1131.28 66.32 1134.25 66.3 1137.22 C66.31 1138.08 66.32 1138.95 66.32 1139.84 C66.27 1143.89 66.1 1145.9 63.87 1149.4 C61.83 1151.35 60.49 1152.29 57.84 1153.15 C57.2 1153.37 56.55 1153.59 55.88 1153.82 C51.46 1155.04 47.37 1155.53 42.79 1155.56 C41.6 1155.57 40.42 1155.58 39.2 1155.59 C37.92 1155.59 36.65 1155.6 35.34 1155.6 C34.68 1155.6 34.03 1155.61 33.35 1155.61 C29.88 1155.63 26.41 1155.63 22.95 1155.64 C19.39 1155.64 15.84 1155.67 12.29 1155.7 C9.53 1155.72 6.77 1155.72 4.01 1155.72 C2.08 1155.73 0.14 1155.75 -1.8 1155.76 C-10.48 1155.74 -18.93 1155.23 -26.34 1150.34 C-29.64 1146.93 -29.34 1144.57 -29.33 1139.93 C-29.33 1139.27 -29.33 1138.6 -29.33 1137.92 C-29.33 1135.72 -29.32 1133.52 -29.32 1131.33 C-29.31 1129.81 -29.31 1128.28 -29.31 1126.76 C-29.31 1122.75 -29.3 1118.75 -29.29 1114.74 C-29.28 1110.65 -29.27 1106.56 -29.27 1102.47 C-29.26 1094.45 -29.24 1086.42 -29.22 1078.4 C-32.93 1077.22 -36.45 1077.27 -40.33 1077.27 C-41.4 1077.27 -41.4 1077.27 -42.5 1077.27 C-44.9 1077.26 -47.3 1077.27 -49.71 1077.27 C-51.43 1077.27 -53.15 1077.27 -54.87 1077.26 C-59.55 1077.26 -64.22 1077.26 -68.9 1077.26 C-73.78 1077.27 -78.67 1077.26 -83.56 1077.26 C-91.77 1077.26 -99.97 1077.26 -108.18 1077.27 C-117.68 1077.27 -127.17 1077.27 -136.67 1077.27 C-144.82 1077.26 -152.97 1077.26 -161.11 1077.26 C-165.98 1077.27 -170.85 1077.27 -175.72 1077.26 C-180.3 1077.26 -184.87 1077.26 -189.45 1077.27 C-191.13 1077.27 -192.81 1077.27 -194.49 1077.27 C-196.78 1077.26 -199.07 1077.27 -201.36 1077.27 C-202.64 1077.27 -203.93 1077.27 -205.25 1077.27 C-208.15 1077.19 -208.15 1077.19 -210.22 1078.4 C-210.22 1079.66 -210.22 1079.66 -210.22 1080.95 C-210.24 1088.88 -210.28 1096.81 -210.35 1104.74 C-210.39 1108.81 -210.41 1112.89 -210.41 1116.97 C-210.42 1120.9 -210.45 1124.84 -210.49 1128.78 C-210.51 1130.28 -210.51 1131.78 -210.5 1133.28 C-210.5 1135.38 -210.53 1137.48 -210.56 1139.59 C-210.57 1140.79 -210.57 1141.98 -210.58 1143.22 C-211.41 1147.33 -213.01 1148.78 -216.22 1151.4 C-222.49 1154.59 -228.26 1155.51 -235.23 1155.56 C-236.4 1155.57 -237.56 1155.58 -238.76 1155.59 C-240.01 1155.59 -241.26 1155.6 -242.54 1155.6 C-243.84 1155.61 -245.14 1155.61 -246.47 1155.62 C-249.22 1155.63 -251.96 1155.64 -254.7 1155.64 C-258.19 1155.64 -261.67 1155.67 -265.16 1155.7 C-268.51 1155.72 -271.87 1155.72 -275.23 1155.73 C-277.09 1155.75 -277.09 1155.75 -278.98 1155.76 C-287.6 1155.74 -295.99 1155.19 -303.34 1150.34 C-307.04 1146.52 -306.37 1142.61 -306.38 1137.58 C-306.38 1136.19 -306.38 1136.19 -306.39 1134.78 C-306.41 1131.66 -306.42 1128.54 -306.42 1125.43 C-306.43 1123.2 -306.44 1120.97 -306.45 1118.74 C-306.48 1112.68 -306.5 1106.62 -306.52 1100.56 C-306.54 1094.23 -306.57 1087.9 -306.6 1081.57 C-306.64 1070.95 -306.68 1060.32 -306.72 1049.69 C-306.76 1038.74 -306.8 1027.79 -306.85 1016.85 C-306.85 1015.83 -306.85 1015.83 -306.85 1014.8 C-306.87 1011.42 -306.88 1008.03 -306.9 1004.65 C-307.01 976.57 -307.12 948.48 -307.22 920.4 C-310.25 918.88 -313.39 919.26 -316.72 919.26 C-317.5 919.26 -318.29 919.26 -319.09 919.26 C-321.73 919.25 -324.37 919.25 -327.01 919.25 C-328.89 919.25 -330.78 919.25 -332.66 919.24 C-337.8 919.23 -342.93 919.23 -348.06 919.23 C-352.34 919.23 -356.62 919.23 -360.9 919.22 C-370.99 919.21 -381.09 919.21 -391.18 919.21 C-401.6 919.21 -412.03 919.2 -422.45 919.19 C-431.39 919.17 -440.33 919.17 -449.27 919.17 C-454.61 919.17 -459.96 919.17 -465.3 919.16 C-470.32 919.15 -475.35 919.15 -480.37 919.15 C-482.22 919.15 -484.07 919.15 -485.91 919.15 C-488.43 919.14 -490.95 919.14 -493.46 919.15 C-494.56 919.14 -494.56 919.14 -495.69 919.14 C-499.36 919.16 -502.1 919.37 -505.22 921.4 C-504.96 921.91 -504.7 922.42 -504.43 922.94 C-500.92 930.27 -499.58 937.66 -498.15 945.6 C-497.1 951.11 -495.83 955.71 -493.13 960.63 C-491.76 963.3 -491.15 966.03 -490.53 968.96 C-490.3 970.01 -490.07 971.07 -489.83 972.15 C-488.41 979.7 -488.04 986.92 -488.03 994.59 C-488.02 995.65 -488.01 996.71 -487.99 997.8 C-487.97 1009.91 -489.61 1019.59 -495.75 1030 C-497.66 1034.42 -498.15 1038.65 -498.72 1043.4 C-500.06 1054.63 -500.06 1054.63 -503.22 1059.4 C-504.7 1060.54 -504.7 1060.54 -506.21 1061.71 C-510.19 1064.79 -511.05 1068.69 -512.34 1073.4 C-515.18 1083.37 -515.18 1083.37 -519.22 1087.4 C-519.92 1087.73 -520.63 1088.06 -521.35 1088.41 C-524.02 1089.83 -524.21 1091.44 -525.09 1094.27 C-526.83 1099.04 -528.54 1101.11 -533.22 1103.4 C-534.21 1103.73 -535.2 1104.06 -536.22 1104.4 C-537.27 1106.13 -537.27 1106.13 -538.09 1108.21 C-539.88 1112 -541.62 1114.11 -545.22 1116.4 C-546.06 1116.67 -546.91 1116.93 -547.78 1117.21 C-550.57 1118.26 -550.57 1118.26 -551.84 1121.71 C-554.17 1126.33 -558 1127.35 -562.6 1129.21 C-565.89 1130.7 -567.86 1132.69 -570.22 1135.4 C-574.73 1139.95 -579.66 1140.72 -585.72 1141.96 C-595.34 1143.96 -595.34 1143.96 -603.41 1149.4 C-613.26 1156.4 -627.1 1155.55 -638.67 1155.53 C-639.72 1155.53 -640.78 1155.53 -641.87 1155.53 C-644.09 1155.53 -646.31 1155.53 -648.53 1155.53 C-651.88 1155.52 -655.23 1155.53 -658.58 1155.54 C-701.28 1155.55 -701.28 1155.55 -711.22 1147.4 C-711.68 1146.89 -712.14 1146.38 -712.62 1145.85 C-714.48 1144.16 -715.77 1143.76 -718.2 1143.19 C-719.36 1142.9 -719.36 1142.9 -720.54 1142.6 C-722.14 1142.22 -723.75 1141.84 -725.35 1141.47 C-731.93 1139.81 -736.59 1137.16 -741.28 1132.23 C-743.73 1129.92 -746.05 1129.18 -749.22 1128.09 C-755.73 1125.54 -755.73 1125.54 -757.47 1121.84 C-759.59 1117.67 -761.22 1117.15 -765.32 1115.36 C-768.14 1113.93 -769.55 1112.04 -771.22 1109.4 C-771.47 1108.55 -771.71 1107.71 -771.97 1106.84 C-773.45 1103.96 -774.29 1103.7 -777.16 1102.4 C-780.94 1100.68 -782.56 1099.35 -784.22 1095.4 C-784.51 1094.18 -784.8 1092.96 -785.09 1091.71 C-785.47 1090.62 -785.84 1089.52 -786.22 1088.4 C-787.88 1087.72 -789.55 1087.06 -791.22 1086.4 C-795.38 1081.42 -797.94 1075.05 -800.69 1069.23 C-802.15 1066.33 -802.15 1066.33 -804.31 1063.79 C-808.24 1058.87 -809.01 1052.62 -810.15 1046.55 C-810.4 1045.23 -810.4 1045.23 -810.66 1043.89 C-810.98 1042.14 -811.3 1040.38 -811.6 1038.62 C-812.34 1034.59 -813.12 1031.22 -815.24 1027.69 C-817.24 1024.37 -818.11 1021.73 -818.91 1017.96 C-819.14 1016.91 -819.37 1015.86 -819.61 1014.78 C-821.05 1006.84 -821.4 999.21 -821.41 991.15 C-821.42 990.09 -821.43 989.04 -821.44 987.95 C-821.46 977.39 -820.68 967.61 -815.22 958.4 C-814.56 957.74 -813.9 957.08 -813.22 956.4 C-811.32 950.46 -810.66 944.4 -810.09 938.21 C-809.47 932.33 -808.03 928.08 -803.66 924.02 C-801.22 922.4 -801.22 922.4 -799.22 922.4 C-799.22 921.41 -799.22 920.42 -799.22 919.4 C-800.37 919.39 -801.51 919.38 -802.69 919.37 C-813.55 919.27 -824.41 919.17 -835.26 919.06 C-840.84 919 -846.42 918.95 -852 918.9 C-857.4 918.85 -862.79 918.8 -868.19 918.75 C-870.23 918.73 -872.28 918.71 -874.33 918.69 C-907.63 918.41 -907.63 918.41 -914.22 914.4 C-916.32 912.13 -917.84 910.15 -919.22 907.4 C-920.61 906.78 -920.61 906.78 -922.03 906.15 C-925.92 904.01 -927.18 902.32 -929.22 898.4 C-929.77 896.05 -930.21 893.74 -930.53 891.35 C-931.05 889.22 -931.05 889.22 -933.14 888.25 C-933.83 887.97 -934.51 887.69 -935.22 887.4 C-939.5 883.6 -939.64 880.19 -940.05 874.81 C-940.39 867.85 -940.37 860.88 -940.38 853.9 C-940.38 852.14 -940.39 850.37 -940.39 848.6 C-940.41 843.77 -940.41 838.94 -940.42 834.11 C-940.43 828.89 -940.44 823.67 -940.45 818.45 C-940.48 809.41 -940.49 800.38 -940.51 791.34 C-940.53 778.28 -940.56 765.21 -940.59 752.15 C-940.64 730.95 -940.68 709.76 -940.72 688.56 C-940.76 667.97 -940.8 647.39 -940.85 626.8 C-940.85 625.53 -940.85 624.26 -940.85 622.95 C-940.87 616.58 -940.88 610.22 -940.9 603.85 C-941.01 551.03 -941.12 498.21 -941.22 445.4 C-943.85 444.08 -946.29 444.21 -949.19 444.11 C-971.75 443.31 -971.75 443.31 -978.22 436.4 C-979.5 433.83 -979.35 432.01 -979.36 429.14 C-979.36 428.02 -979.37 426.91 -979.38 425.76 C-979.38 424.53 -979.38 423.3 -979.38 422.03 C-979.38 420.74 -979.39 419.45 -979.39 418.12 C-979.41 414.57 -979.41 411.02 -979.42 407.47 C-979.42 405.25 -979.43 403.03 -979.43 400.81 C-979.44 393.85 -979.45 386.9 -979.46 379.95 C-979.46 371.93 -979.48 363.92 -979.51 355.91 C-979.53 349.71 -979.54 343.51 -979.54 337.31 C-979.54 333.61 -979.55 329.91 -979.57 326.21 C-979.59 322.07 -979.58 317.94 -979.58 313.8 C-979.58 312.59 -979.59 311.37 -979.6 310.12 C-979.56 301.13 -978.21 293.31 -973.62 285.48 C-970.83 280.11 -970.23 275.12 -969.72 269.15 C-967.46 248.36 -967.46 248.36 -960.66 240.4 C-957.3 236.27 -956.48 231.95 -955.21 226.84 C-953.48 220.84 -951.47 216.9 -946.22 213.4 C-945.56 213.4 -944.9 213.4 -944.22 213.4 C-944.06 212.75 -943.9 212.09 -943.74 211.42 C-942.17 205.55 -940.65 201.62 -936.22 197.4 C-934.92 196.97 -934.92 196.97 -933.59 196.52 C-931.11 195.66 -931.11 195.66 -930.41 193.65 C-929.95 192.22 -929.48 190.8 -929.02 189.37 C-927.79 186.35 -925.98 185.04 -923.22 183.4 C-920.41 182.65 -920.41 182.65 -918.22 182.4 C-918.18 181.72 -918.14 181.04 -918.09 180.34 C-916.84 176.13 -914.55 173.24 -911.22 170.4 C-907.84 169.46 -907.84 169.46 -905.22 169.4 C-905.14 168.68 -905.05 167.95 -904.97 167.21 C-904.01 163.61 -902.9 162.01 -900.22 159.4 C-897.93 158.31 -895.61 157.38 -893.26 156.43 C-890.45 155.01 -889.6 153.17 -888.22 150.4 C-884.41 146.79 -880.91 145.49 -875.91 144.09 C-870.13 142.35 -866.42 140.21 -862.15 135.97 C-857.64 132.3 -851.37 131.82 -845.8 130.73 C-839.19 129.37 -835.88 128.44 -831.22 123.4 C-812.41 115.47 -788.43 118.25 -768.47 118.25 C-764.55 118.25 -760.63 118.24 -756.71 118.23 C-749.85 118.22 -742.99 118.22 -736.13 118.22 C-725.93 118.21 -715.73 118.2 -705.54 118.19 C-688.37 118.17 -671.21 118.15 -654.05 118.14 C-630.63 118.12 -607.2 118.1 -583.78 118.07 C-572.86 118.06 -561.94 118.04 -551.02 118.03 C-549.93 118.03 -548.84 118.03 -547.71 118.03 C-521.72 118 -495.73 117.98 -469.74 117.95 C-468.6 117.95 -467.47 117.95 -466.3 117.95 C-446.69 117.93 -427.08 117.91 -407.47 117.89 C-391.31 117.88 -375.16 117.86 -359 117.85 C-357.86 117.85 -356.73 117.84 -355.55 117.84 C-329.58 117.82 -303.61 117.79 -277.64 117.76 C-276.55 117.76 -275.46 117.76 -274.33 117.76 C-263.44 117.75 -252.56 117.74 -241.67 117.72 C-218.26 117.7 -194.86 117.67 -171.45 117.66 C-154.4 117.64 -137.36 117.63 -120.31 117.61 C-110.17 117.59 -100.03 117.59 -89.9 117.58 C-83.13 117.58 -76.37 117.57 -69.61 117.56 C-65.75 117.55 -61.89 117.55 -58.04 117.55 C-53.89 117.55 -49.74 117.54 -45.6 117.53 C-44.38 117.54 -43.17 117.54 -41.93 117.54 C-40.83 117.53 -39.73 117.53 -38.59 117.53 C-37.65 117.53 -36.7 117.53 -35.72 117.53 C-33.41 117.41 -31.43 117.05 -29.22 116.4 C-29.22 115.85 -29.23 115.31 -29.23 114.74 C-29.34 101.45 -29.43 88.15 -29.48 74.86 C-29.5 68.43 -29.54 62 -29.6 55.57 C-29.65 49.36 -29.68 43.16 -29.69 36.95 C-29.7 34.58 -29.72 32.22 -29.75 29.85 C-29.78 26.53 -29.79 23.22 -29.79 19.9 C-29.8 18.92 -29.82 17.94 -29.84 16.94 C-29.81 12.55 -29.7 9.39 -26.92 5.86 C-19.39 -0.99 -9.67 -0.05 0 0 Z M-799.53 210.71 C-805.08 214.41 -811.6 215.64 -817.98 217.29 C-825.37 218.95 -825.37 218.95 -831.22 223.4 C-834.28 226.83 -837.32 229.13 -841.28 231.4 C-845.18 233.65 -847.59 235.7 -850.22 239.4 C-851 240 -851.77 240.61 -852.57 241.23 C-855.26 243.43 -857.13 245.64 -859.22 248.4 C-861.3 251.15 -863.11 253.31 -865.84 255.43 C-868.35 257.51 -869.19 258.84 -870.34 261.84 C-872.26 266.49 -873.88 270.26 -877.78 273.59 C-888.14 285.54 -884.49 315.19 -884.63 330.26 C-884.65 332.22 -884.67 334.19 -884.71 336.16 C-884.76 338.96 -884.77 341.75 -884.78 344.54 C-884.8 345.39 -884.82 346.24 -884.84 347.12 C-884.87 349.76 -884.87 349.76 -884.22 353.4 C-880.31 356.66 -876.56 356.82 -871.67 356.77 C-870.53 356.78 -870.53 356.78 -869.37 356.79 C-866.82 356.8 -864.27 356.78 -861.72 356.77 C-859.87 356.78 -858.02 356.78 -856.17 356.79 C-851.06 356.8 -845.95 356.79 -840.83 356.78 C-835.28 356.77 -829.73 356.78 -824.18 356.78 C-814.45 356.79 -804.71 356.79 -794.97 356.78 C-781.17 356.77 -767.36 356.77 -753.56 356.78 C-728.53 356.79 -703.49 356.79 -678.46 356.78 C-654.33 356.77 -630.21 356.76 -606.08 356.76 C-604.56 356.76 -603.05 356.76 -601.54 356.76 C-595.45 356.76 -589.37 356.76 -583.28 356.76 C-566.27 356.76 -549.27 356.76 -532.26 356.76 C-531.48 356.76 -530.71 356.76 -529.91 356.76 C-505.22 356.76 -480.53 356.76 -455.84 356.75 C-455.04 356.75 -454.24 356.75 -453.41 356.75 C-440.41 356.74 -427.4 356.74 -414.39 356.73 C-362.79 356.71 -311.2 356.71 -259.6 356.71 C-256.34 356.71 -253.08 356.71 -249.82 356.72 C-249.01 356.72 -248.21 356.72 -247.38 356.72 C-238.45 356.72 -229.52 356.72 -220.6 356.72 C-219.8 356.72 -219 356.72 -218.17 356.72 C-174.97 356.72 -131.78 356.72 -88.58 356.71 C-87.06 356.71 -85.53 356.71 -84.01 356.71 C-82.88 356.71 -82.88 356.71 -81.73 356.71 C-80.21 356.71 -78.69 356.71 -77.18 356.71 C-73.39 356.71 -69.61 356.7 -65.83 356.7 C-49.23 356.7 -32.64 356.7 -16.05 356.7 C-15.3 356.7 -14.55 356.7 -13.78 356.7 C-10.01 356.7 -6.25 356.7 -2.48 356.7 C24.73 356.7 51.94 356.7 79.15 356.68 C93.55 356.68 107.95 356.67 122.35 356.68 C131.95 356.68 141.56 356.68 151.16 356.67 C156.65 356.66 162.13 356.66 167.61 356.67 C172.59 356.67 177.57 356.67 182.55 356.66 C184.35 356.65 186.14 356.66 187.94 356.66 C190.37 356.67 192.8 356.66 195.23 356.65 C196.28 356.66 196.28 356.66 197.35 356.66 C201.26 356.63 204.25 356.11 207.78 354.4 C207.83 347.46 207.87 340.53 207.89 333.6 C207.9 331.25 207.91 328.9 207.93 326.55 C209.69 299.39 209.69 299.39 201.31 274.68 C199.86 273.18 199.86 273.18 197.78 273.4 C196.73 270.86 195.76 268.34 194.96 265.71 C193.11 259.83 191.39 256.4 186.43 252.71 C183.94 250.73 182.54 248.04 180.78 245.4 C177.87 242.3 174.83 239.35 171.78 236.4 C170.81 235.38 170.81 235.38 169.82 234.34 C166.88 231.53 163.52 229.48 160.12 227.28 C157.56 225.22 156.46 223.19 154.78 220.4 C151.19 217.72 146.47 217.67 142.16 217.09 C133.95 215.85 127.48 213.64 120.6 208.89 C106.38 201.35 82.97 205.12 67.1 205.15 C62.61 205.15 58.13 205.15 53.65 205.14 C45.81 205.14 37.96 205.14 30.12 205.15 C18.46 205.16 6.8 205.15 -4.87 205.15 C-24.49 205.14 -44.12 205.15 -63.74 205.16 C-83.17 205.17 -102.61 205.17 -122.04 205.17 C-123.86 205.17 -123.86 205.17 -125.71 205.17 C-130.62 205.17 -135.53 205.17 -140.44 205.17 C-186.49 205.17 -232.54 205.18 -278.59 205.19 C-319.5 205.21 -360.4 205.21 -401.31 205.21 C-403.94 205.21 -406.57 205.21 -409.19 205.21 C-410.49 205.21 -411.79 205.21 -413.13 205.21 C-419.67 205.21 -426.21 205.21 -432.74 205.21 C-434.03 205.21 -435.32 205.21 -436.65 205.21 C-470.85 205.21 -505.04 205.22 -539.23 205.22 C-540.45 205.22 -541.66 205.22 -542.92 205.22 C-547.81 205.22 -552.7 205.23 -557.59 205.23 C-574.6 205.23 -591.61 205.23 -608.62 205.23 C-630.54 205.23 -652.46 205.24 -674.38 205.25 C-685.97 205.25 -697.56 205.25 -709.15 205.25 C-716.89 205.25 -724.64 205.25 -732.38 205.26 C-736.79 205.26 -741.2 205.26 -745.61 205.26 C-749.63 205.26 -753.65 205.26 -757.67 205.27 C-759.11 205.27 -760.54 205.27 -761.98 205.27 C-781.65 204.36 -781.65 204.36 -799.53 210.71 Z M-844.22 445.4 C-844.68 448.23 -844.68 448.23 -844.6 451.62 C-844.6 452.27 -844.6 452.92 -844.61 453.59 C-844.62 455.78 -844.61 457.97 -844.6 460.17 C-844.6 461.75 -844.61 463.33 -844.61 464.91 C-844.63 469.26 -844.62 473.62 -844.61 477.98 C-844.6 482.68 -844.61 487.37 -844.62 492.06 C-844.64 501.27 -844.63 510.47 -844.62 519.67 C-844.62 527.14 -844.62 534.62 -844.62 542.1 C-844.62 543.16 -844.62 544.22 -844.62 545.31 C-844.62 547.47 -844.62 549.63 -844.62 551.79 C-844.63 572.04 -844.62 592.29 -844.61 612.54 C-844.59 629.93 -844.6 647.33 -844.61 664.72 C-844.63 684.9 -844.63 705.08 -844.62 725.25 C-844.62 727.4 -844.62 729.55 -844.62 731.7 C-844.62 732.76 -844.62 733.82 -844.62 734.91 C-844.62 742.38 -844.62 749.85 -844.63 757.32 C-844.64 766.42 -844.63 775.51 -844.62 784.61 C-844.61 789.26 -844.61 793.91 -844.62 798.55 C-844.63 802.8 -844.62 807.05 -844.6 811.29 C-844.6 812.84 -844.6 814.38 -844.61 815.92 C-844.62 818.01 -844.61 820.09 -844.6 822.18 C-844.6 823.34 -844.6 824.5 -844.59 825.7 C-844.47 826.59 -844.35 827.48 -844.22 828.4 C-840.32 831 -837.07 830.68 -832.55 830.65 C-831.65 830.65 -830.75 830.66 -829.82 830.66 C-826.77 830.67 -823.73 830.66 -820.68 830.65 C-818.49 830.65 -816.29 830.66 -814.1 830.66 C-808.04 830.67 -801.99 830.67 -795.94 830.66 C-789.42 830.66 -782.9 830.66 -776.38 830.67 C-764.34 830.68 -752.3 830.68 -740.26 830.67 C-729.13 830.66 -718.01 830.66 -706.89 830.67 C-706.15 830.67 -705.42 830.67 -704.66 830.67 C-701.67 830.67 -698.67 830.67 -695.68 830.67 C-667.61 830.67 -639.53 830.67 -611.46 830.66 C-586.5 830.65 -561.54 830.65 -536.58 830.66 C-508.55 830.67 -480.53 830.67 -452.5 830.67 C-449.52 830.67 -446.53 830.67 -443.55 830.67 C-442.44 830.67 -442.44 830.67 -441.32 830.67 C-430.2 830.66 -419.09 830.67 -407.97 830.67 C-395.33 830.68 -382.7 830.68 -370.06 830.66 C-363.61 830.66 -357.15 830.66 -350.7 830.66 C-344.8 830.67 -338.9 830.67 -333 830.66 C-330.86 830.65 -328.72 830.65 -326.58 830.66 C-323.68 830.67 -320.78 830.66 -317.89 830.65 C-316.62 830.66 -316.62 830.66 -315.33 830.66 C-311.44 830.64 -309.53 830.61 -306.22 828.4 C-305.77 825.57 -305.77 825.57 -305.85 822.17 C-305.84 821.2 -305.84 821.2 -305.84 820.2 C-305.83 818.01 -305.84 815.81 -305.86 813.62 C-305.86 812.04 -305.85 810.45 -305.85 808.87 C-305.84 804.51 -305.86 800.15 -305.87 795.79 C-305.88 791.09 -305.88 786.39 -305.88 781.69 C-305.88 773.55 -305.88 765.4 -305.9 757.26 C-305.93 745.48 -305.93 733.7 -305.94 721.93 C-305.94 702.82 -305.96 683.72 -305.99 664.61 C-306.02 646.05 -306.04 627.49 -306.05 608.92 C-306.06 607.21 -306.06 607.21 -306.06 605.46 C-306.06 599.72 -306.06 593.99 -306.07 588.25 C-306.1 540.63 -306.15 493.02 -306.22 445.4 C-310.16 442.73 -314.43 443.12 -319 443.15 C-319.9 443.14 -320.8 443.14 -321.72 443.14 C-324.76 443.13 -327.8 443.14 -330.84 443.14 C-333.03 443.14 -335.22 443.14 -337.41 443.14 C-343.45 443.13 -349.49 443.13 -355.53 443.14 C-362.04 443.14 -368.54 443.13 -375.05 443.13 C-387.07 443.12 -399.08 443.12 -411.1 443.13 C-422.19 443.13 -433.29 443.13 -444.39 443.13 C-445.49 443.13 -445.49 443.13 -446.62 443.13 C-449.6 443.13 -452.59 443.13 -455.57 443.13 C-483.59 443.12 -511.61 443.13 -539.62 443.14 C-564.53 443.15 -589.44 443.15 -614.34 443.14 C-642.31 443.13 -670.28 443.12 -698.24 443.13 C-701.22 443.13 -704.2 443.13 -707.18 443.13 C-707.91 443.13 -708.65 443.13 -709.4 443.13 C-720.5 443.13 -731.59 443.13 -742.68 443.13 C-755.29 443.12 -767.9 443.12 -780.51 443.13 C-786.95 443.14 -793.39 443.14 -799.83 443.13 C-805.71 443.13 -811.6 443.13 -817.49 443.14 C-819.62 443.14 -821.76 443.14 -823.9 443.14 C-826.79 443.13 -829.68 443.14 -832.57 443.15 C-833.41 443.14 -834.25 443.14 -835.12 443.13 C-839.01 443.16 -840.91 443.19 -844.22 445.4 Z M-211.22 445.4 C-211.51 448.39 -211.61 451.18 -211.58 454.18 C-211.58 455.1 -211.58 456.02 -211.59 456.97 C-211.59 460.07 -211.58 463.18 -211.56 466.28 C-211.56 468.5 -211.56 470.71 -211.56 472.93 C-211.56 478.97 -211.54 485 -211.52 491.04 C-211.5 497.34 -211.5 503.64 -211.5 509.94 C-211.49 520.52 -211.47 531.1 -211.45 541.68 C-211.42 552.58 -211.4 563.48 -211.38 574.38 C-211.38 575.05 -211.38 575.72 -211.38 576.41 C-211.38 579.78 -211.37 583.15 -211.37 586.52 C-211.34 614.48 -211.29 642.44 -211.22 670.4 C-207.55 672.71 -204.43 672.65 -200.16 672.65 C-199.09 672.66 -199.09 672.66 -198 672.66 C-195.62 672.67 -193.24 672.66 -190.86 672.66 C-189.15 672.66 -187.44 672.66 -185.73 672.67 C-181.09 672.68 -176.45 672.67 -171.81 672.67 C-166.96 672.66 -162.1 672.67 -157.25 672.67 C-149.1 672.67 -140.95 672.67 -132.8 672.66 C-123.37 672.65 -113.94 672.65 -104.51 672.66 C-96.42 672.67 -88.33 672.67 -80.24 672.67 C-75.41 672.66 -70.58 672.66 -65.74 672.67 C-61.2 672.68 -56.66 672.67 -52.11 672.66 C-50.44 672.66 -48.77 672.66 -47.11 672.66 C-44.83 672.67 -42.55 672.66 -40.28 672.65 C-39 672.65 -37.73 672.65 -36.42 672.65 C-32.95 672.58 -32.95 672.58 -29.22 670.4 C-29.22 596.15 -29.22 521.9 -29.22 445.4 C-33.53 443.24 -35.58 443.15 -40.32 443.14 C-41.04 443.14 -41.76 443.14 -42.49 443.14 C-44.89 443.13 -47.29 443.13 -49.69 443.14 C-51.41 443.14 -53.13 443.13 -54.85 443.13 C-59.52 443.12 -64.19 443.12 -68.86 443.13 C-73.75 443.13 -78.63 443.13 -83.52 443.13 C-91.72 443.12 -99.92 443.13 -108.12 443.14 C-117.61 443.15 -127.1 443.15 -136.59 443.13 C-144.73 443.12 -152.88 443.12 -161.02 443.13 C-165.88 443.13 -170.75 443.13 -175.61 443.13 C-180.19 443.12 -184.76 443.12 -189.33 443.14 C-191.01 443.14 -192.69 443.14 -194.37 443.13 C-196.66 443.13 -198.95 443.13 -201.24 443.14 C-202.52 443.15 -203.81 443.15 -205.13 443.15 C-208.39 443.16 -208.39 443.16 -211.22 445.4 Z M65.78 445.4 C65.71 494.16 65.66 542.91 65.63 591.67 C65.62 597.42 65.62 603.17 65.62 608.92 C65.62 610.07 65.61 611.21 65.61 612.39 C65.6 630.95 65.58 649.51 65.55 668.08 C65.52 687.11 65.51 706.14 65.5 725.17 C65.49 736.92 65.48 748.68 65.46 760.43 C65.44 768.48 65.44 776.53 65.44 784.57 C65.44 789.22 65.44 793.87 65.42 798.53 C65.41 802.78 65.41 807.03 65.42 811.28 C65.42 812.82 65.42 814.37 65.41 815.91 C65.39 818 65.4 820.08 65.41 822.17 C65.41 823.33 65.41 824.5 65.41 825.69 C65.53 826.59 65.65 827.48 65.78 828.4 C68.82 830.43 69.4 830.65 72.8 830.65 C73.62 830.66 74.44 830.66 75.28 830.67 C76.17 830.67 77.06 830.66 77.98 830.66 C78.92 830.66 79.86 830.66 80.83 830.67 C83.95 830.68 87.07 830.67 90.19 830.66 C92.35 830.67 94.51 830.67 96.68 830.67 C101.21 830.67 105.75 830.67 110.29 830.66 C116.11 830.65 121.93 830.65 127.75 830.67 C132.22 830.67 136.68 830.67 141.15 830.67 C143.3 830.66 145.45 830.67 147.59 830.67 C150.59 830.68 153.59 830.67 156.58 830.66 C157.48 830.66 158.37 830.67 159.29 830.67 C160.1 830.66 160.92 830.66 161.76 830.65 C162.47 830.65 163.18 830.65 163.91 830.65 C166.11 830.49 166.11 830.49 168.78 828.4 C169.23 825.57 169.23 825.57 169.15 822.17 C169.15 821.52 169.16 820.87 169.16 820.2 C169.17 818.01 169.16 815.81 169.14 813.62 C169.14 812.04 169.15 810.45 169.15 808.87 C169.16 804.51 169.14 800.15 169.13 795.79 C169.12 791.09 169.12 786.39 169.12 781.69 C169.12 773.55 169.12 765.4 169.1 757.26 C169.07 745.48 169.07 733.7 169.06 721.93 C169.06 702.82 169.04 683.72 169.01 664.61 C168.98 646.05 168.96 627.49 168.95 608.92 C168.95 607.78 168.94 606.64 168.94 605.46 C168.94 599.72 168.94 593.99 168.93 588.25 C168.9 540.63 168.85 493.02 168.78 445.4 C165.91 443.89 163.98 443.15 160.72 443.14 C159.92 443.14 159.12 443.13 158.3 443.13 C157.43 443.13 156.56 443.14 155.67 443.14 C154.75 443.14 153.83 443.13 152.88 443.13 C149.84 443.12 146.79 443.13 143.75 443.13 C141.64 443.13 139.52 443.13 137.41 443.13 C132.97 443.12 128.54 443.13 124.11 443.14 C118.43 443.15 112.74 443.14 107.06 443.13 C102.7 443.12 98.33 443.13 93.96 443.13 C91.87 443.13 89.77 443.13 87.68 443.13 C84.75 443.12 81.82 443.13 78.89 443.14 C78.02 443.14 77.16 443.13 76.26 443.13 C75.46 443.13 74.67 443.14 73.84 443.14 C72.8 443.15 72.8 443.15 71.75 443.15 C69.43 443.44 67.83 444.32 65.78 445.4 Z M-211.22 762.4 C-211.97 765.34 -211.97 765.34 -211.83 768.77 C-211.84 770.08 -211.85 771.4 -211.86 772.75 C-211.85 774.19 -211.83 775.62 -211.81 777.06 C-211.81 778.53 -211.81 780 -211.81 781.47 C-211.81 784.55 -211.79 787.63 -211.76 790.71 C-211.72 794.67 -211.72 798.62 -211.72 802.57 C-211.73 805.61 -211.72 808.65 -211.7 811.68 C-211.69 813.14 -211.69 814.6 -211.69 816.06 C-211.69 818.09 -211.66 820.13 -211.64 822.16 C-211.63 823.32 -211.62 824.48 -211.61 825.67 C-211.48 826.57 -211.35 827.47 -211.22 828.4 C-207.5 830.88 -205.64 830.65 -201.2 830.65 C-200.12 830.66 -200.12 830.66 -199.02 830.66 C-196.6 830.67 -194.19 830.66 -191.77 830.66 C-190.04 830.66 -188.31 830.66 -186.58 830.67 C-181.88 830.68 -177.18 830.67 -172.47 830.67 C-167.56 830.66 -162.64 830.67 -157.73 830.67 C-149.47 830.67 -141.22 830.67 -132.96 830.66 C-123.41 830.65 -113.86 830.65 -104.31 830.66 C-96.11 830.67 -87.92 830.67 -79.73 830.67 C-74.83 830.66 -69.94 830.66 -65.04 830.67 C-60.44 830.68 -55.83 830.67 -51.23 830.66 C-49.54 830.66 -47.85 830.66 -46.15 830.66 C-43.85 830.67 -41.55 830.66 -39.24 830.65 C-37.3 830.65 -37.3 830.65 -35.33 830.65 C-32.05 830.64 -32.05 830.64 -29.22 828.4 C-28.74 825.55 -28.74 825.55 -28.8 822.16 C-28.78 820.85 -28.77 819.54 -28.75 818.19 C-28.75 816.75 -28.75 815.31 -28.75 813.87 C-28.74 812.4 -28.74 810.93 -28.73 809.46 C-28.71 806.38 -28.71 803.3 -28.72 800.21 C-28.72 796.26 -28.69 792.31 -28.65 788.36 C-28.63 785.32 -28.62 782.29 -28.63 779.25 C-28.63 777.79 -28.62 776.33 -28.6 774.88 C-28.58 772.84 -28.59 770.8 -28.6 768.77 C-28.6 767.61 -28.6 766.45 -28.6 765.25 C-28.93 762.27 -28.93 762.27 -31.31 760.74 C-34.86 759.1 -37.41 759.02 -41.32 759.02 C-42.02 759.01 -42.72 759.01 -43.45 759 C-45.8 758.99 -48.15 759 -50.5 759.01 C-52.18 759.01 -53.87 759 -55.56 758.99 C-60.14 758.98 -64.71 758.99 -69.29 759 C-74.08 759 -78.88 759 -83.67 758.99 C-91.71 758.99 -99.76 758.99 -107.81 759.01 C-117.11 759.02 -126.41 759.02 -135.72 759 C-143.7 758.99 -151.69 758.99 -159.68 758.99 C-164.45 759 -169.22 759 -173.99 758.99 C-178.47 758.98 -182.96 758.99 -187.44 759 C-189.09 759.01 -190.74 759.01 -192.38 759 C-194.63 758.99 -196.87 759 -199.12 759.02 C-201.01 759.02 -201.01 759.02 -202.93 759.02 C-206.5 759.43 -208.41 760.18 -211.22 762.4 Z M-676.53 923.4 C-680.52 926.37 -684.82 927.88 -689.68 928.93 C-696.23 930.45 -699.23 932.97 -703.41 938.21 C-705 940.13 -706.39 941.41 -708.41 942.84 C-711.78 945.91 -713.12 948.92 -714.85 953.09 C-716.22 955.4 -716.22 955.4 -718.77 956.88 C-721.39 958.19 -721.39 958.19 -722.29 960.79 C-726.14 978.72 -726.94 995.36 -724.91 1013.52 C-724.79 1014.62 -724.67 1015.71 -724.55 1016.83 C-724.42 1017.87 -724.3 1018.9 -724.17 1019.97 C-724.06 1020.89 -723.95 1021.82 -723.83 1022.77 C-723.12 1025.8 -722.01 1027.87 -720.22 1030.4 C-718.55 1031.4 -716.89 1032.4 -715.22 1033.4 C-713.7 1035.67 -713.7 1035.67 -712.41 1038.21 C-709.91 1042.66 -707.43 1045.22 -703.15 1047.95 C-701.22 1049.4 -701.22 1049.4 -699.47 1051.91 C-696.54 1055.15 -693.44 1055.92 -689.34 1056.96 C-683.33 1058.54 -678.03 1060.24 -673.73 1065.07 C-669.05 1069.18 -658.68 1068.78 -652.6 1068.58 C-641.14 1067.93 -641.14 1067.93 -631.88 1061.85 C-628.84 1059.19 -625.05 1058.45 -621.22 1057.4 C-619.59 1056.91 -617.96 1056.41 -616.34 1055.9 C-615.62 1055.68 -614.91 1055.47 -614.16 1055.24 C-610.95 1053.85 -609.37 1051.59 -607.28 1048.84 C-605.22 1046.4 -605.22 1046.4 -603.22 1045.46 C-598.58 1043 -596.32 1037.01 -594.22 1032.4 C-594.22 1031.74 -594.22 1031.08 -594.22 1030.4 C-593.43 1030.11 -592.65 1029.82 -591.84 1029.52 C-589.12 1028.55 -589.12 1028.55 -587.22 1026.4 C-586.57 1023.92 -586.57 1023.92 -586.15 1021.01 C-585.89 1019.37 -585.89 1019.37 -585.62 1017.69 C-582.96 999.79 -583.23 983.94 -585.37 965.98 C-585.48 965.01 -585.6 964.03 -585.72 963.02 C-586.21 960.43 -586.8 958.62 -588.22 956.4 C-589.61 955.53 -589.61 955.53 -591.03 954.65 C-594.03 952.53 -594.83 951.67 -596.53 948.65 C-599.04 944.29 -602.27 941.42 -606.11 938.21 C-608.22 936.4 -608.22 936.4 -610.47 933.65 C-614.27 930.54 -618.3 929.74 -622.98 928.43 C-627.87 926.87 -632.17 924.54 -635.74 920.81 C-639.92 916.81 -647.2 918.17 -652.56 918.16 C-654.58 918.15 -656.6 918.12 -658.62 918.09 C-659.9 918.08 -661.17 918.08 -662.49 918.07 C-663.66 918.06 -664.83 918.05 -666.04 918.04 C-670.59 918.55 -673.13 920.46 -676.53 923.4 Z M-211.22 920.4 C-211.69 923.24 -211.69 923.24 -211.64 926.64 C-211.65 927.95 -211.67 929.26 -211.69 930.61 C-211.69 932.05 -211.69 933.49 -211.69 934.93 C-211.69 936.4 -211.7 937.87 -211.71 939.33 C-211.72 942.42 -211.73 945.5 -211.72 948.58 C-211.71 952.54 -211.74 956.49 -211.78 960.44 C-211.81 963.48 -211.81 966.51 -211.81 969.55 C-211.81 971 -211.82 972.46 -211.84 973.92 C-211.86 975.96 -211.85 977.99 -211.83 980.03 C-211.84 981.19 -211.84 982.35 -211.84 983.55 C-211.51 986.53 -211.51 986.53 -209.12 988.05 C-205.57 989.7 -203.03 989.78 -199.12 989.78 C-198.42 989.78 -197.72 989.79 -196.99 989.79 C-194.64 989.81 -192.29 989.8 -189.94 989.79 C-188.25 989.79 -186.57 989.8 -184.88 989.8 C-180.3 989.82 -175.72 989.81 -171.14 989.8 C-166.35 989.79 -161.56 989.8 -156.77 989.81 C-148.72 989.81 -140.68 989.8 -132.63 989.79 C-123.33 989.77 -114.02 989.78 -104.72 989.8 C-96.73 989.81 -88.75 989.81 -80.76 989.8 C-75.99 989.8 -71.22 989.8 -66.45 989.81 C-61.96 989.82 -57.48 989.81 -52.99 989.79 C-51.35 989.79 -49.7 989.79 -48.06 989.8 C-45.81 989.8 -43.56 989.79 -41.32 989.78 C-39.43 989.78 -39.43 989.78 -37.51 989.78 C-33.94 989.37 -32.03 988.62 -29.22 986.4 C-28.47 983.46 -28.47 983.46 -28.6 980.03 C-28.59 978.72 -28.58 977.4 -28.58 976.05 C-28.59 974.61 -28.61 973.17 -28.62 971.74 C-28.63 970.27 -28.63 968.8 -28.62 967.33 C-28.63 964.25 -28.65 961.16 -28.68 958.08 C-28.72 954.13 -28.72 950.18 -28.71 946.22 C-28.71 943.19 -28.72 940.15 -28.74 937.12 C-28.75 935.66 -28.75 934.2 -28.75 932.74 C-28.75 930.71 -28.77 928.67 -28.8 926.64 C-28.81 924.9 -28.81 924.9 -28.82 923.12 C-29.02 921.78 -29.02 921.78 -29.22 920.4 C-32.93 917.92 -34.8 918.15 -39.24 918.14 C-40.32 918.14 -40.32 918.14 -41.42 918.14 C-43.84 918.13 -46.25 918.13 -48.67 918.14 C-50.4 918.14 -52.13 918.13 -53.86 918.13 C-58.56 918.12 -63.26 918.12 -67.96 918.13 C-72.88 918.13 -77.79 918.13 -82.71 918.13 C-90.97 918.12 -99.22 918.13 -107.48 918.14 C-117.03 918.15 -126.58 918.15 -136.13 918.13 C-144.32 918.12 -152.52 918.12 -160.71 918.13 C-165.61 918.13 -170.5 918.13 -175.4 918.13 C-180 918.12 -184.6 918.12 -189.21 918.14 C-190.9 918.14 -192.59 918.14 -194.28 918.13 C-196.59 918.13 -198.89 918.13 -201.2 918.14 C-203.13 918.15 -203.13 918.15 -205.11 918.15 C-208.39 918.16 -208.39 918.16 -211.22 920.4 Z " fill="#000000" transform="translate(991.21875,35.6015625)"/>
</svg>
