<?xml version="1.0" encoding="UTF-8"?>
<!-- Generator: visioncortex VTracer 0.6.3 -->
<svg version="1.1" xmlns="http://www.w3.org/2000/svg" width="1280" height="1280">
<path d="M0 0 C2.88 2.55 4.61 5.56 6.64 8.81 C8.18 11.2 8.18 11.2 11.31 12.94 C18.24 17.76 19.63 28.1 21.19 35.94 C21.19 36.93 21.19 37.92 21.19 38.94 C21.76 39.16 22.34 39.39 22.94 39.62 C26.34 41.61 28.58 44.07 29.82 47.89 C30.34 50.15 30.77 52.41 31.19 54.69 C33.39 65.75 33.39 65.75 39.19 75.25 C44.52 82.41 45.8 92 46.97 100.68 C47.28 102.9 47.28 102.9 48.19 105.94 C50.04 107.08 50.04 107.08 52.19 107.94 C56.06 112.63 57.17 117.06 58.25 122.88 C60.2 133.08 60.2 133.08 65.69 141.75 C70.02 146.73 70.85 153.21 72.12 159.52 C72.28 160.32 72.45 161.13 72.62 161.97 C72.95 163.6 73.27 165.23 73.57 166.87 C74.04 169.43 74.04 169.43 75.19 172.94 C77.05 174.16 77.05 174.16 79.19 174.94 C83.06 179.63 84.17 184.06 85.25 189.88 C87.17 200.07 87.17 200.07 92.69 208.69 C101.24 218.34 99.33 235.68 99.32 247.69 C99.32 249.3 99.32 250.92 99.32 252.53 C99.33 256.95 99.32 261.38 99.32 265.81 C99.32 270.63 99.32 275.45 99.33 280.26 C99.33 288.71 99.33 297.15 99.33 305.6 C99.33 318.15 99.34 330.71 99.34 343.26 C99.35 366.99 99.35 390.72 99.35 414.45 C99.36 432.77 99.36 451.09 99.36 469.41 C99.36 474.69 99.36 479.96 99.36 485.23 C99.36 487.19 99.36 487.19 99.36 489.2 C99.37 526.06 99.37 562.93 99.37 599.79 C99.37 601.19 99.37 602.6 99.37 604 C99.37 610.34 99.37 616.68 99.37 623.02 C99.37 625.85 99.37 628.67 99.37 631.5 C99.37 632.92 99.37 634.33 99.37 635.75 C99.37 680.49 99.38 725.24 99.39 769.99 C99.4 781.27 99.4 792.54 99.4 803.82 C99.4 804.51 99.4 805.21 99.4 805.92 C99.41 827.32 99.41 848.72 99.42 870.12 C99.42 870.79 99.42 871.46 99.42 872.15 C99.42 887.56 99.42 902.97 99.42 918.38 C99.42 923.65 99.42 928.92 99.42 934.19 C99.42 935.49 99.42 936.79 99.42 938.13 C99.42 959.04 99.42 979.94 99.43 1000.85 C99.44 1021.86 99.44 1042.86 99.43 1063.86 C99.43 1076.35 99.43 1088.83 99.44 1101.32 C99.45 1109.65 99.45 1117.99 99.44 1126.32 C99.44 1131.07 99.43 1135.83 99.44 1140.58 C99.45 1144.9 99.45 1149.23 99.44 1153.55 C99.44 1155.1 99.44 1156.66 99.44 1158.21 C99.51 1178.83 99.51 1178.83 95.56 1185.81 C92.95 1188.15 90.22 1189.72 87.2 1191.48 C84.94 1193.12 83.73 1194.76 82.19 1197.06 C78.6 1202.24 74.49 1203.29 68.52 1204.46 C64.86 1204.98 61.37 1205.07 57.67 1205.07 C56.56 1205.07 56.56 1205.07 55.44 1205.08 C52.98 1205.08 50.52 1205.08 48.07 1205.08 C46.3 1205.09 44.53 1205.09 42.77 1205.09 C37.98 1205.1 33.18 1205.1 28.39 1205.1 C25.4 1205.11 22.4 1205.11 19.4 1205.11 C8.94 1205.12 -1.53 1205.12 -11.99 1205.12 C-21.73 1205.12 -31.47 1205.13 -41.21 1205.15 C-49.58 1205.16 -57.95 1205.17 -66.33 1205.17 C-71.32 1205.17 -76.32 1205.17 -81.31 1205.18 C-86.01 1205.19 -90.72 1205.19 -95.42 1205.18 C-97.14 1205.18 -98.86 1205.18 -100.58 1205.19 C-122.7 1205.26 -122.7 1205.26 -129.69 1201.31 C-132.03 1198.7 -133.6 1195.97 -135.36 1192.95 C-136.99 1190.69 -138.63 1189.48 -140.94 1187.94 C-146.12 1184.34 -147.18 1180.21 -148.33 1174.23 C-148.83 1170.83 -148.94 1167.63 -148.94 1164.21 C-148.94 1163.55 -148.94 1162.89 -148.94 1162.22 C-148.95 1160.02 -148.94 1157.82 -148.94 1155.62 C-148.94 1154.02 -148.94 1152.42 -148.94 1150.82 C-148.95 1146.41 -148.94 1142 -148.94 1137.59 C-148.94 1132.79 -148.94 1128 -148.94 1123.21 C-148.95 1114.8 -148.95 1106.39 -148.95 1097.99 C-148.94 1085.49 -148.94 1072.98 -148.95 1060.48 C-148.95 1038.16 -148.95 1015.83 -148.95 993.5 C-148.95 973.96 -148.95 954.41 -148.95 934.87 C-148.95 933.58 -148.95 932.28 -148.95 930.95 C-148.95 925.69 -148.95 920.43 -148.95 915.17 C-148.95 900.48 -148.95 885.78 -148.95 871.08 C-148.95 870.41 -148.95 869.74 -148.95 869.05 C-148.95 847.72 -148.95 826.39 -148.95 805.05 C-148.95 804.36 -148.95 803.67 -148.95 802.96 C-148.95 791.72 -148.94 780.48 -148.94 769.24 C-148.94 724.68 -148.94 680.12 -148.94 635.57 C-148.94 624.34 -148.95 613.12 -148.95 601.89 C-148.95 601.2 -148.95 600.51 -148.95 599.8 C-148.95 578.5 -148.95 557.19 -148.95 535.89 C-148.95 535.22 -148.95 534.55 -148.95 533.86 C-148.95 518.52 -148.95 503.17 -148.95 487.83 C-148.95 482.58 -148.95 477.32 -148.95 472.07 C-148.95 470.78 -148.95 469.49 -148.95 468.16 C-148.94 448.63 -148.95 429.1 -148.95 409.58 C-148.95 387.37 -148.95 365.16 -148.95 342.95 C-148.94 330.52 -148.94 318.09 -148.95 305.66 C-148.95 297.36 -148.95 289.06 -148.94 280.75 C-148.94 276.02 -148.94 271.29 -148.94 266.56 C-148.95 262.25 -148.94 257.94 -148.94 253.63 C-148.94 252.09 -148.94 250.55 -148.94 249 C-148.99 219.3 -148.99 219.3 -143.81 209.94 C-142.98 209.17 -142.15 208.4 -141.3 207.61 C-138.29 204.38 -137.57 201.44 -136.75 197.25 C-136.43 195.82 -136.11 194.39 -135.78 192.96 C-135.62 192.28 -135.46 191.59 -135.3 190.87 C-133.64 184.23 -130.84 178.44 -126.81 172.94 C-124.91 170.08 -124.34 168.52 -123.63 165.26 C-123.42 164.35 -123.22 163.44 -123.01 162.5 C-122.59 160.6 -122.17 158.69 -121.76 156.78 C-119.08 144.97 -119.08 144.97 -114.28 140.67 C-110.85 136.87 -110.31 133.17 -109.31 128.25 C-105.43 111.05 -105.43 111.05 -100.33 106.66 C-98.35 104.41 -97.99 102.53 -97.35 99.61 C-97.1 98.56 -96.86 97.51 -96.61 96.44 C-96.12 94.24 -95.64 92.05 -95.15 89.85 C-93.53 82.87 -91.66 78.01 -86.71 72.67 C-83.56 68.14 -82.95 62.93 -81.83 57.59 C-80.26 50.59 -77.71 44.6 -73.23 38.94 C-71.75 36.85 -71.15 35.26 -70.53 32.79 C-70.33 32.01 -70.13 31.23 -69.92 30.43 C-69.72 29.63 -69.52 28.83 -69.31 28 C-66.09 15.11 -66.09 15.11 -59.88 11 C-56.22 8.41 -54.25 5.72 -51.81 1.94 C-40.58 -7.59 -12.83 -4.85 0 0 Z M-27.06 176.44 C-27.95 176.53 -28.85 176.62 -29.77 176.72 C-30.44 176.79 -31.12 176.86 -31.81 176.94 C-31.97 177.63 -32.13 178.33 -32.3 179.05 C-33.04 182.22 -33.8 185.39 -34.56 188.56 C-34.82 189.66 -35.07 190.75 -35.33 191.88 C-37.02 198.87 -38.95 203.84 -43.91 209.2 C-47.06 213.74 -47.68 218.94 -48.79 224.28 C-50.33 231.13 -52.73 237.3 -57.32 242.72 C-61.92 249.56 -61.1 260.18 -61.07 268.16 C-61.07 269.22 -61.07 270.29 -61.08 271.38 C-61.08 274.9 -61.08 278.43 -61.07 281.95 C-61.07 284.49 -61.08 287.03 -61.08 289.57 C-61.09 295.73 -61.09 301.89 -61.08 308.05 C-61.08 313.05 -61.08 318.06 -61.08 323.06 C-61.08 323.77 -61.08 324.49 -61.08 325.22 C-61.08 326.67 -61.08 328.12 -61.08 329.58 C-61.09 343.14 -61.08 356.71 -61.07 370.28 C-61.06 381.92 -61.06 393.57 -61.07 405.22 C-61.08 418.75 -61.09 432.29 -61.08 445.83 C-61.08 447.27 -61.08 448.71 -61.08 450.15 C-61.08 450.86 -61.08 451.57 -61.08 452.3 C-61.08 457.31 -61.08 462.31 -61.09 467.31 C-61.09 474.03 -61.09 480.76 -61.08 487.48 C-61.07 489.95 -61.07 492.42 -61.08 494.9 C-61.08 498.26 -61.08 501.62 -61.07 504.98 C-61.07 505.97 -61.08 506.96 -61.08 507.98 C-61.07 508.88 -61.07 509.77 -61.06 510.7 C-61.06 511.47 -61.06 512.25 -61.06 513.05 C-60.98 515.18 -60.98 515.18 -58.81 516.94 C-55.87 517.25 -55.87 517.25 -52.38 517.2 C-51.71 517.2 -51.05 517.2 -50.37 517.21 C-48.19 517.22 -46 517.21 -43.81 517.2 C-42.3 517.2 -40.78 517.21 -39.26 517.21 C-36.08 517.21 -32.9 517.21 -29.72 517.2 C-25.64 517.19 -21.55 517.19 -17.47 517.21 C-14.34 517.21 -11.21 517.21 -8.07 517.21 C-6.57 517.2 -5.06 517.21 -3.56 517.21 C-1.45 517.22 0.65 517.21 2.75 517.2 C3.95 517.19 5.15 517.19 6.38 517.19 C9.32 517.23 9.32 517.23 11.19 514.94 C11.49 512.95 11.49 512.95 11.44 510.63 C11.45 509.26 11.45 509.26 11.45 507.87 C11.45 506.86 11.45 505.86 11.44 504.82 C11.44 503.75 11.45 502.69 11.45 501.59 C11.46 498 11.45 494.41 11.45 490.82 C11.45 488.25 11.45 485.69 11.46 483.12 C11.47 476.86 11.46 470.6 11.46 464.34 C11.45 459.25 11.45 454.16 11.46 449.07 C11.46 447.98 11.46 447.98 11.46 446.87 C11.46 445.4 11.46 443.93 11.46 442.46 C11.46 428.65 11.46 414.84 11.45 401.03 C11.44 389.2 11.44 377.36 11.45 365.52 C11.46 351.77 11.46 338.03 11.46 324.28 C11.46 322.82 11.46 321.35 11.46 319.88 C11.45 319.16 11.45 318.44 11.45 317.69 C11.45 312.61 11.46 307.53 11.46 302.46 C11.47 295.61 11.46 288.76 11.45 281.91 C11.45 279.4 11.45 276.89 11.45 274.37 C11.46 270.94 11.45 267.51 11.44 264.07 C11.45 263.08 11.45 262.1 11.45 261.08 C11.42 254.99 11.22 248.74 9.19 242.94 C7.2 241.25 5.2 239.58 3.19 237.94 C1.01 233.17 0.18 228 -0.75 222.88 C-1.89 216.9 -3.79 211.27 -7.81 206.62 C-13.18 199.41 -14.49 189.42 -16.2 180.77 C-16.68 178.01 -16.68 178.01 -17.81 175.94 C-20.97 175.94 -23.93 176.11 -27.06 176.44 Z M-60.81 606.94 C-61.12 608.94 -61.12 608.94 -61.07 611.26 C-61.07 612.17 -61.08 613.08 -61.08 614.02 C-61.08 615.02 -61.08 616.02 -61.07 617.05 C-61.07 618.1 -61.08 619.15 -61.08 620.23 C-61.09 623.72 -61.08 627.2 -61.08 630.69 C-61.08 633.1 -61.08 635.51 -61.08 637.93 C-61.09 642.99 -61.08 648.06 -61.07 653.12 C-61.06 659.62 -61.07 666.13 -61.08 672.63 C-61.09 677.62 -61.09 682.6 -61.08 687.59 C-61.08 689.99 -61.08 692.39 -61.09 694.79 C-61.09 698.13 -61.08 701.48 -61.07 704.83 C-61.08 705.83 -61.08 706.83 -61.08 707.86 C-61.08 708.77 -61.07 709.67 -61.07 710.61 C-61.07 711.4 -61.06 712.19 -61.06 713.01 C-60.98 715.18 -60.98 715.18 -58.81 716.94 C-55.87 717.25 -55.87 717.25 -52.38 717.2 C-51.71 717.2 -51.05 717.2 -50.37 717.21 C-48.19 717.22 -46 717.21 -43.81 717.2 C-42.3 717.2 -40.78 717.21 -39.26 717.21 C-36.08 717.21 -32.9 717.21 -29.72 717.2 C-25.64 717.19 -21.55 717.19 -17.47 717.21 C-14.34 717.21 -11.21 717.21 -8.07 717.21 C-6.57 717.2 -5.06 717.21 -3.56 717.21 C-1.45 717.22 0.65 717.21 2.75 717.2 C3.95 717.19 5.15 717.19 6.38 717.19 C9.32 717.23 9.32 717.23 11.19 714.94 C11.49 712.94 11.49 712.94 11.44 710.61 C11.45 709.7 11.45 708.79 11.46 707.86 C11.45 706.86 11.45 705.86 11.45 704.83 C11.45 703.78 11.45 702.73 11.46 701.64 C11.47 698.16 11.46 694.67 11.45 691.19 C11.45 688.77 11.46 686.36 11.46 683.95 C11.46 678.88 11.46 673.82 11.45 668.75 C11.44 662.25 11.44 655.75 11.46 649.24 C11.46 644.26 11.46 639.27 11.46 634.29 C11.45 631.89 11.46 629.49 11.46 627.09 C11.47 623.74 11.46 620.39 11.45 617.05 C11.45 616.05 11.45 615.05 11.46 614.02 C11.45 613.11 11.45 612.2 11.44 611.26 C11.44 610.47 11.44 609.68 11.44 608.86 C11.36 606.7 11.36 606.7 9.19 604.94 C6.25 604.63 6.25 604.63 2.75 604.68 C2.09 604.68 1.43 604.67 0.75 604.67 C-1.44 604.66 -3.63 604.67 -5.81 604.67 C-7.33 604.67 -8.85 604.67 -10.36 604.67 C-13.54 604.66 -16.73 604.67 -19.91 604.68 C-23.99 604.69 -28.07 604.68 -32.15 604.67 C-35.29 604.66 -38.42 604.66 -41.55 604.67 C-43.06 604.67 -44.56 604.67 -46.07 604.66 C-48.17 604.66 -50.27 604.67 -52.38 604.68 C-54.17 604.68 -54.17 604.68 -56 604.68 C-58.95 604.65 -58.95 604.65 -60.81 606.94 Z M-60.81 806.94 C-61.12 809.25 -61.12 809.25 -61.06 811.99 C-61.07 813.06 -61.07 814.14 -61.08 815.25 C-61.08 816.44 -61.07 817.63 -61.07 818.86 C-61.07 820.12 -61.07 821.37 -61.08 822.67 C-61.08 826.17 -61.08 829.68 -61.07 833.18 C-61.07 836.95 -61.08 840.73 -61.08 844.5 C-61.09 851.9 -61.09 859.3 -61.08 866.69 C-61.08 872.7 -61.08 878.71 -61.08 884.72 C-61.08 885.58 -61.08 886.43 -61.08 887.31 C-61.08 889.04 -61.08 890.78 -61.08 892.51 C-61.09 908.79 -61.08 925.08 -61.07 941.36 C-61.06 955.34 -61.06 969.32 -61.07 983.3 C-61.08 999.53 -61.09 1015.75 -61.08 1031.97 C-61.08 1033.7 -61.08 1035.43 -61.08 1037.15 C-61.08 1038 -61.08 1038.85 -61.08 1039.73 C-61.08 1045.74 -61.08 1051.74 -61.09 1057.75 C-61.09 1065.06 -61.09 1072.38 -61.08 1079.69 C-61.07 1083.42 -61.07 1087.16 -61.08 1090.89 C-61.08 1094.94 -61.08 1098.98 -61.07 1103.02 C-61.07 1104.21 -61.08 1105.4 -61.08 1106.63 C-61.07 1107.7 -61.07 1108.78 -61.06 1109.89 C-61.06 1110.82 -61.06 1111.75 -61.06 1112.72 C-61.02 1115.14 -61.02 1115.14 -58.81 1116.94 C-55.87 1117.25 -55.87 1117.25 -52.38 1117.2 C-51.71 1117.2 -51.05 1117.2 -50.37 1117.21 C-48.19 1117.22 -46 1117.21 -43.81 1117.2 C-42.3 1117.2 -40.78 1117.21 -39.26 1117.21 C-36.08 1117.21 -32.9 1117.21 -29.72 1117.2 C-25.64 1117.19 -21.55 1117.19 -17.47 1117.21 C-14.34 1117.21 -11.21 1117.21 -8.07 1117.21 C-6.57 1117.2 -5.06 1117.21 -3.56 1117.21 C-1.45 1117.22 0.65 1117.21 2.75 1117.2 C3.95 1117.19 5.15 1117.19 6.38 1117.19 C9.32 1117.23 9.32 1117.23 11.19 1114.94 C11.49 1112.62 11.49 1112.62 11.44 1109.89 C11.45 1108.27 11.45 1108.27 11.45 1106.63 C11.45 1105.44 11.45 1104.24 11.44 1103.02 C11.44 1101.76 11.45 1100.5 11.45 1099.21 C11.46 1095.7 11.46 1092.2 11.45 1088.7 C11.44 1084.92 11.45 1081.15 11.46 1077.37 C11.47 1069.98 11.46 1062.58 11.46 1055.18 C11.45 1049.17 11.45 1043.16 11.46 1037.15 C11.46 1035.87 11.46 1035.87 11.46 1034.57 C11.46 1032.83 11.46 1031.1 11.46 1029.36 C11.46 1013.08 11.46 996.8 11.45 980.52 C11.44 966.54 11.44 952.55 11.45 938.57 C11.46 922.35 11.46 906.13 11.46 889.91 C11.46 888.18 11.46 886.45 11.46 884.72 C11.45 883.87 11.45 883.02 11.45 882.14 C11.45 876.14 11.46 870.13 11.46 864.13 C11.47 856.81 11.46 849.5 11.45 842.19 C11.45 838.45 11.45 834.72 11.45 830.98 C11.46 826.94 11.45 822.9 11.44 818.86 C11.45 817.67 11.45 816.47 11.45 815.25 C11.45 814.17 11.44 813.1 11.44 811.99 C11.44 811.05 11.44 810.12 11.44 809.16 C11.4 806.73 11.4 806.73 9.19 804.94 C6.25 804.63 6.25 804.63 2.75 804.68 C2.09 804.68 1.43 804.67 0.75 804.67 C-1.44 804.66 -3.63 804.67 -5.81 804.67 C-7.33 804.67 -8.85 804.67 -10.36 804.67 C-13.54 804.66 -16.73 804.67 -19.91 804.68 C-23.99 804.69 -28.07 804.68 -32.15 804.67 C-35.29 804.66 -38.42 804.66 -41.55 804.67 C-43.06 804.67 -44.56 804.67 -46.07 804.66 C-48.17 804.66 -50.27 804.67 -52.38 804.68 C-54.17 804.68 -54.17 804.68 -56 804.68 C-58.95 804.65 -58.95 804.65 -60.81 806.94 Z " fill="#000000" transform="translate(1144.8125,39.0625)"/>
<path d="M0 0 C2.88 2.55 4.61 5.56 6.64 8.81 C8.18 11.2 8.18 11.2 11.31 12.94 C18.24 17.76 19.63 28.1 21.19 35.94 C21.19 36.93 21.19 37.92 21.19 38.94 C21.76 39.16 22.34 39.39 22.94 39.62 C26.34 41.61 28.58 44.07 29.82 47.89 C30.34 50.15 30.77 52.41 31.19 54.69 C33.39 65.75 33.39 65.75 39.19 75.25 C44.52 82.41 45.8 92 46.97 100.68 C47.28 102.9 47.28 102.9 48.19 105.94 C50.04 107.08 50.04 107.08 52.19 107.94 C56.06 112.63 57.17 117.06 58.25 122.88 C60.2 133.08 60.2 133.08 65.69 141.75 C70.02 146.73 70.85 153.21 72.12 159.52 C72.28 160.32 72.45 161.13 72.62 161.97 C72.95 163.6 73.27 165.23 73.57 166.87 C74.04 169.43 74.04 169.43 75.19 172.94 C77.05 174.16 77.05 174.16 79.19 174.94 C83.06 179.63 84.17 184.06 85.25 189.88 C87.17 200.07 87.17 200.07 92.69 208.69 C101.24 218.34 99.33 235.68 99.32 247.69 C99.32 249.3 99.32 250.92 99.32 252.53 C99.33 256.95 99.32 261.38 99.32 265.81 C99.32 270.63 99.32 275.45 99.33 280.26 C99.33 288.71 99.33 297.15 99.33 305.6 C99.33 318.15 99.34 330.71 99.34 343.26 C99.35 366.99 99.35 390.72 99.35 414.45 C99.36 432.77 99.36 451.09 99.36 469.41 C99.36 474.69 99.36 479.96 99.36 485.23 C99.36 487.19 99.36 487.19 99.36 489.2 C99.37 526.06 99.37 562.93 99.37 599.79 C99.37 601.19 99.37 602.6 99.37 604 C99.37 610.34 99.37 616.68 99.37 623.02 C99.37 625.85 99.37 628.67 99.37 631.5 C99.37 632.92 99.37 634.33 99.37 635.75 C99.37 680.49 99.38 725.24 99.39 769.99 C99.4 781.27 99.4 792.54 99.4 803.82 C99.4 804.51 99.4 805.21 99.4 805.92 C99.41 827.32 99.41 848.72 99.42 870.12 C99.42 870.79 99.42 871.46 99.42 872.15 C99.42 887.56 99.42 902.97 99.42 918.38 C99.42 923.65 99.42 928.92 99.42 934.19 C99.42 935.49 99.42 936.79 99.42 938.13 C99.42 959.04 99.42 979.94 99.43 1000.85 C99.44 1021.86 99.44 1042.86 99.43 1063.86 C99.43 1076.35 99.43 1088.83 99.44 1101.32 C99.45 1109.65 99.45 1117.99 99.44 1126.32 C99.44 1131.07 99.43 1135.83 99.44 1140.58 C99.45 1144.9 99.45 1149.23 99.44 1153.55 C99.44 1155.1 99.44 1156.66 99.44 1158.21 C99.51 1178.83 99.51 1178.83 95.56 1185.81 C92.95 1188.15 90.22 1189.72 87.2 1191.48 C84.94 1193.12 83.73 1194.76 82.19 1197.06 C78.6 1202.24 74.49 1203.29 68.52 1204.46 C64.86 1204.98 61.37 1205.07 57.67 1205.07 C56.56 1205.07 56.56 1205.07 55.44 1205.08 C52.98 1205.08 50.52 1205.08 48.07 1205.08 C46.3 1205.09 44.53 1205.09 42.77 1205.09 C37.98 1205.1 33.18 1205.1 28.39 1205.1 C25.4 1205.11 22.4 1205.11 19.4 1205.11 C8.94 1205.12 -1.53 1205.12 -11.99 1205.12 C-21.73 1205.12 -31.47 1205.13 -41.21 1205.15 C-49.58 1205.16 -57.95 1205.17 -66.33 1205.17 C-71.32 1205.17 -76.32 1205.17 -81.31 1205.18 C-86.01 1205.19 -90.72 1205.19 -95.42 1205.18 C-97.14 1205.18 -98.86 1205.18 -100.58 1205.19 C-122.7 1205.26 -122.7 1205.26 -129.69 1201.31 C-132.03 1198.7 -133.6 1195.97 -135.36 1192.95 C-136.99 1190.69 -138.63 1189.48 -140.94 1187.94 C-146.12 1184.34 -147.18 1180.21 -148.33 1174.23 C-148.83 1170.83 -148.94 1167.63 -148.94 1164.21 C-148.94 1163.55 -148.94 1162.89 -148.94 1162.22 C-148.95 1160.02 -148.94 1157.82 -148.94 1155.62 C-148.94 1154.02 -148.94 1152.42 -148.94 1150.82 C-148.95 1146.41 -148.94 1142 -148.94 1137.59 C-148.94 1132.79 -148.94 1128 -148.94 1123.21 C-148.95 1114.8 -148.95 1106.39 -148.95 1097.99 C-148.94 1085.49 -148.94 1072.98 -148.95 1060.48 C-148.95 1038.16 -148.95 1015.83 -148.95 993.5 C-148.95 973.96 -148.95 954.41 -148.95 934.87 C-148.95 933.58 -148.95 932.28 -148.95 930.95 C-148.95 925.69 -148.95 920.43 -148.95 915.17 C-148.95 900.48 -148.95 885.78 -148.95 871.08 C-148.95 870.41 -148.95 869.74 -148.95 869.05 C-148.95 847.72 -148.95 826.39 -148.95 805.05 C-148.95 804.36 -148.95 803.67 -148.95 802.96 C-148.95 791.72 -148.94 780.48 -148.94 769.24 C-148.94 724.68 -148.94 680.12 -148.94 635.57 C-148.94 624.34 -148.95 613.12 -148.95 601.89 C-148.95 601.2 -148.95 600.51 -148.95 599.8 C-148.95 578.5 -148.95 557.19 -148.95 535.89 C-148.95 535.22 -148.95 534.55 -148.95 533.86 C-148.95 518.52 -148.95 503.17 -148.95 487.83 C-148.95 482.58 -148.95 477.32 -148.95 472.07 C-148.95 470.78 -148.95 469.49 -148.95 468.16 C-148.94 448.63 -148.95 429.1 -148.95 409.58 C-148.95 387.37 -148.95 365.16 -148.95 342.95 C-148.94 330.52 -148.94 318.09 -148.95 305.66 C-148.95 297.36 -148.95 289.06 -148.94 280.75 C-148.94 276.02 -148.94 271.29 -148.94 266.56 C-148.95 262.25 -148.94 257.94 -148.94 253.63 C-148.94 252.09 -148.94 250.55 -148.94 249 C-148.99 219.3 -148.99 219.3 -143.81 209.94 C-142.98 209.17 -142.15 208.4 -141.3 207.61 C-138.29 204.38 -137.57 201.44 -136.75 197.25 C-136.43 195.82 -136.11 194.39 -135.78 192.96 C-135.62 192.28 -135.46 191.59 -135.3 190.87 C-133.64 184.23 -130.84 178.44 -126.81 172.94 C-124.91 170.08 -124.34 168.52 -123.63 165.26 C-123.42 164.35 -123.22 163.44 -123.01 162.5 C-122.59 160.6 -122.17 158.69 -121.76 156.78 C-119.08 144.97 -119.08 144.97 -114.28 140.67 C-110.85 136.87 -110.31 133.17 -109.31 128.25 C-105.43 111.05 -105.43 111.05 -100.33 106.66 C-98.35 104.41 -97.99 102.53 -97.35 99.61 C-97.1 98.56 -96.86 97.51 -96.61 96.44 C-96.12 94.24 -95.64 92.05 -95.15 89.85 C-93.53 82.87 -91.66 78.01 -86.71 72.67 C-83.56 68.14 -82.95 62.93 -81.83 57.59 C-80.26 50.59 -77.71 44.6 -73.23 38.94 C-71.75 36.85 -71.15 35.26 -70.53 32.79 C-70.33 32.01 -70.13 31.23 -69.92 30.43 C-69.72 29.63 -69.52 28.83 -69.31 28 C-66.09 15.11 -66.09 15.11 -59.88 11 C-56.22 8.41 -54.25 5.72 -51.81 1.94 C-40.58 -7.59 -12.83 -4.85 0 0 Z M-27.06 176.44 C-27.95 176.53 -28.85 176.62 -29.77 176.72 C-30.44 176.79 -31.12 176.86 -31.81 176.94 C-31.97 177.63 -32.13 178.33 -32.3 179.05 C-33.04 182.22 -33.8 185.39 -34.56 188.56 C-34.82 189.66 -35.07 190.75 -35.33 191.88 C-37.02 198.87 -38.95 203.84 -43.91 209.2 C-47.06 213.74 -47.68 218.94 -48.79 224.28 C-50.33 231.13 -52.73 237.3 -57.32 242.72 C-61.92 249.56 -61.1 260.18 -61.07 268.16 C-61.07 269.22 -61.07 270.29 -61.08 271.38 C-61.08 274.9 -61.08 278.43 -61.07 281.95 C-61.07 284.49 -61.08 287.03 -61.08 289.57 C-61.09 295.73 -61.09 301.89 -61.08 308.05 C-61.08 313.05 -61.08 318.06 -61.08 323.06 C-61.08 323.77 -61.08 324.49 -61.08 325.22 C-61.08 326.67 -61.08 328.12 -61.08 329.58 C-61.09 343.14 -61.08 356.71 -61.07 370.28 C-61.06 381.92 -61.06 393.57 -61.07 405.22 C-61.08 418.75 -61.09 432.29 -61.08 445.83 C-61.08 447.27 -61.08 448.71 -61.08 450.15 C-61.08 450.86 -61.08 451.57 -61.08 452.3 C-61.08 457.31 -61.08 462.31 -61.09 467.31 C-61.09 474.03 -61.09 480.76 -61.08 487.48 C-61.07 489.95 -61.07 492.42 -61.08 494.9 C-61.08 498.26 -61.08 501.62 -61.07 504.98 C-61.07 505.97 -61.08 506.96 -61.08 507.98 C-61.07 508.88 -61.07 509.77 -61.06 510.7 C-61.06 511.47 -61.06 512.25 -61.06 513.05 C-60.98 515.18 -60.98 515.18 -58.81 516.94 C-55.87 517.25 -55.87 517.25 -52.38 517.2 C-51.71 517.2 -51.05 517.2 -50.37 517.21 C-48.19 517.22 -46 517.21 -43.81 517.2 C-42.3 517.2 -40.78 517.21 -39.26 517.21 C-36.08 517.21 -32.9 517.21 -29.72 517.2 C-25.64 517.19 -21.55 517.19 -17.47 517.21 C-14.34 517.21 -11.21 517.21 -8.07 517.21 C-6.57 517.2 -5.06 517.21 -3.56 517.21 C-1.45 517.22 0.65 517.21 2.75 517.2 C3.95 517.19 5.15 517.19 6.38 517.19 C9.32 517.23 9.32 517.23 11.19 514.94 C11.49 512.95 11.49 512.95 11.44 510.63 C11.45 509.26 11.45 509.26 11.45 507.87 C11.45 506.86 11.45 505.86 11.44 504.82 C11.44 503.75 11.45 502.69 11.45 501.59 C11.46 498 11.45 494.41 11.45 490.82 C11.45 488.25 11.45 485.69 11.46 483.12 C11.47 476.86 11.46 470.6 11.46 464.34 C11.45 459.25 11.45 454.16 11.46 449.07 C11.46 447.98 11.46 447.98 11.46 446.87 C11.46 445.4 11.46 443.93 11.46 442.46 C11.46 428.65 11.46 414.84 11.45 401.03 C11.44 389.2 11.44 377.36 11.45 365.52 C11.46 351.77 11.46 338.03 11.46 324.28 C11.46 322.82 11.46 321.35 11.46 319.88 C11.45 319.16 11.45 318.44 11.45 317.69 C11.45 312.61 11.46 307.53 11.46 302.46 C11.47 295.61 11.46 288.76 11.45 281.91 C11.45 279.4 11.45 276.89 11.45 274.37 C11.46 270.94 11.45 267.51 11.44 264.07 C11.45 263.08 11.45 262.1 11.45 261.08 C11.42 254.99 11.22 248.74 9.19 242.94 C7.2 241.25 5.2 239.58 3.19 237.94 C1.01 233.17 0.18 228 -0.75 222.88 C-1.89 216.9 -3.79 211.27 -7.81 206.62 C-13.18 199.41 -14.49 189.42 -16.2 180.77 C-16.68 178.01 -16.68 178.01 -17.81 175.94 C-20.97 175.94 -23.93 176.11 -27.06 176.44 Z M-60.81 606.94 C-61.12 608.94 -61.12 608.94 -61.07 611.26 C-61.07 612.17 -61.08 613.08 -61.08 614.02 C-61.08 615.02 -61.08 616.02 -61.07 617.05 C-61.07 618.1 -61.08 619.15 -61.08 620.23 C-61.09 623.72 -61.08 627.2 -61.08 630.69 C-61.08 633.1 -61.08 635.51 -61.08 637.93 C-61.09 642.99 -61.08 648.06 -61.07 653.12 C-61.06 659.62 -61.07 666.13 -61.08 672.63 C-61.09 677.62 -61.09 682.6 -61.08 687.59 C-61.08 689.99 -61.08 692.39 -61.09 694.79 C-61.09 698.13 -61.08 701.48 -61.07 704.83 C-61.08 705.83 -61.08 706.83 -61.08 707.86 C-61.08 708.77 -61.07 709.67 -61.07 710.61 C-61.07 711.4 -61.06 712.19 -61.06 713.01 C-60.98 715.18 -60.98 715.18 -58.81 716.94 C-55.87 717.25 -55.87 717.25 -52.38 717.2 C-51.71 717.2 -51.05 717.2 -50.37 717.21 C-48.19 717.22 -46 717.21 -43.81 717.2 C-42.3 717.2 -40.78 717.21 -39.26 717.21 C-36.08 717.21 -32.9 717.21 -29.72 717.2 C-25.64 717.19 -21.55 717.19 -17.47 717.21 C-14.34 717.21 -11.21 717.21 -8.07 717.21 C-6.57 717.2 -5.06 717.21 -3.56 717.21 C-1.45 717.22 0.65 717.21 2.75 717.2 C3.95 717.19 5.15 717.19 6.38 717.19 C9.32 717.23 9.32 717.23 11.19 714.94 C11.49 712.94 11.49 712.94 11.44 710.61 C11.45 709.7 11.45 708.79 11.46 707.86 C11.45 706.86 11.45 705.86 11.45 704.83 C11.45 703.78 11.45 702.73 11.46 701.64 C11.47 698.16 11.46 694.67 11.45 691.19 C11.45 688.77 11.46 686.36 11.46 683.95 C11.46 678.88 11.46 673.82 11.45 668.75 C11.44 662.25 11.44 655.75 11.46 649.24 C11.46 644.26 11.46 639.27 11.46 634.29 C11.45 631.89 11.46 629.49 11.46 627.09 C11.47 623.74 11.46 620.39 11.45 617.05 C11.45 616.05 11.45 615.05 11.46 614.02 C11.45 613.11 11.45 612.2 11.44 611.26 C11.44 610.47 11.44 609.68 11.44 608.86 C11.36 606.7 11.36 606.7 9.19 604.94 C6.25 604.63 6.25 604.63 2.75 604.68 C2.09 604.68 1.43 604.67 0.75 604.67 C-1.44 604.66 -3.63 604.67 -5.81 604.67 C-7.33 604.67 -8.85 604.67 -10.36 604.67 C-13.54 604.66 -16.73 604.67 -19.91 604.68 C-23.99 604.69 -28.07 604.68 -32.15 604.67 C-35.29 604.66 -38.42 604.66 -41.55 604.67 C-43.06 604.67 -44.56 604.67 -46.07 604.66 C-48.17 604.66 -50.27 604.67 -52.38 604.68 C-54.17 604.68 -54.17 604.68 -56 604.68 C-58.95 604.65 -58.95 604.65 -60.81 606.94 Z M-60.81 806.94 C-61.12 809.25 -61.12 809.25 -61.06 811.99 C-61.07 813.06 -61.07 814.14 -61.08 815.25 C-61.08 816.44 -61.07 817.63 -61.07 818.86 C-61.07 820.12 -61.07 821.37 -61.08 822.67 C-61.08 826.17 -61.08 829.68 -61.07 833.18 C-61.07 836.95 -61.08 840.73 -61.08 844.5 C-61.09 851.9 -61.09 859.3 -61.08 866.69 C-61.08 872.7 -61.08 878.71 -61.08 884.72 C-61.08 885.58 -61.08 886.43 -61.08 887.31 C-61.08 889.04 -61.08 890.78 -61.08 892.51 C-61.09 908.79 -61.08 925.08 -61.07 941.36 C-61.06 955.34 -61.06 969.32 -61.07 983.3 C-61.08 999.53 -61.09 1015.75 -61.08 1031.97 C-61.08 1033.7 -61.08 1035.43 -61.08 1037.15 C-61.08 1038 -61.08 1038.85 -61.08 1039.73 C-61.08 1045.74 -61.08 1051.74 -61.09 1057.75 C-61.09 1065.06 -61.09 1072.38 -61.08 1079.69 C-61.07 1083.42 -61.07 1087.16 -61.08 1090.89 C-61.08 1094.94 -61.08 1098.98 -61.07 1103.02 C-61.07 1104.21 -61.08 1105.4 -61.08 1106.63 C-61.07 1107.7 -61.07 1108.78 -61.06 1109.89 C-61.06 1110.82 -61.06 1111.75 -61.06 1112.72 C-61.02 1115.14 -61.02 1115.14 -58.81 1116.94 C-55.87 1117.25 -55.87 1117.25 -52.38 1117.2 C-51.71 1117.2 -51.05 1117.2 -50.37 1117.21 C-48.19 1117.22 -46 1117.21 -43.81 1117.2 C-42.3 1117.2 -40.78 1117.21 -39.26 1117.21 C-36.08 1117.21 -32.9 1117.21 -29.72 1117.2 C-25.64 1117.19 -21.55 1117.19 -17.47 1117.21 C-14.34 1117.21 -11.21 1117.21 -8.07 1117.21 C-6.57 1117.2 -5.06 1117.21 -3.56 1117.21 C-1.45 1117.22 0.65 1117.21 2.75 1117.2 C3.95 1117.19 5.15 1117.19 6.38 1117.19 C9.32 1117.23 9.32 1117.23 11.19 1114.94 C11.49 1112.62 11.49 1112.62 11.44 1109.89 C11.45 1108.27 11.45 1108.27 11.45 1106.63 C11.45 1105.44 11.45 1104.24 11.44 1103.02 C11.44 1101.76 11.45 1100.5 11.45 1099.21 C11.46 1095.7 11.46 1092.2 11.45 1088.7 C11.44 1084.92 11.45 1081.15 11.46 1077.37 C11.47 1069.98 11.46 1062.58 11.46 1055.18 C11.45 1049.17 11.45 1043.16 11.46 1037.15 C11.46 1035.87 11.46 1035.87 11.46 1034.57 C11.46 1032.83 11.46 1031.1 11.46 1029.36 C11.46 1013.08 11.46 996.8 11.45 980.52 C11.44 966.54 11.44 952.55 11.45 938.57 C11.46 922.35 11.46 906.13 11.46 889.91 C11.46 888.18 11.46 886.45 11.46 884.72 C11.45 883.87 11.45 883.02 11.45 882.14 C11.45 876.14 11.46 870.13 11.46 864.13 C11.47 856.81 11.46 849.5 11.45 842.19 C11.45 838.45 11.45 834.72 11.45 830.98 C11.46 826.94 11.45 822.9 11.44 818.86 C11.45 817.67 11.45 816.47 11.45 815.25 C11.45 814.17 11.44 813.1 11.44 811.99 C11.44 811.05 11.44 810.12 11.44 809.16 C11.4 806.73 11.4 806.73 9.19 804.94 C6.25 804.63 6.25 804.63 2.75 804.68 C2.09 804.68 1.43 804.67 0.75 804.67 C-1.44 804.66 -3.63 804.67 -5.81 804.67 C-7.33 804.67 -8.85 804.67 -10.36 804.67 C-13.54 804.66 -16.73 804.67 -19.91 804.68 C-23.99 804.69 -28.07 804.68 -32.15 804.67 C-35.29 804.66 -38.42 804.66 -41.55 804.67 C-43.06 804.67 -44.56 804.67 -46.07 804.66 C-48.17 804.66 -50.27 804.67 -52.38 804.68 C-54.17 804.68 -54.17 804.68 -56 804.68 C-58.95 804.65 -58.95 804.65 -60.81 806.94 Z " fill="#000000" transform="translate(824.8125,39.0625)"/>
<path d="M0 0 C0.55 0.3 1.11 0.6 1.68 0.91 C8.98 4.35 17.06 5.19 25 5.94 C33.54 6.77 42.44 7.84 49.25 13.5 C53.25 16.75 58.21 17.49 63.14 18.48 C69.2 19.77 73.52 21.78 77 27 C77.73 37.28 73.8 46.8 69.1 55.74 C66.72 60.64 66.1 65.69 65.62 71.07 C64.62 81.93 63.45 92.74 56.94 101.9 C54.7 105.47 53.98 108.72 53.38 112.81 C53.19 113.91 53.19 113.91 53.01 115.04 C52.28 119.61 51.75 124.2 51.29 128.81 C50.32 138.32 48.87 145.13 42 152 C39.28 159.44 38.99 167.39 38.23 175.22 C37.23 184.72 35.85 193.27 30 201 C26.02 206.97 25.95 214.24 25.35 221.24 C23.61 241.46 23.61 241.46 17.47 249.27 C14.51 253.29 13.89 257.06 13.31 261.94 C13.14 263.18 13.14 263.18 12.96 264.44 C12.41 268.45 11.94 272.46 11.52 276.48 C10.57 285.23 9.53 292.64 3.88 299.62 C-1.73 306.73 -0.97 317.82 -1.68 326.42 C-2.5 335.09 -3.54 344.48 -9.62 351.19 C-14.52 356.99 -14.35 364.9 -14.88 372.19 C-15.79 383.04 -17.31 393.08 -24 402 C-29.72 414.46 -28.77 429.3 -26.69 442.5 C-26.51 443.65 -26.51 443.65 -26.33 444.82 C-25.42 450.07 -24.14 454.12 -20 457.75 C-14.51 463.92 -14.45 472.67 -13.82 480.55 C-12.82 484.74 -11.23 486.23 -8 489 C-2.24 495.25 -1.51 503.12 -0.23 511.21 C0.71 516.63 2.37 520.17 6 524.25 C11.58 531.93 14 544.65 14 554 C14.58 554.23 15.15 554.45 15.75 554.69 C19.16 556.67 21.4 559.14 22.63 562.95 C23.15 565.21 23.59 567.47 24 569.75 C25.67 578 27.81 584.8 32.56 591.81 C36.46 597.88 37.59 604.93 38.57 611.98 C39.74 620.07 41.33 625.77 47.16 631.89 C50.3 635.49 51.22 639.42 51.85 644.08 C51.98 645.01 52.11 645.94 52.24 646.9 C52.43 648.34 52.43 648.34 52.62 649.81 C52.76 650.79 52.89 651.77 53.03 652.78 C53.36 655.19 53.68 657.59 54 660 C54.74 660.21 55.49 660.41 56.25 660.62 C59.99 662.5 61.07 664.28 63 668 C63.93 671.3 64.51 674.62 65.06 678 C66.29 685.29 67.52 691.07 72.44 696.88 C77.07 703.12 78.18 712.38 79.52 719.9 C80.19 723.64 80.59 725.62 83.44 728.25 C84.71 729.12 84.71 729.12 86 730 C88.56 733.62 89.59 736.81 90.39 741.15 C90.63 742.32 90.86 743.49 91.1 744.7 C91.57 747.14 92.04 749.58 92.49 752.03 C93.79 758.47 94.95 762.83 99.63 767.5 C101.84 769.92 102.45 772.57 103.25 775.69 C103.56 776.9 103.88 778.11 104.2 779.36 C104.94 782.73 105.54 786.09 106.06 789.5 C107.16 796.6 109.67 800.98 114.6 806.09 C118.7 811.67 118.7 818.9 119.44 825.54 C119.93 828.56 120.31 830.49 122 833 C122.95 833.64 123.9 834.28 124.88 834.94 C129.79 838.77 130.48 845.26 132 851 C132.65 853 133.31 855.01 134 857 C136.94 856.82 136.94 856.82 140 856 C141.05 854.15 141.05 854.15 142 852 C146.73 848.21 151.05 847.03 156.94 845.94 C164.11 844.57 170.32 843.24 176.06 838.44 C180.22 834.99 183.17 833.97 188.56 834.06 C193.88 835.51 196.06 838.56 199 843.06 C201.06 846.08 203.16 847.74 206 850 C209.19 854.31 210 858.73 211 863.88 C212.72 872.65 215.26 879.31 220.6 886.59 C223.75 892 224.43 897.94 224.88 904.06 C224.95 904.74 225.02 905.43 225.09 906.13 C225.37 909.87 225.01 911.98 223.3 915.35 C221.02 917.98 219.58 919.12 216.38 920.38 C215.21 920.85 215.21 920.85 214.02 921.34 C212 922 212 922 210 922 C209.77 922.58 209.55 923.15 209.31 923.75 C207.33 927.16 204.86 929.4 201.05 930.63 C198.79 931.15 196.53 931.58 194.25 932 C181.93 934.11 181.93 934.11 172.88 942 C170.14 947.76 170.91 952.88 172 959 C172.25 960.67 172.25 960.67 172.51 962.38 C173.76 969.24 175.49 973.19 180.36 978.14 C185.66 984.15 185.57 992.93 186.18 1000.55 C187.19 1004.78 188.77 1006.16 192 1009 C196.44 1013.47 197.08 1017.87 198.06 1023.88 C199.35 1031.49 200.48 1037.99 205.56 1044.06 C209.17 1048.41 210.25 1051.87 209.88 1057.44 C208.81 1064.64 205.02 1069.29 200.17 1074.42 C194.62 1078.46 187.84 1079.61 181.19 1080.69 C180.44 1080.82 179.69 1080.95 178.92 1081.08 C175.91 1081.59 173.05 1082 170 1082 C169.77 1082.58 169.55 1083.15 169.31 1083.75 C167.09 1087.56 164.18 1089.59 160.03 1091.02 C158.42 1091.38 158.42 1091.38 156.78 1091.74 C155.6 1092 154.42 1092.26 153.21 1092.53 C151.98 1092.79 150.76 1093.05 149.5 1093.31 C148.28 1093.59 147.05 1093.87 145.79 1094.15 C134.03 1096.7 134.03 1096.7 128.44 1093.56 C124.48 1089.4 122 1083.79 122 1078 C121.42 1077.77 120.85 1077.55 120.25 1077.31 C116.84 1075.33 114.6 1072.86 113.37 1069.05 C112.85 1066.79 112.41 1064.53 112 1062.25 C109.8 1051.19 109.8 1051.19 104 1041.69 C98.5 1034.3 97.32 1024.25 95.81 1015.35 C94.81 1011.2 93.05 1008.42 90.54 1005.03 C84.8 996.88 82 984.99 82 975 C78.03 977.48 78.03 977.48 74.54 980.54 C70.14 984.7 62.57 985.34 56.88 986.5 C50.21 987.89 45.25 989.12 39.94 993.56 C35.78 997.01 32.83 998.03 27.44 997.94 C22.12 996.49 19.94 993.44 17 988.94 C14.94 985.92 12.84 984.26 10 982 C6.81 977.69 6 973.27 5 968.12 C3.28 959.35 0.74 952.69 -4.6 945.41 C-7.75 940 -8.43 934.06 -8.88 927.94 C-8.95 927.26 -9.02 926.57 -9.09 925.87 C-9.37 922.13 -9.01 920.02 -7.3 916.65 C-5.02 914.02 -3.58 912.88 -0.38 911.62 C0.79 911.15 0.79 911.15 1.98 910.66 C4 910 4 910 6 910 C6.34 909.13 6.34 909.13 6.69 908.25 C8.67 904.84 11.14 902.6 14.95 901.37 C17.21 900.85 19.47 900.42 21.75 900 C32.89 898.31 32.89 898.31 41.52 891.91 C44.4 886.11 44.22 881.64 42.19 875.58 C41.04 873.08 39.8 871.24 38.06 869.12 C32.34 862.14 31.14 852.99 29.69 844.31 C28.52 838.05 26.51 834.22 22.64 829.24 C17.75 822.58 17.38 814.33 16.53 806.36 C15.77 801.52 14.96 799.74 11.06 796.75 C4.8 791.66 4.34 783.25 3.09 775.72 C2.14 770.12 1.15 765.86 -2.94 761.81 C-7.52 756.61 -8.59 750.65 -9.67 743.94 C-9.79 743.23 -9.9 742.52 -10.03 741.78 C-10.25 740.37 -10.46 738.95 -10.65 737.53 C-11.44 732.48 -12.98 730.95 -17 728 C-20.38 722.61 -21.26 716.78 -22.46 710.63 C-23.63 704.92 -25.17 700.17 -29 695.62 C-34.59 688.28 -35.45 678.41 -37.11 669.58 C-37.41 668.03 -37.41 668.03 -37.72 666.46 C-37.98 665.06 -37.98 665.06 -38.25 663.64 C-39.35 659.78 -40.97 656.9 -44 654.25 C-49.49 648.08 -49.55 639.33 -50.18 631.45 C-51.18 627.26 -52.77 625.77 -56 623 C-61.35 617.19 -62.24 610.21 -63.56 602.69 C-64.31 597.7 -64.31 597.7 -66 593 C-73.93 597.68 -73.93 597.68 -79.39 604.82 C-80.21 608.23 -80.67 611.51 -81 615 C-81.15 616.53 -81.3 618.07 -81.46 619.6 C-81.7 622.06 -81.94 624.51 -82.17 626.96 C-83.01 635.25 -84.26 643.61 -89.53 650.29 C-92.52 654.33 -93.11 658.15 -93.69 663.06 C-93.8 663.89 -93.92 664.72 -94.04 665.58 C-94.57 669.4 -95.03 673.24 -95.48 677.07 C-96.51 685.23 -98.01 691.11 -103.04 697.65 C-105.49 701.84 -105.96 705.36 -106.5 710.12 C-106.74 711.9 -106.98 713.68 -107.22 715.46 C-107.34 716.37 -107.47 717.28 -107.59 718.22 C-108.26 722.76 -109.11 727.25 -110 731.75 C-110.15 732.56 -110.31 733.37 -110.47 734.2 C-113.08 747.21 -113.08 747.21 -118 752 C-120.59 758.72 -121.26 765.89 -121.94 773 C-122.79 781.67 -123.92 790.22 -129.54 797.18 C-132.79 801.6 -133.11 806.09 -133.62 811.44 C-133.86 813.4 -134.1 815.37 -134.34 817.34 C-134.45 818.3 -134.56 819.26 -134.67 820.25 C-135.74 829.25 -136.83 837.48 -141.5 845.44 C-146.61 854.14 -147.4 863.42 -148.48 873.29 C-149.58 883.27 -150.55 891.8 -158 899 C-159.73 903.52 -160.11 906.34 -159 911 C-158.33 911.07 -157.66 911.14 -156.97 911.21 C-153.88 911.54 -150.78 911.9 -147.69 912.25 C-146.63 912.36 -145.58 912.47 -144.5 912.58 C-136.52 913.51 -127.84 914.71 -121.56 920.09 C-117.3 923.27 -112.22 923.65 -107.06 924.56 C-89.62 927.74 -89.62 927.74 -85 934 C-83.86 941.35 -84.23 948.54 -88 955 C-88.66 955.84 -89.33 956.68 -90.01 957.54 C-92.64 962.11 -93.02 966.19 -93.56 971.38 C-93.8 973.34 -94.05 975.31 -94.29 977.28 C-94.41 978.25 -94.53 979.22 -94.65 980.21 C-96.27 993.12 -97.96 1003.15 -108.25 1011.87 C-115.69 1016.68 -127.77 1013.9 -136 1012.75 C-137.44 1012.55 -137.44 1012.55 -138.9 1012.35 C-155.35 1009.9 -155.35 1009.9 -159.84 1005 C-164.86 1000.36 -171.5 1000.73 -177.94 1000.88 C-179.11 1000.89 -179.11 1000.89 -180.3 1000.9 C-182.2 1000.93 -184.1 1000.96 -186 1001 C-186.11 1002.19 -186.11 1002.19 -186.23 1003.4 C-186.58 1007.04 -186.95 1010.67 -187.31 1014.31 C-187.43 1015.56 -187.55 1016.8 -187.67 1018.08 C-188.68 1027.97 -189.72 1037.65 -195.72 1045.86 C-200.27 1053.47 -200.76 1061.27 -201.5 1069.94 C-203.25 1090.42 -203.25 1090.42 -209.44 1097.75 C-210.05 1098.49 -210.67 1099.23 -211.31 1100 C-211.87 1100.66 -212.42 1101.32 -213 1102 C-213.66 1102.91 -214.32 1103.82 -215 1104.75 C-217.68 1107.76 -220.66 1109.75 -224 1112 C-224.55 1111.7 -225.11 1111.4 -225.68 1111.09 C-232.98 1107.65 -241.06 1106.81 -249 1106.06 C-257.54 1105.23 -266.44 1104.16 -273.25 1098.5 C-277.25 1095.25 -282.21 1094.51 -287.14 1093.52 C-293.2 1092.23 -297.52 1090.22 -301 1085 C-301.73 1074.8 -298.3 1064.65 -293.1 1056 C-290.16 1050.64 -289.94 1044.54 -289.36 1038.56 C-288.4 1028.88 -287.33 1019.39 -281.44 1011.31 C-275.18 1002.05 -275.5 986.81 -275 976 C-278.73 973.51 -282.22 973.27 -286.56 972.69 C-302.48 970.3 -302.48 970.3 -307.25 964.47 C-312.54 960.02 -321.85 960.42 -328.46 959.96 C-333.64 959.5 -336.92 958.47 -341 955 C-343.84 951.15 -344.33 948.69 -344 943.95 C-343.92 942.78 -343.84 941.62 -343.76 940.42 C-343.6 938.57 -343.6 938.57 -343.44 936.69 C-343.34 935.43 -343.24 934.17 -343.13 932.88 C-342.12 921.35 -340.64 909.97 -334.94 899.7 C-332.07 894.51 -330.79 889.09 -329.62 883.31 C-328.46 877.95 -327.41 875.25 -323 872 C-322.67 871.67 -322.34 871.34 -322 871 C-305.42 870.03 -283.66 870.49 -270 881 C-266.47 883.14 -262.99 883.65 -258.94 884.25 C-257.71 884.44 -256.48 884.63 -255.21 884.83 C-251.85 885.33 -251.85 885.33 -249 883 C-248.16 880.2 -248.16 880.2 -247.62 876.94 C-246.19 870.09 -244.02 864.02 -239 859 C-238.41 856.12 -237.92 853.29 -237.5 850.38 C-237.37 849.53 -237.24 848.68 -237.11 847.8 C-236.39 843.03 -235.79 838.25 -235.28 833.45 C-234.27 824.15 -232.86 816.63 -226 810 C-223.09 802.23 -223 793.77 -222.32 785.58 C-221.5 776.91 -220.46 767.52 -214.38 760.81 C-209.48 755.01 -209.65 747.1 -209.12 739.81 C-208.21 728.96 -206.69 718.92 -200 710 C-198.36 706.44 -197.56 703.12 -197 699.25 C-196.75 697.54 -196.75 697.54 -196.49 695.8 C-196.14 693.12 -195.83 690.45 -195.57 687.76 C-193.52 667.27 -193.52 667.27 -187.97 662.11 C-185.38 659.34 -185.06 657.22 -184.38 653.5 C-184.25 652.86 -184.13 652.21 -184.01 651.55 C-183.17 646.85 -182.72 642.16 -182.34 637.41 C-181.56 627.85 -180.71 618.16 -173.94 610.74 C-171.29 607 -170.94 603.6 -170.38 599.12 C-170.25 598.29 -170.13 597.45 -170.01 596.58 C-169.45 592.67 -168.96 588.76 -168.55 584.84 C-166.45 566.03 -166.45 566.03 -160.46 560.61 C-155.03 554.64 -155.97 542.75 -155.32 535.22 C-154.38 525.64 -153.14 516.88 -146 510 C-143.27 502.83 -142.72 494.96 -142 487.38 C-141.09 477.75 -140.07 468.84 -134 461 C-129.43 454.15 -129.78 445.37 -129.69 437.38 C-129.67 436.59 -129.65 435.8 -129.63 434.99 C-129.64 427.66 -130.97 421.02 -135.94 415.44 C-141.06 409.1 -142.12 399.95 -143.51 392.11 C-144.19 388.36 -144.59 386.38 -147.44 383.75 C-148.28 383.17 -149.13 382.6 -150 382 C-153.2 377.71 -154 373.26 -155 368.12 C-156.4 360.95 -157.97 354.47 -162.44 348.5 C-167.31 340.93 -168.73 331.2 -170.06 322.44 C-171.17 315.37 -173.69 311 -178.6 305.91 C-182.7 300.33 -182.7 293.1 -183.44 286.46 C-184.23 281.59 -184.93 279.77 -188.94 276.88 C-194.46 272.47 -194.87 264.95 -196 258.38 C-197.07 252.22 -198.13 247.03 -202.44 242.35 C-205.68 238.56 -206.55 234.47 -207.62 229.69 C-210.44 216.61 -210.44 216.61 -218 206 C-220.84 199.42 -222.17 192.82 -223.46 185.8 C-224.59 180.03 -226.12 176.14 -230.06 171.66 C-232.41 168.44 -233.23 165.32 -234.06 161.5 C-234.23 160.8 -234.4 160.1 -234.57 159.38 C-235.36 156.04 -236.05 152.71 -236.67 149.34 C-237.97 142.55 -239.51 138.79 -244.36 133.86 C-249.66 127.85 -249.57 119.07 -250.18 111.45 C-251.19 107.22 -252.77 105.84 -256 103 C-260.44 98.53 -261.08 94.13 -262.06 88.12 C-263.35 80.51 -264.48 74.01 -269.56 67.94 C-273.17 63.59 -274.25 60.13 -273.88 54.56 C-272.81 47.36 -269.02 42.71 -264.17 37.58 C-258.62 33.54 -251.84 32.39 -245.19 31.31 C-244.06 31.12 -244.06 31.12 -242.92 30.92 C-239.91 30.41 -237.05 30 -234 30 C-233.77 29.42 -233.55 28.84 -233.31 28.25 C-231.09 24.44 -228.18 22.41 -224.03 20.98 C-222.42 20.62 -222.42 20.62 -220.78 20.26 C-219.6 20 -218.42 19.74 -217.21 19.47 C-215.98 19.21 -214.76 18.95 -213.5 18.69 C-212.28 18.41 -211.05 18.13 -209.79 17.85 C-198.03 15.3 -198.03 15.3 -192.44 18.44 C-188.48 22.6 -186 28.21 -186 34 C-185.42 34.23 -184.84 34.45 -184.25 34.69 C-180.84 36.67 -178.6 39.14 -177.37 42.95 C-176.85 45.21 -176.41 47.47 -176 49.75 C-173.8 60.81 -173.8 60.81 -168 70.31 C-162.5 77.7 -161.32 87.75 -159.81 96.65 C-158.81 100.8 -156.88 103.73 -154.47 107.22 C-149.96 113.96 -148.79 120.03 -147.94 128 C-147.7 130.23 -147.44 132.46 -147.15 134.69 C-147 136.15 -147 136.15 -146.84 137.64 C-146.23 140.24 -146.23 140.24 -143.56 141.18 C-142.72 141.45 -141.87 141.72 -141 142 C-136.76 146.85 -135.95 151.85 -134.94 158 C-133.71 165.28 -132.56 171.12 -127.5 176.81 C-123.42 181.6 -122.26 187.11 -121.33 193.22 C-121.21 193.97 -121.09 194.73 -120.97 195.5 C-120.74 197.02 -120.54 198.54 -120.35 200.06 C-119.81 203.76 -119.39 205.64 -116.59 208.2 C-115.73 208.79 -114.88 209.39 -114 210 C-110.75 214.23 -109.99 218.76 -109 223.88 C-107.54 231.33 -105.95 237.84 -101.06 243.88 C-96.86 249.94 -95.81 256.94 -94.39 264.05 C-93.89 266.56 -93.32 269.06 -92.75 271.56 C-92.5 272.7 -92.25 273.83 -92 275 C-83.73 268.95 -78.88 261.99 -77.19 251.88 C-76.51 247.5 -76.01 243.1 -75.52 238.7 C-74.42 228.72 -73.45 220.2 -66 213 C-63.3 205.61 -63.03 197.73 -62.32 189.96 C-61.41 181.11 -60.09 171.52 -54.38 164.38 C-50.28 159.08 -50.15 152.81 -49.58 146.33 C-47.57 123.18 -47.57 123.18 -40.17 113.86 C-35.53 106.5 -36.11 94.62 -35.32 86.19 C-34.47 78.34 -32.92 71.61 -27.88 65.38 C-22.24 58.24 -23 47.05 -22.23 38.4 C-21.37 29.53 -20.49 21.27 -14.56 14.25 C-13.95 13.51 -13.33 12.76 -12.69 12 C-12.13 11.34 -11.58 10.68 -11 10 C-10.34 9.09 -9.68 8.19 -9 7.25 C-6.32 4.24 -3.34 2.25 0 0 Z " fill="#000000" transform="translate(392,124)"/>
</svg>
