<?xml version="1.0" encoding="UTF-8"?>
<!-- Generator: visioncortex VTracer 0.6.3 -->
<svg version="1.1" xmlns="http://www.w3.org/2000/svg" width="1280" height="1280">
<path d="M0 0 C0.96 0.01 1.93 0.01 2.92 0.02 C21.42 0.29 21.42 0.29 28.06 6.25 C28.48 7.51 28.48 7.51 28.9 8.8 C29.82 11.45 29.82 11.45 32.35 12.18 C33.72 12.43 33.72 12.43 35.12 12.69 C42.2 14.33 47.56 17.48 52.44 22.88 C55.23 25.4 57.03 26.04 60.56 27.19 C65.81 28.93 68.16 30.55 71.06 35.25 C71.06 36.24 71.06 37.23 71.06 38.25 C72.05 38.42 73.04 38.59 74.06 38.77 C88.06 41.28 88.06 41.28 94.06 45.25 C94.66 46.24 95.26 47.23 95.88 48.25 C98.78 52.24 101.64 52.71 106.23 54.18 C110.39 55.75 113.92 58.1 117.06 61.25 C117.39 62.24 117.72 63.23 118.06 64.25 C120.19 65.17 120.19 65.17 122.75 65.75 C132.72 68.52 132.72 68.52 136.44 73.31 C138.06 76.25 138.06 76.25 138.06 78.25 C139.46 78.52 139.46 78.52 140.88 78.8 C159.25 82.54 159.25 82.54 165.06 91.25 C167.93 92.5 167.93 92.5 171.25 93.56 C177.24 95.75 183.05 98.23 186.06 104.25 C189.55 105.54 193.09 106.63 196.64 107.74 C200.43 109.41 201.83 110.82 204.06 114.25 C204.44 115.33 204.44 115.33 204.83 116.44 C206.9 119.48 210.39 119.59 213.81 120.25 C219.36 121.35 223.61 122.52 228.06 126.25 C228.59 127.57 228.59 127.57 229.12 128.91 C229.59 130.07 229.59 130.07 230.06 131.25 C232.38 132.29 232.38 132.29 235.12 132.69 C242.2 134.33 247.56 137.48 252.44 142.88 C255.23 145.4 257.03 146.04 260.56 147.19 C265.81 148.93 268.16 150.55 271.06 155.25 C271.06 156.24 271.06 157.23 271.06 158.25 C272.05 158.42 273.04 158.59 274.06 158.77 C288.06 161.28 288.06 161.28 294.06 165.25 C294.66 166.24 295.26 167.23 295.88 168.25 C298.78 172.24 301.64 172.71 306.23 174.18 C310.39 175.75 313.92 178.1 317.06 181.25 C317.39 182.24 317.72 183.23 318.06 184.25 C320.19 185.17 320.19 185.17 322.75 185.75 C332.72 188.52 332.72 188.52 336.44 193.31 C338.06 196.25 338.06 196.25 338.06 198.25 C339.46 198.52 339.46 198.52 340.88 198.8 C359.25 202.54 359.25 202.54 365.06 211.25 C367.93 212.5 367.93 212.5 371.25 213.56 C377.24 215.75 383.05 218.23 386.06 224.25 C389.55 225.54 393.09 226.63 396.64 227.74 C401.04 229.68 403.16 232.03 404.96 236.47 C405.97 238.52 405.97 238.52 408.6 239.12 C409.62 239.31 410.64 239.49 411.69 239.69 C417.89 241.08 423.63 242.69 427.38 248.18 C428.17 249.56 428.94 250.95 429.71 252.34 C431.3 254.58 432.79 255.49 435.19 256.81 C439.42 259.19 440.68 261.52 442.06 266.25 C444.47 279.51 444.99 296.42 439.94 309.06 C437.6 311.79 434.91 313.63 431.98 315.7 C429.36 317.81 427.87 320.44 426.06 323.25 C417.26 330.72 401.26 328.58 390.43 328.63 C388.54 328.65 386.65 328.66 384.77 328.68 C379.83 328.73 374.9 328.76 369.96 328.79 C362.03 328.84 354.1 328.91 346.16 328.98 C343.39 329 340.62 329.02 337.85 329.04 C336.17 329.05 334.49 329.06 332.8 329.08 C331.64 329.08 331.64 329.08 330.46 329.08 C326.97 328.8 326.97 328.8 324.06 330.25 C323.96 331.89 323.94 333.53 323.94 335.17 C323.93 336.24 323.93 337.32 323.93 338.42 C323.93 339.62 323.93 340.82 323.94 342.05 C323.94 343.32 323.93 344.58 323.93 345.88 C323.93 349.42 323.93 352.96 323.93 356.5 C323.94 360.34 323.93 364.18 323.93 368.02 C323.93 374.76 323.93 381.49 323.93 388.23 C323.93 398.25 323.93 408.27 323.93 418.29 C323.92 436.18 323.92 454.08 323.93 471.97 C323.93 487.62 323.93 503.28 323.93 518.94 C323.93 519.97 323.93 521.01 323.93 522.08 C323.93 526.29 323.93 530.5 323.93 534.7 C323.92 574.22 323.93 613.73 323.93 653.24 C323.94 688.37 323.94 723.51 323.93 758.65 C323.93 798.09 323.92 837.52 323.93 876.96 C323.93 881.16 323.93 885.36 323.93 889.56 C323.93 890.6 323.93 891.63 323.93 892.7 C323.93 908.35 323.93 924 323.93 939.65 C323.92 957.44 323.92 975.22 323.93 993.01 C323.93 1002.98 323.93 1012.94 323.93 1022.91 C323.93 1029.56 323.93 1036.2 323.93 1042.85 C323.93 1046.64 323.94 1050.43 323.93 1054.23 C323.93 1058.3 323.93 1062.37 323.94 1066.45 C323.93 1067.65 323.93 1068.84 323.93 1070.08 C323.93 1071.69 323.93 1071.69 323.94 1073.33 C323.94 1074.26 323.94 1075.2 323.94 1076.16 C323.83 1078.24 323.83 1078.24 325.06 1079.25 C328.01 1079.35 330.93 1079.39 333.87 1079.38 C335.28 1079.38 335.28 1079.38 336.71 1079.39 C339.87 1079.39 343.03 1079.39 346.19 1079.39 C348.45 1079.39 350.71 1079.4 352.96 1079.4 C357.84 1079.41 362.71 1079.42 367.58 1079.42 C375.28 1079.42 382.98 1079.44 390.68 1079.46 C393.32 1079.47 395.95 1079.47 398.58 1079.48 C400.56 1079.48 400.56 1079.48 402.58 1079.49 C409.41 1079.5 416.24 1079.52 423.07 1079.53 C424.1 1079.54 424.1 1079.54 425.15 1079.54 C436.26 1079.56 447.36 1079.57 458.47 1079.58 C469.87 1079.59 481.26 1079.61 492.66 1079.65 C499.06 1079.67 505.46 1079.68 511.86 1079.67 C517.89 1079.67 523.91 1079.68 529.93 1079.71 C532.14 1079.72 534.35 1079.72 536.56 1079.71 C539.58 1079.7 542.6 1079.72 545.62 1079.74 C546.49 1079.73 547.37 1079.72 548.27 1079.71 C553.68 1079.78 556.76 1080.66 561.06 1084.25 C563.6 1087.64 563.33 1091.08 563.35 1095.22 C563.36 1096.26 563.36 1096.26 563.37 1097.32 C563.39 1099.61 563.4 1101.89 563.4 1104.18 C563.4 1105.77 563.41 1107.37 563.42 1108.96 C563.43 1112.3 563.43 1115.64 563.43 1118.98 C563.43 1123.26 563.46 1127.53 563.49 1131.8 C563.52 1135.09 563.52 1138.39 563.52 1141.68 C563.52 1143.25 563.53 1144.83 563.55 1146.4 C563.57 1148.61 563.56 1150.82 563.55 1153.02 C563.55 1154.28 563.55 1155.53 563.56 1156.82 C562.96 1160.94 561.71 1163.07 559.06 1166.25 C555.45 1168.75 551.68 1168.53 547.44 1168.5 C546.67 1168.51 545.89 1168.51 545.09 1168.51 C542.47 1168.52 539.84 1168.51 537.22 1168.51 C535.32 1168.51 533.42 1168.51 531.52 1168.52 C526.27 1168.53 521.01 1168.52 515.76 1168.52 C510.05 1168.52 504.35 1168.52 498.65 1168.53 C488.64 1168.54 478.63 1168.54 468.62 1168.54 C457.88 1168.54 447.14 1168.54 436.4 1168.55 C435.72 1168.55 435.05 1168.55 434.35 1168.55 C431.59 1168.55 428.83 1168.55 426.07 1168.56 C397.25 1168.58 368.43 1168.58 339.62 1168.58 C336.52 1168.58 333.41 1168.58 330.31 1168.58 C329.54 1168.58 328.77 1168.58 327.98 1168.58 C310.92 1168.59 293.87 1168.59 276.82 1168.59 C269.8 1168.6 262.78 1168.6 255.77 1168.6 C254.6 1168.6 254.6 1168.6 253.42 1168.6 C208.97 1168.61 164.53 1168.62 120.08 1168.62 C118.42 1168.62 116.76 1168.62 115.09 1168.62 C107.58 1168.62 100.07 1168.62 92.56 1168.62 C89.21 1168.62 85.86 1168.62 82.51 1168.62 C80.83 1168.62 79.15 1168.62 77.48 1168.62 C24.45 1168.62 -28.58 1168.63 -81.61 1168.66 C-94.97 1168.67 -108.33 1168.68 -121.69 1168.68 C-122.51 1168.68 -123.34 1168.68 -124.18 1168.68 C-149.53 1168.7 -174.88 1168.7 -200.22 1168.71 C-201.42 1168.71 -201.42 1168.71 -202.64 1168.71 C-220.1 1168.71 -237.56 1168.71 -255.02 1168.71 C-261.27 1168.71 -267.52 1168.71 -273.76 1168.71 C-275.32 1168.71 -276.87 1168.71 -278.43 1168.71 C-303.22 1168.71 -328.01 1168.72 -352.79 1168.74 C-377.75 1168.75 -402.71 1168.76 -427.67 1168.74 C-431.12 1168.74 -434.57 1168.74 -438.01 1168.74 C-438.69 1168.74 -439.36 1168.74 -440.06 1168.74 C-451.43 1168.73 -462.79 1168.74 -474.16 1168.76 C-484.03 1168.77 -493.9 1168.77 -503.78 1168.75 C-509.41 1168.75 -515.04 1168.74 -520.68 1168.76 C-525.8 1168.78 -530.92 1168.77 -536.03 1168.75 C-537.88 1168.75 -539.73 1168.75 -541.57 1168.76 C-544.07 1168.78 -546.57 1168.77 -549.07 1168.75 C-549.78 1168.76 -550.5 1168.77 -551.24 1168.78 C-556.24 1168.71 -559.07 1167.36 -562.94 1164.25 C-565.47 1160.86 -565.2 1157.42 -565.23 1153.28 C-565.23 1152.59 -565.24 1151.9 -565.25 1151.18 C-565.27 1148.89 -565.27 1146.61 -565.27 1144.32 C-565.28 1142.73 -565.29 1141.13 -565.29 1139.54 C-565.31 1136.2 -565.31 1132.86 -565.31 1129.52 C-565.31 1125.24 -565.34 1120.97 -565.37 1116.7 C-565.39 1113.41 -565.4 1110.11 -565.39 1106.82 C-565.4 1105.25 -565.41 1103.67 -565.42 1102.1 C-565.44 1099.89 -565.44 1097.68 -565.42 1095.48 C-565.43 1094.22 -565.43 1092.97 -565.43 1091.68 C-564.84 1087.56 -563.58 1085.43 -560.94 1082.25 C-558.16 1080.55 -556.09 1080 -552.86 1079.99 C-552.05 1079.98 -551.24 1079.98 -550.41 1079.97 C-549.52 1079.97 -548.64 1079.98 -547.73 1079.98 C-546.79 1079.97 -545.85 1079.97 -544.88 1079.96 C-541.71 1079.95 -538.55 1079.95 -535.39 1079.95 C-533.12 1079.94 -530.86 1079.93 -528.59 1079.92 C-523.71 1079.9 -518.83 1079.89 -513.95 1079.88 C-506.24 1079.87 -498.53 1079.85 -490.82 1079.82 C-480.02 1079.78 -469.22 1079.75 -458.42 1079.73 C-457.4 1079.72 -457.4 1079.72 -456.35 1079.72 C-455.32 1079.72 -455.32 1079.72 -454.27 1079.72 C-444.53 1079.69 -434.8 1079.67 -425.06 1079.64 C-424.37 1079.64 -423.69 1079.64 -422.98 1079.64 C-411.57 1079.61 -400.16 1079.57 -388.75 1079.53 C-381.07 1079.51 -373.4 1079.49 -365.73 1079.47 C-360.97 1079.46 -356.21 1079.45 -351.45 1079.43 C-349.23 1079.43 -347.02 1079.42 -344.8 1079.42 C-341.79 1079.42 -338.77 1079.41 -335.76 1079.39 C-334.43 1079.4 -334.43 1079.4 -333.07 1079.4 C-329.19 1079.76 -329.19 1079.76 -325.94 1078.25 C-325.84 1076.61 -325.81 1074.97 -325.81 1073.33 C-325.81 1072.26 -325.81 1071.18 -325.8 1070.08 C-325.81 1068.88 -325.81 1067.68 -325.81 1066.45 C-325.81 1064.55 -325.81 1064.55 -325.81 1062.62 C-325.8 1059.08 -325.81 1055.54 -325.81 1052 C-325.81 1048.16 -325.81 1044.32 -325.81 1040.48 C-325.8 1033.74 -325.8 1027.01 -325.8 1020.27 C-325.81 1010.25 -325.81 1000.23 -325.8 990.21 C-325.8 972.32 -325.8 954.42 -325.8 936.53 C-325.8 920.88 -325.8 905.22 -325.8 889.56 C-325.8 888.53 -325.8 887.49 -325.8 886.42 C-325.8 882.21 -325.8 878 -325.8 873.8 C-325.8 834.28 -325.8 794.77 -325.81 755.26 C-325.81 720.13 -325.81 684.99 -325.81 649.85 C-325.8 610.41 -325.8 570.98 -325.8 531.54 C-325.8 527.34 -325.8 523.14 -325.8 518.94 C-325.8 517.9 -325.8 516.87 -325.8 515.8 C-325.81 500.15 -325.8 484.5 -325.8 468.85 C-325.8 451.06 -325.8 433.28 -325.8 415.49 C-325.81 405.52 -325.81 395.56 -325.8 385.59 C-325.8 378.94 -325.8 372.3 -325.81 365.65 C-325.81 361.86 -325.81 358.07 -325.81 354.27 C-325.8 350.2 -325.81 346.13 -325.81 342.05 C-325.81 340.85 -325.81 339.66 -325.8 338.42 C-325.81 337.35 -325.81 336.28 -325.81 335.17 C-325.81 334.24 -325.81 333.3 -325.81 332.34 C-325.7 330.26 -325.7 330.26 -326.94 329.25 C-329.53 329.14 -332.09 329.09 -334.68 329.08 C-335.49 329.07 -336.3 329.06 -337.14 329.06 C-338.91 329.04 -340.68 329.03 -342.45 329.02 C-345.26 329 -348.07 328.98 -350.88 328.96 C-358.87 328.88 -366.86 328.82 -374.85 328.77 C-379.73 328.74 -384.61 328.7 -389.5 328.65 C-391.35 328.64 -393.21 328.62 -395.06 328.62 C-422.04 328.49 -422.04 328.49 -428.94 322.25 C-430.26 320.25 -431.46 318.2 -432.65 316.12 C-433.95 313.95 -433.95 313.95 -437 312.38 C-441.92 308.82 -443.25 303.34 -444.53 297.57 C-446.02 285.37 -446.42 270.96 -441.81 259.44 C-439.51 256.75 -436.92 254.92 -433.97 252.97 C-431.73 251.25 -431.73 251.25 -430.12 248.29 C-427.57 244.73 -424.89 243.28 -421 241.56 C-412.83 237.82 -412.83 237.82 -405.81 232.31 C-402.08 228.99 -398.14 227.79 -393.45 226.25 C-390.1 224.92 -388.25 222.97 -385.94 220.25 C-380.81 215.41 -374.89 213.88 -368.12 212.44 C-364.71 211.54 -364.71 211.54 -363.17 208.41 C-360.6 204.77 -357.96 203.31 -354 201.56 C-346.26 198.23 -346.26 198.23 -339.94 192.88 C-335.99 189.42 -331.83 188.14 -326.9 186.46 C-324.1 185.32 -322.81 184.54 -320.94 182.25 C-315.61 175.95 -308.88 173.7 -300.94 172.31 C-298.75 171.93 -298.75 171.93 -296.94 171.25 C-295.82 168.91 -295.82 168.91 -294.94 166.25 C-291.05 163.04 -286.4 160.97 -281.88 158.81 C-278.65 157.26 -276.19 155.73 -273.62 153.25 C-270.51 150.34 -267.39 149.2 -263.38 147.81 C-258.14 145.96 -255.54 144.3 -252.3 139.89 C-247.99 134.72 -240.74 133.56 -234.45 132.35 C-231.66 131.4 -231.66 131.4 -230.04 128.38 C-227.56 124.69 -224.94 123.3 -221 121.56 C-212.83 117.82 -212.83 117.82 -205.81 112.31 C-202.08 108.99 -198.14 107.79 -193.45 106.25 C-190.1 104.92 -188.25 102.97 -185.94 100.25 C-180.81 95.41 -174.89 93.88 -168.12 92.44 C-164.71 91.54 -164.71 91.54 -163.17 88.41 C-160.6 84.77 -157.96 83.31 -154 81.56 C-146.26 78.23 -146.26 78.23 -139.94 72.88 C-135.99 69.42 -131.83 68.14 -126.9 66.46 C-124.1 65.32 -122.81 64.54 -120.94 62.25 C-115.61 55.95 -108.88 53.7 -100.94 52.31 C-98.75 51.93 -98.75 51.93 -96.94 51.25 C-95.82 48.91 -95.82 48.91 -94.94 46.25 C-91.05 43.04 -86.4 40.97 -81.88 38.81 C-78.65 37.26 -76.19 35.73 -73.62 33.25 C-70.51 30.34 -67.39 29.2 -63.38 27.81 C-58.14 25.96 -55.55 24.3 -52.3 19.89 C-47.56 14.19 -39.58 13.4 -32.7 12.25 C-29.72 11.53 -29.72 11.53 -28.74 8.79 C-28.48 7.95 -28.21 7.11 -27.94 6.25 C-19.69 0.24 -9.9 -0.1 0 0 Z M-13.94 104.25 C-14.64 105.22 -15.34 106.19 -16.06 107.19 C-19.52 111.61 -24.75 112.69 -29.94 114.25 C-35.07 115.78 -35.07 115.78 -38.94 119.25 C-42.77 123.57 -46.36 125.68 -51.56 127.88 C-57.39 130.15 -57.39 130.15 -61.94 134.25 C-61.94 134.91 -61.94 135.57 -61.94 136.25 C-64.48 137.3 -66.99 138.27 -69.62 139.07 C-76.12 141.08 -76.12 141.08 -80.88 145.69 C-85.51 151.95 -93.83 153.64 -101 155.75 C-104.12 156.74 -104.73 156.96 -106.69 159.75 C-107.1 160.57 -107.51 161.4 -107.94 162.25 C-111.39 164.56 -115.06 166.29 -118.81 168.06 C-122.45 169.85 -125.47 171.49 -128.38 174.31 C-131.42 177.21 -134.47 178.28 -138.44 179.62 C-144.1 181.62 -146.58 183.69 -150.13 188.39 C-153.98 192.36 -159.79 193.55 -165.06 194.72 C-167.11 195.14 -167.11 195.14 -169.94 196.25 C-170.81 197.66 -170.81 197.66 -171.7 199.09 C-174.28 202.73 -176.91 204.19 -180.88 205.94 C-189.05 209.68 -189.05 209.68 -196.06 215.19 C-199.79 218.51 -203.73 219.71 -208.42 221.25 C-211.77 222.58 -213.63 224.53 -215.94 227.25 C-220.17 231.25 -224.47 232.64 -229.94 234.25 C-234.39 235.51 -234.39 235.51 -237.94 238.25 C-228.99 240.87 -220 240.53 -210.77 240.5 C-208.91 240.51 -207.04 240.51 -205.18 240.51 C-200.06 240.52 -194.95 240.52 -189.84 240.51 C-184.32 240.51 -178.81 240.51 -173.29 240.52 C-162.48 240.53 -151.68 240.53 -140.87 240.52 C-132.09 240.52 -123.31 240.52 -114.53 240.52 C-112.65 240.52 -112.65 240.52 -110.74 240.52 C-108.2 240.52 -105.66 240.52 -103.12 240.52 C-79.98 240.53 -56.85 240.52 -33.71 240.51 C-12.6 240.5 8.5 240.5 29.61 240.51 C53.34 240.52 77.06 240.53 100.79 240.52 C103.32 240.52 105.85 240.52 108.38 240.52 C110.25 240.52 110.25 240.52 112.16 240.52 C120.93 240.51 129.7 240.52 138.47 240.52 C149.16 240.53 159.85 240.53 170.54 240.52 C175.99 240.51 181.45 240.51 186.9 240.52 C191.89 240.52 196.89 240.52 201.88 240.51 C203.69 240.51 205.49 240.51 207.3 240.51 C216.39 240.53 225.17 240.42 234.06 238.25 C233.23 236.03 233.23 236.03 230.84 235.39 C229.9 235.1 228.97 234.8 228 234.5 C221.39 232.2 215.99 229.15 212.06 223.25 C209.84 222.47 207.58 221.77 205.31 221.12 C198.69 219.06 198.69 219.06 196.37 216.07 C195.78 214.89 195.78 214.89 195.19 213.69 C193.27 210.03 192.33 209.35 188.33 207.89 C185.52 207.17 182.69 206.63 179.84 206.1 C176.19 205.28 173.99 204.53 171.06 202.25 C170.59 201.41 170.12 200.58 169.64 199.72 C167.51 196.39 165.53 195.96 161.81 194.75 C155.21 192.4 150.5 190.03 145.81 184.69 C142.95 182.15 141.08 181.43 137.5 180.25 C132.99 178.75 130.48 177.54 128.06 173.25 C127.73 172.26 127.4 171.27 127.06 170.25 C125.35 169.44 125.35 169.44 123.24 169 C122.46 168.81 121.67 168.61 120.87 168.4 C120.05 168.21 119.22 168.01 118.38 167.81 C112.56 166.43 107.78 165.15 103.06 161.25 C102.55 160.38 102.04 159.51 101.51 158.62 C99.65 155.57 98.26 155.27 94.88 154.31 C88.31 152.17 83.78 148.75 78.75 144.12 C75.32 141.73 71.81 140.83 67.78 139.77 C64.77 138.09 64.39 137.26 62.85 134.31 C60.81 130.76 59.25 129.54 55.34 128.3 C53.57 127.83 51.79 127.4 50 127 C38.76 124.29 38.76 124.29 34.64 118.12 C32.6 115.7 30.89 115.27 27.88 114.38 C21.28 112.16 15.97 109.11 12.06 103.25 C7.88 100.95 3.72 100.92 -0.94 100.94 C-1.64 100.92 -2.33 100.91 -3.05 100.89 C-7.54 100.88 -10.38 101.48 -13.94 104.25 Z M-236.94 330.25 C-237.24 332.56 -237.24 332.56 -237.19 335.29 C-237.19 336.37 -237.2 337.44 -237.2 338.55 C-237.2 339.75 -237.19 340.94 -237.19 342.17 C-237.19 343.44 -237.19 344.7 -237.2 346 C-237.21 349.54 -237.2 353.08 -237.19 356.62 C-237.19 360.45 -237.2 364.29 -237.2 368.13 C-237.21 374.87 -237.21 381.6 -237.2 388.34 C-237.2 398.35 -237.2 408.37 -237.21 418.39 C-237.22 436.27 -237.21 454.16 -237.21 472.04 C-237.2 487.69 -237.2 503.34 -237.21 518.99 C-237.21 520.03 -237.21 521.07 -237.21 522.14 C-237.21 526.34 -237.21 530.55 -237.21 534.76 C-237.21 574.26 -237.21 613.76 -237.2 653.26 C-237.19 688.38 -237.19 723.5 -237.2 758.63 C-237.21 798.05 -237.21 837.48 -237.21 876.91 C-237.21 881.11 -237.21 885.31 -237.21 889.51 C-237.2 890.54 -237.2 891.57 -237.2 892.64 C-237.2 908.28 -237.21 923.93 -237.21 939.57 C-237.22 957.35 -237.21 975.14 -237.2 992.92 C-237.2 1002.88 -237.2 1012.84 -237.2 1022.8 C-237.21 1029.45 -237.21 1036.09 -237.2 1042.73 C-237.19 1046.52 -237.19 1050.32 -237.2 1054.11 C-237.21 1058.18 -237.2 1062.25 -237.19 1066.33 C-237.19 1067.52 -237.2 1068.72 -237.2 1069.95 C-237.2 1071.02 -237.19 1072.1 -237.19 1073.21 C-237.19 1074.14 -237.19 1075.07 -237.19 1076.03 C-237.15 1078.46 -237.15 1078.46 -234.94 1080.25 C-232 1080.56 -232 1080.56 -228.5 1080.51 C-227.84 1080.51 -227.18 1080.52 -226.5 1080.52 C-224.31 1080.53 -222.12 1080.52 -219.94 1080.52 C-218.42 1080.52 -216.9 1080.52 -215.39 1080.52 C-212.21 1080.52 -209.02 1080.52 -205.84 1080.51 C-201.76 1080.5 -197.68 1080.51 -193.6 1080.52 C-190.46 1080.53 -187.33 1080.52 -184.2 1080.52 C-182.69 1080.52 -181.19 1080.52 -179.68 1080.52 C-177.58 1080.53 -175.48 1080.52 -173.38 1080.51 C-172.18 1080.51 -170.98 1080.51 -169.75 1080.5 C-166.8 1080.54 -166.8 1080.54 -164.94 1078.25 C-164.63 1076.39 -164.63 1076.39 -164.67 1074.24 C-164.66 1073.41 -164.66 1072.57 -164.65 1071.71 C-164.65 1070.78 -164.65 1069.86 -164.65 1068.91 C-164.64 1067.94 -164.64 1066.97 -164.63 1065.98 C-164.62 1063.86 -164.61 1061.75 -164.6 1059.64 C-164.59 1056.28 -164.57 1052.92 -164.55 1049.57 C-164.5 1042.42 -164.47 1035.27 -164.44 1028.12 C-164.4 1019.89 -164.36 1011.65 -164.3 1003.41 C-164.28 1000.13 -164.27 996.85 -164.27 993.56 C-164.09 957.9 -164.09 957.9 -155.43 948.54 C-152.37 944.95 -151.69 941.3 -150.88 936.75 C-149.62 929.93 -148.14 924.7 -142.35 920.27 C-139.32 917.73 -138.62 915.59 -137.38 911.88 C-134.52 903.97 -131.28 899.39 -124.89 894.05 C-123.02 892.32 -121.71 890.68 -120.31 888.56 C-118.03 885.13 -115.38 883.54 -111.94 881.25 C-110.68 879.79 -109.46 878.31 -108.25 876.81 C-103.4 871.16 -97.7 868.95 -90.82 866.5 C-86.08 864.72 -84.63 862.42 -81.94 858.25 C-76.33 854.81 -70.92 854.5 -64.5 853.88 C-58.26 852.78 -55.75 850.04 -51.94 845.25 C-47.76 842.76 -43.65 842.57 -38.89 842.14 C-37.98 842.06 -37.06 841.97 -36.11 841.89 C-25.14 840.98 -14.17 840.95 -3.16 840.99 C0.39 841 3.94 840.99 7.49 840.98 C45.25 840.95 45.25 840.95 54.77 849.76 C58.36 852.81 62.01 853.5 66.56 854.31 C72.27 855.36 76.38 856.54 81.06 860.25 C81.6 861.08 82.13 861.9 82.69 862.75 C85.41 865.62 87.07 866.06 90.81 867.19 C99.62 869.87 104.61 874.47 110.4 881.44 C112.15 883.49 112.15 883.49 115.25 885.38 C118.06 887.25 118.06 887.25 119.88 890 C121.94 893.07 123.75 894.79 126.56 897.12 C131.43 901.33 134.01 905.34 135.68 911.54 C137.23 917.27 139.1 919.68 144.22 922.77 C147.59 925.48 147.98 928.69 148.59 932.84 C148.86 935.45 149.13 938.05 149.4 940.66 C150.55 946.9 153.25 949.42 158.06 953.25 C159.69 955.97 160.37 958.26 160.68 961.4 C160.77 962.21 160.85 963.02 160.93 963.85 C161.01 964.73 161.09 965.61 161.17 966.51 C161.25 967.44 161.33 968.36 161.42 969.32 C162.25 979.18 162.37 989.03 162.4 998.93 C162.41 1002.2 162.43 1005.46 162.45 1008.73 C162.51 1016.81 162.54 1024.9 162.58 1032.98 C162.61 1039.87 162.65 1046.77 162.7 1053.66 C162.72 1056.88 162.73 1060.1 162.73 1063.32 C162.75 1065.27 162.76 1067.22 162.78 1069.18 C162.77 1070.07 162.77 1070.97 162.77 1071.89 C162.6 1076.55 162.6 1076.55 165.06 1080.25 C168 1080.56 168 1080.56 171.5 1080.51 C172.16 1080.51 172.82 1080.52 173.5 1080.52 C175.69 1080.53 177.88 1080.52 180.06 1080.52 C181.58 1080.52 183.1 1080.52 184.61 1080.52 C187.79 1080.52 190.98 1080.52 194.16 1080.51 C198.24 1080.5 202.32 1080.51 206.4 1080.52 C209.54 1080.53 212.67 1080.52 215.8 1080.52 C217.31 1080.52 218.81 1080.52 220.32 1080.52 C222.42 1080.53 224.52 1080.52 226.62 1080.51 C227.82 1080.51 229.02 1080.51 230.25 1080.5 C233.2 1080.54 233.2 1080.54 235.06 1078.25 C235.37 1075.94 235.37 1075.94 235.31 1073.21 C235.32 1072.13 235.32 1071.06 235.33 1069.95 C235.32 1068.75 235.32 1067.56 235.31 1066.33 C235.32 1064.43 235.32 1064.43 235.32 1062.5 C235.33 1058.96 235.33 1055.42 235.32 1051.88 C235.31 1048.05 235.32 1044.21 235.33 1040.37 C235.33 1033.63 235.33 1026.9 235.33 1020.16 C235.32 1010.15 235.32 1000.13 235.33 990.11 C235.34 972.23 235.34 954.34 235.33 936.46 C235.33 920.81 235.33 905.16 235.33 889.51 C235.33 888.47 235.33 887.43 235.33 886.36 C235.33 882.16 235.33 877.95 235.33 873.74 C235.34 834.24 235.33 794.74 235.32 755.24 C235.31 720.12 235.31 685 235.32 649.87 C235.33 610.45 235.34 571.02 235.33 531.59 C235.33 527.39 235.33 523.19 235.33 518.99 C235.33 517.96 235.33 516.93 235.33 515.86 C235.33 500.22 235.33 484.57 235.34 468.93 C235.34 451.15 235.34 433.36 235.33 415.58 C235.32 405.62 235.32 395.66 235.33 385.7 C235.33 379.05 235.33 372.41 235.32 365.77 C235.32 361.98 235.32 358.18 235.32 354.39 C235.33 350.32 235.32 346.25 235.31 342.17 C235.32 340.98 235.32 339.78 235.33 338.55 C235.32 337.48 235.32 336.4 235.31 335.29 C235.31 334.36 235.31 333.43 235.31 332.47 C235.27 330.04 235.27 330.04 233.06 328.25 C230.51 328.05 228.07 327.98 225.51 328 C224.72 328 223.93 327.99 223.11 327.99 C220.43 327.98 217.75 327.99 215.07 328 C213.14 327.99 211.21 327.99 209.28 327.99 C203.95 327.98 198.62 327.98 193.29 327.99 C187.56 327.99 181.82 327.99 176.08 327.98 C164.84 327.97 153.59 327.97 142.34 327.98 C133.2 327.98 124.07 327.98 114.93 327.98 C113.63 327.98 112.33 327.98 111 327.98 C108.36 327.98 105.72 327.98 103.09 327.98 C79.04 327.97 55 327.98 30.95 327.99 C8.99 328 -12.98 328 -34.95 327.99 C-59.6 327.98 -84.26 327.97 -108.92 327.98 C-111.55 327.98 -114.18 327.98 -116.8 327.98 C-118.1 327.98 -119.39 327.98 -120.72 327.98 C-129.85 327.99 -138.98 327.98 -148.12 327.98 C-159.24 327.97 -170.36 327.97 -181.48 327.98 C-187.16 327.99 -192.84 327.99 -198.51 327.98 C-203.71 327.98 -208.9 327.98 -214.09 327.99 C-215.97 327.99 -217.86 327.99 -219.74 327.99 C-222.29 327.98 -224.84 327.99 -227.39 328 C-228.13 327.99 -228.88 327.99 -229.65 327.98 C-233.74 327.89 -233.74 327.89 -236.94 330.25 Z M-21.11 933.17 C-24.79 935.88 -28.48 936.99 -32.81 938.31 C-42.55 940.63 -42.55 940.63 -50.18 946.12 C-50.49 947.11 -50.49 947.11 -50.81 948.12 C-51.87 950.77 -52.46 951.99 -55 953.38 C-55.79 953.7 -56.57 954.02 -57.38 954.36 C-60.2 955.83 -61.64 956.67 -63.12 959.52 C-63.91 962.23 -64.53 964.91 -65.06 967.69 C-67.16 978.09 -67.16 978.09 -71.49 981.22 C-75.53 984.24 -75.85 986.89 -76.6 991.72 C-77.33 999.27 -77.22 1006.84 -77.2 1014.41 C-77.2 1016.25 -77.21 1018.09 -77.21 1019.93 C-77.21 1023.76 -77.21 1027.6 -77.2 1031.43 C-77.19 1036.35 -77.19 1041.27 -77.21 1046.19 C-77.21 1049.98 -77.21 1053.77 -77.21 1057.56 C-77.2 1059.37 -77.21 1061.19 -77.21 1063 C-77.22 1065.53 -77.21 1068.05 -77.2 1070.58 C-77.2 1071.33 -77.2 1072.08 -77.21 1072.86 C-77.31 1077.01 -77.31 1077.01 -74.94 1080.25 C-72.27 1080.56 -72.27 1080.56 -69.09 1080.5 C-67.22 1080.51 -67.22 1080.51 -65.32 1080.52 C-63.93 1080.52 -62.54 1080.51 -61.16 1080.51 C-59.7 1080.51 -58.25 1080.52 -56.79 1080.52 C-52.83 1080.53 -48.87 1080.52 -44.92 1080.52 C-40.78 1080.51 -36.64 1080.52 -32.51 1080.52 C-25.56 1080.53 -18.61 1080.52 -11.66 1080.51 C-3.62 1080.5 4.42 1080.5 12.46 1080.51 C19.35 1080.52 26.24 1080.52 33.14 1080.52 C37.26 1080.52 41.38 1080.52 45.5 1080.52 C49.38 1080.53 53.25 1080.52 57.13 1080.51 C58.55 1080.51 59.97 1080.51 61.4 1080.52 C63.34 1080.52 65.28 1080.51 67.22 1080.5 C68.3 1080.5 69.39 1080.5 70.51 1080.5 C73.23 1080.51 73.23 1080.51 75.06 1078.25 C75.27 1075.65 75.35 1073.15 75.34 1070.55 C75.34 1069.75 75.35 1068.96 75.35 1068.14 C75.37 1065.5 75.37 1062.86 75.36 1060.21 C75.37 1058.38 75.37 1056.54 75.38 1054.71 C75.38 1050.85 75.38 1046.99 75.38 1043.13 C75.37 1038.2 75.39 1033.28 75.41 1028.35 C75.43 1024.55 75.43 1020.76 75.43 1016.96 C75.43 1015.14 75.43 1013.33 75.44 1011.51 C75.61 995.3 75.61 995.3 68.06 981.25 C66.83 978.36 65.92 975.38 65 972.38 C62.68 962.63 62.68 962.63 57.2 955.01 C56.53 954.8 55.87 954.59 55.19 954.38 C52.54 953.31 51.32 952.72 49.93 950.18 C49.45 949.01 49.45 949.01 48.96 947.81 C47.48 944.99 46.64 943.55 43.79 942.07 C41.08 941.27 38.4 940.66 35.62 940.12 C28.64 938.72 24.65 937.63 20.32 931.8 C17.91 928.82 15.05 928.9 11.46 928.46 C-5.83 926.73 -5.83 926.73 -21.11 933.17 Z " fill="#000000" transform="translate(640.9375,35.75)"/>
<path d="M0 0 C0.89 -0.01 1.78 -0.02 2.7 -0.04 C11.22 -0.06 20.11 0.32 26.75 6.19 C28.03 8.14 29.17 10.15 30.33 12.18 C31.94 14.46 33.56 15.64 35.88 17.19 C41.05 20.78 42.05 24.87 43.3 30.8 C44.83 42.4 46.02 58.63 40.12 69.06 C37.51 71.4 34.78 72.97 31.76 74.73 C29.5 76.37 28.29 78.01 26.75 80.31 C23.16 85.49 19.07 86.48 13.14 87.74 C1.54 89.27 -14.69 90.46 -25.12 84.56 C-27.46 81.95 -29.04 79.22 -30.79 76.2 C-32.43 73.94 -34.07 72.73 -36.38 71.19 C-41.55 67.6 -42.54 63.51 -43.8 57.58 C-44.4 53.02 -44.43 48.53 -44.44 43.94 C-44.45 43.05 -44.46 42.16 -44.47 41.24 C-44.49 32.72 -44.12 23.83 -38.25 17.19 C-36.29 15.91 -34.29 14.76 -32.26 13.61 C-29.98 12 -28.79 10.37 -27.25 8.06 C-23.66 2.89 -19.57 1.89 -13.64 0.63 C-9.08 0.03 -4.59 0 0 0 Z " fill="#000000" transform="translate(640.25,515.8125)"/>
</svg>
