<?xml version="1.0" encoding="UTF-8"?>
<svg version="1.1" xmlns="http://www.w3.org/2000/svg" width="96" height="96">
<path d="M0 0 C3.28622154 1.98586721 5.95839823 4.36856665 8.4375 7.3125 C8.4375 7.9725 8.4375 8.6325 8.4375 9.3125 C9.0975 9.3125 9.7575 9.3125 10.4375 9.3125 C10.68628906 8.71824219 10.93507812 8.12398437 11.19140625 7.51171875 C12.61815713 4.99365999 14.04177079 3.81517908 16.375 2.125 C17.06464844 1.61582031 17.75429688 1.10664063 18.46484375 0.58203125 C24.05052936 -3.01271692 31.06803866 -2.17582537 37.4375 -1.6875 C44.19318577 0.00142144 48.45919292 4.82441988 52.4375 10.3125 C54.68977449 14.3274241 54.61637887 17.75108893 54.4375 22.3125 C52.4575 22.3125 50.4775 22.3125 48.4375 22.3125 C48.21835938 21.64863281 47.99921875 20.98476563 47.7734375 20.30078125 C45.62130773 14.30806218 43.81382145 10.8187966 38.4375 7.3125 C37.7775 7.3125 37.1175 7.3125 36.4375 7.3125 C36.78683594 7.89257812 37.13617188 8.47265625 37.49609375 9.0703125 C40.06779891 13.48519444 42.03745505 17.11191563 42.4375 22.3125 C34.65732814 20.19063495 31.99667492 15.87406487 28 9.23828125 C26.20946212 7.03144332 25.20733885 6.66469934 22.4375 6.3125 C22.870625 6.92738281 23.30375 7.54226563 23.75 8.17578125 C24.306875 8.98402344 24.86375 9.79226562 25.4375 10.625 C25.994375 11.42550781 26.55125 12.22601563 27.125 13.05078125 C28.4375 15.3125 28.4375 15.3125 28.4375 18.3125 C25.1875 18.625 25.1875 18.625 21.4375 18.3125 C19.125 15.875 19.125 15.875 17.4375 13.3125 C16.7775 12.9825 16.1175 12.6525 15.4375 12.3125 C14.7775 16.2725 14.1175 20.2325 13.4375 24.3125 C14.71625 23.6525 15.995 22.9925 17.3125 22.3125 C23.76525994 19.46599208 29.90788764 19.27194447 36.625 21.4375 C43.09998974 24.24986928 47.86573069 28.62959672 50.71484375 35.1171875 C53.34276766 43.1003942 52.35657625 49.56128058 49.4375 57.3125 C46.52232708 56.23848892 44.65939824 55.53439824 42.4375 53.3125 C42.788125 52.508125 43.13875 51.70375 43.5 50.875 C44.71073556 46.27420488 44.14762773 42.99934301 43.4375 38.3125 C41.4575 42.2725 39.4775 46.2325 37.4375 50.3125 C35.7875 49.6525 34.1375 48.9925 32.4375 48.3125 C32.4375 44.7400428 32.80725749 42.69062148 33.875 39.375 C34.9432128 36.03618994 35.80200323 32.76145819 36.4375 29.3125 C34.7875 28.9825 33.1375 28.6525 31.4375 28.3125 C31.40011719 29.03695312 31.36273438 29.76140625 31.32421875 30.5078125 C30.93889002 36.17441152 30.452964 40.46153618 27.4375 45.3125 C25.4575 44.3225 23.4775 43.3325 21.4375 42.3125 C21.7675 41.11625 22.0975 39.92 22.4375 38.6875 C23.33015823 35.15458503 23.62046045 31.97170891 23.4375 28.3125 C22.509375 28.786875 21.58125 29.26125 20.625 29.75 C17.4375 31.3125 17.4375 31.3125 14.4375 32.3125 C13.54339696 34.46709015 13.54339696 34.46709015 13 37.125 C9.26385448 51.95462374 4.04295844 64.05772778 -6.5625 75.3125 C-2.2725 75.6425 2.0175 75.9725 6.4375 76.3125 C6.375625 75.095625 6.31375 73.87875 6.25 72.625 C6.27921589 67.09345889 8.30836768 64.58277386 11.9375 60.5 C15.61340097 57.57954735 19.34549935 57.72742419 23.88671875 57.9609375 C29.08397416 58.67725142 32.23761929 61.44717887 35.5 65.484375 C37.29905883 68.99253971 36.72920003 72.46205963 36.4375 76.3125 C41.3875 76.3125 46.3375 76.3125 51.4375 76.3125 C51.4375 78.2925 51.4375 80.2725 51.4375 82.3125 C23.7175 82.3125 -4.0025 82.3125 -32.5625 82.3125 C-32.5625 80.3325 -32.5625 78.3525 -32.5625 76.3125 C-31.6446875 76.32152344 -30.726875 76.33054687 -29.78125 76.33984375 C-22.53367302 76.16474473 -17.49258717 75.90536449 -12.36328125 70.5234375 C-11.76902344 69.79382813 -11.17476562 69.06421875 -10.5625 68.3125 C-9.53189453 67.06339844 -9.53189453 67.06339844 -8.48046875 65.7890625 C-1.34369039 56.54700072 2.85885445 46.9950505 4.9375 35.5625 C4.60634886 32.97766413 4.60634886 32.97766413 1.6875 31.0625 C-0.92629146 29.65507383 -2.74207074 28.9256368 -5.5625 28.3125 C-5.33433594 29.06015625 -5.10617188 29.8078125 -4.87109375 30.578125 C-4.58363281 31.56296875 -4.29617187 32.5478125 -4 33.5625 C-3.70996094 34.53703125 -3.41992188 35.5115625 -3.12109375 36.515625 C-2.56592783 39.29533689 -2.43658389 40.73227559 -3.5625 43.3125 C-6.125 44.5625 -6.125 44.5625 -8.5625 45.3125 C-10.95998106 39.57939311 -12.14661954 34.50768473 -12.5625 28.3125 C-14.2125 28.6425 -15.8625 28.9725 -17.5625 29.3125 C-17.17835937 30.42109375 -16.79421875 31.5296875 -16.3984375 32.671875 C-15.91067701 34.13515646 -15.42374072 35.59871283 -14.9375 37.0625 C-14.68226562 37.79210938 -14.42703125 38.52171875 -14.1640625 39.2734375 C-12.40193325 44.65772131 -12.40193325 44.65772131 -13.1640625 47.765625 C-14.87089317 49.65362764 -16.07192315 49.98042309 -18.5625 50.3125 C-19.2134259 49.06514433 -19.85801669 47.81448168 -20.5 46.5625 C-20.85964844 45.86640625 -21.21929687 45.1703125 -21.58984375 44.453125 C-22.51808182 42.41025567 -23.09416578 40.50134624 -23.5625 38.3125 C-25.55187234 42.342821 -25.63417896 44.75975815 -24.6875 49.125 C-24.48382813 50.10082031 -24.28015625 51.07664063 -24.0703125 52.08203125 C-23.90273438 52.81808594 -23.73515625 53.55414063 -23.5625 54.3125 C-25.5425 55.3025 -27.5225 56.2925 -29.5625 57.3125 C-33.5634659 51.47775806 -33.40117321 45.17510482 -32.5625 38.3125 C-30.3567316 30.84760788 -26.27459922 26.12892222 -19.5625 22.3125 C-13.7601215 19.53744941 -7.01744458 19.13873744 -0.91796875 21.2109375 C1.23643686 22.16769715 3.34275655 23.23134209 5.4375 24.3125 C4.7775 20.3525 4.1175 16.3925 3.4375 12.3125 C-0.26079433 15.82948763 -0.26079433 15.82948763 -1.9375 18.125 C-3.5625 19.3125 -3.5625 19.3125 -6.75 19 C-7.678125 18.773125 -8.60625 18.54625 -9.5625 18.3125 C-8.24389111 13.69736888 -6.34894563 10.21352388 -3.5625 6.3125 C-7.61560504 8.41872895 -9.60383557 10.45105516 -12 14.3125 C-14.70554898 18.35900885 -16.73027456 20.85159463 -21.5625 22.3125 C-22.2225 21.9825 -22.8825 21.6525 -23.5625 21.3125 C-19.52377563 10.75441344 -19.52377563 10.75441344 -16.5625 6.3125 C-21.90566933 8.61977766 -25.11968437 10.98102013 -27.47265625 16.4140625 C-28.21336605 18.36402412 -28.89284243 20.33701017 -29.5625 22.3125 C-31.5425 22.3125 -33.5225 22.3125 -35.5625 22.3125 C-36.05908622 16.3534653 -35.03004741 12.23854228 -31.5625 7.3125 C-23.30876638 -1.4754001 -11.61035948 -5.47282212 0 0 Z M15.4375 67.3125 C13.48414818 69.65040071 13.48414818 69.65040071 12.4375 72.3125 C12.7675 73.6325 13.0975 74.9525 13.4375 76.3125 C18.7175 76.3125 23.9975 76.3125 29.4375 76.3125 C30.826867 72.48921315 30.826867 72.48921315 29.3125 69.75 C27.25037148 67.06923292 25.46257742 65.78625567 22.4375 64.3125 C19.42446306 64.3125 17.87206651 65.59048954 15.4375 67.3125 Z " fill="#000000" transform="translate(38.5625,7.6875)"/>
</svg>
