<?xml version="1.0" encoding="UTF-8"?>
<!-- Generator: visioncortex VTracer 0.6.3 -->
<svg version="1.1" xmlns="http://www.w3.org/2000/svg" width="1280" height="1280">
<path d="M0 0 C1.45 1.27 1.45 1.27 3.32 4.27 C5.71 7.65 6.67 7.93 10.45 9.21 C14.16 10.51 16.09 11.44 18.07 14.9 C19.45 18.27 19.45 18.27 19.45 20.27 C20.33 20.52 21.22 20.77 22.13 21.02 C25.7 22.37 27.76 23.58 30.45 26.27 C30.88 27.43 31.31 28.58 31.76 29.77 C33.56 33.52 33.78 33.72 37.32 35.21 C42.15 37.25 44.33 40.56 46.45 45.27 C46.45 45.93 46.45 46.59 46.45 47.27 C47.5 47.48 48.55 47.69 49.63 47.9 C54.16 49.19 55.86 51.39 58.45 55.27 C59.26 58.15 59.26 58.15 59.45 60.27 C60.33 60.52 61.22 60.77 62.13 61.02 C65.7 62.37 67.76 63.58 70.45 66.27 C70.88 67.43 71.31 68.58 71.76 69.77 C73.56 73.52 73.78 73.72 77.32 75.21 C82.15 77.25 84.33 80.56 86.45 85.27 C86.45 85.93 86.45 86.59 86.45 87.27 C87.5 87.48 88.55 87.69 89.63 87.9 C94.16 89.19 95.86 91.39 98.45 95.27 C99.26 98.15 99.26 98.15 99.45 100.27 C100.33 100.52 101.22 100.77 102.13 101.02 C105.7 102.37 107.76 103.58 110.45 106.27 C110.88 107.43 111.31 108.58 111.76 109.77 C113.56 113.52 113.78 113.72 117.32 115.21 C122.15 117.25 124.33 120.56 126.45 125.27 C126.45 125.93 126.45 126.59 126.45 127.27 C127.5 127.48 128.55 127.69 129.63 127.9 C134.16 129.19 135.86 131.39 138.45 135.27 C139.26 138.15 139.26 138.15 139.45 140.27 C140.33 140.52 141.22 140.77 142.13 141.02 C145.7 142.37 147.76 143.58 150.45 146.27 C150.88 147.43 151.31 148.58 151.76 149.77 C153.56 153.52 153.78 153.72 157.32 155.21 C162.15 157.25 164.33 160.56 166.45 165.27 C166.45 165.93 166.45 166.59 166.45 167.27 C167.5 167.48 168.55 167.69 169.63 167.9 C174.16 169.19 175.86 171.39 178.45 175.27 C179.26 178.15 179.26 178.15 179.45 180.27 C180.33 180.52 181.22 180.77 182.13 181.02 C185.7 182.37 187.76 183.58 190.45 186.27 C190.88 187.43 191.31 188.58 191.76 189.77 C193.56 193.52 193.78 193.72 197.32 195.21 C202.15 197.25 204.33 200.56 206.45 205.27 C206.45 205.93 206.45 206.59 206.45 207.27 C207.5 207.48 208.55 207.69 209.63 207.9 C214.16 209.19 215.86 211.39 218.45 215.27 C218.78 216.92 219.11 218.57 219.45 220.27 C224.07 220.27 228.69 220.27 233.45 220.27 C233.65 219.22 233.86 218.17 234.07 217.09 C235.37 212.56 237.56 210.86 241.45 208.27 C244.32 207.46 244.32 207.46 246.45 207.27 C246.69 206.39 246.94 205.5 247.2 204.59 C248.54 201.02 249.76 198.96 252.45 196.27 C254.18 195.62 254.18 195.62 255.95 194.96 C259.69 193.16 259.9 192.93 261.38 189.4 C263.43 184.56 266.74 182.39 271.45 180.27 C272.11 180.27 272.77 180.27 273.45 180.27 C273.65 179.22 273.86 178.17 274.07 177.09 C275.37 172.56 277.56 170.86 281.45 168.27 C284.32 167.46 284.32 167.46 286.45 167.27 C286.69 166.39 286.94 165.5 287.2 164.59 C288.54 161.02 289.76 158.96 292.45 156.27 C294.18 155.62 294.18 155.62 295.95 154.96 C299.69 153.16 299.9 152.93 301.38 149.4 C303.43 144.56 306.74 142.39 311.45 140.27 C312.11 140.27 312.77 140.27 313.45 140.27 C313.65 139.22 313.86 138.17 314.07 137.09 C315.37 132.56 317.56 130.86 321.45 128.27 C324.32 127.46 324.32 127.46 326.45 127.27 C326.69 126.39 326.94 125.5 327.2 124.59 C328.54 121.02 329.76 118.96 332.45 116.27 C333.6 115.84 334.76 115.41 335.95 114.96 C339.69 113.16 339.9 112.93 341.38 109.4 C343.43 104.56 346.74 102.39 351.45 100.27 C352.11 100.27 352.77 100.27 353.45 100.27 C353.65 99.22 353.86 98.17 354.07 97.09 C355.37 92.56 357.56 90.86 361.45 88.27 C364.32 87.46 364.32 87.46 366.45 87.27 C366.69 86.39 366.94 85.5 367.2 84.59 C368.54 81.02 369.76 78.96 372.45 76.27 C373.6 75.84 374.76 75.41 375.95 74.96 C379.69 73.16 379.9 72.93 381.38 69.4 C383.43 64.56 386.74 62.39 391.45 60.27 C392.11 60.27 392.77 60.27 393.45 60.27 C393.65 59.22 393.86 58.17 394.07 57.09 C395.37 52.56 397.56 50.86 401.45 48.27 C404.32 47.46 404.32 47.46 406.45 47.27 C406.69 46.39 406.94 45.5 407.2 44.59 C408.54 41.02 409.76 38.96 412.45 36.27 C414.18 35.62 414.18 35.62 415.95 34.96 C419.69 33.16 419.9 32.93 421.38 29.4 C423.43 24.56 426.74 22.39 431.45 20.27 C432.11 20.27 432.77 20.27 433.45 20.27 C433.65 19.22 433.86 18.17 434.07 17.09 C435.32 12.72 437.72 10.85 441.45 8.27 C442.46 7.78 443.47 7.28 444.51 6.77 C447.59 5.39 447.59 5.39 450.01 2.71 C455.62 -2.9 463.39 -2.72 470.95 -2.91 C478.32 -2.8 484.65 -1.54 490.45 3.27 C491.11 4.61 491.78 5.94 492.45 7.27 C494.63 8.3 494.63 8.3 497.45 9.27 C503.62 11.99 506.94 14.44 510.14 20.37 C511.66 22.59 513.04 23.43 515.38 24.71 C519.67 27.07 521.39 30.03 523.88 34.14 C526.01 37.04 528.47 38.27 531.57 39.96 C534.35 41.91 535.49 44.45 537.1 47.37 C538.66 49.58 540.09 50.47 542.45 51.77 C545.67 53.56 547.16 55.05 548.95 58.27 C550.72 61.48 552.17 62.96 555.38 64.71 C559.67 67.07 561.39 70.03 563.88 74.14 C566.01 77.04 568.47 78.27 571.57 79.96 C574.35 81.91 575.49 84.45 577.1 87.37 C578.66 89.58 580.09 90.47 582.45 91.77 C585.67 93.56 587.16 95.05 588.95 98.27 C590.72 101.48 592.17 102.96 595.38 104.71 C599.67 107.08 601.39 110.03 603.88 114.16 C605.58 116.46 606.93 117.34 609.45 118.65 C614.84 121.59 617.11 126.78 619.45 132.27 C619.45 132.93 619.45 133.59 619.45 134.27 C620.02 134.48 620.6 134.69 621.2 134.9 C625.5 137.53 627.14 141.36 628.7 146.02 C629.72 150.78 629.68 155.43 629.45 160.27 C629.42 161.07 629.39 161.87 629.36 162.7 C629 167.92 627.89 171.15 624.45 175.27 C623.62 175.85 622.8 176.43 621.95 177.02 C619.2 179.49 618.74 180.85 617.57 184.27 C616.24 187.97 615.26 189.92 611.82 191.9 C608.45 193.27 608.45 193.27 606.45 193.27 C606.2 194.16 605.95 195.05 605.7 195.96 C604.35 199.52 603.13 201.58 600.45 204.27 C598.71 204.92 598.71 204.92 596.95 205.59 C593.2 207.39 592.99 207.61 591.51 211.15 C589.47 215.98 586.15 218.15 581.45 220.27 C580.79 220.27 580.13 220.27 579.45 220.27 C579.24 221.33 579.03 222.38 578.82 223.46 C577.53 227.99 575.33 229.69 571.45 232.27 C568.57 233.09 568.57 233.09 566.45 233.27 C566.2 234.16 565.95 235.05 565.7 235.96 C564.35 239.52 563.13 241.58 560.45 244.27 C558.71 244.92 558.71 244.92 556.95 245.59 C553.2 247.39 552.99 247.61 551.51 251.15 C549.47 255.98 546.15 258.15 541.45 260.27 C540.79 260.27 540.13 260.27 539.45 260.27 C539.24 261.33 539.03 262.38 538.82 263.46 C537.53 267.99 535.33 269.69 531.45 272.27 C528.57 273.09 528.57 273.09 526.45 273.27 C526.2 274.16 525.95 275.05 525.7 275.96 C524.35 279.52 523.13 281.58 520.45 284.27 C519.29 284.71 518.14 285.14 516.95 285.59 C513.2 287.39 512.99 287.61 511.51 291.15 C509.47 295.98 506.15 298.15 501.45 300.27 C500.79 300.27 500.13 300.27 499.45 300.27 C499.24 301.33 499.03 302.38 498.82 303.46 C497.53 307.99 495.33 309.69 491.45 312.27 C488.57 313.09 488.57 313.09 486.45 313.27 C486.2 314.16 485.95 315.05 485.7 315.96 C484.35 319.52 483.13 321.58 480.45 324.27 C479.29 324.71 478.14 325.14 476.95 325.59 C473.2 327.39 472.99 327.61 471.51 331.15 C469.47 335.98 466.15 338.15 461.45 340.27 C460.79 340.27 460.13 340.27 459.45 340.27 C459.24 341.33 459.03 342.38 458.82 343.46 C457.53 347.99 455.33 349.69 451.45 352.27 C448.57 353.09 448.57 353.09 446.45 353.27 C446.2 354.16 445.95 355.05 445.7 355.96 C444.35 359.52 443.13 361.58 440.45 364.27 C439.29 364.71 438.14 365.14 436.95 365.59 C433.2 367.39 432.99 367.61 431.51 371.15 C429.47 375.98 426.15 378.15 421.45 380.27 C420.79 380.27 420.13 380.27 419.45 380.27 C419.24 381.33 419.03 382.38 418.82 383.46 C417.53 387.99 415.33 389.69 411.45 392.27 C409.8 392.6 408.15 392.93 406.45 393.27 C406.45 397.89 406.45 402.51 406.45 407.27 C408.02 407.58 408.02 407.58 409.63 407.9 C414.16 409.19 415.86 411.39 418.45 415.27 C419.26 418.15 419.26 418.15 419.45 420.27 C420.33 420.52 421.22 420.77 422.13 421.02 C425.7 422.37 427.76 423.58 430.45 426.27 C430.88 427.43 431.31 428.58 431.76 429.77 C433.56 433.52 433.78 433.72 437.32 435.21 C442.15 437.25 444.33 440.56 446.45 445.27 C446.45 445.93 446.45 446.59 446.45 447.27 C448.02 447.58 448.02 447.58 449.63 447.9 C454.16 449.19 455.86 451.39 458.45 455.27 C459.26 458.15 459.26 458.15 459.45 460.27 C460.33 460.52 461.22 460.77 462.13 461.02 C465.7 462.37 467.76 463.58 470.45 466.27 C470.88 467.43 471.31 468.58 471.76 469.77 C473.56 473.52 473.78 473.72 477.32 475.21 C482.15 477.25 484.33 480.56 486.45 485.27 C486.45 485.93 486.45 486.59 486.45 487.27 C488.02 487.58 488.02 487.58 489.63 487.9 C494.16 489.19 495.86 491.39 498.45 495.27 C499.26 498.15 499.26 498.15 499.45 500.27 C500.33 500.52 501.22 500.77 502.13 501.02 C505.7 502.37 507.76 503.58 510.45 506.27 C510.88 507.43 511.31 508.58 511.76 509.77 C513.56 513.52 513.78 513.72 517.32 515.21 C522.15 517.25 524.33 520.56 526.45 525.27 C526.45 525.93 526.45 526.59 526.45 527.27 C527.5 527.48 528.55 527.69 529.63 527.9 C534.16 529.19 535.86 531.39 538.45 535.27 C539.26 538.15 539.26 538.15 539.45 540.27 C540.33 540.52 541.22 540.77 542.13 541.02 C545.7 542.37 547.76 543.58 550.45 546.27 C550.88 547.43 551.31 548.58 551.76 549.77 C553.56 553.52 553.78 553.72 557.32 555.21 C562.15 557.25 564.33 560.56 566.45 565.27 C566.45 565.93 566.45 566.59 566.45 567.27 C567.5 567.48 568.55 567.69 569.63 567.9 C574.16 569.19 575.86 571.39 578.45 575.27 C579.26 578.15 579.26 578.15 579.45 580.27 C580.33 580.52 581.22 580.77 582.13 581.02 C585.7 582.37 587.76 583.58 590.45 586.27 C590.88 587.43 591.31 588.58 591.76 589.77 C593.56 593.52 593.78 593.72 597.32 595.21 C602.15 597.25 604.33 600.56 606.45 605.27 C606.45 605.93 606.45 606.59 606.45 607.27 C607.5 607.48 608.55 607.69 609.63 607.9 C614 609.15 615.87 611.55 618.45 615.27 C618.94 616.28 619.44 617.29 619.95 618.34 C621.33 621.42 621.33 621.42 624.01 623.84 C629.72 629.55 629.43 637.54 629.7 645.21 C629.58 653.51 627.43 660.44 621.45 666.27 C620.79 666.27 620.13 666.27 619.45 666.27 C619.22 666.91 618.99 667.55 618.76 668.21 C615.68 675.39 613.43 680.13 606.42 683.9 C604.03 685.57 602.95 687.29 601.45 689.77 C598.92 693.94 596.53 695.66 592.32 697.96 C589.54 699.91 588.4 702.45 586.79 705.37 C584.82 708.16 582.29 709.31 579.35 710.93 C577.14 712.49 576.25 713.92 574.95 716.27 C573.17 719.48 571.72 720.96 568.51 722.71 C565.07 724.6 563.47 726.42 561.45 729.77 C558.92 733.94 556.53 735.66 552.32 737.96 C549.54 739.91 548.4 742.45 546.79 745.37 C544.82 748.16 542.29 749.31 539.35 750.93 C536.57 752.89 535.42 755.42 533.8 758.36 C531.81 761.18 529.27 762.46 526.21 763.97 C523.3 766.12 522.66 769.22 521.97 772.67 C520.96 782.76 522.22 792.62 523.32 802.65 C523.51 804.47 523.7 806.29 523.89 808.11 C524.92 818.23 524.92 818.23 526.45 828.27 C527.11 828.27 527.77 828.27 528.45 828.27 C535.52 836.72 535.9 847.98 536.45 858.52 C536.98 876.56 536.98 876.56 544.45 892.27 C547.69 898.32 548.3 904.26 549.01 911.02 C549.13 912.12 549.26 913.22 549.38 914.35 C549.96 919.55 550.5 924.75 551.01 929.96 C551.09 930.82 551.18 931.68 551.27 932.57 C551.42 934.16 551.57 935.75 551.71 937.35 C552.21 942.56 552.93 946.51 556.38 950.52 C563.5 960.02 563.23 974.11 563.78 985.56 C564.33 996.65 565.55 1005.44 572.45 1014.27 C574.04 1018.33 574.8 1022.1 575.23 1026.42 C575.35 1027.59 575.46 1028.75 575.59 1029.95 C575.7 1031.17 575.82 1032.39 575.95 1033.65 C576.21 1036.17 576.47 1038.69 576.73 1041.21 C577.06 1044.49 577.4 1047.78 577.73 1051.06 C577.95 1053.28 578.2 1055.5 578.45 1057.71 C578.63 1059.47 578.63 1059.47 578.82 1061.27 C579.49 1064.5 580.59 1066.56 582.45 1069.27 C582.88 1070 583.31 1070.72 583.76 1071.46 C586.86 1074.8 590.73 1075.23 595.15 1075.52 C596.56 1075.53 597.97 1075.53 599.38 1075.52 C600.16 1075.53 600.94 1075.53 601.74 1075.53 C604.35 1075.54 606.96 1075.54 609.56 1075.53 C611.44 1075.53 613.31 1075.54 615.18 1075.54 C619.21 1075.55 623.24 1075.55 627.27 1075.55 C633.64 1075.54 640.01 1075.56 646.38 1075.58 C664.49 1075.62 682.61 1075.65 700.72 1075.65 C710.73 1075.66 720.73 1075.68 730.74 1075.71 C737.07 1075.73 743.4 1075.73 749.74 1075.72 C753.68 1075.72 757.61 1075.73 761.55 1075.75 C763.38 1075.76 765.21 1075.76 767.03 1075.75 C769.53 1075.74 772.02 1075.75 774.51 1075.77 C775.23 1075.76 775.96 1075.75 776.7 1075.74 C781.72 1075.82 784.56 1077.15 788.45 1080.27 C790.98 1083.66 790.71 1087.11 790.74 1091.24 C790.75 1092.28 790.75 1092.28 790.76 1093.34 C790.78 1095.63 790.78 1097.92 790.78 1100.2 C790.79 1101.8 790.79 1103.39 790.8 1104.99 C790.81 1108.33 790.82 1111.67 790.82 1115.01 C790.82 1119.28 790.84 1123.55 790.88 1127.82 C790.9 1131.12 790.9 1134.41 790.9 1137.7 C790.91 1139.28 790.91 1140.85 790.93 1142.43 C790.95 1144.63 790.94 1146.84 790.93 1149.05 C790.93 1150.3 790.94 1151.55 790.94 1152.85 C790.35 1156.96 789.09 1159.09 786.45 1162.27 C782.83 1164.78 779.06 1164.55 774.83 1164.53 C774.05 1164.53 773.27 1164.53 772.47 1164.54 C769.85 1164.54 767.23 1164.54 764.6 1164.53 C762.7 1164.53 760.8 1164.54 758.91 1164.54 C753.65 1164.55 748.4 1164.55 743.14 1164.54 C737.44 1164.54 731.73 1164.55 726.03 1164.55 C716.02 1164.56 706.02 1164.57 696.01 1164.57 C685.27 1164.56 674.53 1164.57 663.78 1164.57 C663.11 1164.57 662.43 1164.57 661.73 1164.57 C658.97 1164.58 656.21 1164.58 653.45 1164.58 C624.63 1164.6 595.82 1164.61 567 1164.61 C563.9 1164.61 560.8 1164.61 557.69 1164.61 C556.92 1164.61 556.15 1164.61 555.36 1164.61 C538.31 1164.61 521.25 1164.61 504.2 1164.62 C497.18 1164.62 490.17 1164.62 483.15 1164.62 C481.99 1164.62 481.99 1164.62 480.8 1164.62 C436.35 1164.64 391.91 1164.65 347.47 1164.64 C345.8 1164.64 344.14 1164.64 342.48 1164.64 C334.96 1164.64 327.45 1164.64 319.94 1164.64 C316.59 1164.64 313.24 1164.64 309.89 1164.64 C308.21 1164.64 306.54 1164.64 304.86 1164.64 C251.83 1164.64 198.8 1164.66 145.78 1164.69 C132.41 1164.69 119.05 1164.7 105.69 1164.71 C104.87 1164.71 104.05 1164.71 103.2 1164.71 C77.85 1164.72 52.5 1164.73 27.16 1164.73 C25.96 1164.73 25.96 1164.73 24.75 1164.73 C7.29 1164.73 -10.18 1164.73 -27.64 1164.73 C-33.89 1164.73 -40.13 1164.73 -46.38 1164.73 C-47.94 1164.73 -49.49 1164.73 -51.04 1164.73 C-75.83 1164.73 -100.62 1164.74 -125.41 1164.76 C-150.37 1164.78 -175.33 1164.78 -200.29 1164.77 C-203.74 1164.77 -207.18 1164.76 -210.63 1164.76 C-211.31 1164.76 -211.98 1164.76 -212.68 1164.76 C-224.04 1164.76 -235.41 1164.77 -246.77 1164.78 C-256.65 1164.79 -266.52 1164.79 -276.39 1164.78 C-282.03 1164.77 -287.66 1164.77 -293.29 1164.78 C-298.41 1164.8 -303.53 1164.8 -308.65 1164.78 C-310.5 1164.77 -312.34 1164.78 -314.19 1164.79 C-316.69 1164.8 -319.19 1164.79 -321.68 1164.77 C-322.4 1164.78 -323.12 1164.79 -323.86 1164.8 C-328.86 1164.73 -331.68 1163.38 -335.55 1160.27 C-338.09 1156.88 -337.82 1153.44 -337.85 1149.31 C-337.85 1148.61 -337.86 1147.92 -337.87 1147.2 C-337.88 1144.92 -337.89 1142.63 -337.89 1140.34 C-337.9 1138.75 -337.9 1137.16 -337.91 1135.56 C-337.92 1132.22 -337.93 1128.88 -337.93 1125.54 C-337.93 1121.27 -337.95 1116.99 -337.99 1112.72 C-338.01 1109.43 -338.01 1106.14 -338.01 1102.84 C-338.01 1101.27 -338.02 1099.69 -338.04 1098.12 C-338.06 1095.91 -338.05 1093.71 -338.04 1091.5 C-338.04 1090.25 -338.05 1088.99 -338.05 1087.7 C-337.46 1083.58 -336.2 1081.46 -333.55 1078.27 C-329.93 1075.76 -326.12 1075.99 -321.87 1076.02 C-321.09 1076.01 -320.31 1076.01 -319.51 1076 C-316.9 1075.99 -314.29 1076 -311.68 1076 C-309.81 1076 -307.94 1075.99 -306.07 1075.99 C-302.03 1075.97 -298 1075.97 -293.97 1075.97 C-287.6 1075.97 -281.22 1075.95 -274.85 1075.93 C-259.01 1075.88 -243.18 1075.85 -227.34 1075.83 C-215.04 1075.81 -202.74 1075.79 -190.44 1075.74 C-184.1 1075.72 -177.77 1075.71 -171.43 1075.72 C-167.48 1075.71 -163.54 1075.7 -159.6 1075.68 C-157.77 1075.68 -155.94 1075.68 -154.11 1075.68 C-151.62 1075.69 -149.12 1075.68 -146.62 1075.66 C-145.9 1075.66 -145.18 1075.67 -144.44 1075.68 C-138.4 1075.6 -133.64 1074.31 -129.24 1070.02 C-125.89 1064.56 -125.23 1058.67 -124.84 1052.39 C-124.73 1050.88 -124.62 1049.36 -124.51 1047.85 C-124.34 1045.51 -124.18 1043.17 -124.03 1040.82 C-123.23 1028.8 -122.41 1016.74 -114.65 1006.97 C-109.68 999.24 -110.88 986.59 -110.43 977.79 C-109.81 967.57 -108.92 957.63 -102.55 949.27 C-99.99 944.81 -99 941.06 -98.43 935.96 C-98.35 935.27 -98.27 934.58 -98.19 933.87 C-97.63 928.8 -97.35 923.74 -97.12 918.65 C-96.62 908.65 -95.88 898.3 -89.74 890.02 C-83.82 881.29 -84.24 869 -83.68 858.9 C-82.21 836.47 -82.21 836.47 -74.73 827.22 C-70.34 819.92 -71.05 808.39 -70.49 800.09 C-70.34 797.86 -70.18 795.64 -70.02 793.42 C-69.95 792.37 -69.87 791.32 -69.8 790.24 C-69.58 787.6 -69.29 784.99 -68.95 782.37 C-68.53 778.74 -68.68 775.52 -69.3 771.9 C-69.46 770.9 -69.62 769.9 -69.79 768.88 C-70.61 766.07 -71.27 765.03 -73.55 763.27 C-75.23 762.44 -75.23 762.44 -76.93 761.59 C-79.98 759.93 -81.31 758.36 -82.99 755.34 C-84.8 752.1 -86.31 750.56 -89.55 748.77 C-92.76 747 -94.24 745.55 -95.99 742.34 C-97.89 738.9 -99.7 737.3 -103.05 735.27 C-107.22 732.75 -108.95 730.36 -111.25 726.14 C-113.19 723.37 -115.73 722.23 -118.65 720.62 C-121.44 718.65 -122.59 716.12 -124.21 713.18 C-125.77 710.97 -127.2 710.07 -129.55 708.77 C-132.76 707 -134.24 705.55 -135.99 702.34 C-137.89 698.9 -139.7 697.3 -143.05 695.27 C-147.23 692.75 -148.95 690.35 -151.25 686.13 C-152.78 683.95 -154.15 683.18 -156.49 681.96 C-161.91 678.98 -164.2 673.81 -166.55 668.27 C-166.55 667.61 -166.55 666.95 -166.55 666.27 C-167.15 666.01 -167.75 665.74 -168.37 665.46 C-171.51 663.75 -173.15 662.28 -174.5 658.92 C-176.93 649.62 -179 637.66 -174.93 628.52 C-173.31 625.86 -172.32 625.13 -169.55 623.4 C-166.18 621.01 -165.9 620.05 -164.62 616.27 C-163.32 612.56 -162.38 610.63 -158.93 608.65 C-155.55 607.27 -155.55 607.27 -153.55 607.27 C-153.31 606.39 -153.06 605.5 -152.8 604.59 C-151.46 601.02 -150.24 598.96 -147.55 596.27 C-146.4 595.84 -145.24 595.41 -144.05 594.96 C-140.31 593.16 -140.1 592.93 -138.62 589.4 C-136.57 584.56 -133.26 582.39 -128.55 580.27 C-127.89 580.27 -127.23 580.27 -126.55 580.27 C-126.35 579.22 -126.14 578.17 -125.93 577.09 C-124.63 572.56 -122.44 570.86 -118.55 568.27 C-115.68 567.46 -115.68 567.46 -113.55 567.27 C-113.31 566.39 -113.06 565.5 -112.8 564.59 C-111.46 561.02 -110.24 558.96 -107.55 556.27 C-106.4 555.84 -105.24 555.41 -104.05 554.96 C-100.31 553.16 -100.1 552.93 -98.62 549.4 C-96.57 544.56 -93.26 542.39 -88.55 540.27 C-87.89 540.27 -87.23 540.27 -86.55 540.27 C-86.35 539.22 -86.14 538.17 -85.93 537.09 C-84.63 532.56 -82.44 530.86 -78.55 528.27 C-75.68 527.46 -75.68 527.46 -73.55 527.27 C-73.31 526.39 -73.06 525.5 -72.8 524.59 C-71.46 521.02 -70.24 518.96 -67.55 516.27 C-66.4 515.84 -65.24 515.41 -64.05 514.96 C-60.31 513.16 -60.1 512.93 -58.62 509.4 C-56.57 504.56 -53.26 502.39 -48.55 500.27 C-47.89 500.27 -47.23 500.27 -46.55 500.27 C-46.25 498.7 -46.25 498.7 -45.93 497.09 C-44.63 492.56 -42.44 490.86 -38.55 488.27 C-35.68 487.46 -35.68 487.46 -33.55 487.27 C-33.31 486.39 -33.06 485.5 -32.8 484.59 C-31.46 481.02 -30.24 478.96 -27.55 476.27 C-26.4 475.84 -25.24 475.41 -24.05 474.96 C-20.31 473.16 -20.1 472.93 -18.62 469.4 C-16.57 464.56 -13.26 462.39 -8.55 460.27 C-7.89 460.27 -7.23 460.27 -6.55 460.27 C-6.25 458.7 -6.25 458.7 -5.93 457.09 C-4.63 452.56 -2.44 450.86 1.45 448.27 C4.32 447.46 4.32 447.46 6.45 447.27 C6.69 446.39 6.94 445.5 7.2 444.59 C8.54 441.02 9.76 438.96 12.45 436.27 C13.6 435.84 14.76 435.41 15.95 434.96 C19.69 433.16 19.9 432.93 21.38 429.4 C23.43 424.56 26.74 422.39 31.45 420.27 C32.11 420.27 32.77 420.27 33.45 420.27 C33.75 418.7 33.75 418.7 34.07 417.09 C35.37 412.56 37.56 410.86 41.45 408.27 C43.1 407.94 44.75 407.61 46.45 407.27 C46.45 402.65 46.45 398.03 46.45 393.27 C44.87 392.96 44.87 392.96 43.26 392.65 C38.73 391.35 37.03 389.15 34.45 385.27 C33.63 382.4 33.63 382.4 33.45 380.27 C32.56 380.03 31.67 379.78 30.76 379.52 C27.2 378.18 25.13 376.96 22.45 374.27 C22.01 373.12 21.58 371.96 21.13 370.77 C19.33 367.03 19.11 366.82 15.57 365.34 C10.74 363.29 8.57 359.98 6.45 355.27 C6.45 354.61 6.45 353.95 6.45 353.27 C4.87 352.96 4.87 352.96 3.26 352.65 C-1.27 351.35 -2.97 349.15 -5.55 345.27 C-6.37 342.4 -6.37 342.4 -6.55 340.27 C-7.44 340.03 -8.33 339.78 -9.24 339.52 C-12.8 338.18 -14.87 336.96 -17.55 334.27 C-17.99 333.12 -18.42 331.96 -18.87 330.77 C-20.67 327.03 -20.89 326.82 -24.43 325.34 C-29.26 323.29 -31.43 319.98 -33.55 315.27 C-33.55 314.61 -33.55 313.95 -33.55 313.27 C-35.13 312.96 -35.13 312.96 -36.74 312.65 C-41.27 311.35 -42.97 309.15 -45.55 305.27 C-46.37 302.4 -46.37 302.4 -46.55 300.27 C-47.44 300.03 -48.33 299.78 -49.24 299.52 C-52.8 298.18 -54.87 296.96 -57.55 294.27 C-57.99 293.12 -58.42 291.96 -58.87 290.77 C-60.67 287.03 -60.89 286.82 -64.43 285.34 C-69.26 283.29 -71.43 279.98 -73.55 275.27 C-73.55 274.61 -73.55 273.95 -73.55 273.27 C-75.13 272.96 -75.13 272.96 -76.74 272.65 C-81.27 271.35 -82.97 269.15 -85.55 265.27 C-86.37 262.4 -86.37 262.4 -86.55 260.27 C-87.88 259.9 -87.88 259.9 -89.24 259.52 C-92.8 258.18 -94.87 256.96 -97.55 254.27 C-97.99 253.12 -98.42 251.96 -98.87 250.77 C-100.67 247.03 -100.89 246.82 -104.43 245.34 C-109.26 243.29 -111.43 239.98 -113.55 235.27 C-113.55 234.61 -113.55 233.95 -113.55 233.27 C-114.61 233.07 -115.66 232.86 -116.74 232.65 C-121.27 231.35 -122.97 229.15 -125.55 225.27 C-126.37 222.4 -126.37 222.4 -126.55 220.27 C-127.88 219.9 -127.88 219.9 -129.24 219.52 C-132.8 218.18 -134.87 216.96 -137.55 214.27 C-137.99 213.12 -138.42 211.96 -138.87 210.77 C-140.67 207.03 -140.89 206.82 -144.43 205.34 C-149.26 203.29 -151.43 199.98 -153.55 195.27 C-153.55 194.61 -153.55 193.95 -153.55 193.27 C-154.61 193.07 -155.66 192.86 -156.74 192.65 C-161.11 191.4 -162.98 189 -165.55 185.27 C-166.05 184.26 -166.54 183.25 -167.05 182.21 C-168.44 179.12 -168.44 179.12 -171.12 176.71 C-175.84 171.98 -176.11 166.67 -176.55 160.27 C-176.61 159.56 -176.66 158.85 -176.72 158.11 C-176.99 151.26 -176.17 143.22 -172.31 137.4 C-170.99 136.02 -170.99 136.02 -168.55 134.27 C-167.89 134.27 -167.23 134.27 -166.55 134.27 C-166.21 133.31 -166.21 133.31 -165.87 132.34 C-162.78 125.13 -160.5 120.38 -153.46 116.58 C-151.24 115.06 -150.4 113.68 -149.12 111.34 C-146.75 107.05 -143.8 105.33 -139.68 102.84 C-136.79 100.71 -135.56 98.25 -133.86 95.14 C-131.92 92.37 -129.38 91.23 -126.46 89.62 C-124.25 88.06 -123.36 86.63 -122.05 84.27 C-120.27 81.05 -118.78 79.56 -115.55 77.77 C-112.35 76 -110.87 74.55 -109.12 71.34 C-106.75 67.05 -103.8 65.33 -99.68 62.84 C-96.79 60.71 -95.56 58.25 -93.86 55.14 C-91.92 52.37 -89.38 51.23 -86.46 49.62 C-84.25 48.06 -83.36 46.63 -82.05 44.27 C-80.27 41.05 -78.78 39.56 -75.55 37.77 C-72.35 36 -70.87 34.55 -69.12 31.34 C-66.75 27.05 -63.8 25.32 -59.67 22.84 C-57.37 21.14 -56.48 19.79 -55.18 17.27 C-52.24 11.88 -47.05 9.61 -41.55 7.27 C-40.89 7.27 -40.23 7.27 -39.55 7.27 C-39.29 6.68 -39.02 6.08 -38.74 5.46 C-37.04 2.32 -35.56 0.68 -32.2 -0.68 C-22.38 -3.24 -9.17 -5.6 0 0 Z M-20.55 111.27 C-22.58 113.67 -23.57 115.34 -24.43 118.4 C-25.55 121.27 -25.55 121.27 -27.87 122.46 C-28.75 122.73 -29.64 123 -30.55 123.27 C-35.59 125.61 -37.18 128.43 -39.55 133.27 C-39.55 133.93 -39.55 134.59 -39.55 135.27 C-40.65 135.54 -41.74 135.81 -42.87 136.09 C-47.81 137.68 -48.78 138.87 -51.24 143.34 C-52.69 146.04 -52.69 146.04 -52.55 148.27 C-53.46 148.52 -54.37 148.77 -55.3 149.02 C-58.66 150.31 -60.23 151.59 -62.55 154.27 C-60.2 159.82 -56.8 163.57 -52.68 167.84 C-52.07 168.48 -51.46 169.13 -50.82 169.79 C-47.45 173.34 -44.03 176.83 -40.55 180.27 C20.11 240.94 80.78 301.61 141.45 362.27 C142.13 362.92 142.82 363.56 143.53 364.22 C147.62 368.6 149.94 374.35 151.45 380.09 C152.66 383.95 154.51 385.56 157.45 388.27 C159.94 391.92 159.83 395.81 159.82 400.09 C159.82 401.16 159.82 401.16 159.82 402.26 C159.69 407.82 158.98 411.03 155.45 415.27 C154.46 415.93 153.47 416.59 152.45 417.27 C151.46 419.88 151.46 419.88 150.7 422.9 C148.78 429.06 146.04 432.84 141.45 437.27 C138.58 440.05 136.11 442.91 133.7 446.09 C130.52 450.12 127.19 453.42 123.25 456.7 C121.21 458.4 121.21 458.4 118.95 461.27 C116.31 464.43 113.47 466.9 110.35 469.55 C108.24 471.38 108.24 471.38 105.95 474.27 C103.88 476.75 101.95 478.64 99.51 480.71 C96.91 482.92 94.61 485.13 92.45 487.77 C89.7 491.11 86.6 493.8 83.32 496.59 C81.23 498.39 81.23 498.39 78.95 501.27 C76.31 504.43 73.47 506.9 70.35 509.55 C68.24 511.38 68.24 511.38 65.95 514.27 C63.88 516.75 61.95 518.64 59.51 520.71 C56.91 522.92 54.61 525.13 52.45 527.77 C49.7 531.11 46.6 533.8 43.32 536.59 C41.23 538.39 41.23 538.39 38.95 541.27 C36.31 544.43 33.47 546.9 30.35 549.55 C28.24 551.38 28.24 551.38 25.95 554.27 C23.88 556.75 21.95 558.64 19.51 560.71 C16.91 562.92 14.61 565.13 12.45 567.77 C9.7 571.11 6.6 573.8 3.32 576.59 C1.23 578.39 1.23 578.39 -1.05 581.27 C-3.69 584.43 -6.53 586.9 -9.65 589.55 C-11.76 591.38 -11.76 591.38 -14.05 594.27 C-16.12 596.75 -18.05 598.64 -20.49 600.71 C-23.09 602.92 -25.39 605.13 -27.55 607.77 C-30.3 611.11 -33.4 613.8 -36.68 616.59 C-38.77 618.39 -38.77 618.39 -41.05 621.27 C-43.08 623.7 -44.92 625.51 -47.3 627.52 C-53.86 633.14 -60.21 638.77 -62.55 647.27 C-60.16 649.3 -58.49 650.29 -55.43 651.15 C-52.55 652.27 -52.55 652.27 -51.37 654.59 C-51.1 655.47 -50.83 656.36 -50.55 657.27 C-48.39 661.81 -46.21 663.39 -41.55 665.27 C-40.89 665.27 -40.23 665.27 -39.55 665.27 C-39.29 666 -39.02 666.72 -38.74 667.46 C-36.06 673.82 -33.7 676.26 -27.55 679.27 C-26.89 679.27 -26.23 679.27 -25.55 679.27 C-25.18 680.63 -25.18 680.63 -24.8 682.02 C-23.51 685.38 -22.23 686.95 -19.55 689.27 C-14 686.92 -10.26 683.52 -5.99 679.4 C-5.35 678.79 -4.7 678.17 -4.03 677.54 C-0.49 674.17 3 670.75 6.45 667.27 C67.11 606.61 127.78 545.94 188.45 485.27 C189.09 484.59 189.73 483.9 190.39 483.19 C192.56 481.17 194.53 480 197.2 478.71 C198.07 478.29 198.95 477.86 199.85 477.43 C202.13 476.41 204.39 475.57 206.76 474.77 C210.53 473.55 210.53 473.55 212.76 470.71 C216.82 467.03 221.12 466.82 226.45 466.27 C227.56 466.15 227.56 466.15 228.69 466.02 C233.92 465.7 237.4 467.16 241.45 470.27 C242.19 471.1 242.93 471.92 243.7 472.77 C247.13 475.9 250.45 476.85 254.8 478.32 C261.03 480.56 264.59 484.41 268.73 489.33 C270.54 491.48 270.54 491.48 273.45 493.77 C275.93 495.84 277.81 497.77 279.88 500.21 C282.1 502.81 284.31 505.11 286.95 507.27 C290.29 510.02 292.97 513.11 295.76 516.4 C297.56 518.49 297.56 518.49 300.45 520.77 C303.6 523.4 306.07 526.25 308.73 529.37 C310.55 531.48 310.55 531.48 313.45 533.77 C315.93 535.84 317.81 537.77 319.88 540.21 C322.1 542.81 324.31 545.11 326.95 547.27 C330.29 550.02 332.97 553.11 335.76 556.4 C337.56 558.49 337.56 558.49 340.45 560.77 C343.6 563.4 346.07 566.25 348.73 569.37 C350.55 571.48 350.55 571.48 353.45 573.77 C355.93 575.84 357.81 577.77 359.88 580.21 C362.1 582.81 364.31 585.11 366.95 587.27 C370.29 590.02 372.97 593.11 375.76 596.4 C377.56 598.49 377.56 598.49 380.45 600.77 C383.6 603.4 386.07 606.25 388.73 609.37 C390.55 611.48 390.55 611.48 393.45 613.77 C395.93 615.84 397.81 617.77 399.88 620.21 C402.1 622.81 404.31 625.11 406.95 627.27 C410.29 630.02 412.97 633.11 415.76 636.4 C417.56 638.49 417.56 638.49 420.45 640.77 C423.6 643.4 426.07 646.25 428.73 649.37 C430.55 651.48 430.55 651.48 433.45 653.77 C435.93 655.84 437.81 657.77 439.88 660.21 C442.1 662.81 444.31 665.11 446.95 667.27 C449.5 669.37 451.63 671.56 453.76 674.09 C459.35 680.63 464.97 686.94 473.45 689.27 C475.47 686.88 476.46 685.21 477.32 682.15 C478.45 679.27 478.45 679.27 480.76 678.09 C481.64 677.82 482.53 677.55 483.45 677.27 C488.48 674.94 490.07 672.12 492.45 667.27 C492.45 666.61 492.45 665.95 492.45 665.27 C493.54 665.01 494.63 664.74 495.76 664.46 C500.7 662.87 501.67 661.68 504.13 657.21 C505.58 654.51 505.58 654.51 505.45 652.27 C506.35 652.03 507.26 651.78 508.2 651.52 C511.55 650.23 513.12 648.95 515.45 646.27 C513.09 640.72 509.69 636.98 505.57 632.71 C504.96 632.06 504.35 631.42 503.71 630.75 C500.34 627.2 496.92 623.72 493.45 620.27 C432.78 559.61 372.11 498.94 311.45 438.27 C310.75 437.62 310.05 436.97 309.33 436.3 C305.26 431.93 302.94 426.18 301.45 420.46 C300.23 416.6 298.38 414.99 295.45 412.27 C291.78 406.76 292.29 398.68 292.45 392.27 C293.55 388.17 295.8 385.86 298.95 383.02 C302.07 379.59 303.02 376.27 304.5 371.92 C306.73 365.69 310.58 362.13 315.5 357.99 C317.66 356.17 317.66 356.17 319.95 353.27 C322.01 350.79 323.94 348.91 326.38 346.84 C328.99 344.62 331.28 342.41 333.45 339.77 C336.19 336.43 339.29 333.75 342.57 330.96 C344.66 329.16 344.66 329.16 346.95 326.27 C349.58 323.12 352.42 320.65 355.54 317.99 C357.65 316.17 357.65 316.17 359.95 313.27 C362.01 310.79 363.94 308.91 366.38 306.84 C368.99 304.62 371.28 302.41 373.45 299.77 C376.19 296.43 379.29 293.75 382.57 290.96 C384.66 289.16 384.66 289.16 386.95 286.27 C389.58 283.12 392.42 280.65 395.54 277.99 C397.65 276.17 397.65 276.17 399.95 273.27 C402.01 270.79 403.94 268.91 406.38 266.84 C408.99 264.62 411.28 262.41 413.45 259.77 C416.19 256.43 419.29 253.75 422.57 250.96 C424.66 249.16 424.66 249.16 426.95 246.27 C429.58 243.12 432.42 240.65 435.54 237.99 C437.65 236.17 437.65 236.17 439.95 233.27 C442.01 230.79 443.94 228.91 446.38 226.84 C448.99 224.62 451.28 222.41 453.45 219.77 C456.19 216.43 459.29 213.75 462.57 210.96 C464.66 209.16 464.66 209.16 466.95 206.27 C469.58 203.12 472.42 200.65 475.54 197.99 C477.65 196.17 477.65 196.17 479.95 193.27 C482.01 190.79 483.94 188.91 486.38 186.84 C488.99 184.62 491.28 182.41 493.45 179.77 C495.54 177.22 497.73 175.09 500.26 172.96 C506.8 167.37 513.11 161.75 515.45 153.27 C513.05 151.25 511.38 150.26 508.32 149.4 C505.45 148.27 505.45 148.27 504.26 145.96 C503.99 145.07 503.72 144.19 503.45 143.27 C501.28 138.73 499.1 137.15 494.45 135.27 C493.79 135.27 493.13 135.27 492.45 135.27 C492.18 134.55 491.91 133.83 491.63 133.09 C488.95 126.72 486.59 124.29 480.45 121.27 C479.79 121.27 479.13 121.27 478.45 121.27 C478.2 120.37 477.95 119.46 477.7 118.52 C476.41 115.17 475.13 113.6 472.45 111.27 C469.45 112.56 469.45 112.56 466.45 114.27 C466.12 115.26 465.79 116.25 465.45 117.27 C463.78 117.94 462.11 118.61 460.45 119.27 C458.11 121.25 458.11 121.25 455.95 123.59 C455.16 124.4 454.38 125.2 453.57 126.04 C452.52 127.15 452.52 127.15 451.45 128.27 C268.95 310.77 268.95 310.77 266.57 313.13 C264.98 314.73 263.45 316.4 261.95 318.09 C257.95 321.58 253.25 323.32 248.26 325.01 C243.5 326.62 240.93 328.5 237.45 332.27 C231.24 334.34 222.17 334.43 215.91 332.48 C212.91 330.82 211.35 329.13 209.45 326.27 C206.84 325.29 206.84 325.29 203.82 324.52 C197.66 322.6 193.87 319.86 189.45 315.27 C186.67 312.4 183.81 309.94 180.63 307.52 C176.6 304.34 173.3 301.01 170.02 297.07 C168.32 295.04 168.32 295.04 165.45 292.77 C162.29 290.14 159.82 287.3 157.16 284.18 C155.34 282.06 155.34 282.06 152.45 279.77 C149.97 277.71 148.08 275.78 146.01 273.34 C143.79 270.73 141.59 268.44 138.95 266.27 C135.61 263.53 132.92 260.43 130.13 257.14 C128.33 255.06 128.33 255.06 125.45 252.77 C122.29 250.14 119.82 247.3 117.16 244.18 C115.34 242.06 115.34 242.06 112.45 239.77 C109.97 237.71 108.08 235.78 106.01 233.34 C103.79 230.73 101.59 228.44 98.95 226.27 C95.61 223.53 92.92 220.43 90.13 217.14 C88.33 215.06 88.33 215.06 85.45 212.77 C82.29 210.14 79.82 207.3 77.16 204.18 C75.34 202.06 75.34 202.06 72.45 199.77 C69.97 197.71 68.08 195.78 66.01 193.34 C63.79 190.73 61.59 188.44 58.95 186.27 C55.61 183.53 52.92 180.43 50.13 177.14 C48.33 175.06 48.33 175.06 45.45 172.77 C42.29 170.14 39.82 167.3 37.16 164.18 C35.34 162.06 35.34 162.06 32.45 159.77 C29.97 157.71 28.08 155.78 26.01 153.34 C23.79 150.73 21.59 148.44 18.95 146.27 C15.61 143.53 12.92 140.43 10.13 137.14 C8.33 135.06 8.33 135.06 5.45 132.77 C2.95 130.69 1.04 128.73 -1.05 126.27 C-3.99 122.84 -6.93 119.97 -10.55 117.27 C-11.21 117.27 -11.87 117.27 -12.55 117.27 C-12.76 116.65 -12.97 116.04 -13.18 115.4 C-15.1 112.43 -17.22 112.14 -20.55 111.27 Z M219.45 580.27 C218.87 581.53 218.29 582.79 217.7 584.09 C216.04 587.38 214.76 589.46 211.45 591.27 C210.64 591.48 209.84 591.69 209.01 591.9 C205.97 593.53 205.66 594.55 204.2 597.59 C201.79 602.37 199.22 603.73 194.5 605.96 C191.51 607.87 190.89 610.18 189.6 613.37 C188.09 615.85 186.55 616.52 183.95 617.77 C179.48 619.92 178.14 621.99 176.27 626.48 C175.14 628.94 173.8 629.99 171.45 631.27 C170.64 631.48 169.84 631.69 169.01 631.9 C165.97 633.53 165.66 634.55 164.2 637.59 C161.79 642.37 159.22 643.73 154.5 645.96 C151.51 647.87 150.89 650.18 149.6 653.37 C148.09 655.85 146.55 656.52 143.95 657.77 C139.48 659.92 138.14 661.99 136.27 666.48 C135.14 668.94 133.8 669.99 131.45 671.27 C130.24 671.58 130.24 671.58 129.01 671.9 C125.97 673.53 125.66 674.55 124.2 677.59 C121.79 682.37 119.22 683.73 114.5 685.96 C111.51 687.87 110.89 690.18 109.6 693.37 C108.09 695.85 106.55 696.52 103.95 697.77 C99.48 699.92 98.14 701.99 96.27 706.48 C95.14 708.94 93.8 709.99 91.45 711.27 C90.64 711.48 89.84 711.69 89.01 711.9 C85.97 713.53 85.66 714.55 84.2 717.59 C81.79 722.37 79.22 723.73 74.5 725.96 C71.51 727.87 70.89 730.18 69.6 733.37 C68.09 735.85 66.55 736.52 63.95 737.77 C59.48 739.92 58.14 741.99 56.27 746.48 C55.14 748.94 53.8 749.99 51.45 751.27 C50.64 751.48 49.84 751.69 49.01 751.9 C45.97 753.53 45.66 754.55 44.2 757.59 C42.26 761.49 40.82 762.88 36.82 764.59 C33.99 765.99 32.72 766.72 31.3 769.57 C30.28 773.53 29.7 777.48 29.13 781.52 C28.78 783.98 28.43 786.44 28.07 788.9 C27.95 789.72 27.83 790.55 27.71 791.39 C26.71 797.75 24.8 802.77 21.45 808.27 C18.2 813.63 17.73 818.54 17.26 824.65 C17.18 825.58 17.09 826.5 17.01 827.46 C16.81 829.73 16.62 832 16.45 834.27 C20.12 836.72 21.89 836.53 26.27 836.53 C26.97 836.53 27.67 836.54 28.4 836.54 C30.77 836.55 33.13 836.55 35.5 836.54 C37.21 836.54 38.92 836.55 40.63 836.55 C45.33 836.57 50.04 836.57 54.75 836.56 C59.82 836.56 64.89 836.57 69.97 836.58 C79.91 836.6 89.85 836.61 99.79 836.61 C107.86 836.61 115.94 836.61 124.02 836.62 C146.89 836.64 169.77 836.65 192.65 836.64 C193.88 836.64 195.12 836.64 196.39 836.64 C198.24 836.64 198.24 836.64 200.13 836.64 C220.17 836.64 240.21 836.66 260.24 836.69 C280.8 836.72 301.35 836.73 321.91 836.73 C333.45 836.73 345 836.74 356.55 836.76 C366.38 836.78 376.21 836.78 386.04 836.77 C391.06 836.76 396.08 836.76 401.09 836.78 C405.68 836.79 410.27 836.79 414.86 836.77 C416.53 836.77 418.19 836.77 419.86 836.78 C422.11 836.8 424.37 836.79 426.62 836.77 C428.5 836.77 428.5 836.77 430.42 836.77 C433.51 836.55 433.51 836.55 435.37 834.47 C437.03 831.08 436.37 827.94 435.82 824.34 C435.69 823.28 435.69 823.28 435.57 822.21 C434.97 817.88 433.91 814.85 431.45 811.27 C427.22 804.05 425.45 797.55 424.45 789.27 C423.52 777.31 423.52 777.31 419.45 766.27 C417.5 765.06 415.56 764.27 413.42 763.43 C410.86 761.93 410.21 760.43 408.95 757.77 C406.8 753.31 404.73 751.97 400.24 750.09 C397.78 748.97 396.73 747.63 395.45 745.27 C395.24 744.47 395.03 743.66 394.82 742.84 C393.19 739.8 392.17 739.49 389.13 738.02 C384.34 735.62 382.99 733.05 380.75 728.33 C378.85 725.34 376.54 724.72 373.35 723.43 C370.87 721.92 370.19 720.37 368.95 717.77 C366.8 713.31 364.73 711.97 360.24 710.09 C357.78 708.97 356.73 707.63 355.45 705.27 C355.24 704.47 355.03 703.66 354.82 702.84 C353.19 699.8 352.17 699.49 349.13 698.02 C344.34 695.62 342.99 693.05 340.75 688.33 C338.85 685.34 336.54 684.72 333.35 683.43 C330.87 681.92 330.19 680.37 328.95 677.77 C326.8 673.31 324.73 671.97 320.24 670.09 C317.78 668.97 316.73 667.63 315.45 665.27 C315.24 664.47 315.03 663.66 314.82 662.84 C313.19 659.8 312.17 659.49 309.13 658.02 C304.34 655.62 302.99 653.05 300.75 648.33 C298.85 645.34 296.54 644.72 293.35 643.43 C290.87 641.92 290.19 640.37 288.95 637.77 C286.8 633.31 284.73 631.97 280.24 630.09 C277.78 628.97 276.73 627.63 275.45 625.27 C275.24 624.47 275.03 623.66 274.82 622.84 C273.19 619.8 272.17 619.49 269.13 618.02 C264.34 615.62 262.99 613.05 260.75 608.33 C258.85 605.34 256.54 604.72 253.35 603.43 C250.87 601.92 250.19 600.37 248.95 597.77 C246.8 593.31 244.73 591.97 240.24 590.09 C235.96 588.14 235.12 584.47 233.45 580.27 C228.83 580.27 224.21 580.27 219.45 580.27 Z M-6.56 929.18 C-7.64 931.45 -8.12 933.28 -8.43 935.77 C-8.55 936.65 -8.66 937.53 -8.78 938.43 C-8.89 939.37 -9 940.31 -9.12 941.27 C-9.24 942.25 -9.37 943.22 -9.5 944.23 C-10.1 949.02 -10.62 953.8 -11.01 958.61 C-13.04 983.37 -13.04 983.37 -19.12 991.32 C-24.8 999.06 -24.16 1013.68 -24.73 1022.89 C-25.35 1031.63 -26.73 1040.15 -31.62 1047.59 C-36.27 1055.64 -37.02 1065.09 -36.55 1074.27 C-33.97 1076.86 -32.21 1076.52 -28.68 1076.54 C-27.43 1076.53 -27.43 1076.53 -26.16 1076.53 C-24.84 1076.53 -24.84 1076.53 -23.49 1076.53 C-20.49 1076.54 -17.5 1076.53 -14.51 1076.53 C-12.36 1076.53 -10.2 1076.53 -8.05 1076.54 C-2.11 1076.55 3.84 1076.54 9.78 1076.53 C16.18 1076.53 22.58 1076.54 28.98 1076.54 C40.8 1076.55 52.62 1076.55 64.44 1076.55 C75.36 1076.54 86.28 1076.54 97.2 1076.54 C98.28 1076.54 98.28 1076.54 99.39 1076.54 C102.32 1076.54 105.26 1076.54 108.19 1076.54 C135.75 1076.55 163.31 1076.54 190.87 1076.53 C215.37 1076.52 239.88 1076.52 264.38 1076.53 C291.89 1076.54 319.4 1076.55 346.9 1076.54 C349.83 1076.54 352.76 1076.54 355.69 1076.54 C356.78 1076.54 356.78 1076.54 357.88 1076.54 C368.79 1076.54 379.71 1076.54 390.62 1076.55 C403.03 1076.55 415.43 1076.55 427.84 1076.54 C434.17 1076.53 440.51 1076.53 446.84 1076.54 C452.63 1076.54 458.43 1076.54 464.22 1076.53 C466.32 1076.53 468.42 1076.53 470.53 1076.53 C473.37 1076.54 476.21 1076.53 479.05 1076.53 C479.88 1076.53 480.72 1076.53 481.57 1076.54 C485.98 1076.69 485.98 1076.69 489.45 1074.27 C489.51 1071.63 489.44 1069.15 489.26 1066.52 C489.23 1065.82 489.19 1065.12 489.16 1064.39 C488.78 1058.49 487 1054.37 483.45 1049.59 C478.38 1041.2 477.94 1031.59 477.45 1022.02 C476.91 1003.99 476.91 1003.99 469.45 988.27 C466.2 982.23 465.59 976.29 464.88 969.52 C464.76 968.43 464.63 967.33 464.51 966.2 C463.92 961.01 463.39 955.82 462.92 950.62 C462.84 949.77 462.76 948.91 462.67 948.03 C462.53 946.45 462.39 944.87 462.27 943.29 C461.64 936.48 459.21 931.18 454.45 926.27 C449.88 924.34 445.69 923.99 440.8 924.02 C439.67 924.01 439.67 924.01 438.51 924.01 C435.99 924 433.46 924.01 430.93 924.01 C429.1 924.01 427.27 924.01 425.44 924 C420.41 923.99 415.38 923.99 410.34 924 C404.92 924 399.49 923.99 394.07 923.98 C383.44 923.97 372.81 923.97 362.18 923.97 C353.54 923.97 344.9 923.97 336.26 923.97 C335.03 923.97 333.8 923.97 332.53 923.97 C330.04 923.96 327.54 923.96 325.05 923.96 C302.29 923.95 279.54 923.95 256.79 923.96 C236.02 923.96 215.26 923.96 194.49 923.94 C171.16 923.92 147.83 923.91 124.5 923.91 C112.15 923.91 99.79 923.91 87.44 923.9 C76.92 923.88 66.41 923.88 55.89 923.89 C50.52 923.9 45.16 923.9 39.79 923.89 C34.88 923.88 29.97 923.88 25.05 923.9 C23.28 923.9 21.5 923.9 19.72 923.89 C5.61 923.26 5.61 923.26 -6.56 929.18 Z " fill="#000000" transform="translate(413.5546875,39.7265625)"/>
</svg>
