<?xml version="1.0" encoding="UTF-8"?>
<!-- Generator: visioncortex VTracer 0.6.3 -->
<svg version="1.1" xmlns="http://www.w3.org/2000/svg" width="1280" height="1280">
<path d="M0 0 C0.59 0.49 1.18 0.98 1.8 1.48 C4.47 3.32 6.53 3.7 9.73 4.21 C10.84 4.4 11.96 4.6 13.11 4.8 C15.43 5.18 17.75 5.56 20.07 5.93 C28.49 7.4 35.89 9.6 42.56 15.12 C46.69 18.3 51.62 19.35 56.59 20.71 C63.09 22.53 68.11 24.17 72 30 C73.78 30.78 73.78 30.78 75.85 31.21 C76.62 31.4 77.38 31.59 78.17 31.79 C79.39 32.08 79.39 32.08 80.62 32.38 C89.09 34.56 95.66 36.62 101 44 C104.56 45.65 108.11 46.54 111.94 47.38 C117.7 48.78 121.93 50.19 125.56 55.12 C128.5 58.96 133.17 59.28 137.72 59.99 C144.55 61.05 150.75 62.13 156 67 C156.66 67.99 157.32 68.98 158 70 C160.12 70.88 160.12 70.88 162.61 71.43 C163.53 71.67 164.45 71.91 165.4 72.15 C167.33 72.63 169.26 73.1 171.19 73.57 C178.33 75.44 181.84 77.76 186 84 C187.93 84.8 187.93 84.8 190.18 85.25 C191.42 85.54 191.42 85.54 192.69 85.85 C194.42 86.24 196.16 86.63 197.9 87.02 C202.81 88.19 206.38 89.26 210 93 C210.27 93.67 210.54 94.35 210.82 95.04 C211.85 97.19 211.85 97.19 214.17 97.87 C215.05 98.03 215.93 98.2 216.83 98.38 C217.8 98.58 218.76 98.78 219.75 98.98 C220.76 99.17 221.77 99.37 222.81 99.56 C236.52 102.24 236.52 102.24 241.25 107.5 C246.29 112.08 252.69 112.93 259.19 114.44 C264.95 115.84 268.84 117.45 272.75 122.06 C275.7 124.6 278.55 125.21 282.27 126.22 C295.28 129.92 295.28 129.92 299 135 C299 135.66 299 136.32 299 137 C300.02 137.22 301.03 137.44 302.08 137.66 C322.8 142.35 322.8 142.35 328.37 148.51 C330.37 150.34 331.82 150.68 334.46 151.25 C335.32 151.44 336.19 151.64 337.08 151.85 C338.89 152.24 340.7 152.63 342.51 153.02 C347.72 154.21 351.86 155.41 356 159 C356.27 159.86 356.55 160.73 356.83 161.62 C357.73 164.11 357.73 164.11 359.73 164.71 C362.06 165.26 364.39 165.68 366.75 166.06 C372.73 167.07 377.17 168.04 382 172 C382.56 172.85 383.12 173.69 383.7 174.57 C387.83 178.94 393.96 179.32 399.67 180.58 C405.57 182.01 409.63 183.77 414.32 187.64 C416.32 189.26 418.28 190.23 420.69 191.12 C421.52 191.44 422.35 191.75 423.21 192.07 C426.39 193.13 429.59 194.03 432.81 194.94 C437.92 196.46 440.41 198.01 444 202 C448.78 204.82 453.81 206.26 459.19 207.5 C465.15 208.91 469.11 210.84 473.2 215.51 C476.56 218.5 478.94 219.04 483.31 219.94 C490.34 221.55 495.56 224 500.3 229.52 C502.4 231.35 503.92 231.67 506.64 232.21 C508 232.5 508 232.5 509.39 232.8 C511.28 233.18 513.17 233.56 515.07 233.93 C521.89 235.4 526.61 237.41 531.51 242.59 C533.78 244.74 536.32 245.13 539.31 245.94 C547.95 248.5 552 251.76 557.28 258.91 C559.01 261.22 559.01 261.22 562.06 263 C567.44 266.66 570.33 272.46 573.06 278.25 C574.38 281.03 575.3 282.3 577.56 284.56 C584.88 291.88 584.11 302.51 584.15 312.14 C584.15 314.12 584.15 314.12 584.15 316.14 C584.15 317.56 584.15 318.98 584.16 320.4 C584.16 324.24 584.17 328.09 584.17 331.93 C584.17 334.34 584.17 336.74 584.17 339.15 C584.18 347.56 584.19 355.97 584.19 364.38 C584.18 372.19 584.2 380.01 584.21 387.82 C584.22 394.55 584.23 401.28 584.23 408.01 C584.23 412.02 584.23 416.03 584.24 420.04 C584.25 423.82 584.25 427.59 584.24 431.37 C584.24 433.4 584.25 435.43 584.26 437.45 C584.2 455.31 584.2 455.31 580.25 461.94 C578 464 578 464 574.81 466.06 C571.95 467.65 571.95 467.65 571.31 469.75 C570.37 476.62 571.12 484.19 575 490 C575.83 490.83 576.65 491.65 577.5 492.5 C586.73 503.17 584.16 526.11 584.17 539.1 C584.17 540.51 584.17 541.93 584.18 543.34 C584.18 546.28 584.19 549.22 584.19 552.16 C584.19 555.12 584.19 558.09 584.21 561.06 C584.45 614.42 584.45 614.42 575 626 C574.34 626 573.68 626 573 626 C572.92 627.15 572.84 628.31 572.75 629.5 C572.23 634.15 571.27 638.64 570.19 643.19 C570.03 643.86 569.88 644.54 569.72 645.24 C568.3 650.98 565.72 655.02 561.88 659.44 C557.77 665.04 557.66 671.3 557.69 678 C557.66 679.15 557.66 679.15 557.64 680.33 C557.63 687.24 559.25 692.4 564 697.62 C570.73 706.41 570.69 719.41 571.82 730.04 C572.52 736.11 573.5 740.03 577.5 744.78 C582.23 751.78 582.61 761.99 583.18 770.22 C583.26 771.35 583.34 772.47 583.42 773.63 C584.59 792.78 584.26 812.01 584.2 831.19 C584.18 835.51 584.19 839.84 584.19 844.16 C584.18 932.41 584.18 932.41 575.46 942.84 C573.38 945.92 573.03 949.14 572.5 952.75 C572.38 953.52 572.25 954.29 572.13 955.09 C571.41 959.78 570.82 964.49 570.29 969.21 C570.16 970.26 570.04 971.32 569.92 972.4 C569.69 974.46 569.47 976.52 569.27 978.59 C568.41 986.25 566.57 992.57 561.9 998.8 C558.53 1004.48 558.09 1011.08 557.02 1017.53 C555.6 1025.46 553.46 1032.59 548.42 1039.02 C546.92 1041.11 546.35 1042.67 545.75 1045.15 C545.56 1045.93 545.36 1046.71 545.15 1047.51 C544.76 1049.12 544.37 1050.74 543.98 1052.36 C542.57 1057.87 540.99 1061.98 536.07 1065.3 C535.43 1065.63 534.79 1065.97 534.12 1066.31 C530.88 1068.2 529.09 1070.01 527 1073.12 C523.41 1078.3 519.3 1079.35 513.34 1080.52 C509.69 1081.04 506.14 1081.14 502.46 1081.13 C501.72 1081.13 500.98 1081.13 500.21 1081.13 C497.72 1081.14 495.22 1081.13 492.72 1081.13 C490.91 1081.13 489.1 1081.13 487.28 1081.13 C482.28 1081.14 477.27 1081.14 472.26 1081.13 C466.83 1081.13 461.39 1081.14 455.95 1081.14 C446.41 1081.15 436.88 1081.15 427.34 1081.15 C413.15 1081.14 398.97 1081.15 384.79 1081.15 C357.98 1081.16 331.18 1081.17 304.38 1081.17 C301.42 1081.17 298.46 1081.17 295.51 1081.17 C294.77 1081.17 294.04 1081.17 293.28 1081.17 C277.03 1081.17 260.77 1081.17 244.52 1081.17 C237.82 1081.17 231.13 1081.17 224.44 1081.18 C223.33 1081.18 223.33 1081.18 222.2 1081.18 C179.82 1081.18 137.44 1081.19 95.07 1081.19 C93.48 1081.19 91.89 1081.19 90.31 1081.19 C83.15 1081.19 75.98 1081.19 68.82 1081.19 C65.63 1081.19 62.43 1081.19 59.24 1081.19 C57.64 1081.19 56.04 1081.19 54.45 1081.19 C3.9 1081.18 -46.65 1081.19 -97.19 1081.21 C-109.93 1081.21 -122.66 1081.21 -135.4 1081.22 C-136.18 1081.22 -136.96 1081.22 -137.77 1081.22 C-161.94 1081.22 -186.1 1081.23 -210.27 1081.23 C-211.4 1081.23 -211.4 1081.23 -212.56 1081.23 C-229.22 1081.23 -245.87 1081.23 -262.52 1081.23 C-268.48 1081.23 -274.44 1081.23 -280.4 1081.23 C-281.88 1081.23 -283.36 1081.23 -284.85 1081.23 C-308.47 1081.23 -332.1 1081.23 -355.72 1081.24 C-380.18 1081.25 -404.64 1081.25 -429.09 1081.25 C-443.2 1081.24 -457.3 1081.24 -471.41 1081.25 C-480.82 1081.26 -490.24 1081.26 -499.65 1081.25 C-505.02 1081.25 -510.39 1081.25 -515.76 1081.26 C-520.64 1081.26 -525.52 1081.26 -530.41 1081.25 C-532.16 1081.25 -533.92 1081.25 -535.67 1081.26 C-557.96 1081.32 -557.96 1081.32 -564.94 1077.31 C-567.03 1074.96 -568.26 1072.57 -569.7 1069.79 C-571.82 1066.88 -574.77 1065.38 -577.88 1063.65 C-583.29 1059.43 -584.03 1052.21 -585.2 1045.83 C-586.39 1040.35 -588.55 1038.56 -593 1035 C-596.38 1028.88 -597.18 1022.32 -598.2 1015.47 C-599.19 1009.76 -600.91 1006.38 -604.55 1001.9 C-609.89 994.9 -609.84 986.02 -610.56 977.56 C-611.17 963.29 -611.17 963.29 -616.44 950.44 C-622.77 941.06 -622.61 925.96 -623.18 915.01 C-623.22 914.29 -623.25 913.57 -623.3 912.84 C-624.55 889.45 -624.26 866.01 -624.2 842.6 C-624.18 837.62 -624.19 832.64 -624.19 827.66 C-624.19 822.77 -624.18 817.89 -624.17 813 C-624.17 810.71 -624.17 808.42 -624.17 806.13 C-624.16 794.26 -624.02 782.42 -623.57 770.56 C-623.53 769.55 -623.49 768.55 -623.46 767.51 C-622.41 742.52 -622.41 742.52 -616.18 732.01 C-613.89 728.12 -612.75 724.35 -612.14 719.9 C-608.76 697.18 -608.76 697.18 -601.39 687.99 C-597.52 682.44 -597.24 673.57 -598 667 C-599.64 661.51 -602.45 658.09 -606.38 654.09 C-610.44 648.85 -610.55 642.29 -611.12 635.92 C-611.75 629.97 -613.24 625.76 -617.5 621.5 C-626.73 610.83 -624.16 587.89 -624.17 574.9 C-624.17 573.49 -624.17 572.07 -624.18 570.66 C-624.18 567.72 -624.19 564.78 -624.19 561.84 C-624.19 558.88 -624.19 555.91 -624.21 552.94 C-624.44 500.4 -624.44 500.4 -616.5 490.81 C-612.47 485.69 -611.5 478.34 -611 472 C-611.95 467.75 -612.33 466.47 -615.94 463.94 C-616.95 463.3 -617.96 462.66 -619 462 C-625.34 454.3 -624.29 442.28 -624.26 432.93 C-624.26 431.54 -624.27 430.15 -624.27 428.76 C-624.28 425.01 -624.28 421.26 -624.27 417.51 C-624.26 413.56 -624.27 409.62 -624.27 405.67 C-624.28 399.05 -624.27 392.43 -624.26 385.81 C-624.25 378.18 -624.25 370.55 -624.26 362.92 C-624.27 356.35 -624.27 349.77 -624.27 343.19 C-624.27 339.28 -624.27 335.36 -624.27 331.45 C-624.28 327.76 -624.27 324.08 -624.26 320.39 C-624.26 318.41 -624.26 316.43 -624.27 314.46 C-624.17 292.7 -624.17 292.7 -618 286 C-616.7 285.6 -616.7 285.6 -615.38 285.19 C-614.59 284.8 -613.81 284.4 -613 284 C-612.3 281.86 -611.96 279.73 -611.58 277.52 C-610.06 270.93 -606.53 265.82 -601 262 C-597.68 259.33 -594.6 256.82 -592.06 253.38 C-586.8 247.31 -579.37 246.27 -571.76 245 C-570.85 244.67 -569.94 244.34 -569 244 C-567.85 241.58 -567.85 241.58 -567 239 C-562.19 235.38 -556.49 233.78 -550.69 232.5 C-545.68 231.37 -543.34 230.02 -540 226 C-535.58 222.57 -532 221.33 -526.5 220.44 C-520.15 219.4 -515.15 218.21 -510.56 213.5 C-506.17 209.22 -501.1 207.9 -495.21 206.72 C-487.79 205.22 -483.47 203.2 -477.83 198.01 C-474.08 195.34 -470.26 194.23 -465.88 192.94 C-459.58 191.07 -455.37 189.3 -450.69 184.54 C-446.79 181 -441.57 180.27 -436.53 179.41 C-428.59 178.31 -428.59 178.31 -422.62 173.5 C-422.2 172.89 -421.77 172.28 -421.33 171.64 C-417.18 166.51 -408.8 166.35 -402.73 165.53 C-398.37 164.69 -396.55 163.77 -393.94 160.12 C-389.64 154.69 -382.12 153.41 -375.62 152.06 C-371.4 150.82 -369.92 149.23 -367 146 C-362.22 142.28 -357.89 141.01 -352.12 139.69 C-345.66 138.07 -341.41 136.45 -336.69 131.57 C-332.86 128.02 -327.68 127.28 -322.67 126.44 C-314.88 125.08 -310.71 123.34 -304.9 118.05 C-301.11 115.37 -297.29 114.24 -292.88 112.94 C-285.83 110.96 -285.83 110.96 -280.12 106.56 C-275.65 101.82 -269.41 100.47 -263.32 98.66 C-258.04 97.02 -254.79 95.16 -250.77 91.39 C-247.58 88.88 -243.89 88.12 -240 87.19 C-239.23 86.98 -238.46 86.78 -237.67 86.57 C-234.12 85.66 -230.64 84.91 -227 84.48 C-226.01 84.32 -225.02 84.16 -224 84 C-222.87 82.17 -222.87 82.17 -222 80 C-215 74.36 -207.03 72.78 -198.29 71.82 C-197.15 71.41 -197.15 71.41 -196 71 C-195.33 69.34 -194.66 67.67 -194 66 C-188.81 61.61 -183.11 60.54 -176.63 59.2 C-171.25 57.9 -168.62 56.16 -165.41 51.61 C-161.61 47.26 -154.63 46.91 -149.25 46 C-143.75 45.06 -140.54 43.71 -136.75 39.5 C-131.1 34.36 -123.08 33.46 -115.8 31.84 C-111.4 30.52 -108.3 28.44 -105.19 25.12 C-101.62 21.93 -97.71 20.86 -93.19 19.62 C-86.66 17.84 -82.22 15.5 -77.21 10.77 C-71.31 6.04 -63.04 6.09 -55.79 5.23 C-50.32 4.52 -45.96 3.41 -41 1 C-39.63 0.45 -38.26 -0.1 -36.88 -0.62 C-36.25 -0.86 -35.63 -1.1 -34.99 -1.35 C-24.22 -4.86 -10.53 -4.07 0 0 Z M-44.59 97.39 C-45.74 98.92 -46.87 100.46 -48 102 C-52.85 105.11 -58.03 106.25 -63.62 107.31 C-69.24 108.49 -71.68 110.11 -75.37 114.36 C-79.23 118.23 -84.9 118.79 -90.07 119.82 C-100.72 121.94 -100.72 121.94 -109.26 128.4 C-112.32 131.22 -116.06 131.92 -120 133 C-128.76 135.62 -128.76 135.62 -135 142 C-139.48 144.59 -144 145.94 -148.94 147.31 C-154.48 148.93 -158.32 150.51 -162.46 154.65 C-166.36 158.08 -171.78 158.78 -176.73 159.67 C-177.4 159.79 -178.06 159.9 -178.74 160.03 C-180.67 160.36 -182.61 160.66 -184.55 160.96 C-188.65 162.2 -190.14 163.87 -193 167 C-197.67 170.63 -202.07 172.12 -207.69 173.56 C-214 175.08 -214 175.08 -219 179 C-222.01 182.38 -224.35 183.75 -228.69 185.06 C-229.74 185.4 -230.8 185.73 -231.89 186.07 C-233.79 186.64 -235.7 187.19 -237.61 187.71 C-243.25 189.32 -245.24 191.37 -249 196 C-252.84 197.89 -256.14 198.85 -260.35 199.6 C-267.61 200.89 -272 202.11 -277.23 207.36 C-281.55 211.36 -287.56 212.15 -293.12 213.5 C-299.13 214.97 -303.59 216.63 -308.11 220.92 C-312.06 224.35 -315.96 225.59 -320.94 226.94 C-327.28 228.83 -331.54 230.67 -336.24 235.46 C-340.43 239.12 -346.34 239.7 -351.64 240.66 C-352.9 240.9 -354.15 241.13 -355.44 241.38 C-356.61 241.57 -357.79 241.76 -359 241.96 C-362.75 243.26 -363.15 244.59 -365 248 C-369.75 251.79 -375.58 252.29 -381.41 253.29 C-386.78 254.33 -389.33 255.73 -393 260 C-397.82 264.64 -402.96 265.49 -409.32 266.8 C-414.81 268.12 -417.25 269.91 -420.65 274.39 C-422.56 276.67 -424.5 277.43 -427.31 278.31 C-428.74 278.78 -428.74 278.78 -430.2 279.25 C-432.66 279.91 -435.05 280.35 -437.56 280.75 C-441.55 281.52 -443.57 283.17 -446.56 285.88 C-452.92 291.37 -459.99 292.34 -468 294 C-473.21 295.24 -476.62 296.44 -480.38 300.31 C-485.13 304.91 -491.07 306.2 -497.3 307.87 C-501.83 309.12 -505.1 310.02 -508 314 C-508 314.66 -508 315.32 -508 316 C-512.1 317.39 -516.18 318.77 -520.35 319.95 C-521.49 320.28 -522.64 320.6 -523.81 320.94 C-524.89 321.24 -525.97 321.53 -527.08 321.84 C-530.4 323.16 -531.89 324.12 -534 327 C-536.28 333.98 -536.29 340.66 -536.27 347.96 C-536.27 349.19 -536.27 350.41 -536.27 351.68 C-536.27 354.26 -536.27 356.84 -536.26 359.42 C-536.25 363.38 -536.26 367.35 -536.27 371.31 C-536.27 373.82 -536.27 376.33 -536.27 378.84 C-536.27 380.03 -536.27 381.21 -536.28 382.44 C-536.27 383.54 -536.27 384.63 -536.26 385.76 C-536.26 386.73 -536.26 387.69 -536.25 388.69 C-536.22 391.19 -536.22 391.19 -534 393 C-530.9 393.3 -530.9 393.3 -527.16 393.25 C-526.09 393.25 -526.09 393.25 -524.99 393.26 C-522.56 393.27 -520.13 393.26 -517.7 393.25 C-515.95 393.25 -514.2 393.26 -512.44 393.26 C-507.58 393.27 -502.71 393.26 -497.85 393.26 C-492.58 393.25 -487.3 393.26 -482.02 393.26 C-472.77 393.27 -463.51 393.27 -454.25 393.27 C-440.48 393.26 -426.71 393.26 -412.94 393.27 C-389.78 393.28 -366.63 393.28 -343.47 393.27 C-342.76 393.27 -342.06 393.27 -341.33 393.27 C-340.62 393.27 -339.92 393.27 -339.19 393.27 C-317.67 393.27 -296.16 393.27 -274.65 393.27 C-273.21 393.27 -271.77 393.27 -270.33 393.27 C-264.54 393.27 -258.76 393.27 -252.98 393.27 C-236.81 393.27 -220.65 393.27 -204.48 393.27 C-203.74 393.27 -203.01 393.27 -202.25 393.27 C-178.78 393.27 -155.31 393.27 -131.84 393.27 C-131.07 393.27 -130.31 393.27 -129.53 393.27 C-117.16 393.27 -104.79 393.26 -92.42 393.26 C-43.37 393.25 5.69 393.25 54.75 393.26 C67.11 393.26 79.47 393.27 91.84 393.27 C92.98 393.27 92.98 393.27 94.14 393.27 C117.59 393.27 141.03 393.27 164.48 393.27 C165.21 393.27 165.95 393.27 166.71 393.27 C182.86 393.27 199.01 393.27 215.15 393.27 C220.93 393.27 226.71 393.27 232.49 393.27 C233.92 393.27 235.36 393.27 236.8 393.27 C258.31 393.27 279.82 393.27 301.33 393.27 C302.39 393.27 302.39 393.27 303.47 393.27 C304.17 393.27 304.88 393.27 305.6 393.27 C329.33 393.28 353.06 393.28 376.79 393.27 C390.49 393.26 404.18 393.26 417.88 393.27 C427.01 393.27 436.14 393.27 445.27 393.26 C450.49 393.26 455.7 393.25 460.91 393.26 C465.65 393.27 470.38 393.26 475.11 393.25 C476.82 393.25 478.53 393.25 480.24 393.26 C482.55 393.27 484.86 393.26 487.16 393.25 C489.09 393.25 489.09 393.25 491.05 393.25 C494.12 393.31 494.12 393.31 496 391 C496.31 388.52 496.31 388.52 496.26 385.61 C496.27 384.48 496.27 383.35 496.28 382.19 C496.27 380.96 496.27 379.73 496.27 378.47 C496.27 377.21 496.27 375.95 496.27 374.65 C496.27 371.97 496.27 369.29 496.26 366.62 C496.25 363.21 496.26 359.81 496.27 356.4 C496.28 353.13 496.27 349.86 496.27 346.59 C496.27 345.38 496.27 344.17 496.28 342.92 C496.24 336.05 495.67 329.68 494 323 C490.45 321.95 486.93 320.99 483.32 320.18 C476.15 318.53 471.1 316.93 465.8 311.61 C461.11 307.42 454.26 306.84 448.31 305.56 C442.56 304.27 438.07 303.07 434.63 297.96 C432.66 295.6 431.46 295.23 428.5 294.5 C427.62 294.26 426.74 294.02 425.83 293.77 C424.9 293.52 423.96 293.26 423 293 C412.16 289.8 412.16 289.8 409.38 285.94 C406.12 281.91 402.89 281.27 398 280 C390.53 278 383.18 275.69 377.27 270.47 C373.95 268.32 370.47 267.78 366.62 267 C356.55 264.94 356.55 264.94 352 262 C351.12 260.5 351.12 260.5 350.21 258.98 C347.03 254.7 343.63 254.39 338.56 253.38 C328.01 251.16 328.01 251.16 324 247 C323.73 246.33 323.46 245.66 323.18 244.96 C322.15 242.81 322.15 242.81 319.83 242.07 C318.95 241.88 318.07 241.68 317.17 241.47 C316.2 241.24 315.24 241 314.25 240.76 C312.22 240.3 310.19 239.84 308.16 239.38 C302.31 237.95 298.72 236.85 295 232 C294.67 231.34 294.34 230.68 294 230 C292.01 229.33 292.01 229.33 289.59 228.89 C288.23 228.59 288.23 228.59 286.84 228.29 C284.93 227.89 283.03 227.5 281.12 227.12 C275.53 225.9 271.25 224.32 266.56 221 C265.03 219.82 265.03 219.82 263 220 C262.67 219.01 262.34 218.02 262 217 C257.78 214.75 253.65 213.64 249 212.56 C242.84 211.08 238.12 209.43 233.84 204.53 C230.25 201.33 227.1 200.54 222.5 199.44 C215.88 197.82 211.78 195.95 207 190.88 C202.94 187.07 197.96 186.54 192.62 185.62 C187.04 184.58 182.59 183.44 178 180 C177.46 179.03 177.46 179.03 176.92 178.04 C173.83 174.76 169.85 174.35 165.56 173.38 C163.85 172.97 162.15 172.56 160.44 172.15 C159.69 171.97 158.93 171.8 158.15 171.62 C154.16 170.47 152.42 169.73 150.3 166.04 C147.13 161.85 144.11 161.44 139.12 160.38 C133.33 159.07 128.7 157.87 124 154 C123.49 152.93 123.49 152.93 122.96 151.85 C122.12 149.75 122.12 149.75 119.6 149.06 C118.62 148.85 117.64 148.65 116.62 148.44 C115.55 148.2 114.48 147.96 113.38 147.71 C111.16 147.24 108.94 146.78 106.71 146.32 C100.67 144.98 97.01 144.01 93 139 C90.11 136.5 87.67 135.43 83.97 134.54 C82.54 134.17 82.54 134.17 81.07 133.8 C79.07 133.31 77.07 132.82 75.06 132.34 C68.67 130.71 64.59 129.03 60.21 123.9 C56.53 120.74 52.01 120.14 47.38 119.02 C41.28 117.42 37.75 114.97 33.44 110.31 C30.13 107.29 25.51 106.61 21.25 105.69 C14.83 104.13 9.24 101.69 4.13 97.45 C-5.86 90.66 -35.18 89.14 -44.59 97.39 Z M-520.58 490.85 C-522.2 493.31 -522.62 495.1 -523.06 498 C-523.22 498.97 -523.39 499.94 -523.55 500.94 C-523.85 502.94 -524.1 504.95 -524.32 506.96 C-525.21 514.2 -527.51 518.97 -531.38 525.12 C-533.73 529.3 -534.46 533.29 -535 538 C-535.17 539.2 -535.35 540.4 -535.53 541.63 C-537.36 556.44 -537.94 574.09 -530.69 587.38 C-526.72 594.64 -525.24 601.97 -523.86 610.09 C-522.79 615.99 -521.78 619.04 -517 623 C-515.65 625.03 -514.49 627.1 -513.31 629.23 C-511.64 631.48 -510.64 632.01 -508 633 C-505.24 633.19 -502.57 633.27 -499.81 633.26 C-498.98 633.26 -498.14 633.27 -497.28 633.27 C-494.49 633.28 -491.69 633.28 -488.9 633.27 C-486.9 633.28 -484.89 633.28 -482.89 633.29 C-478.58 633.3 -474.26 633.3 -469.95 633.3 C-463.13 633.31 -456.31 633.32 -449.49 633.35 C-432.55 633.39 -415.62 633.43 -398.68 633.45 C-385.51 633.46 -372.35 633.49 -359.19 633.53 C-352.41 633.55 -345.63 633.56 -338.85 633.56 C-334.63 633.56 -330.41 633.57 -326.2 633.59 C-324.24 633.6 -322.28 633.6 -320.33 633.59 C-317.66 633.59 -314.99 633.6 -312.32 633.61 C-311.15 633.61 -311.15 633.61 -309.97 633.6 C-305.47 633.65 -302.59 634.24 -299 637 C-296.48 640.41 -296.74 643.85 -296.73 647.98 C-296.72 648.68 -296.72 649.37 -296.71 650.09 C-296.7 652.38 -296.7 654.67 -296.7 656.96 C-296.7 658.56 -296.69 660.16 -296.69 661.75 C-296.68 665.1 -296.68 668.44 -296.68 671.79 C-296.69 676.07 -296.67 680.35 -296.65 684.63 C-296.64 687.93 -296.63 691.23 -296.64 694.52 C-296.64 696.1 -296.63 697.68 -296.62 699.26 C-296.61 701.47 -296.62 703.68 -296.63 705.89 C-296.63 707.14 -296.63 708.4 -296.63 709.69 C-297.04 713.31 -297.75 715.16 -300 718 C-303.74 720.62 -307.82 720.28 -312.2 720.26 C-313.04 720.26 -313.87 720.27 -314.73 720.27 C-317.53 720.28 -320.33 720.28 -323.13 720.27 C-325.14 720.28 -327.14 720.28 -329.15 720.29 C-333.47 720.3 -337.79 720.3 -342.11 720.3 C-348.95 720.31 -355.79 720.32 -362.62 720.35 C-379.61 720.39 -396.6 720.43 -413.58 720.45 C-426.78 720.46 -439.97 720.49 -453.16 720.53 C-459.96 720.55 -466.75 720.56 -473.54 720.56 C-477.78 720.56 -482.01 720.57 -486.24 720.59 C-488.2 720.6 -490.16 720.6 -492.12 720.59 C-494.8 720.59 -497.48 720.6 -500.16 720.61 C-500.93 720.61 -501.7 720.6 -502.49 720.6 C-508.56 720.66 -515.29 721.56 -519.94 725.75 C-523.69 733.69 -523.92 742.44 -524.77 751.04 C-525.79 760.71 -527.29 769.74 -531.61 778.51 C-534.35 784.26 -534.98 789.5 -535.31 795.81 C-535.38 796.88 -535.45 797.95 -535.52 799.05 C-535.97 806.51 -536.19 813.97 -536.25 821.44 C-536.26 822.84 -536.26 822.84 -536.28 824.27 C-536.27 825.13 -536.27 825.99 -536.27 826.87 C-536.26 827.62 -536.26 828.38 -536.26 829.15 C-536.15 831.25 -536.15 831.25 -534 833 C-531.68 833.3 -531.68 833.3 -528.95 833.25 C-527.87 833.26 -526.8 833.26 -525.69 833.27 C-524.5 833.26 -523.31 833.26 -522.08 833.25 C-520.19 833.26 -520.19 833.26 -518.27 833.26 C-514.76 833.27 -511.26 833.27 -507.76 833.26 C-503.98 833.26 -500.21 833.26 -496.44 833.27 C-489.04 833.28 -481.64 833.28 -474.25 833.27 C-468.24 833.27 -462.23 833.27 -456.22 833.27 C-455.36 833.27 -454.51 833.27 -453.63 833.27 C-451.89 833.27 -450.16 833.27 -448.42 833.27 C-432.14 833.28 -415.86 833.27 -399.58 833.26 C-385.6 833.25 -371.62 833.25 -357.63 833.26 C-341.41 833.27 -325.19 833.28 -308.97 833.27 C-307.24 833.27 -305.51 833.27 -303.78 833.27 C-302.93 833.27 -302.08 833.27 -301.21 833.27 C-295.2 833.26 -289.2 833.27 -283.19 833.27 C-275.88 833.28 -268.56 833.28 -261.25 833.27 C-257.51 833.26 -253.78 833.26 -250.04 833.27 C-246 833.27 -241.96 833.26 -237.92 833.25 C-236.73 833.26 -235.54 833.26 -234.31 833.27 C-233.23 833.26 -232.16 833.26 -231.05 833.25 C-230.12 833.25 -229.18 833.25 -228.22 833.25 C-225.79 833.21 -225.79 833.21 -224 831 C-223.7 828.41 -223.7 828.41 -223.75 825.32 C-223.74 824.11 -223.74 822.89 -223.73 821.64 C-223.74 820.28 -223.74 818.92 -223.75 817.56 C-223.74 816.13 -223.74 814.69 -223.74 813.25 C-223.73 809.29 -223.73 805.34 -223.74 801.38 C-223.74 797.11 -223.74 792.85 -223.73 788.58 C-223.72 780.22 -223.72 771.86 -223.73 763.5 C-223.73 756.71 -223.73 749.92 -223.73 743.13 C-223.73 741.68 -223.73 741.68 -223.73 740.2 C-223.73 738.24 -223.73 736.28 -223.73 734.32 C-223.72 715.93 -223.73 697.53 -223.74 679.13 C-223.75 663.33 -223.75 647.52 -223.74 631.72 C-223.73 613.39 -223.72 595.06 -223.73 576.73 C-223.73 574.78 -223.73 572.82 -223.73 570.87 C-223.73 569.91 -223.73 568.95 -223.73 567.96 C-223.74 561.17 -223.73 554.39 -223.73 547.6 C-223.72 539.33 -223.72 531.07 -223.73 522.8 C-223.74 518.58 -223.74 514.36 -223.73 510.14 C-223.73 506.28 -223.73 502.42 -223.74 498.56 C-223.74 497.16 -223.74 495.76 -223.74 494.36 C-223.73 492.46 -223.74 490.57 -223.75 488.68 C-223.75 487.62 -223.75 486.56 -223.75 485.48 C-223.75 482.82 -223.75 482.82 -226 481 C-228.13 480.7 -228.13 480.7 -230.63 480.75 C-231.62 480.74 -232.6 480.73 -233.61 480.73 C-235.24 480.73 -235.24 480.73 -236.91 480.74 C-238.63 480.73 -238.63 480.73 -240.39 480.73 C-243.59 480.72 -246.79 480.72 -249.99 480.72 C-253.43 480.73 -256.88 480.72 -260.33 480.71 C-267.08 480.7 -273.84 480.7 -280.6 480.7 C-286.09 480.7 -291.58 480.7 -297.07 480.69 C-297.85 480.69 -298.63 480.69 -299.44 480.69 C-301.02 480.69 -302.61 480.69 -304.19 480.69 C-319.08 480.68 -333.97 480.68 -348.85 480.69 C-362.47 480.69 -376.09 480.68 -389.71 480.66 C-403.69 480.64 -417.67 480.63 -431.65 480.64 C-439.5 480.64 -447.35 480.64 -455.2 480.62 C-461.89 480.61 -468.57 480.61 -475.26 480.62 C-478.67 480.63 -482.08 480.63 -485.49 480.62 C-489.19 480.61 -492.89 480.61 -496.59 480.63 C-497.66 480.62 -498.74 480.61 -499.85 480.6 C-509.47 480.67 -514.32 483.52 -520.58 490.85 Z M-136 483 C-136.3 485.59 -136.3 485.59 -136.25 488.68 C-136.26 489.89 -136.26 491.11 -136.27 492.36 C-136.26 493.72 -136.26 495.08 -136.25 496.44 C-136.26 497.87 -136.26 499.31 -136.26 500.75 C-136.27 504.71 -136.27 508.66 -136.26 512.62 C-136.26 516.89 -136.26 521.15 -136.27 525.42 C-136.28 533.78 -136.28 542.14 -136.27 550.5 C-136.27 557.29 -136.27 564.08 -136.27 570.87 C-136.27 571.84 -136.27 572.8 -136.27 573.8 C-136.27 575.76 -136.27 577.72 -136.27 579.68 C-136.28 598.07 -136.27 616.47 -136.26 634.87 C-136.25 650.67 -136.25 666.48 -136.26 682.28 C-136.27 700.61 -136.28 718.94 -136.27 737.27 C-136.27 739.22 -136.27 741.18 -136.27 743.13 C-136.27 744.09 -136.27 745.05 -136.27 746.04 C-136.26 752.83 -136.27 759.61 -136.27 766.4 C-136.28 774.67 -136.28 782.93 -136.27 791.2 C-136.26 795.42 -136.26 799.64 -136.27 803.86 C-136.27 807.72 -136.27 811.58 -136.26 815.44 C-136.26 816.84 -136.26 818.24 -136.26 819.64 C-136.27 821.54 -136.26 823.43 -136.25 825.32 C-136.25 826.91 -136.25 826.91 -136.25 828.52 C-136.25 831.18 -136.25 831.18 -134 833 C-131.01 833.2 -128.11 833.27 -125.12 833.25 C-123.72 833.26 -123.72 833.26 -122.29 833.26 C-119.15 833.27 -116.02 833.27 -112.88 833.26 C-110.63 833.26 -108.39 833.27 -106.15 833.27 C-100.04 833.28 -93.93 833.27 -87.82 833.27 C-81.44 833.26 -75.07 833.27 -68.69 833.27 C-57.29 833.28 -45.89 833.27 -34.49 833.26 C-24.14 833.25 -13.8 833.25 -3.45 833.26 C8.55 833.27 20.55 833.28 32.55 833.27 C38.91 833.27 45.27 833.27 51.62 833.27 C57.6 833.28 63.58 833.27 69.55 833.26 C71.75 833.26 73.95 833.26 76.15 833.27 C79.14 833.27 82.13 833.26 85.12 833.25 C86 833.26 86.88 833.26 87.78 833.27 C92.37 833.45 92.37 833.45 96 831 C96.3 828.41 96.3 828.41 96.25 825.32 C96.26 823.5 96.26 823.5 96.27 821.64 C96.26 820.28 96.26 818.92 96.25 817.56 C96.26 816.13 96.26 814.69 96.26 813.25 C96.27 809.29 96.27 805.34 96.26 801.38 C96.26 797.11 96.26 792.85 96.27 788.58 C96.28 780.22 96.28 771.86 96.27 763.5 C96.27 756.71 96.27 749.92 96.27 743.13 C96.27 741.68 96.27 741.68 96.27 740.2 C96.27 738.24 96.27 736.28 96.27 734.32 C96.28 715.93 96.27 697.53 96.26 679.13 C96.25 663.33 96.25 647.52 96.26 631.72 C96.27 613.39 96.28 595.06 96.27 576.73 C96.27 574.78 96.27 572.82 96.27 570.87 C96.27 569.91 96.27 568.95 96.27 567.96 C96.26 561.17 96.27 554.39 96.27 547.6 C96.28 539.33 96.28 531.07 96.27 522.8 C96.26 518.58 96.26 514.36 96.27 510.14 C96.27 506.28 96.27 502.42 96.26 498.56 C96.26 497.16 96.26 495.76 96.26 494.36 C96.27 492.46 96.26 490.57 96.25 488.68 C96.25 487.62 96.25 486.56 96.25 485.48 C96.25 482.82 96.25 482.82 94 481 C91.01 480.8 88.11 480.73 85.12 480.75 C84.19 480.74 83.25 480.74 82.29 480.74 C79.15 480.73 76.02 480.73 72.88 480.74 C70.63 480.74 68.39 480.73 66.15 480.73 C60.04 480.72 53.93 480.73 47.82 480.73 C41.44 480.74 35.07 480.73 28.69 480.73 C17.29 480.72 5.89 480.73 -5.51 480.74 C-15.86 480.75 -26.2 480.75 -36.55 480.74 C-48.55 480.73 -60.55 480.72 -72.55 480.73 C-78.91 480.73 -85.27 480.73 -91.62 480.73 C-97.6 480.72 -103.58 480.73 -109.55 480.74 C-111.75 480.74 -113.95 480.74 -116.15 480.73 C-119.14 480.73 -122.13 480.74 -125.12 480.75 C-126 480.74 -126.88 480.74 -127.78 480.73 C-132.37 480.55 -132.37 480.55 -136 483 Z M184 483 C183.7 485.59 183.7 485.59 183.75 488.68 C183.74 489.89 183.74 491.11 183.73 492.36 C183.74 493.72 183.74 495.08 183.75 496.44 C183.74 497.87 183.74 499.31 183.74 500.75 C183.73 504.71 183.73 508.66 183.74 512.62 C183.74 516.89 183.74 521.15 183.73 525.42 C183.72 533.78 183.72 542.14 183.73 550.5 C183.73 557.29 183.73 564.08 183.73 570.87 C183.73 571.84 183.73 572.8 183.73 573.8 C183.73 575.76 183.73 577.72 183.73 579.68 C183.72 598.07 183.73 616.47 183.74 634.87 C183.75 650.67 183.75 666.48 183.74 682.28 C183.73 700.61 183.72 718.94 183.73 737.27 C183.73 739.22 183.73 741.18 183.73 743.13 C183.73 744.09 183.73 745.05 183.73 746.04 C183.74 752.83 183.73 759.61 183.73 766.4 C183.72 774.67 183.72 782.93 183.73 791.2 C183.74 795.42 183.74 799.64 183.73 803.86 C183.73 807.72 183.73 811.58 183.74 815.44 C183.74 816.84 183.74 818.24 183.74 819.64 C183.73 821.54 183.74 823.43 183.75 825.32 C183.75 826.91 183.75 826.91 183.75 828.52 C183.75 831.18 183.75 831.18 186 833 C188.32 833.3 188.32 833.3 191.05 833.25 C192.13 833.26 193.2 833.26 194.31 833.27 C195.5 833.26 196.69 833.26 197.92 833.25 C199.81 833.26 199.81 833.26 201.73 833.26 C205.24 833.27 208.74 833.27 212.24 833.26 C216.02 833.26 219.79 833.26 223.56 833.27 C230.96 833.28 238.36 833.28 245.75 833.27 C251.76 833.27 257.77 833.27 263.78 833.27 C264.64 833.27 265.49 833.27 266.37 833.27 C268.11 833.27 269.84 833.27 271.58 833.27 C287.86 833.28 304.14 833.27 320.42 833.26 C334.4 833.25 348.38 833.25 362.37 833.26 C378.59 833.27 394.81 833.28 411.03 833.27 C412.76 833.27 414.49 833.27 416.22 833.27 C417.07 833.27 417.92 833.27 418.79 833.27 C424.8 833.26 430.8 833.27 436.81 833.27 C444.12 833.28 451.44 833.28 458.75 833.27 C462.49 833.26 466.22 833.26 469.96 833.27 C474 833.27 478.04 833.26 482.08 833.25 C483.27 833.26 484.46 833.26 485.69 833.27 C486.77 833.26 487.84 833.26 488.95 833.25 C489.88 833.25 490.82 833.25 491.78 833.25 C494.21 833.21 494.21 833.21 496 831 C496.21 828.37 496.28 825.88 496.25 823.25 C496.24 822.46 496.23 821.67 496.23 820.86 C496.19 800.57 496.19 800.57 489.45 781.86 C485.52 774.12 485.14 764.68 484.33 756.15 C484.21 754.94 484.1 753.73 483.97 752.49 C483.74 750.07 483.54 747.65 483.35 745.23 C482.84 738.58 482.84 738.58 479.56 732.96 C478.71 732.31 477.87 731.67 477 731 C475.65 728.97 474.49 726.9 473.31 724.77 C471.64 722.52 470.64 721.99 468 721 C465.24 720.81 462.57 720.73 459.81 720.74 C458.98 720.74 458.14 720.73 457.28 720.73 C454.49 720.72 451.69 720.72 448.9 720.73 C446.9 720.72 444.89 720.72 442.89 720.71 C438.58 720.7 434.26 720.7 429.95 720.7 C423.13 720.69 416.31 720.68 409.49 720.65 C392.55 720.61 375.62 720.57 358.68 720.55 C345.51 720.54 332.35 720.51 319.19 720.47 C312.41 720.45 305.63 720.44 298.85 720.44 C294.63 720.44 290.41 720.43 286.2 720.41 C284.24 720.4 282.28 720.4 280.33 720.41 C277.66 720.41 274.99 720.4 272.32 720.39 C271.54 720.39 270.77 720.4 269.97 720.4 C265.47 720.35 262.59 719.76 259 717 C256.48 713.59 256.74 710.15 256.73 706.02 C256.72 705.32 256.72 704.63 256.71 703.91 C256.7 701.62 256.7 699.33 256.7 697.04 C256.7 695.44 256.69 693.84 256.69 692.25 C256.68 688.9 256.68 685.56 256.68 682.21 C256.69 677.93 256.67 673.65 256.65 669.37 C256.64 666.07 256.63 662.77 256.64 659.48 C256.64 657.9 256.63 656.32 256.62 654.74 C256.61 652.53 256.62 650.32 256.63 648.11 C256.63 646.86 256.63 645.6 256.63 644.31 C257.04 640.69 257.75 638.84 260 636 C263.73 633.38 267.81 633.72 272.19 633.74 C273.02 633.74 273.85 633.73 274.71 633.73 C277.5 633.72 280.29 633.72 283.09 633.73 C285.09 633.72 287.09 633.72 289.09 633.71 C293.4 633.7 297.71 633.7 302.02 633.7 C308.83 633.69 315.65 633.68 322.47 633.65 C339.4 633.61 356.32 633.57 373.25 633.55 C386.41 633.54 399.56 633.51 412.72 633.47 C419.49 633.45 426.27 633.44 433.04 633.44 C437.26 633.44 441.47 633.43 445.69 633.41 C447.64 633.4 449.6 633.4 451.55 633.41 C454.22 633.41 456.89 633.4 459.56 633.39 C460.33 633.39 461.11 633.4 461.9 633.4 C468.16 633.33 472.08 631.74 476.69 627.56 C480.06 623.82 482.25 621.31 483 616.25 C483.16 615.29 483.32 614.32 483.48 613.33 C483.74 611.68 483.74 611.68 484 610 C485.68 599.21 487.85 590.22 494 581 C498 566.07 499.31 541.9 491.56 528.25 C491.15 527.64 490.74 527.02 490.32 526.39 C486.31 519.12 485.04 510.85 483.71 502.75 C482.69 497.3 481.32 494.73 477 491 C475.65 488.97 474.49 486.9 473.31 484.77 C471.71 482.6 470.49 482.01 468 481 C465.65 480.7 465.65 480.7 463.11 480.75 C462.12 480.74 461.13 480.74 460.11 480.73 C459.03 480.74 457.94 480.74 456.83 480.75 C455.1 480.74 455.1 480.74 453.33 480.74 C450.13 480.73 446.93 480.73 443.72 480.74 C440.27 480.74 436.82 480.74 433.36 480.73 C426.6 480.72 419.83 480.72 413.07 480.73 C407.57 480.73 402.08 480.73 396.58 480.73 C395.8 480.73 395.02 480.73 394.21 480.73 C392.63 480.73 391.04 480.73 389.45 480.73 C374.56 480.72 359.67 480.73 344.78 480.74 C331.99 480.75 319.2 480.75 306.41 480.74 C291.57 480.73 276.73 480.72 261.89 480.73 C260.31 480.73 258.73 480.73 257.15 480.73 C256.37 480.73 255.59 480.73 254.79 480.73 C249.3 480.74 243.81 480.73 238.31 480.73 C231.63 480.72 224.94 480.72 218.25 480.73 C214.83 480.74 211.42 480.74 208 480.73 C204.31 480.73 200.61 480.74 196.92 480.75 C195.29 480.74 195.29 480.74 193.62 480.73 C192.14 480.74 192.14 480.74 190.64 480.75 C189.79 480.75 188.93 480.75 188.05 480.75 C185.78 480.81 185.78 480.81 184 483 Z M-526 923 C-525.5 928.29 -524.98 933.57 -524.46 938.85 C-524.28 940.65 -524.1 942.44 -523.94 944.24 C-523.69 946.83 -523.43 949.42 -523.17 952 C-523.06 953.2 -523.06 953.2 -522.95 954.41 C-522.27 960.89 -520.86 965.89 -516.45 970.89 C-513.4 974.76 -512.73 977.99 -511.88 982.75 C-511.35 985.56 -510.74 988.23 -510 991 C-506.37 993.42 -504.71 993.25 -500.39 993.25 C-499.37 993.26 -499.37 993.26 -498.33 993.26 C-496.03 993.27 -493.73 993.26 -491.43 993.25 C-489.76 993.26 -488.1 993.26 -486.44 993.26 C-481.83 993.27 -477.23 993.27 -472.62 993.26 C-467.62 993.26 -462.63 993.27 -457.63 993.27 C-448.86 993.28 -440.09 993.28 -431.32 993.28 C-418.28 993.27 -405.24 993.28 -392.2 993.29 C-368.23 993.3 -344.27 993.3 -320.31 993.3 C-316.91 993.3 -313.51 993.3 -310.12 993.3 C-309.44 993.3 -308.77 993.3 -308.07 993.3 C-293.13 993.3 -278.19 993.3 -263.25 993.31 C-259.84 993.31 -256.43 993.31 -253.02 993.31 C-251.65 993.31 -250.28 993.31 -248.91 993.31 C-248.24 993.31 -247.56 993.31 -246.86 993.31 C-245.49 993.31 -244.11 993.31 -242.74 993.31 C-203.8 993.32 -164.87 993.32 -125.93 993.32 C-124.85 993.32 -124.85 993.32 -123.74 993.32 C-115.7 993.32 -107.65 993.32 -99.61 993.32 C-98.52 993.32 -98.52 993.32 -97.41 993.32 C-93 993.32 -93 993.32 -88.6 993.32 C-42.13 993.31 4.33 993.32 50.8 993.34 C62.51 993.34 74.22 993.35 85.93 993.35 C86.65 993.35 87.37 993.35 88.11 993.35 C110.32 993.36 132.53 993.36 154.74 993.36 C155.78 993.36 155.78 993.36 156.85 993.36 C172.15 993.37 187.45 993.36 202.74 993.36 C208.22 993.36 213.69 993.36 219.16 993.36 C220.52 993.36 221.89 993.36 223.25 993.36 C244.97 993.36 266.69 993.37 288.42 993.38 C310.89 993.39 333.37 993.39 355.85 993.38 C368.82 993.37 381.79 993.37 394.76 993.39 C403.41 993.4 412.06 993.39 420.71 993.38 C425.64 993.38 430.58 993.37 435.52 993.39 C440 993.4 444.49 993.39 448.97 993.38 C450.59 993.38 452.21 993.38 453.83 993.39 C456.01 993.4 458.2 993.39 460.39 993.37 C462.21 993.37 462.21 993.37 464.07 993.37 C466.99 993.24 466.99 993.24 468.88 991.61 C470.34 989.52 470.55 987.93 470.81 985.39 C470.97 984.04 470.97 984.04 471.13 982.66 C471.33 980.78 471.53 978.9 471.73 977.02 C472.58 969.95 474.14 964.03 479.12 958.75 C483.99 951.62 483.3 941.26 483.81 932.88 C483.88 931.94 483.94 931 484.01 930.04 C484.05 929.15 484.1 928.27 484.14 927.37 C484.21 926.18 484.21 926.18 484.28 924.96 C484.14 923.99 484.14 923.99 484 923 C480.33 920.55 478.58 920.75 474.21 920.75 C473.16 920.75 473.16 920.75 472.09 920.74 C469.73 920.73 467.36 920.74 465 920.75 C463.29 920.75 461.57 920.74 459.86 920.74 C455.13 920.73 450.39 920.74 445.66 920.74 C440.52 920.75 435.38 920.74 430.24 920.74 C421.22 920.73 412.2 920.73 403.18 920.73 C389.77 920.74 376.36 920.74 362.95 920.73 C340.39 920.72 317.83 920.72 295.27 920.73 C294.58 920.73 293.89 920.73 293.19 920.73 C292.5 920.73 291.81 920.73 291.1 920.73 C270.14 920.73 249.18 920.73 228.22 920.73 C226.82 920.73 225.42 920.73 224.02 920.73 C218.38 920.73 212.75 920.73 207.11 920.73 C191.36 920.73 175.61 920.73 159.86 920.73 C159.14 920.73 158.42 920.73 157.68 920.73 C134.81 920.73 111.95 920.73 89.08 920.73 C87.97 920.73 87.97 920.73 86.83 920.73 C74.78 920.73 62.73 920.74 50.68 920.74 C2.89 920.75 -44.9 920.75 -92.69 920.74 C-104.73 920.74 -116.77 920.73 -128.81 920.73 C-129.55 920.73 -130.29 920.73 -131.06 920.73 C-153.9 920.73 -176.74 920.73 -199.58 920.73 C-200.3 920.73 -201.02 920.73 -201.76 920.73 C-217.49 920.73 -233.23 920.73 -248.96 920.73 C-254.59 920.73 -260.22 920.73 -265.85 920.73 C-267.25 920.73 -268.66 920.73 -270.06 920.73 C-291.01 920.73 -311.96 920.73 -332.91 920.73 C-333.6 920.73 -334.29 920.73 -335 920.73 C-335.68 920.73 -336.37 920.73 -337.08 920.73 C-360.19 920.72 -383.31 920.72 -406.43 920.73 C-419.77 920.74 -433.11 920.74 -446.45 920.73 C-455.35 920.73 -464.24 920.73 -473.14 920.74 C-478.22 920.74 -483.3 920.75 -488.37 920.74 C-492.99 920.73 -497.6 920.74 -502.21 920.75 C-503.88 920.75 -505.54 920.75 -507.21 920.74 C-509.46 920.73 -511.71 920.74 -513.96 920.75 C-515.21 920.75 -516.46 920.75 -517.74 920.75 C-520.92 920.99 -523.14 921.63 -526 923 Z " fill="#000000" transform="translate(660,123)"/>
<path d="M0 0 C0.89 -0.01 1.78 -0.02 2.7 -0.04 C11.22 -0.06 20.11 0.32 26.75 6.19 C28.03 8.14 29.17 10.15 30.33 12.18 C31.94 14.46 33.56 15.64 35.88 17.19 C41.05 20.78 42.05 24.87 43.3 30.8 C44.83 42.4 46.02 58.63 40.12 69.06 C37.51 71.4 34.78 72.97 31.76 74.73 C29.5 76.37 28.29 78.01 26.75 80.31 C23.16 85.49 19.07 86.48 13.14 87.74 C1.54 89.27 -14.69 90.46 -25.12 84.56 C-27.46 81.95 -29.04 79.22 -30.79 76.2 C-32.43 73.94 -34.07 72.73 -36.38 71.19 C-41.55 67.6 -42.54 63.51 -43.8 57.58 C-44.4 53.02 -44.43 48.53 -44.44 43.94 C-44.45 43.05 -44.46 42.16 -44.47 41.24 C-44.49 32.72 -44.12 23.83 -38.25 17.19 C-36.29 15.91 -34.29 14.76 -32.26 13.61 C-29.98 12 -28.79 10.37 -27.25 8.06 C-23.66 2.89 -19.57 1.89 -13.64 0.63 C-9.08 0.03 -4.59 0 0 0 Z " fill="#000000" transform="translate(640.25,675.8125)"/>
</svg>
